<svg width="74" height="74" viewBox="0 0 74 74" fill="none" xmlns="http://www.w3.org/2000/svg">
<rect width="74" height="74" rx="15" fill="#F58634" fill-opacity="0.4"/>
<g clip-path="url(#clip0_1897_768)">
<path d="M59.07 14.8679H14.93C13.3118 14.8679 12 16.1797 12 17.7979V56.2021C12 57.8203 13.3118 59.132 14.93 59.132H59.0701C60.6883 59.132 62.0001 57.8202 62.0001 56.2021V17.7979C62 16.1797 60.6883 14.8679 59.07 14.8679Z" fill="#6E4320"/>
<path d="M58.0147 37V21.1784C58.0147 19.8943 56.9738 18.8535 55.6898 18.8535H18.3107C17.0267 18.8535 15.9858 19.8944 15.9858 21.1784V36.998L35.9011 48.0783L58.0147 37Z" fill="#A6E7FF"/>
<path d="M48.3824 32.0097C50.837 32.0097 52.8269 30.0199 52.8269 27.5653C52.8269 25.1107 50.837 23.1208 48.3824 23.1208C45.9278 23.1208 43.938 25.1107 43.938 27.5653C43.938 30.0199 45.9278 32.0097 48.3824 32.0097Z" fill="#F58634"/>
<path opacity="0.1" d="M46.2149 28.7036C46.2149 26.2489 48.2049 24.2591 50.6596 24.2591C50.9203 24.2591 51.1755 24.2829 51.424 24.3259C50.6288 23.5788 49.5594 23.1204 48.3821 23.1204C45.9274 23.1204 43.9375 25.1103 43.9375 27.5648C43.9375 29.7586 45.5274 31.5799 47.6177 31.9425C46.7547 31.1318 46.2149 29.9811 46.2149 28.7036Z" fill="black"/>
<path d="M38.7551 33.7533C38.6279 31.2774 36.5802 29.3092 34.0728 29.3092C33.4685 29.3092 32.8915 29.4248 32.3611 29.6329C32.1758 26.7542 29.7835 24.4763 26.8579 24.4763C25.6772 24.4763 24.5842 24.8484 23.687 25.48C22.9789 23.3136 20.9428 21.748 18.5399 21.748C17.6162 21.748 16.7468 21.9799 15.9858 22.3877V33.7534L38.7551 33.7533Z" fill="white"/>
<path d="M15.9854 36.9982V55.1465H22.994L31.6449 51.7262L39.6611 41.0815C28.3344 36.0328 15.9854 36.9982 15.9854 36.9982Z" fill="#7EB35B"/>
<path opacity="0.1" d="M38.0887 43.1695L39.661 41.0815C28.3343 36.0328 15.9854 36.9982 15.9854 36.9982V39.2221C19.239 39.125 28.9396 39.2227 38.0887 43.1695Z" fill="black"/>
<path d="M22.9941 55.1464H55.6895C56.9736 55.1464 58.0145 54.1055 58.0145 52.8215V37.0001C58.0145 37.0001 35.2001 36.4341 22.9941 55.1464Z" fill="#A5EB78"/>
<path opacity="0.1" d="M58.0145 39.3549V37.0001C58.0145 37.0001 35.2001 36.4342 22.9941 55.1465H26.8797C36.8729 42.0376 52.2583 39.7466 58.0145 39.3549Z" fill="black"/>
</g>
<defs>
<clipPath id="clip0_1897_768">
<rect width="50" height="50" fill="white" transform="translate(12 12)"/>
</clipPath>
</defs>
</svg>
