<svg width="74" height="74" viewBox="0 0 74 74" fill="none" xmlns="http://www.w3.org/2000/svg">
<rect width="74" height="74" rx="15" fill="#F58634" fill-opacity="0.4"/>
<g clip-path="url(#clip0_1897_825)">
<path d="M27.6382 22.2129C26.6807 22.2129 25.936 22.9576 25.936 23.9151C25.936 24.8725 26.6807 25.6172 27.6382 25.6172C28.5956 25.6172 29.3404 24.8725 29.3404 23.9151C29.3404 22.9576 28.5956 22.2129 27.6382 22.2129ZM27.6382 24.7661C27.1063 24.7661 26.6807 24.3405 26.6807 23.8086C26.6807 23.2768 27.1063 22.8512 27.6382 22.8512C28.1701 22.8512 28.5956 23.2768 28.5956 23.8086C28.5956 24.3405 28.1701 24.7661 27.6382 24.7661Z" fill="#E0E0DF"/>
<path d="M15.085 33.1702L17.6382 59.8723C17.7446 61.0425 18.8083 61.9999 20.1913 61.9999H34.6595C35.9361 61.9999 37.1063 61.0425 37.2127 59.8723L39.7659 33.1702H15.085Z" fill="#9B9592"/>
<path d="M41.0426 28.9148H14.234C12.9574 28.9148 12 29.8722 12 31.0424C12 32.2126 13.0639 33.1701 14.234 33.1701H41.0426C42.3192 33.1701 43.2766 32.2126 43.2766 31.0424C43.383 29.8722 42.3192 28.9148 41.0426 28.9148Z" fill="#E0E0DF"/>
<path d="M39.3402 28.9148C36.2552 26.3616 32.1062 24.7659 27.6381 24.7659C23.17 24.7659 19.0211 26.3616 15.936 28.9148H39.3402Z" fill="#C6C4C3"/>
<path d="M20.6171 37.532C20.0852 37.532 19.6597 38.0639 19.6597 38.5958L20.8298 56.8938C20.8298 57.3193 21.2554 57.6385 21.6809 57.6385C22.1064 57.6385 22.5319 57.3193 22.4256 56.8938L21.6809 38.5958C21.681 37.9575 21.149 37.532 20.6171 37.532Z" fill="#E0E0DF"/>
<path d="M27.4257 37.532C26.8938 37.532 26.4683 38.0639 26.4683 38.5958L26.5747 56.8938C26.5747 57.3193 26.8938 57.6385 27.4257 57.6385C27.9576 57.6385 28.2767 57.3193 28.2767 56.8938L28.3832 38.5958C28.3832 37.9575 27.9576 37.532 27.4257 37.532Z" fill="#E0E0DF"/>
<path d="M34.2342 37.532C33.7023 37.532 33.2768 38.0639 33.1704 38.5958L32.3193 56.8938C32.3193 57.3193 32.6385 57.6385 33.0641 57.6385C33.4896 57.6385 33.9151 57.3193 33.9151 56.8938L35.0853 38.5958C35.1917 37.9575 34.7662 37.532 34.2342 37.532Z" fill="#E0E0DF"/>
<path d="M51.4683 12C50.5108 12 49.7661 12.7447 49.7661 13.7022V42C49.7661 42.9575 50.5108 43.7022 51.4683 43.7022C52.4257 43.7022 53.1704 42.9575 53.1704 42V13.7022C53.1704 12.7447 52.4257 12 51.4683 12Z" fill="#6E4320"/>
<path d="M54.9786 46.6809H47.9573C47.319 46.6809 46.7871 46.1491 46.7871 45.5108C46.7871 44.8725 47.319 44.3406 47.9573 44.3406H54.9786C55.6169 44.3406 56.1488 44.8725 56.1488 45.5108C56.0424 46.1491 55.5106 46.6809 54.9786 46.6809Z" fill="#637888"/>
<path d="M53.1704 41.8936H49.7662C49.3406 41.8936 49.0215 42.2127 49.0215 42.6383V44.4467H53.8087V42.6383C53.8087 42.2127 53.4896 41.8936 53.1704 41.8936Z" fill="#F16D6E"/>
<path d="M57.1063 62H58.0638L56.0425 58.1702L57.1063 62Z" fill="#6E4320"/>
<path d="M58.9152 62.0001H62.0002L54.6598 46.6809H48.1705L40.8301 62.0001H57.1067L56.0428 58.1703L58.0641 62.0001H58.1705L54.6598 51.5746L58.9152 62.0001Z" fill="#F58634"/>
<path d="M54.6597 51.5745L58.1703 62H58.915L54.6597 51.5745Z" fill="#6E4320"/>
</g>
<defs>
<clipPath id="clip0_1897_825">
<rect width="50" height="50" fill="white" transform="translate(12 12)"/>
</clipPath>
</defs>
</svg>
