<svg width="74" height="74" viewBox="0 0 74 74" fill="none" xmlns="http://www.w3.org/2000/svg">
<rect width="74" height="74" rx="15" fill="#F58634" fill-opacity="0.4"/>
<g clip-path="url(#clip0_1897_596)">
<path d="M26.4303 47.1927C26.4303 47.1927 34.6641 46.2 37.5459 44.6283C40.4277 43.0566 61.8354 42.3121 61.8354 47.1927C61.8354 52.0732 37.2165 54.224 37.2165 54.224L24.2896 53.4795L26.4303 47.1927Z" fill="#FBBEBE"/>
<path d="M26.4303 47.1927C26.4303 47.1927 34.6641 46.2 37.5459 44.6283C40.4277 43.0566 61.8354 42.3121 61.8354 47.1927C61.8354 52.0732 37.2165 54.224 37.2165 54.224L24.2896 53.4795L26.4303 47.1927Z" fill="#78454C"/>
<path d="M28.8181 46.2828L27.089 51.3288L0 51.6597V44.2147C0 44.2147 10.3745 41.8158 18.6082 46.9445C18.6082 46.9445 28.324 45.7864 28.8181 46.2828Z" fill="#F58634"/>
<path opacity="0.1" d="M28.8181 46.2749L27.089 51.321L0 51.6518V44.2069C0 44.2069 10.3745 41.808 18.6082 46.9367C18.6082 46.9367 28.324 45.7786 28.8181 46.2749Z" fill="black"/>
<path d="M59.7891 44.1737C59.7891 44.4556 59.1598 44.6649 59.0979 44.9369C59.0366 45.2066 59.4105 45.6168 59.2922 45.8745C59.1699 46.1379 59.0254 46.3903 58.8603 46.629C58.7053 46.852 58.2265 46.8194 58.0302 47.0285C57.838 47.2184 57.6344 47.3963 57.4205 47.5611C57.2122 47.7352 56.93 47.7717 56.6931 47.9319C56.4679 48.0843 56.4951 48.6431 56.246 48.7818C56.0079 48.9144 55.6435 48.8078 55.3852 48.9269C55.1374 49.0413 55.0066 49.455 54.7416 49.5561C54.4861 49.6537 54.1697 49.6117 53.8995 49.6962C53.638 49.778 53.3455 49.7647 53.0714 49.8336C52.8053 49.9004 52.6021 50.3012 52.3253 50.3552C52.0556 50.4078 51.7396 50.2674 51.4607 50.3073C51.1884 50.3462 50.8717 49.9999 50.5915 50.0262C50.3173 50.0518 50.0589 50.2121 49.7781 50.2251C49.5028 50.2378 49.2305 50.3596 48.9496 50.3596C48.6688 50.3596 48.379 50.6243 48.1037 50.6116C47.8229 50.5987 47.5686 50.1974 47.2945 50.1718C47.0143 50.1456 46.6801 50.5647 46.4077 50.5257C46.1289 50.4859 45.908 50.0756 45.6383 50.023C45.3615 49.969 45.0039 50.2622 44.7377 50.1953C44.4637 50.1264 44.301 49.6492 44.0395 49.5674C43.7693 49.4829 43.4343 49.5973 43.1788 49.4998C42.9137 49.3986 42.5909 49.4148 42.343 49.3004C42.0847 49.1813 41.8993 48.8993 41.6613 48.7667C41.4121 48.628 41.2972 48.2839 41.072 48.1316C40.8351 47.9713 40.4742 47.9918 40.2659 47.8177C40.0459 47.6339 39.6339 47.6244 39.4483 47.4266C39.2519 47.2175 39.1725 46.8664 39.0175 46.6434C38.8543 46.4086 39.1747 45.9121 39.0607 45.6638C38.9424 45.4063 38.448 45.3016 38.3867 45.0319C38.3234 44.7502 38.2909 44.4625 38.2898 44.1737C38.2898 43.8918 38.7127 43.6763 38.7745 43.4043C38.8359 43.1346 38.5247 42.7471 38.643 42.4895C38.757 42.2413 38.7424 41.8597 38.9057 41.6248C39.0607 41.4019 39.4475 41.3144 39.6438 41.1054C39.8294 40.9077 40.1616 40.8525 40.3815 40.6688C40.5898 40.4947 40.5633 39.9698 40.8002 39.8096C41.0254 39.6573 41.3399 39.5878 41.589 39.449C41.8271 39.3165 42.164 39.3388 42.4222 39.2196C42.6701 39.1053 43.0584 39.3306 43.3234 39.2295C43.5789 39.1319 43.7862 38.9187 44.0564 38.8342C44.3179 38.7524 44.4408 38.1287 44.7148 38.0598C44.9809 37.993 45.3083 38.104 45.5851 38.0499C45.8548 37.9973 46.2177 38.4894 46.4966 38.4495C46.7689 38.4106 46.9726 37.7537 47.2527 37.7275C47.5269 37.7018 47.8361 38.042 48.1169 38.0291C48.3923 38.0164 48.6687 38.2157 48.9496 38.2157C49.2305 38.2157 49.5103 37.9421 49.7856 37.9548C50.0664 37.9678 50.314 38.3294 50.5882 38.355C50.8684 38.3812 51.2123 37.8313 51.4847 37.8702C51.7635 37.9101 51.979 38.3352 52.2487 38.3878C52.5256 38.4419 52.8723 38.1779 53.1385 38.2448C53.4126 38.3137 53.5774 38.7655 53.839 38.8473C54.1092 38.9318 54.2756 39.2506 54.5312 39.3482C54.7962 39.4493 55.2886 38.976 55.5365 39.0903C55.7947 39.2095 56.0178 39.4157 56.2559 39.5483C56.505 39.687 56.9011 39.6173 57.1263 39.7696C57.3632 39.9299 57.4214 40.36 57.6298 40.5341C57.8497 40.7179 58.2125 40.7732 58.3981 40.9709C58.5944 41.18 58.6217 41.5547 58.7767 41.7777C58.9399 42.0126 58.9348 42.3379 59.0487 42.5862C59.167 42.8437 59.4827 43.0386 59.5441 43.3083C59.6059 43.5801 59.7891 43.8918 59.7891 44.1737Z" fill="#3F3D56"/>
<path d="M30.1356 49.3436C30.1356 49.3436 39.4397 44.5457 45.4503 46.3656C51.4609 48.1855 59.8593 45.042 60.8474 46.1174C61.8354 47.1928 63.2352 58.7738 51.3786 59.4356C39.522 60.0974 29.3945 57.4503 29.3945 57.4503L30.1356 49.3436Z" fill="#A0616A"/>
<path d="M27.9444 48.8324C27.9444 48.8324 31.6175 48.5989 31.4529 49.9224C31.2882 51.246 31.1235 61.5034 30.1355 61.7516C29.1474 61.9998 21.3254 61.9998 18.1142 61.9998H0V46.141C0 46.141 12.8446 45.3727 19.2669 48.5989C19.2669 48.5989 26.9883 48.4869 27.9444 48.8324Z" fill="#F58634"/>
<path d="M45.1522 24.0273C44.8012 24.0473 44.4627 24.165 44.1746 24.3674C43.8865 24.5698 43.6602 24.8488 43.5211 25.1731C43.1132 26.1636 43.6384 27.3271 44.4267 28.0494C45.2151 28.7717 46.2277 29.1845 47.1478 29.7272C48.3837 30.456 49.4942 31.4679 50.1125 32.7667C50.7309 34.0655 50.7967 35.6743 50.0698 36.9152C49.3952 38.0668 48.1684 38.7561 46.9985 39.3918" stroke="#3F3D56" stroke-miterlimit="10"/>
<path d="M48.4456 17.9888C48.0947 18.0087 47.7561 18.1264 47.468 18.3288C47.1799 18.5312 46.9537 18.8102 46.8145 19.1345C46.4067 20.125 46.9318 21.2885 47.7202 22.0108C48.5085 22.7331 49.5212 23.1459 50.4413 23.6886C51.6771 24.4175 52.7876 25.4293 53.406 26.7281C54.0244 28.0269 54.0901 29.6358 53.3633 30.8766C52.6886 32.0283 51.4619 32.7175 50.2919 33.3532" stroke="#3F3D56" stroke-miterlimit="10"/>
<path d="M59.2745 19.3776C58.9848 19.1775 58.6454 19.0624 58.2943 19.0452C57.9432 19.028 57.5942 19.1095 57.2866 19.2804C56.3605 19.8128 56.0668 21.0557 56.2501 22.1117C56.4333 23.1677 56.9825 24.117 57.3794 25.1119C57.9125 26.4484 58.1741 27.9314 57.8716 29.3387C57.5691 30.7461 56.6408 32.0587 55.31 32.5928C54.0748 33.0885 52.6848 32.879 51.3723 32.6621" stroke="#3F3D56" stroke-miterlimit="10"/>
<path d="M49.7317 31.8612C50.8231 31.8612 51.7078 31.4295 51.7078 30.8969C51.7078 30.3643 50.8231 29.9326 49.7317 29.9326C48.6403 29.9326 47.7556 30.3643 47.7556 30.8969C47.7556 31.4295 48.6403 31.8612 49.7317 31.8612Z" fill="#57B894"/>
<path d="M49.4846 31.6957C50.576 31.6957 51.4607 31.264 51.4607 30.7314C51.4607 30.1988 50.576 29.7671 49.4846 29.7671C48.3933 29.7671 47.5085 30.1988 47.5085 30.7314C47.5085 31.264 48.3933 31.6957 49.4846 31.6957Z" stroke="#3F3D56" stroke-miterlimit="10"/>
<path d="M54.0132 31.0336C55.1046 31.0336 55.9893 30.6018 55.9893 30.0693C55.9893 29.5367 55.1046 29.105 54.0132 29.105C52.9218 29.105 52.0371 29.5367 52.0371 30.0693C52.0371 30.6018 52.9218 31.0336 54.0132 31.0336Z" fill="#57B894"/>
<path d="M53.7664 30.8685C54.8577 30.8685 55.7425 30.4368 55.7425 29.9042C55.7425 29.3717 54.8577 28.9399 53.7664 28.9399C52.675 28.9399 51.7903 29.3717 51.7903 29.9042C51.7903 30.4368 52.675 30.8685 53.7664 30.8685Z" stroke="#3F3D56" stroke-miterlimit="10"/>
<path d="M54.6719 34.6737C55.7633 34.6737 56.648 34.242 56.648 33.7094C56.648 33.1768 55.7633 32.7451 54.6719 32.7451C53.5805 32.7451 52.6958 33.1768 52.6958 33.7094C52.6958 34.242 53.5805 34.6737 54.6719 34.6737Z" fill="#57B894"/>
<path d="M54.4251 34.5082C55.5164 34.5082 56.4012 34.0765 56.4012 33.5439C56.4012 33.0113 55.5164 32.5796 54.4251 32.5796C53.3337 32.5796 52.449 33.0113 52.449 33.5439C52.449 34.0765 53.3337 34.5082 54.4251 34.5082Z" stroke="#3F3D56" stroke-miterlimit="10"/>
<path d="M54.2603 25.5741C55.3516 25.5741 56.2364 25.1424 56.2364 24.6098C56.2364 24.0772 55.3516 23.6455 54.2603 23.6455C53.1689 23.6455 52.2842 24.0772 52.2842 24.6098C52.2842 25.1424 53.1689 25.5741 54.2603 25.5741Z" fill="#57B894"/>
<path d="M54.0132 25.4086C55.1046 25.4086 55.9893 24.9768 55.9893 24.4443C55.9893 23.9117 55.1046 23.48 54.0132 23.48C52.9218 23.48 52.0371 23.9117 52.0371 24.4443C52.0371 24.9768 52.9218 25.4086 54.0132 25.4086Z" stroke="#3F3D56" stroke-miterlimit="10"/>
<path d="M49.3201 24.995C50.4115 24.995 51.2962 24.5633 51.2962 24.0307C51.2962 23.4981 50.4115 23.0664 49.3201 23.0664C48.2287 23.0664 47.344 23.4981 47.344 24.0307C47.344 24.5633 48.2287 24.995 49.3201 24.995Z" fill="#57B894"/>
<path d="M49.073 24.8295C50.1644 24.8295 51.0491 24.3977 51.0491 23.8652C51.0491 23.3326 50.1644 22.9009 49.073 22.9009C47.9816 22.9009 47.0969 23.3326 47.0969 23.8652C47.0969 24.3977 47.9816 24.8295 49.073 24.8295Z" stroke="#3F3D56" stroke-miterlimit="10"/>
<path d="M51.5432 22.9271C52.6346 22.9271 53.5193 22.4954 53.5193 21.9628C53.5193 21.4303 52.6346 20.9985 51.5432 20.9985C50.4519 20.9985 49.5671 21.4303 49.5671 21.9628C49.5671 22.4954 50.4519 22.9271 51.5432 22.9271Z" fill="#57B894"/>
<path d="M51.2962 22.7616C52.3875 22.7616 53.2723 22.3299 53.2723 21.7973C53.2723 21.2647 52.3875 20.833 51.2962 20.833C50.2048 20.833 49.3201 21.2647 49.3201 21.7973C49.3201 22.3299 50.2048 22.7616 51.2962 22.7616Z" stroke="#3F3D56" stroke-miterlimit="10"/>
<path d="M56.4011 23.3407C57.4925 23.3407 58.3772 22.909 58.3772 22.3764C58.3772 21.8438 57.4925 21.4121 56.4011 21.4121C55.3098 21.4121 54.425 21.8438 54.425 22.3764C54.425 22.909 55.3098 23.3407 56.4011 23.3407Z" fill="#57B894"/>
<path d="M56.1541 23.1752C57.2454 23.1752 58.1302 22.7434 58.1302 22.2109C58.1302 21.6783 57.2454 21.2466 56.1541 21.2466C55.0627 21.2466 54.178 21.6783 54.178 22.2109C54.178 22.7434 55.0627 23.1752 56.1541 23.1752Z" stroke="#3F3D56" stroke-miterlimit="10"/>
<path d="M60.0239 26.0707C61.1153 26.0707 62 25.639 62 25.1064C62 24.5738 61.1153 24.1421 60.0239 24.1421C58.9326 24.1421 58.0479 24.5738 58.0479 25.1064C58.0479 25.639 58.9326 26.0707 60.0239 26.0707Z" fill="#57B894"/>
<path d="M59.7769 25.9052C60.8682 25.9052 61.753 25.4734 61.753 24.9409C61.753 24.4083 60.8682 23.9766 59.7769 23.9766C58.6855 23.9766 57.8008 24.4083 57.8008 24.9409C57.8008 25.4734 58.6855 25.9052 59.7769 25.9052Z" stroke="#3F3D56" stroke-miterlimit="10"/>
<path d="M47.2617 21.2728C48.3531 21.2728 49.2378 20.8411 49.2378 20.3085C49.2378 19.776 48.3531 19.3442 47.2617 19.3442C46.1704 19.3442 45.2856 19.776 45.2856 20.3085C45.2856 20.8411 46.1704 21.2728 47.2617 21.2728Z" fill="#57B894"/>
<path d="M47.0147 21.1073C48.106 21.1073 48.9908 20.6756 48.9908 20.143C48.9908 19.6104 48.106 19.1787 47.0147 19.1787C45.9233 19.1787 45.0386 19.6104 45.0386 20.143C45.0386 20.6756 45.9233 21.1073 47.0147 21.1073Z" stroke="#3F3D56" stroke-miterlimit="10"/>
<path d="M48.4966 18.1293C49.588 18.1293 50.4727 17.6975 50.4727 17.165C50.4727 16.6324 49.588 16.2007 48.4966 16.2007C47.4052 16.2007 46.5205 16.6324 46.5205 17.165C46.5205 17.6975 47.4052 18.1293 48.4966 18.1293Z" fill="#57B894"/>
<path d="M48.2498 17.9638C49.3411 17.9638 50.2259 17.532 50.2259 16.9995C50.2259 16.4669 49.3411 16.0352 48.2498 16.0352C47.1584 16.0352 46.2737 16.4669 46.2737 16.9995C46.2737 17.532 47.1584 17.9638 48.2498 17.9638Z" stroke="#3F3D56" stroke-miterlimit="10"/>
<path d="M59.9417 20.4452C61.033 20.4452 61.9178 20.0135 61.9178 19.4809C61.9178 18.9483 61.033 18.5166 59.9417 18.5166C58.8503 18.5166 57.9656 18.9483 57.9656 19.4809C57.9656 20.0135 58.8503 20.4452 59.9417 20.4452Z" fill="#57B894"/>
<path d="M59.6946 20.2802C60.786 20.2802 61.6707 19.8484 61.6707 19.3159C61.6707 18.7833 60.786 18.3516 59.6946 18.3516C58.6032 18.3516 57.7185 18.7833 57.7185 19.3159C57.7185 19.8484 58.6032 20.2802 59.6946 20.2802Z" stroke="#3F3D56" stroke-miterlimit="10"/>
<path d="M41.7451 28.0555C42.8365 28.0555 43.7212 27.6238 43.7212 27.0913C43.7212 26.5587 42.8365 26.127 41.7451 26.127C40.6538 26.127 39.769 26.5587 39.769 27.0913C39.769 27.6238 40.6538 28.0555 41.7451 28.0555Z" fill="#57B894"/>
<path d="M41.4981 27.8905C42.5894 27.8905 43.4742 27.4588 43.4742 26.9262C43.4742 26.3936 42.5894 25.9619 41.4981 25.9619C40.4067 25.9619 39.522 26.3936 39.522 26.9262C39.522 27.4588 40.4067 27.8905 41.4981 27.8905Z" stroke="#3F3D56" stroke-miterlimit="10"/>
<path d="M48.5791 27.5595C49.6705 27.5595 50.5552 27.1277 50.5552 26.5952C50.5552 26.0626 49.6705 25.6309 48.5791 25.6309C47.4878 25.6309 46.603 26.0626 46.603 26.5952C46.603 27.1277 47.4878 27.5595 48.5791 27.5595Z" fill="#57B894"/>
<path d="M48.3321 27.3939C49.4234 27.3939 50.3081 26.9622 50.3081 26.4296C50.3081 25.8971 49.4234 25.4653 48.3321 25.4653C47.2407 25.4653 46.356 25.8971 46.356 26.4296C46.356 26.9622 47.2407 27.3939 48.3321 27.3939Z" stroke="#3F3D56" stroke-miterlimit="10"/>
<path d="M57.5537 28.3041C58.6451 28.3041 59.5298 27.8724 59.5298 27.3398C59.5298 26.8072 58.6451 26.3755 57.5537 26.3755C56.4624 26.3755 55.5776 26.8072 55.5776 27.3398C55.5776 27.8724 56.4624 28.3041 57.5537 28.3041Z" fill="#57B894"/>
<path d="M57.3067 28.1386C58.398 28.1386 59.2828 27.7068 59.2828 27.1743C59.2828 26.6417 58.398 26.21 57.3067 26.21C56.2153 26.21 55.3306 26.6417 55.3306 27.1743C55.3306 27.7068 56.2153 28.1386 57.3067 28.1386Z" stroke="#3F3D56" stroke-miterlimit="10"/>
<path d="M52.7783 28.6347C53.8697 28.6347 54.7544 28.2029 54.7544 27.6704C54.7544 27.1378 53.8697 26.7061 52.7783 26.7061C51.687 26.7061 50.8022 27.1378 50.8022 27.6704C50.8022 28.2029 51.687 28.6347 52.7783 28.6347Z" fill="#57B894"/>
<path d="M52.5313 28.4696C53.6226 28.4696 54.5074 28.0379 54.5074 27.5053C54.5074 26.9727 53.6226 26.541 52.5313 26.541C51.4399 26.541 50.5552 26.9727 50.5552 27.5053C50.5552 28.0379 51.4399 28.4696 52.5313 28.4696Z" stroke="#3F3D56" stroke-miterlimit="10"/>
<path d="M53.1077 20.3627C54.1991 20.3627 55.0838 19.9309 55.0838 19.3984C55.0838 18.8658 54.1991 18.4341 53.1077 18.4341C52.0163 18.4341 51.1316 18.8658 51.1316 19.3984C51.1316 19.9309 52.0163 20.3627 53.1077 20.3627Z" fill="#57B894"/>
<path d="M52.8606 20.1972C53.952 20.1972 54.8367 19.7654 54.8367 19.2329C54.8367 18.7003 53.952 18.2686 52.8606 18.2686C51.7692 18.2686 50.8845 18.7003 50.8845 19.2329C50.8845 19.7654 51.7692 20.1972 52.8606 20.1972Z" stroke="#3F3D56" stroke-miterlimit="10"/>
<path d="M44.6267 25.4916C45.7181 25.4916 46.6028 25.0599 46.6028 24.5273C46.6028 23.9947 45.7181 23.563 44.6267 23.563C43.5354 23.563 42.6506 23.9947 42.6506 24.5273C42.6506 25.0599 43.5354 25.4916 44.6267 25.4916Z" fill="#57B894"/>
<path d="M44.3799 25.3261C45.4713 25.3261 46.356 24.8943 46.356 24.3618C46.356 23.8292 45.4713 23.3975 44.3799 23.3975C43.2885 23.3975 42.4038 23.8292 42.4038 24.3618C42.4038 24.8943 43.2885 25.3261 44.3799 25.3261Z" stroke="#3F3D56" stroke-miterlimit="10"/>
<path d="M45.7796 29.2138C46.8709 29.2138 47.7557 28.782 47.7557 28.2495C47.7557 27.7169 46.8709 27.2852 45.7796 27.2852C44.6882 27.2852 43.8035 27.7169 43.8035 28.2495C43.8035 28.782 44.6882 29.2138 45.7796 29.2138Z" fill="#57B894"/>
<path d="M45.5325 29.0482C46.6239 29.0482 47.5086 28.6165 47.5086 28.0839C47.5086 27.5514 46.6239 27.1196 45.5325 27.1196C44.4411 27.1196 43.5564 27.5514 43.5564 28.0839C43.5564 28.6165 44.4411 29.0482 45.5325 29.0482Z" stroke="#3F3D56" stroke-miterlimit="10"/>
<g opacity="0.3">
<path d="M45.8256 34.8338C46.1046 34.3324 46.1555 33.8275 45.9393 33.7062C45.7232 33.5848 45.3219 33.8929 45.0429 34.3943C44.764 34.8958 44.7131 35.4006 44.9292 35.522C45.1453 35.6434 45.5467 35.3353 45.8256 34.8338Z" fill="#57B894"/>
<path d="M45.6953 34.9095C45.9742 34.4081 46.0251 33.9032 45.809 33.7818C45.5928 33.6605 45.1915 33.9686 44.9125 34.47C44.6336 34.9714 44.5827 35.4763 44.7988 35.5977C45.015 35.719 45.4163 35.4109 45.6953 34.9095Z" stroke="#3F3D56" stroke-miterlimit="10"/>
</g>
<g opacity="0.3">
<path d="M56.1258 37.2377C56.2909 37.0523 56.0794 36.5915 55.6533 36.2084C55.2273 35.8253 54.7481 35.665 54.5829 35.8504C54.4178 36.0358 54.6293 36.4966 55.0554 36.8797C55.4814 37.2627 55.9606 37.423 56.1258 37.2377Z" fill="#57B894"/>
<path d="M56.0806 37.0936C56.2457 36.9083 56.0342 36.4474 55.6082 36.0643C55.1821 35.6813 54.7029 35.521 54.5378 35.7064C54.3726 35.8917 54.5841 36.3525 55.0102 36.7356C55.4362 37.1187 55.9155 37.279 56.0806 37.0936Z" stroke="#3F3D56" stroke-miterlimit="10"/>
</g>
<g opacity="0.3">
<path d="M46.9041 32.0262C47.0692 31.8409 46.8577 31.38 46.4317 30.997C46.0056 30.6139 45.5264 30.4536 45.3612 30.639C45.1961 30.8243 45.4076 31.2852 45.8337 31.6682C46.2597 32.0513 46.739 32.2116 46.9041 32.0262Z" fill="#57B894"/>
<path d="M46.8589 31.8822C47.0241 31.6968 46.8125 31.236 46.3865 30.8529C45.9605 30.4698 45.4812 30.3096 45.3161 30.4949C45.151 30.6803 45.3625 31.1411 45.7885 31.5242C46.2146 31.9073 46.6938 32.0676 46.8589 31.8822Z" stroke="#3F3D56" stroke-miterlimit="10"/>
</g>
</g>
<defs>
<clipPath id="clip0_1897_596">
<rect width="62" height="46" fill="white" transform="translate(0 16)"/>
</clipPath>
</defs>
</svg>
