<svg width="74" height="74" viewBox="0 0 74 74" fill="none" xmlns="http://www.w3.org/2000/svg">
<rect width="74" height="74" rx="15" fill="#F58634" fill-opacity="0.4"/>
<rect x="23" y="29" width="28" height="27" fill="#13524A"/>
<path fill-rule="evenodd" clip-rule="evenodd" d="M17.388 17.605H31.7256V15.4076C31.7218 14.6326 32.3545 14 33.1294 14H41.0431C41.818 14 42.4507 14.6326 42.4507 15.4076V17.605H56.6123C57.0952 17.605 57.492 18.0018 57.492 18.4847V22.7972H16.5083V18.4847C16.5083 18.0018 16.9014 17.605 17.388 17.605ZM19.7614 25.0845H54.5459C55.2721 25.0845 55.931 25.6834 55.8636 26.4022L52.9212 58.6823C52.8538 59.4048 52.326 60 51.6035 60H22.6663C21.9438 60 21.4123 59.4048 21.3486 58.6823L18.4437 26.4022C18.3763 25.6797 19.0352 25.0845 19.7614 25.0845ZM29.21 49.6043L26.904 45.64C26.4884 44.9212 26.3312 44.3597 26.6794 43.5286L28.0345 41.2489L26.6756 40.5189L31.2314 40.5002L33.5037 44.472L32.0999 43.6672L29.8239 47.7026C29.6068 48.0845 29.4271 48.3765 29.3185 48.8107C29.2549 49.0765 29.2212 49.3423 29.21 49.6043ZM30.1271 37.3444L32.3208 33.526C32.9385 32.7586 33.7059 32.4816 34.4359 32.6875C35.0648 32.8672 35.2407 33.1479 35.5739 33.6608C35.9744 34.271 36.3226 34.9224 36.6895 35.5625L34.2375 39.7777L30.1271 37.3444ZM35.1172 32.1297L39.7067 32.1147C40.5378 32.111 41.103 32.2607 41.6458 32.9757L42.9411 35.2892L44.255 34.4769L41.994 38.43L37.4157 38.4113L38.8158 37.599L36.4574 33.6084C36.2327 33.2303 36.0718 32.9308 35.7498 32.6164C35.5552 32.4292 35.3418 32.272 35.1172 32.1297ZM45.1086 39.2386L47.3172 43.0457C47.6729 43.9629 47.5306 44.7677 46.9841 45.2956C46.5161 45.7523 46.1829 45.7598 45.5728 45.7972C44.8428 45.8384 44.1053 45.8159 43.3678 45.8122L40.9458 41.582L45.1086 39.2386ZM47.13 46.1678L44.8503 50.1509C44.4385 50.8696 44.0267 51.2852 43.1357 51.4012L40.4854 51.3675L40.5303 52.9098L38.2355 48.9717L40.5378 45.0186L40.5415 46.6357L45.1759 46.5908C45.6139 46.5871 45.9583 46.5946 46.3888 46.4748C46.6509 46.3962 46.8942 46.2913 47.13 46.1678ZM36.2253 51.3226L31.8229 51.3301C30.8496 51.1803 30.2244 50.6525 30.0373 49.9188C29.8763 49.2861 30.0335 48.9904 30.3105 48.4438C30.64 47.7925 31.0293 47.1636 31.3999 46.5272L36.2739 46.5459L36.2253 51.3226Z" fill="#F58634"/>
</svg>
