<svg width="74" height="74" viewBox="0 0 74 74" fill="none" xmlns="http://www.w3.org/2000/svg">
<g clip-path="url(#clip0_1897_882)">
<rect width="74" height="74" rx="15" fill="#F58634" fill-opacity="0.4"/>
<path d="M53.1908 54.2562C52.5908 53.1781 53.3033 52.0859 54.522 50.7406C56.4533 48.6125 58.4642 43.7281 56.3408 38.8343C56.3501 38.8062 55.9283 37.9906 55.9376 37.9625L55.122 37.9203C54.8595 37.8828 45.9345 37.864 36.9954 37.864C28.0564 37.864 19.1314 37.8828 18.8689 37.9203C18.8689 37.9203 17.6408 38.8062 17.6548 38.8343C15.5314 43.7281 17.5423 48.6125 19.4736 50.7406C20.697 52.0859 21.4048 53.1781 20.8048 54.2562C20.2189 55.3062 18.5408 55.4609 18.5408 55.4609C18.5408 55.4609 18.9017 56.539 19.8204 57.1203C20.6736 57.6593 21.7283 57.7859 22.4642 57.8046C22.4642 57.8046 25.2673 61.9062 32.8001 61.9062H41.1908C48.7283 61.9062 51.5267 57.8046 51.5267 57.8046C52.2626 57.7859 53.3173 57.6593 54.1704 57.1203C55.0892 56.539 55.4501 55.4609 55.4501 55.4609C55.4501 55.4609 53.772 55.3062 53.1908 54.2562Z" fill="#543930"/>
<path d="M36.9951 61.9017V57.3548L50.2842 56.272L51.5217 57.8001C51.5217 57.8001 48.7186 61.9017 41.1857 61.9017H36.9951Z" fill="url(#paint0_radial_1897_882)"/>
<path d="M51.456 55.8312C49.4123 52.7468 53.781 51.603 53.781 51.603L53.7857 51.6077C53.0451 52.578 52.717 53.4218 53.181 54.2608C53.767 55.3108 55.4451 55.4655 55.4451 55.4655C55.4451 55.4655 53.2138 57.5421 51.456 55.8312Z" fill="url(#paint1_radial_1897_882)"/>
<path d="M56.3501 38.8343C58.422 43.5734 56.5095 48.5187 54.6345 50.6234C54.3766 50.914 53.2751 52.039 53.0407 52.9437C53.0407 52.9437 48.522 46.7046 47.1626 43.0906C46.8907 42.364 46.6423 41.6187 46.6001 40.85C46.5673 40.2734 46.6469 39.5937 46.9704 39.1062C47.3641 38.5109 56.1063 38.3328 56.1063 38.3328C56.1063 38.3375 56.3501 38.8343 56.3501 38.8343Z" fill="url(#paint2_radial_1897_882)"/>
<path d="M17.6592 38.8343C15.5874 43.5733 17.4999 48.5187 19.3749 50.6233C19.6327 50.914 20.7342 52.039 20.9686 52.9437C20.9686 52.9437 25.4874 46.7046 26.8467 43.0905C27.1186 42.364 27.367 41.6187 27.4092 40.8499C27.442 40.2733 27.3624 39.5937 27.0389 39.1062C26.6452 38.5108 26.1717 38.6702 25.4827 38.6702C24.1749 38.6702 18.4608 38.3374 18.0155 38.3374C18.0202 38.3374 17.6592 38.8343 17.6592 38.8343Z" fill="url(#paint3_radial_1897_882)"/>
<path d="M37.0139 61.9017V57.3548L23.7248 56.272L22.4873 57.8001C22.4873 57.8001 25.2904 61.9017 32.8232 61.9017H37.0139Z" fill="url(#paint4_radial_1897_882)"/>
<path d="M22.553 55.8312C24.5968 52.7468 20.228 51.603 20.228 51.603L20.2233 51.6077C20.964 52.578 21.2921 53.4218 20.828 54.2608C20.2421 55.3108 18.564 55.4655 18.564 55.4655C18.564 55.4655 20.7952 57.5421 22.553 55.8312Z" fill="url(#paint5_radial_1897_882)"/>
<path d="M61.375 75.1061V73.6436C61.375 65.778 49.0234 61.8827 37 61.8968C25.0516 61.9108 12.625 65.3093 12.625 73.6436V75.1061H61.375Z" fill="#13524A"/>
<path d="M36.9999 59.239H32.7437V63.9171C32.7437 66.0312 34.478 67.7468 36.6155 67.7468H37.389C39.5265 67.7468 41.2608 66.0312 41.2608 63.9171V59.239H36.9999Z" fill="#99674F"/>
<path d="M34.4219 75.1062H20.8516V64.4468C21.6906 64.1187 22.5766 63.828 23.4953 63.5749C24.85 63.1905 26.2797 62.8765 27.7609 62.6327C28.7641 62.464 29.7906 62.328 30.8313 62.2202L34.4219 75.1062Z" fill="#F58634"/>
<path d="M30.8873 75.1062H24.0107L23.4951 63.575C24.8498 63.1906 26.2795 62.8766 27.7607 62.6328L30.8873 75.1062Z" fill="#6E4320"/>
<path d="M53.1484 64.5874V75.1062H39.5781L43.1641 62.239C44.2 62.3515 45.2266 62.5015 46.225 62.6796C47.7109 62.9468 49.1453 63.275 50.5 63.6781C51.4234 63.95 52.3094 64.2546 53.1484 64.5874Z" fill="url(#paint6_linear_1897_882)"/>
<path d="M50.4998 63.6781L49.9889 75.1063H43.1123L46.2248 62.6797C47.7107 62.9469 49.1451 63.275 50.4998 63.6781Z" fill="#6E4320"/>
<path d="M49.8111 40.6392H24.1893C21.4283 40.6392 19.1689 43.0485 19.1689 45.9876C19.1689 48.9267 21.4283 51.336 24.1893 51.336H49.8064C52.5674 51.336 54.8268 48.9267 54.8268 45.9876C54.8268 43.0485 52.5721 40.6392 49.8111 40.6392Z" fill="#99674F"/>
<path d="M37.0001 22.2078C28.8438 22.2078 21.2876 30.9312 21.2876 43.4843C21.2876 55.9718 29.0735 62.1453 37.0001 62.1453C44.9267 62.1453 52.7126 55.9718 52.7126 43.4843C52.7126 30.9312 45.1563 22.2078 37.0001 22.2078Z" fill="#BA8D68"/>
<path d="M29.6874 46.9578C30.9637 46.9578 31.9983 45.8874 31.9983 44.5671C31.9983 43.2468 30.9637 42.1765 29.6874 42.1765C28.4111 42.1765 27.3765 43.2468 27.3765 44.5671C27.3765 45.8874 28.4111 46.9578 29.6874 46.9578Z" fill="#49362E"/>
<path d="M44.3124 46.9578C45.5887 46.9578 46.6233 45.8874 46.6233 44.5671C46.6233 43.2468 45.5887 42.1765 44.3124 42.1765C43.0361 42.1765 42.0015 43.2468 42.0015 44.5671C42.0015 45.8874 43.0361 46.9578 44.3124 46.9578Z" fill="#49362E"/>
<path d="M33.0811 40.3531C32.6451 39.7765 31.642 38.9421 29.692 38.9421C27.742 38.9421 26.7342 39.7812 26.3029 40.3531C26.1108 40.6062 26.1576 40.9015 26.2936 41.0796C26.4154 41.2437 26.7811 41.3984 27.1842 41.2624C27.5873 41.1265 28.3748 40.7187 29.692 40.7093C31.0092 40.7187 31.7967 41.1265 32.1998 41.2624C32.6029 41.3984 32.9686 41.2484 33.0904 41.0796C33.2217 40.9015 33.2732 40.6062 33.0811 40.3531Z" fill="#613E31"/>
<path d="M47.7012 40.3531C47.2652 39.7765 46.2621 38.9421 44.3121 38.9421C42.3621 38.9421 41.3543 39.7812 40.9231 40.3531C40.7309 40.6062 40.7777 40.9015 40.9137 41.0796C41.0356 41.2437 41.4012 41.3984 41.8043 41.2624C42.2074 41.1265 42.9949 40.7187 44.3121 40.7093C45.6293 40.7187 46.4168 41.1265 46.8199 41.2624C47.2231 41.3984 47.5887 41.2484 47.7106 41.0796C47.8418 40.9015 47.8934 40.6062 47.7012 40.3531Z" fill="#613E31"/>
<path d="M38.8096 48.9032C38.758 48.8845 38.7111 48.8704 38.6596 48.8657H35.3408C35.2893 48.8704 35.2377 48.8845 35.1908 48.9032C34.8908 49.0251 34.7268 49.3345 34.8674 49.6673C35.008 50.0001 35.6689 50.9282 37.0002 50.9282C38.3314 50.9282 38.9924 49.9954 39.133 49.6673C39.2736 49.3345 39.1096 49.0251 38.8096 48.9032Z" fill="#99674F"/>
<path d="M40.9467 52.6906C39.4561 53.5765 34.5576 53.5765 33.067 52.6906C32.2092 52.1796 31.3326 52.9624 31.6889 53.7406C32.0405 54.5046 34.7076 56.2812 37.0186 56.2812C39.3295 56.2812 41.9639 54.5046 42.3155 53.7406C42.667 52.9624 41.8045 52.1796 40.9467 52.6906Z" fill="#5D4037"/>
<path d="M37.0001 22.189C19.5345 22.189 20.7158 41.5999 20.7158 41.5999C20.5001 45.3546 21.1986 47.6655 21.5689 48.5983C21.6345 48.7624 21.8642 48.7483 21.9064 48.5796C22.3705 46.7187 23.9502 40.2358 23.7955 39.1062C23.7955 39.1062 29.1158 38.0515 34.1876 34.3155C35.2189 33.5562 36.3392 32.9093 37.5298 32.4358C43.9001 29.8999 45.2314 34.2265 45.2314 34.2265C45.2314 34.2265 49.647 33.378 50.9783 39.5093C51.4798 41.8062 51.8173 45.4858 52.1033 48.0593C52.122 48.2421 52.3705 48.2796 52.4408 48.1108C52.8861 47.089 53.8939 45.0733 53.9877 42.9968C54.3111 36.0687 50.2095 22.189 37.0001 22.189Z" fill="#543930"/>
<path d="M37.192 20.7124C15.2733 20.7124 16.9233 42.4765 16.9233 42.4765C16.9233 42.4765 22.6467 37.414 37.3139 37.414C51.9811 37.414 57.0483 42.0077 57.0483 42.0077C57.0483 42.0077 59.1108 20.7124 37.192 20.7124Z" fill="#F58634"/>
<path d="M42.0249 36.7578H32.2749V21.2422C32.2749 19.9344 33.3343 18.875 34.6421 18.875H39.6577C40.9655 18.875 42.0249 19.9344 42.0249 21.2422V36.7578Z" fill="#FFAD71"/>
<mask id="mask0_1897_882" style="mask-type:luminance" maskUnits="userSpaceOnUse" x="16" y="20" width="42" height="23">
<path d="M37.192 20.7124C15.2733 20.7124 16.9233 42.4765 16.9233 42.4765C16.9233 42.4765 22.6467 37.414 37.3139 37.414C51.9811 37.414 57.0483 42.0077 57.0483 42.0077C57.0483 42.0077 59.1108 20.7124 37.192 20.7124Z" fill="white"/>
</mask>
<g mask="url(#mask0_1897_882)">
<path opacity="0.5" d="M29.0874 21.7952L32.3452 20.717V31.6342C31.6843 26.9139 30.7374 23.5014 29.0874 21.7952Z" fill="#F58634"/>
</g>
<mask id="mask1_1897_882" style="mask-type:luminance" maskUnits="userSpaceOnUse" x="16" y="20" width="42" height="23">
<path d="M37.192 20.7124C15.2733 20.7124 16.9233 42.4765 16.9233 42.4765C16.9233 42.4765 22.6467 37.414 37.3139 37.414C51.9811 37.414 57.0483 42.0077 57.0483 42.0077C57.0483 42.0077 59.1108 20.7124 37.192 20.7124Z" fill="white"/>
</mask>
<g mask="url(#mask1_1897_882)">
<path opacity="0.5" d="M45.3013 21.7952L42.0435 20.717V31.6342C42.7044 26.9139 43.6513 23.5014 45.3013 21.7952Z" fill="#F58634"/>
</g>
<path d="M58.3421 40.9016C58.2249 40.7047 58.0421 40.5547 57.8405 40.4375C49.3561 35.5531 36.9999 35.7172 36.9999 35.7172C36.9999 35.7172 24.6436 35.5531 16.1592 40.4375C15.953 40.5547 15.7749 40.7047 15.6577 40.9016C15.4092 41.3235 15.203 42.125 16.0092 43.2828C16.0092 43.2828 21.1421 38.1969 36.9999 37.8781C52.853 38.2016 57.9905 43.2828 57.9905 43.2828C58.7967 42.125 58.5905 41.3235 58.3421 40.9016Z" fill="#59402D" fill-opacity="0.4"/>
</g>
<defs>
<radialGradient id="paint0_radial_1897_882" cx="0" cy="0" r="1" gradientUnits="userSpaceOnUse" gradientTransform="translate(43.7971 55.342) scale(11.0789 5.44196)">
<stop offset="0.728" stop-color="#6D4C41" stop-opacity="0"/>
<stop offset="1" stop-color="#6D4C41"/>
</radialGradient>
<radialGradient id="paint1_radial_1897_882" cx="0" cy="0" r="1" gradientUnits="userSpaceOnUse" gradientTransform="translate(54.4896 53.7041) rotate(154.924) scale(3.25062 2.41149)">
<stop offset="0.663" stop-color="#6D4C41"/>
<stop offset="1" stop-color="#6D4C41" stop-opacity="0"/>
</radialGradient>
<radialGradient id="paint2_radial_1897_882" cx="0" cy="0" r="1" gradientUnits="userSpaceOnUse" gradientTransform="translate(45.9706 44.6101) rotate(-94.2783) scale(14.0839 11.738)">
<stop offset="0.725" stop-color="#6D4C41" stop-opacity="0"/>
<stop offset="1" stop-color="#6D4C41"/>
</radialGradient>
<radialGradient id="paint3_radial_1897_882" cx="0" cy="0" r="1" gradientUnits="userSpaceOnUse" gradientTransform="translate(28.0403 44.6097) rotate(-85.7217) scale(14.0839 11.738)">
<stop offset="0.725" stop-color="#6D4C41" stop-opacity="0"/>
<stop offset="1" stop-color="#6D4C41"/>
</radialGradient>
<radialGradient id="paint4_radial_1897_882" cx="0" cy="0" r="1" gradientUnits="userSpaceOnUse" gradientTransform="translate(30.2128 55.342) rotate(180) scale(11.0789 5.44196)">
<stop offset="0.728" stop-color="#6D4C41" stop-opacity="0"/>
<stop offset="1" stop-color="#6D4C41"/>
</radialGradient>
<radialGradient id="paint5_radial_1897_882" cx="0" cy="0" r="1" gradientUnits="userSpaceOnUse" gradientTransform="translate(19.5214 53.7047) rotate(25.0761) scale(3.25015 2.41115)">
<stop offset="0.663" stop-color="#6D4C41"/>
<stop offset="1" stop-color="#6D4C41" stop-opacity="0"/>
</radialGradient>
<linearGradient id="paint6_linear_1897_882" x1="46.3633" y1="63.026" x2="46.3633" y2="80.681" gradientUnits="userSpaceOnUse">
<stop offset="0.003" stop-color="#FF9100"/>
<stop offset="0.44" stop-color="#FF8400"/>
<stop offset="1" stop-color="#FF6D00"/>
</linearGradient>
<clipPath id="clip0_1897_882">
<rect width="74" height="74" rx="15" fill="white"/>
</clipPath>
</defs>
</svg>
