<svg width="74" height="74" viewBox="0 0 74 74" fill="none" xmlns="http://www.w3.org/2000/svg">
<rect width="74" height="74" rx="15" fill="#F58634" fill-opacity="0.4"/>
<g clip-path="url(#clip0_1897_939)">
<path d="M42.6869 36.7144L21.0814 58.3186H21.0801C20.4925 56.8365 17.3279 55.5084 16.2239 54.4044L38.1798 32.2073L42.6869 36.7144Z" fill="#13524A"/>
<path d="M39.4434 33.4708L16.0923 56.8206C14.9883 55.7166 16.0765 52.4188 14.5942 51.8325V51.8312L36.1997 30.2271L39.4434 33.4708Z" fill="#23776C"/>
<path d="M38.7779 15.7136L44.484 21.4197C43.6711 20.6054 42.3509 27.2627 41.5368 28.0769L33.9375 29.0189L30.927 26.0084C32.3473 24.5868 33.0588 22.724 33.0588 20.861C33.0588 18.998 32.3473 17.1352 30.927 15.7136C33.0943 13.545 36.6106 13.545 38.7779 15.7136Z" fill="#6E4320"/>
<path d="M49.9213 30.3469L55.4939 35.921L49.913 41.5032L44.3391 35.9291L49.9213 30.3469Z" fill="#6E4320"/>
<path d="M35.6724 30.7542L33.9373 29.019L41.5365 21.4197C42.3508 20.6055 43.6709 20.6055 44.4838 21.4197L51.0514 27.9861C51.8656 28.8003 51.8656 30.1205 51.0514 30.9346L50.78 31.206L45.1979 36.7882L43.4522 38.5338L42.1598 37.2414L38.9161 33.9977L35.6724 30.7542Z" fill="#F58634"/>
<path d="M60.9998 35.7803L49.7709 47.0081L45.5259 42.7618L48.3493 39.9397L53.9301 34.3576L56.7535 31.5342L60.9998 35.7803Z" fill="#F58634"/>
<path d="M21.0801 58.3186L17.2897 59.0669C17.129 58.2422 15.3576 58.8304 14.7199 58.1927C14.0822 57.555 14.6679 55.7836 13.8457 55.6229L14.594 51.8325C16.0761 52.4188 17.4043 53.3002 18.5083 54.4042C19.6124 55.5085 20.4924 56.8364 21.0801 58.3186Z" fill="#E6E6E6"/>
<path d="M17.2897 59.0669L13 59.9128L13.8458 55.623C14.6679 55.7837 15.4545 56.183 16.0922 56.8207C16.7298 57.4583 17.129 58.2421 17.2897 59.0669Z" fill="#F58634"/>
</g>
<defs>
<clipPath id="clip0_1897_939">
<rect width="48" height="48" fill="white" transform="translate(13 13)"/>
</clipPath>
</defs>
</svg>
