<svg width="74" height="74" viewBox="0 0 74 74" fill="none" xmlns="http://www.w3.org/2000/svg">
<rect width="74" height="74" rx="15" fill="#F58634" fill-opacity="0.4"/>
<path d="M31.4451 28.5197C31.1543 28.6455 30.8664 28.7623 30.5813 28.8675L30.568 28.869C29.8881 28.9541 28.9267 29.181 28.2304 29.337C27.2966 29.5449 26.4507 29.9985 25.7561 30.1616C25.2406 30.2632 24.7168 30.316 24.1914 30.3193C23.3441 30.3176 21.34 29.9947 20.3642 29.815L20.2107 29.7867C19.8103 32.6491 18.0008 41.24 17.0232 44.3447C17.389 44.3734 17.9379 44.4216 18.6986 44.5083C19.173 44.5724 19.6398 44.6838 20.092 44.841C20.1471 44.8594 20.2015 44.8791 20.2552 44.9003C20.2552 44.9003 25.1573 47.1689 26.6978 48.2193C28.3924 49.3746 35.7483 53.8806 35.7483 53.8806C36.6596 54.3711 37.6028 54.7996 38.5717 55.1631C39.3395 55.4218 40.1657 55.4533 40.9509 55.2538C41.6745 55.0331 42.0306 54.5016 42.0646 53.9577L42.0473 53.6787C42.7089 53.9586 44.2046 54.2194 45.2361 53.3543C45.7041 52.9621 45.9814 52.0706 45.7753 51.5058L45.7318 51.3243C46.6841 51.854 48.3777 51.8789 49.3699 50.6841C49.9292 50.011 49.7843 48.694 48.938 47.9217L49.0361 47.9881C50.4662 48.4533 51.7834 47.7956 52.2198 47.0639C52.6357 46.3672 52.817 45.2148 51.9638 44.3067C52.7719 43.7826 53.7806 43.2656 54.6298 42.7429C55.3097 42.3126 56.0151 41.924 56.7421 41.5793C55.7402 38.0525 54.1752 30.6694 53.7714 27.9184C53.1635 28.0619 52.4823 28.1989 51.6957 28.3236C50.6351 28.516 41.2816 26.5975 38.5866 26.3081C36.008 26.1448 33.6444 27.5682 31.4451 28.5197Z" fill="white"/>
<path d="M23.5895 48.1114C23.959 47.2568 24.4664 46.4688 25.0916 45.7789C25.4139 45.3787 25.8071 45.0411 26.2514 44.7829C26.6385 44.5917 27.0715 44.5127 27.5012 44.5547C27.9309 44.5968 28.3403 44.7582 28.6831 45.0208C29.359 45.5541 29.6219 46.5643 29.4156 47.3951C29.2094 48.226 27.633 50.5851 26.6789 51.1767C26.4039 51.3344 26.0974 51.4294 25.7815 51.4548C25.4655 51.4803 25.1478 51.4356 24.851 51.3241C24.1802 51.0424 23.8391 50.6655 23.5368 50.0031C23.305 49.4953 23.3384 48.6981 23.5895 48.1114Z" fill="white"/>
<path d="M28.0375 50.4327C28.326 49.5783 28.753 48.7771 29.3015 48.0612C29.5807 47.6492 29.9331 47.2919 30.3413 47.0071C30.6999 46.7917 31.1115 46.6809 31.5297 46.6873C31.9479 46.6936 32.356 46.8168 32.7078 47.043C33.4023 47.5038 33.7373 48.458 33.6044 49.2761C33.4714 50.0941 32.138 52.4979 31.2647 53.145C31.0118 53.3192 30.7235 53.4353 30.4205 53.4851C30.1175 53.5349 29.8072 53.5171 29.5119 53.433C28.8417 53.2147 28.4824 52.8774 28.1377 52.2627C27.8731 51.7909 27.8422 51.0194 28.0375 50.4327Z" fill="white"/>
<path d="M31.8717 53.4826C32.0058 52.7391 32.5582 51.4441 33.1528 50.9191C33.42 50.6966 33.7451 50.5548 34.09 50.5102C34.4349 50.4657 34.7854 50.5202 35.1004 50.6675C35.7254 50.9637 36.0363 51.8387 36.0247 52.5262C36.0131 53.2138 35.4843 54.6916 34.8436 55.3267C34.6566 55.4998 34.4336 55.6293 34.1907 55.7062C33.9478 55.7831 33.6909 55.8054 33.4384 55.7714C33.1829 55.7349 32.938 55.6449 32.7197 55.5074C32.5013 55.3699 32.3143 55.1879 32.171 54.9734C31.8851 54.5326 31.778 53.9995 31.8717 53.4826Z" fill="white"/>
<path d="M19.3386 47.2573C19.1251 46.7041 19.301 45.7377 19.6535 45.302C20.2221 44.5988 21.4776 44.7691 22.1551 45.1946C22.6544 45.5081 23.3162 46.2116 23.4641 46.5565C23.9119 47.4941 23.4686 48.3166 23.137 48.5732C22.7479 48.8746 21.7947 48.9739 21.3088 48.8968C20.8691 48.8111 20.4581 48.6159 20.1138 48.3294C19.7694 48.0428 19.5028 47.6741 19.3386 47.2573Z" fill="white"/>
<path d="M5.45221 24.1575C9.44074 25.2452 16.0774 26.9782 17.7745 27.4938C16.1381 33.8616 14.8388 42.8228 13.4554 46.4432C12.0598 46.1207 7.79535 45.0254 5.28271 44.3982" fill="#F58634"/>
<path d="M68.5478 22.1831C64.5595 23.271 57.9226 25.0039 56.2256 25.5195C57.862 31.8872 59.1613 40.8488 60.5455 44.4694C61.9413 44.1469 66.2056 43.0517 68.7182 42.4244" fill="#13524A"/>
<path d="M54.804 26.7471C55.3402 26.5769 55.9465 26.3955 56.3584 26.2768L56.4121 26.261C57.7326 31.6336 58.8385 38.5446 59.9589 42.6246C59.9093 42.6388 59.8833 42.6466 59.8833 42.6466C59.1837 42.8581 58.1028 43.0206 57.292 43.2338C56.3846 41.2624 53.8155 29.1809 53.6787 27.1457C54.046 26.9917 54.4217 26.8586 54.804 26.7471Z" fill="white"/>
<path d="M14.078 44.4636C15.1872 40.3692 16.2811 33.5546 17.5863 28.2419C17.621 28.2484 17.6416 28.2511 17.6416 28.2511C18.4579 28.4861 19.9877 28.9716 20.2845 29.1336C20.148 31.1688 17.6156 43.2366 16.708 45.2082C15.8972 44.995 14.8163 44.8324 14.1166 44.621L14.0413 44.5987C14.0536 44.5541 14.0659 44.5091 14.078 44.4636Z" fill="white"/>
<path d="M37.5178 33.3826C36.8513 33.2486 36.1049 33.3999 35.4499 33.5263C35.0459 33.6028 34.6469 33.7039 34.2551 33.829C33.8768 33.9517 33.4059 34.089 33.1142 34.3722C32.9597 34.5451 32.8351 34.7426 32.7456 34.9566C32.6345 35.1748 32.5257 35.3938 32.4163 35.6127C32.22 36.0056 32.0224 36.3985 31.8042 36.7798C31.3956 37.5342 30.8406 38.1996 30.1718 38.737C29.8712 38.99 29.5025 39.1486 29.112 39.1928C28.749 39.2618 28.3744 39.2377 28.0233 39.1226C27.6767 38.9799 27.3101 38.6555 27.2637 38.2623C27.2548 38.0278 27.2641 37.7929 27.2916 37.5599C27.3031 37.2754 27.3124 36.9908 27.3195 36.7061C27.3415 35.8105 27.3403 34.9134 27.412 34.0199C27.4499 33.5489 27.5087 33.081 27.5885 32.616C27.6734 32.1193 27.7567 31.5894 27.9916 31.1377C28.4248 30.3048 29.3113 29.7261 30.1838 29.4422C31.0773 29.1349 31.9513 28.7732 32.8007 28.3592C34.5633 27.5372 36.4146 26.645 38.4083 26.7154C38.5376 26.7199 38.6645 26.7327 38.7927 26.7478C38.8396 26.7536 38.8865 26.7594 38.9333 26.7651L39.0067 26.7747C39.0383 26.7788 39.0267 26.7773 38.9721 26.7698L39.034 26.7783C39.2747 26.8117 39.5152 26.847 39.7553 26.8842C40.3618 26.9778 40.9657 27.0794 41.5696 27.1828C42.9878 27.4255 44.4037 27.6807 45.8211 27.928C47.1195 28.1549 48.4186 28.3826 49.7236 28.5679C50.1805 28.6329 50.6385 28.6968 51.0985 28.7336C51.5274 28.7552 51.9573 28.7197 52.3768 28.6282C52.8814 28.5389 53.3832 28.4362 53.8824 28.3202C54.4035 28.1989 54.1829 27.3969 53.6612 27.518C53.1359 27.64 52.6076 27.7473 52.0765 27.84C51.9267 27.8662 51.7765 27.8891 51.6269 27.9152C51.4727 27.9421 51.7094 27.9196 51.6297 27.9152C51.5777 27.9124 51.5217 27.9206 51.4685 27.9202C51.0966 27.9098 50.7257 27.8768 50.3578 27.8215L50.1904 27.7998C50.0788 27.7851 50.25 27.8079 50.1794 27.7982L50.0907 27.7861C49.947 27.7661 49.8035 27.7455 49.6602 27.7242C49.3633 27.6803 49.0667 27.6346 48.7704 27.587C48.0782 27.4762 47.3871 27.3587 46.6963 27.2393C44.0679 26.7851 41.4423 26.2369 38.7934 25.9151C36.8523 25.6794 34.9253 26.471 33.1995 27.2605C32.3146 27.6651 31.4425 28.1053 30.5306 28.445C30.0652 28.5942 29.6085 28.7692 29.1626 28.9691C28.7076 29.1982 28.2916 29.4976 27.9297 29.8561C27.5412 30.2371 27.2448 30.7017 27.0632 31.2147C26.901 31.7279 26.7877 32.2553 26.7247 32.7899C26.594 33.727 26.5226 34.6715 26.5112 35.6176C26.5015 36.0879 26.4947 36.5583 26.4805 37.0285C26.4719 37.3133 26.4604 37.5979 26.4458 37.8822C26.3932 38.269 26.4661 38.6624 26.6537 39.0046C26.8412 39.3469 27.1337 39.62 27.4879 39.7838C27.8946 39.9888 28.3491 40.0801 28.8034 40.0482C29.2627 40.0459 29.7166 39.9478 30.1359 39.7604C30.5551 39.5273 30.9359 39.2312 31.2652 38.8826C31.8822 38.2426 32.3962 37.5109 32.7889 36.7134C33.0106 36.2916 33.2184 35.8625 33.434 35.4373C33.5158 35.276 33.5877 35.0424 33.7395 34.9363C33.8883 34.8443 34.0484 34.7722 34.2158 34.7216C34.9727 34.4461 35.762 34.2696 36.5641 34.1965C36.7187 34.1822 36.8742 34.1718 37.0295 34.1712C37.0896 34.1712 37.1499 34.1712 37.21 34.1753C37.2412 34.1772 37.2723 34.18 37.3033 34.1831C37.1856 34.1713 37.2712 34.1795 37.2977 34.1848C37.404 34.2114 37.5164 34.196 37.6116 34.1419C37.7069 34.0879 37.7777 33.9992 37.8093 33.8944C37.8376 33.788 37.823 33.6748 37.7687 33.5791C37.7144 33.4834 37.6247 33.4129 37.5189 33.3826H37.5178Z" fill="black"/>
<path d="M37.2963 34.1844C37.3327 34.1977 37.4453 34.2527 37.306 34.1856C37.3389 34.2015 37.3732 34.2154 37.4063 34.231C37.4887 34.27 37.5692 34.3126 37.649 34.3568C37.8419 34.4641 38.029 34.5821 38.2141 34.7015C38.7907 35.0757 39.3507 35.4757 39.9126 35.8724C41.8016 37.2085 43.7071 38.524 45.5862 39.8743C46.642 40.6333 47.6864 41.4078 48.7194 42.198C49.2311 42.5908 49.7384 42.9899 50.2412 43.3951C50.4954 43.5999 50.7485 43.8064 51.0005 44.0145C51.265 44.2129 51.512 44.4337 51.7386 44.6744C51.9876 44.9863 52.1312 45.369 52.1487 45.7677C52.1663 46.1663 52.0569 46.5603 51.8364 46.8928C51.5988 47.212 51.2682 47.4498 50.8899 47.5734C50.6506 47.6595 50.4001 47.7103 50.1461 47.7241C49.8338 47.7565 49.5182 47.7177 49.223 47.6106C49.0581 47.5158 48.9002 47.4091 48.7508 47.2914C48.5412 47.1479 48.332 47.0041 48.1231 46.86C47.6503 46.5341 47.1781 46.207 46.7066 45.8787C45.8693 45.2964 45.034 44.7115 44.2007 44.124C44.1053 44.0693 43.9921 44.0542 43.8857 44.0821C43.7793 44.1101 43.6881 44.1787 43.6318 44.2732C43.5784 44.369 43.5641 44.4817 43.5919 44.5878C43.6197 44.6939 43.6874 44.7851 43.781 44.8424C45.3688 45.9654 46.9657 47.076 48.5716 48.1741C48.7905 48.3305 49.0409 48.4374 49.3054 48.4874C49.6277 48.5534 49.9578 48.5732 50.2858 48.5463C50.8664 48.5025 51.4249 48.3051 51.9041 47.9744C52.291 47.688 52.5932 47.3021 52.7784 46.8578C52.9637 46.4135 53.0252 45.9273 52.9565 45.4508C52.8768 44.8862 52.6151 44.3629 52.2112 43.9604C51.7125 43.4949 51.1875 43.0584 50.6388 42.653C49.5458 41.7783 48.4343 40.9271 47.3043 40.0994C45.2387 38.5781 43.1212 37.1291 41.0281 35.6454C40.3555 35.1686 39.6853 34.6875 39.0022 34.2258C38.6245 33.9541 38.2261 33.7127 37.8105 33.5036C37.715 33.4591 37.6178 33.417 37.5188 33.3811C37.4125 33.3528 37.2993 33.3673 37.2036 33.4217C37.1079 33.476 37.0374 33.5657 37.0072 33.6716C36.9802 33.7779 36.9954 33.8905 37.0495 33.9859C37.1037 34.0813 37.1926 34.152 37.2977 34.1834L37.2963 34.1844Z" fill="black"/>
<path d="M35.5385 54.2391C36.3799 54.7036 37.253 55.1085 38.1511 55.4508C39.1821 55.8494 40.5566 56.0228 41.5564 55.4415C41.8205 55.2889 42.043 55.0737 42.2041 54.8148C42.3653 54.5558 42.4602 54.2612 42.4805 53.9569C42.4797 53.8469 42.4356 53.7416 42.3577 53.6637C42.2799 53.5859 42.1746 53.5418 42.0646 53.541C41.9549 53.5431 41.8504 53.5876 41.7728 53.6652C41.6953 53.7427 41.6508 53.8473 41.6486 53.9569C41.6095 54.4396 41.1897 54.7676 40.7105 54.8878C40.0581 55.0298 39.3795 54.9932 38.7462 54.7817C38.2646 54.6192 37.7939 54.4263 37.3367 54.2042C36.871 53.9905 36.4059 53.7709 35.9584 53.5207C35.4905 53.2593 35.0705 53.9775 35.5385 54.2391Z" fill="black"/>
<path d="M20.2536 30.2158C21.4743 30.4666 22.7101 30.6376 23.9531 30.7278C24.5955 30.7606 25.2393 30.705 25.8666 30.5625C26.6364 30.3826 27.3451 29.9985 28.1093 29.7945C28.9169 29.5714 29.7382 29.4012 30.5679 29.285C30.6771 29.2816 30.781 29.2367 30.8583 29.1594C30.9356 29.0821 30.9805 28.9783 30.9838 28.8691C30.9832 28.7589 30.9392 28.6535 30.8613 28.5757C30.7835 28.4978 30.678 28.4538 30.5679 28.4531C29.8154 28.5505 29.0759 28.7204 28.3362 28.8864C27.5499 29.0635 26.8272 29.3779 26.0672 29.6356C24.9234 30.0236 23.7016 29.9086 22.5288 29.745C21.8418 29.6491 21.1571 29.5384 20.4747 29.4131C20.3685 29.3868 20.2562 29.4022 20.1611 29.4562C20.0659 29.5102 19.995 29.5987 19.9631 29.7034C19.9348 29.8097 19.9493 29.923 20.0037 30.0187C20.058 30.1144 20.1478 30.185 20.2536 30.2152V30.2158Z" fill="black"/>
<path d="M52.4419 44.4953C53.1752 44.0447 53.9374 43.6446 54.6746 43.2011C55.4104 42.7388 56.1704 42.3165 56.9516 41.9359C57.0462 41.8796 57.1148 41.7884 57.1427 41.6819C57.1706 41.5754 57.1556 41.4622 57.1008 41.3668C57.0434 41.2734 56.9522 41.2058 56.8461 41.178C56.7401 41.1502 56.6275 41.1644 56.5316 41.2175C55.7506 41.5981 54.9906 42.0205 54.2549 42.4827C53.5176 42.9262 52.7554 43.3267 52.022 43.777C51.5665 44.0565 51.9838 44.7764 52.4419 44.4953Z" fill="black"/>
<path d="M40.7377 48.6289C42.1802 49.5932 43.6493 50.5202 45.1224 51.438C45.4633 51.6693 45.8373 51.8475 46.2316 51.9663C46.6635 52.0807 47.113 52.1135 47.5569 52.063C48.5209 51.9505 49.578 51.4191 49.9638 50.4763C50.3824 49.4538 49.9356 48.185 49.0985 47.5128C49.0189 47.4378 48.9137 47.396 48.8044 47.396C48.6951 47.396 48.5899 47.4378 48.5103 47.5128C48.433 47.5911 48.3896 47.6968 48.3896 47.8069C48.3896 47.917 48.433 48.0226 48.5103 48.101C49.1099 48.5821 49.4488 49.4034 49.2129 50.12C49.1089 50.433 48.8001 50.7167 48.4692 50.9126C48.1407 51.1054 47.7721 51.2196 47.3921 51.2464C47.0099 51.2776 46.6254 51.2299 46.2625 51.1061C45.9639 50.9818 45.6797 50.8254 45.415 50.6396C44.6694 50.1734 43.9268 49.7025 43.1871 49.227C42.5081 48.792 41.828 48.3582 41.1577 47.9098C40.7114 47.6114 40.2944 48.3316 40.7377 48.628V48.6289Z" fill="black"/>
<path d="M38.0418 51.633C39.2319 52.4177 40.4162 53.233 41.6508 53.9463C42.1561 54.2087 42.7158 54.3495 43.2851 54.3574C44.0373 54.4081 44.7837 54.1945 45.3951 53.7534C46.0667 53.2415 46.4494 52.2139 46.175 51.3943C46.0062 50.889 45.2024 51.1056 45.3728 51.6155C45.444 51.8813 45.4371 52.1621 45.3529 52.4241C45.2687 52.6861 45.1108 52.9183 44.8981 53.0929C44.3947 53.4399 43.7821 53.5914 43.1751 53.5191C42.9252 53.4991 42.6782 53.4518 42.4387 53.378C42.3927 53.364 42.347 53.3493 42.3018 53.3332C42.281 53.3259 42.1458 53.2713 42.2307 53.3082C42.1576 53.2757 42.0868 53.2382 42.0187 53.1961C41.4565 52.8531 40.8989 52.5027 40.3458 52.1448C39.715 51.7385 39.0866 51.3284 38.4609 50.9143C38.0127 50.6188 37.5956 51.3389 38.0411 51.6326L38.0418 51.633Z" fill="black"/>
<path d="M17.0231 44.7599C18.0803 44.8437 19.1444 44.9181 20.1446 45.3008C20.251 45.3292 20.3643 45.3147 20.46 45.2603C20.5558 45.2059 20.6263 45.116 20.6564 45.0101C20.6832 44.9038 20.6679 44.7913 20.6138 44.6959C20.5596 44.6006 20.4708 44.5299 20.3657 44.4985C19.3002 44.0909 18.1501 44.0172 17.0231 43.928C16.9131 43.9289 16.8078 43.973 16.73 44.0508C16.6522 44.1286 16.6081 44.2339 16.6072 44.3439C16.6093 44.4536 16.6538 44.5581 16.7314 44.6357C16.8089 44.7132 16.9135 44.7577 17.0231 44.7599Z" fill="black"/>
<path d="M11.8584 25.4484C9.79961 24.8973 7.74001 24.3493 5.68353 23.7895C5.62183 23.7734 5.55728 23.7715 5.49476 23.7841C5.43224 23.7966 5.37339 23.8232 5.32266 23.8619C5.27194 23.9005 5.23066 23.9502 5.20197 24.0071C5.17327 24.064 5.1579 24.1268 5.15702 24.1905C5.15944 29.4277 5.09203 34.665 5.04073 39.902C5.02617 41.3914 5.01259 42.8809 5 44.3704C5.00103 44.4612 5.03129 44.5493 5.0863 44.6215C5.1413 44.6937 5.21813 44.7463 5.30537 44.7715C7.56896 45.3368 9.81972 45.9513 12.0797 46.5305C12.5005 46.6385 12.9216 46.7463 13.3448 46.8444C13.4511 46.8704 13.5632 46.8548 13.6583 46.8008C13.7534 46.7468 13.8243 46.6585 13.8564 46.5539C14.6153 44.5583 15.0276 42.4186 15.4651 40.3356C16.0406 37.5932 16.5597 34.8393 17.1403 32.0979C17.4587 30.5943 17.7935 29.0936 18.1755 27.6045C18.2026 27.4982 18.1875 27.3855 18.1333 27.2901C18.0791 27.1946 17.99 27.1239 17.8848 27.0928C15.8932 26.4895 13.8684 25.9864 11.8584 25.4484C11.3407 25.3098 11.1199 26.112 11.6372 26.2506C13.6476 26.7879 15.672 27.2917 17.6637 27.895L17.3732 27.3834C16.68 30.087 16.1316 32.8275 15.584 35.5636C15.0703 38.1322 14.5819 40.7086 13.9601 43.2535C13.7219 44.2975 13.4196 45.3259 13.055 46.3328L13.5667 46.0422C11.4902 45.5607 9.43584 44.9765 7.37294 44.441C6.75839 44.2815 6.14314 44.1243 5.52721 43.9692L5.83188 44.3704C5.87556 39.006 5.94523 33.6426 5.97642 28.2775C5.98439 26.9153 5.98855 25.553 5.9889 24.1905L5.46239 24.5909C7.51887 25.1515 9.57847 25.7 11.6377 26.2506C12.1551 26.3891 12.3759 25.5869 11.8584 25.4484Z" fill="black"/>
<path d="M17.5312 28.6524C18.03 28.7966 18.5261 28.9497 19.0194 29.1118C19.2497 29.1872 19.4797 29.264 19.7076 29.3461C19.7981 29.3787 19.8877 29.4127 19.9771 29.4473C20.0832 29.4884 19.9047 29.4127 19.9931 29.4534C20.0206 29.4664 20.048 29.4787 20.0749 29.4929L19.8688 29.1338C19.8603 29.2577 19.8468 29.3811 19.8319 29.5045C19.8274 29.5406 19.8227 29.5766 19.8182 29.6127C19.8038 29.7283 19.8314 29.5213 19.8144 29.6413C19.801 29.7352 19.7877 29.829 19.7737 29.9227C19.7078 30.3615 19.6331 30.799 19.5556 31.2359C19.3435 32.4317 19.1083 33.6218 18.8645 34.8107C18.3335 37.3994 17.7707 39.9862 17.0997 42.5427C16.9648 43.0569 16.8248 43.5703 16.669 44.0788C16.6101 44.2708 16.5491 44.4623 16.4823 44.6517C16.4543 44.7316 16.4253 44.8113 16.3945 44.8902C16.381 44.9249 16.3662 44.9585 16.3531 44.9928C16.3877 44.9013 16.3773 44.9366 16.3491 44.9985L16.8187 44.8079C15.9614 44.5857 15.0772 44.4723 14.2274 44.2207C13.713 44.0684 13.4933 44.871 14.0063 45.0229C14.8555 45.2746 15.7394 45.3869 16.5976 45.6099C16.686 45.6335 16.7796 45.6276 16.8643 45.5932C16.9491 45.5588 17.0203 45.4978 17.0673 45.4193C17.3701 44.6919 17.6129 43.9408 17.7931 43.1737C18.1151 41.9821 18.4021 40.7809 18.6792 39.5779C19.2737 36.9956 19.8239 34.4017 20.2972 31.795C20.4804 30.9163 20.6151 30.0283 20.7007 29.1349C20.7016 29.062 20.683 28.9903 20.6468 28.9271C20.6106 28.8639 20.5581 28.8116 20.4948 28.7756C20.1083 28.5942 19.7075 28.4449 19.2965 28.3292C18.7846 28.1608 18.2699 28.0015 17.7524 27.8513C17.2371 27.7025 17.017 28.5049 17.5312 28.6534V28.6524Z" fill="black"/>
<path d="M62.3629 24.2761C64.4216 23.725 66.4812 23.177 68.5377 22.617L68.0112 22.2165C68.0088 27.4442 68.076 32.6719 68.1273 37.8992C68.1419 39.3983 68.1555 40.8974 68.1682 42.3964L68.4736 41.9954C66.21 42.5607 63.9592 43.1752 61.6993 43.7544C61.2785 43.8622 60.8573 43.97 60.4341 44.0683L60.9459 44.3588C60.187 42.3633 59.7745 40.2234 59.3372 38.1404C58.7615 35.398 58.2425 32.6441 57.662 29.9029C57.3437 28.3991 57.0087 26.8984 56.6269 25.4094L56.3364 25.921C58.3281 25.3177 60.3528 24.8146 62.3629 24.2766C62.8795 24.138 62.6603 23.3355 62.1417 23.4744C60.1313 24.0125 58.1069 24.5154 56.1153 25.1189C56.01 25.15 55.9209 25.2206 55.8668 25.3161C55.8126 25.4115 55.7975 25.5242 55.8248 25.6305C56.518 28.3341 57.0664 31.0746 57.6139 33.8107C58.1277 36.3786 58.6159 38.9555 59.2386 41.4999C59.4767 42.5439 59.779 43.5723 60.1437 44.5792C60.1756 44.6839 60.2464 44.7723 60.3416 44.8264C60.4368 44.8804 60.549 44.8959 60.6553 44.8697C62.7318 44.3882 64.7861 43.804 66.849 43.2685C67.4638 43.1088 68.079 42.9516 68.6947 42.7967C68.782 42.7716 68.8588 42.7191 68.9138 42.6468C68.9689 42.5746 68.9991 42.4865 69.0001 42.3957C68.9564 37.0191 68.8864 31.6426 68.8552 26.2658C68.8475 24.916 68.8434 23.566 68.8431 22.2158C68.8422 22.152 68.8268 22.0893 68.7981 22.0324C68.7694 21.9754 68.7281 21.9258 68.6774 21.8872C68.6267 21.8485 68.5678 21.822 68.5053 21.8094C68.4428 21.7969 68.3782 21.7988 68.3165 21.8149C66.2601 22.3749 64.2005 22.9227 62.1417 23.4738C61.6251 23.6121 61.8443 24.4149 62.3629 24.2761Z" fill="black"/>
<path d="M56.2473 25.8758C55.7229 26.0272 55.2005 26.1853 54.6803 26.3501C54.2649 26.4619 53.8595 26.6079 53.4683 26.7867C53.4049 26.8226 53.3524 26.8749 53.3161 26.9381C53.2799 27.0012 53.2613 27.073 53.2622 27.1458C53.3344 27.9115 53.4476 28.6727 53.6016 29.4262C53.8172 30.6307 54.0567 31.831 54.3052 33.0291C54.8471 35.6423 55.4213 38.2535 56.1059 40.8334C56.338 41.7081 56.5553 42.6167 56.9327 43.4431C56.9794 43.5218 57.0507 43.5831 57.1355 43.6175C57.2203 43.6519 57.3141 43.6576 57.4024 43.6337C58.2598 43.4115 59.1442 43.2984 59.9937 43.0467C60.5059 42.8949 60.2884 42.0918 59.7726 42.2445C58.9234 42.4963 58.0395 42.6095 57.1813 42.8316L57.6509 43.0223C57.6428 42.9968 57.6319 42.9722 57.6185 42.949C57.6931 43.0434 57.6407 43.0039 57.6197 42.949C57.5925 42.8796 57.5658 42.8103 57.5404 42.7393C57.4808 42.5744 57.4262 42.4079 57.3733 42.2408C57.2376 41.8117 57.1156 41.3783 56.9976 40.9441C56.678 39.7668 56.391 38.5807 56.1149 37.3929C55.5159 34.8189 54.9607 32.2322 54.4818 29.6331C54.386 29.1132 54.2934 28.591 54.2116 28.068C54.195 27.9612 54.1789 27.8543 54.1633 27.7474C54.1569 27.7028 54.1508 27.6581 54.1444 27.6136C54.1329 27.5335 54.1553 27.7042 54.1397 27.5768C54.1224 27.4325 54.105 27.2883 54.0945 27.1436L53.8884 27.5026C53.9124 27.4877 53.9381 27.4756 53.965 27.4668C53.8572 27.4896 53.9451 27.4754 53.9751 27.4645C54.0617 27.4332 54.147 27.4007 54.2335 27.3706C54.4731 27.2871 54.7149 27.2092 54.9569 27.1326C55.4588 26.9737 55.9627 26.8214 56.4688 26.6758C56.9821 26.5276 56.7634 25.7247 56.2477 25.8735L56.2473 25.8758Z" fill="black"/>
<path d="M23.9487 48.3213C24.2412 47.6384 24.6253 46.9985 25.0905 46.4193C25.5101 45.9021 26.0104 45.2728 26.6664 45.0571C26.9599 44.959 27.2728 44.9335 27.5783 44.9828C27.8838 45.032 28.1728 45.1546 28.4206 45.3399C28.6283 45.5203 28.794 45.744 28.9058 45.9953C29.0177 46.2466 29.0731 46.5194 29.0681 46.7945C29.0727 47.018 29.0369 47.2404 28.9624 47.4512C28.9563 47.4685 28.9166 47.5688 28.9327 47.5298C28.9459 47.4976 28.9031 47.5962 28.8924 47.6194C28.844 47.7234 28.7918 47.8274 28.7378 47.9286C28.4889 48.3896 28.21 48.8336 27.9028 49.2579C27.605 49.6844 27.271 50.0845 26.9045 50.4537C26.8251 50.5317 26.743 50.6062 26.6589 50.679C26.6435 50.6926 26.6274 50.7054 26.6114 50.7182C26.5582 50.7612 26.6555 50.6865 26.6028 50.7253C26.564 50.7539 26.5244 50.7818 26.4835 50.8075C26.231 50.9606 25.9418 51.0426 25.6465 51.0449C25.3443 51.0494 25.0461 50.9765 24.7801 50.8332C24.5141 50.6899 24.2892 50.4809 24.1267 50.2262C23.9394 49.9296 23.829 49.5911 23.8052 49.2411C23.7815 48.8912 23.8452 48.5408 23.9907 48.2217C24.0192 48.1153 24.0047 48.002 23.9503 47.9063C23.8959 47.8106 23.806 47.7401 23.7 47.7103C23.5938 47.6836 23.4813 47.699 23.3861 47.753C23.2908 47.8071 23.22 47.8958 23.1884 48.0007C23.0312 48.3755 22.9551 48.7793 22.9652 49.1855C22.9754 49.5918 23.0715 49.9913 23.2472 50.3577C23.5636 51.0051 24.12 51.5036 24.7981 51.7473C25.1608 51.8727 25.5476 51.9125 25.9282 51.8637C26.3088 51.8148 26.673 51.6787 26.9924 51.4659C27.4509 51.1159 27.8573 50.7025 28.1995 50.2381C28.6002 49.7332 28.965 49.2008 29.2913 48.6449C29.5755 48.2101 29.7721 47.724 29.87 47.2139C29.9242 46.8373 29.9027 46.4536 29.8068 46.0854C29.7109 45.7172 29.5425 45.3719 29.3114 45.0695C29.0594 44.7661 28.7418 44.5236 28.3827 44.3605C28.0235 44.1974 27.632 44.1178 27.2376 44.1278C26.2388 44.1415 25.4887 44.7181 24.8459 45.43C24.1768 46.1605 23.6312 46.995 23.2304 47.9009C23.1782 47.9969 23.1646 48.1093 23.1923 48.215C23.22 48.3207 23.287 48.4119 23.3796 48.47C23.475 48.525 23.5881 48.5402 23.6946 48.5124C23.8012 48.4846 23.8924 48.4159 23.9487 48.3213Z" fill="black"/>
<path d="M28.4386 50.5434C28.6702 49.8683 28.9924 49.2277 29.3963 48.6393C29.7535 48.1143 30.1826 47.493 30.7896 47.2398C31.0496 47.1202 31.3354 47.0678 31.6209 47.0874C31.9064 47.107 32.1824 47.1979 32.4237 47.3518C32.6649 47.5058 32.8637 47.7178 33.0017 47.9684C33.1398 48.2191 33.2127 48.5004 33.2138 48.7866C33.2277 48.9881 33.2065 49.1906 33.1511 49.3848C33.0995 49.554 33.0377 49.7198 32.966 49.8814C32.7531 50.3564 32.5094 50.817 32.2365 51.2602C31.9873 51.6876 31.6995 52.0912 31.3767 52.4661C31.3143 52.5354 31.25 52.6039 31.1826 52.6687C31.1497 52.7004 31.1159 52.7309 31.0818 52.7613C31.0644 52.7774 31.0445 52.7931 31.0254 52.8084C31.076 52.7678 31.0332 52.8032 31.0055 52.8207C30.6465 53.0578 30.2102 53.1482 29.7865 53.0733C29.3627 52.9985 28.9839 52.7639 28.7279 52.4181C28.5291 52.1536 28.3987 51.844 28.3483 51.517C28.2978 51.19 28.3288 50.8556 28.4386 50.5434C28.6007 50.032 27.7974 49.8131 27.6364 50.3223C27.512 50.6931 27.4661 51.0858 27.5017 51.4753C27.5373 51.8648 27.6536 52.2427 27.8431 52.5848C28.1909 53.1923 28.759 53.6428 29.4298 53.843C29.7974 53.945 30.1838 53.9598 30.5581 53.886C30.9325 53.8123 31.2844 53.6522 31.5859 53.4184C32.0026 53.0533 32.3618 52.6273 32.6512 52.1548C32.9924 51.6492 33.2966 51.1195 33.5613 50.5699C33.8117 50.1124 33.9751 49.6124 34.0431 49.0952C34.069 48.7249 34.0209 48.3531 33.9014 48.0017C33.7819 47.6502 33.5935 47.3261 33.3473 47.0483C33.0768 46.7663 32.7447 46.5507 32.3769 46.4187C32.0091 46.2867 31.6158 46.2417 31.2277 46.2873C30.7686 46.3312 30.3297 46.4973 29.9565 46.7682C29.5857 47.0629 29.2586 47.4086 28.9847 47.7949C28.4008 48.5585 27.9452 49.4121 27.6359 50.3223C27.4641 50.8299 28.2674 51.0486 28.4386 50.5434Z" fill="black"/>
<path d="M32.2728 53.5931C32.3533 53.1865 32.4827 52.7912 32.6582 52.4158C32.8204 52.0221 33.0448 51.657 33.3229 51.3345C33.8601 50.7643 34.9114 50.7376 35.3332 51.4517C35.7551 52.1657 35.6124 52.8844 35.3547 53.6064C35.0948 54.3331 34.6873 55.2529 33.8254 55.3664C33.6114 55.3881 33.3952 55.3593 33.1943 55.2821C32.9935 55.205 32.8136 55.0817 32.6691 54.9222C32.5049 54.7463 32.3836 54.5348 32.3147 54.3042C32.2458 54.0736 32.2312 53.8303 32.2719 53.5931C32.2979 53.4868 32.2823 53.3747 32.2283 53.2795C32.1743 53.1844 32.086 53.1135 31.9814 53.0813C31.8751 53.0529 31.7618 53.0674 31.666 53.1218C31.5703 53.1762 31.4997 53.266 31.4697 53.3719C31.3719 53.9773 31.4385 54.6738 31.8109 55.1832C32.1323 55.6558 32.6143 55.9957 33.1674 56.1397C33.4742 56.2141 33.7936 56.2198 34.1028 56.1564C34.412 56.0929 34.7034 55.9619 34.9561 55.7728C35.3609 55.4267 35.6778 54.9894 35.8805 54.4969C36.3258 53.5477 36.646 52.4709 36.2478 51.4489C36.1574 51.1776 36.0104 50.9286 35.8167 50.7182C35.6229 50.5079 35.3867 50.3411 35.1237 50.2288C34.8357 50.1202 34.5287 50.071 34.2212 50.0841C33.9137 50.0973 33.6121 50.1726 33.3345 50.3054C32.7693 50.5701 32.3932 51.1172 32.1087 51.6522C31.8112 52.1904 31.5959 52.7701 31.4697 53.3719C31.4433 53.4782 31.4588 53.5906 31.5129 53.6858C31.5669 53.781 31.6555 53.8518 31.7603 53.8835C31.8668 53.9122 31.9802 53.8977 32.0761 53.8434C32.172 53.789 32.2426 53.6991 32.2728 53.5931Z" fill="black"/>
<path d="M19.7396 47.1468C19.6315 46.7935 19.6343 46.4156 19.7474 46.0638C19.8403 45.7293 19.9663 45.4808 20.2726 45.3422C20.8336 45.0883 21.6268 45.2975 22.1209 45.6753C22.7072 46.1234 23.366 46.7876 23.2186 47.5955C23.1899 47.7573 23.1312 47.9122 23.0453 48.0522C22.9891 48.1544 22.9049 48.2386 22.8027 48.2948C22.4823 48.4362 22.1355 48.5078 21.7854 48.5049C21.3815 48.5291 20.9805 48.4229 20.6415 48.2019C20.2387 47.9528 19.9236 47.5841 19.7403 47.1474C19.7082 47.0428 19.6374 46.9545 19.5422 46.9004C19.4471 46.8464 19.335 46.8308 19.2287 46.8567C19.1227 46.8867 19.0328 46.9572 18.9785 47.053C18.9241 47.1488 18.9097 47.2621 18.9383 47.3685C19.3575 48.4141 20.311 49.2394 21.4592 49.3304C21.9563 49.3711 22.4564 49.3071 22.9271 49.1423C23.1484 49.064 23.35 48.9386 23.5182 48.7747C23.6863 48.6109 23.8169 48.4126 23.901 48.1934C24.0173 47.9042 24.072 47.594 24.0616 47.2824C24.0512 46.9709 23.976 46.6649 23.8406 46.3841C23.6158 45.9577 23.3074 45.581 22.9339 45.2763C22.2008 44.6177 21.1755 44.2113 20.1871 44.4935C19.9141 44.5731 19.6647 44.7182 19.4605 44.9161C19.2563 45.114 19.1035 45.3588 19.0154 45.6292C18.7937 46.1835 18.7665 46.7967 18.9383 47.3685C18.97 47.4733 19.0408 47.5619 19.136 47.6159C19.2313 47.67 19.3436 47.6854 19.4499 47.659C19.5557 47.6287 19.6454 47.558 19.6996 47.4622C19.7538 47.3664 19.7682 47.2531 19.7396 47.1468Z" fill="black"/>
<path d="M44.2 44.1236L44.1873 44.1141L44.2715 44.1791C44.1742 44.1023 44.0869 44.0136 44.0116 43.9151L44.0766 43.9993C43.9426 43.8208 43.8319 43.6258 43.7473 43.4193L43.7892 43.5186C43.7497 43.4241 43.715 43.3277 43.6852 43.2297C43.6548 43.126 43.5869 43.0373 43.4946 42.981C43.4232 42.9392 43.3409 42.9197 43.2583 42.9249C43.1758 42.9301 43.0966 42.9599 43.031 43.0103C42.9654 43.0607 42.9164 43.1296 42.8901 43.2081C42.8639 43.2865 42.8616 43.3711 42.8837 43.4508C42.9536 43.6808 43.0469 43.9029 43.162 44.1139C43.2397 44.2532 43.3291 44.3857 43.4293 44.5099C43.5314 44.6356 43.6496 44.7472 43.7809 44.842C43.8289 44.8699 43.8819 44.8879 43.9369 44.8951C43.9919 44.9023 44.0478 44.8984 44.1014 44.8837C44.154 44.8692 44.2033 44.8445 44.2464 44.8109C44.2895 44.7773 44.3256 44.7356 44.3526 44.6881C44.3795 44.6406 44.3969 44.5882 44.4036 44.534C44.4104 44.4798 44.4063 44.4248 44.3918 44.3721L44.3499 44.2728C44.3138 44.2111 44.2624 44.1597 44.2007 44.1236H44.2Z" fill="black"/>
</svg>
