<svg width="32" height="32" viewBox="0 0 32 32" fill="none" xmlns="http://www.w3.org/2000/svg">
<path opacity="0.4" d="M13.9866 2.97333L7.33329 5.46668C5.79996 6.04001 4.54663 7.85333 4.54663 9.49333V19.4C4.54663 20.9733 5.58665 23.04 6.85331 23.9867L12.5866 28.2667C14.4666 29.68 17.5599 29.68 19.4399 28.2667L25.1733 23.9867C26.44 23.04 27.4799 20.9733 27.4799 19.4V9.49333C27.4799 7.85333 26.2266 6.04001 24.6933 5.46668L18.04 2.97333C16.9066 2.56 15.0933 2.56 13.9866 2.97333Z" fill="#F58634"/>
<path d="M15.8665 15.0667C15.8931 15.0667 15.9198 15.0667 15.9465 15.0667H15.9731H15.9998C17.5331 15.0134 18.7331 13.7734 18.7465 12.2267C18.7465 10.6534 17.4665 9.37335 15.8931 9.37335C14.3198 9.37335 13.0398 10.6534 13.0398 12.2267C13.0665 13.76 14.2665 15.0134 15.8665 15.0667Z" fill="#F58634"/>
<path d="M18.9199 17.88C17.3065 16.8134 14.6932 16.8134 13.0665 17.88C12.3199 18.3867 11.8799 19.1067 11.8799 19.8533C11.8799 20.6133 12.3065 21.3067 13.0665 21.8133C13.8799 22.3467 14.9332 22.6267 15.9865 22.6267C17.0399 22.6267 18.1065 22.36 18.9065 21.8133C19.6532 21.3067 20.0932 20.5867 20.0932 19.84C20.1066 19.08 19.6799 18.3867 18.9199 17.88Z" fill="#F58634"/>
</svg>
