<svg width="74" height="74" viewBox="0 0 74 74" fill="none" xmlns="http://www.w3.org/2000/svg">
<rect width="74" height="74" rx="15" fill="#F58634" fill-opacity="0.4"/>
<g clip-path="url(#clip0_1897_996)">
<path d="M59.3392 49.4184L47.4139 37.4931C47.1216 37.2009 46.6477 37.2009 46.3554 37.4931L38.9463 44.9022C38.654 45.1947 38.654 45.6685 38.9463 45.9608L50.8716 57.8861C51.893 58.9074 53.2345 59.418 54.5762 59.418C55.9178 59.418 57.2594 58.9074 58.2808 57.8861L59.3393 56.8276C60.3288 55.8381 60.8738 54.5223 60.8738 53.1229C60.8738 51.7235 60.3287 50.4079 59.3392 49.4184ZM53.059 54.1462C52.7104 53.7975 52.5184 53.3338 52.5184 52.8408C52.5184 51.8345 53.358 50.9955 54.3645 50.9955C54.8372 50.9955 55.3101 51.1755 55.67 51.5354C56.3898 52.2552 56.3898 53.4264 55.67 54.1462C54.95 54.8659 53.7788 54.8659 53.059 54.1462Z" fill="#F58634"/>
<path d="M47.4139 37.4931C47.1216 37.2009 46.6477 37.2009 46.3554 37.4931L38.9463 44.9022C38.654 45.1947 38.654 45.6685 38.9463 45.9608L42.5373 49.5518L51.005 41.0841L47.4139 37.4931Z" fill="#6E4320"/>
<path d="M53.0589 30.7189L48.9516 26.6116L28.1353 47.428L32.2426 51.5354C32.9495 52.2421 33.8892 52.6314 34.8888 52.6314C35.8885 52.6314 36.8282 52.2422 37.535 51.5354L53.059 36.0114C53.7658 35.3046 54.155 34.3649 54.155 33.3652C54.1549 32.3655 53.7657 31.4257 53.0589 30.7189Z" fill="#62C9CC"/>
<path d="M35.559 13.2192C35.2667 12.9269 34.7927 12.9269 34.5005 13.2192L14.7427 32.977C14.6023 33.1174 14.5234 33.3077 14.5234 33.5063C14.5234 33.7049 14.6023 33.8951 14.7427 34.0356L26.9178 46.2107L47.7342 25.3944L35.559 13.2192Z" fill="#F2F2F2"/>
<path d="M37.8521 37.0772C37.6606 37.0772 37.4691 37.0042 37.3229 36.858L35.0649 34.6C34.7726 34.3076 34.7726 33.8337 35.0649 33.5414C35.3572 33.2491 35.8312 33.2493 36.1234 33.5414L38.3813 35.7995C38.6737 36.0919 38.6737 36.5657 38.3813 36.858C38.2352 37.0042 38.0437 37.0772 37.8521 37.0772Z" fill="#B2B2B2"/>
<path d="M42.0862 32.8435C41.8947 32.8435 41.7032 32.7704 41.557 32.6243L37.6055 28.6727C37.3132 28.3803 37.3132 27.9065 37.6055 27.6142C37.8978 27.322 38.3717 27.322 38.6639 27.6142L42.6155 31.5657C42.9078 31.8582 42.9078 32.332 42.6155 32.6243C42.4694 32.7703 42.2778 32.8435 42.0862 32.8435Z" fill="#B2B2B2"/>
<path d="M32.9129 42.0167C32.7213 42.0167 32.5298 41.9436 32.3836 41.7975L29.4199 38.8338C29.1276 38.5414 29.1276 38.0676 29.4199 37.7753C29.7122 37.4831 30.1861 37.4831 30.4784 37.7753L33.4421 40.7389C33.7344 41.0313 33.7344 41.5052 33.4421 41.7975C33.2959 41.9436 33.1045 42.0167 32.9129 42.0167Z" fill="#B2B2B2"/>
<path d="M26.9177 46.2101L29.5122 48.8047L50.3281 27.9888L47.7335 25.3943L26.9177 46.2101Z" fill="#999999"/>
<path d="M53.059 30.7188L50.329 27.9888L29.5127 48.8051L32.2428 51.5352C32.9497 52.2419 33.8893 52.6312 34.889 52.6312C35.8886 52.6312 36.8284 52.242 37.5352 51.5352L53.0591 36.0112C53.766 35.3045 54.1552 34.3647 54.1552 33.3651C54.1551 32.3654 53.7658 31.4256 53.059 30.7188Z" fill="#F58634"/>
<path d="M23.5986 38.1606C24.4649 38.1606 25.2793 37.8233 25.8919 37.2106C26.7079 36.3945 26.9974 35.2482 26.7602 34.1978L28.785 36.2227C29.3976 36.8353 30.2121 37.1728 31.0783 37.1728C31.9445 37.1728 32.7589 36.8354 33.3716 36.2227C33.9843 35.61 34.3215 34.7956 34.3215 33.9295C34.3215 33.0633 33.9842 32.2488 33.3716 31.6362L30.6438 28.9083C30.8764 28.9605 31.1164 28.9873 31.3606 28.9873C32.2267 28.9873 33.0412 28.65 33.6539 28.0375C34.4699 27.2214 34.7593 26.0751 34.5221 25.0247L34.9946 25.4973C35.6065 26.109 36.4209 26.4461 37.2878 26.4461C38.1548 26.4461 38.9693 26.109 39.5812 25.497C40.8455 24.2325 40.8455 22.1751 39.5811 20.9104L33.1663 14.5532L15.8784 31.8413L21.3052 37.2106C21.918 37.8232 22.7324 38.1606 23.5986 38.1606Z" fill="#E5E5E5"/>
<path d="M23.5983 37.1627C24.1981 37.1627 24.7621 36.9291 25.186 36.5051C26.0614 35.6297 26.0614 34.2052 25.186 33.3297L24.0571 32.2007C23.7653 31.9088 23.7653 31.434 24.0571 31.1422C24.3488 30.8502 24.8238 30.8505 25.1151 31.1418L29.4904 35.5172C29.9146 35.9413 30.4784 36.1749 31.0781 36.1749C31.6778 36.1749 32.2418 35.9413 32.6657 35.5172C33.0899 35.0931 33.3234 34.5293 33.3234 33.9296C33.3234 33.3299 33.0898 32.7661 32.6657 32.3419L27.5852 27.2613C27.2807 26.9571 27.3011 26.4431 27.6281 26.1633C27.9209 25.9128 28.3715 25.9309 28.6438 26.2032L29.7726 27.332C30.1967 27.7562 30.7606 27.9898 31.3604 27.9898C31.9601 27.9898 32.5239 27.7562 32.948 27.3321C33.8235 26.4567 33.8235 25.0322 32.948 24.1567L31.6727 22.8815C31.3861 22.5892 31.3877 22.1183 31.6778 21.8282C31.9697 21.5362 32.4444 21.5362 32.7362 21.8281L35.7 24.7919C36.5754 25.6671 37.9998 25.6672 38.8754 24.7918C39.7506 23.9164 39.7506 22.4919 38.8754 21.6164L32.4602 15.2593L16.5835 31.1361L22.0107 36.505C22.4348 36.9292 22.9986 37.1627 23.5983 37.1627Z" fill="#13524A"/>
<path d="M20.2688 42.8473C19.975 42.4422 19.3509 42.4422 19.057 42.8473C18.4501 43.6843 13.1265 51.1206 13.1265 54.4636C13.1265 58.0678 16.0587 61 19.6629 61C23.2671 61 26.1992 58.0678 26.1992 54.4636C26.1992 51.1206 20.8757 43.6843 20.2688 42.8473Z" fill="#13524A"/>
<path d="M21.1597 59.5032C17.5555 59.5032 14.6234 56.571 14.6234 52.9669C14.6234 50.2858 18.047 44.9727 19.7161 42.5418C19.6984 42.5404 19.6807 42.5386 19.6629 42.5386C19.4231 42.5386 19.1978 42.6534 19.0571 42.8477C18.4501 43.6845 13.1265 51.1207 13.1265 54.4638C13.1265 58.0679 16.0587 61.0001 19.6629 61.0001C21.8462 61.0001 23.7816 59.9229 24.9693 58.2733C23.8958 59.0461 22.5806 59.5032 21.1597 59.5032Z" fill="#5C8D87"/>
<path d="M20.4613 58.455C21.4533 58.455 22.2575 57.6508 22.2575 56.6588C22.2575 55.6668 21.4533 54.8625 20.4613 54.8625C19.4692 54.8625 18.665 55.6668 18.665 56.6588C18.665 57.6508 19.4692 58.455 20.4613 58.455Z" fill="#5C8D87"/>
<path d="M22.0578 53.8647C22.7192 53.8647 23.2553 53.3285 23.2553 52.6672C23.2553 52.0059 22.7192 51.4697 22.0578 51.4697C21.3965 51.4697 20.8604 52.0059 20.8604 52.6672C20.8604 53.3285 21.3965 53.8647 22.0578 53.8647Z" fill="#5C8D87"/>
</g>
<defs>
<clipPath id="clip0_1897_996">
<rect width="48" height="48" fill="white" transform="translate(13 13)"/>
</clipPath>
</defs>
</svg>
