<svg width="74" height="74" viewBox="0 0 74 74" fill="none" xmlns="http://www.w3.org/2000/svg">
<rect width="74" height="74" rx="15" fill="#F58634" fill-opacity="0.4"/>
<path d="M53.7513 24.4351C53.6962 24.3866 53.6374 24.3423 53.5756 24.3027L38.0594 14.3889C37.8434 14.2508 37.5924 14.1772 37.336 14.1765C37.0796 14.1759 36.8283 14.2483 36.6115 14.3852L20.9215 24.299C20.8624 24.3363 20.8089 24.377 20.7585 24.4195C20.3592 24.5312 20.0659 24.897 20.0659 25.332V58.995C20.0659 59.5187 20.4905 59.9433 21.0143 59.9433H53.4453C53.9691 59.9433 54.3937 59.5187 54.3937 58.995V25.332C54.3936 24.9154 54.1247 24.5625 53.7513 24.4351Z" fill="#F58634"/>
<path d="M55.9273 60.2899C55.7592 60.2899 55.5979 60.2232 55.479 60.1043C55.3601 59.9854 55.2934 59.8241 55.2934 59.656V41.7768C55.2934 41.6086 55.3601 41.4474 55.479 41.3285C55.5979 41.2096 55.7592 41.1428 55.9273 41.1428C56.0954 41.1428 56.2567 41.2096 56.3756 41.3285C56.4944 41.4474 56.5612 41.6086 56.5612 41.7768V59.656C56.5612 59.8241 56.4944 59.9854 56.3755 60.1042C56.2566 60.2231 56.0954 60.2899 55.9273 60.2899ZM18.7282 59.8137V55.7329C18.7297 55.6487 18.7144 55.5651 18.6831 55.4869C18.6519 55.4088 18.6055 55.3376 18.5465 55.2776C18.4875 55.2175 18.4171 55.1699 18.3395 55.1373C18.2619 55.1048 18.1786 55.088 18.0944 55.088C18.0102 55.088 17.9269 55.1048 17.8493 55.1373C17.7717 55.1699 17.7013 55.2175 17.6423 55.2776C17.5833 55.3376 17.5368 55.4088 17.5056 55.4869C17.4744 55.5651 17.4591 55.6487 17.4605 55.7329V59.8137C17.4591 59.8979 17.4744 59.9815 17.5056 60.0596C17.5368 60.1378 17.5833 60.209 17.6423 60.269C17.7013 60.329 17.7717 60.3767 17.8493 60.4092C17.9269 60.4418 18.0102 60.4585 18.0944 60.4585C18.1786 60.4585 18.2619 60.4418 18.3395 60.4092C18.4171 60.3767 18.4875 60.329 18.5465 60.269C18.6055 60.209 18.6519 60.1378 18.6831 60.0596C18.7144 59.9815 18.7297 59.8979 18.7282 59.8137Z" fill="#8E6049"/>
<path d="M60.6595 50.7528C60.6595 53.3662 58.5409 55.4849 55.9274 55.4849C53.3139 55.4849 51.1953 53.3662 51.1953 50.7528C51.1953 48.1393 53.3139 46.0207 55.9274 46.0207C58.5409 46.0207 60.6595 48.1393 60.6595 50.7528ZM55.9274 38.1082C54.1663 38.1082 52.7387 39.5358 52.7387 41.2969C52.7387 43.058 54.1663 44.4856 55.9274 44.4856C57.6885 44.4856 59.1161 43.058 59.1161 41.2969C59.1161 39.5358 57.6885 38.1082 55.9274 38.1082ZM18.3214 40.058C18.2315 40.0282 18.1367 40.0164 18.0422 40.0232C17.9478 40.0301 17.8557 40.0555 17.7711 40.098C17.6865 40.1405 17.6111 40.1992 17.5492 40.2708C17.4873 40.3424 17.4401 40.4255 17.4103 40.5154C17.4103 40.5154 17.336 40.7392 17.2135 41.1311C17.1502 41.3271 17.0806 41.5649 16.9973 41.8378L16.8658 42.2724L16.7264 42.7543C16.6306 43.0901 16.5214 43.454 16.4157 43.8388L16.0828 45.0492C15.965 45.469 15.8551 45.9028 15.7369 46.3436L15.3944 47.68C15.2832 48.1278 15.1684 48.5756 15.0629 49.0164C14.9564 49.4572 14.8489 49.891 14.7516 50.3108C14.6537 50.7307 14.5554 51.1365 14.4687 51.5212L14.2216 52.6057C14.142 52.9416 14.0944 53.2494 14.074 53.5223C14.0535 53.7952 14.0569 54.0331 14.0757 54.229C14.0929 54.425 14.1228 54.5789 14.1492 54.6838C14.1753 54.7887 14.1984 54.8448 14.1984 54.8448C14.6127 55.8365 15.4085 56.6822 16.4798 57.1262C18.6316 58.0179 21.0987 56.9965 21.9904 54.8448C21.9904 54.8448 22.0136 54.7888 22.0397 54.6838C22.0661 54.5789 22.096 54.425 22.1132 54.229C22.1319 54.0331 22.1355 53.7952 22.1149 53.5223C22.0945 53.2494 22.0469 52.9417 21.9673 52.6057L21.7202 51.5212C21.6334 51.1364 21.5352 50.7307 21.4372 50.3108C21.3399 49.891 21.2325 49.4572 21.126 49.0164C21.0205 48.5756 20.9058 48.1279 20.7945 47.68L20.4519 46.3436C20.3338 45.9028 20.2238 45.469 20.1061 45.0492L19.7732 43.8388C19.6675 43.454 19.5584 43.0901 19.4625 42.7543L19.3231 42.2724L19.1915 41.8378C19.1083 41.5649 19.0387 41.3271 18.9754 41.1311C18.8527 40.7393 18.7785 40.5154 18.7785 40.5154C18.7087 40.3085 18.5447 40.1319 18.3214 40.058Z" fill="#13524A"/>
<path d="M32.7163 47.6804H42.0316V59.9432H32.7163V47.6804Z" fill="#212121"/>
<path d="M18.6973 26.9308H20.2737C20.4046 26.9308 20.5328 26.8946 20.6443 26.826L37.2017 16.6415C37.3145 16.5721 37.4444 16.5358 37.5769 16.5366C37.7093 16.5375 37.8388 16.5755 37.9506 16.6464L54.0183 26.8211C54.1314 26.8929 54.2627 26.9309 54.3966 26.9309H55.8171C56.5202 26.9309 56.7926 26.0166 56.2043 25.6317L37.9665 13.7011C37.853 13.6268 37.7205 13.5868 37.5849 13.5857C37.4492 13.5847 37.3161 13.6226 37.2015 13.6951L18.3195 25.6256C17.7203 26.0042 17.9885 26.9308 18.6973 26.9308Z" fill="#13524A"/>
<path d="M29.3435 53.5313H26.1496C25.9706 53.5313 25.7989 53.4602 25.6723 53.3336C25.5457 53.207 25.4746 53.0353 25.4746 52.8563V51.6357C25.4746 51.4567 25.5457 51.285 25.6723 51.1584C25.7989 51.0318 25.9706 50.9607 26.1496 50.9607H29.3435C29.5225 50.9607 29.6942 51.0318 29.8208 51.1584C29.9474 51.285 30.0185 51.4567 30.0185 51.6357V52.8563C30.0185 53.0353 29.9474 53.207 29.8208 53.3336C29.6942 53.4602 29.5225 53.5313 29.3435 53.5313ZM40.618 53.5306C40.1909 53.5306 39.8446 53.8768 39.8446 54.304C39.8446 54.7312 40.1908 55.0774 40.618 55.0774C41.0453 55.0774 41.3915 54.7312 41.3915 54.304C41.3915 53.8768 41.0452 53.5306 40.618 53.5306Z" fill="#E2A042"/>
<path d="M31.8904 29.0542V36.7162C31.8904 36.8952 31.8193 37.0669 31.6927 37.1934C31.5661 37.32 31.3944 37.3912 31.2154 37.3912H27.467C27.288 37.3912 27.1163 37.32 26.9897 37.1934C26.8631 37.0669 26.792 36.8952 26.792 36.7162V29.0542C26.792 28.8751 26.8631 28.7034 26.9897 28.5769C27.1163 28.4503 27.288 28.3792 27.467 28.3792H31.2154C31.3944 28.3792 31.5661 28.4503 31.6927 28.5769C31.8193 28.7034 31.8904 28.8751 31.8904 29.0542ZM47.2403 28.3792H43.4919C43.3128 28.3792 43.1412 28.4503 43.0146 28.5769C42.888 28.7034 42.8169 28.8751 42.8169 29.0542V36.7162C42.8169 36.8952 42.888 37.0669 43.0146 37.1934C43.1412 37.32 43.3128 37.3912 43.4919 37.3912H47.2403C47.4193 37.3912 47.591 37.32 47.7176 37.1934C47.8442 37.0669 47.9153 36.8952 47.9153 36.7162V29.0542C47.9153 28.8751 47.8442 28.7034 47.7176 28.5769C47.591 28.4503 47.4193 28.3792 47.2403 28.3792Z" fill="#212121"/>
<path d="M32.1561 38.6001H26.5266C26.3475 38.6001 26.1759 38.529 26.0493 38.4024C25.9227 38.2759 25.8516 38.1042 25.8516 37.9251V37.4399C25.8516 37.2609 25.9227 37.0892 26.0493 36.9626C26.1759 36.836 26.3475 36.7649 26.5266 36.7649H32.1561C32.3351 36.7649 32.5068 36.836 32.6334 36.9626C32.7599 37.0892 32.8311 37.2609 32.8311 37.4399V37.9251C32.8311 38.1042 32.7599 38.2759 32.6334 38.4024C32.5068 38.529 32.3351 38.6001 32.1561 38.6001ZM48.8559 37.9251V37.4399C48.8559 37.2609 48.7848 37.0892 48.6582 36.9626C48.5316 36.836 48.36 36.7649 48.1809 36.7649H42.5514C42.3724 36.7649 42.2007 36.836 42.0741 36.9626C41.9476 37.0892 41.8764 37.2609 41.8764 37.4399V37.9251C41.8764 38.1042 41.9476 38.2759 42.0741 38.4024C42.2007 38.529 42.3724 38.6001 42.5514 38.6001H48.1809C48.36 38.6001 48.5316 38.529 48.6582 38.4024C48.7848 38.2759 48.8559 38.1042 48.8559 37.9251ZM43.0622 48.5136C43.9028 48.5136 44.5035 47.7232 44.3144 46.9043C43.5848 43.7454 40.7543 41.3905 37.3738 41.3905C33.9933 41.3905 31.1627 43.7454 30.4332 46.9043C30.2441 47.7233 30.8449 48.5136 31.6854 48.5136H43.0622Z" fill="#8E7B70"/>
</svg>
