<svg width="74" height="74" viewBox="0 0 74 74" fill="none" xmlns="http://www.w3.org/2000/svg">
<rect width="74" height="74" rx="15" fill="#F58634" fill-opacity="0.4"/>
<path d="M18.1655 43.1546L14.5562 37.4968L15.5452 33.6062L23.8937 28.089L35.4249 26.6733L48.5124 28.3702L54.8124 30.8452C54.8124 30.8452 59.5515 34.9468 59.6218 35.7952C59.6921 36.6437 58.3468 41.1015 58.2765 41.3124C58.2062 41.5233 57.2874 46.1218 54.5265 47.1108C51.7655 48.0999 34.014 50.6499 33.728 50.5046C33.4421 50.3593 18.1655 43.1546 18.1655 43.1546Z" fill="#2F2F2F"/>
<path d="M16.2578 41.3874C16.2578 41.3874 16.3656 40.1874 16.7734 38.9921C17.3172 37.389 22.3422 30.4233 36.4187 30.4233C50.4953 30.4233 58.2766 37.3562 57.4984 40.8202C56.7203 44.2843 47.0312 52.989 47.0312 52.989C47.0312 52.989 30.0531 50.3733 29.7719 50.303C29.4859 50.228 16.2578 41.3874 16.2578 41.3874Z" fill="#F7B03A"/>
<path d="M22.8065 37.2624C22.394 37.3515 22.0331 37.6187 22.0706 38.0968C22.1034 38.5749 22.544 38.7999 22.9377 38.7343C23.5518 38.6312 23.7721 38.1952 23.6924 37.7687C23.6127 37.3796 23.1815 37.178 22.8065 37.2624Z" fill="#FFE36A"/>
<path d="M22.4123 39.489C22.8248 40.1406 22.2014 41.0453 20.9545 41.439C19.7076 41.8328 18.8404 41.6359 18.6951 40.7828C18.5498 39.9296 19.6607 39.3906 20.2326 39.1937C20.8045 38.9968 21.9857 38.8187 22.4123 39.489Z" fill="#FFE36A"/>
<path d="M29.092 34.7734C29.1201 35.4062 30.0248 35.7578 31.3045 35.5937C32.5842 35.4297 33.2686 34.7266 33.203 34.0891C33.1373 33.4516 32.2373 33.2031 31.2061 33.2687C30.1748 33.3344 29.0592 33.9719 29.092 34.7734Z" fill="#FFE36A"/>
<path d="M33.4844 33.1188C33.4844 33.686 34.1547 33.8735 35.0219 33.8219C36.0531 33.7657 36.3344 33.3626 36.3813 32.9876C36.4281 32.6126 35.8094 32.0219 34.9375 32.0876C34.075 32.1532 33.4844 32.4954 33.4844 33.1188Z" fill="#FFE36A"/>
<path d="M42.0813 38.425C42.0157 39.1422 42.5079 39.9297 44.4391 39.7703C46.3704 39.6109 46.7501 38.6406 46.7501 38.2984C46.7501 37.9562 46.4313 36.9156 44.5891 36.8875C43.4782 36.8687 42.1797 37.3422 42.0813 38.425Z" fill="#FFE36A"/>
<path d="M51.0766 38.0171C51.0391 38.3828 51.1563 39.3296 52.8954 39.2781C54.6297 39.2312 54.4188 38.6406 54.4188 38.3781C54.4188 38.1156 53.8282 37.1499 52.6 37.0187C51.6203 36.9109 51.1422 37.4078 51.0766 38.0171Z" fill="#FFE36A"/>
<path d="M53.3033 40.5532C53.2704 40.9939 53.7767 41.3407 54.8595 41.2751C55.7783 41.2189 56.1767 40.736 56.1533 40.3751C56.1204 39.8501 55.6142 39.5876 54.8267 39.6204C54.1376 39.6485 53.3548 39.9345 53.3033 40.5532Z" fill="#FFE36A"/>
<path d="M33.4187 44.9452C33.4375 45.3202 34.2391 45.7655 35.5328 45.7655C36.8266 45.7655 37.0703 45.2265 37.0703 44.8327C37.0703 44.439 36.6625 43.9983 35.4672 43.9468C34.3984 43.8999 33.3859 44.3077 33.4187 44.9452Z" fill="#FFE36A"/>
<path d="M19.9893 43.6515C20.0361 43.539 20.0924 43.0468 20.3314 42.6343C20.5424 42.2733 20.9174 41.978 21.3486 41.978C22.1033 41.978 23.8049 42.2733 24.1986 42.8124C24.4846 43.2062 24.4611 44.664 23.3127 45.039C22.1643 45.4187 19.9893 43.6515 19.9893 43.6515Z" fill="#D64C12"/>
<path d="M23.4904 36.1142C23.5139 36.4142 23.9967 37.0142 24.6389 36.9673C25.2764 36.9204 27.1279 36.0673 27.3108 35.6876C27.4889 35.3126 26.7389 34.4595 26.2467 34.4595C25.7545 34.4595 23.4436 35.4954 23.4904 36.1142Z" fill="#D64C12"/>
<path d="M42.3625 41.1626C42.1703 41.5516 41.9687 42.7001 42.8031 43.0141C43.6375 43.3235 46.8672 43.4735 46.8672 42.5407C46.8672 41.6079 45.9484 40.9376 45.6062 40.886C45.2594 40.8345 42.6578 40.572 42.3625 41.1626Z" fill="#D64C12"/>
<path d="M46.1455 39.6391C45.6158 40.4595 46.5815 41.4345 47.294 41.7673C48.8315 42.4891 49.6049 42.3673 50.144 41.9641C51.0627 41.2751 50.7487 40.586 48.7846 39.672C47.383 39.0157 46.5065 39.0813 46.1455 39.6391Z" fill="#D64C12"/>
<path d="M37.5015 34.7499C37.4875 35.6171 39.4281 36.4937 40.825 36.5358C42.2219 36.578 42.5875 35.9218 42.6906 35.6124C42.7937 35.303 42.3015 34.239 41.7484 33.7843C41.1953 33.3296 39.7797 32.8608 39.1422 32.9452C38.5047 33.0249 37.5203 33.6437 37.5015 34.7499Z" fill="#7F594B"/>
<path d="M26.0923 39.3064C26.1861 39.8923 27.0814 40.2907 28.6564 40.3939C30.5642 40.5157 31.7736 39.6532 31.8157 39.2876C31.8579 38.9173 30.747 37.9751 28.8017 37.9751C26.4392 37.9704 26.0126 38.7907 26.0923 39.3064Z" fill="#FE8D00"/>
<path d="M25.4171 42.7937C25.3562 43.839 26.0921 44.2702 27.1187 44.228C28.1452 44.1858 30.0718 43.2249 30.4608 42.114C30.7046 41.4249 29.5562 40.2062 27.8733 40.2671C26.903 40.3046 25.4687 41.8796 25.4171 42.7937Z" fill="#7F594B"/>
<path d="M43.4732 36.6155C43.8857 36.8405 45.4232 36.4093 46.6326 36.1655C47.842 35.9218 49.0748 35.7952 49.2576 35.4062C49.4404 35.0171 49.1123 33.3765 47.3076 33.2312C45.5029 33.0858 44.4763 33.7655 44.0451 34.2343C43.6138 34.7077 43.3279 35.2796 43.3045 35.4437C43.2857 35.6124 43.1873 36.4608 43.4732 36.6155Z" fill="#FE8D00"/>
<path d="M50.8186 39.6954C51.4046 39.5922 51.0249 37.8297 50.5515 37.2953C50.078 36.761 48.7468 36.5172 47.903 36.6204C47.064 36.7235 46.4874 36.9485 46.4452 37.4219C46.403 37.8954 47.903 38.6922 48.6811 39.0438C49.464 39.386 50.4671 39.7563 50.8186 39.6954Z" fill="#FE8D00"/>
<path d="M30.6721 41.0218C31.1549 41.1905 32.2799 40.8624 32.294 40.1499C32.308 39.4374 31.6658 38.7718 31.033 38.9171C30.7143 38.9874 30.0487 39.8171 30.0627 40.1358C30.0768 40.4593 30.4237 40.9374 30.6721 41.0218Z" fill="#92A51E"/>
<path d="M33.0345 36.7469C33.0767 37.3141 34.3377 37.9047 34.7736 37.5297C35.1861 37.1735 34.947 35.6594 34.4127 35.6594C33.747 35.6594 33.0158 36.5125 33.0345 36.7469Z" fill="#92A51E"/>
<path d="M34.2248 39.4704C34.2342 39.672 34.5295 40.6001 35.2561 40.5861C35.9826 40.572 36.967 39.8314 36.967 39.4564C36.967 39.0814 35.8233 37.8767 35.2842 37.8907C34.9186 37.9001 34.2108 39.0814 34.2248 39.4704Z" fill="#92A51E"/>
<path d="M36.6156 36.7889C36.5312 37.2905 36.9062 37.3421 37.239 37.3983C37.5718 37.4546 37.9937 37.5577 38.4296 38.1249C38.8656 38.6921 39.2921 39.8686 39.3437 39.9952C39.5031 40.403 40.2296 40.6186 40.7499 40.1124C41.2702 39.6061 40.2437 37.3749 39.3296 36.6624C38.4109 35.9499 36.7749 35.8608 36.6156 36.7889Z" fill="#FBE0BC"/>
<path d="M36.3814 37.9798C36.4517 38.4438 37.5111 39.297 38.2517 38.922C38.9924 38.547 38.1955 37.1641 37.8721 37.0141C37.6705 36.9157 36.2783 37.3048 36.3814 37.9798Z" fill="#92A51E"/>
<path d="M40.6891 36.836C40.3563 36.822 40.0797 36.9392 40.0938 37.5017C40.1078 38.0689 40.3235 38.7064 41.0641 38.7485C41.8047 38.7907 41.875 37.8204 41.875 37.7032C41.875 37.586 41.425 36.8642 40.6891 36.836Z" fill="#92A51E"/>
<path d="M40.9047 39.9063C40.6281 39.8407 39.2968 40.4125 39.2687 40.9516C39.2406 41.486 39.7328 41.8938 40.5718 41.9969C41.4109 42.1 41.9781 42.1 42.0953 41.6922C42.2078 41.2844 41.7297 40.1078 40.9047 39.9063Z" fill="#92A51E"/>
<path d="M46.9471 44.7859C46.9987 45.1 48.1049 45.5922 48.4612 45.4938C48.8127 45.3953 49.6799 43.5859 50.9783 43.2156C52.2768 42.8406 52.708 43 52.8862 42.8031C53.0643 42.6063 52.8065 41.7016 52.3752 41.5469C51.944 41.3922 50.7815 41.1719 49.3284 42.0203C47.8377 42.8828 46.8862 44.4344 46.9471 44.7859Z" fill="#FBE0AF"/>
<path d="M33.0954 40.3235C32.4579 40.361 31.6001 41.3079 31.2298 42.1704C30.6626 43.4782 30.4845 44.5657 30.6392 44.8423C30.7985 45.1189 31.9282 45.5032 32.3876 45.1939C32.5048 45.1142 32.622 43.661 33.1939 42.5595C33.5829 41.8142 34.2345 41.5189 34.3517 41.4017C34.4689 41.2845 34.136 40.2673 33.0954 40.3235Z" fill="#FBE0AF"/>
<path d="M27.6112 33.6858C27.4377 33.8499 26.9643 34.6093 27.119 35.9452C27.2408 36.9624 27.3815 37.5812 27.7096 37.7312C27.9627 37.8483 29.7721 38.0265 29.9315 37.553C30.0908 37.0796 28.9705 35.7671 28.8487 35.528C28.7268 35.289 28.6705 33.9155 28.6518 33.7421C28.633 33.564 27.8877 33.428 27.6112 33.6858Z" fill="#FBE0AF"/>
<path d="M64.5016 33.536C63.6532 31.8391 62.7344 31.2016 61.9563 31.2016C61.1782 31.2016 58.4922 32.4766 58.4922 32.4766C58.4922 32.4766 52.4688 26.0079 37.1922 25.7876C22.4079 25.5719 16.1219 31.6891 16.1219 31.6891C16.1219 31.6891 13.9938 30.0672 11.9407 30.2782C9.89224 30.4938 8.12505 35.8704 9.0438 37.4266C9.96255 38.9829 11.3079 38.9126 12.3672 39.4797C13.4266 40.0469 14.4204 40.6844 14.6313 41.036C14.8422 41.3876 15.4797 49.2438 17.4626 52.7782C19.4454 56.3172 23.1907 61.0563 36.9157 61.3376C50.6407 61.6188 54.3438 56.0782 56.0126 52.9188C57.9954 49.1688 58.9141 42.236 58.9141 42.236C58.9141 42.236 60.3297 40.961 61.886 40.3282C63.6063 39.6251 64.361 39.4797 64.8579 38.7719C65.3501 38.0594 65.3501 35.2329 64.5016 33.536ZM37.4079 46.7641C22.6235 46.6188 15.4751 41.9501 15.6907 36.6485C15.8313 33.1844 22.7641 27.4516 36.3485 27.5922C50.0782 27.7376 58.6329 32.6876 58.5626 37.2813C58.4876 41.8797 51.911 46.9047 37.4079 46.7641Z" fill="#6A6E70"/>
<path opacity="0.6" d="M36.864 33.8359C38.3593 33.6766 37.6796 31.1594 38.9078 28.7313C41.7156 23.1672 47.2328 22.6047 47.0781 17.8563C46.9093 12.6625 38.8562 10.1406 36.4046 12.1328C35.6171 12.775 40.1312 13.5109 39.4187 16.4734C38.7015 19.4359 33.2406 19.6375 31.914 24.3859C30.3343 30.0203 35.8937 33.9344 36.864 33.8359Z" fill="#EAEAEA"/>
</svg>
