<svg width="74" height="74" viewBox="0 0 74 74" fill="none" xmlns="http://www.w3.org/2000/svg">
<rect width="74" height="74" rx="15" fill="#F58634" fill-opacity="0.4"/>
<g clip-path="url(#clip0_1897_1053)">
<path d="M54.6296 62.9964H8.05867C8.05867 62.9964 4.28351 61.0274 4.52718 60.4187C4.77085 59.81 8.42401 61.6367 8.42401 61.6367C8.42401 61.6367 7.81531 60.1753 8.42401 60.0533C9.03303 59.9313 10.4944 61.5147 11.3468 61.6367C12.1992 61.7584 12.1992 60.906 13.4172 61.1494C14.6349 61.3927 15.853 61.6367 15.853 61.6367C17.558 60.784 21.3332 61.8801 21.6985 61.8801C22.0639 61.8801 34.8508 62.0021 39.4786 62.2454C39.4786 62.2454 37.5299 61.2714 38.2606 60.906C38.9913 60.5407 42.5231 61.8801 42.5231 61.8801C42.5231 61.8801 42.8884 61.2714 43.7411 61.2714C44.5938 61.2714 46.5419 62.0021 46.5419 62.0021C46.5419 62.0021 46.6639 61.393 47.3946 61.5147C48.1253 61.6367 54.1923 61.5554 54.6296 62.9964Z" fill="#D8AE58"/>
<path d="M41.562 20.6648L36.6167 17.0032V19.2563L39.5392 21.631L41.562 20.6648Z" fill="#5B3514"/>
<path d="M49.7358 43.4543V32.3803C49.7358 32.2774 49.8194 32.1936 49.9226 32.1936H50.7118C50.815 32.1936 50.8988 32.2771 50.8988 32.3803V43.4543C50.8988 43.5576 50.815 43.6411 50.7118 43.6411H49.9226C49.8194 43.6411 49.7358 43.5576 49.7358 43.4543Z" fill="#5B3514"/>
<path d="M43.5657 43.4543V32.3803C43.5657 32.2774 43.6495 32.1936 43.7524 32.1936H44.5419C44.6448 32.1936 44.7287 32.2771 44.7287 32.3803V43.4543C44.7287 43.5576 44.6448 43.6411 44.5419 43.6411H43.7524C43.6492 43.6411 43.5657 43.5576 43.5657 43.4543Z" fill="#5B3514"/>
<path d="M45.3113 43.495V31.0813C45.3113 30.978 45.3948 30.8945 45.498 30.8945H46.2872C46.3904 30.8945 46.4743 30.978 46.4743 31.0813V43.495C46.4743 43.5982 46.3904 43.6817 46.2872 43.6817H45.498C45.3945 43.6814 45.3113 43.5982 45.3113 43.495Z" fill="#5B3514"/>
<path d="M50.5366 34.4799H45.8359C45.7327 34.4799 45.6492 34.3964 45.6492 34.2931V33.5036C45.6492 33.4007 45.7327 33.3169 45.8359 33.3169H50.5366C50.6399 33.3169 50.7234 33.4007 50.7234 33.5036V34.2931C50.7231 34.3964 50.6399 34.4799 50.5366 34.4799Z" fill="#5B3514"/>
<path d="M41.5621 20.6648H39.425V36.9025H41.5621V20.6648Z" fill="#5B3514"/>
<path d="M57.7397 52.316C57.7397 52.316 57.7397 38.8228 57.7397 36.3057C57.7397 33.789 40.3109 34.3239 40.3109 34.3239C40.3109 34.3239 40.3109 25.589 40.3109 22.5038C40.3109 19.4187 20.207 19.5811 20.207 21.5295C20.207 23.4779 20.207 52.3157 20.207 52.3157L57.7397 52.316Z" fill="#F58634"/>
<path d="M30.7134 52.3158H53.5379C53.7065 48.2384 53.4432 37.126 53.4432 36.4682C53.4432 35.2501 40.25 35.1691 40.25 36.5495C40.25 37.9296 40.25 45.8862 40.25 45.8862H36.3935L30.7134 52.3158Z" fill="#FAA334"/>
<path d="M39.0651 31.7391H24.3042C23.9748 31.7391 23.708 31.472 23.708 31.1429V23.3843C23.708 23.0549 23.9751 22.7881 24.3042 22.7881H39.0651C39.3945 22.7881 39.6613 23.0552 39.6613 23.3843V31.1429C39.6613 31.472 39.3945 31.7391 39.0651 31.7391Z" fill="#FAA334"/>
<path d="M23.1911 61.3451C30.6528 61.3451 36.7018 55.2962 36.7018 47.8344C36.7018 40.3727 30.6528 34.3237 23.1911 34.3237C15.7294 34.3237 9.68042 40.3727 9.68042 47.8344C9.68042 55.2962 15.7294 61.3451 23.1911 61.3451Z" fill="#6E4320"/>
<path d="M26.7531 62.9964H19.6297C19.128 62.9964 18.7173 62.5857 18.7173 62.084V33.585C18.7173 33.0832 19.128 32.6729 19.6297 32.6729H26.7531C27.2548 32.6729 27.6652 33.0832 27.6652 33.585V62.084C27.6655 62.586 27.2548 62.9964 26.7531 62.9964Z" fill="#6E4320"/>
<path d="M14.9886 61.0742L9.95158 56.0369C9.59687 55.6822 9.59687 55.1017 9.95158 54.7467L30.1036 34.5946C30.4583 34.2399 31.0389 34.2399 31.3936 34.5946L36.4309 39.6319C36.7856 39.9867 36.7856 40.5672 36.4309 40.9222L16.2789 61.0742C15.9238 61.429 15.3433 61.429 14.9886 61.0742Z" fill="#6E4320"/>
<path d="M8.02954 51.3964V44.273C8.02954 43.7713 8.44024 43.3606 8.94197 43.3606H37.441C37.9427 43.3606 38.3534 43.7713 38.3534 44.273V51.3964C38.3534 51.8981 37.9427 52.3088 37.441 52.3088H8.94197C8.43993 52.3088 8.02954 51.8981 8.02954 51.3964Z" fill="#6E4320"/>
<path d="M9.95162 39.6319L14.9886 34.5946C15.3433 34.2399 15.9239 34.2399 16.2786 34.5946L36.4306 54.7467C36.7853 55.1017 36.7853 55.6822 36.4306 56.0369L31.3933 61.0742C31.0386 61.429 30.458 61.429 30.1033 61.0742L9.95131 40.9222C9.59691 40.5672 9.59691 39.9867 9.95162 39.6319Z" fill="#6E4320"/>
<path d="M23.1911 60.2815C30.0654 60.2815 35.6382 54.7088 35.6382 47.8344C35.6382 40.96 30.0654 35.3872 23.1911 35.3872C16.3167 35.3872 10.7439 40.96 10.7439 47.8344C10.7439 54.7088 16.3167 60.2815 23.1911 60.2815Z" fill="#5B3514"/>
<path d="M23.1914 54.1023C26.6531 54.1023 29.4593 51.2961 29.4593 47.8345C29.4593 44.3729 26.6531 41.5667 23.1914 41.5667C19.7298 41.5667 16.9236 44.3729 16.9236 47.8345C16.9236 51.2961 19.7298 54.1023 23.1914 54.1023Z" fill="#FEBD33"/>
<path d="M23.1912 52.6897C25.8727 52.6897 28.0464 50.516 28.0464 47.8345C28.0464 45.153 25.8727 42.9792 23.1912 42.9792C20.5097 42.9792 18.3359 45.153 18.3359 47.8345C18.3359 50.516 20.5097 52.6897 23.1912 52.6897Z" fill="#6E4320"/>
<path d="M23.1914 50.8185C24.8394 50.8185 26.1755 49.4825 26.1755 47.8344C26.1755 46.1864 24.8394 44.8503 23.1914 44.8503C21.5433 44.8503 20.2073 46.1864 20.2073 47.8344C20.2073 49.4825 21.5433 50.8185 23.1914 50.8185Z" fill="#5B3514"/>
<path d="M23.1912 49.6444C24.1907 49.6444 25.001 48.8341 25.001 47.8345C25.001 46.835 24.1907 46.0247 23.1912 46.0247C22.1916 46.0247 21.3813 46.835 21.3813 47.8345C21.3813 48.8341 22.1916 49.6444 23.1912 49.6444Z" fill="#FEBD33"/>
<path d="M54.3193 61.8333C59.5756 61.8333 63.8368 57.5722 63.8368 52.3158C63.8368 47.0595 59.5756 42.7983 54.3193 42.7983C49.0629 42.7983 44.8018 47.0595 44.8018 52.3158C44.8018 57.5722 49.0629 61.8333 54.3193 61.8333Z" fill="#6E4320"/>
<path d="M56.5587 62.9963H52.0801C51.5784 62.9963 51.168 62.5856 51.168 62.0839V42.5471C51.168 42.0454 51.5787 41.635 52.0801 41.635H56.5587C57.0605 41.635 57.4712 42.0457 57.4712 42.5471V62.0839C57.4712 62.5859 57.0605 62.9963 56.5587 62.9963Z" fill="#6E4320"/>
<path d="M48.3504 61.4513L45.1833 58.2846C44.8286 57.9295 44.8286 57.3493 45.1833 56.9943L58.998 43.1799C59.3527 42.8251 59.9333 42.8251 60.288 43.1799L63.4551 46.3466C63.8098 46.7016 63.8098 47.2822 63.4551 47.6369L49.6406 61.4513C49.2859 61.8063 48.7051 61.8063 48.3504 61.4513Z" fill="#6E4320"/>
<path d="M43.6387 54.5551V50.0765C43.6387 49.5745 44.0494 49.1641 44.5511 49.1641H64.0875C64.5893 49.1641 65 49.5748 65 50.0765V54.5551C65 55.0569 64.5893 55.4673 64.0875 55.4673H44.5511C44.0491 55.4673 43.6387 55.0569 43.6387 54.5551Z" fill="#6E4320"/>
<path d="M45.1833 46.3466L48.3504 43.1799C48.7051 42.8251 49.2856 42.8251 49.6407 43.1799L63.4551 56.9943C63.8098 57.3493 63.8098 57.9295 63.4551 58.2846L60.288 61.4513C59.9333 61.8063 59.3527 61.8063 58.998 61.4513L45.1833 47.6369C44.8289 47.2822 44.8289 46.7016 45.1833 46.3466Z" fill="#6E4320"/>
<path d="M54.3191 61.0841C59.1618 61.0841 63.0875 57.1583 63.0875 52.3157C63.0875 47.4731 59.1618 43.5474 54.3191 43.5474C49.4765 43.5474 45.5508 47.4731 45.5508 52.3157C45.5508 57.1583 49.4765 61.0841 54.3191 61.0841Z" fill="#5B3514"/>
<path d="M54.3192 56.7309C56.7576 56.7309 58.7343 54.7542 58.7343 52.3158C58.7343 49.8774 56.7576 47.9006 54.3192 47.9006C51.8808 47.9006 49.9041 49.8774 49.9041 52.3158C49.9041 54.7542 51.8808 56.7309 54.3192 56.7309Z" fill="#FEBD33"/>
<path d="M54.3191 55.7362C56.2082 55.7362 57.7396 54.2048 57.7396 52.3157C57.7396 50.4267 56.2082 48.8953 54.3191 48.8953C52.4301 48.8953 50.8987 50.4267 50.8987 52.3157C50.8987 54.2048 52.4301 55.7362 54.3191 55.7362Z" fill="#6E4320"/>
<path d="M54.3195 54.4179C55.4804 54.4179 56.4215 53.4768 56.4215 52.3159C56.4215 51.155 55.4804 50.2139 54.3195 50.2139C53.1586 50.2139 52.2175 51.155 52.2175 52.3159C52.2175 53.4768 53.1586 54.4179 54.3195 54.4179Z" fill="#5B3514"/>
<path d="M54.3194 53.5907C55.0235 53.5907 55.5944 53.0199 55.5944 52.3157C55.5944 51.6116 55.0235 51.0408 54.3194 51.0408C53.6153 51.0408 53.0444 51.6116 53.0444 52.3157C53.0444 53.0199 53.6153 53.5907 54.3194 53.5907Z" fill="#FEBD33"/>
<path d="M33.1154 23.7622H26.4785C25.4528 23.7622 24.6211 24.5936 24.6211 25.6196V29.2121C24.6211 30.2378 25.4528 31.0692 26.4785 31.0692H33.1154C34.1411 31.0692 34.9728 30.2378 34.9728 29.2121V25.6196C34.9728 24.5939 34.1414 23.7622 33.1154 23.7622Z" fill="#C1E8FB"/>
<path d="M37.8912 23.7622H36.8658C36.33 23.7622 35.8955 24.1964 35.8955 24.7322V30.0992C35.8955 30.635 36.33 31.0692 36.8658 31.0692H37.8912C38.427 31.0692 38.8615 30.635 38.8615 30.0992V24.7322C38.8611 24.1967 38.427 23.7622 37.8912 23.7622Z" fill="#C1E8FB"/>
<path d="M26.8503 23.7622L24.6213 26.0976V27.1351L27.6818 23.7622H26.8503Z" fill="white"/>
<path d="M28.3233 23.7622L24.6213 27.914V29.2121C24.6213 29.2499 24.6304 29.285 24.6326 29.3222L29.5823 23.7622H28.3233Z" fill="white"/>
<path d="M37.0393 23.7622L35.8958 24.9605V25.939L37.8708 23.7622H37.0393Z" fill="white"/>
<path d="M38.8612 24.7322C38.8612 24.3781 38.6616 24.0816 38.3783 23.9124L35.8953 26.6966V28.1157L38.8609 24.7844V24.7322H38.8612Z" fill="white"/>
<path d="M52.1197 37.9306H41.0454C40.9425 37.9306 40.8586 37.8467 40.8586 37.7435V36.9543C40.8586 36.8511 40.9422 36.7676 41.0454 36.7676H52.1197C52.2226 36.7676 52.3064 36.8511 52.3064 36.9543V37.7435C52.3064 37.8467 52.2226 37.9306 52.1197 37.9306Z" fill="#5B3514"/>
<path d="M52.1197 39.9237H41.0454C40.9425 39.9237 40.8586 39.8401 40.8586 39.7369V38.9477C40.8586 38.8445 40.9422 38.761 41.0454 38.761H52.1197C52.2226 38.761 52.3064 38.8445 52.3064 38.9477V39.7369C52.3064 39.8401 52.2226 39.9237 52.1197 39.9237Z" fill="#5B3514"/>
<path d="M52.1197 41.9027H41.0454C40.9425 41.9027 40.8586 41.8189 40.8586 41.716V40.9265C40.8586 40.8236 40.9422 40.7397 41.0454 40.7397H52.1197C52.2226 40.7397 52.3064 40.8236 52.3064 40.9265V41.716C52.3064 41.8189 52.2226 41.9027 52.1197 41.9027Z" fill="#5B3514"/>
<path d="M37.1241 37.4423C37.8191 37.4423 38.3825 36.8789 38.3825 36.1839C38.3825 35.4889 37.8191 34.9255 37.1241 34.9255C36.4291 34.9255 35.8657 35.4889 35.8657 36.1839C35.8657 36.8789 36.4291 37.4423 37.1241 37.4423Z" fill="#FAA334"/>
<path d="M37.1241 36.9553C37.5502 36.9553 37.8955 36.61 37.8955 36.184C37.8955 35.7579 37.5502 35.4126 37.1241 35.4126C36.6981 35.4126 36.3528 35.7579 36.3528 36.184C36.3528 36.61 36.6981 36.9553 37.1241 36.9553Z" fill="#5B3514"/>
<path d="M7.08456 59.6878C7.08456 59.6878 1.96969 58.5311 3.18741 56.704C4.40545 54.8773 7.08456 59.6878 7.08456 59.6878Z" fill="#D8AE58"/>
<path d="M10.9206 60.1142C10.9206 60.1142 7.57181 59.1402 8.30219 58.0441C9.03289 56.9481 10.9206 60.1142 10.9206 60.1142Z" fill="#D8AE58"/>
<path d="M45.3245 60.7839C45.1418 60.8446 43.6194 57.3741 42.4014 58.5918C41.1837 59.8098 45.3245 60.7839 45.3245 60.7839Z" fill="#D8AE58"/>
<path d="M41.4879 60.2969C41.4879 60.2969 38.4434 57.0087 37.469 58.1048C36.495 59.2008 41.4879 60.2969 41.4879 60.2969Z" fill="#D8AE58"/>
<path d="M37.1038 61.332C37.1038 61.332 35.3988 58.9573 34.7291 59.688C34.0594 60.4187 37.1038 61.332 37.1038 61.332Z" fill="#D8AE58"/>
</g>
<defs>
<clipPath id="clip0_1897_1053">
<rect width="62" height="62" fill="white" transform="translate(3 9)"/>
</clipPath>
</defs>
</svg>
