<svg width="74" height="74" viewBox="0 0 74 74" fill="none" xmlns="http://www.w3.org/2000/svg">
<rect width="74" height="74" rx="15" fill="#F58634" fill-opacity="0.4"/>
<path d="M56.5044 38.3224C56.4578 38.6148 56.3815 38.9016 56.2768 39.1785C55.9765 39.9451 55.5163 40.6389 54.9269 41.2137C54.9269 41.3304 54.9269 41.4119 54.9269 41.4119C54.8202 41.4985 53.5472 42.5825 52.9424 43.0871L52.5719 43.1106C51.8765 42.7404 50.409 41.9399 50.2863 41.8772V41.8372C49.8167 41.6195 49.3934 41.3134 49.0397 40.9355C48.5546 40.4382 48.1783 39.8453 47.935 39.1946C47.827 39.2244 47.7136 39.2299 47.6032 39.2107C47.4928 39.1914 47.388 39.1479 47.2964 39.0832C46.99 38.8493 46.7577 38.5318 46.6276 38.169C46.4734 37.806 46.4259 37.2064 46.5982 36.868C46.6507 36.7667 46.7294 36.6813 46.8261 36.6207C46.9228 36.5602 47.0339 36.5266 47.148 36.5235C47.3287 36.5035 47.5102 36.5549 47.6537 36.6667C47.6537 36.6667 47.0199 33.0472 51.2141 32.4793C56.9056 31.7085 56.4001 36.0944 56.4001 36.0944C56.5277 35.9649 56.7009 35.8903 56.8827 35.8866C56.9962 35.8747 57.1108 35.8935 57.2145 35.9409C57.3183 35.9884 57.4074 36.0628 57.4727 36.1564C57.6876 36.4695 57.7187 37.0702 57.613 37.4504C57.5314 37.8271 57.3425 38.1721 57.0692 38.4439C56.9925 38.514 56.9024 38.5678 56.8044 38.6022C56.7064 38.6365 56.6024 38.6508 56.4988 38.644" fill="white"/>
<path d="M8.27539 43.0496C8.29765 42.7798 8.3365 42.5117 8.39171 42.2467C8.53445 41.5812 8.82606 40.8412 9.10633 40.6086C9.58656 40.1631 10.0505 40.3364 10.6367 40.5038C10.8021 40.5511 11.4825 40.8161 11.5358 41.1151C11.557 41.0213 11.6051 40.9358 11.6741 40.8689C11.743 40.802 11.83 40.7566 11.9244 40.7382C12.0476 40.7002 12.1801 40.7051 12.3002 40.752C12.4204 40.799 12.5211 40.8852 12.586 40.9966C12.8083 41.3876 12.8199 42.4088 12.6035 42.7788C12.5756 42.8275 12.5374 42.8695 12.4914 42.9017C12.4977 43.0451 12.5021 43.1434 12.5021 43.1434C12.5154 43.4614 12.613 44.0253 12.4704 44.3584C12.2521 44.8678 11.9308 45.1765 11.5275 45.317C11.5222 45.4028 11.5182 45.4674 11.5182 45.4674C11.5119 45.5708 11.5092 45.7358 11.5072 45.9125C10.7202 46.0058 9.92766 46.1287 9.13701 46.2726C9.0599 46.0141 8.94465 45.4949 8.97173 45.1975C8.99667 44.9248 8.79751 44.6848 8.65331 44.4522C8.44167 44.1431 8.30915 43.7868 8.26739 43.4146C8.26194 43.2929 8.26462 43.171 8.27539 43.0496Z" fill="white"/>
<path d="M11.2515 45.4675C11.2289 45.8495 11.2496 46.2332 11.2271 46.6147C11.2275 46.6853 11.2557 46.7529 11.3057 46.8029C11.3556 46.8528 11.4232 46.8811 11.4938 46.8815C11.5641 46.8799 11.6311 46.8513 11.6808 46.8016C11.7305 46.7519 11.7591 46.685 11.7606 46.6147C11.7832 46.2326 11.7625 45.849 11.7851 45.4675C11.7846 45.3969 11.7564 45.3292 11.7064 45.2793C11.6565 45.2293 11.5889 45.2011 11.5183 45.2007C11.448 45.2022 11.381 45.2309 11.3313 45.2806C11.2816 45.3303 11.253 45.3972 11.2515 45.4675Z" fill="#211715"/>
<path d="M11.432 45.622C11.6834 45.5589 11.9184 45.4428 12.1213 45.2814C12.3242 45.1201 12.4902 44.9172 12.6082 44.6864C12.7444 44.439 12.8154 44.161 12.8143 43.8785C12.8159 43.6325 12.7813 43.3888 12.7692 43.1435C12.7677 43.0732 12.7391 43.0062 12.6894 42.9565C12.6397 42.9068 12.5727 42.8782 12.5024 42.8767C12.4318 42.8774 12.3644 42.9057 12.3145 42.9556C12.2646 43.0055 12.2363 43.073 12.2356 43.1435C12.2463 43.3611 12.2756 43.5774 12.2799 43.7954C12.2969 43.9994 12.2567 44.204 12.1637 44.3864C12.0825 44.5651 11.9617 44.723 11.8103 44.848C11.6589 44.9729 11.481 45.0617 11.2901 45.1075C10.9566 45.1862 11.0974 45.7009 11.432 45.622Z" fill="#211715"/>
<path d="M9.81538 41.823C10.0383 41.8287 10.2611 41.8309 10.4834 41.8483C10.7257 41.879 10.9702 41.8884 11.2141 41.8764C11.6323 41.8363 11.9103 41.5172 11.809 41.0885C11.729 40.7478 11.407 40.5465 11.1101 40.4067C10.7972 40.2605 10.4667 40.1556 10.1267 40.0946C9.93231 40.0499 9.73035 40.0495 9.53576 40.0934C9.34117 40.1373 9.15892 40.2243 9.00245 40.348C8.70137 40.5892 8.53783 40.9444 8.39896 41.2951C8.23669 41.7119 8.12356 42.1461 8.06186 42.5891C8.00237 43.0018 7.95514 43.4228 8.07147 43.8306C8.15327 44.0976 8.27156 44.3521 8.42297 44.5867C8.52782 44.7553 8.69604 44.9404 8.70711 45.147C8.71001 45.3656 8.72587 45.5839 8.7546 45.8007C8.7875 45.996 8.83291 46.189 8.89053 46.3785C8.99098 46.7059 9.50616 46.5662 9.40505 46.2367C9.31098 45.9518 9.25409 45.6558 9.23577 45.3563C9.24625 45.1962 9.23276 45.0355 9.19575 44.8794C9.12682 44.7033 9.03621 44.5366 8.92602 44.3829C8.72312 44.0683 8.53916 43.7191 8.53169 43.3365C8.53232 43.007 8.569 42.6785 8.64108 42.357C8.71289 41.9857 8.82716 41.6239 8.98164 41.2787C9.1025 41.0182 9.25511 40.7483 9.53738 40.6363C9.81965 40.5242 10.1398 40.6375 10.4138 40.7163C10.6405 40.7757 10.8581 40.8654 11.0608 40.9831C11.1824 41.057 11.461 41.3151 11.1692 41.3457C10.9403 41.3557 10.7109 41.3451 10.4838 41.3138C10.2615 41.2963 10.0387 41.2942 9.81578 41.2885C9.47228 41.2795 9.47241 41.8131 9.81578 41.8221L9.81538 41.823Z" fill="#211715"/>
<path d="M11.0022 41.9237C11.0169 41.9276 11.0312 41.9322 11.0454 41.937C11.0157 41.9237 11.0145 41.9237 11.0414 41.9358C11.0654 41.9492 11.0888 41.9634 11.1119 41.9788C11.0601 41.9444 11.1071 41.9776 11.1177 41.9885C11.1284 41.9995 11.1353 42.0069 11.1436 42.0168C11.1216 41.9873 11.1189 41.9843 11.1355 42.0079C11.1419 42.0193 11.1743 42.0587 11.1707 42.0719L11.1574 42.0412C11.1614 42.0523 11.1648 42.0635 11.1679 42.075C11.1875 42.1478 11.173 42.0446 11.1722 42.0883C11.17 42.105 11.17 42.122 11.1722 42.1387C11.1791 42.0954 11.1799 42.0882 11.1746 42.1169C11.1723 42.1276 11.1695 42.1382 11.1662 42.1486C11.161 42.1606 11.1566 42.1729 11.1528 42.1854C11.1654 42.1157 11.1806 42.1273 11.1662 42.1529C11.1599 42.1637 11.1547 42.1753 11.1481 42.186C11.1398 42.1969 11.1322 42.2084 11.1252 42.2202C11.1327 42.2028 11.1723 42.1687 11.1385 42.2008C11.1336 42.2054 11.1031 42.2294 11.1029 42.2345C11.1401 42.2066 11.1476 42.2009 11.1252 42.217C11.1195 42.2212 11.1136 42.225 11.1076 42.2288C11.0929 42.2381 11.0765 42.2451 11.0618 42.2544C11.028 42.2765 11.1181 42.236 11.0474 42.2595C11.0025 42.2741 10.9565 42.2848 10.9098 42.2916C10.9765 42.2816 10.8716 42.2929 10.8597 42.2935C10.8331 42.2947 10.8071 42.2949 10.7806 42.2952C10.7211 42.2952 10.6616 42.2952 10.6019 42.2952C10.3546 42.2928 10.1072 42.2819 9.86006 42.2735C9.78947 42.274 9.72193 42.3023 9.67202 42.3522C9.62211 42.4021 9.59382 42.4697 9.59326 42.5403C9.59466 42.6106 9.62322 42.6776 9.67295 42.7274C9.72269 42.7771 9.78974 42.8057 9.86006 42.8071C10.0882 42.8149 10.3161 42.8248 10.5444 42.8281C10.7668 42.848 10.9909 42.8278 11.2062 42.7685C11.3743 42.7169 11.517 42.6043 11.6063 42.4528C11.6956 42.3013 11.7249 42.1219 11.6885 41.9498C11.6538 41.8199 11.5854 41.7014 11.4901 41.6064C11.3949 41.5114 11.2763 41.4432 11.1463 41.4088C11.0781 41.39 11.0051 41.399 10.9436 41.4339C10.882 41.4689 10.8369 41.5268 10.8181 41.5951C10.7992 41.6633 10.8083 41.7362 10.8432 41.7978C10.8782 41.8593 10.9361 41.9045 11.0043 41.9233L11.0022 41.9237Z" fill="#211715"/>
<path d="M10.724 42.8177C10.7435 42.8271 10.8227 42.857 10.8272 42.8786C10.8238 42.8622 10.7932 42.8499 10.8272 42.8816C10.842 42.895 10.8547 42.9111 10.8694 42.9246C10.8921 42.9454 10.8444 42.8846 10.8702 42.9255C10.8807 42.9423 10.8905 42.9589 10.9002 42.9761C10.9257 43.0212 10.8923 42.9294 10.9025 42.984C10.9042 42.9934 10.9228 43.0451 10.9098 43.0046C10.8975 42.9663 10.9082 43.0154 10.9098 43.0268C10.9157 43.0801 10.9245 42.9852 10.9098 43.0352C10.9075 43.0451 10.9047 43.0549 10.9014 43.0645C10.8949 43.0831 10.8977 43.0779 10.9094 43.048C10.9081 43.0649 10.8871 43.0873 10.8793 43.1013C10.8559 43.1431 10.8985 43.0849 10.877 43.1045C10.8645 43.116 10.8537 43.1299 10.8411 43.1418C10.831 43.1513 10.8206 43.1602 10.8099 43.1684L10.831 43.1518C10.8255 43.1626 10.7834 43.1827 10.7731 43.1886C10.7565 43.1982 10.7396 43.207 10.7224 43.2153C10.7121 43.2203 10.7018 43.2251 10.6913 43.2298C10.7164 43.2195 10.7199 43.2179 10.702 43.225C10.662 43.2383 10.6219 43.2538 10.5819 43.2666C10.4938 43.29 10.4083 43.3224 10.3267 43.3632C10.2204 43.4223 10.1394 43.5182 10.099 43.6329C10.0666 43.7527 10.0666 43.8789 10.099 43.9986C10.118 44.0667 10.1632 44.1245 10.2247 44.1595C10.2861 44.1945 10.3589 44.2038 10.4272 44.1853C10.4945 44.165 10.5513 44.1196 10.5861 44.0586C10.6209 43.9975 10.6308 43.9254 10.6139 43.8572C10.6098 43.8349 10.6071 43.7905 10.6094 43.837C10.6067 43.8145 10.6064 43.7916 10.6086 43.769C10.6057 43.7851 10.5842 43.8376 10.6066 43.8024C10.5838 43.8311 10.5826 43.8352 10.603 43.8148L10.5798 43.8341C10.5907 43.8273 10.6021 43.821 10.6137 43.8154L10.5862 43.8264C10.6047 43.8188 10.6235 43.8122 10.6426 43.8066C10.6844 43.7933 10.7265 43.7813 10.7681 43.7666C10.9845 43.7061 11.1763 43.5789 11.3161 43.4031C11.3792 43.3185 11.4204 43.2196 11.4359 43.1151C11.4515 43.0107 11.4409 42.9041 11.4051 42.8048C11.3296 42.6087 11.1827 42.4484 10.994 42.3561C10.9329 42.3203 10.8601 42.3104 10.7916 42.3283C10.7232 42.3463 10.6647 42.3907 10.6289 42.4518C10.5932 42.5129 10.5832 42.5857 10.6012 42.6541C10.6191 42.7226 10.6636 42.7811 10.7247 42.8168L10.724 42.8177Z" fill="#211715"/>
<path d="M12.2051 43.2523C12.338 43.2539 12.4688 43.2192 12.5835 43.1521C12.6982 43.085 12.7925 42.9879 12.8562 42.8713C12.9426 42.679 12.9943 42.473 13.0089 42.2627C13.0674 41.8371 13.023 41.4036 12.8794 40.9986C12.8359 40.8774 12.765 40.7678 12.6721 40.6785C12.5793 40.5891 12.4671 40.5225 12.3442 40.4837C12.1285 40.4267 11.8999 40.445 11.696 40.5355C11.2135 40.7535 11.1491 41.4367 11.1883 41.8994C11.2367 42.4791 11.5023 43.2567 12.2051 43.2523C12.5483 43.25 12.549 42.7164 12.2051 42.7187C12.14 42.7168 12.0769 42.6963 12.0233 42.6594C11.9697 42.6226 11.9278 42.5711 11.9027 42.5111C11.8117 42.3415 11.7526 42.1567 11.7284 41.9658C11.7076 41.7943 11.7087 41.6209 11.7316 41.4497C11.7452 41.361 11.7653 41.2734 11.7917 41.1877C11.8048 41.1256 11.8398 41.0703 11.8904 41.032C11.9346 41.0109 11.9817 40.9964 12.0302 40.989C12.0759 40.9786 12.0266 40.99 12.0182 40.9905C12.0361 40.9893 12.0539 40.9872 12.0715 40.9865C12.1063 40.9846 12.1411 40.9856 12.1757 40.9893C12.1064 40.981 12.2424 41.0111 12.2187 41.0027C12.2375 41.0153 12.2574 41.0264 12.2782 41.0357C12.2999 41.0553 12.3195 41.0771 12.3366 41.1008C12.3481 41.1175 12.3954 41.2164 12.3727 41.161C12.4791 41.4482 12.5191 41.7557 12.4897 42.0605C12.4904 42.2218 12.4662 42.3822 12.4181 42.5362C12.4118 42.5566 12.369 42.6516 12.3993 42.5937C12.3933 42.6052 12.3886 42.6173 12.382 42.6285C12.3796 42.6325 12.3442 42.6865 12.3642 42.6595C12.3428 42.6795 12.3177 42.6952 12.2902 42.7054C12.2627 42.7157 12.2334 42.7204 12.2041 42.7192C12.1339 42.7208 12.0669 42.7494 12.0172 42.7991C11.9676 42.8488 11.9389 42.9158 11.9373 42.986C11.9381 43.0567 11.9666 43.1242 12.0167 43.174C12.0667 43.2238 12.1344 43.2519 12.2051 43.2523Z" fill="#211715"/>
<path d="M21.1322 49.117C21.2472 49.5795 21.371 50.0364 21.5363 50.6721C22.2084 49.5 22.4653 49.0501 23.0608 47.8551C23.5628 46.8477 24.0929 45.7928 24.5748 44.7336L24.4393 44.7799C23.6851 45.0189 22.8846 45.0738 22.1049 44.94C21.3973 44.8012 20.7186 44.5425 20.0981 44.175C20.3089 45.3244 20.573 46.4871 20.7889 47.5714C20.9157 48.2066 21.0198 48.665 21.1322 49.117Z" fill="#13524A"/>
<path d="M48.5869 30.7323C48.5631 30.7513 48.5395 30.7704 48.5162 30.7897C47.9002 31.2805 47.4074 31.9084 47.0769 32.6233C46.7465 33.3383 46.5876 34.1205 46.613 34.9077C46.6336 35.4754 46.7429 36.0365 46.9369 36.5705C47.005 36.5461 47.0759 36.5304 47.1479 36.5238C47.3287 36.5038 47.5101 36.5551 47.6536 36.6669L47.8404 36.8199C48.0022 36.1025 48.5741 34.6455 49.3005 34.2623C49.8619 33.9822 50.8359 34.2083 51.4875 34.2131C52.5663 34.2209 54.4975 33.6603 55.0144 34.1017C55.4067 34.3249 56.1601 36.5896 56.3994 36.0947C56.5271 35.9651 56.7003 35.8905 56.8821 35.8868C56.9478 35.8843 57.0136 35.8893 57.0782 35.9016C57.2016 35.3489 57.2351 34.7798 57.1773 34.2164C56.9652 32.2763 55.9017 31.1096 54.8771 30.4574C53.9247 29.859 52.8126 29.5648 51.6888 29.6139C50.5651 29.663 49.4829 30.0531 48.5863 30.7323H48.5869Z" fill="#85807F"/>
<path d="M48.328 57.1237C48.0185 55.4583 47.6406 53.4293 47.2875 51.6759C46.0761 52.561 45.2392 53.2406 43.9822 54.2702L43.6117 54.612C43.5918 54.1393 43.5753 53.6986 43.5672 53.3447C43.5258 51.6738 43.3864 49.6533 43.334 47.939L43.4686 47.7911C44.0589 47.1774 45.3101 45.3139 46.1044 44.702C47.0746 43.9549 48.4635 43.2969 49.6861 42.8285C49.8996 42.5208 50.153 42.074 50.2864 41.8774C50.4091 41.9401 51.8767 42.7406 52.5721 43.1108L52.9425 43.0873C53.5473 42.5827 54.8198 41.4987 54.9271 41.4121C55.0973 41.5762 55.434 41.9577 55.7043 42.2157C56.9291 42.7158 59.0372 43.5497 59.6795 43.7631L64.7933 47.7917C64.869 47.7955 64.937 47.7989 65.0414 47.8004C65.0928 47.8008 65.1429 47.8158 65.186 47.8437C65.229 47.8717 65.2632 47.9114 65.2844 47.9581C65.4171 48.2621 65.5177 48.5792 65.5845 48.9041C65.7224 49.6181 65.7657 50.347 65.7134 51.0723C65.6388 52.041 65.5533 52.8413 64.9699 53.6092C64.4035 54.3533 63.5026 54.8062 62.6574 54.3459C62.3263 54.1802 62.0341 53.9463 61.8 53.6595C61.2053 52.9023 60.6431 52.1207 60.1133 51.3145C60.471 53.0415 60.9385 55.144 61.3797 57.1243L48.328 57.1237Z" fill="#F58634"/>
<path d="M52.6919 53.0495C52.43 52.7293 52.185 52.4118 51.9885 52.1266C51.9724 52.1031 51.9644 52.075 51.9658 52.0466C52.0325 50.3324 52.3206 45.4954 52.31 45.4033C52.279 45.2234 52.2228 45.0487 52.1432 44.8844C52.0859 44.7497 52.0405 44.6243 51.9978 44.5042L51.9243 44.3327C52.1768 43.8465 52.4846 43.2885 52.572 43.1106L52.9424 43.0872C53.0661 43.2455 53.4905 43.7391 53.84 44.1677C53.824 44.3902 53.8067 44.5555 53.78 44.7813C53.776 44.8267 53.7693 44.872 53.7627 44.9187C53.7465 45.0192 53.7415 45.1212 53.748 45.2229C53.7533 45.2789 55.086 50.1893 55.4448 51.7807C55.4513 51.8095 55.4475 51.8397 55.4342 51.8661C55.0887 52.5944 54.6111 53.4922 54.0895 54.3913C54.0788 54.4094 54.0641 54.4247 54.0464 54.4361C54.0288 54.4474 54.0087 54.4545 53.9878 54.4567C53.9669 54.4589 53.9458 54.4562 53.9262 54.4488C53.9066 54.4413 53.8889 54.4294 53.8747 54.414C53.514 54.0163 53.0841 53.5293 52.6919 53.0495Z" fill="#13524A"/>
<path d="M41.6674 35.1438C41.8043 35.024 41.9825 34.9625 42.1642 34.9723C42.2782 34.9689 42.3911 34.9961 42.4911 35.0511C42.591 35.1062 42.6744 35.187 42.7326 35.2852C42.9239 35.6132 42.9104 36.2147 42.777 36.5857C42.6676 36.9554 42.4537 37.2855 42.1611 37.5364C42.0794 37.6007 41.9856 37.6478 41.8853 37.675C41.785 37.7021 41.6803 37.7087 41.5773 37.6944L41.5216 37.6848C41.4651 37.8644 41.3966 38.04 41.3167 38.2105C41.1805 38.5601 40.494 39.6973 39.5998 40.303V40.6582C39.4842 40.7332 38.107 41.6806 37.4533 42.1203L37.0824 42.1054C36.4287 41.6652 35.0515 40.7181 34.936 40.6434V40.2976C34.5714 40.0586 34.2455 39.7653 33.9694 39.4279C33.5224 38.8961 33.1911 38.277 32.9965 37.6101C32.8865 37.6319 32.7731 37.629 32.6643 37.6016C32.5556 37.5742 32.4543 37.523 32.3678 37.4517C32.0795 37.1959 31.8713 36.8621 31.7684 36.4906C31.6414 36.1171 31.6384 35.5157 31.8351 35.1909C31.895 35.0938 31.9798 35.0145 32.0806 34.9613C32.1815 34.908 32.2948 34.8827 32.4088 34.8881C32.5905 34.8816 32.7676 34.9462 32.9023 35.0683C32.9023 35.0683 32.3312 31.4666 37.1557 31.4666C42.2698 31.4658 41.6674 35.1438 41.6674 35.1438Z" fill="white"/>
<path d="M37.2795 42.113L37.0824 42.1051C36.4287 41.6649 35.0515 40.7178 34.936 40.6431C34.7604 40.8509 34.3959 41.3681 34.1401 41.6409C34.5937 43.5606 35.3503 45.6127 35.955 47.4697C36.4457 48.9771 36.5896 49.4345 37.2697 51.1009C37.8727 49.549 38.1347 48.9532 38.6259 47.4506C39.2262 45.6164 39.9746 43.5909 40.4304 41.692C40.174 41.4313 39.7834 40.8754 39.5999 40.6579C39.4842 40.7328 38.107 41.6802 37.4533 42.1199L37.2795 42.113Z" fill="white"/>
<path d="M37.2636 42.1124L37.0824 42.1052C36.9778 42.2721 36.6186 42.7896 36.3186 43.2451L36.3683 43.4319C36.3978 43.5562 36.4304 43.6853 36.4738 43.8259C36.5363 43.9976 36.574 44.1772 36.5856 44.3595C36.5871 44.4529 36.3338 46.2138 36.0947 47.8992C36.4805 49.0827 36.6587 49.6045 37.2698 51.1017C37.8068 49.7196 38.0733 49.0961 38.472 47.9148C38.2841 46.3029 38.035 44.383 38.035 44.3264C38.0389 44.2247 38.0544 44.1237 38.0812 44.0255C38.0926 43.9806 38.103 43.9356 38.1122 43.8906C38.1611 43.6707 38.1953 43.5066 38.2359 43.2885C37.9322 42.8264 37.5601 42.2909 37.4534 42.1206L37.2636 42.1124Z" fill="#F58634"/>
<path d="M30.5515 57.1237C30.5995 55.9805 30.6863 54.3277 30.7089 53.3445C30.7539 51.5252 30.9004 49.6494 30.9366 47.8733C30.364 47.303 30.068 46.8643 29.5408 46.2581C29.0961 45.7467 28.649 45.1732 28.1628 44.7746C27.9284 44.5838 27.6819 44.4084 27.4248 44.2497L28.4959 43.5754C29.5185 42.8638 31.7868 42.1044 32.906 41.9443L33.5251 41.8465C33.7011 41.688 33.889 41.5432 34.087 41.4131C34.5341 43.3984 35.3268 45.5395 35.9553 47.4694C36.446 48.9768 36.5899 49.4342 37.27 51.1006C37.8731 49.5487 38.1351 48.9529 38.6262 47.4503C39.2561 45.5233 40.0511 43.3851 40.4979 41.4041C40.6938 41.5254 40.8795 41.6624 41.0531 41.8137C41.4133 41.8652 41.6401 41.8972 41.6401 41.8972C43.1531 42.1325 44.6167 42.6167 45.9715 43.3302C45.9715 43.3302 46.5833 43.6478 47.2147 43.9752C46.8285 44.1914 46.4577 44.4341 46.1049 44.7014C45.3107 45.3133 44.0594 47.1767 43.4691 47.7905C43.4691 47.7905 43.4127 47.8585 43.3345 47.9523C43.3879 49.6639 43.5265 51.6778 43.5677 53.3441C43.5904 54.3273 43.6771 55.9801 43.7251 57.1233L30.5515 57.1237Z" fill="#13524A"/>
<path d="M25.7508 42.3672C26.0669 42.4119 26.3867 42.4238 26.7052 42.403C27.4962 42.3747 28.1179 41.9642 28.352 41.3409C28.6455 40.5607 28.3098 39.6059 28.4386 38.7824L28.4029 36.3652C28.5836 35.866 28.6846 35.3415 28.7021 34.8109C28.749 33.1502 28.0944 31.9702 27.3269 31.1839L26.6746 30.6178C25.8617 30.0109 24.8884 29.6562 23.8756 29.5978C22.7839 29.5008 21.6898 29.7551 20.7529 30.3236C20.0891 30.7176 19.5266 31.2612 19.11 31.911C18.6935 32.5608 18.4344 33.2989 18.3536 34.0665C18.2997 34.5945 18.3254 35.1275 18.43 35.6478L18.2992 38.0383C18.1297 38.6813 17.7589 39.3016 17.7682 39.9739C17.7995 40.2727 17.8961 40.561 18.0512 40.8183C18.5714 41.512 18.9405 41.6483 19.4 41.7225L19.7631 42.1819L25.351 43.0305L25.7508 42.3672Z" fill="#85807F"/>
<path d="M22.7416 33.71C22.6534 34.1911 22.288 35.1976 22.6094 35.1224C23.9775 34.8178 25.1084 34.0775 26.0294 32.9868C26.2429 34.2925 27.1481 36.2245 27.6952 36.5303C27.8364 36.4215 28.0146 36.3722 28.1917 36.393C28.3034 36.3967 28.4121 36.4303 28.5065 36.4903C28.6008 36.5502 28.6774 36.6344 28.7282 36.734C28.8949 37.0668 28.8447 37.6544 28.6911 38.0089C28.5614 38.3636 28.3318 38.6733 28.03 38.9005C27.9462 38.9583 27.8515 38.9986 27.7517 39.0189C27.652 39.0393 27.5491 39.0392 27.4493 39.0188L27.396 39.0055C27.3295 39.1776 27.2516 39.3451 27.1629 39.5069C26.9794 39.9022 25.9726 41.3303 24.8343 41.6824C24.7932 42.0229 24.7843 42.3664 24.8076 42.7086C24.8116 42.8155 24.83 42.9214 24.8623 43.0234C24.9582 43.1813 25.09 43.3144 25.247 43.4117L25.8732 43.8083C25.8732 43.8083 25.4837 44.2579 25.2396 44.3974C24.9284 44.5754 24.4392 44.7789 24.4392 44.7789C23.685 45.018 22.8845 45.0728 22.1047 44.939C21.4039 44.8017 20.7314 44.5467 20.1156 44.1849C19.8744 44.0006 19.6557 43.7885 19.4641 43.553C19.2987 43.2812 19.1674 42.9899 19.0733 42.6859L19.7847 42.4784C19.9167 42.445 20.7277 42.2404 20.833 42.155C20.9045 42.0914 20.9657 42.0172 21.0145 41.9349C21.0985 41.8082 21.2039 41.6387 21.3106 41.4573C20.7746 41.2148 20.3191 40.8061 19.9011 40.2434C19.4967 39.6957 19.2109 39.0697 19.0619 38.4053C18.953 38.4198 18.8422 38.4099 18.7376 38.3764C18.6329 38.3429 18.5371 38.2866 18.4568 38.2115C18.1906 37.9434 18.0077 37.6041 17.93 37.2343C17.8289 36.8608 17.8633 36.2729 18.0758 35.9671C18.1404 35.8757 18.2282 35.8034 18.3302 35.7576C18.4322 35.7117 18.5446 35.6941 18.6557 35.7064C18.7481 35.7087 18.8391 35.7299 18.9231 35.7686C19.007 35.8073 19.0822 35.8628 19.144 35.9316C20.3369 35.2048 21.4635 34.4442 22.7001 33.6489" fill="white"/>
<path d="M27.9994 44.6453C27.3583 44.1777 26.6662 43.7842 25.9364 43.4725C25.7587 43.2636 25.5612 43.0724 25.3468 42.9014C24.7141 44.559 23.8528 46.2662 23.0606 47.8551C22.4651 49.0501 22.2082 49.5001 21.5363 50.6724C21.2091 49.4147 21.045 48.8569 20.7893 47.5704C20.4424 45.8293 19.9717 43.8861 19.7968 42.1206C19.4938 42.2531 19.206 42.418 18.9386 42.6126C18.3766 42.7908 17.7997 42.9187 17.215 42.9946C16.5298 43.1882 15.9009 43.5432 15.3813 44.0301L13.6517 45.7509L12.7479 45.7895C11.38 45.9039 10.0195 46.094 8.67259 46.3591C8.56945 46.3786 8.47603 46.4327 8.40763 46.5123C8.33923 46.592 8.29992 46.6925 8.29614 46.7974C8.22664 48.8025 8.67526 51.6431 9.36159 52.7755C9.69509 53.3252 10.2183 53.8213 10.7596 53.8013C11.5673 53.7716 12.0073 53.4516 12.6591 52.9735C13.3434 52.4715 14.0864 51.7357 14.9456 50.8243L15.0504 50.7132C14.8681 51.4826 14.709 52.095 14.6011 52.4164C14.288 53.3473 12.9635 55.2044 11.9711 56.5321C11.9285 56.586 11.9019 56.6507 11.8944 56.719C11.8869 56.7872 11.8988 56.8562 11.9287 56.918C11.9586 56.9798 12.0053 57.0319 12.0634 57.0684C12.1216 57.1049 12.1889 57.1243 12.2575 57.1243H25.5529C25.8693 55.186 26.3266 52.5007 26.722 50.3598C28.0064 51.2225 29.2566 52.2442 30.5165 53.2308L30.7082 53.3631C30.7082 53.3571 30.7082 53.3511 30.7082 53.3451C30.7532 51.5258 30.8996 49.65 30.9361 47.8741C30.3634 47.3037 30.0672 46.865 29.54 46.2587C29.0954 45.7473 28.6483 45.1738 28.162 44.7752C28.1088 44.7308 28.0546 44.6875 27.9994 44.6453Z" fill="#F58634"/>
<path d="M10.1386 39.4917C10.0212 37.7142 9.74892 33.6477 9.73145 31.7876C9.73149 31.7033 9.76311 31.6222 9.82005 31.5601C9.877 31.498 9.95514 31.4595 10.0391 31.4522C10.8432 31.3668 11.655 31.388 12.4536 31.5155C13.2787 31.6285 14.0883 31.8352 14.8666 32.1315C14.9508 32.1647 15.0187 32.2294 15.056 32.3118C15.0934 32.3943 15.0972 32.488 15.0667 32.5732C14.4923 34.1522 12.9567 37.9837 12.3102 39.8068L10.1386 39.4917Z" fill="#FFDA71"/>
<path d="M19.8557 42.7357C20.1359 42.665 20.416 42.5936 20.6903 42.5022C20.8574 42.4615 21.0078 42.3701 21.1209 42.2405C21.2059 42.1306 21.2844 42.0157 21.3561 41.8966C21.393 41.8378 21.4294 41.7787 21.4653 41.7191C21.5259 41.6432 21.5647 41.5523 21.5775 41.456C21.5775 41.3852 21.5494 41.3174 21.4993 41.2674C21.4493 41.2173 21.3815 41.1892 21.3107 41.1892C21.2399 41.1892 21.1721 41.2173 21.122 41.2674C21.072 41.3174 21.0439 41.3852 21.0439 41.456V41.4573L21.0803 41.3226C21.0136 41.4363 20.9451 41.5494 20.8745 41.6604C20.8449 41.7073 20.8148 41.7539 20.7842 41.8002C20.765 41.8291 20.7462 41.8582 20.7255 41.8859C20.7514 41.8511 20.7061 41.908 20.7015 41.9126C20.6896 41.926 20.6772 41.9376 20.6642 41.9492C20.696 41.9266 20.7044 41.9205 20.6896 41.9308C20.6837 41.9339 20.678 41.9376 20.6727 41.9417C20.6624 41.9465 20.6517 41.9514 20.6417 41.9566C20.6058 41.9753 20.7097 41.9306 20.6667 41.946C20.6058 41.9676 20.5454 41.9899 20.4836 42.0093C20.2302 42.0894 19.9723 42.1561 19.7145 42.2216C19.6462 42.2404 19.5883 42.2856 19.5533 42.3471C19.5184 42.4087 19.5093 42.4816 19.5282 42.5498C19.547 42.618 19.5921 42.676 19.6537 42.7109C19.7152 42.7459 19.7882 42.7549 19.8564 42.7361L19.8557 42.7357Z" fill="#211715"/>
<path d="M18.0413 37.9675C17.9145 38.433 17.6978 38.8691 17.5819 39.3379C17.4648 39.7753 17.4959 40.2392 17.6705 40.657C17.8147 40.9983 18.0419 41.298 18.3315 41.5291C18.6211 41.7601 18.9639 41.915 19.3286 41.9798C19.3968 41.9965 19.4688 41.9864 19.5299 41.9517C19.5909 41.917 19.6363 41.8602 19.6568 41.793C19.675 41.7248 19.6656 41.6521 19.6306 41.5907C19.5957 41.5293 19.538 41.4841 19.47 41.4649C19.2164 41.4342 18.9744 41.3412 18.7655 41.1941C18.4941 40.9994 18.2813 40.7341 18.15 40.4269C18.0816 40.2648 18.0424 40.0919 18.0341 39.9161C18.0412 39.711 18.0774 39.508 18.1416 39.313C18.2632 38.9059 18.4437 38.5193 18.5552 38.109C18.6456 37.7772 18.131 37.6357 18.0407 37.9671L18.0413 37.9675Z" fill="#211715"/>
<path d="M25.6799 42.6246C26.1412 42.7092 26.6139 42.711 27.0759 42.6301C27.5422 42.5571 27.9685 42.324 28.2817 41.9709C28.6248 41.5631 28.7423 41.0573 28.7423 40.5326C28.7423 39.9758 28.6153 39.4089 28.6952 38.8534C28.7117 38.7852 28.7016 38.7133 28.6669 38.6523C28.6322 38.5914 28.5755 38.5459 28.5085 38.5253C28.4402 38.507 28.3675 38.5163 28.306 38.5513C28.2446 38.5862 28.1994 38.644 28.1803 38.712C28.1061 39.2275 28.1724 39.7337 28.1999 40.2498C28.2237 40.6951 28.2143 41.172 27.9405 41.5467C27.7029 41.8476 27.3606 42.0477 26.9819 42.107C26.8004 42.1355 26.6167 42.1478 26.4331 42.1437C26.2283 42.1541 26.0231 42.1428 25.8208 42.1101C25.4855 42.042 25.3421 42.5563 25.679 42.6247L25.6799 42.6246Z" fill="#211715"/>
<path d="M40.2473 29.1889C39.3395 28.6144 38.2843 28.3163 37.2101 28.3308C36.136 28.3454 35.0892 28.672 34.1974 29.2708C33.5468 29.7148 33.0089 30.3046 32.6266 30.9932C32.2443 31.6817 32.028 32.4501 31.9951 33.237C31.9736 33.8049 32.0411 34.3726 32.1952 34.9196C32.2647 34.8999 32.3364 34.8893 32.4087 34.8881C32.5904 34.8816 32.7674 34.9463 32.9022 35.0683L33.6076 34.5039C34.1382 33.9403 35.0733 33.0919 35.7272 32.7663C35.8039 32.7281 35.9015 32.7815 35.9314 32.9055C35.9559 33.0024 35.9618 33.1029 35.9488 33.2019C35.9441 33.2306 35.9474 33.2599 35.9583 33.2868C35.9691 33.3136 35.9872 33.337 36.0105 33.3543C36.0337 33.3716 36.0613 33.3821 36.0901 33.3848C36.119 33.3875 36.148 33.3822 36.1741 33.3695C36.641 33.1231 37.4735 32.6262 38.0629 32.3913L38.9326 32.5025C39.2244 32.6223 39.494 32.79 39.7305 32.9988C40.2553 33.4445 40.7567 34.0541 40.9764 34.6038L41.6669 35.1441C41.8038 35.0243 41.982 34.9628 42.1636 34.9725C42.2314 34.9748 42.2985 34.9853 42.3637 35.0036L42.3771 34.9307C42.529 34.4107 42.598 33.87 42.5817 33.3285C42.5221 31.6185 41.766 30.453 40.9242 29.7024L40.2473 29.1889Z" fill="#85807F"/>
<path d="M25.8101 57.1947C26.1788 54.9364 26.5637 52.6804 26.9791 50.4302L26.5872 50.5896C27.8849 51.4638 29.0971 52.4549 30.3278 53.419C30.3789 53.467 30.4463 53.4937 30.5164 53.4937C30.5865 53.4937 30.6539 53.467 30.705 53.419C30.7547 53.3687 30.7825 53.3009 30.7825 53.2303C30.7825 53.1597 30.7547 53.0919 30.705 53.0416C29.4387 52.0498 28.1918 51.0284 26.8565 50.1289C26.8211 50.1085 26.7815 50.0966 26.7408 50.0939C26.7 50.0911 26.6592 50.0978 26.6214 50.1132C26.5837 50.1286 26.5499 50.1525 26.5227 50.1829C26.4955 50.2134 26.4756 50.2496 26.4646 50.2889C26.0492 52.5391 25.6642 54.7951 25.2955 57.0533C25.2788 57.1215 25.2888 57.1935 25.3236 57.2545C25.3583 57.3155 25.4151 57.361 25.4822 57.3814C25.5505 57.3997 25.6232 57.3903 25.6847 57.3554C25.7461 57.3204 25.7913 57.2627 25.8105 57.1947H25.8101Z" fill="#211715"/>
<path d="M64.4809 44.1085C64.4112 44.0109 64.3281 43.9236 64.2341 43.8492C63.7272 43.5374 63.287 43.2637 62.8015 43.0265C62.6853 42.9725 62.5663 42.9248 62.445 42.8836C62.2461 42.8154 62.0285 42.8273 61.8383 42.9168C61.6789 42.9927 61.4681 43.279 61.5257 43.4771L61.0936 43.5315C60.9705 43.5119 60.8594 43.4456 60.7377 43.4187C60.608 43.3987 60.4752 43.4126 60.3524 43.4591C60.2296 43.5055 60.1208 43.5829 60.0367 43.6837C59.871 43.8875 59.7492 44.1233 59.679 44.3763C59.617 44.574 59.6136 44.7853 59.6692 44.9848C59.6873 45.0483 59.7207 45.1063 59.7665 45.1539C59.8124 45.2014 59.8692 45.2369 59.932 45.2572C60.021 45.2875 60.1155 45.2982 60.209 45.2883C60.3025 45.2785 60.3928 45.2484 60.4735 45.2002L60.4395 45.507C60.3766 45.572 60.3243 45.6465 60.2847 45.7278C60.2424 45.8331 60.231 45.9482 60.2518 46.0597C60.2726 46.1713 60.3248 46.2745 60.4022 46.3574C60.583 46.5435 60.773 46.7203 60.9717 46.8872L61.2021 46.6385C61.4225 46.8209 61.5982 47.0507 61.62 47.2818C61.7668 48.5474 62.0781 49.0644 62.5776 49.2027C62.9729 49.3065 63.386 49.3237 63.7885 49.253C63.8973 49.2263 64.3888 49.0852 64.4605 48.9995C64.6011 48.8302 64.757 48.7052 64.8132 48.4806C64.8524 48.293 64.8519 48.0993 64.8117 47.9119C64.7717 47.6864 64.7031 47.1126 64.676 46.7307C64.6385 46.2236 64.6534 45.714 64.7203 45.21C64.7863 44.8968 64.743 44.5705 64.5979 44.2852C64.5636 44.2233 64.5245 44.1642 64.4809 44.1085Z" fill="white"/>
<path d="M12.7474 45.5227C11.9897 45.5831 11.2347 45.6719 10.4826 45.782C10.0923 45.8391 9.70302 45.9019 9.31465 45.9705C9.1415 46.0009 8.96848 46.0323 8.7956 46.0648C8.63252 46.0816 8.47535 46.1351 8.33591 46.2213C8.05978 46.4203 8.0291 46.7131 8.02389 47.0281C8.01976 47.3045 8.02469 47.581 8.03723 47.8571C8.06391 48.4662 8.12394 49.0732 8.20958 49.6766C8.35485 50.7013 8.55335 51.7842 9.02491 52.7154C9.2797 53.2188 9.68723 53.7221 10.2147 53.9521C10.7559 54.1881 11.4153 54.0301 11.9237 53.7753C12.4868 53.4673 13.009 53.0898 13.478 52.6516C14.0619 52.1388 14.602 51.5772 15.1351 51.0124C15.3707 50.7628 14.9941 50.3848 14.7577 50.6352C13.9565 51.4838 13.1397 52.3214 12.1796 52.9922C11.7557 53.2883 11.3148 53.5124 10.7883 53.5328C10.2547 53.5538 9.83344 53.0435 9.58505 52.6273C9.39544 52.2887 9.24843 51.928 9.14737 51.5533C9.00486 51.0651 8.89141 50.5689 8.80761 50.0673C8.61924 49.0109 8.53675 47.9384 8.56135 46.8657C8.55461 46.818 8.56341 46.7694 8.58646 46.7271C8.6095 46.6848 8.64555 46.651 8.68928 46.6308C8.86524 46.5768 9.04643 46.5416 9.22981 46.5258C9.61827 46.4554 10.0076 46.3903 10.3978 46.3307C11.1777 46.2119 11.961 46.1206 12.7478 46.0565C13.0878 46.0299 13.0908 45.4963 12.7478 45.5229L12.7474 45.5227Z" fill="#211715"/>
<path d="M24.5605 41.738C24.5176 42.0943 24.514 42.4542 24.5497 42.8112C24.5588 42.9905 24.6215 43.163 24.7297 43.3064C24.8417 43.4348 24.9703 43.5479 25.112 43.6427C25.1731 43.6782 25.2458 43.688 25.3142 43.6701C25.3826 43.6522 25.4411 43.6079 25.4769 43.547C25.5108 43.4855 25.5197 43.4133 25.5019 43.3454C25.4841 43.2775 25.441 43.219 25.3813 43.1819C25.3468 43.1568 25.3378 43.1506 25.3138 43.1306C25.2842 43.106 25.2548 43.0813 25.2266 43.0552C25.207 43.0372 25.1879 43.0188 25.1693 42.9997C25.1604 42.9905 25.0988 42.913 25.136 42.9662C25.1257 42.9515 25.0693 42.8839 25.1192 42.9529C25.1066 42.9265 25.0984 42.8983 25.0949 42.8694C25.0906 42.8504 25.0869 42.8315 25.0837 42.8123C25.0859 42.8351 25.0852 42.8298 25.0817 42.7964C25.0781 42.7618 25.0753 42.7273 25.073 42.6927C25.0523 42.3744 25.0593 42.0549 25.0941 41.7377C25.0939 41.667 25.0657 41.5993 25.0157 41.5493C24.9657 41.4993 24.898 41.4712 24.8273 41.4709C24.7571 41.4729 24.6904 41.5016 24.6408 41.5512C24.5911 41.6008 24.5624 41.6676 24.5605 41.7377V41.738Z" fill="#211715"/>
<path d="M10.4054 39.4917C10.3224 38.2343 10.24 36.9768 10.1671 35.7187C10.1256 35.0026 10.0871 34.2865 10.0547 33.57C10.0288 32.9935 9.98797 32.4109 9.99878 31.8336C10.0013 31.6943 10.0992 31.7121 10.2226 31.7014C10.4549 31.6811 10.6879 31.6691 10.9211 31.6671C11.3699 31.666 11.8182 31.6958 12.2629 31.7564C12.6848 31.812 13.1033 31.89 13.5169 31.9899C13.9297 32.0763 14.3338 32.2001 14.7241 32.3599C14.8442 32.4132 14.8225 32.4675 14.7811 32.5804C14.7389 32.696 14.6961 32.8111 14.6529 32.9259C14.5542 33.1896 14.4542 33.4529 14.353 33.7157C14.1113 34.3462 13.8678 34.9761 13.6224 35.6052C13.0896 36.978 12.5461 38.3481 12.0532 39.7358C11.938 40.06 12.4534 40.1995 12.5678 39.8776C13.0315 38.5721 13.5416 37.2825 14.0422 35.9911C14.3034 35.318 14.564 34.6446 14.8241 33.9709C14.9316 33.691 15.0383 33.4109 15.1442 33.1305C15.2425 32.8688 15.411 32.5665 15.3298 32.2826C15.2064 31.8557 14.6396 31.7521 14.2703 31.6404C13.8332 31.5096 13.3888 31.4043 12.9394 31.3251C12.0249 31.1493 11.0907 31.0983 10.1625 31.1735C9.96657 31.1704 9.77675 31.2415 9.63113 31.3726C9.56802 31.4464 9.52083 31.5324 9.49252 31.6253C9.46422 31.7181 9.45541 31.8159 9.46665 31.9123C9.47079 32.1998 9.47999 32.4873 9.48947 32.7745C9.51454 33.4851 9.54989 34.1953 9.58845 34.9052C9.67129 36.4349 9.77134 37.9635 9.87232 39.492C9.89486 39.8329 10.4287 39.8355 10.4059 39.492L10.4054 39.4917Z" fill="#211715"/>
<path d="M13.8399 45.9396L15.1954 44.5909C15.5647 44.1938 15.9912 43.8541 16.4609 43.583C16.6903 43.4585 16.9316 43.3573 17.1812 43.281C17.4668 43.1948 17.7832 43.1792 18.0763 43.1169C18.6601 42.9919 19.2319 42.8164 19.7853 42.5922C19.8524 42.5716 19.9091 42.5262 19.9438 42.4652C19.9785 42.4042 19.9886 42.3323 19.972 42.2641C19.9529 42.196 19.9078 42.1382 19.8463 42.1033C19.7849 42.0683 19.7121 42.059 19.6439 42.0773C19.0714 42.3092 18.4791 42.4891 17.8743 42.6146C17.5818 42.6748 17.2721 42.6928 16.9873 42.782C16.7121 42.8701 16.4459 42.9839 16.1921 43.1219C15.7007 43.4027 15.2536 43.7548 14.8654 44.1667L13.4626 45.5623C13.2189 45.8048 13.596 46.1822 13.8399 45.9396Z" fill="#211715"/>
<path d="M64.7937 48.0586C64.8514 48.0615 64.9938 48.0384 65.0418 48.0673C65.0443 48.0688 65.0835 48.1599 65.0977 48.1954C65.1698 48.3803 65.2299 48.5697 65.2778 48.7623C65.3689 49.1354 65.4259 49.5161 65.448 49.8995C65.508 50.6762 65.4595 51.4574 65.3039 52.2207C65.154 52.9085 64.7989 53.5848 64.1998 53.9835C63.9331 54.1741 63.6112 54.2717 63.2836 54.2613C62.9446 54.241 62.6221 54.0445 62.3594 53.8417C61.9886 53.5554 61.7214 53.1299 61.4454 52.7576C61.1392 52.3443 60.8425 51.9243 60.5552 51.4977C60.3643 51.2143 59.9015 51.4811 60.0944 51.767C60.394 52.2116 60.7035 52.6488 61.023 53.0784C61.305 53.4575 61.5766 53.8831 61.9424 54.1868C62.2616 54.4742 62.6492 54.6748 63.0682 54.7694C63.4746 54.8332 63.8909 54.7633 64.2542 54.5702C65.0247 54.1786 65.551 53.3771 65.7708 52.5594C65.8719 52.1448 65.9359 51.7221 65.9621 51.2962C66.0032 50.8416 66.0104 50.3845 65.9836 49.9288C65.9583 49.4257 65.8777 48.9269 65.7435 48.4414C65.6768 48.2126 65.6071 47.9155 65.4516 47.73C65.2782 47.5233 65.04 47.5368 64.7938 47.5248C64.4506 47.5082 64.4514 48.0418 64.7938 48.0584L64.7937 48.0586Z" fill="#211715"/>
<path d="M59.751 43.5056C58.4048 43.057 57.0884 42.4943 55.7758 41.9582C55.7075 41.9398 55.6348 41.9492 55.5733 41.9841C55.5119 42.0191 55.4667 42.0769 55.4476 42.1449C55.4306 42.2132 55.4404 42.2853 55.4752 42.3465C55.51 42.4076 55.567 42.453 55.6344 42.4732C56.9476 43.0091 58.2638 43.5717 59.6096 44.0206C59.9362 44.1293 60.0765 43.6143 59.7514 43.5061L59.751 43.5056Z" fill="#211715"/>
<path d="M61.783 43.4212C61.7863 43.2234 61.9931 43.1119 62.1667 43.1068C62.4202 43.0995 62.6895 43.2642 62.9066 43.3786C63.155 43.5093 63.3973 43.6511 63.6375 43.7964C63.7639 43.8729 63.89 43.9501 64.0158 44.0279C64.0505 44.0467 64.0834 44.0687 64.114 44.0936C64.1535 44.1308 64.1904 44.1706 64.2245 44.2128C64.3508 44.3583 64.435 44.5355 64.4681 44.7253C64.4866 44.9453 64.4732 45.1668 64.4281 45.3829C64.3819 45.8119 64.3744 46.2442 64.406 46.6746C64.4349 47.1117 64.486 47.5487 64.5552 47.9819C64.5925 48.2157 64.5925 48.4373 64.4352 48.6259C64.3989 48.6695 64.3593 48.7103 64.3218 48.7529C64.3053 48.7716 64.2898 48.7916 64.2727 48.8099C64.3085 48.7717 64.3023 48.7902 64.2816 48.8027C64.2255 48.8339 64.1661 48.8592 64.1046 48.8779C63.7591 49.0051 63.389 49.0516 63.0228 49.014C62.905 49.0028 62.7884 48.9818 62.6742 48.9513C62.6418 48.9426 62.6098 48.9334 62.5781 48.922C62.5436 48.9095 62.5851 48.9314 62.5291 48.8984C62.4451 48.8525 62.3713 48.7902 62.3119 48.7151C62.0542 48.3802 61.9784 47.9076 61.9169 47.502C61.873 47.2119 61.8439 46.9704 61.66 46.7299C61.4713 46.4913 61.2322 46.2972 60.9599 46.1616C60.6551 46.0048 60.3848 46.465 60.6906 46.6224C60.9426 46.7349 61.1557 46.9194 61.3033 47.1527C61.3534 47.2727 61.3815 47.4007 61.3861 47.5307C61.4069 47.6816 61.4312 47.8322 61.4624 47.9813C61.5464 48.3843 61.6781 48.8017 61.9552 49.1159C62.2353 49.4335 62.6454 49.5142 63.0497 49.5501C63.4806 49.5878 63.9144 49.5251 64.317 49.3668C64.5572 49.2735 64.7624 49.1078 64.9043 48.8927C65.0461 48.6776 65.1176 48.4237 65.1088 48.1662C65.0995 47.928 65.044 47.69 65.0155 47.4532C64.9836 47.1881 64.9558 46.9223 64.9385 46.6559C64.9001 46.1969 64.9135 45.7351 64.9785 45.2791C65.0325 45.0116 65.0214 44.735 64.9462 44.4726C64.8709 44.2103 64.7337 43.9699 64.546 43.7717C64.3274 43.5373 63.9968 43.3876 63.7238 43.2259C63.412 43.0321 63.0866 42.8613 62.75 42.7149C62.4165 42.5783 62.0696 42.5109 61.7304 42.6757C61.5916 42.7466 61.4741 42.8529 61.3898 42.9839C61.3054 43.115 61.2573 43.266 61.2502 43.4216C61.2444 43.7651 61.778 43.7651 61.7838 43.4216L61.783 43.4212Z" fill="#211715"/>
<path d="M63.0333 44.0846C62.7237 43.9182 62.4092 43.7598 62.0937 43.6044C61.9842 43.5434 61.8697 43.492 61.7514 43.4506C61.6127 43.4106 61.4653 43.4128 61.3279 43.4568C61.1905 43.5008 61.0693 43.5847 60.9797 43.6978C60.8796 43.8262 60.82 43.9814 60.8083 44.1437C60.7966 44.306 60.8334 44.4682 60.914 44.6096C60.9317 44.6398 60.9552 44.6663 60.9831 44.6875C61.011 44.7087 61.0428 44.7241 61.0767 44.733C61.1106 44.7419 61.1459 44.744 61.1807 44.7393C61.2154 44.7345 61.2488 44.723 61.2791 44.7053C61.3093 44.6876 61.3358 44.6641 61.357 44.6362C61.3782 44.6083 61.3936 44.5765 61.4025 44.5426C61.4114 44.5087 61.4135 44.4734 61.4088 44.4386C61.404 44.4039 61.3925 44.3705 61.3748 44.3402C61.3662 44.3265 61.3583 44.3124 61.3513 44.2978C61.362 44.3237 61.362 44.3218 61.3513 44.2919C61.3464 44.2757 61.3422 44.2593 61.3389 44.2426C61.3412 44.2665 61.3414 44.2693 61.3398 44.249C61.337 44.2179 61.337 44.1867 61.3398 44.1556C61.3353 44.2026 61.3504 44.1175 61.3532 44.1065C61.357 44.0932 61.3614 44.0801 61.3665 44.0672C61.359 44.0887 61.3623 44.0847 61.3763 44.0552C61.3844 44.0408 61.3933 44.0268 61.4029 44.0133C61.3867 44.0349 61.3887 44.0342 61.4088 44.011C61.4184 44.0031 61.4727 43.9647 61.4292 43.9915C61.4425 43.9827 61.4564 43.9747 61.4706 43.9674C61.4431 43.9773 61.444 43.977 61.4734 43.9666C61.4858 43.9633 61.5542 43.9499 61.498 43.9563C61.5099 43.955 61.6048 43.9603 61.555 43.9523C61.5825 43.9567 61.6076 43.9677 61.635 43.9731C61.6729 43.9806 61.5625 43.9394 61.5961 43.9563C61.6454 43.9811 61.6967 44.003 61.7466 44.0272C62.0883 44.1931 62.4282 44.3646 62.7628 44.5446C62.8242 44.5788 62.8966 44.588 62.9646 44.5702C63.0327 44.5523 63.0912 44.5088 63.1279 44.4488C63.1628 44.3875 63.1723 44.315 63.1544 44.2468C63.1365 44.1786 63.0926 44.1201 63.0321 44.0838L63.0333 44.0846Z" fill="#211715"/>
<path d="M62.2327 44.701C61.9479 44.568 61.653 44.4578 61.3507 44.3715C61.2133 44.3202 61.067 44.2972 60.9205 44.3038C60.7615 44.3252 60.615 44.4019 60.507 44.5205C60.3963 44.644 60.3323 44.8023 60.3262 44.9679C60.32 45.1336 60.372 45.2962 60.4732 45.4276C60.6255 45.5881 60.8103 45.7142 61.0152 45.7975C61.2253 45.8968 61.4397 45.9869 61.6533 46.0776C61.7148 46.1114 61.7869 46.1203 61.8548 46.1025C61.9227 46.0848 61.9812 46.0416 62.0182 45.982C62.0532 45.9207 62.0628 45.8482 62.0449 45.7799C62.027 45.7117 61.9831 45.6531 61.9226 45.6169C61.6061 45.4957 61.2995 45.3498 61.0059 45.1805C60.9835 45.1664 60.962 45.1512 60.9392 45.1372C60.9298 45.1313 60.8992 45.1061 60.9392 45.1389C60.9308 45.132 60.9224 45.1256 60.9142 45.1178C60.9129 45.1166 60.8609 45.0666 60.8625 45.0656C60.8641 45.0645 60.8956 45.1078 60.8731 45.0749C60.8471 45.0366 60.8805 45.1086 60.8745 45.0788C60.8673 45.0565 60.8616 45.0337 60.8574 45.0107C60.8634 45.0091 60.8594 45.0648 60.8594 45.0199C60.8594 45.0066 60.8582 44.9924 60.8582 44.9786C60.8582 44.9684 60.8598 44.958 60.8594 44.948C60.8578 44.9121 60.8431 44.9915 60.8573 44.9603C60.8604 44.9514 60.8625 44.9422 60.8635 44.9328C60.8715 44.8812 60.8423 44.9646 60.8595 44.938C60.8715 44.9195 60.9029 44.8743 60.8698 44.9128C60.8883 44.8913 60.9089 44.8728 60.9284 44.853C60.9257 44.856 60.8905 44.8773 60.915 44.8636C60.9269 44.8571 60.9378 44.8488 60.9498 44.8421C60.9586 44.8372 60.9679 44.833 60.9765 44.8288C60.9253 44.8565 60.9604 44.8356 60.9779 44.8321C61.046 44.8188 60.9434 44.831 60.992 44.8298C61.0479 44.8282 60.9749 44.8277 60.9771 44.8254C60.9895 44.8275 61.0018 44.8305 61.0137 44.8345C61.0705 44.849 61.1271 44.8639 61.1837 44.8793C61.3184 44.9149 61.451 44.9581 61.5808 45.0086C61.6546 45.0377 61.7286 45.0661 61.8025 45.0952C61.8344 45.1077 61.8662 45.1205 61.898 45.1333C61.9473 45.1533 61.9114 45.1387 61.9007 45.1343C61.9211 45.1431 61.9415 45.1521 61.9617 45.1609C62.0232 45.1949 62.0954 45.2039 62.1634 45.1861C62.2314 45.1683 62.2899 45.125 62.3268 45.0652C62.3616 45.0039 62.3711 44.9314 62.3532 44.8632C62.3353 44.795 62.2915 44.7365 62.231 44.7002L62.2327 44.701Z" fill="#211715"/>
<path d="M60.8969 45.1567C60.7782 45.1288 60.6544 45.1313 60.5369 45.1637C60.4193 45.1962 60.3119 45.2578 60.2243 45.3427C60.0644 45.5018 59.9738 45.7176 59.9722 45.9432C59.9706 46.1687 60.0581 46.3858 60.2157 46.5472C60.2968 46.6329 60.3832 46.714 60.4691 46.7954C60.5844 46.9106 60.7074 47.0178 60.8373 47.1162C60.8985 47.1516 60.9712 47.1614 61.0396 47.1434C61.1079 47.1255 61.1665 47.0813 61.2024 47.0204C61.2362 46.9589 61.2451 46.8867 61.2273 46.8188C61.2095 46.7509 61.1663 46.6924 61.1066 46.6554C61.0597 46.6216 61.1545 46.6965 61.12 46.6656C61.1104 46.657 61.1001 46.6492 61.0902 46.6408C61.0635 46.6177 61.0369 46.5939 61.0102 46.5701C60.9528 46.5182 60.8965 46.4652 60.8406 46.4118C60.7498 46.325 60.6645 46.2307 60.5722 46.1451C60.5599 46.1304 60.5636 46.1353 60.5834 46.1599C60.5757 46.1489 60.5684 46.1376 60.5613 46.126C60.5507 46.1082 60.5418 46.0898 60.5323 46.0714C60.5613 46.127 60.5335 46.0728 60.5286 46.0573C60.5164 46.0316 60.5094 46.0039 60.5079 45.9755L60.5113 46.0049C60.5097 45.9915 60.5085 45.977 60.5078 45.9631C60.5069 45.9422 60.5078 45.9216 60.5078 45.9008C60.5106 45.8701 60.5099 45.8735 60.5057 45.9108C60.5081 45.8975 60.5111 45.8841 60.5146 45.8708C60.5197 45.8526 60.5469 45.805 60.5158 45.8598C60.5403 45.8166 60.566 45.7746 60.592 45.7323C60.6201 45.6867 60.5633 45.755 60.6026 45.719C60.6142 45.7083 60.652 45.6836 60.6108 45.7076C60.6172 45.7038 60.6876 45.6638 60.6529 45.6802C60.6182 45.6966 60.69 45.6652 60.699 45.6688C60.6656 45.6723 60.6589 45.6731 60.6797 45.6715C60.6904 45.6704 60.7011 45.67 60.7119 45.67C60.7227 45.67 60.8167 45.6795 60.7561 45.67C60.8243 45.6869 60.8964 45.677 60.9575 45.6422C61.0186 45.6074 61.064 45.5505 61.0843 45.4833C61.1023 45.415 61.0928 45.3424 61.0579 45.2811C61.023 45.2197 60.9654 45.1745 60.8976 45.1551L60.8969 45.1567Z" fill="#211715"/>
<path d="M61.1645 43.2735C61.0277 43.2475 60.9052 43.1754 60.7674 43.1535C60.6198 43.1275 60.4681 43.1383 60.3257 43.1848C60.0381 43.2895 59.7983 43.4952 59.6513 43.7636C59.4946 44.0227 59.3971 44.3131 59.3658 44.6142C59.3439 44.921 59.422 45.2466 59.6859 45.4287C59.8251 45.5126 59.9845 45.5571 60.1471 45.5574C60.3096 45.5576 60.4691 45.5136 60.6085 45.43C60.6696 45.3943 60.714 45.3358 60.732 45.2673C60.7499 45.1989 60.74 45.1261 60.7042 45.065C60.6685 45.0039 60.61 44.9595 60.5415 44.9415C60.4731 44.9236 60.4003 44.9336 60.3392 44.9693C60.312 44.9858 60.2827 44.9987 60.2522 45.0078C60.2443 45.0102 60.1651 45.0272 60.2073 45.0212C60.1803 45.0245 60.1532 45.0257 60.126 45.0246C60.1092 45.0246 60.0924 45.0233 60.0756 45.0217C60.1072 45.0265 60.108 45.0263 60.0783 45.0209C60.0591 45.0156 60.0395 45.0101 60.0201 45.0054C59.9734 44.9942 60.0559 45.0312 60.0048 44.9985C59.991 44.9913 59.9777 44.9835 59.9647 44.9749C59.9838 44.9912 59.9864 44.993 59.9721 44.9805C59.963 44.9726 59.9543 44.9643 59.9462 44.9554C59.9615 44.9781 59.9603 44.9762 59.9429 44.9498C59.9151 44.9135 59.9385 44.9617 59.9267 44.9134C59.9183 44.8784 59.9089 44.8438 59.9033 44.808C59.8979 44.754 59.8961 44.6997 59.898 44.6455C59.9128 44.5209 59.9453 44.3989 59.9944 44.2834C60.0403 44.163 60.0994 44.048 60.1706 43.9407C60.1981 43.9011 60.2297 43.8646 60.2648 43.8315C60.2733 43.8233 60.3421 43.7662 60.3196 43.7826C60.3426 43.766 60.3665 43.7507 60.3912 43.7367C60.4687 43.6841 60.5627 43.6614 60.6556 43.6729C60.6137 43.6701 60.6998 43.6837 60.7123 43.6875C60.7473 43.6977 60.7813 43.7105 60.8154 43.7235C60.8826 43.7511 60.9521 43.7728 61.0231 43.7883C61.0913 43.8053 61.1635 43.7953 61.2246 43.7606C61.2857 43.7258 61.331 43.6689 61.3513 43.6016C61.3694 43.5333 61.36 43.4607 61.325 43.3993C61.2901 43.3379 61.2325 43.2927 61.1645 43.2734V43.2735Z" fill="#211715"/>
<path d="M49.4465 42.6362C48.2646 43.1019 47.0751 43.6435 46.053 44.4078C45.2937 44.9755 44.7282 45.7871 44.153 46.5297C43.8803 46.9019 43.5887 47.2598 43.2794 47.6023C43.0425 47.8508 43.4192 48.2292 43.6567 47.9795C44.2657 47.3405 44.7587 46.5888 45.3196 45.9085C45.5837 45.5703 45.877 45.2559 46.196 44.9688C46.6437 44.6111 47.1277 44.3014 47.64 44.0448C48.2715 43.709 48.9221 43.4106 49.5885 43.151C49.6556 43.1305 49.7124 43.0851 49.7471 43.0241C49.7818 42.9631 49.7919 42.8911 49.7752 42.8229C49.7561 42.7548 49.7108 42.6971 49.6494 42.6621C49.588 42.6272 49.5152 42.6178 49.4469 42.6361L49.4465 42.6362Z" fill="#211715"/>
<path d="M41.5686 42.1552C43.0607 42.378 44.5039 42.8535 45.8363 43.5613C46.1398 43.7214 46.4099 43.2612 46.1056 43.1006C44.7339 42.3677 43.2474 41.8739 41.7099 41.6403C41.6417 41.6238 41.5698 41.634 41.5088 41.6687C41.4478 41.7034 41.4024 41.76 41.3817 41.827C41.3634 41.8953 41.3728 41.968 41.4077 42.0294C41.4427 42.0909 41.5004 42.136 41.5685 42.1552H41.5686Z" fill="#211715"/>
<path d="M47.0099 51.5501C45.9103 52.3593 44.8489 53.2168 43.7932 54.0816C43.7436 54.1319 43.7158 54.1997 43.7158 54.2703C43.7158 54.3409 43.7436 54.4087 43.7932 54.459C43.844 54.5076 43.9116 54.5347 43.9819 54.5347C44.0522 54.5347 44.1198 54.5076 44.1706 54.459C45.1915 53.6229 46.2162 52.7931 47.2787 52.0109C47.3383 51.9738 47.3814 51.9153 47.3992 51.8474C47.417 51.7796 47.4082 51.7075 47.3745 51.6459C47.3384 51.5852 47.2799 51.5411 47.2116 51.5232C47.1433 51.5053 47.0706 51.515 47.0094 51.5501H47.0099Z" fill="#211715"/>
<path d="M28.6301 43.8057C29.275 43.3616 30.0247 43.0635 30.7584 42.802C31.4764 42.53 32.2193 42.329 32.9764 42.2017C33.0445 42.1826 33.1023 42.1375 33.1373 42.076C33.1722 42.0146 33.1816 41.9418 33.1632 41.8736C33.1429 41.8062 33.0976 41.7493 33.0365 41.7145C32.9754 41.6798 32.9032 41.6698 32.835 41.6868C32.0617 41.8171 31.3031 42.0238 30.5706 42.3039C29.8114 42.577 29.0293 42.8848 28.3611 43.3444C28.0801 43.5378 28.3466 44.0005 28.6305 43.8052L28.6301 43.8057Z" fill="#211715"/>
<path d="M25.0373 43.3671C26.1417 43.8432 27.3211 44.3314 28.2071 45.1694C29.1119 46.0252 29.7975 47.0859 30.6639 47.977C30.904 48.2237 31.2809 47.8462 31.0412 47.5998C30.362 46.9013 29.7771 46.1103 29.1364 45.3767C28.8117 44.9958 28.4465 44.6514 28.0472 44.3496C27.6557 44.0651 27.2418 43.813 26.8094 43.5959C26.3189 43.3443 25.8132 43.1244 25.307 42.9062C25.2454 42.8728 25.1734 42.864 25.1056 42.8818C25.0378 42.8996 24.9793 42.9425 24.9421 43.0018C24.9068 43.0631 24.8971 43.1357 24.915 43.204C24.9329 43.2723 24.977 43.3309 25.0377 43.3669L25.0373 43.3671Z" fill="#211715"/>
<path d="M47.7884 36.4365C47.6307 36.3265 47.4451 36.2634 47.253 36.2545C47.0609 36.2456 46.8702 36.2912 46.703 36.3861C46.5806 36.4612 46.4767 36.5628 46.3987 36.6834C46.3208 36.804 46.2709 36.9406 46.2528 37.083C46.2046 37.4171 46.227 37.7576 46.3186 38.0825C46.4102 38.4074 46.569 38.7095 46.7846 38.9692C47.0742 39.3278 47.4916 39.5562 47.9585 39.4653C48.0264 39.446 48.084 39.4008 48.1189 39.3394C48.1539 39.278 48.1633 39.2054 48.1453 39.1372C48.1253 39.0696 48.08 39.0125 48.0188 38.9777C47.9575 38.9428 47.8852 38.9331 47.817 38.9504C47.508 39.0107 47.2408 38.7212 47.09 38.4883C46.9285 38.2522 46.8208 37.9835 46.7745 37.7013C46.7363 37.4537 46.731 37.1526 46.8667 36.9373C46.8956 36.8913 46.8432 36.9582 46.882 36.9188C46.8953 36.9054 46.9354 36.8678 46.936 36.8675C46.9839 36.8376 47.0363 36.8156 47.0912 36.8023C47.1649 36.7835 47.2421 36.7823 47.3164 36.7988C47.3907 36.8153 47.4601 36.849 47.519 36.8972C47.5801 36.9325 47.6528 36.9422 47.7211 36.9243C47.7894 36.9064 47.848 36.8623 47.8839 36.8015C47.9179 36.74 47.927 36.6678 47.9092 36.5998C47.8914 36.5318 47.8481 36.4733 47.7883 36.4364L47.7884 36.4365Z" fill="#211715"/>
<path d="M56.5886 36.2833C56.6399 36.2335 56.7019 36.1961 56.7699 36.1739C56.8379 36.1517 56.9101 36.1452 56.9809 36.1551C57.0402 36.1602 57.0977 36.1785 57.1491 36.2084C57.2025 36.2401 57.1842 36.2296 57.235 36.2825C57.2736 36.3225 57.2146 36.2466 57.2422 36.2911C57.26 36.32 57.2784 36.3473 57.2934 36.3777C57.3202 36.4343 57.341 36.4935 57.3556 36.5543C57.3937 36.7073 57.4101 36.8648 57.4043 37.0223C57.3942 37.2907 57.3287 37.5542 57.2118 37.796C57.0751 38.0839 56.8524 38.3988 56.4987 38.3776C56.1556 38.3571 56.1569 38.8907 56.4987 38.9112C57.2788 38.9579 57.7178 38.1375 57.8789 37.488C58.0167 36.9325 57.9707 36.056 57.4051 35.7405C57.2141 35.6383 56.9957 35.5994 56.7812 35.6291C56.5667 35.6588 56.3672 35.7558 56.2112 35.906C55.9664 36.1476 56.3438 36.5249 56.5886 36.2833Z" fill="#211715"/>
<path d="M56.2472 38.2514C56.1497 38.8889 55.9105 39.4964 55.5471 40.0292C55.1548 40.648 54.6133 41.3306 53.8819 41.5481C53.5535 41.6459 53.6934 42.1609 54.0237 42.0626C54.8703 41.8107 55.4998 41.0803 55.9653 40.3647C56.3689 39.7722 56.6405 39.0998 56.7617 38.3932C56.7782 38.325 56.7681 38.2531 56.7334 38.1921C56.6987 38.1312 56.642 38.0857 56.575 38.0651C56.5067 38.0468 56.434 38.0561 56.3725 38.0911C56.3111 38.126 56.2659 38.1838 56.2468 38.2518L56.2472 38.2514Z" fill="#211715"/>
<path d="M47.5696 38.946C48.071 40.5899 49.4453 42.1989 51.2482 42.3431C51.5905 42.3705 51.5887 41.8362 51.2482 41.8095C50.4597 41.7464 49.7941 41.3185 49.2491 40.7681C48.7073 40.2175 48.3075 39.5436 48.0841 38.8042C47.9842 38.4767 47.469 38.6163 47.5696 38.946Z" fill="#211715"/>
<path d="M54.6781 30.0304C53.86 29.5945 52.9502 29.3586 52.0233 29.342C51.0964 29.3254 50.1788 29.5286 49.3455 29.9349C48.6663 30.2754 48.0655 30.7536 47.5812 31.339C47.0968 31.9244 46.7397 32.6043 46.5324 33.3352C46.2532 34.4007 46.2954 35.525 46.6537 36.5665C46.7619 36.8907 47.2773 36.7517 47.1683 36.4247C46.8704 35.5736 46.8041 34.6586 46.9764 33.7734C47.1215 33.0687 47.4253 32.4064 47.8648 31.8368C48.322 31.2512 48.9017 30.7726 49.5633 30.4346C50.225 30.0966 50.9525 29.9074 51.6949 29.8802C52.6385 29.8314 53.5772 30.0427 54.4088 30.4912C54.7109 30.6546 54.9807 30.194 54.6781 30.0304Z" fill="#211715"/>
<path d="M57.3496 35.9002C57.4667 35.3273 57.4965 34.7398 57.438 34.1579C57.3788 33.6238 57.2448 33.1006 57.0398 32.6039C56.6959 31.7878 56.1466 31.0746 55.4454 30.5336C55.3943 30.4857 55.3269 30.459 55.2568 30.459C55.1867 30.459 55.1193 30.4857 55.0682 30.5336C55.0186 30.5839 54.9907 30.6517 54.9907 30.7223C54.9907 30.7929 55.0186 30.8607 55.0682 30.9109C55.7077 31.3971 56.213 32.038 56.5365 32.7734C56.9303 33.7165 57.0342 34.7555 56.8349 35.7579C56.7735 36.0935 57.2877 36.2381 57.3496 35.8997V35.9002Z" fill="#211715"/>
<path d="M51.4892 40.0482C51.7735 40.1725 52.0842 40.2239 52.3934 40.198C52.7095 40.1914 53.0151 40.0835 53.2653 39.8901C53.3149 39.8399 53.3428 39.7721 53.3428 39.7014C53.3428 39.6308 53.3149 39.563 53.2653 39.5127C53.2144 39.4643 53.1468 39.4373 53.0766 39.4373C53.0063 39.4373 52.9388 39.4643 52.8879 39.5127C52.8413 39.5528 52.9327 39.4838 52.8979 39.5059C52.8811 39.5165 52.8652 39.5282 52.8483 39.5385C52.8313 39.5488 52.8114 39.5594 52.7925 39.569C52.7804 39.5766 52.7674 39.5827 52.7538 39.5872C52.7638 39.5901 52.8161 39.5633 52.7672 39.5812C52.7062 39.6037 52.6438 39.6222 52.5804 39.6365C52.5592 39.6413 52.538 39.6456 52.5166 39.6499C52.51 39.6512 52.4478 39.6616 52.483 39.656C52.5182 39.6504 52.4518 39.6596 52.445 39.6603C52.4183 39.6629 52.392 39.6652 52.3659 39.6669C52.279 39.6729 52.1919 39.6733 52.105 39.6681C52.0872 39.6671 52.0695 39.6657 52.0516 39.664L52.0213 39.6608C52.0005 39.6583 52.008 39.6595 52.0443 39.664C52.0146 39.6636 51.9853 39.6583 51.9573 39.6484C51.9059 39.6375 51.8553 39.6233 51.8058 39.6058C51.788 39.5996 51.7705 39.5925 51.7531 39.586C51.6962 39.5641 51.8219 39.6157 51.7579 39.588C51.6963 39.5541 51.6242 39.5452 51.5563 39.563C51.4884 39.5808 51.4299 39.6241 51.3929 39.6838C51.3579 39.745 51.3483 39.8175 51.3662 39.8858C51.3841 39.954 51.428 40.0125 51.4885 40.0487L51.4892 40.0482Z" fill="#211715"/>
<path d="M52.0941 38.0014C52.1181 38.0717 52.1405 38.1427 52.1619 38.2138C52.1871 38.2878 52.2067 38.3636 52.2204 38.4405L52.211 38.3696C52.2127 38.3844 52.2127 38.3994 52.211 38.4143L52.2204 38.3433C52.2192 38.3501 52.2174 38.3569 52.2151 38.3634L52.2418 38.2997C52.239 38.3058 52.2356 38.3117 52.2316 38.3171L52.2734 38.2631C52.2706 38.2668 52.2673 38.27 52.2637 38.2729L52.317 38.2312C52.3011 38.2423 52.2842 38.2517 52.2663 38.2592L52.3301 38.2326C52.3127 38.2395 52.2945 38.2444 52.2759 38.2471L52.3469 38.2376C52.3129 38.2388 52.2789 38.2371 52.2453 38.2324C52.1925 38.2324 52.1409 38.2481 52.0971 38.2774C52.0532 38.3067 52.019 38.3484 51.9988 38.3971C51.9786 38.4459 51.9733 38.4995 51.9836 38.5513C51.9939 38.603 52.0193 38.6505 52.0566 38.6879C52.1081 38.7357 52.175 38.7634 52.2453 38.766C52.2733 38.7697 52.3015 38.7718 52.3297 38.7726C52.4112 38.7698 52.4908 38.7475 52.5618 38.7075C52.6047 38.6849 52.6422 38.6533 52.6719 38.615C52.7016 38.5767 52.7228 38.5325 52.734 38.4854C52.749 38.4085 52.7459 38.3292 52.725 38.2538C52.6921 38.1204 52.6519 37.9898 52.6076 37.8603C52.5875 37.794 52.5439 37.7373 52.485 37.7008C52.4547 37.6831 52.4213 37.6716 52.3866 37.6668C52.3518 37.662 52.3165 37.6641 52.2826 37.673C52.2487 37.6819 52.2169 37.6974 52.1889 37.7186C52.161 37.7397 52.1375 37.7662 52.1199 37.7965C52.1019 37.8272 52.0903 37.8613 52.0857 37.8966C52.0812 37.9319 52.0837 37.9677 52.0932 38.0021L52.0941 38.0014Z" fill="#211715"/>
<path d="M49.7701 36.9608C49.7126 37.1937 49.7942 37.7158 50.243 37.7313C50.8319 37.6893 50.8218 37.0524 50.604 36.7668C50.4255 36.5331 49.9414 36.4627 49.7701 36.9608Z" fill="#211715"/>
<path d="M54.4891 36.6519C54.5765 36.8755 54.5637 37.4036 54.1207 37.4775C53.5312 37.5126 53.4583 36.8798 53.6371 36.5683C53.7832 36.3134 54.2541 36.1805 54.4891 36.6519Z" fill="#211715"/>
<path d="M24.1961 16.9478L27.3615 24.7058C27.3821 24.7729 27.4275 24.8296 27.4885 24.8643C27.5495 24.899 27.6215 24.9092 27.6897 24.8926C27.7577 24.8735 27.8155 24.8284 27.8505 24.7669C27.8855 24.7055 27.8948 24.6327 27.8764 24.5644L24.7106 16.8059C24.6901 16.7388 24.6446 16.6821 24.5836 16.6473C24.5226 16.6126 24.4507 16.6025 24.3825 16.6191C24.3144 16.6382 24.2566 16.6834 24.2217 16.7448C24.1867 16.8063 24.1774 16.879 24.1957 16.9473L24.1961 16.9478Z" fill="#211715"/>
<path d="M14.7269 21.0436C15.8341 22.3949 16.9762 23.7184 18.1212 25.0376C18.4536 25.4207 18.7878 25.8022 19.1237 26.1822C19.3518 26.4398 19.7281 26.0613 19.5009 25.805C18.2539 24.3976 17.0312 22.9674 15.8217 21.5281C15.581 21.2421 15.3418 20.9549 15.1041 20.6664C14.8864 20.4005 14.5109 20.7799 14.7269 21.0436Z" fill="#211715"/>
<path d="M50.1102 16.8059L46.9447 24.5641C46.9264 24.6323 46.9358 24.7051 46.9707 24.7665C47.0057 24.8279 47.0634 24.8731 47.1315 24.8922C47.1997 24.9093 47.2719 24.8994 47.333 24.8647C47.3941 24.8299 47.4395 24.7729 47.4596 24.7055L50.6252 16.9474C50.6435 16.8792 50.6342 16.8064 50.5992 16.745C50.5642 16.6836 50.5065 16.6384 50.4384 16.6193C50.3702 16.6022 50.298 16.6121 50.2369 16.6468C50.1757 16.6816 50.1304 16.7387 50.1102 16.806V16.8059Z" fill="#211715"/>
<path d="M59.717 20.6662C58.6098 22.0175 57.4675 23.3409 56.3227 24.6601C55.9901 25.0431 55.6559 25.4247 55.3202 25.8048C55.0934 26.0609 55.4692 26.4396 55.6974 26.182C56.9444 24.7747 58.1666 23.3445 59.3768 21.9053C59.6169 21.6191 59.8561 21.3318 60.0942 21.0434C60.3101 20.7798 59.9341 20.4002 59.717 20.6662Z" fill="#211715"/>
<path d="M19.3163 35.7254C19.1815 35.5936 19.0125 35.5023 18.8284 35.4619C18.6443 35.4215 18.4525 35.4336 18.275 35.4968C18.1409 35.55 18.0207 35.6328 17.9232 35.7391C17.8258 35.8453 17.7536 35.9723 17.7122 36.1104C17.4947 36.7163 17.6236 37.452 17.9464 37.9978C18.1732 38.381 18.5447 38.7049 19.0147 38.6792C19.3562 38.661 19.3584 38.1272 19.0147 38.1457C18.6709 38.1641 18.4544 37.8535 18.3249 37.572C18.2131 37.3347 18.1511 37.077 18.1428 36.8149C18.1383 36.661 18.1554 36.5073 18.1936 36.3583C18.2142 36.2665 18.2525 36.1795 18.3063 36.1024C18.3379 36.0545 18.2655 36.1424 18.3129 36.0953C18.363 36.0452 18.3395 36.0581 18.3968 36.0245C18.4457 35.9975 18.4995 35.9803 18.555 35.9739C18.6245 35.9649 18.6952 35.9718 18.7617 35.9941C18.8282 36.0163 18.8888 36.0534 18.9389 36.1025C19.1821 36.3456 19.5595 35.9683 19.3163 35.7251V35.7254Z" fill="#211715"/>
<path d="M27.8298 36.7604C27.8871 36.7138 27.9548 36.6815 28.0271 36.6661C28.0994 36.6507 28.1743 36.6527 28.2457 36.672C28.3008 36.6847 28.3531 36.7079 28.3995 36.7403C28.3744 36.7223 28.4316 36.7714 28.4385 36.7776C28.447 36.7864 28.4553 36.7955 28.463 36.8043C28.4471 36.7832 28.4445 36.78 28.4549 36.795C28.5892 36.9991 28.5849 37.3044 28.5445 37.5491C28.4983 37.8188 28.3947 38.0755 28.2406 38.3017C28.0917 38.5329 27.8271 38.8229 27.5203 38.761C27.4521 38.744 27.3799 38.7539 27.3188 38.7887C27.2577 38.8234 27.2123 38.8804 27.1921 38.9478C27.174 39.016 27.1834 39.0887 27.2184 39.15C27.2533 39.2114 27.3109 39.2566 27.3789 39.2759C28.1499 39.4317 28.6698 38.7383 28.9354 38.1114C29.0683 37.7945 29.1221 37.4501 29.0918 37.1078C29.0855 36.8201 28.9653 36.5466 28.7577 36.3474C28.5902 36.2111 28.383 36.1328 28.1672 36.1243C27.9514 36.1158 27.7387 36.1775 27.561 36.3002C27.5015 36.3374 27.4584 36.3958 27.4406 36.4637C27.4228 36.5315 27.4316 36.6036 27.4652 36.6652C27.5012 36.7259 27.5597 36.77 27.628 36.7879C27.6963 36.8059 27.7689 36.7962 27.8302 36.761L27.8298 36.7604Z" fill="#211715"/>
<path d="M27.241 38.6358C27.056 39.2258 26.7479 39.7699 26.3371 40.232C25.8576 40.7934 25.2417 41.373 24.4835 41.4889C24.4155 41.5081 24.3577 41.5533 24.3228 41.6148C24.2878 41.6762 24.2785 41.7489 24.2967 41.8172C24.317 41.8846 24.3623 41.9416 24.4235 41.9763C24.4846 42.0111 24.5568 42.021 24.625 42.004C25.4654 41.8754 26.1808 41.234 26.7139 40.61C27.1873 40.0804 27.5422 39.4559 27.7551 38.7783C27.8511 38.4478 27.3365 38.3067 27.2406 38.6363L27.241 38.6358Z" fill="#211715"/>
<path d="M18.7425 38.1517C19.0033 39.7771 20.1252 41.5305 21.8213 41.904C22.156 41.9778 22.2989 41.4638 21.9631 41.3895C20.4372 41.0535 19.4896 39.4598 19.257 38.0099C19.2379 37.9418 19.1927 37.8841 19.1313 37.8491C19.0698 37.8142 18.9971 37.8048 18.9288 37.8231C18.8615 37.8433 18.8044 37.8886 18.7696 37.9497C18.7349 38.0109 18.725 38.0831 18.7421 38.1513L18.7425 38.1517Z" fill="#211715"/>
<path d="M26.809 30.3874C26.0733 29.8584 25.2225 29.5116 24.3267 29.3755C23.4308 29.2394 22.5154 29.3179 21.6558 29.6047C20.9514 29.8473 20.305 30.2337 19.7578 30.7393C19.2105 31.2449 18.7742 31.8587 18.4767 32.5418C18.0636 33.5475 17.9577 34.653 18.1721 35.7188C18.2351 36.0559 18.7495 35.9132 18.6868 35.577C18.395 34.0163 18.8335 32.3959 19.9718 31.2708C20.8413 30.4378 21.977 29.9386 23.1786 29.8612C24.3802 29.7839 25.5706 30.1334 26.5396 30.8481C26.6009 30.8833 26.6735 30.893 26.7418 30.8751C26.8102 30.8572 26.8687 30.8131 26.9048 30.7524C26.9389 30.6909 26.9479 30.6187 26.9301 30.5507C26.9122 30.4827 26.8689 30.4242 26.809 30.3874Z" fill="#211715"/>
<path d="M28.6603 36.4362C29.0173 35.3999 29.0625 34.2817 28.7901 33.2201C28.5617 32.3821 28.1231 31.6163 27.5158 30.9954C27.2763 30.7482 26.8993 31.1257 27.1384 31.3727C27.6813 31.9277 28.0728 32.6126 28.2756 33.362C28.3938 33.8155 28.448 34.2832 28.4368 34.7516C28.4185 35.2778 28.3204 35.7982 28.1458 36.2949C28.0382 36.6219 28.5532 36.7618 28.6603 36.4367V36.4362Z" fill="#211715"/>
<path d="M22.4252 39.7351C22.6813 39.8841 22.9696 39.9691 23.2656 39.9831C23.561 40.0191 23.8603 39.9609 24.1206 39.8167C24.1817 39.781 24.2262 39.7225 24.2441 39.654C24.2621 39.5855 24.2521 39.5128 24.2164 39.4517C24.1806 39.3906 24.1221 39.3462 24.0537 39.3282C23.9852 39.3103 23.9124 39.3202 23.8513 39.3559C23.8225 39.3746 23.7866 39.3858 23.7593 39.4054C23.7113 39.4307 23.675 39.4736 23.6582 39.525C23.6413 39.5765 23.6451 39.6326 23.6688 39.6813C23.6924 39.73 23.7342 39.7676 23.7851 39.7862C23.836 39.8047 23.8922 39.8027 23.9416 39.7805C23.9911 39.7584 24.03 39.7179 24.0501 39.6676C24.0702 39.6173 24.07 39.5611 24.0494 39.511C24.0289 39.4608 23.9896 39.4206 23.94 39.3989C23.8903 39.3772 23.8342 39.3757 23.7834 39.3946C23.7729 39.3981 23.7625 39.4022 23.7519 39.4057C23.7261 39.4144 23.6995 39.4218 23.673 39.4283C23.6421 39.4357 23.6111 39.4416 23.5796 39.4468C23.5294 39.4557 23.6196 39.4437 23.5834 39.446C23.5662 39.4471 23.5492 39.4495 23.532 39.4507C23.4431 39.4565 23.354 39.4561 23.2652 39.4495C23.243 39.4479 23.2209 39.4459 23.1985 39.4436C23.1761 39.4413 23.1423 39.4367 23.1827 39.4425C23.1427 39.4367 23.1015 39.4292 23.0613 39.4208C22.998 39.4072 22.9356 39.3894 22.8746 39.3674C22.8604 39.3609 22.8457 39.3553 22.8308 39.3506C22.8462 39.3538 22.8876 39.3764 22.8486 39.3577C22.8277 39.3477 22.8068 39.3379 22.7864 39.3271C22.755 39.3107 22.7246 39.2926 22.6945 39.2738C22.6334 39.2381 22.5606 39.2281 22.4921 39.246C22.4237 39.264 22.3652 39.3084 22.3294 39.3695C22.2937 39.4306 22.2837 39.5034 22.3017 39.5718C22.3196 39.6403 22.3641 39.6988 22.4252 39.7345V39.7351Z" fill="#211715"/>
<path d="M23.262 37.8407C23.2819 37.9429 23.2991 38.0457 23.3129 38.1487L23.3035 38.0779C23.3135 38.1298 23.3174 38.1827 23.3149 38.2356L23.3244 38.1646C23.3229 38.1753 23.3201 38.1857 23.3163 38.1958L23.343 38.1321C23.3403 38.1376 23.3372 38.1429 23.3338 38.1479L23.3755 38.0939C23.3715 38.0988 23.3671 38.1033 23.3622 38.1072L23.4155 38.0655C23.409 38.0697 23.4022 38.0733 23.395 38.0763L23.4586 38.0496C23.4395 38.0577 23.4195 38.0636 23.399 38.0672L23.4698 38.0576C23.4516 38.06 23.4331 38.06 23.4149 38.0576L23.4858 38.0672C23.4603 38.0635 23.4362 38.0553 23.411 38.0503C23.3416 38.033 23.2681 38.0425 23.2054 38.077C23.1752 38.0946 23.1487 38.1181 23.1275 38.146C23.1063 38.174 23.0908 38.2058 23.082 38.2397C23.0731 38.2736 23.071 38.3089 23.0757 38.3437C23.0805 38.3784 23.0921 38.4118 23.1098 38.4421C23.1449 38.5024 23.2024 38.5465 23.2699 38.5647C23.3179 38.5761 23.3665 38.585 23.4155 38.5913C23.4753 38.5967 23.5356 38.5885 23.5919 38.5676C23.6506 38.5498 23.7043 38.5185 23.7486 38.4762C23.7877 38.4356 23.8164 38.3863 23.8325 38.3323C23.8485 38.2789 23.8533 38.2228 23.8467 38.1674C23.83 38.0105 23.8067 37.8542 23.7761 37.6993C23.7573 37.6323 23.7133 37.5752 23.6534 37.5399C23.5923 37.5042 23.5195 37.4942 23.4511 37.5121C23.3826 37.5301 23.3241 37.5745 23.2884 37.6355C23.2551 37.6986 23.2457 37.7716 23.2617 37.8411L23.262 37.8407Z" fill="#211715"/>
<path d="M21.1431 36.4824C21.0561 36.7009 21.0653 37.2186 21.4988 37.2939C22.0763 37.332 22.1518 36.7123 21.9791 36.406C21.8366 36.1551 21.376 36.0219 21.1431 36.4824Z" fill="#211715"/>
<path d="M25.7653 36.8151C25.8201 37.0437 25.7369 37.5548 25.2971 37.5672C24.7201 37.5222 24.7341 36.8982 24.9494 36.6201C25.1257 36.3918 25.6007 36.3258 25.7653 36.8151Z" fill="#211715"/>
<path d="M25.7754 33.0819C25.9238 33.8522 26.1751 34.5991 26.5225 35.3025C26.665 35.6122 26.832 35.91 27.0218 36.1932C27.1581 36.419 27.3417 36.6125 27.5599 36.7606C27.8567 36.934 28.1256 36.4735 27.8291 36.2998C27.811 36.2897 27.7934 36.2785 27.7767 36.2663C27.8242 36.3024 27.7623 36.253 27.7576 36.2491C27.7213 36.2148 27.686 36.1803 27.6526 36.1432C27.5751 36.0554 27.5044 35.9617 27.4412 35.8631C27.2608 35.5844 27.101 35.293 26.9631 34.9911C26.6492 34.3402 26.4227 33.6508 26.2893 32.9407C26.2701 32.8727 26.2249 32.815 26.1635 32.7801C26.1021 32.7451 26.0294 32.7357 25.9611 32.754C25.8937 32.7741 25.8366 32.8194 25.8018 32.8805C25.767 32.9417 25.7572 33.0139 25.7744 33.0821L25.7754 33.0819Z" fill="#211715"/>
<path d="M22.5658 33.4192C21.395 34.1727 20.2394 34.9499 19.0517 35.6767C18.7592 35.8558 19.0271 36.3171 19.3209 36.1375C20.5082 35.4106 21.6643 34.6334 22.8352 33.88C23.1229 33.6947 22.8557 33.2328 22.5658 33.4192Z" fill="#211715"/>
<path d="M25.7996 32.8466C25.1582 33.6167 24.3385 34.2187 23.4117 34.6003C23.1774 34.6914 22.9375 34.7677 22.6935 34.8286C22.6594 34.8375 22.6251 34.8458 22.5908 34.8533C22.5273 34.8667 22.5217 34.8687 22.574 34.8594L22.7098 34.9156C22.7275 34.9322 22.7407 34.953 22.7482 34.976C22.7423 34.9478 22.7423 34.9503 22.7482 34.9838C22.7472 34.9671 22.7469 34.9503 22.7472 34.9335C22.7493 34.9104 22.751 34.8614 22.7524 34.8505C22.7924 34.5017 22.9316 34.1368 22.9995 33.7808C23.0636 33.4453 22.5493 33.3015 22.485 33.639C22.4217 33.9714 22.3116 34.2926 22.2513 34.6261C22.2016 34.9003 22.1611 35.3802 22.5663 35.392C22.7713 35.3762 22.9726 35.3287 23.1631 35.2512C23.3898 35.1796 23.6125 35.0956 23.8301 34.9996C24.2435 34.8186 24.6351 34.5912 24.9973 34.322C25.4297 34.0005 25.8252 33.6322 26.1767 33.2239C26.4003 32.9652 26.0245 32.5862 25.7994 32.8465L25.7996 32.8466Z" fill="#211715"/>
<path d="M54.8802 34.3322C54.9268 34.3599 54.8628 34.3161 54.8631 34.3165C54.8729 34.3269 54.8835 34.3367 54.8947 34.3457C54.9048 34.3558 54.914 34.3667 54.9238 34.3773C54.9746 34.4321 54.9095 34.3529 54.9274 34.3798C54.9786 34.4571 55.0306 34.5324 55.0772 34.6129C55.1918 34.8112 55.2933 35.0172 55.3951 35.2224C55.4999 35.4335 55.6029 35.646 55.717 35.8525C55.7969 36.0168 55.9012 36.1679 56.0264 36.3009C56.2112 36.4756 56.5048 36.4778 56.6301 36.2294C56.6641 36.1679 56.6732 36.0957 56.6554 36.0277C56.6376 35.9598 56.5942 35.9013 56.5344 35.8644C56.4732 35.8294 56.4006 35.8198 56.3324 35.8377C56.2641 35.8557 56.2056 35.8996 56.1694 35.9602C56.1653 35.9706 56.1597 35.9804 56.1526 35.9891C56.2169 35.927 56.1953 35.9374 56.1809 35.9516C56.1589 35.9735 56.2268 35.9183 56.2209 35.9222C56.1879 35.9427 56.2796 35.9036 56.2891 35.9024C56.3665 35.893 56.2667 35.8979 56.3435 35.9024C56.3946 35.9056 56.3761 35.9076 56.3618 35.9039C56.3379 35.8975 56.4373 35.939 56.3953 35.9172C56.3533 35.8955 56.4388 35.9633 56.4173 35.9355C56.3998 35.9132 56.3748 35.8927 56.3555 35.8717C56.3145 35.8268 56.3841 35.9144 56.3609 35.8792C56.3514 35.8647 56.3406 35.8511 56.3307 35.8368C56.3061 35.8008 56.2828 35.7638 56.2603 35.7266C56.21 35.6435 56.1636 35.5584 56.1182 35.4731C55.9156 35.0895 55.7418 34.6896 55.5214 34.3154C55.4356 34.1395 55.308 33.9873 55.1498 33.8721C54.8539 33.6962 54.5852 34.1572 54.8804 34.3329L54.8802 34.3322Z" fill="#211715"/>
<path d="M33.0923 34.8794C32.9447 34.749 32.7626 34.6639 32.5679 34.6341C32.3731 34.6043 32.174 34.6312 31.9941 34.7115C31.8676 34.7725 31.7562 34.8609 31.6681 34.9703C31.5799 35.0796 31.5171 35.2072 31.4842 35.3438C31.404 35.6678 31.3934 36.0051 31.4532 36.3335C31.513 36.6619 31.6418 36.9739 31.8311 37.2488C32.0832 37.6194 32.4739 37.9425 32.95 37.8863C33.0201 37.8842 33.0868 37.8555 33.1364 37.8059C33.1859 37.7563 33.2147 37.6896 33.2168 37.6195C33.2164 37.5489 33.1881 37.4813 33.1382 37.4313C33.0883 37.3814 33.0206 37.3532 32.95 37.3527C32.3433 37.4237 31.9938 36.5605 31.9543 36.0662C31.9339 35.8092 31.9375 35.4914 32.0991 35.2772C32.0605 35.3285 32.1696 35.2182 32.1497 35.2322C32.1969 35.1992 32.2505 35.1765 32.307 35.1655C32.3775 35.148 32.4511 35.1471 32.5219 35.1628C32.5928 35.1786 32.6591 35.2106 32.7155 35.2562C32.9723 35.483 33.3511 35.1064 33.0927 34.879L33.0923 34.8794Z" fill="#211715"/>
<path d="M41.8567 35.3324C41.9107 35.2908 41.9732 35.2617 42.0397 35.247C42.1063 35.2324 42.1753 35.2326 42.2418 35.2477C42.2907 35.2541 42.3379 35.2703 42.3805 35.2953C42.423 35.3204 42.4601 35.3537 42.4895 35.3934C42.4628 35.3604 42.483 35.3828 42.494 35.4047C42.5067 35.4297 42.5224 35.4525 42.5341 35.4784C42.5567 35.5353 42.5736 35.5943 42.5847 35.6546C42.6135 35.8089 42.6201 35.9665 42.6044 36.1227C42.577 36.3906 42.494 36.6498 42.3606 36.8837C42.2272 37.1269 41.971 37.4801 41.6494 37.4368C41.5812 37.4204 41.5093 37.4306 41.4484 37.4653C41.3874 37.5 41.342 37.5566 41.3212 37.6235C41.3029 37.6918 41.3122 37.7645 41.3472 37.826C41.3821 37.8874 41.4399 37.9326 41.508 37.9517C42.3257 38.0619 42.8221 37.3092 43.0468 36.6244C43.2288 36.0698 43.2232 35.2133 42.6817 34.855C42.4966 34.7424 42.2805 34.6915 42.0646 34.7096C41.8487 34.7277 41.6441 34.8138 41.4802 34.9556C41.4307 35.0059 41.403 35.0736 41.403 35.1442C41.403 35.2148 41.4307 35.2825 41.4802 35.3328C41.5309 35.3815 41.5985 35.4087 41.6688 35.4087C41.7392 35.4087 41.8067 35.3815 41.8575 35.3328L41.8567 35.3324Z" fill="#211715"/>
<path d="M41.3497 37.3021C41.2972 37.536 41.2232 37.7645 41.1286 37.9847C41.1168 38.0123 41.0266 38.2102 41.068 38.1197C41.0482 38.1628 41.0279 38.2056 41.0065 38.2479C40.8644 38.5189 40.7001 38.7777 40.5154 39.0216C40.0763 39.613 39.4802 40.2381 38.7339 40.4012C38.3987 40.4746 38.5406 40.9891 38.8758 40.9158C39.7374 40.7274 40.4152 40.0308 40.929 39.3539C41.1324 39.0914 41.3125 38.8117 41.4672 38.5178C41.4915 38.4706 41.5142 38.4226 41.5354 38.374C41.5347 38.3756 41.5887 38.2539 41.5591 38.3206C41.5825 38.2685 41.6058 38.2164 41.6278 38.1638C41.7274 37.9313 41.8065 37.6907 41.8642 37.4445C41.9392 37.11 41.4248 36.9672 41.3497 37.3027V37.3021Z" fill="#211715"/>
<path d="M32.6549 37.3538C33.0235 38.9859 34.2673 40.7146 36.0166 40.9854C36.0848 41.0019 36.1567 40.9918 36.2178 40.9571C36.2788 40.9224 36.3242 40.8657 36.3449 40.7986C36.3631 40.7303 36.3537 40.6576 36.3188 40.5962C36.2838 40.5348 36.2261 40.4896 36.1581 40.4703C34.5804 40.2262 33.5008 38.6807 33.1691 37.2114C33.0936 36.8766 32.5789 37.0184 32.6545 37.3534L32.6549 37.3538Z" fill="#211715"/>
<path d="M40.3822 28.9582C39.5953 28.4628 38.7016 28.1623 37.7753 28.0816C36.8489 28.0009 35.9167 28.1424 35.056 28.4943C34.3581 28.7879 33.7285 29.2228 33.2069 29.7717C32.6853 30.3206 32.2829 30.9715 32.0252 31.6834C31.672 32.7259 31.6348 33.8496 31.9185 34.9131C32.0027 35.2458 32.5175 35.1048 32.433 34.7712C32.0343 33.1971 32.3618 31.5074 33.4575 30.2844C33.8877 29.8011 34.4051 29.4032 34.9825 29.1114C35.7699 28.732 36.64 28.5565 37.513 28.6011C38.4379 28.6345 39.3366 28.9171 40.1142 29.419C40.4042 29.6047 40.6721 29.1431 40.3835 28.9582H40.3822Z" fill="#211715"/>
<path d="M42.6349 35.0013C42.9357 33.9205 42.9113 32.7751 42.565 31.7081C42.2775 30.8641 41.7775 30.1083 41.1134 29.5134C40.8586 29.2845 40.48 29.6602 40.7361 29.8908C41.3353 30.4201 41.788 31.0948 42.0504 31.85C42.3708 32.8242 42.3952 33.8715 42.1204 34.8595C42.0337 35.1919 42.5482 35.3338 42.6349 35.0013Z" fill="#211715"/>
<path d="M36.4947 38.7341C36.7628 38.8717 37.0603 38.9425 37.3618 38.9405C37.6476 38.943 37.9843 38.9016 38.2216 38.7254C38.2815 38.6885 38.3248 38.63 38.3426 38.562C38.3605 38.4941 38.3514 38.4218 38.3174 38.3603C38.2812 38.2998 38.2227 38.2559 38.1544 38.2381C38.0862 38.2202 38.0137 38.2297 37.9524 38.2647C37.9238 38.2858 37.8935 38.3046 37.8619 38.321C37.8528 38.3256 37.8435 38.3299 37.8342 38.3343C37.7896 38.3568 37.8539 38.3296 37.8551 38.3262C37.8516 38.3366 37.7866 38.351 37.776 38.3543C37.7129 38.3727 37.6487 38.387 37.5839 38.3973C37.6506 38.3854 37.5764 38.3973 37.5661 38.3985C37.5462 38.4005 37.5261 38.4019 37.5062 38.4031C37.4581 38.4061 37.4099 38.4071 37.3618 38.4067C37.3177 38.4067 37.2736 38.4049 37.2296 38.4018C37.2055 38.4001 37.1815 38.3977 37.1575 38.3955C37.1042 38.3909 37.1819 38.4005 37.1508 38.3955C37.0854 38.3851 37.0205 38.371 36.9566 38.3532C36.9299 38.3453 36.9033 38.3364 36.8766 38.3266C36.8658 38.3226 36.8551 38.3182 36.8443 38.3142C36.7965 38.2967 36.9045 38.3426 36.8618 38.3214C36.8295 38.3054 36.7968 38.2901 36.7648 38.2733C36.7037 38.2376 36.6309 38.2276 36.5625 38.2456C36.494 38.2635 36.4355 38.308 36.3998 38.3691C36.364 38.4302 36.3541 38.5029 36.372 38.5714C36.39 38.6399 36.4344 38.6984 36.4955 38.7341H36.4947Z" fill="#211715"/>
<path d="M37.2371 36.7463C37.2755 36.8852 37.306 37.0263 37.3285 37.1686L37.3189 37.0978C37.3215 37.1171 37.3219 37.1366 37.3201 37.156L37.3295 37.085C37.3282 37.0941 37.3259 37.103 37.3227 37.1117L37.3494 37.0479C37.3467 37.0538 37.3434 37.0594 37.3397 37.0647L37.3814 37.0107C37.3788 37.0141 37.3758 37.0172 37.3725 37.02L37.4258 36.9784C37.4138 36.987 37.4007 36.994 37.3869 36.9994L37.4507 36.9727C37.4325 36.9801 37.4135 36.9854 37.3941 36.9886L37.4651 36.9791C37.4454 36.9816 37.4255 36.9816 37.4058 36.9791L37.4767 36.9886C37.4571 36.9856 37.4376 36.9808 37.4178 36.9782C37.3834 36.9669 37.3465 36.9653 37.3111 36.9734C37.2758 36.9749 37.2415 36.9858 37.2119 37.005C37.1816 37.0226 37.1551 37.0461 37.1339 37.074C37.1127 37.1019 37.0972 37.1338 37.0883 37.1677C37.0794 37.2016 37.0773 37.2369 37.0821 37.2716C37.0868 37.3064 37.0984 37.3398 37.1161 37.3701C37.1331 37.4003 37.1561 37.4267 37.1836 37.4478C37.2111 37.4688 37.2426 37.4841 37.2762 37.4927C37.3257 37.4995 37.3738 37.5113 37.4242 37.5145C37.5048 37.5163 37.5846 37.4979 37.6564 37.4612C37.7002 37.4408 37.7392 37.4113 37.7707 37.3746C37.8021 37.3379 37.8254 37.2949 37.8388 37.2484C37.8581 37.1715 37.8585 37.0911 37.84 37.014C37.8171 36.8768 37.7867 36.7407 37.7509 36.6061C37.7416 36.5723 37.7257 36.5407 37.7042 36.5131C37.6827 36.4854 37.6559 36.4623 37.6255 36.445C37.595 36.4277 37.5614 36.4165 37.5266 36.4122C37.4918 36.4079 37.4566 36.4104 37.4228 36.4197C37.389 36.4291 37.3574 36.4449 37.3297 36.4665C37.3021 36.488 37.2789 36.5148 37.2616 36.5452C37.2443 36.5757 37.2332 36.6093 37.2289 36.6441C37.2245 36.6788 37.2271 36.7141 37.2364 36.7479L37.2371 36.7463Z" fill="#211715"/>
<path d="M34.9919 35.5173C34.9173 35.7454 34.9601 36.2721 35.4065 36.3207C35.997 36.3223 36.0334 35.6864 35.8377 35.3856C35.6771 35.1392 35.2 35.0333 34.9919 35.5173Z" fill="#211715"/>
<path d="M39.7206 35.5584C39.7911 35.7877 39.7394 36.3135 39.2922 36.3544C38.7017 36.3458 38.6758 35.7094 38.8771 35.4119C39.0418 35.1684 39.5221 35.0708 39.7206 35.5584Z" fill="#211715"/>
<path d="M38.7986 32.7328C39.2201 32.9239 39.5994 33.1968 39.9146 33.5356C40.2503 33.8629 40.5232 34.249 40.7198 34.6746C40.7404 34.7417 40.7859 34.7984 40.8469 34.8331C40.9078 34.8678 40.9798 34.878 41.048 34.8614C41.1161 34.8423 41.1738 34.7971 41.2088 34.7356C41.2437 34.6742 41.2531 34.6014 41.2347 34.5331C41.0169 34.0302 40.7059 33.5731 40.3182 33.1858C39.9664 32.8015 39.5415 32.4911 39.0684 32.2729C39.0067 32.2395 38.9347 32.2307 38.8668 32.2485C38.799 32.2663 38.7405 32.3093 38.7032 32.3687C38.668 32.4299 38.6584 32.5026 38.6763 32.5709C38.6942 32.6392 38.7383 32.6977 38.799 32.7337L38.7986 32.7328Z" fill="#211715"/>
<path d="M33.7971 34.6923C34.1469 34.3224 34.519 33.9743 34.9114 33.6499C35.0984 33.4936 35.2937 33.3473 35.4963 33.2117C35.5813 33.1554 35.668 33.1015 35.7573 33.0516C35.7806 33.0388 35.8043 33.0261 35.8281 33.0136C35.8014 33.0198 35.7736 33.0196 35.747 33.013C35.7204 33.0065 35.6957 32.9937 35.6749 32.9759C35.6758 33.0367 35.6799 33.0974 35.6872 33.1578C35.6777 33.4261 35.845 33.6691 36.1373 33.6498C36.3478 33.6365 36.579 33.4532 36.7608 33.3522C37.2041 33.0898 37.6629 32.8546 38.1348 32.648C38.2019 32.6274 38.2586 32.5819 38.2933 32.5209C38.3281 32.4599 38.3382 32.3879 38.3216 32.3197C38.3024 32.2517 38.2572 32.1939 38.1958 32.1589C38.1344 32.124 38.0617 32.1146 37.9934 32.1329C37.4927 32.3478 37.0056 32.5931 36.5348 32.8674C36.4281 32.9268 36.3214 32.9864 36.2133 33.0452C36.1759 33.0608 36.1401 33.0802 36.1066 33.103C36.0444 33.1276 36.0638 33.1384 36.165 33.1354C36.206 33.2182 36.2248 33.2256 36.2213 33.1574C36.2436 33.0098 36.2182 32.8589 36.1489 32.7267C36.1207 32.6693 36.0801 32.6188 36.0301 32.579C35.9801 32.5391 35.9218 32.5108 35.8596 32.4962C35.6268 32.4451 35.3708 32.6533 35.1888 32.7763C34.9765 32.9194 34.7733 33.0767 34.5752 33.2388C34.1678 33.5724 33.7821 33.9316 33.4205 34.3144C33.1845 34.5638 33.5613 34.9414 33.7978 34.6918L33.7971 34.6923Z" fill="#211715"/>
<path d="M48.0633 37.0728C48.1478 36.5994 48.2989 36.1403 48.5123 35.7093C48.6343 35.4427 48.781 35.1881 48.9507 34.949C49.0777 34.7638 49.2431 34.6082 49.4357 34.4928C49.7373 34.3284 49.4684 33.8675 49.1664 34.032C48.648 34.3145 48.3126 34.8917 48.0669 35.4073C47.8217 35.8874 47.6472 36.4004 47.5488 36.9305C47.5322 36.9987 47.5423 37.0706 47.577 37.1316C47.6118 37.1926 47.6685 37.2381 47.7356 37.2586C47.8038 37.2769 47.8766 37.2676 47.938 37.2326C47.9994 37.1977 48.0446 37.1399 48.0637 37.0719L48.0633 37.0728Z" fill="#211715"/>
<path d="M12.2021 56.6664C13.0262 55.5618 13.8723 54.4403 14.5252 53.2231C14.7334 52.8287 14.8954 52.4116 15.008 51.9801C15.1792 51.35 15.3268 50.7128 15.4717 50.0768C15.6824 49.1511 15.8822 48.223 16.0711 47.2925C16.1398 46.9572 15.6255 46.8138 15.5565 47.1505C15.2507 48.6446 14.9374 50.1415 14.5521 51.6176C14.4583 52.0294 14.3198 52.4296 14.1392 52.8113C13.8427 53.3709 13.5121 53.9118 13.1492 54.4309C12.6976 55.0988 12.2229 55.7515 11.7406 56.397C11.7052 56.4583 11.6954 56.531 11.7134 56.5995C11.7314 56.6679 11.7757 56.7264 11.8366 56.7624C11.8981 56.7965 11.9703 56.8055 12.0383 56.7877C12.1062 56.7699 12.1647 56.7266 12.2016 56.6668L12.2021 56.6664Z" fill="#211715"/>
<path d="M59.3748 48.86C59.7175 50.9568 60.2006 53.0335 60.6587 55.1073C60.8124 55.8032 60.9669 56.499 61.1223 57.1947C61.197 57.5297 61.7115 57.3879 61.6369 57.0528C61.1223 54.7433 60.5974 52.4347 60.1429 50.1124C60.0523 49.6487 59.9651 49.1843 59.8894 48.7181C59.8702 48.6501 59.825 48.5923 59.7636 48.5574C59.7022 48.5224 59.6294 48.5131 59.5611 48.5313C59.4938 48.5515 59.4368 48.5969 59.402 48.6581C59.3672 48.7192 59.3573 48.7914 59.3744 48.8596L59.3748 48.86Z" fill="#211715"/>
<path d="M46.7582 50.4315C47.2369 52.6775 47.652 54.9371 48.0709 57.1948C48.1336 57.5319 48.648 57.3891 48.5855 57.0528C48.166 54.7952 47.7514 52.5356 47.2729 50.2896C47.2013 49.9539 46.6869 50.096 46.7582 50.4315Z" fill="#211715"/>
<path d="M43.0508 47.2843C43.0743 48.6345 43.156 49.9832 43.2212 51.332C43.2809 52.5671 43.3086 53.8033 43.3634 55.0386C43.3943 55.7337 43.4284 56.4286 43.4577 57.1237C43.4721 57.4657 44.0058 57.4676 43.9913 57.1237C43.8846 54.5906 43.7863 52.0575 43.6653 49.5251C43.6295 48.778 43.5974 48.031 43.5844 47.284C43.5784 46.941 43.0448 46.94 43.0508 47.284V47.2843Z" fill="#211715"/>
<path d="M30.8182 57.1237C30.9191 54.7296 31.008 52.3347 31.125 49.9418C31.1621 49.1849 31.1945 48.4276 31.2071 47.6698C31.2129 47.3263 30.6793 47.3262 30.6736 47.6698C30.6507 49.0284 30.5651 50.385 30.5015 51.7422C30.4465 52.9129 30.4214 54.0848 30.3681 55.2556C30.3399 55.8783 30.3098 56.5009 30.2835 57.1232C30.269 57.4665 30.8027 57.4659 30.8171 57.1232L30.8182 57.1237Z" fill="#211715"/>
<path d="M35.9289 50.7841C34.8642 48.9384 33.8116 47.0843 32.829 45.1934C32.7642 45.0687 32.7071 44.9355 32.634 44.8155C32.634 44.8155 32.602 44.7345 32.6036 44.7729C32.6036 44.7769 32.5736 44.8339 32.6176 44.7638C32.6633 44.705 32.7146 44.6508 32.7707 44.6019C32.9923 44.3726 33.2243 44.153 33.4563 43.9349C33.4847 43.9059 33.5062 43.8708 33.5192 43.8323C33.5321 43.7937 33.5362 43.7528 33.531 43.7125C33.5259 43.6722 33.5117 43.6335 33.4895 43.5995C33.4673 43.5655 33.4377 43.5369 33.4029 43.5159L32.988 43.2791L32.7946 43.1687L32.6839 43.1056C32.6207 43.0633 32.6115 43.0617 32.6563 43.1008L32.6927 43.2355C32.691 43.2773 32.7254 43.1889 32.7319 43.1772C32.7531 43.1393 32.7755 43.1021 32.7986 43.0654C32.8484 42.9866 32.9017 42.9097 32.9579 42.8353C33.0788 42.6778 33.2091 42.5278 33.3481 42.386C33.6103 42.1062 33.9035 41.8572 34.222 41.6437L33.8301 41.4836C34.1591 42.8462 34.5565 44.1913 35.0208 45.5139C35.4232 46.7145 35.8039 47.9224 36.2213 49.1173C36.4348 49.7268 36.6708 50.3276 36.913 50.926C36.9336 50.9931 36.979 51.0498 37.04 51.0845C37.101 51.1192 37.173 51.1293 37.2412 51.1128C37.3092 51.0936 37.367 51.0485 37.402 50.987C37.4369 50.9255 37.4463 50.8528 37.4279 50.7845C37.0072 49.7453 36.635 48.6945 36.288 47.6288C35.8518 46.2891 35.3809 44.9609 34.9645 43.6145C34.7324 42.8643 34.5185 42.1082 34.3448 41.3422C34.3337 41.303 34.3137 41.2668 34.2865 41.2365C34.2592 41.2061 34.2255 41.1824 34.1877 41.167C34.1499 41.1517 34.1092 41.1451 34.0685 41.1478C34.0278 41.1505 33.9883 41.1625 33.9529 41.1828C33.414 41.5399 32.939 41.9852 32.5477 42.4999C32.3891 42.706 32.0779 43.0602 32.1825 43.3381C32.2456 43.5059 32.4359 43.5782 32.5808 43.6608L33.1338 43.9765L33.0788 43.5575C32.8617 43.7611 32.6457 43.966 32.4376 44.1789C32.258 44.3627 32.0302 44.5557 32.0789 44.8404C32.1218 45.0908 32.308 45.3473 32.4246 45.5712C32.558 45.8273 32.6928 46.0827 32.8292 46.3375C33.3761 47.3608 33.9396 48.3747 34.5119 49.3837C34.8283 49.9416 35.147 50.4981 35.4679 51.0534C35.6395 51.3508 36.1006 51.0824 35.9287 50.7841H35.9289Z" fill="#211715"/>
<path d="M37.6193 50.936C38.0455 49.8444 38.4765 48.7571 38.8433 47.6435C39.2749 46.333 39.7358 45.0318 40.1439 43.7137C40.3727 42.9747 40.5841 42.2299 40.755 41.4754L40.3631 41.6348C40.6935 41.8447 40.9969 42.0943 41.2664 42.3781C41.4146 42.5265 41.5537 42.6837 41.6829 42.8489C41.7349 42.9168 41.7843 42.987 41.8308 43.0586C41.8543 43.0948 41.8773 43.1313 41.899 43.1685C41.909 43.1856 41.9592 43.2938 41.9577 43.2599L41.9941 43.1253C42.0386 43.0859 42.0294 43.0873 41.9665 43.1296L41.8559 43.1924L41.6624 43.3023L41.2476 43.538C41.2128 43.5589 41.1831 43.5875 41.1608 43.6215C41.1386 43.6555 41.1243 43.6941 41.1191 43.7344C41.1139 43.7748 41.1179 43.8157 41.1308 43.8543C41.1437 43.8928 41.1652 43.928 41.1936 43.957C41.4029 44.1526 41.6111 44.3494 41.8124 44.5533C41.873 44.6147 42.0347 44.7401 42.0496 44.8024C42.0381 44.7541 41.9924 44.8788 41.9792 44.9044C41.9488 44.9631 41.9183 45.0218 41.8877 45.0804C41.6427 45.5495 41.3913 46.0152 41.1334 46.4775C40.597 47.4435 40.0412 48.3984 39.4777 49.3493C39.1625 49.8812 38.8452 50.4119 38.5256 50.9414C38.3482 51.2363 38.8094 51.5048 38.9864 51.2106C40.1862 49.2168 41.3845 47.2169 42.4529 45.1487C42.5419 45.0182 42.5834 44.8612 42.5705 44.7038C42.5341 44.5612 42.4554 44.4331 42.3447 44.3362C42.0966 44.0742 41.8344 43.826 41.571 43.5798L41.517 43.9988L42.0699 43.6845C42.2229 43.5975 42.4301 43.5187 42.4817 43.3309C42.5596 43.047 42.2208 42.6759 42.0602 42.4716C41.6643 41.9585 41.1812 41.5191 40.6328 41.1737C40.5974 41.1535 40.5578 41.1416 40.5171 41.139C40.4764 41.1363 40.4357 41.143 40.3979 41.1584C40.3601 41.1738 40.3264 41.1976 40.2992 41.228C40.272 41.2584 40.252 41.2945 40.2409 41.3338C39.917 42.674 39.5257 43.997 39.0683 45.2977C38.6585 46.5161 38.2727 47.7457 37.8225 48.95C37.5915 49.5678 37.3452 50.1799 37.1053 50.7942C37.0871 50.8625 37.0964 50.9353 37.1314 50.9967C37.1663 51.0581 37.2241 51.1033 37.2921 51.1225C37.3603 51.1396 37.4326 51.1298 37.4937 51.095C37.5549 51.0602 37.6003 51.0032 37.6204 50.9358L37.6193 50.936Z" fill="#211715"/>
<path d="M37.2174 41.8752C36.4995 41.3919 35.795 40.887 35.0709 40.4131C35.0199 40.3836 34.9606 40.3716 34.9021 40.3792C34.8437 40.3867 34.7893 40.4133 34.7475 40.4549C34.509 40.7413 34.298 41.0493 34.0572 41.3341C34.0167 41.3765 33.9907 41.4308 33.9832 41.4889C33.9757 41.5471 33.987 41.6062 34.0154 41.6575C34.5448 42.4817 35.0327 43.3447 35.771 44.0053C35.8001 44.0335 35.8353 44.0548 35.8738 44.0676C35.9123 44.0804 35.9532 44.0843 35.9935 44.0791C36.0337 44.0739 36.0723 44.0597 36.1063 44.0376C36.1403 44.0155 36.1689 43.986 36.19 43.9513C36.5292 43.3587 36.9487 42.8164 37.313 42.2399C37.4971 41.9488 37.0356 41.6808 36.8523 41.9707C36.488 42.5471 36.0684 43.0894 35.7293 43.6819L36.1484 43.6286C35.4428 42.9969 34.9821 42.1761 34.4762 41.3884L34.4346 41.7116C34.6747 41.4268 34.8864 41.1188 35.1249 40.8324L34.8016 40.8742C35.5258 41.348 36.2301 41.8529 36.9481 42.3362C37.2337 42.5279 37.5011 42.0659 37.2174 41.8752Z" fill="#211715"/>
<path d="M37.9694 43.7694C37.5225 43.7694 37.0756 43.76 36.6286 43.7598C36.5579 43.7598 36.49 43.7879 36.44 43.8379C36.3899 43.8879 36.3618 43.9558 36.3618 44.0266C36.3618 44.0973 36.3899 44.1652 36.44 44.2152C36.49 44.2652 36.5579 44.2934 36.6286 44.2934C37.0755 44.2934 37.5224 44.3028 37.9694 44.303C38.0402 44.303 38.108 44.2749 38.1581 44.2248C38.2081 44.1748 38.2362 44.1069 38.2362 44.0362C38.2362 43.9654 38.2081 43.8975 38.1581 43.8475C38.108 43.7975 38.0402 43.7694 37.9694 43.7694Z" fill="#211715"/>
<path d="M37.981 43.2055C37.934 43.4562 37.8818 43.7057 37.8241 43.9539C37.7858 44.0903 37.7687 44.2319 37.7732 44.3735C37.7925 44.6163 37.8321 44.859 37.8621 45.1006C37.9791 46.0381 38.096 46.9757 38.2055 47.9142C38.2076 47.9843 38.2364 48.0509 38.286 48.1005C38.3355 48.1501 38.4022 48.1789 38.4723 48.181C38.5429 48.1806 38.6105 48.1523 38.6605 48.1024C38.7104 48.0524 38.7387 47.9848 38.7391 47.9142C38.6312 46.9892 38.5161 46.065 38.4008 45.1408C38.37 44.8938 38.3373 44.6473 38.3096 44.3993C38.3015 44.2972 38.3114 44.1945 38.3388 44.0958C38.396 43.8473 38.4482 43.5979 38.4955 43.3474C38.5583 43.0118 38.0442 42.8679 37.981 43.2055Z" fill="#211715"/>
<path d="M36.3525 47.9659C36.484 47.0398 36.6174 46.1139 36.7458 45.1873C36.7803 44.9369 36.8186 44.6864 36.8455 44.4351C36.8844 44.0742 36.7084 43.7062 36.6257 43.3611C36.5457 43.0276 36.0309 43.1686 36.1112 43.5029C36.1835 43.8045 36.3461 44.1289 36.3113 44.4431C36.2846 44.6813 36.253 44.8905 36.2195 45.1314C36.0948 46.0293 35.9661 46.9266 35.8383 47.8241C35.8218 47.8922 35.832 47.9641 35.8667 48.0251C35.9014 48.0861 35.958 48.1315 36.025 48.1522C36.0933 48.1705 36.166 48.1612 36.2274 48.1262C36.2889 48.0912 36.334 48.0335 36.3532 47.9655L36.3525 47.9659Z" fill="#211715"/>
<path d="M37.5877 42.3504C38.3057 41.8671 39.0102 41.3622 39.7343 40.8884L39.4109 40.8466C39.6494 41.133 39.8606 41.4411 40.1014 41.7259L40.0596 41.4026C39.5538 42.1904 39.0931 43.0112 38.3875 43.6428L38.8066 43.6962C38.4674 43.1036 38.048 42.5615 37.6835 41.9849C37.5005 41.6953 37.0385 41.9628 37.2228 42.2543C37.5872 42.8307 38.0066 43.3729 38.3458 43.9655C38.3669 44.0002 38.3955 44.0297 38.4295 44.0518C38.4635 44.074 38.5021 44.0882 38.5423 44.0933C38.5826 44.0985 38.6235 44.0946 38.662 44.0818C38.7005 44.069 38.7357 44.0477 38.7648 44.0195C39.5031 43.3587 39.991 42.4957 40.5204 41.6717C40.549 41.6205 40.5605 41.5614 40.5529 41.5031C40.5454 41.4449 40.5194 41.3906 40.4786 41.3484C40.2385 41.0635 40.0268 40.7555 39.7883 40.4691C39.7465 40.4275 39.6922 40.4009 39.6337 40.3933C39.5752 40.3858 39.5159 40.3977 39.4649 40.4274C38.7408 40.9012 38.0364 41.4062 37.3184 41.8894C37.0355 42.0804 37.3023 42.5429 37.5877 42.3504Z" fill="#211715"/>
<path d="M36.8888 52.423C36.8003 52.501 36.745 52.61 36.7343 52.7275C36.7236 52.845 36.7583 52.9621 36.8313 53.0548C36.914 53.1438 37.0265 53.1991 37.1474 53.2103C37.2683 53.2215 37.3891 53.1878 37.4867 53.1155C37.5324 53.0748 37.5693 53.0253 37.5953 52.9699C37.6212 52.9146 37.6357 52.8545 37.6377 52.7934C37.6398 52.7323 37.6294 52.6714 37.6073 52.6144C37.5851 52.5574 37.5516 52.5055 37.5088 52.4618C37.4273 52.382 37.3199 52.3342 37.206 52.3271C37.0922 52.32 36.9796 52.354 36.8888 52.423Z" fill="#211715"/>
<path d="M52.7065 42.8804C51.9427 42.4735 51.1901 42.0437 50.421 41.647C50.3595 41.6131 50.2873 41.6042 50.2194 41.622C50.1515 41.6398 50.093 41.683 50.0559 41.7426C49.8481 42.052 49.67 42.3802 49.4598 42.6883C49.431 42.7395 49.4195 42.7986 49.4271 42.8569C49.4346 42.9151 49.4607 42.9694 49.5015 43.0116C50.1161 43.7812 50.6896 44.5748 51.4962 45.1593C51.5265 45.177 51.5599 45.1886 51.5947 45.1934C51.6294 45.1981 51.6647 45.196 51.6986 45.1871C51.7325 45.1782 51.7644 45.1627 51.7923 45.1415C51.8202 45.1203 51.8437 45.0938 51.8613 45.0635C52.1376 44.4391 52.4992 43.8568 52.8023 43.2457C52.9544 42.9389 52.4943 42.6685 52.3416 42.9764C52.0385 43.5875 51.6768 44.1698 51.4006 44.7942L51.7655 44.6986C51.0029 44.1463 50.4594 43.3618 49.8788 42.6346L49.9205 42.958C50.1306 42.65 50.3088 42.3217 50.5167 42.0123L50.1517 42.1081C50.9207 42.5048 51.6734 42.9352 52.4372 43.3415C52.7402 43.5027 53.01 43.042 52.7065 42.8804Z" fill="#211715"/>
<path d="M53.6524 44.6736C53.2077 44.7193 52.7622 44.7563 52.3176 44.802C52.2473 44.8036 52.1804 44.8323 52.1307 44.882C52.081 44.9316 52.0524 44.9986 52.0508 45.0688C52.0515 45.1394 52.0799 45.2068 52.1298 45.2567C52.1796 45.3065 52.2471 45.3349 52.3176 45.3356C52.7622 45.2899 53.2077 45.2529 53.6524 45.2072C53.7226 45.2056 53.7896 45.177 53.8392 45.1273C53.8889 45.0776 53.9176 45.0106 53.9192 44.9404C53.9185 44.8698 53.8901 44.8024 53.8402 44.7525C53.7904 44.7026 53.7229 44.6743 53.6524 44.6736Z" fill="#211715"/>
<path d="M51.7406 44.5751C51.8443 44.8654 52.0518 45.195 52.0416 45.4822C52.0358 45.6462 52.0261 45.8101 52.0175 45.9741C51.984 46.6099 51.9492 47.2458 51.9132 47.8817C51.8697 48.6679 51.8272 49.4542 51.7856 50.2407C51.7672 50.5928 51.7494 50.9449 51.7322 51.297C51.725 51.4482 51.718 51.5994 51.7113 51.7506C51.7047 51.902 51.6722 52.0841 51.7402 52.2235C51.8697 52.4463 52.0211 52.6555 52.1922 52.8482C52.3577 53.0616 52.5275 53.2715 52.7015 53.4778C52.8821 53.6934 53.0656 53.9065 53.2519 54.1172C53.3341 54.2108 53.4169 54.3038 53.5003 54.3964C53.5775 54.5009 53.6698 54.5932 53.7741 54.6706C53.8363 54.7051 53.9064 54.7229 53.9775 54.7219C54.0486 54.721 54.1182 54.7014 54.1794 54.6652C54.2999 54.567 54.3937 54.44 54.4521 54.296C54.6129 54.0146 54.7706 53.7315 54.925 53.4466C55.0651 53.1879 55.2022 52.9276 55.3361 52.6657C55.4725 52.4318 55.5913 52.188 55.6915 51.9364C55.7424 51.7812 55.6801 51.6113 55.6438 51.4578C55.6118 51.3218 55.579 51.1861 55.5455 51.0507C55.4677 50.7339 55.3882 50.4175 55.3069 50.1014C55.1167 49.3578 54.9231 48.6152 54.7261 47.8737C54.555 47.2261 54.3831 46.5787 54.2102 45.9315C54.1583 45.7367 54.1066 45.5417 54.0551 45.3466C54.0138 45.2224 54.0033 45.0901 54.0244 44.9609C54.0556 44.6966 54.0871 44.4329 54.1068 44.1675C54.1322 43.8249 53.5984 43.8265 53.5732 44.1675C53.5539 44.4288 53.5231 44.6885 53.4923 44.9486C53.473 45.0725 53.4747 45.1988 53.4973 45.3221C53.5233 45.4409 53.5588 45.5583 53.59 45.6758C53.7323 46.2126 53.8751 46.7493 54.0184 47.286C54.381 48.6519 54.7471 50.0176 55.0794 51.3914C55.1112 51.5225 55.1352 51.6582 55.1728 51.7872C55.177 51.8013 55.1803 51.8158 55.1827 51.8304C55.1744 51.7721 55.1903 51.775 55.1588 51.825C55.1244 51.8878 55.0933 51.9522 55.0654 52.0181C54.9943 52.1623 54.9222 52.3059 54.8491 52.4488C54.6996 52.7404 54.5461 53.0299 54.3886 53.3172C54.3059 53.4684 54.2222 53.6192 54.1375 53.7697C54.0945 53.846 54.0513 53.9222 54.0078 53.9984C53.9916 54.0271 53.9752 54.0557 53.9588 54.0843L53.9091 54.1703C53.8725 54.217 53.8961 54.2214 53.98 54.1837L54.0977 54.2522C53.9204 54.0893 53.7577 53.9113 53.6114 53.7201C53.4379 53.5229 53.2665 53.3239 53.0973 53.123C52.9292 52.9229 52.7638 52.7205 52.6029 52.5143C52.4495 52.3426 52.3148 52.1551 52.2012 51.9548L52.2376 52.0896C52.2279 51.8732 52.2352 51.6565 52.2593 51.4413C52.2715 51.1795 52.2844 50.9178 52.2978 50.6561C52.3288 50.0509 52.3609 49.4458 52.3943 48.8407C52.4499 47.8215 52.5094 46.8025 52.5611 45.783C52.567 45.669 52.5779 45.5536 52.5769 45.4394C52.5735 45.0911 52.3698 44.7551 52.2554 44.4343C52.1409 44.1134 51.6249 44.2516 51.7407 44.5762L51.7406 44.5751Z" fill="#211715"/>
<path d="M53.131 43.2757C53.7954 42.7212 54.4442 42.1465 55.1156 41.6006H54.7384C55.0052 41.861 55.2469 42.1456 55.5155 42.4041L55.4738 42.0809C55.0533 42.9134 54.6813 43.7866 54.0464 44.4851L54.4654 44.5391C54.0536 43.9655 53.5665 43.4523 53.1305 42.8983C53.0803 42.8487 53.0125 42.8208 52.9418 42.8208C52.8712 42.8208 52.8034 42.8487 52.7531 42.8983C52.7047 42.9492 52.6777 43.0167 52.6777 43.0869C52.6777 43.1572 52.7047 43.2247 52.7531 43.2756C53.1609 43.7936 53.6202 44.2723 54.0047 44.8083C54.0257 44.843 54.0543 44.8725 54.0884 44.8946C54.1224 44.9167 54.1609 44.9309 54.2012 44.9361C54.2414 44.9413 54.2823 44.9373 54.3208 44.9246C54.3593 44.9118 54.3945 44.8905 54.4237 44.8623C55.0921 44.1263 55.4909 43.2274 55.934 42.3499C55.9625 42.2987 55.9738 42.2396 55.9663 42.1814C55.9588 42.1233 55.9328 42.069 55.8923 42.0267C55.6236 41.768 55.3817 41.4835 55.1151 41.2231C55.0641 41.1748 54.9966 41.1479 54.9265 41.1479C54.8563 41.1479 54.7888 41.1748 54.7378 41.2231C54.0663 41.7691 53.4172 42.3437 52.7531 42.8983C52.4898 43.1187 52.8691 43.4945 53.131 43.2757Z" fill="#211715"/>
<path d="M20.9055 52.4506C20.8096 52.5147 20.7419 52.6131 20.7163 52.7256C20.6907 52.8381 20.7092 52.9561 20.7679 53.0554C20.8365 53.1523 20.9383 53.2205 21.054 53.247C21.1696 53.2735 21.291 53.2565 21.3949 53.1992C21.4444 53.1657 21.4866 53.1225 21.5189 53.0723C21.5513 53.022 21.5731 52.9657 21.5831 52.9068C21.5931 52.8479 21.591 52.7875 21.577 52.7294C21.563 52.6713 21.5373 52.6167 21.5016 52.5688C21.433 52.4808 21.335 52.4205 21.2255 52.3988C21.1161 52.3771 21.0025 52.3955 20.9055 52.4506Z" fill="#211715"/>
<path d="M21.8016 50.7467C22.8938 48.8403 23.8909 46.8769 24.8012 44.8772C25.0866 44.2502 25.3577 43.6162 25.6042 42.9727L25.1583 43.0903C25.4411 43.317 25.6957 43.5767 25.9166 43.8641C26.0277 44.0045 26.1301 44.1515 26.2235 44.3043C26.2804 44.3977 26.4361 44.5984 26.4261 44.7133L26.5043 44.5246C26.4546 44.558 26.4001 44.5833 26.3426 44.5997C26.2655 44.6358 26.189 44.6731 26.1127 44.7106C25.9703 44.7808 25.8283 44.8519 25.6847 44.9192C25.6497 44.9401 25.62 44.9686 25.5977 45.0026C25.5753 45.0366 25.561 45.0753 25.5558 45.1156C25.5506 45.156 25.5547 45.197 25.5676 45.2355C25.5806 45.2741 25.6021 45.3092 25.6306 45.3382C25.745 45.4482 25.8634 45.5534 25.9796 45.6613C26.0343 45.7122 26.0886 45.7635 26.1408 45.817C26.183 45.8604 26.2403 45.9573 26.2922 45.9847L26.3222 46.023C26.3479 45.9661 26.3458 45.963 26.316 46.0139C26.2676 46.0713 26.2234 46.1322 26.1837 46.196C26.0934 46.3195 26.0025 46.4426 25.9109 46.5651C25.5536 47.0437 25.189 47.5166 24.817 47.9838C24.0485 48.9537 23.2602 49.9077 22.4682 50.8584C22.2498 51.1204 22.6253 51.4999 22.8454 51.2356C23.5192 50.4268 24.1903 49.6158 24.8488 48.7945C25.5024 47.9798 26.1605 47.161 26.7607 46.3058C27.1258 45.7855 26.3344 45.2745 26.0082 44.961L25.9548 45.38C26.1071 45.3085 26.2575 45.2333 26.4083 45.1587C26.5536 45.0875 26.7538 45.034 26.8678 44.9176C27.0959 44.6846 26.8411 44.2992 26.7093 44.076C26.4052 43.5536 26.0076 43.0914 25.5365 42.7127C25.5028 42.6811 25.4617 42.6586 25.417 42.6472C25.3723 42.6359 25.3254 42.6361 25.2808 42.6479C25.2362 42.6597 25.1953 42.6827 25.162 42.7146C25.1288 42.7465 25.1041 42.7864 25.0905 42.8305C24.6636 43.9446 24.1585 45.0266 23.6353 46.0987C23.1541 47.0842 22.6739 48.073 22.1523 49.0375C21.8903 49.5221 21.6155 49.9997 21.3416 50.4782C21.1706 50.7766 21.6315 51.0458 21.8024 50.7475L21.8016 50.7467Z" fill="#211715"/>
<path d="M21.7935 50.602C21.5361 49.6132 21.2733 48.6277 21.0714 47.6258C20.8345 46.4519 20.5721 45.2837 20.356 44.1062C20.2352 43.4479 20.1303 42.7866 20.0626 42.1206C20.0473 41.9701 19.9007 41.7899 19.7248 41.8634C19.1552 42.1065 18.6347 42.4515 18.189 42.8815C18.0057 43.0569 17.6466 43.3681 17.7909 43.65C17.8855 43.7811 18.003 43.8941 18.1378 43.9835C18.2789 44.107 18.4179 44.2328 18.5606 44.3543L18.614 43.9352C18.4043 44.0498 18.1863 44.1498 17.9809 44.272C17.7702 44.3973 17.4998 44.5572 17.4976 44.8343C17.4957 45.0593 17.6403 45.3075 17.7206 45.513C17.8131 45.7497 17.9074 45.9857 18.0034 46.221C18.4087 47.2159 18.8382 48.2007 19.2772 49.1812C19.5224 49.729 19.7702 50.276 20.0205 50.822C20.0566 50.8827 20.1151 50.9267 20.1834 50.9446C20.2517 50.9625 20.3243 50.9528 20.3855 50.9177C20.4454 50.8808 20.4887 50.8223 20.5065 50.7544C20.5244 50.6864 20.5153 50.6142 20.4813 50.5527C19.9626 49.418 19.4483 48.281 18.9582 47.1337C18.72 46.5764 18.4895 46.0162 18.2667 45.4529C18.211 45.3106 18.1559 45.1683 18.1016 45.026C18.0876 44.9714 18.0676 44.9185 18.0418 44.8683C18.028 44.8092 18.0227 44.814 18.026 44.8829C18.055 44.861 18.0847 44.8398 18.1149 44.8194C18.3569 44.6549 18.6272 44.5368 18.8833 44.3969C18.9185 44.3762 18.9485 44.3478 18.971 44.3137C18.9935 44.2797 19.008 44.241 19.0134 44.2006C19.0187 44.1601 19.0148 44.119 19.0019 44.0803C18.9889 44.0416 18.9674 44.0063 18.9388 43.9772C18.8178 43.8744 18.6996 43.7685 18.5805 43.6635C18.5237 43.6133 18.4667 43.5633 18.409 43.5142C18.3664 43.4779 18.2777 43.4303 18.2522 43.3808L18.2789 43.5864C18.2974 43.4832 18.4766 43.3462 18.5492 43.2754C18.6831 43.1457 18.8254 43.0249 18.9751 42.9138C19.2498 42.7 19.5493 42.5202 19.867 42.378L19.5292 42.1207C19.6677 43.3317 19.8693 44.5347 20.1333 45.7247C20.3632 46.8311 20.5711 47.9449 20.8387 49.0429C20.9773 49.612 21.1311 50.1768 21.2789 50.744C21.3655 51.076 21.8802 50.9353 21.7934 50.6022L21.7935 50.602Z" fill="#211715"/>
<path d="M49.4359 34.4928C49.7809 34.3297 50.2262 34.3838 50.5934 34.414C50.9841 34.4614 51.3776 34.4805 51.771 34.4712C52.5262 34.4244 53.268 34.2526 54.0233 34.2076C54.202 34.1931 54.3816 34.1946 54.56 34.2121C54.6203 34.222 54.6799 34.2354 54.7386 34.2522C54.7909 34.2675 54.7497 34.2512 54.7829 34.2684C54.798 34.2763 54.8675 34.3238 54.8265 34.2907C54.8776 34.3388 54.9451 34.3656 55.0152 34.3656C55.0854 34.3656 55.1529 34.3388 55.2039 34.2907C55.2534 34.2404 55.2812 34.1726 55.2812 34.102C55.2812 34.0314 55.2534 33.9636 55.2039 33.9133C54.9566 33.7132 54.6444 33.6707 54.3343 33.666C53.9269 33.6716 53.5205 33.7075 53.1185 33.7735C52.7171 33.8282 52.3166 33.8936 51.9127 33.9273C51.507 33.9502 51.1 33.9376 50.6965 33.8896C50.1851 33.8442 49.6433 33.8069 49.1666 34.0323C48.8564 34.1791 49.1266 34.6393 49.4359 34.4931V34.4928Z" fill="#211715"/>
<path d="M24.3677 44.5222C22.9765 45.0101 21.4969 44.652 20.2499 43.9546C19.9498 43.7868 19.6805 44.2481 19.9805 44.4154C21.344 45.1779 22.9883 45.5702 24.5095 45.0367C24.8314 44.9239 24.6929 44.4082 24.3677 44.5222Z" fill="#211715"/>
</svg>
