<svg width="74" height="74" viewBox="0 0 74 74" fill="none" xmlns="http://www.w3.org/2000/svg">
<g clip-path="url(#clip0_1897_1110)">
<rect width="74" height="74" rx="15" fill="#F58634" fill-opacity="0.4"/>
<g clip-path="url(#clip1_1897_1110)">
<path d="M48.3141 32.5477C48.3141 40.9191 43.2485 43.8422 36.9998 43.8422C30.7511 43.8422 25.6855 40.9191 25.6855 32.5477C25.6855 24.1762 36.9998 13.5264 36.9998 13.5264C36.9998 13.5264 48.3141 24.1762 48.3141 32.5477Z" fill="#F58634"/>
<path d="M36.1899 42.5186L36.2973 35.5228L40.7712 26.868L36.3142 34.4254L36.3625 31.2797L39.4459 25.0181L36.3753 30.4473L36.4623 24.7898L39.764 19.8048L36.4759 23.9002L36.5302 13.5264L36.1889 27.2594L36.217 26.6929L32.8601 21.2595L36.1632 27.7804L35.8504 34.0989L35.841 33.9312L31.9712 28.2133L35.8294 34.5237L35.7902 35.3139L35.7832 35.3257L35.7864 35.3906L34.9929 51.4211H36.0531L36.1803 43.141L40.029 36.8461L36.1899 42.5186Z" fill="#3F3D56"/>
<path d="M58.3714 40.1268C58.3714 48.4983 53.5873 51.4213 47.6857 51.4213C41.7842 51.4213 37 48.4983 37 40.1268C37 31.7553 47.6857 21.1055 47.6857 21.1055C47.6857 21.1055 58.3714 31.7553 58.3714 40.1268Z" fill="#13524A"/>
<path d="M46.8502 50.0977L46.9731 43.1019L52.086 34.4471L46.9923 42.0045L47.0475 38.8589L50.5714 32.5973L47.0621 38.0264V38.0265L47.1615 32.3689L50.9349 27.3839L47.1771 31.4794L47.2392 21.1055L46.8491 34.8386L46.8812 34.2721L43.0447 28.8387L46.8196 35.3596L46.4622 41.678L46.4515 41.5103L42.0288 35.7925L46.4382 42.1028L46.3935 42.893L46.3854 42.9049L46.389 42.9698L45.4822 59.0002H46.6938L46.8392 50.7201L51.2377 44.4253L46.8502 50.0977Z" fill="#F2F2F2"/>
<path d="M38.257 40.1268C38.257 48.4983 33.1914 51.4213 26.9427 51.4213C20.694 51.4213 15.6284 48.4983 15.6284 40.1268C15.6284 31.7553 26.9427 21.1055 26.9427 21.1055C26.9427 21.1055 38.257 31.7553 38.257 40.1268Z" fill="#13524A"/>
<path d="M26.1327 50.0977L26.2402 43.1019L30.7141 34.4471L26.2571 42.0045L26.3054 38.8589L29.3887 32.5973L26.3182 38.0264V38.0265L26.4051 32.3689L29.7068 27.3839L26.4187 31.4794L26.4731 21.1055L26.1318 34.8386L26.1599 34.2721L22.803 28.8387L26.106 35.3596L25.7932 41.678L25.784 41.5103L21.9141 35.7925L25.7722 42.1028L25.7331 42.893L25.7261 42.9049L25.7293 42.9698L24.9357 59.0002H25.9959L26.1232 50.7201L29.9719 44.4253L26.1327 50.0977Z" fill="#F2F2F2"/>
<path d="M63.2463 45.1561V58.7848H10.9702V45.1561L37.1082 31.5273L37.1627 31.5556L63.2463 45.1561Z" fill="#F2F2F2"/>
<path opacity="0.1" d="M63.2462 45.1566V58.7853H37.1626V31.5562L63.2462 45.1566Z" fill="black"/>
<path d="M34.8753 39.8684L32.915 40.6094V37.6878L34.8753 36.8276V39.8684Z" fill="#3F3D56"/>
<path d="M13.2027 48.0461L12.5493 48.2934V46.5197L13.2027 46.2305V48.0461Z" fill="#3F3D56"/>
<path d="M15.4899 47.2829L14.7275 47.569V45.6475L15.4899 45.3125V47.2829Z" fill="#3F3D56"/>
<path d="M17.9943 46.3012L17.123 46.6293V44.5567L17.9943 44.1729V46.3012Z" fill="#3F3D56"/>
<path d="M21.0442 45.1017L19.9551 45.5133V43.3573L21.0442 42.8789V45.1017Z" fill="#3F3D56"/>
<path d="M24.7473 43.6847L23.4404 44.1792V41.8312L24.7473 41.2573V43.6847Z" fill="#3F3D56"/>
<path d="M29.2122 42.0493L27.6875 42.6243V39.9777L29.2122 39.3086V42.0493Z" fill="#3F3D56"/>
<path d="M13.2027 51.6445L12.5493 51.809V50.0091L13.2027 49.8022V51.6445Z" fill="#3F3D56"/>
<path d="M15.4899 51.0988L14.7275 51.2899V49.3543L15.4899 49.1138V51.0988Z" fill="#3F3D56"/>
<path d="M17.9943 50.444L17.123 50.6632V48.5905L17.9943 48.3154V50.444Z" fill="#3F3D56"/>
<path d="M21.0442 49.6812L19.9551 49.955V47.7186L21.0442 47.3755V49.6812Z" fill="#3F3D56"/>
<path d="M24.7473 48.7004L23.4404 49.0306V46.6288L24.7473 46.2173V48.7004Z" fill="#3F3D56"/>
<path d="M29.2118 47.6099L27.5781 48.0212V45.3203L29.2118 44.8057V47.6099Z" fill="#3F3D56"/>
<path d="M34.8753 46.1927L32.915 46.686V43.685L34.8753 43.0693V46.1927Z" fill="#3F3D56"/>
<path d="M34.8753 52.407L32.915 52.6568V49.6812L34.8753 49.3101V52.407Z" fill="#3F3D56"/>
<path d="M13.2027 55.1326L12.5493 55.2168V53.4973L13.2027 53.3726V55.1326Z" fill="#3F3D56"/>
<path d="M15.4899 54.915L14.7275 55.0112V53.1705L15.4899 53.0273V54.915Z" fill="#3F3D56"/>
<path d="M17.9943 54.5872L17.123 54.6976V52.6247L17.9943 52.4585V54.5872Z" fill="#3F3D56"/>
<path d="M21.0442 54.1516L19.9551 54.2909V52.08L21.0442 51.8721V54.1516Z" fill="#3F3D56"/>
<path d="M24.7473 53.7155L23.4404 53.8815V51.4259L24.7473 51.1768V53.7155Z" fill="#3F3D56"/>
<path d="M29.2118 53.1702L27.5781 53.3769V50.6625L29.2118 50.3521V53.1702Z" fill="#3F3D56"/>
<path d="M61.1226 48.0461L61.7761 48.2934V46.5197L61.1226 46.2305V48.0461Z" fill="#3F3D56"/>
<path d="M58.835 47.2829L59.5974 47.569V45.6475L58.835 45.3125V47.2829Z" fill="#3F3D56"/>
<path d="M56.3306 46.3012L57.2018 46.6293V44.5567L56.3306 44.1729V46.3012Z" fill="#3F3D56"/>
<path d="M53.2803 45.1017L54.3694 45.5133V43.3573L53.2803 42.8789V45.1017Z" fill="#3F3D56"/>
<path d="M49.5781 43.6847L50.885 44.1792V41.8312L49.5781 41.2573V43.6847Z" fill="#3F3D56"/>
<path d="M45.1123 42.0493L46.6371 42.6243V39.9777L45.1123 39.3086V42.0493Z" fill="#3F3D56"/>
<path d="M61.1226 51.6445L61.7761 51.809V50.0091L61.1226 49.8022V51.6445Z" fill="#3F3D56"/>
<path d="M58.835 51.0988L59.5974 51.2899V49.3543L58.835 49.1138V51.0988Z" fill="#3F3D56"/>
<path d="M56.3306 50.444L57.2018 50.6632V48.5905L56.3306 48.3154V50.444Z" fill="#3F3D56"/>
<path d="M53.2803 49.6812L54.3694 49.955V47.7186L53.2803 47.3755V49.6812Z" fill="#3F3D56"/>
<path d="M49.5781 48.7004L50.885 49.0306V46.6288L49.5781 46.2173V48.7004Z" fill="#3F3D56"/>
<path d="M45.1123 47.6099L46.746 48.0212V45.3203L45.1123 44.8057V47.6099Z" fill="#3F3D56"/>
<path d="M39.4492 46.1927L41.4096 46.686V43.685L39.4492 43.0693V46.1927Z" fill="#3F3D56"/>
<path d="M39.4492 52.407L41.4096 52.6568V49.6812L39.4492 49.3101V52.407Z" fill="#3F3D56"/>
<path d="M61.1226 55.1326L61.7761 55.2168V53.4973L61.1226 53.3726V55.1326Z" fill="#3F3D56"/>
<path d="M58.835 54.915L59.5974 55.0112V53.1705L58.835 53.0273V54.915Z" fill="#3F3D56"/>
<path d="M56.3306 54.5872L57.2018 54.6976V52.6247L56.3306 52.4585V54.5872Z" fill="#3F3D56"/>
<path d="M53.2803 54.1516L54.3694 54.2909V52.08L53.2803 51.8721V54.1516Z" fill="#3F3D56"/>
<path d="M49.5781 53.7155L50.885 53.8815V51.4259L49.5781 51.1768V53.7155Z" fill="#3F3D56"/>
<path d="M45.1123 53.1702L46.746 53.3769V50.6625L45.1123 50.3521V53.1702Z" fill="#3F3D56"/>
<path d="M41.3016 40.631L39.3413 39.8909V36.8149L41.3016 37.6755V40.631Z" fill="#3F3D56"/>
<path d="M59.7086 56.3584H59.5488V58.9179H59.7086V56.3584Z" fill="#2F2E41"/>
<path d="M61.5908 57.0552H61.4775V58.8688H61.5908V57.0552Z" fill="#2F2E41"/>
<path d="M63.2636 57.2759H63.1641V58.8699H63.2636V57.2759Z" fill="#2F2E41"/>
<path d="M55.0233 55.5467V58.8394L52.8996 58.8362L50.7759 58.8328V55.1323L52.8996 55.3395L55.0233 55.5467Z" fill="#3F3D56"/>
<path d="M19.3018 58.8394L23.5491 58.8326V55.1323L19.3018 55.5462V58.8394Z" fill="#3F3D56"/>
<path d="M88.1659 58.7305H-7V58.9485H88.1659V58.7305Z" fill="#2F2E41"/>
<path opacity="0.1" d="M55.0235 55.5465V58.8392L52.8999 58.836V55.3394L55.0235 55.5465Z" fill="black"/>
<path d="M36.8902 55.8413H36.6724V58.8941H36.8902V55.8413Z" fill="#2F2E41"/>
<path d="M38.0383 54.7548C38.0383 55.8245 37.4675 56.7173 36.7814 56.7479C36.1143 56.7777 35.5869 55.9772 35.5869 54.9607C35.5869 53.9441 36.8903 51.1533 36.8903 51.1533C36.8903 51.1533 38.0383 53.685 38.0383 54.7548Z" fill="#F58634"/>
<path d="M11.2652 56.8198H11.1353V58.6408H11.2652V56.8198Z" fill="#2F2E41"/>
<path d="M11.9505 56.1716C11.9505 56.8097 11.61 57.3422 11.2007 57.3605C10.8028 57.3782 10.4883 56.9008 10.4883 56.2944C10.4883 55.6881 11.2657 54.0234 11.2657 54.0234C11.2657 54.0234 11.9505 55.5335 11.9505 56.1716Z" fill="#F58634"/>
<path d="M60.5076 56.4594C60.5076 57.0663 60.1256 57.5403 59.6287 57.5169C59.1012 57.4922 58.6489 56.9224 58.6489 56.2459C58.6489 55.5693 59.6287 53.8789 59.6287 53.8789C59.6287 53.8789 60.5076 55.8525 60.5076 56.4594Z" fill="#F58634"/>
<path d="M62.1574 57.1269C62.1574 57.5569 61.8867 57.8928 61.5346 57.8762C61.1608 57.8587 60.8403 57.455 60.8403 56.9755C60.8403 56.4961 61.5346 55.2983 61.5346 55.2983C61.5346 55.2983 62.1574 56.6968 62.1574 57.1269Z" fill="#F58634"/>
<path d="M63.7615 57.339C63.7615 57.7169 63.5236 58.0121 63.2142 57.9976C62.8857 57.9822 62.604 57.6274 62.604 57.206C62.604 56.7847 63.2142 55.7319 63.2142 55.7319C63.2142 55.7319 63.7615 56.9611 63.7615 57.339Z" fill="#F58634"/>
</g>
</g>
<defs>
<clipPath id="clip0_1897_1110">
<rect width="74" height="74" rx="15" fill="white"/>
</clipPath>
<clipPath id="clip1_1897_1110">
<rect width="88" height="48" fill="white" transform="translate(-7 11)"/>
</clipPath>
</defs>
</svg>
