<svg width="183" height="31" viewBox="0 0 183 31" fill="none" xmlns="http://www.w3.org/2000/svg">
<g clip-path="url(#clip0_181_274)">
<mask id="mask0_181_274" style="mask-type:alpha" maskUnits="userSpaceOnUse" x="-13" y="-14" width="206" height="60">
<rect x="-12.403" y="-13.9111" width="205.368" height="59.0823" fill="white"/>
</mask>
<g mask="url(#mask0_181_274)">
<path d="M10.3179 29.9062C10.6811 30.1901 11.0848 30.4235 11.5158 30.6014C11.4842 30.607 11.4517 30.6119 11.4197 30.6167C10.3459 30.7842 8.38129 31.0006 6.09842 30.6588C4.75272 30.4566 3.9386 30.1567 3.28141 29.8148C2.36082 29.3354 1.77473 28.7868 1.53822 28.5498C1.12601 28.1391 0.567906 27.5822 0.24152 26.6938C-0.0892867 25.7967 -0.00603194 25.0417 0.0624871 24.4167C0.092326 24.1436 0.317776 23.0287 1.04201 21.7178C1.54596 20.8061 1.98802 20.187 2.92408 19.2329C3.22394 18.9265 4.03917 18.1965 5.26035 17.263L6.24357 20.2158C5.86045 20.565 5.35134 21.0719 4.8474 21.7599C4.28783 22.5239 3.52601 23.5526 3.28141 25.0497C3.158 25.8096 3.04933 26.9978 3.76988 28.1277C4.30367 28.966 4.99991 29.3708 5.29388 29.5195C5.54843 29.6481 6.21851 30.0362 7.70899 30.1063C8.75961 30.1567 9.66988 30.0337 10.3179 29.9062Z" fill="#C4C4C6"/>
<path d="M36.2376 5.73744C36.235 6.65884 36.0372 7.38325 35.7012 8.47525C35.4235 9.37476 35.1509 10.012 34.6727 11.1321C34.2553 12.107 33.9518 12.617 33.6033 13.2831C33.4139 13.6437 33.1815 14.2239 32.3493 15.4535L30.6422 10.3222C30.938 9.70865 31.2309 9.05651 31.4976 8.39117C32.0237 7.07438 32.0959 6.90136 32.3976 6.09565C32.5843 5.59534 32.8157 4.79901 32.9008 4.01589C32.9608 3.45895 32.9557 3.07503 32.6241 2.70327C32.3283 2.37112 31.7809 2.23701 31.1407 2.17378C30.5785 2.11784 29.4848 2.22068 29.2081 2.27002C28.089 2.46875 27.5696 2.57229 26.744 2.8082C25.5656 2.16891 24.1182 1.97817 22.7183 2.39197L14.8619 4.71737C15.5209 4.22922 16.0598 3.92035 16.0598 3.92035C18.2289 2.6449 19.3097 2.14598 20.8112 1.6012C22.7334 0.902854 24.2891 0.565839 24.8351 0.462302C25.7332 0.293448 26.7816 0.0193202 28.1888 0.00229574C29.5308 -0.0147287 30.7163 0.0516323 32.1242 0.589118C32.5829 0.763879 33.5462 1.1815 34.494 2.02299C34.9379 2.41664 35.4625 2.8822 35.8353 3.66706C36.2313 4.503 36.2383 5.15965 36.2376 5.73744Z" fill="#C4C4C6"/>
<path d="M16.8751 27.0739C15.5485 27.9654 13.6672 29.0849 11.2407 29.6887C11.0823 29.7283 10.7607 29.818 10.3175 29.9062C9.59143 29.3402 9.02522 28.5773 8.72241 27.6673L6.24284 20.2162C6.35593 20.1127 6.45797 20.0237 6.54528 19.9469C7.3885 19.2083 8.09653 18.71 9.0547 18.1389C9.90676 17.6306 10.9084 17.1323 12.1554 16.6477C12.7227 16.427 12.9533 16.3277 13.7169 16.0998C14.2286 15.9469 14.6169 15.867 14.8062 15.8565C14.9201 15.8499 14.7444 16.0376 14.5045 16.4045C14.2003 16.8707 13.9431 17.363 13.655 17.8383C13.0354 18.8591 12.7253 19.3702 12.6711 19.9473C12.5897 20.8145 12.9669 21.4951 13.2075 21.9294C13.325 22.1413 13.6326 22.6778 14.1579 23.0568C14.5462 23.3372 14.7108 23.25 14.7613 23.2257C14.9337 23.1433 15.0158 22.8272 15.0405 22.6462C15.1083 22.1587 15.2512 21.6827 15.3986 21.2123C15.5658 20.6748 15.7312 20.3368 16.17 19.5359C16.8213 18.3452 16.6953 18.7132 17.2877 17.7431C17.6398 17.166 17.88 16.811 18.3943 15.9879C18.4742 15.8604 18.6275 15.6637 18.6916 15.5824C18.71 15.5591 18.7402 15.5463 18.7711 15.5484C20.154 15.6363 21.1874 15.8927 21.975 16.2714C22.8639 16.698 23.4249 17.1532 23.4919 17.9648C23.4989 18.0482 23.57 18.3762 23.7937 18.2817C24.1974 18.1104 24.2077 16.9141 24.0283 16.2818C23.8611 15.6908 23.8268 15.2972 23.0709 14.3118C22.6193 13.7226 22.0947 13.421 21.3903 13.1358C21.1656 13.0451 20.8094 12.8933 20.5298 12.8724C20.6635 12.6403 20.7928 12.4544 20.9427 12.2192C21.3634 11.5588 21.6368 11.2381 21.7664 10.711C21.8751 10.2705 21.7543 9.61901 21.5023 8.87306C21.3019 8.27825 20.9317 7.80122 20.4506 7.38012C20.3342 7.27763 19.9382 7.07959 19.6902 7.21127C19.4604 7.33426 19.5035 7.67857 19.4221 8.13927C19.358 8.50235 19.1804 9.06415 18.7966 9.73088C18.4385 10.3531 18.0885 10.8357 17.768 11.3128C17.414 11.8381 17.2033 12.1404 16.9513 12.4961C16.7981 12.7122 16.6496 12.7036 16.3369 12.7362C15.5747 12.8161 14.6106 13.0093 13.3972 13.3578C12.3687 13.6538 11.7 13.8921 11.1501 14.0853C10.4954 14.3157 9.45549 14.686 8.19931 15.351C6.97371 15.9993 6.13122 16.616 5.56059 17.0378C5.45781 17.1139 5.35651 17.1897 5.25889 17.264L3.8292 12.9687C2.99518 10.4629 4.47276 7.79288 7.13064 7.00663L14.8597 4.71841C14.4758 5.00296 14.0514 5.34796 13.669 5.72806C13.5114 5.88475 12.9783 6.32218 12.9345 6.71513C12.908 6.95938 12.9875 7.19112 13.1846 7.59137C13.3139 7.85403 13.5025 8.1021 13.8326 8.47663C14.0194 8.68857 14.2577 8.92031 14.6828 9.22502C14.9175 9.39387 15.3264 9.61206 15.4763 9.49914C15.6657 9.356 15.3264 9.02142 15.4575 8.56245C15.5828 8.12503 15.9007 7.93915 16.4268 7.54898C16.8629 7.22552 17.9025 6.60152 18.8857 6.07306C20.6031 5.14992 22.0483 4.56241 22.1614 4.51307C24.3024 3.57638 25.2569 3.25118 26.3171 2.93432C26.4688 2.88915 26.6092 2.84781 26.7414 2.80994C27.8009 3.3846 28.6434 4.32164 29.0376 5.50744L30.6404 10.3243C30.0252 11.6046 29.3993 12.7129 28.9915 13.412C27.9973 15.1169 26.681 17.3735 24.4759 20.0327C20.9306 24.3062 17.6052 26.583 16.8751 27.0739Z" fill="#C4C4C6"/>
<path d="M30.629 26.1668L15.0446 30.7807C13.8363 31.1379 12.5919 31.0451 11.5162 30.6014C13.9041 30.2168 15.6086 29.4931 17.0099 28.8868C19.4132 27.848 21.0724 26.731 22.2413 25.935C23.1847 25.2933 24.4413 24.2909 25.8186 23.0711C27.6237 21.4715 28.916 19.9963 29.7088 19.0221C30.4628 18.0947 30.9462 17.4815 31.9003 16.1088C32.0649 15.8718 32.2149 15.6537 32.3493 15.4532L33.9304 20.2044C34.7652 22.7111 33.2865 25.3805 30.629 26.1668Z" fill="#C4C4C6"/>
<path d="M53.5548 24.6583C53.5548 21.3233 53.5548 18.157 53.5548 14.6432C55.0572 16.0527 56.291 17.353 57.6143 18.6334C57.6541 19.1793 57.5745 19.755 57.6342 20.4994C59.3755 20.5392 61.246 20.7476 62.9375 20.4002C64.9076 19.9932 66.1314 17.9982 65.8827 15.9534C65.6439 13.9881 64.0022 12.4794 62.0022 12.4397C60.6391 12.4099 59.266 12.4397 57.684 12.4397C57.684 13.2239 57.684 13.9087 57.684 14.5936C57.684 15.2785 57.684 15.9733 57.684 16.9758C56.1417 15.4869 54.8184 14.2164 53.5647 12.9956C53.5647 11.3578 53.5647 8.36023 53.5647 8.36023L53.5747 8.18157C56.7686 8.22127 60.2212 8.06246 63.3853 8.36023C67.1065 8.70763 70.0019 12.3702 70.191 16.1123C70.3999 20.2612 67.3752 23.7452 63.8728 24.5392C63.6738 24.5889 63.4649 24.6583 63.2659 24.6583C60.062 24.6583 56.8681 24.6583 53.5548 24.6583ZM135.96 8.11209L132.099 11.8938L127.96 15.884L119.821 7.81431C119.821 7.81431 119.821 11.6754 119.821 13.1147C122.696 15.9832 125.423 18.7029 128.219 21.492C129.403 20.3208 131.95 17.8195 131.95 17.8195L132.238 17.5912C132.238 17.5912 132.238 22.3754 132.238 24.6186C133.691 24.6186 134.995 24.6186 136.308 24.6186C136.308 19.0801 136.308 7.83417 136.308 7.83417L135.96 8.11209ZM94.409 24.5988C94.409 18.9808 94.409 7.81431 94.409 7.81431L90.0708 12.3702C90.0708 12.3702 90.0708 16.0527 90.0708 18.3753C89.5534 17.879 88.9067 17.2636 88.9067 17.2636L79.1757 7.78454V13.4224L90.3693 24.5889C90.3693 24.5988 93.0757 24.5988 94.409 24.5988ZM147.81 22.1769C150.108 24.6087 153.969 25.3829 157.252 24.1819C159.909 23.2092 162.426 20.0528 162.327 17.7798C160.894 17.7798 159.451 17.7798 158.019 17.7798C156.954 19.5267 155.571 20.7277 153.432 20.4002C151.113 20.0429 149.959 18.4746 149.7 16.7773C148.288 15.348 147.183 14.2363 146.049 13.0948C144.765 16.1123 145.452 19.6955 147.81 22.1769ZM172.943 7.81431C172.048 9.28333 171.272 10.534 170.476 11.8342C173.103 16.152 175.69 20.42 178.267 24.6583C179.898 24.6583 181.421 24.6583 183.222 24.6583C179.749 18.9609 176.406 13.4819 172.943 7.81431ZM107.115 7.81431C106.2 9.32303 105.433 10.5836 104.657 11.8541C107.155 15.9634 109.612 20.0032 112.07 24.033C112.199 24.2415 112.349 24.44 112.538 24.708C112.896 24.708 113.264 24.708 113.632 24.708C114.796 24.708 115.95 24.708 117.433 24.708C113.921 18.9609 110.578 13.4819 107.115 7.81431ZM155.7 7.81431C151.999 7.16914 147.81 9.29325 146.755 11.8144C147.75 12.9062 148.984 13.9484 149.929 14.9807C152.437 11.1593 156.178 11.2883 158.168 14.673C159.561 14.673 160.964 14.673 162.357 14.673C162.307 11.9335 159.451 8.46941 155.7 7.81431ZM172.227 17.0453C171.421 15.745 170.635 14.4646 169.749 13.0253C167.332 16.9758 165.033 20.7377 162.645 24.6385C164.377 24.6385 165.899 24.6385 167.58 24.6385C169.113 22.1273 170.655 19.626 172.227 17.0453ZM106.399 17.0354C105.573 15.7053 104.807 14.4546 103.931 13.0353C101.513 16.9857 99.1551 20.7178 96.8368 24.6683C98.6277 24.6683 100.16 24.6683 101.742 24.6683C103.284 22.1273 104.836 19.5962 106.399 17.0354ZM76.5788 16.42C75.1261 14.9906 73.8326 13.7301 72.559 12.4695C72.559 16.4299 72.559 20.4895 72.559 24.6385C73.8923 24.6385 75.1659 24.6385 76.5788 24.6385C76.5788 21.7203 76.5788 18.9113 76.5788 16.42ZM142.925 16.4597C141.452 15.0006 140.159 13.74 138.895 12.4893C138.895 16.4398 138.895 20.5094 138.895 24.6484C140.238 24.6484 141.512 24.6484 142.925 24.6484C142.925 21.7104 142.925 18.9014 142.925 16.4597ZM79.1857 15.2983C79.1857 18.0776 79.1857 21.5714 79.1857 24.6087C80.5687 24.6087 81.8622 24.6087 83.2253 24.6087C83.2253 22.832 83.2253 20.6483 83.2253 19.2984C81.6831 17.7798 80.3797 16.4894 79.1857 15.2983ZM123.871 19.0404C122.408 17.5316 121.134 16.2115 119.881 14.9212C119.881 17.9088 119.881 21.5814 119.881 24.6286C121.264 24.6286 122.527 24.6286 123.871 24.6286C123.871 22.7923 123.871 20.42 123.871 19.0404ZM72.5292 10.8218L72.7182 11.0005C72.7182 11.0005 75.2953 13.611 76.6186 14.9509C76.6186 13.0551 76.6484 10.1171 76.6086 8.14186C75.1659 8.14186 73.9321 8.14186 72.5192 8.14186C72.5292 8.90615 72.5292 10.8218 72.5292 10.8218ZM139.164 10.9707C139.164 10.9707 141.741 13.5613 142.905 14.7326C142.905 13.0551 142.905 10.1469 142.905 8.19149C141.522 8.19149 140.228 8.19149 138.865 8.19149C138.865 8.90615 138.865 10.6233 138.865 10.6233L139.164 10.9707ZM107.095 5.09465L108.856 7.22869L111.105 7.21877C111.105 7.21877 108.936 4.7274 108.001 3.58594C107.274 3.58594 106.05 3.58594 106.05 3.58594L103.065 7.23862H105.324L107.095 5.09465Z" fill="#C4C4C6"/>
</g>
</g>
<defs>
<clipPath id="clip0_181_274">
<rect width="183" height="31" fill="white"/>
</clipPath>
</defs>
</svg>
