<svg width="45" height="40" viewBox="0 0 45 40" fill="none" xmlns="http://www.w3.org/2000/svg">
<path d="M12.6859 38.5887C13.1325 38.9549 13.6289 39.2562 14.1588 39.4857C14.1199 39.4929 14.08 39.4992 14.0406 39.5055C12.7203 39.7215 10.3049 40.0008 7.49806 39.5597C5.84351 39.2988 4.84254 38.9119 4.03452 38.4708C2.90265 37.8521 2.18204 37.1442 1.89126 36.8385C1.38443 36.3086 0.698246 35.59 0.296951 34.4436C-0.109779 33.2861 -0.00741631 32.3119 0.0768284 31.5054C0.113516 31.1531 0.390708 29.7144 1.28117 28.023C1.90077 26.8466 2.44429 26.0477 3.59518 24.8167C3.96386 24.4213 4.96619 23.4794 6.46765 22.2748L7.67652 26.085C7.20547 26.5355 6.57952 27.1896 5.95992 28.0772C5.27192 29.0631 4.33526 30.3905 4.03452 32.3222C3.88279 33.3027 3.74917 34.8359 4.6351 36.2938C5.29139 37.3755 6.14743 37.8978 6.50887 38.0897C6.82184 38.2556 7.64572 38.7563 9.47826 38.8469C10.77 38.9119 11.8892 38.7532 12.6859 38.5887Z" fill="#13524A"/>
<path d="M44.5544 7.40315C44.5512 8.59206 44.308 9.52678 43.895 10.9358C43.5534 12.0965 43.2183 12.9187 42.6304 14.364C42.1172 15.6219 41.744 16.2801 41.3155 17.1395C41.0827 17.6048 40.7969 18.3535 39.7738 19.94L37.6749 13.319C38.0386 12.5273 38.3987 11.6858 38.7266 10.8273C39.3734 9.12823 39.4621 8.90498 39.8331 7.86535C40.0627 7.21979 40.3472 6.19228 40.4518 5.1818C40.5256 4.46316 40.5193 3.96778 40.1116 3.48809C39.7479 3.05951 39.0749 2.88647 38.2877 2.80488C37.5965 2.7327 36.2518 2.8654 35.9116 2.92906C34.5356 3.18549 33.897 3.31908 32.882 3.62348C31.4331 2.7986 29.6535 2.55248 27.9324 3.08641L18.2728 6.08693C19.0831 5.45706 19.7457 5.05851 19.7457 5.05851C22.4126 3.41278 23.7414 2.76901 25.5876 2.06607C27.951 1.16497 29.8637 0.730114 30.5349 0.596519C31.6392 0.378642 32.9282 0.0249292 34.6584 0.00296225C36.3084 -0.0190047 37.7659 0.0666224 39.497 0.760152C40.0609 0.98565 41.2453 1.52451 42.4107 2.61031C42.9565 3.11824 43.6015 3.71897 44.0598 4.73169C44.5467 5.81032 44.5553 6.65762 44.5544 7.40315Z" fill="#13524A"/>
<path d="M20.748 34.9341C19.117 36.0844 16.8039 37.5289 13.8205 38.308C13.6257 38.3591 13.2303 38.4748 12.6855 38.5887C11.7927 37.8584 11.0966 36.8739 10.7243 35.6998L7.67562 26.0854C7.81467 25.9518 7.94013 25.837 8.04747 25.738C9.08423 24.7849 9.95476 24.142 11.1328 23.405C12.1804 22.7491 13.412 22.1062 14.9451 21.4809C15.6426 21.1962 15.9262 21.068 16.8651 20.7739C17.4942 20.5766 17.9716 20.4735 18.2044 20.4601C18.3444 20.4515 18.1283 20.6936 17.8334 21.167C17.4593 21.7687 17.1432 22.4039 16.789 23.0172C16.0272 24.3343 15.6458 24.9938 15.5792 25.7384C15.4791 26.8574 15.9429 27.7356 16.2387 28.296C16.3832 28.5695 16.7614 29.2617 17.4072 29.7508C17.8846 30.1125 18.0871 30 18.1491 29.9686C18.3611 29.8624 18.4621 29.4544 18.4925 29.2209C18.5758 28.5919 18.7515 27.9777 18.9327 27.3707C19.1383 26.6772 19.3417 26.241 19.8811 25.2076C20.6819 23.6713 20.527 24.146 21.2553 22.8944C21.6883 22.1497 21.9836 21.6916 22.6159 20.6295C22.7142 20.465 22.9026 20.2113 22.9814 20.1063C23.0041 20.0763 23.0412 20.0597 23.0793 20.0624C24.7796 20.1758 26.05 20.5067 27.0184 20.9953C28.1113 21.5459 28.8011 22.1331 28.8835 23.1804C28.8921 23.288 28.9796 23.7112 29.2545 23.5892C29.7509 23.3682 29.7636 21.8247 29.543 21.0088C29.3374 20.2462 29.2953 19.7383 28.3659 18.4669C27.8106 17.7066 27.1656 17.3174 26.2996 16.9494C26.0233 16.8324 25.5853 16.6365 25.2415 16.6096C25.406 16.3101 25.5649 16.0703 25.7493 15.7667C26.2665 14.9145 26.6026 14.5007 26.762 13.8207C26.8956 13.2522 26.7471 12.4116 26.4373 11.4491C26.1909 10.6816 25.7357 10.0661 25.1442 9.52274C25.001 9.39049 24.5141 9.13496 24.2093 9.30486C23.9267 9.46356 23.9797 9.90784 23.8796 10.5023C23.8008 10.9708 23.5825 11.6957 23.1105 12.556C22.6703 13.3589 22.24 13.9816 21.8459 14.5971C21.4107 15.275 21.1516 15.665 20.8418 16.124C20.6534 16.4029 20.4708 16.3917 20.0863 16.4338C19.1492 16.5369 17.9639 16.7862 16.4719 17.2358C15.2074 17.6178 14.3853 17.9253 13.7091 18.1746C12.9042 18.4718 11.6256 18.9497 10.0811 19.8078C8.57423 20.6443 7.53838 21.4401 6.83679 21.9843C6.71043 22.0825 6.58587 22.1802 6.46585 22.2762L4.70803 16.7337C3.6826 13.5006 5.4993 10.0553 8.76718 9.04081L18.2701 6.08827C17.7981 6.45543 17.2763 6.9006 16.8062 7.39105C16.6124 7.59323 15.957 8.15765 15.9031 8.66468C15.8705 8.97984 15.9683 9.27886 16.2106 9.79531C16.3696 10.1342 16.6015 10.4543 17.0073 10.9376C17.2369 11.2111 17.53 11.5101 18.0527 11.9032C18.3412 12.1211 18.8439 12.4027 19.0283 12.257C19.2611 12.0723 18.8439 11.6405 19.0052 11.0483C19.1592 10.4839 19.55 10.2441 20.1968 9.74062C20.7331 9.32325 22.0113 8.51809 23.2201 7.83621C25.3317 6.64506 27.1085 5.88698 27.2476 5.82332C29.88 4.61469 31.0535 4.19507 32.3571 3.78622C32.5437 3.72794 32.7162 3.67459 32.8788 3.62572C34.1814 4.36722 35.2173 5.5763 35.7019 7.10637L37.6726 13.3217C36.9162 14.9737 36.1467 16.4038 35.6453 17.3058C34.4229 19.5056 32.8045 22.4174 30.0933 25.8487C25.7343 31.3629 21.6457 34.3006 20.748 34.9341Z" fill="#F58634"/>
<path d="M37.6586 33.7636L18.4974 39.7171C17.0118 40.1779 15.4818 40.0582 14.1593 39.4857C17.0952 38.9895 19.1909 38.0556 20.9138 37.2733C23.8687 35.9329 25.9087 34.4916 27.3459 33.4645C28.5058 32.6365 30.0507 31.3432 31.7442 29.7691C33.9636 27.7051 35.5525 25.8016 36.5272 24.5446C37.4543 23.3481 38.0486 22.5568 39.2216 20.7855C39.4241 20.4798 39.6084 20.1983 39.7738 19.9396L41.7177 26.0702C42.7441 29.3047 40.926 32.749 37.6586 33.7636Z" fill="#F58634"/>
</svg>
