<svg width="338" height="235" viewBox="0 0 338 235" fill="none" xmlns="http://www.w3.org/2000/svg">
<g clip-path="url(#clip0_2006_112)">
<path d="M74.9688 96.041L191.911 96.041C194.782 96.041 197.11 93.7177 197.11 90.8517V5.40347C197.11 2.53748 194.782 0.214142 191.911 0.214142L74.9688 0.214142C72.0971 0.214142 69.7691 2.53748 69.7691 5.40347L69.7691 90.8517C69.7691 93.7177 72.0971 96.041 74.9688 96.041Z" fill="white"/>
<path d="M191.91 96.2547H74.9687C71.9834 96.2547 69.5547 93.8308 69.5547 90.8515V5.40322C69.5547 2.42384 71.9834 0 74.9687 0H191.91C194.896 0 197.324 2.42384 197.324 5.40322V90.8515C197.324 93.8308 194.896 96.2547 191.91 96.2547ZM74.9687 0.427814C72.2198 0.427814 69.9834 2.65982 69.9834 5.40322V90.8515C69.9834 93.5949 72.2198 95.8269 74.9687 95.8269H191.91C194.659 95.8269 196.896 93.5949 196.896 90.8515V5.40322C196.896 2.65982 194.659 0.427814 191.91 0.427814H74.9687Z" fill="#292A2E"/>
<path d="M84.923 8.26373L76.565 9.05471C75.7018 9.13641 75.0683 9.90104 75.1502 10.7626L75.9427 19.1038C76.0246 19.9654 76.7908 20.5975 77.654 20.5158L86.012 19.7249C86.8752 19.6432 87.5087 18.8785 87.4268 18.017L86.6342 9.67573C86.5524 8.81421 85.7862 8.18204 84.923 8.26373Z" fill="#292A2E"/>
<path d="M108.724 26.3579L100.376 25.4616C99.5143 25.369 98.7402 25.9915 98.6475 26.8519L97.7494 35.1825C97.6566 36.0429 98.2803 36.8155 99.1425 36.9081L107.49 37.8044C108.352 37.8969 109.126 37.2745 109.219 36.4141L110.117 28.0834C110.21 27.223 109.586 26.4505 108.724 26.3579Z" fill="white"/>
<path d="M107.661 38.0734C107.595 38.0734 107.529 38.0698 107.462 38.0625L99.115 37.1661C98.1117 37.0581 97.3831 36.156 97.4911 35.1545L98.3892 26.8241C98.4415 26.3389 98.6798 25.9033 99.0606 25.597C99.4417 25.2907 99.9187 25.1507 100.405 25.2032L108.752 26.0996C109.238 26.1517 109.675 26.3898 109.981 26.7696C110.288 27.1496 110.428 27.626 110.376 28.1109L109.478 36.4413C109.426 36.9265 109.187 37.3621 108.807 37.6684C108.478 37.9324 108.077 38.0729 107.662 38.0729L107.661 38.0734ZM107.517 37.5464C107.867 37.5835 108.207 37.4836 108.48 37.2645C108.752 37.0454 108.923 36.7336 108.96 36.3863L109.859 28.0559C109.896 27.7088 109.796 27.3677 109.576 27.0956C109.356 26.8238 109.044 26.6533 108.696 26.6159L100.349 25.7195C100.003 25.6826 99.6597 25.7821 99.3868 26.0012C99.1142 26.2203 98.9435 26.5323 98.9061 26.8794L98.0079 35.2098C97.9307 35.9265 98.4522 36.5724 99.1706 36.6495L107.518 37.5459L107.517 37.5464Z" fill="#292A2E"/>
<path d="M145.763 39.5661C145.68 39.5661 145.597 39.5259 145.547 39.4514C140.251 31.5892 132.216 30.1571 126.407 30.3398C120.09 30.5387 114.971 32.6307 114.921 32.6518C114.788 32.7063 114.636 32.644 114.581 32.5113C114.525 32.3789 114.588 32.2271 114.721 32.172C114.773 32.1505 119.979 30.0226 126.391 29.8206C132.329 29.6342 140.55 31.1025 145.979 39.1614C146.059 39.2803 146.028 39.4418 145.908 39.5217C145.864 39.5516 145.813 39.5658 145.763 39.5658V39.5661Z" fill="#292A2E"/>
<path d="M145.859 39.6721C145.836 39.6721 145.812 39.6687 145.789 39.6622L140.459 38.1602C140.321 38.1213 140.24 37.9777 140.279 37.8399C140.318 37.7015 140.463 37.6221 140.6 37.6608L145.68 39.0922L147.114 34.0228C147.153 33.8844 147.297 33.8052 147.435 33.8437C147.573 33.8826 147.654 34.0262 147.614 34.164L146.109 39.4831C146.077 39.5973 145.973 39.6724 145.859 39.6724V39.6721Z" fill="#292A2E"/>
<path d="M154.219 42.001L145.861 42.792C144.998 42.8737 144.364 43.6383 144.446 44.4999L145.239 52.8412C145.32 53.7027 146.087 54.3348 146.95 54.2531L155.308 53.4622C156.171 53.3805 156.805 52.6158 156.723 51.7543L155.93 43.413C155.848 42.5515 155.082 41.9193 154.219 42.001Z" fill="#F58634"/>
<path d="M181.535 16.3579L173.157 15.8203C172.291 15.7647 171.545 16.4198 171.489 17.2834L170.95 25.6449C170.895 26.5085 171.551 27.2536 172.416 27.3091L180.795 27.8467C181.66 27.9023 182.407 27.2472 182.462 26.3836L183.001 18.0221C183.057 17.1585 182.4 16.4134 181.535 16.3579Z" fill="#292A2E"/>
<path d="M186.269 43.644L177.921 42.7477C177.059 42.6551 176.285 43.2776 176.192 44.138L175.294 52.4686C175.202 53.3291 175.825 54.1016 176.687 54.1942L185.035 55.0905C185.897 55.1831 186.671 54.5606 186.764 53.7002L187.662 45.3696C187.755 44.5092 187.131 43.7366 186.269 43.644Z" fill="#13524A"/>
<path d="M140.447 70.7813L132.089 71.5723C131.226 71.654 130.593 72.4186 130.675 73.2801L131.467 81.6214C131.549 82.4829 132.315 83.1151 133.178 83.0334L141.536 82.2424C142.4 82.1608 143.033 81.3961 142.951 80.5346L142.159 72.1933C142.077 71.3318 141.311 70.6996 140.447 70.7813Z" fill="white"/>
<path d="M133.029 83.3001C132.097 83.3001 131.298 82.5903 131.208 81.6459L130.415 73.3049C130.32 72.3023 131.06 71.409 132.065 71.314L140.423 70.523C140.909 70.4768 141.385 70.6227 141.761 70.9337C142.138 71.2447 142.371 71.6834 142.417 72.1691L143.21 80.5102C143.305 81.5128 142.565 82.406 141.561 82.501L133.203 83.292C133.144 83.2975 133.086 83.3003 133.029 83.3003L133.029 83.3001ZM140.598 71.0339C140.556 71.0339 140.514 71.0357 140.472 71.0399L132.114 71.8309C131.395 71.8989 130.865 72.5383 130.933 73.2561L131.726 81.5971C131.795 82.3149 132.438 82.844 133.154 82.7752L141.512 81.9842C142.231 81.9162 142.761 81.2768 142.692 80.559L141.9 72.2179C141.867 71.8703 141.7 71.5565 141.43 71.3338C141.193 71.1383 140.901 71.0339 140.598 71.0339Z" fill="#292A2E"/>
<path d="M86.5558 67.96L78.1978 68.751C77.3346 68.8327 76.7011 69.5973 76.783 70.4588L77.5755 78.8001C77.6574 79.6617 78.4236 80.2938 79.2868 80.2121L87.6448 79.4212C88.508 79.3395 89.1415 78.5748 89.0596 77.7133L88.2671 69.372C88.1852 68.5105 87.419 67.8783 86.5558 67.96Z" fill="#F58634"/>
<path d="M153.424 37.7513C153.414 37.7513 153.405 37.7508 153.394 37.7497C153.252 37.7334 153.149 37.6044 153.166 37.4621C153.17 37.425 153.615 33.718 155.57 29.9377C158.172 24.906 162.251 22.0195 167.364 21.5902C167.506 21.579 167.633 21.6844 167.645 21.8272C167.657 21.97 167.551 22.0956 167.408 22.1078C155.482 23.1088 153.699 37.3777 153.682 37.5218C153.667 37.6542 153.555 37.7518 153.424 37.7518V37.7513Z" fill="#292A2E"/>
<path d="M164.891 24.6802C164.824 24.6802 164.758 24.655 164.707 24.6044C164.605 24.5031 164.605 24.3391 164.706 24.2373L167.11 21.828L164.696 19.4293C164.594 19.3281 164.593 19.164 164.695 19.0623C164.796 18.9608 164.961 18.9602 165.063 19.0615L167.661 21.6434C167.763 21.7447 167.763 21.9087 167.662 22.0105L165.075 24.6038C165.024 24.6547 164.958 24.6802 164.891 24.6802Z" fill="#292A2E"/>
<path d="M136.515 66.9033C136.403 66.9033 136.3 66.8316 136.266 66.7198C136.227 66.5931 132.486 53.9853 142.17 48.757C142.297 48.6885 142.454 48.7358 142.522 48.8619C142.591 48.9878 142.544 49.1454 142.417 49.2137C133.111 54.2384 136.726 66.4451 136.763 66.5679C136.805 66.705 136.728 66.8501 136.591 66.8921C136.565 66.8999 136.54 66.9036 136.515 66.9036V66.9033Z" fill="#292A2E"/>
<path d="M141.182 52.2188C141.15 52.2188 141.119 52.2131 141.087 52.2009C140.953 52.149 140.887 51.9984 140.94 51.865L142.025 49.0829L139.237 47.9999C139.103 47.9477 139.037 47.7974 139.089 47.6637C139.141 47.53 139.292 47.4636 139.426 47.516L142.456 48.693C142.52 48.7182 142.572 48.7675 142.6 48.8306C142.628 48.8937 142.629 48.9651 142.604 49.0292L141.424 52.0532C141.385 52.156 141.286 52.2188 141.182 52.2188Z" fill="#292A2E"/>
<path d="M104.164 24.0231C104.02 24.0231 103.903 23.9068 103.903 23.7635C103.903 19.82 102.737 16.8097 100.437 14.8165C96.3537 11.279 90.0011 12.1318 89.9374 12.1409C89.7951 12.1593 89.6635 12.0622 89.6432 11.9205C89.6232 11.7785 89.722 11.6471 89.864 11.6269C90.133 11.5882 96.5102 10.7294 100.775 14.4222C103.197 16.5184 104.424 19.6613 104.424 23.7632C104.424 23.9065 104.307 24.0231 104.164 24.0231Z" fill="#292A2E"/>
<path d="M104.176 24.1166C104.168 24.1166 104.159 24.1164 104.151 24.1156C104.082 24.1091 104.019 24.0756 103.975 24.0227L101.637 21.204C101.545 21.0936 101.561 20.9298 101.671 20.8385C101.782 20.7468 101.946 20.7627 102.038 20.873L104.21 23.4918L106.834 21.3236C106.945 21.232 107.109 21.2478 107.2 21.3582C107.292 21.4685 107.277 21.6323 107.166 21.7237L104.342 24.0574C104.295 24.0961 104.236 24.1166 104.176 24.1166Z" fill="#292A2E"/>
<path d="M109.927 52.6606H101.532C100.665 52.6606 99.9619 53.3622 99.9619 54.2276V62.6063C99.9619 63.4717 100.665 64.1732 101.532 64.1732H109.927C110.795 64.1732 111.497 63.4717 111.497 62.6063V54.2276C111.497 53.3622 110.795 52.6606 109.927 52.6606Z" fill="#13524A"/>
<path d="M131.309 67.9736C131.193 67.9736 131.087 67.8949 131.057 67.7771C128.157 56.1999 113.977 57.0114 113.836 57.0207C113.693 57.0311 113.569 56.9223 113.559 56.779C113.55 56.636 113.658 56.5124 113.801 56.5028C113.839 56.5 117.522 56.27 121.522 57.5168C125.234 58.6743 129.989 61.3723 131.562 67.6512C131.597 67.7903 131.512 67.9313 131.373 67.9661C131.352 67.9715 131.33 67.9738 131.309 67.9738L131.309 67.9736Z" fill="#292A2E"/>
<path d="M131.345 68.0608C131.292 68.0608 131.239 68.0445 131.195 68.0128L128.251 65.928C128.134 65.8452 128.106 65.6829 128.19 65.5661C128.273 65.4493 128.435 65.4215 128.553 65.5046L131.281 67.437L133.226 64.6225C133.307 64.5044 133.47 64.4748 133.588 64.5563C133.706 64.6375 133.736 64.7995 133.654 64.9174L131.56 67.9484C131.52 68.0055 131.459 68.0445 131.391 68.0567C131.376 68.0593 131.361 68.0606 131.346 68.0606L131.345 68.0608Z" fill="#292A2E"/>
<path d="M249.223 235L249.734 234.902L241.749 155.717L241.238 155.815L249.223 235Z" fill="#494949"/>
<path d="M219.492 235L220.003 234.902L212.019 155.717L211.508 155.815L219.492 235Z" fill="#494949"/>
<path d="M153.775 235L153.264 234.902L161.248 155.717L161.759 155.815L153.775 235Z" fill="#494949"/>
<path d="M183.505 235L182.994 234.902L190.978 155.717L191.489 155.815L183.505 235Z" fill="#494949"/>
<path d="M194.091 120.866L189.427 155.73L189.942 155.799L194.607 120.934L194.091 120.866Z" fill="#494949"/>
<path d="M247.628 120.865L242.964 155.73L243.48 155.799L248.144 120.934L247.628 120.865Z" fill="#494949"/>
<path d="M189.474 158.319H241.84C243.253 158.319 244.398 157.176 244.398 155.766V155.766C244.398 154.356 243.253 153.213 241.84 153.213H189.474C188.061 153.213 186.916 154.356 186.916 155.766V155.766C186.916 157.176 188.061 158.319 189.474 158.319Z" fill="#292A2E"/>
<path opacity="0.8" d="M189.474 158.319H241.84C243.253 158.319 244.398 157.176 244.398 155.766V155.766C244.398 154.356 243.253 153.213 241.84 153.213H189.474C188.061 153.213 186.916 154.356 186.916 155.766V155.766C186.916 157.176 188.061 158.319 189.474 158.319Z" fill="white"/>
<path d="M186.655 155.766C186.655 154.215 187.92 152.954 189.474 152.954H241.84C243.394 152.954 244.658 154.215 244.658 155.766C244.658 157.317 243.394 158.579 241.84 158.579H189.474C187.919 158.579 186.655 157.317 186.655 155.766ZM189.474 153.473C188.206 153.473 187.176 154.502 187.176 155.766C187.176 157.031 188.206 158.06 189.474 158.06H241.84C243.107 158.06 244.138 157.031 244.138 155.766C244.138 154.502 243.107 153.473 241.84 153.473H189.474Z" fill="#292A2E"/>
<path d="M160.733 158.319H213.099C214.512 158.319 215.657 157.176 215.657 155.766V155.766C215.657 154.356 214.512 153.213 213.099 153.213H160.733C159.32 153.213 158.174 154.356 158.174 155.766V155.766C158.174 157.176 159.32 158.319 160.733 158.319Z" fill="white"/>
<path d="M157.914 155.766C157.914 154.215 159.178 152.954 160.733 152.954H213.099C214.653 152.954 215.917 154.215 215.917 155.766C215.917 157.317 214.653 158.579 213.099 158.579H160.733C159.178 158.579 157.914 157.317 157.914 155.766ZM160.733 153.473C159.465 153.473 158.434 154.502 158.434 155.766C158.434 157.031 159.465 158.06 160.733 158.06H213.099C214.366 158.06 215.397 157.031 215.397 155.766C215.397 154.502 214.366 153.473 213.099 153.473H160.733Z" fill="#292A2E"/>
<path d="M196.963 120.901H247.749C249.467 120.901 250.918 119.63 251.14 117.93L254.499 92.183C254.766 90.1408 253.173 88.3301 251.109 88.3301H200.322C198.605 88.3301 197.153 89.6018 196.931 91.3017L193.572 117.048C193.306 119.091 194.899 120.901 196.963 120.901Z" fill="#292A2E"/>
<path opacity="0.8" d="M196.963 120.901H247.749C249.467 120.901 250.918 119.63 251.14 117.93L254.499 92.183C254.766 90.1408 253.173 88.3301 251.109 88.3301H200.322C198.605 88.3301 197.153 89.6018 196.931 91.3017L193.572 117.048C193.306 119.091 194.899 120.901 196.963 120.901Z" fill="white"/>
<path d="M194.198 119.912C193.5 119.118 193.177 118.062 193.314 117.015L196.673 91.2683C196.911 89.4451 198.48 88.0703 200.322 88.0703H251.109C252.167 88.0703 253.175 88.5254 253.873 89.3192C254.571 90.1131 254.893 91.1688 254.757 92.2163L251.398 117.963C251.16 119.786 249.591 121.161 247.749 121.161H196.962C195.904 121.161 194.896 120.706 194.198 119.912V119.912ZM200.322 88.5898C198.74 88.5898 197.393 89.7701 197.189 91.3355L193.83 117.082C193.713 117.981 193.989 118.888 194.589 119.57C195.188 120.251 196.054 120.642 196.962 120.642H247.749C249.331 120.642 250.678 119.462 250.882 117.897L254.241 92.1499C254.358 91.2506 254.082 90.3438 253.482 89.6624C252.883 88.981 252.018 88.59 251.109 88.59H200.322L200.322 88.5898Z" fill="#292A2E"/>
<path d="M194.091 120.901H244.877C246.595 120.901 248.046 119.63 248.268 117.93L251.627 92.183C251.894 90.1408 250.3 88.3301 248.237 88.3301H197.45C195.732 88.3301 194.281 89.6018 194.059 91.3017L190.7 117.048C190.434 119.091 192.027 120.901 194.091 120.901Z" fill="white"/>
<path d="M191.326 119.912C190.627 119.118 190.305 118.062 190.442 117.015L193.801 91.2683C194.039 89.4451 195.608 88.0703 197.45 88.0703H248.236C249.295 88.0703 250.303 88.5254 251.001 89.3192C251.699 90.1131 252.022 91.1688 251.885 92.2163L248.525 117.963C248.287 119.786 246.719 121.161 244.877 121.161H194.09C193.032 121.161 192.024 120.706 191.326 119.912V119.912ZM197.45 88.5898C195.868 88.5898 194.521 89.7701 194.317 91.3355L190.958 117.082C190.84 117.981 191.117 118.888 191.717 119.57C192.316 120.251 193.182 120.642 194.09 120.642H244.877C246.459 120.642 247.805 119.462 248.01 117.897L251.369 92.1499C251.486 91.2504 251.21 90.3436 250.61 89.6621C250.01 88.9807 249.145 88.5898 248.236 88.5898H197.45Z" fill="#292A2E"/>
<path d="M155.707 221.283C155.707 221.283 154.312 228.498 147.543 228.901C140.774 229.303 142.242 234.684 142.242 234.684H168.109V221.787L155.706 221.283L155.707 221.283Z" fill="#F58634"/>
<path d="M178.915 216.728C178.915 216.728 180.855 223.816 174.959 227.159C169.063 230.502 172.761 234.684 172.761 234.684L195.971 223.289L190.267 211.716L178.915 216.728Z" fill="#F58634"/>
<path d="M193.292 214.725L173.719 153.1H209.198C216.325 153.1 219.296 147.068 219.296 139.956C219.296 132.843 212.29 126.608 205.163 126.608H157.279C152.932 126.608 148.058 129.261 145.672 132.888C143.287 136.514 143.931 142.134 145.66 146.115L177.003 222.09" fill="#262626"/>
<path opacity="0.8" d="M193.292 214.725L173.719 153.1H209.198C216.325 153.1 219.296 147.068 219.296 139.956C219.296 132.843 212.29 126.608 205.163 126.608H157.279C152.932 126.608 148.058 129.261 145.672 132.888C143.287 136.514 143.931 142.134 145.66 146.115L177.003 222.09" fill="#0A0A0A"/>
<path d="M170.132 226.455L176.323 153.1L219.296 153.097C229.366 152.309 233.977 146.802 233.831 139.691C233.686 132.67 230.124 125.736 223.121 125.736C223.014 125.736 196.192 125.736 196.192 125.736H165.202C160.02 125.842 154.021 130.734 154.021 136.36L151.012 225.603" fill="#262626"/>
<path d="M236.762 125.822C236.762 125.822 238.67 138.243 235.645 145.148C231.868 153.77 217.711 153.098 217.711 153.098L218.509 125.736L236.762 125.822Z" fill="#262626"/>
<path d="M238.865 124.418L238.92 124.421C238.92 124.421 238.88 123.363 238.865 124.418Z" fill="#333333"/>
<path d="M238.796 124.418L238.851 124.421C238.851 124.421 238.811 123.363 238.796 124.418Z" fill="#333333"/>
<path d="M146.667 74.0621C146.889 73.628 147.341 73.4219 147.775 73.4764C147.775 73.457 147.776 73.437 147.788 73.4196C147.809 73.3897 147.843 73.3812 147.877 73.3835L147.125 72.8456C146.67 72.5206 146.485 71.903 146.753 71.4132C147.03 70.9051 147.63 70.7216 148.127 70.928C148.125 70.9173 148.132 70.9072 148.133 70.8963L147.824 70.6754C147.397 70.3696 147.212 69.8008 147.433 69.3242C147.729 68.683 148.513 68.4976 149.059 68.8878L149.772 69.3977C149.774 69.3935 149.772 69.3886 149.774 69.3847C149.777 69.3795 149.785 69.3795 149.789 69.3751C149.459 69.0044 149.416 68.4437 149.717 68.0239C150.054 67.4834 150.831 67.594 151.292 67.9237L155.488 70.8161L154.738 69.556C154.437 69.0508 154.546 68.373 155.036 68.047C155.559 67.6991 156.26 67.8627 156.576 68.3946L160.671 75.2746C161.67 76.9529 161.15 79.1195 159.497 80.1639C157.612 81.3554 155.191 81.2861 153.377 79.9884L147.04 75.4558C146.622 75.1568 146.433 74.5195 146.667 74.0621Z" fill="#FF9E85"/>
<g opacity="0.25">
<path d="M153.925 72.2563C153.893 72.3001 153.832 72.3108 153.787 72.2796L149.8 69.5238C149.755 69.4923 149.743 69.43 149.775 69.3844C149.801 69.3392 149.869 69.3275 149.914 69.3592L153.901 72.115C153.947 72.1465 153.958 72.2088 153.927 72.2544L153.925 72.2563Z" fill="#0C0C0C"/>
</g>
<g opacity="0.25">
<path d="M152.756 74.0449C152.724 74.0888 152.662 74.0994 152.617 74.0683L148.168 70.9928C148.123 70.9614 148.111 70.8991 148.143 70.8534C148.172 70.8122 148.237 70.7968 148.283 70.8283L152.732 73.9037C152.777 73.9351 152.789 73.9974 152.757 74.0431L152.756 74.0449Z" fill="#0C0C0C"/>
</g>
<g opacity="0.25">
<path d="M151.5 75.9886C151.468 76.0325 151.407 76.0431 151.362 76.012L147.813 73.5588C147.767 73.5274 147.756 73.4651 147.788 73.4194C147.82 73.3742 147.882 73.3628 147.927 73.3942L151.476 75.8474C151.522 75.8788 151.533 75.9411 151.501 75.9868L151.5 75.9886Z" fill="#0C0C0C"/>
</g>
<path d="M163.088 73.708L175.114 94.1483L189.788 74.94L201.974 85.9046L181.163 112.803L181.027 112.994C180.301 113.989 179.342 114.838 178.177 115.449C174.111 117.583 169.082 116.023 166.944 111.966L149.844 81.0598L163.089 73.7085L163.088 73.708Z" fill="#F58634"/>
<path d="M176.293 96.6059C176.316 96.6059 176.34 96.6004 176.362 96.5893C176.437 96.5511 176.467 96.4592 176.429 96.3842L175.25 94.0787C175.212 94.0037 175.119 93.9741 175.044 94.0123C174.969 94.0504 174.939 94.1423 174.978 94.2173L176.157 96.5228C176.183 96.5755 176.237 96.6059 176.293 96.6059Z" fill="#0C0C0C"/>
<path d="M190.633 94.032L190.328 94.0493L190.695 100.505L191 100.488L190.633 94.032Z" fill="#0C0C0C"/>
<path d="M229.56 48.076C229.56 48.076 230.131 56.9165 231.805 59.5418C236.623 67.1 238.093 73.0522 233.408 77.5809C228.723 82.1098 198.511 82.521 196.102 72.2563C194.075 63.6146 198.199 62.6354 199.123 55.4766C199.54 52.2373 200.714 45.4419 200.714 45.4419" fill="#0A0A0A"/>
<path d="M203.793 70.6154C203.846 70.6087 204.425 80.1929 215.581 79.3573C223.304 78.7799 226.058 70.6016 226.235 70.6016C225.403 70.4251 224 70.1681 223.63 69.9711C222.414 69.319 220.909 68.6404 220.517 66.2833C220.291 64.9248 220.675 57.9747 220.557 56.6001L208.701 59.241C208.867 62.144 210.026 68.8738 205.962 70.0651C205.286 70.2621 204.557 70.4433 203.793 70.6154H203.793Z" fill="#FF9E85"/>
<path opacity="0.22" d="M208.535 67.3147C208.703 66.7797 208.803 66.3145 208.892 65.4783C209.05 63.9828 208.966 62.608 208.814 61.2072C211.209 60.8889 213.509 59.8838 215.367 58.3423C215.587 59.1538 216.975 62.149 216.639 62.92C216.006 64.3776 212.851 67.3147 208.535 67.3147Z" fill="#0C0C0C"/>
<path d="M210.106 64.2983C214.785 64.697 219.802 62.7571 220.983 56.5309L223.057 50.9156C224.238 44.6892 221.918 39.023 216.044 37.9135C210.17 36.804 205.452 38.7422 204.271 44.9683C204.271 44.9683 203.542 48.5307 203.43 49.7358C203.007 54.2797 203.007 63.6934 210.106 64.2983Z" fill="#FF9E85"/>
<path d="M204.411 48.5898C204.433 48.7918 205.195 48.7708 206.208 48.6116C207.222 48.4525 208.12 48.264 208.082 48.0138C208.035 47.6979 207.17 47.5712 206.157 47.7303C205.143 47.8894 204.378 48.2721 204.411 48.5898Z" fill="#0A0A0A"/>
<path d="M227.756 52.8736L221.143 54.6946C217.155 53.0841 217.297 43.4097 217.297 43.4097C217.297 43.4097 212.453 48.1217 200.714 45.4416C200.714 45.4416 203.068 29.6226 220.41 34.3732C226.002 35.9051 230.016 42.0482 229.516 49.5645C229.165 54.8319 227.756 52.8736 227.756 52.8736Z" fill="#0A0A0A"/>
<path d="M221.267 58.3616C223.053 58.6988 224.89 58.0657 225.392 55.3825C225.725 53.6001 224.276 52.2471 222.491 51.9102L221.344 52.9301L219.732 58.0717L221.267 58.3616H221.267Z" fill="#FF9E85"/>
<path d="M205.512 51.1315C205.871 51.1315 206.162 50.8409 206.162 50.4825C206.162 50.1241 205.871 49.8335 205.512 49.8335C205.152 49.8335 204.861 50.1241 204.861 50.4825C204.861 50.8409 205.152 51.1315 205.512 51.1315Z" fill="#0A0A0A"/>
<path d="M208.93 55.4439C209.062 55.4439 209.175 55.3448 209.189 55.2113C209.204 55.0688 209.1 54.9411 208.957 54.926L207.579 54.7822L208.427 52.0362C208.469 51.8992 208.392 51.754 208.255 51.7117C208.118 51.6697 207.972 51.7463 207.93 51.8833L206.989 54.9312C206.966 55.0055 206.978 55.0859 207.021 55.1508C207.064 55.2157 207.133 55.2578 207.211 55.2658L208.903 55.4424C208.912 55.4434 208.921 55.4437 208.93 55.4437L208.93 55.4439Z" fill="#0A0A0A"/>
<path d="M210.342 58.793C212.699 58.793 213.401 57.371 213.433 57.3045C213.494 57.1747 213.438 57.0202 213.308 56.959C213.179 56.898 213.025 56.953 212.963 57.0815C212.934 57.142 212.214 58.5386 209.619 58.2289C209.474 58.211 209.347 58.3135 209.33 58.4558C209.313 58.5981 209.415 58.7273 209.557 58.7445C209.837 58.778 210.098 58.793 210.342 58.793Z" fill="#0A0A0A"/>
<path d="M212.31 48.4537C212.247 48.6471 212.952 48.9363 213.943 49.2014C214.934 49.4664 215.831 49.6575 215.899 49.4137C215.984 49.1058 215.245 48.6401 214.254 48.3751C213.263 48.11 212.408 48.1497 212.31 48.454V48.4537Z" fill="#0A0A0A"/>
<path d="M212.477 51.6315C212.837 51.6315 213.128 51.3409 213.128 50.9825C213.128 50.6241 212.837 50.3335 212.477 50.3335C212.118 50.3335 211.827 50.6241 211.827 50.9825C211.827 51.3409 212.118 51.6315 212.477 51.6315Z" fill="#0A0A0A"/>
<path d="M220.212 49.5361C220.218 50.0823 218.839 52.0456 219.03 52.5573C219.332 53.3644 220.591 54.6657 221.143 54.6946C222.116 54.7454 221.273 53.0324 222.459 52.0942C222.65 52.0784 222.845 52.0758 223.041 52.1017C223.831 52.1954 224.511 52.5887 224.982 53.1541L224.901 50.6781" fill="#0A0A0A"/>
<path d="M190.282 91.3932C190.629 95.4584 192.315 120.729 192.649 125.736L236.761 125.83C237.02 121.313 240.019 101.564 241.003 92.7327C241.943 84.3049 243.786 80.0854 242.435 77.5941C240.227 73.5221 234.194 71.1689 230.08 70.6131C227.568 70.2738 223.79 70.0303 223.79 70.0303C223.79 70.0303 223.47 76.489 215.842 76.8483C205.458 77.3371 206.151 70.0303 206.1 70.0303C204.418 70.0303 194.808 71.0931 192.456 72.4837C186.05 76.2699 189.546 82.7777 190.282 91.3932Z" fill="#F58634"/>
<path d="M161.649 94.2331L165.902 114.859C166.079 115.722 166.837 116.344 167.72 116.351L196.999 116.6C198.191 116.61 199.09 115.52 198.849 114.354L194.597 93.7285C194.419 92.8653 193.662 92.2436 192.779 92.2361L163.5 91.9874C162.307 91.9773 161.409 93.0673 161.649 94.2331Z" fill="#292A2E"/>
<path d="M188.951 108.884C188.899 109.439 189.311 109.933 189.858 110.055L190.76 110.253C190.729 110.266 190.702 110.287 190.693 110.324C190.69 110.342 190.696 110.363 190.705 110.378C190.283 110.5 189.947 110.866 189.916 111.354C189.88 111.863 190.305 112.376 190.806 112.489L198.417 114.175C198.811 114.263 199.208 114.306 199.602 114.306C201.38 114.306 203.079 113.44 204.115 111.937C205.224 110.33 204.851 108.131 203.272 106.981L196.797 102.258C196.65 102.151 196.482 102.084 196.314 102.06L196.91 104.948L196.751 104.911L196.718 104.905L191.753 103.896C191.2 103.774 190.442 103.975 190.344 104.603C190.234 105.109 190.494 105.606 190.943 105.82C190.94 105.823 190.934 105.826 190.934 105.832C190.931 105.838 190.937 105.841 190.937 105.847L190.078 105.658C189.424 105.512 188.777 105.991 188.755 106.695C188.74 107.22 189.134 107.671 189.648 107.784L190.017 107.866C190.02 107.878 190.017 107.89 190.023 107.899C189.485 107.903 189.006 108.308 188.951 108.884L188.951 108.884Z" fill="#FF9E85"/>
<g opacity="0.25">
<path d="M195.88 106.848C195.867 106.901 195.815 106.934 195.762 106.923L191.011 105.951C190.956 105.94 190.922 105.887 190.933 105.833C190.939 105.781 190.997 105.744 191.051 105.755L195.802 106.727C195.856 106.738 195.891 106.791 195.88 106.845L195.88 106.848V106.848Z" fill="#0C0C0C"/>
</g>
<g opacity="0.25">
<path d="M195.508 108.951C195.496 109.004 195.443 109.037 195.39 109.026L190.088 107.941C190.034 107.93 189.999 107.877 190.01 107.823C190.02 107.773 190.074 107.734 190.129 107.745L195.43 108.83C195.485 108.841 195.52 108.894 195.508 108.949L195.508 108.951V108.951Z" fill="#0C0C0C"/>
</g>
<g opacity="0.25">
<path d="M195.118 111.231C195.106 111.284 195.053 111.317 195 111.307L190.771 110.441C190.716 110.43 190.681 110.377 190.693 110.323C190.705 110.268 190.757 110.234 190.811 110.245L195.04 111.11C195.095 111.121 195.13 111.174 195.118 111.229L195.118 111.231Z" fill="#0C0C0C"/>
</g>
<path d="M198.889 117.18L240.181 124.627C240.485 124.66 240.788 124.676 241.09 124.676C243.386 124.676 245.597 123.735 247.191 122.049C248.994 120.142 249.797 117.501 249.361 114.915L243.581 80.6236C242.812 76.064 238.486 72.9907 233.916 73.7567C229.348 74.5238 226.267 78.842 227.036 83.4018L230.978 107.008L200.704 103.214L198.889 117.18Z" fill="#F58634"/>
<path d="M240.181 124.78C240.254 124.78 240.318 124.728 240.331 124.654C240.346 124.572 240.291 124.492 240.208 124.477L199.058 117.056L200.835 103.384L230.958 107.159C231.008 107.165 231.054 107.149 231.087 107.114C231.121 107.079 231.136 107.031 231.128 106.983L228.622 91.8956C228.608 91.8127 228.53 91.7543 228.446 91.7702C228.363 91.7839 228.307 91.8626 228.321 91.9457L230.793 106.831L200.723 103.062C200.641 103.052 200.563 103.111 200.552 103.194L198.737 117.16C198.726 117.241 198.781 117.316 198.861 117.33L240.153 124.778C240.163 124.779 240.172 124.78 240.181 124.78Z" fill="#0C0C0C"/>
<path d="M231.002 106.859L230.954 107.16L233.61 107.584L233.658 107.283L231.002 106.859Z" fill="#0C0C0C"/>
<path d="M301.806 234.846H0.194174C0.0868529 234.846 0 234.765 0 234.664C0 234.563 0.0868529 234.482 0.194174 234.482H301.806C301.913 234.482 302 234.563 302 234.664C302 234.765 301.913 234.846 301.806 234.846Z" fill="#292A2E"/>
<g opacity="0.65">
<path d="M301.806 234.846H0.194174C0.0868529 234.846 0 234.765 0 234.664C0 234.563 0.0868529 234.482 0.194174 234.482H301.806C301.913 234.482 302 234.563 302 234.664C302 234.765 301.913 234.846 301.806 234.846Z" fill="#292A2E"/>
</g>
<path d="M11.6241 235L11.1133 234.902L19.0978 155.717L19.6086 155.815L11.6241 235Z" fill="#494949"/>
<path d="M41.3556 235L40.8447 234.902L48.829 155.717L49.3398 155.815L41.3556 235Z" fill="#494949"/>
<path d="M107.072 235L107.583 234.902L99.5988 155.717L99.0879 155.815L107.072 235Z" fill="#494949"/>
<path d="M77.3417 235L77.8525 234.902L69.8683 155.717L69.3574 155.815L77.3417 235Z" fill="#494949"/>
<path d="M66.753 120.868L66.2373 120.937L70.9017 155.801L71.4173 155.733L66.753 120.868Z" fill="#494949"/>
<path d="M13.2149 120.868L12.6992 120.937L17.3636 155.801L17.8792 155.733L13.2149 120.868Z" fill="#494949"/>
<path d="M71.3729 153.213H19.0065C17.5936 153.213 16.4482 154.356 16.4482 155.767V155.767C16.4482 157.177 17.5936 158.32 19.0065 158.32H71.3729C72.7857 158.32 73.9311 157.177 73.9311 155.767V155.767C73.9311 154.356 72.7857 153.213 71.3729 153.213Z" fill="#292A2E"/>
<path opacity="0.8" d="M71.3729 153.213H19.0065C17.5936 153.213 16.4482 154.356 16.4482 155.767V155.767C16.4482 157.177 17.5936 158.32 19.0065 158.32H71.3729C72.7857 158.32 73.9311 157.177 73.9311 155.767V155.767C73.9311 154.356 72.7857 153.213 71.3729 153.213Z" fill="white"/>
<path d="M71.3732 158.579H19.0068C17.4526 158.579 16.1885 157.317 16.1885 155.766C16.1885 154.216 17.4526 152.954 19.0068 152.954H71.3732C72.9274 152.954 74.1916 154.215 74.1916 155.766C74.1916 157.317 72.9271 158.579 71.3732 158.579ZM19.0068 153.473C17.7395 153.473 16.7087 154.502 16.7087 155.766C16.7087 157.031 17.7395 158.06 19.0068 158.06H71.3732C72.6405 158.06 73.6713 157.031 73.6713 155.766C73.6713 154.502 72.6405 153.473 71.3732 153.473H19.0068Z" fill="#292A2E"/>
<path d="M100.115 153.213H47.7487C46.3358 153.213 45.1904 154.356 45.1904 155.767V155.767C45.1904 157.177 46.3358 158.32 47.7487 158.32H100.115C101.528 158.32 102.673 157.177 102.673 155.767V155.767C102.673 154.356 101.528 153.213 100.115 153.213Z" fill="white"/>
<path d="M100.115 158.579H47.749C46.1948 158.579 44.9307 157.317 44.9307 155.766C44.9307 154.216 46.1951 152.954 47.749 152.954H100.115C101.669 152.954 102.934 154.215 102.934 155.766C102.934 157.317 101.669 158.579 100.115 158.579ZM47.749 153.473C46.4817 153.473 45.4509 154.502 45.4509 155.766C45.4509 157.031 46.4817 158.06 47.749 158.06H100.115C101.382 158.06 102.414 157.031 102.414 155.766C102.414 154.502 101.382 153.473 100.115 153.473H47.749Z" fill="#292A2E"/>
<path d="M63.8852 120.902H13.0985C11.3809 120.902 9.92975 119.63 9.70787 117.93L6.34848 92.1835C6.08212 90.1412 7.67533 88.3306 9.73908 88.3306H60.5258C62.2433 88.3306 63.6945 89.6023 63.9164 91.3022L67.2758 117.049C67.5421 119.091 65.9489 120.902 63.8852 120.902Z" fill="#292A2E"/>
<path opacity="0.8" d="M63.8852 120.902H13.0985C11.3809 120.902 9.92975 119.63 9.70787 117.93L6.34848 92.1835C6.08212 90.1412 7.67533 88.3306 9.73908 88.3306H60.5258C62.2433 88.3306 63.6945 89.6023 63.9164 91.3022L67.2758 117.049C67.5421 119.091 65.9489 120.902 63.8852 120.902Z" fill="white"/>
<path d="M63.8848 121.161H13.0981C11.256 121.161 9.68748 119.786 9.44973 117.963L6.09035 92.2168C5.95379 91.1693 6.27581 90.1133 6.97422 89.3197C7.67263 88.5261 8.68031 88.0708 9.73872 88.0708H60.5254C62.3676 88.0708 63.9361 89.4456 64.1738 91.2688L67.5332 117.015C67.6698 118.063 67.3477 119.119 66.6493 119.913C65.9509 120.706 64.9432 121.161 63.8848 121.161ZM9.73872 88.59C8.82988 88.59 7.96474 88.9809 7.36517 89.6624C6.76535 90.3438 6.48884 91.2506 6.60642 92.1498L9.9658 117.897C10.17 119.462 11.5166 120.642 13.0984 120.642H63.8851C64.7939 120.642 65.6591 120.251 66.2586 119.57C66.8585 118.888 67.135 117.981 67.0176 117.082L63.6583 91.3355C63.4541 89.7701 62.1075 88.5897 60.5257 88.5897L9.73872 88.59Z" fill="#292A2E"/>
<path d="M66.7572 120.902H15.9705C14.253 120.902 12.8018 119.63 12.5799 117.93L9.22055 92.1835C8.95419 90.1412 10.5474 88.3306 12.6112 88.3306H63.3979C65.1154 88.3306 66.5666 89.6023 66.7885 91.3022L70.1479 117.049C70.4142 119.091 68.821 120.902 66.7572 120.902Z" fill="white"/>
<path d="M66.7569 121.161H15.9702C14.128 121.161 12.5595 119.786 12.3218 117.963L8.96242 92.2168C8.82586 91.1693 9.14788 90.1133 9.84629 89.3197C10.5447 88.5261 11.5524 88.0708 12.6108 88.0708H63.3975C65.2396 88.0708 66.8081 89.4456 67.0459 91.2688L70.4053 117.015C70.5418 118.063 70.2198 119.119 69.5214 119.913C68.823 120.706 67.8153 121.161 66.7569 121.161ZM12.6108 88.59C11.7019 88.59 10.8368 88.9807 10.2372 89.6624C9.63742 90.3438 9.36091 91.2506 9.47822 92.1501L12.8376 117.897C13.0418 119.462 14.3884 120.642 15.9702 120.642H66.7569C67.6657 120.642 68.5309 120.251 69.1304 119.57C69.7303 118.888 70.0068 117.982 69.8895 117.082L66.5301 91.3357C66.3259 89.7704 64.9793 88.59 63.3975 88.59H12.6108Z" fill="#292A2E"/>
<path d="M59.0199 70.0653C58.9689 70.0586 58.4034 79.4243 47.5012 78.6079C39.9537 78.0435 37.2628 70.0521 37.0898 70.0521C37.9035 69.8795 38.9091 69.6175 39.3089 69.5277C40.6368 69.2292 42.2942 68.1355 42.6774 65.8324C42.8982 64.5048 42.5237 57.7133 42.6389 56.3701L54.2241 58.9508C54.0624 61.7876 52.9293 68.364 56.9002 69.528C57.5609 69.7206 58.2726 69.8974 59.0199 70.0656V70.0653Z" fill="#FF9E85"/>
<path opacity="0.22" d="M54.3864 66.8399C54.2223 66.3171 54.1247 65.8625 54.0379 65.0453C53.8828 63.584 53.9653 62.2404 54.1136 60.8715C51.773 60.5605 49.5262 59.5782 47.7106 58.0718C47.4955 58.8646 46.3124 62.3291 46.6399 63.0828C47.259 64.5072 50.1687 66.8396 54.3864 66.8396V66.8399Z" fill="#0C0C0C"/>
<path d="M61.2761 48.9592C61.2761 48.9592 64.6006 46.4935 65.4627 40.7676C66.1301 36.334 62.0065 39.1789 62.0065 39.1789C62.0065 39.1789 62.456 35.982 60.1183 36.2821C57.7807 36.5822 56.4463 39.9343 56.4463 39.9343" fill="#0C0C0C"/>
<path d="M48.0397 36.5659C48.0397 36.5659 36.4385 37.7198 40.5114 53.4274L41.5365 53.5038L43.6177 53.6585" fill="#0C0C0C"/>
<path d="M52.1905 64.8082C47.6231 64.3651 42.1745 61.4423 42.1419 55.2502L42.1125 49.6629C42.08 43.4708 45.3125 38.4341 51.1544 38.4035C56.9963 38.3728 61.3892 43.3698 61.4217 49.5619L61.4347 52.0356C61.4373 52.5447 61.3886 53.4587 61.23 54.5726C60.9137 56.7953 60.4239 60.1747 58.8936 62.4519C57.4487 64.6016 55.1084 65.0914 52.1905 64.8082Z" fill="#FF9E85"/>
<path d="M59.7632 52.7261C59.8136 52.3786 59.5721 52.0562 59.2239 52.0059C58.8757 51.9557 58.5526 52.1966 58.5023 52.5441C58.4519 52.8916 58.6934 53.2141 59.0416 53.2643C59.3898 53.3146 59.7129 53.0736 59.7632 52.7261Z" fill="#0A0A0A"/>
<path d="M54.2414 56.9047C54.1139 56.8863 54.0184 56.7744 54.0236 56.6431C54.0291 56.5026 54.1475 56.3933 54.2882 56.399L55.6439 56.4525L55.2077 53.6715C55.1861 53.5328 55.281 53.4028 55.4202 53.381C55.5591 53.3594 55.6894 53.4542 55.7113 53.5928L56.1953 56.6794C56.207 56.7544 56.1844 56.831 56.1337 56.8879C56.083 56.9447 56.0096 56.9759 55.9334 56.9727L54.2679 56.9071C54.2588 56.9068 54.2499 56.9058 54.2414 56.9047Z" fill="#0A0A0A"/>
<path d="M53.5322 59.712C51.2463 59.382 50.7659 57.9055 50.7446 57.8364C50.7035 57.7022 50.7792 57.5599 50.9137 57.5187C51.0474 57.4774 51.1894 57.5524 51.2313 57.6858C51.2513 57.7487 51.753 59.2032 54.3121 59.2663C54.4556 59.2691 54.5641 59.3864 54.5607 59.5269C54.5573 59.6673 54.4403 59.7782 54.2998 59.7748C54.0239 59.7681 53.7682 59.746 53.5322 59.712Z" fill="#0A0A0A"/>
<path d="M53.0769 49.4128C53.1101 49.6091 52.3862 49.7908 51.3882 49.9091C50.3901 50.0275 49.4935 50.0872 49.4623 49.8414C49.423 49.5309 50.2408 48.931 51.2391 48.8129C52.2372 48.6945 53.0243 49.1044 53.0769 49.4131V49.4128Z" fill="#0A0A0A"/>
<path d="M53.3824 52.2149C53.4327 51.8674 53.1913 51.5449 52.8431 51.4947C52.4949 51.4444 52.1718 51.6854 52.1214 52.0329C52.0711 52.3804 52.3125 52.7028 52.6607 52.7531C53.0089 52.8033 53.332 52.5624 53.3824 52.2149Z" fill="#0A0A0A"/>
<path d="M60.7144 50.6496C60.6652 50.8425 59.9296 50.7153 58.9693 50.4194C58.0089 50.1234 57.1651 49.815 57.2367 49.5775C57.3269 49.2777 58.2191 49.0243 59.1797 49.3205C60.1401 49.6165 60.7922 50.3464 60.7147 50.6496H60.7144Z" fill="#0A0A0A"/>
<path d="M42.515 57.1344C40.7398 57.1438 39.2907 55.2557 39.2813 53.484C39.2719 51.7123 40.7059 50.7276 42.4815 50.7183L43.4026 51.9007L44.0417 57.1266L42.5153 57.1347L42.515 57.1344Z" fill="#FF9E85"/>
<path d="M43.7622 54.2489C44.058 54.2777 44.322 54.0638 44.3522 53.7686C44.547 51.8619 45.3674 45.4668 47.634 45.0236C49.4096 44.6766 53.69 47.2183 57.6779 46.4901C59.4225 46.1716 61.0731 46.6142 61.2352 47.4366C61.2994 47.7624 62.4198 43.0974 59.7179 39.5306C57.5671 36.6906 50.4646 35.8404 47.2238 36.742C38.2501 39.2388 42.1128 51.1018 42.1128 51.1018L42.4362 53.6967C42.4674 53.9472 42.6684 54.1427 42.9202 54.1671L43.7622 54.2489Z" fill="#0C0C0C"/>
<path d="M56.6483 42.5463C57.9642 42.2822 58.7152 40.5008 58.3256 38.5676C57.9359 36.6344 56.5533 35.2814 55.2373 35.5456C53.9213 35.8098 53.1704 37.5911 53.56 39.5243C53.9496 41.4575 55.3323 42.8105 56.6483 42.5463Z" fill="#0C0C0C"/>
<path d="M131.198 221.284C131.198 221.284 132.593 228.499 139.362 228.901C146.131 229.303 144.663 234.685 144.663 234.685H118.796V221.787L131.198 221.284L131.198 221.284Z" fill="#F58634"/>
<path d="M81.9876 216.728C81.9876 216.728 80.048 223.817 85.9437 227.16C91.8398 230.502 88.1422 234.685 88.1422 234.685L64.9316 223.29L70.6362 211.716L81.9876 216.728Z" fill="#F58634"/>
<path d="M67.6117 214.726L87.1851 153.1H51.7056C44.579 153.1 41.6074 147.069 41.6074 139.956C41.6074 132.844 48.6136 126.609 55.7405 126.609H103.625C107.972 126.609 112.846 129.262 115.231 132.889C117.617 136.515 116.972 142.135 115.244 146.115L83.9006 222.09" fill="#262626"/>
<path opacity="0.8" d="M67.6117 214.726L87.1851 153.1H51.7056C44.579 153.1 41.6074 147.069 41.6074 139.956C41.6074 132.844 48.6136 126.609 55.7405 126.609H103.625C107.972 126.609 112.846 129.262 115.231 132.889C117.617 136.515 116.972 142.135 115.244 146.115L83.9006 222.09" fill="#0A0A0A"/>
<path d="M117.309 227.984L84.5815 153.101L41.6081 153.098C31.5388 152.31 26.9272 146.803 27.0737 139.692C27.2183 132.671 30.7803 125.736 37.7837 125.736H95.7033C100.885 125.843 104.961 131.557 106.884 136.36L134.092 223.4" fill="#262626"/>
<path d="M24.1418 125.823C24.1418 125.823 22.2333 138.243 25.2585 145.149C29.0351 153.77 43.1926 153.098 43.1926 153.098L42.3949 125.737L24.1418 125.823Z" fill="#262626"/>
<path d="M108.114 125.578L77.7584 119.3C75.1877 118.769 73.0672 116.964 72.1358 114.514L60.1962 83.1151C58.6909 79.1568 60.686 74.7304 64.6523 73.2284C68.619 71.7261 73.0537 73.7175 74.5587 77.6755L85.0029 105.142L111.231 110.566C111.231 110.566 108.64 125.687 108.114 125.578L108.114 125.578Z" fill="#F58634"/>
<path d="M73.004 91.0885C72.6534 95.1987 70.168 120.841 69.8309 125.903H24.1612C23.8987 121.337 23.0468 101.952 22.0519 93.0228C21.1019 84.5026 20.7576 79.6404 21.8516 76.9925C23.7811 72.3226 28.6096 70.6423 32.7689 70.0802C35.3087 69.7371 39.1284 69.4912 39.1284 69.4912C39.1284 69.4912 39.4518 76.0208 47.1637 76.3843C57.6619 76.8785 56.9606 69.4912 57.0127 69.4912C58.7133 69.4912 67.9708 70.7256 70.2856 72.2312C73.5549 74.3578 74.5213 77.2562 74.5595 79.9189C74.6035 82.9847 73.4023 86.4272 73.004 91.0888V91.0885Z" fill="#F58634"/>
<path d="M71.2083 112.041C71.2047 112.041 71.2011 112.041 71.1974 112.04C71.1259 112.035 71.0728 111.972 71.0785 111.9L72.2642 97.6864C72.2699 97.615 72.3305 97.5592 72.4046 97.5678C72.4761 97.5735 72.5292 97.6363 72.5235 97.7079L71.3379 111.922C71.3324 111.99 71.2755 112.041 71.2083 112.041Z" fill="#0C0C0C"/>
<path d="M92.9604 120.572L102.981 89.8296C103.343 88.7214 104.378 87.9712 105.545 87.9712H146.371C148.203 87.9712 149.502 89.7556 148.935 91.4944L138.914 122.237C138.553 123.345 137.518 124.095 136.35 124.095H95.5244C93.6924 124.095 92.3936 122.311 92.9604 120.572Z" fill="#292A2E"/>
<path d="M92.9604 120.572L102.981 89.8296C103.343 88.7214 104.378 87.9712 105.545 87.9712H146.371C148.203 87.9712 149.502 89.7556 148.935 91.4944L138.914 122.237C138.553 123.345 137.518 124.095 136.35 124.095H95.5244C93.6924 124.095 92.3936 122.311 92.9604 120.572Z" fill="#292A2E"/>
<path d="M101.135 121.603H73.8062C73.1252 121.603 72.5732 122.153 72.5732 122.833V122.865C72.5732 123.544 73.1252 124.095 73.8062 124.095H101.135C101.816 124.095 102.368 123.544 102.368 122.865V122.833C102.368 122.153 101.816 121.603 101.135 121.603Z" fill="#292A2E"/>
<path d="M101.135 121.603H73.8062C73.1252 121.603 72.5732 122.153 72.5732 122.833V122.865C72.5732 123.544 73.1252 124.095 73.8062 124.095H101.135C101.816 124.095 102.368 123.544 102.368 122.865V122.833C102.368 122.153 101.816 121.603 101.135 121.603Z" fill="#292A2E"/>
<path d="M120.948 111.806C123.313 111.806 125.23 109.893 125.23 107.533C125.23 105.173 123.313 103.26 120.948 103.26C118.583 103.26 116.666 105.173 116.666 107.533C116.666 109.893 118.583 111.806 120.948 111.806Z" fill="white"/>
<path d="M90.6762 113.37L83.8557 110.984L84.8348 110.917C85.4833 110.846 86.0111 110.298 85.9739 109.648C85.9343 108.955 85.3225 108.445 84.64 108.519L72.5732 109.799L72.8867 113.669C73.0859 116.128 74.76 118.221 77.1188 118.958L82.3445 120.583C82.9003 120.757 83.5277 120.541 83.8035 120.029C84.0698 119.534 83.9593 118.975 83.6141 118.617C83.6289 118.605 83.6427 118.59 83.65 118.571C83.6638 118.535 83.656 118.497 83.6349 118.467L84.5984 118.769C85.2208 118.963 85.9247 118.673 86.152 118.062C86.3614 117.5 86.1242 116.893 85.6331 116.606C85.6448 116.6 85.6537 116.592 85.6628 116.582L86.0587 116.706C86.6145 116.88 87.2419 116.664 87.5176 116.152C87.8404 115.553 87.6115 114.858 87.0806 114.541C87.0827 114.533 87.0843 114.525 87.0843 114.517L89.9245 115.51C90.5168 115.717 91.165 115.406 91.3725 114.815C91.5801 114.224 91.2682 113.577 90.6762 113.37Z" fill="#FF9E85"/>
<path opacity="0.2" d="M86.9722 114.628C86.9594 114.628 86.9464 114.626 86.9334 114.621L84.1858 113.624C84.127 113.603 84.0968 113.538 84.1182 113.479C84.1395 113.421 84.2045 113.391 84.2631 113.412L87.0107 114.409C87.0694 114.43 87.0996 114.495 87.0783 114.554C87.0616 114.6 87.0182 114.628 86.9719 114.628H86.9722Z" fill="#0A0A0A"/>
<path opacity="0.2" d="M85.5835 116.621C85.5711 116.621 85.5583 116.619 85.5458 116.615L83.3801 115.848C83.3213 115.827 83.2904 115.762 83.3112 115.704C83.332 115.645 83.3967 115.614 83.4555 115.635L85.6212 116.402C85.68 116.423 85.711 116.487 85.6902 116.546C85.6738 116.592 85.6301 116.621 85.5835 116.621Z" fill="#0A0A0A"/>
<path opacity="0.2" d="M83.5444 118.644C83.5311 118.644 83.5174 118.642 83.5041 118.637L82.4899 118.251C82.4316 118.229 82.4022 118.164 82.4244 118.105C82.4465 118.047 82.5117 118.017 82.5705 118.04L83.5847 118.426C83.643 118.448 83.6724 118.513 83.6503 118.571C83.6331 118.617 83.5899 118.644 83.5444 118.644V118.644Z" fill="#0A0A0A"/>
<path d="M77.9146 107.509L49.3022 107.49L38.4775 81.1377L22.3301 87.9126L35.8355 119.189L35.9677 119.5C37.2815 122.526 40.3855 124.558 43.8752 124.353L78.3477 122.32L77.9146 107.509Z" fill="#F58634"/>
<path d="M43.4003 124.496C40.1463 124.496 37.1524 122.555 35.8479 119.552L35.7155 119.239L24.208 92.5904L24.4468 92.4876L36.087 119.449C37.4117 122.5 40.5386 124.418 43.8673 124.223L78.2136 122.198L77.7881 107.639L49.2147 107.619L40.8915 87.3572L41.1321 87.2588L49.3892 107.36L78.0407 107.379L78.481 122.442L78.3549 122.449L43.8823 124.482C43.7213 124.491 43.5601 124.496 43.4001 124.496H43.4003Z" fill="#0C0C0C"/>
<path d="M215.357 126.583L214.84 126.635L225.806 234.977L226.323 234.925L215.357 126.583Z" fill="#494949"/>
<path d="M11.5739 126.584L0.600586 234.925L1.11818 234.978L12.0915 126.636L11.5739 126.584Z" fill="#494949"/>
<path d="M56.9118 126.584L45.9385 234.925L46.4561 234.978L57.4294 126.636L56.9118 126.584Z" fill="#494949"/>
<path d="M260.695 126.583L260.178 126.635L271.143 234.977L271.661 234.925L260.695 126.583Z" fill="#494949"/>
<path d="M270.583 124.482H2.40384C1.22671 124.482 0.272461 125.435 0.272461 126.609C0.272461 127.784 1.22671 128.736 2.40384 128.736H270.583C271.761 128.736 272.715 127.784 272.715 126.609C272.715 125.435 271.761 124.482 270.583 124.482Z" fill="#292A2E"/>
<path opacity="0.8" d="M270.583 124.482H2.40384C1.22671 124.482 0.272461 125.435 0.272461 126.609C0.272461 127.784 1.22671 128.736 2.40384 128.736H270.583C271.761 128.736 272.715 127.784 272.715 126.609C272.715 125.435 271.761 124.482 270.583 124.482Z" fill="white"/>
<path d="M270.584 128.996H2.40419C1.08567 128.996 0.0126953 127.925 0.0126953 126.609C0.0126953 125.293 1.08567 124.223 2.40419 124.223H270.584C271.903 124.223 272.975 125.293 272.975 126.609C272.975 127.925 271.903 128.996 270.584 128.996ZM2.40419 124.742C1.37232 124.742 0.532926 125.58 0.532926 126.609C0.532926 127.639 1.37232 128.477 2.40419 128.477H270.584C271.616 128.477 272.455 127.639 272.455 126.609C272.455 125.58 271.616 124.742 270.584 124.742H2.40419Z" fill="#292A2E"/>
<path d="M270.583 124.482H49.4742C48.297 124.482 47.3428 125.435 47.3428 126.609C47.3428 127.784 48.297 128.736 49.4742 128.736H270.583C271.76 128.736 272.714 127.784 272.714 126.609C272.714 125.435 271.76 124.482 270.583 124.482Z" fill="white"/>
<path d="M270.584 128.996H49.4742C48.1557 128.996 47.083 127.925 47.083 126.609C47.083 125.293 48.1557 124.223 49.4742 124.223H270.583C271.902 124.223 272.975 125.293 272.975 126.609C272.975 127.925 271.902 128.996 270.584 128.996ZM49.4745 124.742C48.4429 124.742 47.6035 125.58 47.6035 126.609C47.6035 127.639 48.4429 128.477 49.4745 128.477H270.584C271.615 128.477 272.455 127.639 272.455 126.609C272.455 125.58 271.615 124.742 270.584 124.742H49.4742H49.4745Z" fill="#292A2E"/>
<path d="M281.303 63.9149C281.36 63.9075 281.996 74.4317 294.255 73.5141C302.741 72.8801 305.767 63.9001 305.962 63.9001C305.047 63.706 303.506 63.424 303.1 63.2077C301.763 62.4916 299.86 61.7464 299.429 59.1582C299.181 57.6665 299.602 50.0347 299.472 48.5254L286.695 51.4253C286.877 54.613 288.151 62.0028 283.686 63.3107C282.943 63.527 282.143 63.7261 281.303 63.9149Z" fill="#6E4320"/>
<path d="M287.054 56.3973C292.199 56.7934 298.803 54.6159 300.047 47.7692L301.169 41.5914C302.412 34.7446 299.814 28.5427 293.351 27.3751C286.887 26.2074 281.047 30.8852 279.804 37.7319L279.307 40.467C279.205 41.03 279.081 42.0511 279.039 43.3146C278.956 45.8358 278.84 49.6712 280.09 52.4884C281.271 55.148 283.768 56.1443 287.054 56.3973Z" fill="#6E4320"/>
<path d="M298.591 27.0243C296.945 26.4883 294.616 26.0322 292.293 25.9554C292.085 25.1416 291.624 24.5089 290.945 24.2446C289.815 23.8041 288.434 24.5134 287.515 25.8804C287.005 25.0999 286.313 24.3964 285.395 24.1115C282.865 23.3257 282.739 26.9512 282.739 26.9512C282.739 26.9512 278.727 23.0025 278.602 28.0386C278.45 34.1319 279.573 35.9191 280.392 36.3701C282.009 37.261 283.214 37.1102 283.854 38.421C285.793 42.3903 283.893 53.5705 286.136 54.9702C289.572 57.1149 296.611 57.1888 298.897 57.0259C299.777 56.963 300.599 55.9467 300.97 55.149C302.165 52.5734 304.832 46.7346 305.574 44.3198C306.944 39.8633 306.841 29.7111 298.591 27.0246V27.0243Z" fill="#0C0C0C"/>
<path d="M284.6 50.9758C286.585 50.7609 287.963 48.4691 287.747 46.4898C287.532 44.5104 285.804 43.5931 283.82 43.808L282.941 45.245L282.894 51.1607L284.6 50.9758Z" fill="#6E4320"/>
<path d="M317.752 124.115L317.813 124.118C317.813 124.118 317.769 122.936 317.752 124.115Z" fill="#333333"/>
<path d="M263.68 87.2358C264.067 91.7757 265.952 120.099 266.325 125.691H317.666C317.956 120.648 319.258 98.5942 320.358 88.7317C321.407 79.3205 323.467 74.6086 321.957 71.8263C319.49 67.279 312.749 64.6513 308.152 64.0305C305.345 63.6516 304.766 63.3799 303.622 63.3799C295.387 63.3799 283.912 63.3799 283.855 63.3799C281.975 63.3799 269.971 65.1863 267.51 66.9906C260.699 71.985 262.858 77.6152 263.68 87.2358Z" fill="#13524A"/>
<path d="M328.628 125.394C331.495 125.394 334.227 124.082 336.015 121.799C338.012 119.248 338.544 115.849 337.421 112.812C336.891 111.377 324.456 78.5368 322.089 72.4517L304.561 79.535C305.891 82.9564 310.714 95.9247 314.588 106.372L308.152 105.674L306.126 124.261L327.613 125.34C327.953 125.376 328.291 125.394 328.628 125.394Z" fill="#13524A"/>
<path d="M318.624 88.9221L317.362 125.686L317.703 125.698L318.965 88.9337L318.624 88.9221Z" fill="#0C0C0C"/>
<path d="M256.253 125.395C253.386 125.395 250.653 124.083 248.866 121.8C246.869 119.249 246.337 115.849 247.46 112.813C247.99 111.378 260.946 78.3928 263.313 72.3076L280.32 79.5356C278.989 82.957 274.167 95.9254 270.293 106.372L276.729 105.675L278.755 124.262L257.267 125.34C256.928 125.377 256.59 125.395 256.253 125.395Z" fill="#13524A"/>
<path d="M270.252 104.192C270.233 104.192 270.214 104.189 270.195 104.183C270.096 104.152 270.042 104.047 270.073 103.949L274.624 89.6614C274.655 89.5632 274.76 89.509 274.859 89.5399C274.958 89.5711 275.012 89.6764 274.981 89.7747L270.431 104.062C270.405 104.141 270.332 104.192 270.252 104.192V104.192Z" fill="#0C0C0C"/>
<path d="M256.397 217.043L257.492 234.241L233.943 234.353C233.943 234.353 232.743 230.036 238.262 228.194C241.331 227.169 243.333 223.725 242.707 219.475L256.397 217.043Z" fill="#383838"/>
<path opacity="0.17" d="M256.397 217.043L257.492 234.241L233.943 234.353C233.943 234.353 232.743 230.036 238.262 228.194C241.331 227.169 243.333 223.725 242.707 219.475L256.397 217.043Z" fill="#070707"/>
<path d="M281.835 217.044L286.16 230.022L269.722 234.309L260.418 234.353C260.418 234.353 259.218 230.037 264.737 228.194C267.805 227.169 268.771 223.725 268.145 219.476L281.834 217.043L281.835 217.044Z" fill="#383838"/>
<g opacity="0.75">
<path d="M283.465 139.532L258.837 227.399L238.367 221.97L260.748 133.508L283.465 139.532Z" fill="white"/>
</g>
<path d="M283.465 139.532L258.837 227.399L238.367 221.97L260.748 133.508L283.465 139.532Z" fill="#383838"/>
<g opacity="0.52">
<path d="M283.465 139.532L258.837 227.399L238.367 221.97L260.748 133.508L283.465 139.532Z" fill="white"/>
</g>
<path d="M248.759 125.634C241.597 125.648 235.815 131.472 235.872 138.615C235.889 140.771 236.439 142.797 237.392 144.576L266.342 227.436L286.464 220.84L264.938 151.39H304.473C311.667 151.39 317.53 145.634 317.644 138.461L317.85 125.501L248.759 125.634L248.759 125.634Z" fill="#383838"/>
<path opacity="0.64" d="M248.759 125.634C241.597 125.648 235.815 131.472 235.872 138.615C235.889 140.771 236.439 142.797 237.392 144.576L266.342 227.436L286.464 220.84L264.938 151.39H304.473C311.667 151.39 317.53 145.634 317.644 138.461L317.85 125.501L248.759 125.634L248.759 125.634Z" fill="white"/>
<path d="M226.52 234.847L226 234.748L236.775 154.202L237.295 154.302L226.52 234.847Z" fill="#494949"/>
<path d="M259.429 234.847L258.909 234.748L267.036 154.202L267.556 154.302L259.429 234.847Z" fill="#494949"/>
<path d="M270.203 118.787H321.897C323.645 118.787 325.122 117.493 325.348 115.764L328.767 89.5749C329.039 87.4976 327.417 85.6558 325.316 85.6558H273.623C271.875 85.6558 270.398 86.9494 270.172 88.6784L266.752 114.868C266.481 116.945 268.103 118.787 270.203 118.787Z" fill="white"/>
<path d="M267.389 117.781C266.678 116.973 266.35 115.899 266.489 114.834L269.909 88.6445C270.151 86.79 271.747 85.3916 273.622 85.3916H325.316C326.393 85.3916 327.419 85.8545 328.13 86.662C328.841 87.4695 329.169 88.5434 329.029 89.6088L325.61 115.798C325.368 117.652 323.771 119.051 321.896 119.051H270.203C269.126 119.051 268.1 118.588 267.389 117.78V117.781ZM273.622 85.92C272.012 85.92 270.642 87.1206 270.434 88.7129L267.014 114.902C266.895 115.817 267.176 116.739 267.787 117.432C268.397 118.125 269.278 118.523 270.203 118.523H321.896C323.506 118.523 324.877 117.322 325.085 115.73L328.504 89.5413C328.624 88.6263 328.342 87.7039 327.732 87.0108C327.121 86.3176 326.241 85.92 325.316 85.92H273.622Z" fill="#292A2E"/>
<path d="M236.25 156.849H289.551C290.989 156.849 292.155 155.686 292.155 154.252V154.251C292.155 152.817 290.989 151.654 289.551 151.654H236.25C234.812 151.654 233.646 152.817 233.646 154.251V154.252C233.646 155.686 234.812 156.849 236.25 156.849Z" fill="white"/>
<path d="M233.381 154.252C233.381 152.674 234.668 151.391 236.25 151.391H289.551C291.133 151.391 292.42 152.674 292.42 154.252C292.42 155.829 291.133 157.113 289.551 157.113H236.25C234.668 157.113 233.381 155.829 233.381 154.252ZM236.25 151.919C234.96 151.919 233.91 152.965 233.91 154.252C233.91 155.538 234.96 156.585 236.25 156.585H289.551C290.841 156.585 291.89 155.538 291.89 154.252C291.89 152.965 290.841 151.919 289.551 151.919H236.25Z" fill="#292A2E"/>
<path d="M326.32 234.847L326.84 234.748L318.713 154.202L318.193 154.302L326.32 234.847Z" fill="#494949"/>
<path d="M296.058 234.847L296.578 234.748L288.452 154.202L287.932 154.302L296.058 234.847Z" fill="#494949"/>
<path d="M270.204 118.751L265.456 154.215L265.981 154.285L270.729 118.821L270.204 118.751Z" fill="#494949"/>
<path d="M324.697 118.752L319.949 154.216L320.474 154.286L325.222 118.822L324.697 118.752Z" fill="#494949"/>
<path d="M265.504 156.849H318.805C320.243 156.849 321.409 155.686 321.409 154.252V154.251C321.409 152.817 320.243 151.654 318.805 151.654H265.504C264.066 151.654 262.9 152.817 262.9 154.251V154.252C262.9 155.686 264.066 156.849 265.504 156.849Z" fill="#292A2E"/>
<path opacity="0.8" d="M265.504 156.849H318.805C320.243 156.849 321.409 155.686 321.409 154.252V154.251C321.409 152.817 320.243 151.654 318.805 151.654H265.504C264.066 151.654 262.9 152.817 262.9 154.251V154.252C262.9 155.686 264.066 156.849 265.504 156.849Z" fill="white"/>
<path d="M262.636 154.252C262.636 152.674 263.923 151.391 265.504 151.391H318.806C320.388 151.391 321.674 152.674 321.674 154.252C321.674 155.829 320.388 157.113 318.806 157.113H265.504C263.922 157.113 262.636 155.829 262.636 154.252ZM265.504 151.919C264.214 151.919 263.165 152.965 263.165 154.252C263.165 155.538 264.214 156.585 265.504 156.585H318.806C320.096 156.585 321.145 155.538 321.145 154.252C321.145 152.965 320.096 151.919 318.806 151.919H265.504Z" fill="#292A2E"/>
<path d="M273.127 118.787H324.821C326.569 118.787 328.046 117.493 328.272 115.764L331.691 89.5749C331.962 87.4976 330.341 85.6558 328.24 85.6558H276.547C274.798 85.6558 273.321 86.9494 273.096 88.6784L269.676 114.868C269.405 116.945 271.027 118.787 273.127 118.787Z" fill="#292A2E"/>
<path opacity="0.8" d="M273.127 118.787H324.821C326.569 118.787 328.046 117.493 328.272 115.764L331.691 89.5749C331.962 87.4976 330.341 85.6558 328.24 85.6558H276.547C274.798 85.6558 273.321 86.9494 273.096 88.6784L269.676 114.868C269.405 116.945 271.027 118.787 273.127 118.787Z" fill="white"/>
<path d="M270.313 117.781C269.602 116.973 269.274 115.899 269.413 114.834L272.833 88.6445C273.075 86.79 274.671 85.3916 276.546 85.3916H328.24C329.317 85.3916 330.343 85.8545 331.054 86.662C331.764 87.4695 332.092 88.5434 331.953 89.6088L328.534 115.798C328.292 117.652 326.695 119.051 324.82 119.051H273.127C272.049 119.051 271.024 118.588 270.313 117.78V117.781ZM276.546 85.92C274.936 85.92 273.565 87.1206 273.358 88.7129L269.938 114.902C269.819 115.817 270.1 116.739 270.711 117.432C271.321 118.125 272.202 118.523 273.127 118.523H324.82C326.43 118.523 327.801 117.322 328.009 115.73L331.428 89.5413C331.548 88.6266 331.266 87.7042 330.656 87.0111C330.046 86.3179 329.165 85.9202 328.24 85.9202H276.546L276.546 85.92Z" fill="#292A2E"/>
</g>
<defs>
<clipPath id="clip0_2006_112">
<rect width="338" height="235" fill="white"/>
</clipPath>
</defs>
</svg>
