<svg width="167" height="128" viewBox="0 0 167 128" fill="none" xmlns="http://www.w3.org/2000/svg">
<g clip-path="url(#clip0_1148_1514)">
<path d="M60.5793 95.9576V126.813H133.686C142.016 126.813 148.793 119.892 148.793 111.385C148.793 102.879 142.016 95.9576 133.686 95.9576H60.5793Z" fill="#F2F2F2"/>
<path d="M58.7836 126.576C58.7837 126.891 58.902 127.192 59.1125 127.415C59.3229 127.637 59.6083 127.763 59.9059 127.763H134.989C139.066 127.763 142.977 126.05 145.861 123.001C148.744 119.952 150.364 115.816 150.364 111.504C150.364 107.192 148.744 103.057 145.861 100.008C142.977 96.9586 139.066 95.2456 134.989 95.2456H59.9059C59.6083 95.2456 59.3228 95.3706 59.1123 95.5932C58.9019 95.8158 58.7836 96.1176 58.7836 96.4324C58.7836 96.7471 58.9019 97.049 59.1123 97.2715C59.3228 97.4941 59.6083 97.6191 59.9059 97.6191H134.989C138.471 97.6191 141.811 99.082 144.274 101.686C146.736 104.29 148.12 107.822 148.12 111.504C148.12 115.187 146.736 118.718 144.274 121.322C141.811 123.926 138.471 125.389 134.989 125.389H59.9059C59.6083 125.389 59.3229 125.514 59.1125 125.737C58.902 125.959 58.7837 126.261 58.7836 126.576Z" fill="#F58634"/>
<path d="M60.5794 103.078H139.141C139.201 103.078 139.258 103.053 139.3 103.009C139.342 102.964 139.366 102.904 139.366 102.841C139.366 102.778 139.342 102.717 139.3 102.673C139.258 102.628 139.201 102.603 139.141 102.603H60.5794C60.5199 102.603 60.4628 102.628 60.4207 102.673C60.3786 102.717 60.355 102.778 60.355 102.841C60.355 102.904 60.3786 102.964 60.4207 103.009C60.4628 103.053 60.5199 103.078 60.5794 103.078Z" fill="#CCCCCC"/>
<path d="M60.5794 108.775H139.141C139.201 108.775 139.258 108.75 139.3 108.705C139.342 108.661 139.366 108.6 139.366 108.537C139.366 108.474 139.342 108.414 139.3 108.369C139.258 108.325 139.201 108.3 139.141 108.3H60.5794C60.5199 108.3 60.4628 108.325 60.4207 108.369C60.3786 108.414 60.355 108.474 60.355 108.537C60.355 108.6 60.3786 108.661 60.4207 108.705C60.4628 108.75 60.5199 108.775 60.5794 108.775Z" fill="#CCCCCC"/>
<path d="M60.5794 114.471H139.141C139.201 114.471 139.258 114.446 139.3 114.401C139.342 114.357 139.366 114.297 139.366 114.234C139.366 114.171 139.342 114.11 139.3 114.066C139.258 114.021 139.201 113.996 139.141 113.996H60.5794C60.5199 113.996 60.4628 114.021 60.4207 114.066C60.3786 114.11 60.355 114.171 60.355 114.234C60.355 114.297 60.3786 114.357 60.4207 114.401C60.4628 114.446 60.5199 114.471 60.5794 114.471Z" fill="#CCCCCC"/>
<path d="M60.5794 120.167H139.141C139.201 120.167 139.258 120.142 139.3 120.098C139.342 120.053 139.366 119.993 139.366 119.93C139.366 119.867 139.342 119.807 139.3 119.762C139.258 119.718 139.201 119.693 139.141 119.693H60.5794C60.5199 119.693 60.4628 119.718 60.4207 119.762C60.3786 119.807 60.355 119.867 60.355 119.93C60.355 119.993 60.3786 120.053 60.4207 120.098C60.4628 120.142 60.5199 120.167 60.5794 120.167Z" fill="#CCCCCC"/>
<path d="M4.07806 101.766L22.3863 125.792L79.3133 77.2898C85.7994 71.7635 86.9699 61.878 81.9224 55.254C76.875 48.63 67.4912 47.7369 61.0051 53.2631L4.07806 101.766Z" fill="#F2F2F2"/>
<path d="M20.8475 126.799C21.0343 127.044 21.3055 127.2 21.6014 127.234C21.8973 127.268 22.1937 127.176 22.4255 126.979L80.8909 77.1651C84.0663 74.4597 86.0952 70.5312 86.5314 66.2439C86.9675 61.9566 85.7752 57.6617 83.2166 54.304C80.6581 50.9463 76.9429 48.8009 72.8884 48.3397C68.8339 47.8785 64.7722 49.1393 61.5969 51.8447L3.13152 101.658C3.01665 101.756 2.92113 101.877 2.8504 102.013C2.77968 102.15 2.73513 102.3 2.71932 102.455C2.70351 102.61 2.71673 102.767 2.75824 102.917C2.79975 103.066 2.86873 103.206 2.96124 103.327C3.05374 103.449 3.16797 103.55 3.29738 103.624C3.42679 103.699 3.56886 103.746 3.71545 103.763C3.86205 103.779 4.01031 103.765 4.15176 103.721C4.29321 103.677 4.42507 103.604 4.53983 103.506L63.0052 53.6929C64.3479 52.548 65.8907 51.6941 67.5455 51.1798C69.2004 50.6656 70.9348 50.5011 72.6498 50.6958C74.3648 50.8905 76.0267 51.4406 77.5405 52.3147C79.0544 53.1887 80.3906 54.3695 81.4728 55.7897C82.555 57.21 83.362 58.8417 83.8477 60.5918C84.3333 62.3418 84.4882 64.176 84.3034 65.9893C84.1186 67.8027 83.5977 69.5598 82.7705 71.1602C81.9434 72.7607 80.8261 74.1732 79.4826 75.3169L21.0172 125.13C20.7855 125.328 20.6375 125.615 20.6057 125.927C20.5739 126.24 20.6608 126.554 20.8475 126.799Z" fill="#CCCCCC"/>
<path d="M8.30334 107.31L69.4779 55.1888C69.5008 55.1693 69.5199 55.1451 69.5341 55.1178C69.5482 55.0904 69.5571 55.0604 69.5602 55.0294C69.5634 54.9984 69.5607 54.9671 69.5524 54.9372C69.5441 54.9073 69.5303 54.8794 69.5118 54.8551C69.4934 54.8308 69.4705 54.8106 69.4446 54.7957C69.4188 54.7808 69.3904 54.7714 69.3611 54.768C69.3318 54.7647 69.3021 54.7675 69.2738 54.7763C69.2456 54.785 69.2192 54.7996 69.1962 54.8192L8.02169 106.941C7.99869 106.96 7.97957 106.984 7.9654 107.012C7.95124 107.039 7.94232 107.069 7.93914 107.1C7.93597 107.131 7.9386 107.163 7.9469 107.193C7.9552 107.223 7.96901 107.25 7.98752 107.275C8.00603 107.299 8.02888 107.319 8.05477 107.334C8.08067 107.349 8.10909 107.359 8.13842 107.362C8.16776 107.365 8.19742 107.362 8.22572 107.354C8.25402 107.345 8.2804 107.33 8.30334 107.31Z" fill="#CCCCCC"/>
<path d="M11.683 111.746L72.8575 59.6245C72.9038 59.585 72.9333 59.5276 72.9396 59.4651C72.946 59.4026 72.9285 59.3399 72.8912 59.2909C72.8539 59.242 72.7997 59.2107 72.7406 59.2039C72.6815 59.1971 72.6222 59.2155 72.5758 59.2549L11.4013 111.376C11.3783 111.396 11.3592 111.42 11.345 111.448C11.3309 111.475 11.3219 111.505 11.3188 111.536C11.3156 111.567 11.3182 111.598 11.3265 111.628C11.3348 111.658 11.3486 111.686 11.3671 111.71C11.3856 111.735 11.4085 111.755 11.4344 111.77C11.4603 111.785 11.4887 111.794 11.518 111.797C11.5474 111.801 11.577 111.798 11.6053 111.789C11.6336 111.78 11.66 111.766 11.683 111.746Z" fill="#CCCCCC"/>
<path d="M15.0631 116.182L76.2376 64.0602C76.284 64.0207 76.3136 63.9633 76.32 63.9007C76.3264 63.8382 76.309 63.7755 76.2716 63.7264C76.2343 63.6774 76.18 63.6461 76.1208 63.6394C76.0616 63.6326 76.0023 63.651 75.956 63.6905L14.7814 115.812C14.7585 115.832 14.7394 115.856 14.7253 115.883C14.7111 115.911 14.7023 115.941 14.6991 115.972C14.696 116.003 14.6986 116.034 14.7069 116.064C14.7152 116.094 14.729 116.122 14.7475 116.146C14.766 116.17 14.7888 116.19 14.8147 116.205C14.8406 116.22 14.869 116.23 14.8983 116.233C14.9276 116.236 14.9572 116.233 14.9855 116.225C15.0138 116.216 15.0402 116.201 15.0631 116.182Z" fill="#CCCCCC"/>
<path d="M18.443 120.618L79.6175 68.4959C79.6405 68.4763 79.6596 68.4522 79.6737 68.4248C79.6878 68.3975 79.6967 68.3675 79.6999 68.3365C79.703 68.3055 79.7004 68.2741 79.6921 68.2442C79.6838 68.2143 79.67 68.1864 79.6515 68.1622C79.633 68.1379 79.6102 68.1177 79.5843 68.1028C79.5584 68.0878 79.53 68.0784 79.5007 68.0751C79.4714 68.0718 79.4418 68.0746 79.4135 68.0833C79.3852 68.0921 79.3588 68.1067 79.3359 68.1263L18.1613 120.248C18.1383 120.267 18.1192 120.292 18.1051 120.319C18.0909 120.346 18.082 120.376 18.0788 120.407C18.0756 120.438 18.0782 120.47 18.0865 120.5C18.0948 120.53 18.1087 120.558 18.1272 120.582C18.1457 120.606 18.1685 120.626 18.1944 120.641C18.2203 120.656 18.2487 120.666 18.2781 120.669C18.3074 120.672 18.3371 120.669 18.3654 120.661C18.3937 120.652 18.42 120.637 18.443 120.618Z" fill="#CCCCCC"/>
<path d="M0.224472 128H166.776C166.835 128 166.892 127.975 166.934 127.93C166.976 127.886 167 127.826 167 127.763C167 127.7 166.976 127.639 166.934 127.595C166.892 127.55 166.835 127.525 166.776 127.525H0.224472C0.164932 127.525 0.107849 127.55 0.0657501 127.595C0.0236511 127.639 0 127.7 0 127.763C0 127.826 0.0236511 127.886 0.0657501 127.93C0.107849 127.975 0.164932 128 0.224472 128Z" fill="#CCCCCC"/>
<path d="M91.1134 92.7145L93.6795 92.7142L94.8999 82.248L91.1126 82.2485L91.1134 92.7145Z" fill="#FFB8B8"/>
<path d="M95.5124 91.939H90.5635V95.2339H98.6284C98.6284 94.8012 98.5478 94.3727 98.3912 93.973C98.2346 93.5732 98.0051 93.21 97.7158 92.904C97.4264 92.5981 97.0829 92.3554 96.7049 92.1898C96.3268 92.0242 95.9216 91.939 95.5124 91.939Z" fill="#2F2E41"/>
<path d="M117.33 92.7145L119.896 92.7142L121.116 82.248L117.329 82.2485L117.33 92.7145Z" fill="#FFB8B8"/>
<path d="M121.729 91.939H116.78V95.2339H124.845C124.845 94.8012 124.764 94.3727 124.608 93.973C124.451 93.5732 124.221 93.21 123.932 92.904C123.643 92.5981 123.299 92.3554 122.921 92.1898C122.543 92.0242 122.138 91.939 121.729 91.939Z" fill="#2F2E41"/>
<path d="M108.759 15.0796V13.8928C108.759 11.8627 107.996 9.91576 106.639 8.48025C105.281 7.04474 103.44 6.23828 101.52 6.23828C99.6 6.23828 97.7587 7.04474 96.4012 8.48025C95.0436 9.91576 94.281 11.8627 94.281 13.8928V15.0796C94.281 16.5432 94.8308 17.9468 95.8095 18.9817C96.7882 20.0166 98.1156 20.598 99.4997 20.598H103.54C104.225 20.598 104.904 20.4553 105.537 20.178C106.17 19.9006 106.746 19.4942 107.23 18.9817C107.715 18.4693 108.099 17.8609 108.362 17.1914C108.624 16.5219 108.759 15.8043 108.759 15.0796Z" fill="#2F2E41"/>
<path d="M101.52 21.0064C98.4749 21.0064 96.0067 18.3964 96.0067 15.1768C96.0067 11.9572 98.4749 9.34723 101.52 9.34723C104.564 9.34723 107.033 11.9572 107.033 15.1768C107.033 18.3964 104.564 21.0064 101.52 21.0064Z" fill="#FFB8B8"/>
<path d="M131.507 35.2123C131.283 34.989 131.016 34.8202 130.724 34.7178C130.432 34.6155 130.122 34.5822 129.816 34.6201C129.511 34.6581 129.217 34.7664 128.955 34.9375C128.693 35.1086 128.47 35.3384 128.302 35.6105L123.576 34.6652L122.332 37.5619L129.024 38.7978C129.475 39.0671 130.004 39.1521 130.51 39.0367C131.016 38.9212 131.465 38.6134 131.771 38.1714C132.077 37.7295 132.22 37.1841 132.171 36.6388C132.122 36.0934 131.886 35.5859 131.507 35.2123Z" fill="#FFB8B8"/>
<path d="M105.756 24.7767L113.506 30.1751L126.582 34.5906C126.756 34.6495 126.904 34.7701 127.003 34.9319C127.102 35.0936 127.144 35.2866 127.124 35.4779L126.839 38.0761C126.826 38.1911 126.791 38.302 126.735 38.4017C126.68 38.5015 126.605 38.5878 126.516 38.6553C126.427 38.7228 126.326 38.7698 126.218 38.7934C126.111 38.8171 126.001 38.8167 125.893 38.7925L113.586 36.003C112.991 35.8687 112.427 35.6065 111.932 35.2327L103.225 28.6825C102.91 28.4438 102.658 28.1227 102.494 27.7506C102.331 27.3784 102.261 26.9679 102.292 26.5588C102.324 26.1492 102.456 25.7554 102.676 25.4162C102.895 25.077 103.194 24.8041 103.544 24.6243C103.893 24.4445 104.281 24.364 104.669 24.3907C105.057 24.4174 105.431 24.5504 105.756 24.7767Z" fill="#CCCCCC"/>
<path d="M93.634 89.7444C93.831 89.7445 94.0237 89.6839 94.1886 89.57C94.3535 89.4562 94.4835 89.294 94.5627 89.1033L106.327 58.3661C106.354 58.2995 106.4 58.2433 106.459 58.2052C106.518 58.1671 106.586 58.1488 106.654 58.1529C106.723 58.157 106.789 58.1832 106.843 58.2281C106.897 58.2729 106.937 58.3342 106.957 58.4037L116.555 88.3274C116.595 88.4667 116.662 88.5957 116.752 88.7065C116.841 88.8174 116.951 88.9077 117.075 88.972C117.198 89.0363 117.333 89.0731 117.471 89.0803C117.608 89.0874 117.746 89.0648 117.875 89.0136L121.093 87.7374C121.268 87.6688 121.421 87.5502 121.536 87.395C121.651 87.2398 121.723 87.0539 121.744 86.8581C123.192 73.5208 110.566 39.8556 110.438 39.5172L110.402 39.4234L98.8927 42.1156L98.8687 42.1432C94.2767 47.4404 90.5022 80.8509 89.7922 87.4947C89.7657 87.7347 89.8174 87.977 89.9386 88.1818C90.0598 88.3866 90.2434 88.5416 90.4591 88.6213L93.2999 89.6837C93.4072 89.7239 93.5202 89.7444 93.634 89.7444Z" fill="#2F2E41"/>
<path d="M103.551 43.1992C106.339 43.1992 109.448 42.6113 110.405 40.1847L110.427 40.1289L110.397 40.0772C109.642 38.7667 108.644 36.5311 109.18 36.1114C110.237 35.285 110.75 33.9254 110.705 32.0705C110.606 28.0436 108.011 24.4684 104.248 23.174C103.197 22.8185 102.128 22.5275 101.046 22.3023C100.257 22.134 99.443 22.1525 98.6617 22.3566C97.8804 22.5606 97.1515 22.9451 96.5273 23.4824C95.8954 24.0232 95.3845 24.7053 95.0315 25.4797C94.6785 26.2542 94.4921 27.1017 94.4856 27.9613C94.4462 32.2647 95.0727 38.2584 98.2818 42.3733C98.4322 42.5642 98.6415 42.6929 98.8728 42.7368C100.417 43.0321 101.982 43.1868 103.551 43.1992Z" fill="#CCCCCC"/>
<path d="M104.588 43.0381C104.436 42.4624 104.076 41.9734 103.585 41.6772C103.094 41.381 102.513 41.3017 101.967 41.4563C101.855 41.4893 101.747 41.5318 101.642 41.5836L98.0532 38.1304L95.5577 39.9083L100.689 44.7101C100.921 45.1519 101.286 45.499 101.726 45.6963C102.165 45.8935 102.655 45.9296 103.116 45.7987C103.385 45.7209 103.637 45.5876 103.857 45.4064C104.076 45.2251 104.26 44.9997 104.397 44.7429C104.534 44.4862 104.621 44.2034 104.654 43.9108C104.687 43.6181 104.664 43.3215 104.588 43.0381Z" fill="#FFB8B8"/>
<path d="M98.6217 43.0819C98.8545 43.0821 99.0802 42.9969 99.2604 42.841L100.675 41.6182C100.793 41.5163 100.888 41.3874 100.952 41.2413C101.016 41.0953 101.049 40.9357 101.046 40.7746C101.044 40.6136 101.007 40.4552 100.939 40.3112C100.87 40.1673 100.772 40.0417 100.651 39.9436L94.7158 35.1302C94.6455 35.0729 94.5993 34.9885 94.5874 34.8954C94.5755 34.8024 94.5988 34.7081 94.6522 34.633L98.3155 29.5119C98.7411 28.9189 98.9546 28.1858 98.9181 27.4424C98.8817 26.6989 98.5976 25.9931 98.1163 25.4498C97.6094 24.8709 96.9152 24.5146 96.1714 24.4517C95.4276 24.3888 94.6887 24.6239 94.1012 25.1102L94.078 25.1361L90.2527 30.928C89.8391 31.271 89.506 31.7104 89.2795 32.212C89.053 32.7135 88.9392 33.2637 88.9471 33.8194C88.9549 34.3752 89.0841 34.9215 89.3246 35.4157C89.5651 35.91 89.9104 36.3387 90.3336 36.6685L98.0204 42.8725C98.1945 43.0085 98.4052 43.0819 98.6217 43.0819Z" fill="#CCCCCC"/>
<path d="M106.403 13.5368V10.6444L101.52 8.38959L96.8632 10.6444V13.5368C96.8632 13.6627 96.9105 13.7835 96.9947 13.8725C97.0789 13.9615 97.1931 14.0115 97.3121 14.0115H105.954C106.073 14.0115 106.187 13.9615 106.271 13.8725C106.356 13.7835 106.403 13.6627 106.403 13.5368Z" fill="#2F2E41"/>
<path d="M101.744 6.622C102.462 4.19188 100.954 1.40685 98.7245 0.44494C96.4953 -0.516964 93.8282 0.155437 91.9472 1.74465C90.0661 3.33386 88.8991 5.7142 88.2807 8.17476C87.6623 10.6353 87.5449 13.2011 87.4307 15.7442C84.6918 16.2762 82.8286 19.7114 83.7774 22.4798C84.7263 25.2483 88.2381 26.6237 90.6635 25.1767C93.0888 23.7297 93.7913 19.8399 92.0409 17.5497C91.2126 16.466 90.7499 15.1211 90.7261 13.728C90.7023 12.3349 91.1188 10.9732 91.9095 9.85861C92.7002 8.74401 93.8199 7.94021 95.0914 7.57453C96.3629 7.20885 97.7134 7.30219 98.9291 7.83976C100.279 8.43668 101.973 6.88576 101.744 6.622Z" fill="#2F2E41"/>
<path d="M132.519 23.9921C135.799 23.9693 139.037 23.2194 142.025 21.7907C142.203 21.7069 142.354 21.5701 142.459 21.3972C142.565 21.2242 142.621 21.0225 142.62 20.8166V12.1728C142.62 11.8896 142.513 11.6181 142.324 11.4179C142.135 11.2176 141.878 11.105 141.61 11.1047H123.429C123.161 11.105 122.904 11.2176 122.715 11.4179C122.525 11.6181 122.419 11.8896 122.418 12.1728V20.8166C122.418 21.0225 122.474 21.2242 122.579 21.3972C122.685 21.5701 122.836 21.7069 123.014 21.7907C126.002 23.2194 129.24 23.9693 132.519 23.9921Z" fill="#F58634"/>
<path d="M132.522 16.9896C132.657 16.9897 132.79 16.9613 132.915 16.9061L147.332 10.474C147.518 10.3911 147.676 10.2511 147.786 10.0723C147.896 9.89339 147.953 9.68376 147.95 9.47042C147.946 9.25707 147.882 9.04979 147.766 8.8753C147.649 8.7008 147.487 8.56709 147.298 8.49141L132.88 2.70771C132.648 2.61413 132.391 2.6147 132.159 2.70933L117.935 8.49302C117.747 8.56931 117.585 8.70305 117.47 8.87713C117.355 9.05121 117.291 9.25771 117.287 9.47022C117.284 9.68272 117.34 9.89156 117.449 10.07C117.558 10.2485 117.715 10.3885 117.9 10.472L132.125 16.904C132.25 16.9606 132.386 16.9897 132.522 16.9896Z" fill="#F58634"/>
<path d="M140.937 22.3789C140.193 22.3789 139.59 21.7413 139.59 20.9547C139.59 20.1682 140.193 19.5306 140.937 19.5306C141.681 19.5306 142.284 20.1682 142.284 20.9547C142.284 21.7413 141.681 22.3789 140.937 22.3789Z" fill="#3F3D56"/>
<path opacity="0.2" d="M117.851 9.559L132.076 15.991C132.187 16.0412 132.306 16.0672 132.427 16.0675C132.547 16.0678 132.667 16.0424 132.778 15.9928L147.195 9.56089C147.376 9.48204 147.527 9.34164 147.625 9.16188C147.688 9.27845 147.728 9.40798 147.74 9.54189C147.753 9.67579 147.738 9.81099 147.698 9.93852C147.657 10.0661 147.591 10.183 147.505 10.2816C147.418 10.3801 147.313 10.4581 147.195 10.5103L132.778 16.9422C132.667 16.9918 132.547 17.0172 132.427 17.0169C132.306 17.0166 132.187 16.9906 132.076 16.9404L117.851 10.5084C117.734 10.4558 117.629 10.3776 117.543 10.2789C117.457 10.1803 117.392 10.0635 117.352 9.93626C117.312 9.80901 117.297 9.67418 117.31 9.5407C117.323 9.40721 117.362 9.27809 117.426 9.16187C117.522 9.34019 117.672 9.4798 117.851 9.559Z" fill="black"/>
<path d="M140.823 20.9492C140.764 20.9492 140.707 20.9242 140.665 20.8797C140.623 20.8352 140.599 20.7748 140.599 20.7118V12.7697L133.196 9.91794C133.136 9.91888 133.079 9.89477 133.036 9.85092C132.993 9.80707 132.969 9.74707 132.968 9.68412C132.967 9.62117 132.99 9.56043 133.031 9.51525C133.073 9.47008 133.13 9.44417 133.189 9.44324L140.592 12.295C140.652 12.2936 140.711 12.3049 140.766 12.3284C140.822 12.3519 140.872 12.387 140.914 12.4316C140.957 12.4756 140.99 12.5282 141.013 12.5863C141.036 12.6444 141.048 12.7068 141.048 12.7697V20.7118C141.048 20.7748 141.024 20.8352 140.982 20.8797C140.94 20.9242 140.883 20.9492 140.823 20.9492Z" fill="#3F3D56"/>
</g>
<defs>
<clipPath id="clip0_1148_1514">
<rect width="167" height="128" fill="white" transform="matrix(-1 0 0 1 167 0)"/>
</clipPath>
</defs>
</svg>
