<svg width="301" height="227" viewBox="0 0 301 227" fill="none" xmlns="http://www.w3.org/2000/svg">
<g clip-path="url(#clip0_1063_294)">
<path d="M139.483 56.5063C142.945 52.9892 147.57 51.9215 149.812 54.1213C152.054 56.3212 151.064 60.9548 147.6 64.4728C146.236 65.897 144.549 66.9743 142.682 67.6147L127.824 82.332L121.053 75.2246L136.42 61.4705C137.029 59.5954 138.08 57.8931 139.483 56.5063Z" fill="#FFB6B6"/>
<path d="M91.9632 44.358L107.542 78.8565L132.419 65.4149L141.322 70.1316C141.322 70.1316 120.986 104.069 107.061 100.206C93.137 96.3425 68.4108 61.3122 72.8659 50.5008C77.3209 39.6894 91.9632 44.358 91.9632 44.358Z" fill="#E6E6E6"/>
<path d="M164.18 63.8315C160.563 60.4726 159.368 55.8872 161.51 53.5901C163.652 51.293 168.319 52.1542 171.937 55.5148C173.4 56.8375 174.525 58.4907 175.217 60.3362L190.36 74.7614L183.427 81.7107L169.235 66.7522C167.34 66.1956 165.607 65.1941 164.18 63.8315Z" fill="#A0616A"/>
<path d="M240.461 66.0551L211.231 97.1187C211.231 97.1187 204.667 103.602 193.867 94.2525C183.068 84.9033 171.061 69.5648 171.061 69.5648L177.797 62.2471L189.728 72.8724C189.728 72.8724 196.812 75.7175 197.305 77.5585C197.797 79.3994 196.42 80.1609 198.633 79.571C200.846 78.9811 200.89 77.6651 201.028 79.6609C201.167 81.6567 199.815 83.9893 202.372 81.73C204.929 79.4706 205.692 80.8451 205.692 80.8451L224.374 56.1431C224.374 56.1431 236.445 46.6142 239.916 55.1558C243.386 63.6974 240.461 66.0551 240.461 66.0551Z" fill="#F58634"/>
<path d="M216.056 72.4431H244.207V30.9213H216.056V72.4431Z" fill="#2F2E41"/>
<path d="M237.888 59.7825L236.902 47.89H223.794L220.888 60.4898L237.888 59.7825Z" fill="#A0616A"/>
<path opacity="0.1" d="M237.888 59.7825L236.902 47.89H223.794L220.888 60.4898L237.888 59.7825Z" fill="black"/>
<path d="M93.7278 46.5718L93.9576 31.278L84.5093 25.399L74.2355 37.9434L93.7278 46.5718Z" fill="#FFB6B6"/>
<path opacity="0.1" d="M93.7278 46.5718L94.3393 31.6591L84.5093 25.399L87.849 43.8541L93.7278 46.5718Z" fill="black"/>
<path d="M228.284 51.6739C236.197 51.6739 242.612 45.2703 242.612 37.371C242.612 29.4717 236.197 23.068 228.284 23.068C220.37 23.068 213.955 29.4717 213.955 37.371C213.955 45.2703 220.37 51.6739 228.284 51.6739Z" fill="#A0616A"/>
<path d="M224.669 22.3233C224.669 22.3233 224.669 16.4515 230.131 17.7098C235.594 18.968 237.274 21.0651 237.274 21.0651C237.274 21.0651 239.375 24.4204 242.737 24.8398C246.098 25.2592 249.039 34.9057 248.619 37.0027C248.199 39.0998 246.098 44.5522 249.039 47.0686C251.98 49.5851 256.182 53.3598 254.921 57.1345C253.661 60.9092 249.879 70.5557 249.879 70.5557C249.879 70.5557 260.427 72.0947 259.565 78.6649C259.565 78.6649 254.501 74.7499 247.779 74.7499C241.056 74.7499 241.896 62.5753 241.896 62.5753C241.896 62.5753 241.476 55.0375 240.216 52.9404C238.955 50.8434 240.636 39.0998 234.333 32.8086C228.031 26.5174 224.669 22.3233 224.669 22.3233Z" fill="#2F2E41"/>
<path d="M226.35 21.0651C226.35 21.0651 218.367 22.7427 215.425 30.7116C212.484 38.6804 213.97 40.1632 213.97 40.1632C213.97 40.1632 213.319 44.9617 209.751 46.6443C206.182 48.3269 209.123 55.4569 209.123 55.4569C209.123 55.4569 208.283 62.5869 196.938 65.1034C185.593 67.6199 211.164 86.9174 211.164 86.9174C211.164 86.9174 209.326 77.8096 221.091 77.3901C232.855 76.9707 218.787 55.4569 218.787 55.4569L217.526 41.6163C217.526 41.6163 220.047 25.6786 227.61 23.5816C235.173 21.4845 226.35 21.0651 226.35 21.0651Z" fill="#2F2E41"/>
<path d="M93.7573 36.0372C103.038 36.0372 110.561 28.5277 110.561 19.2642C110.561 10.0007 103.038 2.49123 93.7573 2.49123C84.4771 2.49123 76.954 10.0007 76.954 19.2642C76.954 28.5277 84.4771 36.0372 93.7573 36.0372Z" fill="#FFB6B6"/>
<path d="M116.674 147.702L101.02 254.026H81.3817L83.9931 193.333L85.3675 161.421L81.3817 146.231C81.3817 146.231 79.5644 142.854 78.0335 138.761C76.3078 134.142 74.9449 128.605 76.9683 125.979C77.7128 125.011 79.6484 124.295 82.2789 123.761C83.8862 123.434 85.7569 123.178 87.7765 122.98C99.3903 121.833 115.91 122.55 115.91 122.55L116.33 136.383L116.563 144.108L116.674 147.702Z" fill="#2F2E41"/>
<path d="M20.4547 257.337L30.462 262.702L55.9596 226.727L41.19 218.807L20.4547 257.337Z" fill="#FFB6B6"/>
<path d="M116.563 144.108L108.255 160.735L83.9931 193.333L44.0512 247.003L26.7527 237.727L74.1699 158.033L77.8655 142.766C77.8655 142.766 77.8655 141.116 78.0335 138.761C78.3619 134.1 79.3468 126.673 82.2789 123.761C82.676 123.365 83.1074 123.053 83.577 122.843C84.4589 122.447 85.9249 122.542 87.7766 122.98C95.5115 124.825 109.947 132.748 116.33 136.383L116.563 144.108Z" fill="#2F2E41"/>
<path d="M241.302 146.612L237.316 161.802L238.378 186.451L240.138 227.392L240.187 228.546L240.386 233.15L241.302 254.407H221.663L212.92 195.022L206.01 148.083L206.736 124.181L206.774 122.931C206.774 122.931 241.898 121.406 245.715 126.36C249.533 131.315 241.302 146.612 241.302 146.612Z" fill="#2F2E41"/>
<path d="M268.626 239.125L265.297 240.844L252.985 247.205L251.183 248.134L240.386 233.15L212.92 195.022L206.01 148.083L206.736 124.181C209.843 123.194 212.329 122.79 213.589 123.376C219.262 126.025 218.991 143.388 218.991 143.388L222.446 158.707L238.378 186.451L268.626 239.125Z" fill="#2F2E41"/>
<path d="M165.428 232.703L165.698 230.216L165.864 230.059C166.63 229.337 167.109 228.571 167.289 227.783C167.317 227.658 167.34 227.531 167.362 227.402C167.452 226.891 167.563 226.255 168.056 225.594C168.332 225.227 169.061 224.395 169.813 224.685C170.016 224.761 170.153 224.893 170.248 225.032C170.272 225.008 170.297 224.984 170.323 224.958C170.648 224.642 170.875 224.527 171.094 224.416C171.262 224.33 171.436 224.242 171.73 224.007C171.859 223.905 171.962 223.812 172.049 223.734C172.313 223.499 172.651 223.223 173.113 223.332C173.603 223.466 173.771 223.933 173.883 224.242C174.082 224.793 174.143 225.172 174.184 225.424C174.199 225.515 174.216 225.619 174.228 225.652C174.336 225.922 175.683 225.992 176.189 226.021C177.329 226.083 178.314 226.136 178.551 226.915C178.721 227.472 178.367 228.08 177.467 228.769C177.187 228.983 176.907 229.131 176.663 229.242C176.813 229.383 176.933 229.576 176.94 229.838C176.956 230.46 176.318 230.936 175.043 231.258C174.726 231.338 174.3 231.445 173.742 231.418C173.479 231.405 173.249 231.365 173.053 231.328C173.024 231.439 172.97 231.555 172.873 231.665C172.589 231.99 172.131 232.072 171.509 231.889C170.822 231.698 170.279 231.438 169.8 231.21C169.382 231.011 169.021 230.841 168.719 230.794C168.156 230.716 167.631 231.063 167.003 231.525L165.428 232.703Z" fill="#F2F2F2"/>
<path d="M157.39 280.368L156.951 279.936L156.342 279.871C156.345 279.814 156.341 279.68 156.337 279.471C156.313 278.327 156.24 274.844 156.726 269.493C157.066 265.757 157.632 261.965 158.411 258.22C159.191 254.47 160.001 251.679 160.651 249.436C161.142 247.744 161.638 246.139 162.121 244.577C163.412 240.401 164.63 236.456 165.385 231.957C165.554 230.952 165.904 228.861 165.186 226.394C164.77 224.963 164.056 223.615 163.066 222.391L164.025 221.618C165.118 222.971 165.907 224.463 166.369 226.052C167.165 228.788 166.783 231.066 166.6 232.161C165.832 236.74 164.601 240.722 163.298 244.938C162.817 246.496 162.323 248.093 161.835 249.778C161.19 252 160.388 254.767 159.618 258.469C158.848 262.169 158.288 265.915 157.952 269.603C157.473 274.887 157.545 278.318 157.569 279.446C157.581 280.047 157.583 280.174 157.39 280.368Z" fill="#F2F2F2"/>
<path d="M160.435 223.807C160.385 223.796 160.336 223.783 160.286 223.769C159.275 223.486 158.463 222.663 157.874 221.324C157.598 220.694 157.533 220.031 157.403 218.709C157.383 218.505 157.293 217.474 157.403 216.107C157.475 215.214 157.572 214.856 157.815 214.574C158.085 214.26 158.45 214.08 158.835 213.99C158.845 213.872 158.884 213.756 158.961 213.647C159.277 213.192 159.807 213.379 160.095 213.476C160.24 213.528 160.421 213.594 160.624 213.628C160.943 213.683 161.133 213.627 161.422 213.544C161.698 213.464 162.041 213.364 162.516 213.373C163.452 213.386 164.145 213.806 164.374 213.944C165.577 214.666 165.993 215.818 166.474 217.151C166.569 217.419 166.886 218.385 166.96 219.629C167.014 220.527 166.896 220.894 166.761 221.157C166.485 221.697 166.062 221.947 165.013 222.474C163.918 223.026 163.368 223.302 162.917 223.444C161.868 223.773 161.209 223.979 160.435 223.807Z" fill="#F2F2F2"/>
<path d="M76.3957 34.7079L95.4847 43.8541C95.4847 43.8541 115.719 103.685 115.719 106.734C115.719 109.783 121.446 111.688 118.01 115.118C114.574 118.548 124.405 121.453 119.108 124.192C113.81 126.932 80.7636 141.918 77.089 140.566C66.9542 136.839 77.5185 123.144 77.5185 123.144C77.5185 123.144 69.9054 117.024 71.0508 113.975C72.1961 110.926 64.1787 52.6192 64.1787 52.6192L76.3957 34.7079Z" fill="#E6E6E6"/>
<path d="M92.7311 23.2816L94.8924 27.5963C94.8924 27.5963 97.0537 19.8299 100.512 18.104C103.97 16.3781 104.402 13.7893 104.402 13.7893C104.402 13.7893 108.724 19.3984 111.75 18.104C114.776 16.8096 116.073 15.9466 112.615 10.769C109.157 5.59137 110.021 8.18018 110.021 8.18018C110.021 8.18018 106.995 3.86549 107.428 5.15989C107.86 6.4543 104.834 1.70814 104.834 3.00254C104.834 4.29695 102.673 0.413723 102.673 1.70814C102.673 3.00254 93.5956 -1.31215 94.8924 0.413728C96.1891 2.13961 87.1119 -3.03803 82.7894 3.86549C78.4669 10.769 72.4732 9.49233 74.6056 13.7982C76.7379 18.104 75.8734 29.7537 75.8734 29.7537H81.8347C81.8347 29.7537 87.9764 18.104 92.7311 23.2816Z" fill="#2F2E41"/>
<path d="M219.945 59.8599L220.295 59.7613L237.507 54.9057L251.251 73.5792L242.089 112.451L245.525 128.075C245.525 128.075 217.655 120.835 206.583 126.932C206.583 126.932 205.819 123.457 206.583 121.765C207.347 120.072 208.492 113.03 207.347 109.882C206.201 106.734 209.637 91.8716 209.637 91.8716C209.637 91.8716 208.492 81.9632 213.455 77.009C218.418 72.0549 219.945 59.8599 219.945 59.8599Z" fill="#F58634"/>
<path d="M204.313 130.05L143.831 100.046C143.53 99.8973 143.267 99.6916 143.049 99.4356L133.612 88.3335C132.986 87.5972 132.851 86.5581 133.267 85.6863L150.963 48.6274C151.273 47.978 151.85 47.4984 152.546 47.3116C153.243 47.1252 153.983 47.2515 154.577 47.6585L197.231 76.8643C198.107 77.4636 198.498 78.5507 198.205 79.5693L189.545 109.652C189.308 110.475 189.61 111.372 190.296 111.886L207.428 124.712C208.35 125.402 208.669 126.662 208.186 127.707L207.644 128.879C207.363 129.487 206.859 129.945 206.227 130.167C205.958 130.262 205.682 130.308 205.406 130.308C205.032 130.308 204.659 130.222 204.313 130.05Z" fill="#F58634"/>
<path d="M203.83 122.748L186.994 108.765C186.849 108.643 186.734 108.495 186.654 108.331C186.501 108.022 186.471 107.653 186.585 107.313L196.179 79.2918C196.428 78.5677 196.16 77.7598 195.527 77.3253L155.554 50.0087C155.146 49.7267 154.634 49.6391 154.153 49.7648C153.668 49.8906 153.267 50.2183 153.046 50.6642L136.194 84.8214C135.938 85.3359 135.957 85.9266 136.24 86.4182C136.274 86.4868 136.316 86.5516 136.366 86.6126L144.841 97.7785C145.005 97.992 145.219 98.1672 145.46 98.2854L201.986 125.606C202.223 125.72 202.479 125.777 202.735 125.777C203.177 125.777 203.62 125.606 203.949 125.274C203.987 125.232 204.025 125.194 204.063 125.149C204.33 124.825 204.468 124.409 204.449 123.986C204.426 123.506 204.201 123.056 203.83 122.748Z" fill="#F2F2F2"/>
<path d="M142.825 82.7254C142.965 82.7254 143.099 82.6488 143.167 82.5157L156.869 55.3432C156.963 55.1551 156.888 54.926 156.699 54.8315C156.51 54.7364 156.281 54.8125 156.187 55.0004L142.485 82.173C142.39 82.3611 142.466 82.5901 142.654 82.6847C142.709 82.7124 142.768 82.7254 142.825 82.7254Z" fill="#F58634"/>
<path d="M150.079 87.2985C150.219 87.2985 150.353 87.2219 150.42 87.0888L164.122 59.9163C164.217 59.7282 164.141 59.4991 163.953 59.4046C163.764 59.3093 163.535 59.3858 163.44 59.5736L149.738 86.7461C149.644 86.9342 149.719 87.1632 149.908 87.2578C149.963 87.2855 150.021 87.2985 150.079 87.2985Z" fill="#F58634"/>
<path d="M156.188 91.1094C156.327 91.1094 156.462 91.0328 156.529 90.8997L170.231 63.7272C170.326 63.5391 170.25 63.31 170.062 63.2155C169.873 63.1204 169.644 63.1965 169.549 63.3845L155.847 90.557C155.752 90.7451 155.828 90.9742 156.016 91.0687C156.071 91.0964 156.13 91.1094 156.188 91.1094Z" fill="#F58634"/>
<path d="M134.562 87.4286C139.299 86.0315 143.862 87.3391 144.752 90.3488C145.642 93.3585 142.523 96.9299 137.784 98.3269C135.899 98.9108 133.9 99.0356 131.957 98.6906L111.809 104.357L109.346 94.8627L129.47 90.2845C130.914 88.9403 132.66 87.961 134.562 87.4286Z" fill="#FFB6B6"/>
<path d="M98.9254 53.7806L95.7675 91.4905L124.054 91.7941L129.544 100.232C129.544 100.232 95.259 120.048 84.9643 109.922C74.6696 99.7973 70.089 57.1899 79.2419 49.8968C88.3947 42.6036 98.9254 53.7806 98.9254 53.7806Z" fill="#E6E6E6"/>
<path d="M191.587 121.868C186.661 121.498 182.859 118.66 183.096 115.531C183.332 112.402 187.517 110.166 192.445 110.537C194.415 110.659 196.328 111.249 198.023 112.26L218.875 114.092L217.805 123.841L197.362 121C195.534 121.745 193.554 122.043 191.587 121.868Z" fill="#A0616A"/>
<path d="M252.568 76.0705L249.161 118.552C249.161 118.552 248.088 127.707 233.804 127.133C219.52 126.559 200.548 122.058 200.548 122.058L201.234 112.144L217.199 113.01C217.199 113.01 224.513 110.819 226.049 111.95C227.585 113.081 226.985 114.534 228.345 112.694C229.705 110.854 228.916 109.799 230.272 111.272C231.629 112.744 232.032 115.409 232.616 112.051C233.201 108.692 234.656 109.291 234.656 109.291L233.802 78.3518C233.802 78.3518 237.273 63.3854 245.326 67.8954C253.379 72.4055 252.568 76.0705 252.568 76.0705Z" fill="#F58634"/>
</g>
<defs>
<clipPath id="clip0_1063_294">
<rect width="311" height="282" fill="white" transform="translate(-10)"/>
</clipPath>
</defs>
</svg>
