<svg width="151" height="121" viewBox="0 0 151 121" fill="none" xmlns="http://www.w3.org/2000/svg">
<g clip-path="url(#clip0_1148_1330)">
<path opacity="0.4" d="M125.876 46.8673C127.991 46.8673 129.705 45.1423 129.705 43.0144C129.705 40.8865 127.991 39.1614 125.876 39.1614C123.761 39.1614 122.047 40.8865 122.047 43.0144C122.047 45.1423 123.761 46.8673 125.876 46.8673Z" fill="#F58634"/>
<path opacity="0.4" d="M45.1407 25.6699C48.1555 25.6699 50.5994 23.2108 50.5994 20.1774C50.5994 17.1439 48.1555 14.6849 45.1407 14.6849C42.126 14.6849 39.6821 17.1439 39.6821 20.1774C39.6821 23.2108 42.126 25.6699 45.1407 25.6699Z" fill="#F58634"/>
<path opacity="0.4" d="M35.0382 26.6536C37.153 26.6536 38.8673 24.9286 38.8673 22.8006C38.8673 20.6727 37.153 18.9477 35.0382 18.9477C32.9234 18.9477 31.209 20.6727 31.209 22.8006C31.209 24.9286 32.9234 26.6536 35.0382 26.6536Z" fill="#F58634"/>
<path d="M129.083 86.1002C126.057 89.4332 125.947 94.2885 125.947 94.2885C125.947 94.2885 130.743 93.7398 133.768 90.4067C136.794 87.0737 136.904 82.2185 136.904 82.2185C136.904 82.2185 132.108 82.7672 129.083 86.1002Z" fill="#3F3D56"/>
<path d="M130.792 87.0593C129.876 91.4784 126.028 94.4092 126.028 94.4092C126.028 94.4092 123.664 90.1753 124.579 85.7562C125.495 81.337 129.343 78.4062 129.343 78.4062C129.343 78.4062 131.708 82.6402 130.792 87.0593Z" fill="#F58634"/>
<path d="M126.862 41.4598V94.1399L109.411 108.646H20.1284V53.421L46.1796 41.4598H126.862Z" fill="#3F3D56"/>
<path opacity="0.1" d="M126.862 41.4598V41.6709L120.597 45.8905L109.411 53.421H20.1284L46.1796 41.4598H126.862Z" fill="black"/>
<path opacity="0.1" d="M126.862 41.4598V94.1399L109.411 108.646L109.537 53.2938L120.597 45.8905L126.761 41.4598H126.862Z" fill="black"/>
<path d="M103.341 48.7128H48.9619L53.0087 46.4223H105.111L103.341 48.7128Z" fill="#2F2E41"/>
<path d="M150.273 111.512C150.273 111.512 151.327 115.947 150.369 116.14C149.411 116.333 144.715 116.271 143.564 116.464C142.414 116.657 140.019 116.333 140.019 115.465C140.019 114.597 142.51 114.019 142.51 114.019C142.51 114.019 146.056 112.09 146.152 111.994C146.248 111.897 150.273 111.512 150.273 111.512Z" fill="#2F2E41"/>
<path d="M149.411 85.3787C149.411 85.3787 149.123 88.6574 149.123 88.9467C149.123 89.2359 149.411 93.7682 149.123 93.9611C148.836 94.1539 149.315 95.504 149.315 95.9861C149.315 96.4683 150.848 104.472 150.465 107.558C150.082 110.644 151.04 110.354 150.752 110.644C150.465 110.933 150.465 110.933 150.465 111.512C150.465 112.09 147.398 112.572 147.398 112.572L144.044 91.261L145.769 84.8965L149.411 85.3787Z" fill="#575A89"/>
<path opacity="0.1" d="M149.411 85.3787C149.411 85.3787 149.123 88.6574 149.123 88.9467C149.123 89.2359 149.411 93.7682 149.123 93.9611C148.836 94.1539 149.315 95.504 149.315 95.9861C149.315 96.4683 150.848 104.472 150.465 107.558C150.082 110.644 151.04 110.354 150.752 110.644C150.465 110.933 150.465 110.933 150.465 111.512C150.465 112.09 147.398 112.572 147.398 112.572L144.044 91.261L145.769 84.8965L149.411 85.3787Z" fill="black"/>
<path d="M148.931 112.862C148.931 112.862 149.89 116.333 148.931 116.526C147.973 116.719 143.277 116.305 142.127 116.498C140.977 116.691 138.581 116.719 138.581 115.851C138.581 114.983 141.073 114.404 141.073 114.404C141.073 114.404 144.619 112.476 144.715 112.379C144.81 112.283 148.931 112.862 148.931 112.862Z" fill="#2F2E41"/>
<path d="M150.273 81.5215C150.273 81.5215 151.423 84.318 150.082 85.7644C148.74 87.2109 147.207 90.1038 147.207 90.2967C147.207 90.4895 149.89 109.679 149.507 110.933C149.123 112.187 149.219 112.958 149.315 113.151C149.411 113.344 148.357 114.404 147.207 114.404C146.057 114.404 144.331 113.537 144.14 112.765C143.948 111.994 144.427 105.34 144.331 104.086C144.236 102.833 143.756 101.001 143.565 100.615C143.373 100.229 142.319 99.8434 142.127 98.6862C141.936 97.529 140.402 82.7751 140.881 82.2929C141.361 81.8107 150.273 81.5215 150.273 81.5215Z" fill="#575A89"/>
<path d="M142.989 59.3423C144.789 59.3423 146.248 57.8744 146.248 56.0637C146.248 54.2529 144.789 52.785 142.989 52.785C141.19 52.785 139.731 54.2529 139.731 56.0637C139.731 57.8744 141.19 59.3423 142.989 59.3423Z" fill="#FFB9B9"/>
<path d="M145.002 57.703C145.002 57.703 144.331 61.2709 144.811 61.6567C145.29 62.0424 141.169 62.621 141.169 62.621C141.169 62.621 140.69 57.8958 140.594 57.4137C140.498 56.9315 145.002 57.703 145.002 57.703Z" fill="#FFB9B9"/>
<path d="M140.594 62.3317C140.594 62.3317 141.744 58.9566 146.44 59.9209C146.44 59.9209 147.302 60.2102 147.015 60.4995C146.727 60.7888 146.44 60.7888 146.823 61.0781C147.207 61.3674 147.686 61.0781 147.398 61.3674C147.111 61.6567 149.986 63.3924 149.794 66.6711C149.602 69.9497 150.465 74.5784 149.794 75.3499C149.123 76.1213 150.273 79.4964 150.082 80.1714C149.89 80.8464 151.232 81.7143 150.657 82.0036C150.082 82.2929 139.731 84.0287 139.444 82.0036C139.156 79.9786 139.348 81.425 139.06 80.9429C138.773 80.4607 138.677 79.5928 138.869 78.5321C139.06 77.4713 139.54 74.8677 139.348 73.9034C139.156 72.9391 139.348 64.8389 139.923 63.8746C140.498 62.9103 140.594 62.3317 140.594 62.3317Z" fill="#F58634"/>
<path d="M142.606 85.8609C142.606 85.8609 144.044 91.3574 142.223 91.3574C140.402 91.3574 140.498 85.668 140.498 85.668L142.606 85.8609Z" fill="#FFB9B9"/>
<path d="M141.552 56.0637C141.552 56.3433 141.955 56.5207 142.579 56.5612H142.58C142.844 56.5764 143.109 56.5712 143.373 56.5458C143.772 56.5092 143.937 56.8862 144.005 57.3838C144.116 58.2044 143.961 59.3548 144.14 59.5352C144.387 59.784 146.19 59.5342 146.753 58.9701C146.841 58.8909 146.899 58.7842 146.919 58.6673C146.978 58.3228 147.147 58.007 147.4 57.7676C147.733 57.4021 148.206 56.9971 148.74 56.353C149.698 55.1958 148.74 55.0993 148.452 54.2315C148.165 53.3636 147.686 53.0743 147.686 52.4957C147.686 51.9171 145.482 51.435 143.661 51.5314C141.84 51.6278 142.223 53.9422 142.223 53.9422C142.223 53.9422 142.115 54.2218 141.985 54.5825C141.81 55.035 141.668 55.4998 141.56 55.973C141.555 56.003 141.553 56.0333 141.552 56.0637Z" fill="#2F2E41"/>
<path opacity="0.1" d="M141.935 63.7782C141.935 63.7782 145.194 63.5853 145.481 68.4068C145.769 73.2284 145.673 77.7607 145.673 77.8571C145.673 77.9535 144.331 87.1145 143.085 87.1145C141.839 87.1145 140.881 86.9216 140.594 86.4395C140.306 85.9573 141.36 79.0143 141.36 79.0143C141.36 79.0143 141.839 71.6855 141.073 69.3712C140.306 67.0568 140.21 64.0675 141.935 63.7782Z" fill="black"/>
<path d="M141.456 63.296C141.456 63.296 144.715 63.1031 145.002 67.9247C145.29 72.7462 145.194 77.2785 145.194 77.3749C145.194 77.4714 143.852 86.6323 142.606 86.6323C141.36 86.6323 140.402 86.4394 140.115 85.9573C139.827 85.4751 140.881 78.5321 140.881 78.5321C140.881 78.5321 141.36 71.2033 140.594 68.889C139.827 66.5746 139.731 63.5853 141.456 63.296Z" fill="#F58634"/>
<path d="M87.4241 16.1593C87.4241 16.1593 86.0041 12.1109 84.9785 13.381C83.9529 14.651 86.5563 16.7943 86.5563 16.7943L87.4241 16.1593Z" fill="#A0616A"/>
<path d="M94.1302 12.1902L93.2759 12.5088C93.2759 12.5088 92.8679 14.3335 93.0257 14.651C93.1835 14.9686 93.2624 14.7304 93.0257 15.3655C92.789 16.0005 92.079 17.6675 92.0001 17.9057C91.9212 18.1438 87.4244 16.3974 87.4244 15.5242C87.4244 15.5242 86.4777 16.6356 86.0044 16.8737C86.0044 16.8737 91.2112 20.684 91.9212 21.1603C92.6312 21.6366 93.0257 21.3984 93.6568 20.8427C94.288 20.2871 96.9703 15.683 96.9703 15.683L94.1302 12.1902Z" fill="#575A89"/>
<path d="M91.8423 40.3704C91.8423 40.3704 91.9212 41.2436 92.079 41.323C92.2367 41.4024 93.4201 43.3869 92.079 43.7838C90.7378 44.1807 89.9489 44.022 89.6333 44.1807C89.3178 44.3395 83.7954 44.657 83.7165 43.7838C83.6376 42.9106 86.3988 42.7519 86.3988 42.7519C86.3988 42.7519 88.9233 41.0849 89.3178 40.2117C89.7122 39.3385 91.8423 40.3704 91.8423 40.3704Z" fill="#2F2E41"/>
<path d="M107.857 41.9581C107.857 41.9581 109.75 45.2127 109.277 45.6096C108.804 46.0065 104.194 47.4529 103.518 47.5147C102.65 47.5941 102.019 46.8797 102.729 46.4828C103.439 46.0859 104.938 44.4189 104.938 43.8632V42.4343L107.857 41.9581Z" fill="#2F2E41"/>
<path d="M109.672 20.684C109.672 20.684 111.328 22.7479 108.725 26.0819L104.386 31.6386C104.386 31.6386 107.068 35.9251 107.147 38.1478C107.226 40.3704 107.778 39.8942 107.936 40.8467C108.094 41.7993 108.804 41.323 108.251 42.0374C107.699 42.7519 105.648 43.3869 105.017 42.8312C104.8 42.6314 104.63 42.3849 104.521 42.11C104.412 41.8351 104.366 41.539 104.386 41.2436C104.386 40.9261 103.281 39.1004 103.202 38.5447C103.124 37.989 100.205 33.4643 100.205 33.4643C100.205 33.4643 99.2579 30.7654 100.362 29.2571C101.467 27.7489 102.197 25.6098 102.197 25.6098C102.197 25.6098 98.9423 29.5746 96.6545 30.5272C96.6545 30.5272 95.7867 30.686 95.9444 31.0829C96.1022 31.4798 95.9445 31.7179 95.7078 32.1148C95.4711 32.5117 93.8144 37.1158 93.2622 38.3065C92.7099 39.4973 92.9466 40.2117 92.3155 40.6086C91.6843 41.0055 88.8442 40.688 88.8442 40.2911C88.8442 39.8942 89.2387 38.8622 89.4754 38.3065C89.712 37.7509 91.6054 31.321 91.4477 30.2097C91.2899 29.0984 91.5265 27.5901 92.7099 26.9551C93.8933 26.32 99.889 21.1603 100.205 21.1603C100.52 21.1603 109.672 20.684 109.672 20.684Z" fill="#2F2E41"/>
<path d="M93.8144 8.22118C95.6444 8.22118 97.1279 6.7285 97.1279 4.88719C97.1279 3.04587 95.6444 1.55319 93.8144 1.55319C91.9845 1.55319 90.501 3.04587 90.501 4.88719C90.501 6.7285 91.9845 8.22118 93.8144 8.22118Z" fill="#A0616A"/>
<path d="M96.4969 5.20471C96.4969 5.20471 97.5225 7.03047 98.7847 7.26862C100.047 7.50677 95.4713 11.1583 95.4713 11.1583C95.4713 11.1583 94.3668 7.66553 93.4201 7.50677C92.4734 7.348 96.4969 5.20471 96.4969 5.20471Z" fill="#A0616A"/>
<path d="M93.2622 12.6665C93.2622 13.6985 96.339 16.6356 96.339 16.6356L99.2579 19.0964C99.2579 19.0964 99.3368 19.9696 99.6524 20.0489C99.968 20.1283 100.362 20.1283 100.047 20.6046C99.7313 21.0809 98.9424 22.1128 99.6524 22.2716C99.8665 22.3044 100.082 22.325 100.299 22.3335C100.488 22.3446 100.71 22.3549 100.96 22.3645C101.544 22.3851 102.275 22.3986 103.066 22.393C103.291 22.3923 103.52 22.3896 103.752 22.3851C106.735 22.3256 110.191 21.9803 109.908 20.8427C109.435 18.9376 109.75 18.3026 108.725 17.2706C107.699 16.2387 106.043 12.6665 106.043 12.6665C106.043 12.6665 102.729 7.03047 99.968 7.03047L99.3944 6.87885C99.1279 6.80821 98.8461 6.82371 98.5888 6.92315C98.3316 7.02259 98.1119 7.20093 97.961 7.43293C97.4072 8.28151 96.5338 9.55637 96.0234 9.96756C95.2345 10.6026 95.1114 10.147 95.1114 10.147C95.1114 10.147 93.2622 11.6346 93.2622 12.6665Z" fill="#575A89"/>
<path d="M100.284 24.7324C100.284 24.7324 97.9958 28.3045 99.4158 28.9396C100.836 29.5746 101.625 25.2087 101.625 25.2087L100.284 24.7324Z" fill="#A0616A"/>
<path d="M95.9806 4.51062C95.8534 4.49447 95.8132 4.33302 95.7918 4.20586C95.6772 3.52491 95.1729 2.87919 94.4952 2.76926C94.2362 2.73459 93.9728 2.75595 93.7227 2.83191C93.3643 2.93085 93.0279 3.09745 92.7315 3.32284C92.5864 3.45627 92.4186 3.5623 92.2361 3.63582C92.1118 3.67255 91.5839 3.90871 91.4605 3.94867C91.1893 4.03652 90.9649 4.32214 90.6856 4.26559C90.4184 4.21148 90.3169 3.88681 90.274 3.61598C90.1761 2.99897 90.5271 2.07833 90.8761 1.56151C91.1409 1.16931 91.589 0.943602 92.0371 0.79676C92.562 0.636436 93.1013 0.528602 93.6473 0.474823C94.3843 0.387242 95.1476 0.340775 95.8539 0.57C96.5602 0.799226 97.2033 1.35996 97.3352 2.09482C97.3627 2.24789 97.3678 2.40469 97.4015 2.5565C97.4836 2.92687 97.7271 3.23818 97.8692 3.58969C97.9717 3.84785 98.0193 4.12475 98.0089 4.40255C97.9985 4.68035 97.9304 4.95287 97.8089 5.20254C97.6122 5.60061 97.27 5.98313 97.3439 6.42144L96.7351 5.93842C96.6471 5.88812 96.5789 5.80899 96.542 5.71422C96.505 5.61946 96.5014 5.51479 96.5319 5.4177L96.6204 4.65068C96.651 4.51171 96.6372 4.36656 96.5809 4.23598C96.3103 3.76037 96.1926 4.53754 95.9806 4.51062Z" fill="#2F2E41"/>
<path opacity="0.1" d="M101.703 19.2551L100.96 22.3645C101.71 22.3915 102.701 22.4058 103.752 22.3851C104.017 21.585 104.271 20.7507 104.465 19.9696C105.175 17.1118 103.991 12.7459 103.36 10.682C102.729 8.61809 101.151 8.06242 101.151 8.06242C100.504 8.29132 99.8934 8.61209 99.3367 9.015C98.3111 9.72942 101.703 19.2551 101.703 19.2551Z" fill="black"/>
<path opacity="0.1" d="M101.073 19.0964L100.299 22.3335C100.488 22.3446 100.711 22.355 100.961 22.3645C101.544 22.3851 102.275 22.3986 103.066 22.3931C103.351 21.5429 103.626 20.6459 103.834 19.8108C104.544 16.9531 103.361 12.5871 102.729 10.5232C102.098 8.45933 100.718 10.7217 100.718 10.7217C100.718 10.7217 101.27 9.3722 100.244 10.0866C99.2187 10.8011 101.073 19.0964 101.073 19.0964Z" fill="black"/>
<path d="M100.836 7.90367C100.836 7.90367 102.414 8.45934 103.045 10.5232C103.676 12.5871 104.859 16.9531 104.149 19.8108C103.439 22.6685 101.94 26.2407 101.94 26.2407C101.94 26.2407 100.441 25.1293 99.8891 25.3675L101.388 19.0964C101.388 19.0964 97.9957 9.57067 99.0213 8.85624C99.5779 8.45333 100.189 8.13257 100.836 7.90367Z" fill="#575A89"/>
<path d="M102.012 47.7204L80.1853 1.95459L43.6895 19.5769L57.1117 47.7204H102.012Z" fill="#F2F2F2"/>
<path d="M72.7988 19.9187L53.4146 29.2786L53.9919 30.4892L73.3762 21.1294L72.7988 19.9187Z" fill="#3F3D56"/>
<path d="M77.9311 30.6799L58.5469 40.0397L59.1242 41.2503L78.5085 31.8905L77.9311 30.6799Z" fill="#3F3D56"/>
<path d="M81.4567 13.5869L76.644 15.9108L78.9535 20.7533L83.7662 18.4295L81.4567 13.5869Z" fill="#3F3D56"/>
<path d="M86.589 24.3481L81.7764 26.6719L84.0859 31.5144L88.8985 29.1906L86.589 24.3481Z" fill="#3F3D56"/>
<path d="M81.788 10.2327L79.806 15.907L77.1342 14.962L76.7686 16.0088L80.4772 17.3202L82.8281 10.6006L81.788 10.2327Z" fill="#57B894"/>
<path d="M86.9202 20.9938L84.9382 26.6681L82.2665 25.7233L81.9009 26.7698L85.6093 28.0813L87.9604 21.3617L86.9202 20.9938Z" fill="#57B894"/>
<path d="M-6.89334 100.394L2.96777 98.2746L0.861358 88.3523L-8.99976 90.4717L-6.89334 100.394Z" fill="#F2F2F2"/>
<path d="M2.6933 85.7011C2.6933 85.7011 -0.928715 88.3044 0.278622 89.3456C1.48596 90.3869 3.90063 86.2218 3.90063 86.2218L2.6933 85.7011Z" fill="#FFB9B9"/>
<path d="M19.4234 89.6927C19.4234 89.6927 18.7335 98.3701 18.561 99.5849C18.3886 100.8 18.2161 111.733 17.8711 112.948C17.5262 114.163 17.1812 117.113 17.1812 117.113H15.1115C15.1115 117.113 15.284 111.733 14.7665 109.651C14.2491 107.568 14.4216 101.841 14.4216 101.841C14.4216 101.841 13.3867 91.6017 13.9042 90.2134C14.4216 88.825 19.4234 89.6927 19.4234 89.6927Z" fill="#FFB9B9"/>
<path d="M16.6641 116.592C16.6641 116.592 17.5265 117.113 17.5265 117.46C17.5265 117.807 17.354 118.675 17.5265 119.022C17.6989 119.369 18.9063 120.758 18.2164 121.105C17.5265 121.452 14.4219 121.105 14.4219 121.105C14.4219 121.105 14.5943 118.675 14.7668 118.502C14.9393 118.328 14.5944 116.592 14.5944 116.592H16.6641Z" fill="#2F2E41"/>
<path d="M6.23849 89.48C6.23849 89.48 6.01938 98.1823 6.06417 99.4087C6.10896 100.635 5.13992 111.526 5.35624 112.771C5.57256 114.015 5.60784 116.986 5.60784 116.986L7.66612 117.204C7.66612 117.204 8.05583 111.836 8.78765 109.82C9.51947 107.803 9.94539 102.09 9.94539 102.09C9.94539 102.09 12.0427 92.0161 11.6729 90.5807C11.3032 89.1454 6.23849 89.48 6.23849 89.48Z" fill="#FFB9B9"/>
<path d="M6.17708 116.523C6.17708 116.523 5.26515 116.949 5.22894 117.295C5.19273 117.64 5.27373 118.521 5.066 118.848C4.85827 119.175 3.51277 120.428 4.16265 120.846C4.81254 121.264 7.93618 121.247 7.93618 121.247C7.93618 121.247 8.01811 118.812 7.86469 118.622C7.71128 118.431 8.23537 116.741 8.23537 116.741L6.17708 116.523Z" fill="#2F2E41"/>
<path d="M17.0089 76.6767C17.0089 76.6767 18.3887 76.8502 18.9061 79.8005C19.4236 82.7508 21.3208 90.2134 19.7685 90.734C18.2162 91.2546 13.5594 92.2959 13.3869 91.9488C13.2144 91.6017 12.8695 90.734 12.8695 90.734C12.8695 90.734 13.3869 92.2959 12.697 92.2959C12.0071 92.2959 5.28049 91.2546 5.45297 90.734C5.62544 90.2134 5.97039 86.3953 5.97039 86.3953C5.97039 86.3953 7.00525 79.9741 8.04011 78.9328C8.33961 78.6435 8.57213 78.2914 8.72117 77.9015C8.87021 77.5115 8.93212 77.0934 8.90249 76.6767H17.0089Z" fill="#2F2E41"/>
<path d="M19.5959 75.2883C19.5959 75.2883 17.3537 74.7677 17.0088 75.4619C16.6638 76.156 17.8711 77.1973 18.3886 77.1973C18.906 77.1973 19.7684 76.6767 19.7684 76.6767L19.5959 75.2883Z" fill="#FFB9B9"/>
<path d="M14.9391 60.5368C16.6537 60.5368 18.0436 59.1382 18.0436 57.413C18.0436 55.6877 16.6537 54.2891 14.9391 54.2891C13.2244 54.2891 11.8345 55.6877 11.8345 57.413C11.8345 59.1382 13.2244 60.5368 14.9391 60.5368Z" fill="#FFB9B9"/>
<path d="M14.4217 59.6691C14.4217 59.6691 13.9043 62.0987 14.2492 62.0987C14.5942 62.0987 11.6621 63.6607 11.6621 63.6607L9.41989 63.3136L8.72998 62.2723C8.72998 62.2723 12.352 59.8426 12.352 58.4543C12.352 57.0659 14.4217 59.6691 14.4217 59.6691Z" fill="#FFB9B9"/>
<path d="M12.8694 62.0987C12.8694 62.0987 13.3868 61.7516 13.5593 61.7516H14.9391C15.1116 61.7516 17.3538 62.2723 17.3538 62.2723L18.7336 70.0819C18.7336 70.0819 16.3189 74.0735 18.0437 77.1973C18.0437 77.1973 17.5262 76.8502 15.1116 77.0238C12.6969 77.1973 8.38496 77.718 8.21248 77.718C8.04001 77.718 8.04001 76.3296 8.21248 75.9825C8.38496 75.6354 8.04001 75.8089 8.04001 74.9412C8.04001 74.0735 7.52258 72.5116 7.52258 72.5116L5.10791 63.6607C5.10791 63.6607 8.21249 61.9252 8.72992 62.0987C9.24735 62.2723 10.7996 62.7929 11.1446 62.6194C11.4895 62.4458 12.8694 62.0987 12.8694 62.0987Z" fill="#F58634"/>
<path d="M16.8364 62.4458L17.3539 62.2723C17.3539 62.2723 18.3887 62.0987 19.596 63.14C20.8034 64.1813 25.2878 67.3052 25.2878 67.3052C25.2878 67.3052 27.0126 68.6935 26.4951 70.2555C25.9777 71.8174 25.1153 75.6354 22.5282 75.4619C22.5282 75.4619 20.9759 77.5444 20.1135 77.1973C19.2511 76.8502 18.5612 75.4619 19.0786 75.2883C19.5961 75.1148 20.9759 73.3793 20.9759 73.3793L19.2511 70.0819H18.7337L16.8364 69.0406L16.8364 62.4458Z" fill="#F58634"/>
<path d="M6.4879 63.4871L5.10808 63.6607C5.10808 63.6607 3.90075 64.1813 4.07322 66.4374C4.2457 68.6935 3.03836 78.9328 3.5558 80.1476C3.5558 80.1476 1.83103 86.0482 2.17598 86.2218C2.52094 86.3953 4.59066 87.4366 4.41818 86.7424C4.24571 86.0482 6.31542 81.1889 6.31542 81.1889C6.31542 81.1889 8.7301 78.5857 7.69524 74.9412V71.9909L6.4879 63.4871Z" fill="#F58634"/>
<path d="M17.523 60.4332L15.3304 60.9138L15.0486 59.8274L15.1569 60.9518L11.6198 61.7272L11.4642 61.1275L11.524 61.7482L9.25846 62.2448L8.77381 57.5637C8.27556 55.6428 10.094 53.5954 12.0031 53.0941L12.85 52.8717C14.2521 52.5035 16.8008 52.8383 17.1667 54.2491C16.5262 56.7089 15.4344 59.4055 17.523 60.4332Z" fill="#2F2E41"/>
</g>
<defs>
<clipPath id="clip0_1148_1330">
<rect width="159.807" height="120.856" fill="white" transform="translate(-9 0.402878)"/>
</clipPath>
</defs>
</svg>
