<svg width="153" height="118" viewBox="0 0 153 118" fill="none" xmlns="http://www.w3.org/2000/svg">
<g clip-path="url(#clip0_1148_1481)">
<path d="M92.7741 35.5583C92.9645 35.5671 93.153 35.5165 93.314 35.4132C93.475 35.31 93.6007 35.1591 93.6742 34.981C93.7478 34.8029 93.7654 34.6062 93.7249 34.4176C93.6844 34.229 93.5876 34.0575 93.4477 33.9265C93.4243 33.8321 93.4075 33.7644 93.384 33.67C93.3924 33.6495 93.4008 33.629 93.4093 33.6085C94.2649 31.5417 97.1647 31.556 98.013 33.6258C98.766 35.4629 99.7246 37.3031 99.9607 39.2454C100.065 40.104 100.021 40.9744 99.8311 41.8178C101.6 37.9098 102.518 33.6624 102.524 29.3634C102.524 28.2846 102.465 27.2067 102.347 26.1346C102.249 25.2557 102.113 24.383 101.939 23.5167C100.991 18.8158 98.9562 14.4097 96.001 10.6604C94.5706 9.86977 93.4139 8.65404 92.6866 7.17699C92.4232 6.64603 92.2369 6.07924 92.1338 5.49424C92.2951 5.51568 92.7422 3.02639 92.6205 2.87366C92.8453 2.52801 93.2478 2.3562 93.4934 2.01891C94.7147 0.341469 96.3975 0.634361 97.2759 2.91387C99.1525 3.8733 99.1706 5.46445 98.0192 6.99476C97.2866 7.96836 97.186 9.28575 96.5432 10.3281C96.6093 10.4138 96.6781 10.4969 96.7442 10.5826C97.9531 12.1573 99.0067 13.8481 99.8899 15.6309C99.64 13.6536 100.009 11.2715 100.638 9.73592C101.354 7.98633 102.696 6.51282 103.877 5.0003C105.297 3.18353 108.208 3.97641 108.458 6.27945C108.46 6.30175 108.462 6.32404 108.465 6.34632C108.289 6.44662 108.117 6.5531 107.949 6.66573C107.738 6.80867 107.574 7.0129 107.48 7.25166C107.385 7.49042 107.364 7.75258 107.419 8.00378C107.474 8.25499 107.602 8.48352 107.788 8.65944C107.973 8.83536 108.207 8.95046 108.458 8.98966L108.483 8.99368C108.421 9.63451 108.31 10.2696 108.153 10.8935C109.669 16.8325 106.396 18.9956 101.722 19.0928C101.619 19.1464 101.519 19.2 101.416 19.2509C102.303 21.7983 102.859 24.4519 103.071 27.1447C103.191 28.7334 103.184 30.3294 103.05 31.9169L103.058 31.8607C103.397 30.0953 104.326 28.5025 105.69 27.3511C107.715 25.6656 110.577 25.045 112.762 23.6902C113.814 23.0381 115.162 23.8808 114.978 25.1161C114.975 25.1359 114.972 25.1556 114.969 25.1753C114.643 25.3097 114.326 25.4645 114.02 25.6388C113.844 25.7392 113.672 25.8456 113.504 25.9582C113.293 26.1012 113.129 26.3054 113.035 26.5442C112.94 26.7829 112.919 27.0451 112.974 27.2963C113.029 27.5475 113.157 27.776 113.342 27.952C113.528 28.1279 113.761 28.243 114.012 28.2822L114.038 28.2862C114.057 28.2889 114.072 28.2916 114.091 28.2943C113.534 29.6404 112.753 30.8795 111.782 31.9571C110.834 37.1417 106.763 37.6336 102.407 36.1238H102.405C101.927 38.2272 101.235 40.2747 100.339 42.2331H92.9591C92.9326 42.15 92.9088 42.0643 92.885 41.9812C93.5681 42.0247 94.2539 41.9833 94.927 41.858C94.3795 41.1774 93.832 40.4914 93.2844 39.8108C93.2722 39.7981 93.2607 39.7847 93.25 39.7706C92.9723 39.4223 92.6919 39.0766 92.4142 38.7283L92.414 38.7279C92.3992 37.6601 92.5202 36.5949 92.7739 35.5584L92.7741 35.5583Z" fill="#F2F2F2"/>
<path d="M116.469 16.426C115.097 11.358 126.164 7.01212 129.07 11.0934C129.474 10.5131 130.968 10.1607 131.653 10.3387C132.338 10.5167 132.915 10.9617 133.477 11.3924C134.25 11.994 135.051 12.617 135.526 13.482C136.004 14.3435 136.077 15.5182 135.434 16.2658C134.925 16.8603 133.421 17.2447 132.655 17.4014C132.121 17.5117 131.671 17.6007 131.284 17.6648C130.933 17.1524 130.771 16.531 130.827 15.9098C130.567 16.0876 130.349 16.3215 130.189 16.5948C130.028 16.8681 129.93 17.1739 129.9 17.4904C129.889 17.6221 134.219 33.7588 134.219 33.7588C133.698 34.0587 133.151 34.3078 132.584 34.5027C131.463 32.767 130.605 30.8712 130.037 28.8782C129.906 30.2109 129.923 31.5541 130.086 32.883C130.173 33.6282 130.297 34.3684 130.458 35.1008C125.314 36.2257 117.576 35.8555 114.209 31.0711C114.209 31.0513 114.208 31.0315 114.207 31.0117C114.205 30.8228 114.137 30.6408 114.017 30.4967C113.896 30.3526 113.73 30.2555 113.547 30.2219C113.363 30.1884 113.174 30.2205 113.011 30.3128C112.849 30.4051 112.723 30.5518 112.655 30.7278C112.573 30.9388 112.498 31.1216 112.431 31.2669C111.451 27.7142 112.719 23.6026 116.469 16.426Z" fill="#2F2E41"/>
<path d="M107.714 101.392V101.558C107.707 101.503 107.707 101.447 107.714 101.392Z" fill="#2F2E41"/>
<path d="M112.752 72.711C112.883 72.6751 113.016 72.6489 113.151 72.6326C112.996 72.6581 112.863 72.6842 112.752 72.711Z" fill="#2F2E41"/>
<path d="M112.636 72.741C112.671 72.731 112.711 72.721 112.753 72.7109C112.714 72.7212 112.676 72.7288 112.636 72.741Z" fill="#2F2E41"/>
<path d="M149.858 117.999H131C130.731 117.782 130.544 117.477 130.471 117.136C130.397 116.796 130.442 116.44 130.596 116.128C131.112 114.932 130.102 113.838 130.102 113.838C129.759 113.431 129.521 112.945 129.408 112.423C129.296 111.9 129.312 111.358 129.456 110.843C129.955 109.076 127.998 104.086 127.998 104.086C127.998 104.086 126.942 110.529 125.649 117.999H107.714C107.414 117.481 107.255 116.891 107.255 116.289C107.255 115.688 107.414 115.098 107.714 114.58C108.759 112.784 107.714 112.44 107.714 112.44C107.714 112.44 106.669 110.431 107.714 108.973C108.759 107.514 107.714 101.558 107.714 101.558C107.753 101.822 108.051 101.343 108.51 100.339C109.208 98.8117 110.274 96.0651 111.352 92.8765C112.122 90.6008 112.899 88.0968 113.548 85.6487H113.549C113.72 85.0056 113.881 84.3683 114.033 83.7368C114.331 82.4984 114.586 81.2951 114.78 80.1652C115.2 77.7314 115.339 75.6408 115.016 74.2811C114.748 73.1496 114.162 72.5256 113.151 72.6325C113.693 72.5415 114.487 72.4554 115.465 72.374C115.642 72.3596 115.824 72.3453 116.013 72.3293C123.311 71.7707 138.967 71.45 138.967 71.45L143.763 80.1492L149.836 91.1689C149.836 91.1689 149.671 105.952 149.858 117.999Z" fill="#2F2E41"/>
<path d="M129.73 33.8502L118.681 31.4761L116.488 35.9492L109.1 40.2818C109.1 40.2818 113.862 60.0053 113.835 62.7793C113.766 69.8221 102.642 85.6098 111.044 84.3953C119.447 83.1807 121.153 78.0933 123.851 78.8977C126.283 79.6232 129.254 82.8506 131.243 80.5424C133.231 78.2342 133.932 80.8996 135.189 80.9917C135.787 81.0355 135.427 78.0771 136.93 81.0836C138.434 84.0902 146.407 80.043 143.705 77.3056C139.204 72.7465 138.289 39.1387 138.289 39.1387L133.279 37.5771L129.73 33.8502Z" fill="#E6E6E6"/>
<path d="M108.891 105.478C109.335 104.941 109.555 104.251 109.504 103.553C109.453 102.855 109.135 102.205 108.618 101.741C108.512 101.648 108.398 101.564 108.278 101.491L110.125 92.3067L105.854 89.7175L104.667 102.576C104.404 103.104 104.321 103.706 104.431 104.287C104.542 104.868 104.839 105.396 105.276 105.788C105.527 106.008 105.819 106.177 106.134 106.283C106.449 106.39 106.782 106.432 107.114 106.409C107.445 106.385 107.769 106.295 108.066 106.145C108.364 105.994 108.629 105.786 108.847 105.531C108.862 105.514 108.877 105.496 108.891 105.478Z" fill="#A0616A"/>
<path d="M122.151 57.0677C122.124 56.7724 121.753 56.6384 121.237 56.4533C120.72 56.2918 120.228 56.0559 119.777 55.7527C118.636 54.918 119.085 54.0451 119.706 52.8386C119.827 52.604 119.953 52.3598 120.072 52.106C120.423 51.3544 119.864 48.2535 118.406 42.8881C117.957 41.2363 117.959 40.0697 117.649 39.2957C117.34 38.5217 116.721 38.1403 115.033 38.0605C112.994 37.9562 110.997 38.6753 109.48 40.0602C109.439 40.0969 109.397 40.1368 109.356 40.1751C109.278 40.2485 109.203 40.3235 109.129 40.4001C107.726 41.8296 106.923 43.7533 106.889 45.7687L106.881 46.1118L106.532 62.5049L105.554 76.8904L104.206 96.7067L105.204 96.7562L109.19 96.9573L109.674 96.9812L110.821 92.1073L112.201 86.2424L112.708 84.0879L114.282 77.4043L115.016 74.2811L115.465 72.374L115.648 71.5952L116.539 67.8097C116.56 67.7299 118.611 59.5318 120.976 58.1609C121.858 57.6502 122.176 57.3534 122.151 57.0677Z" fill="#E6E6E6"/>
<path d="M148.683 105.38C148.185 104.895 147.893 104.233 147.87 103.533C147.846 102.834 148.093 102.153 148.558 101.635C148.654 101.531 148.759 101.436 148.87 101.349L146.06 92.4194L150.031 89.3806L152.576 102.035C152.893 102.532 153.039 103.121 152.991 103.711C152.943 104.301 152.703 104.858 152.31 105.295C152.084 105.542 151.812 105.741 151.51 105.881C151.208 106.021 150.881 106.1 150.549 106.112C150.217 106.125 149.885 106.071 149.574 105.953C149.262 105.836 148.977 105.658 148.733 105.429C148.716 105.413 148.699 105.396 148.683 105.38Z" fill="#A0616A"/>
<path d="M150.626 86.0029C150.626 86.0029 147.528 74.9636 148.473 73.7685C149.418 72.5734 146.628 72.34 147.83 70.1143C149.032 67.8886 147.373 67.5164 147.373 67.5164L146.472 62.399L144.863 49.8294L144.814 49.4556L144.346 45.7987C144.215 44.7542 143.877 43.7472 143.354 42.8378C142.83 41.9284 142.131 41.1353 141.297 40.506C141.255 40.473 141.211 40.4413 141.168 40.4096C140.97 40.265 140.767 40.1311 140.56 40.0078C139.015 39.0844 137.201 38.7352 135.429 39.0204C132.09 39.5472 133.129 40.8084 132.588 44.1871C131.708 49.6808 131.48 52.8237 131.909 53.5339C132.053 53.773 132.205 54.0017 132.35 54.2214C133.095 55.355 133.634 56.1727 132.588 57.1285C132.171 57.4778 131.707 57.7653 131.211 57.9823C130.719 58.2234 130.363 58.3965 130.368 58.693C130.373 58.9802 130.721 59.2395 131.651 59.6508C132.779 60.1508 133.991 62.041 134.983 63.9719C135.77 65.5284 136.472 67.1275 137.086 68.762L145.613 93.0565L147.004 97.0185L147.483 96.9417L151.424 96.3089L152.412 96.1505L150.626 86.0029Z" fill="#E6E6E6"/>
<path d="M125.069 31.3082C130.047 31.3082 134.082 27.2201 134.082 22.1771C134.082 17.1342 130.047 13.046 125.069 13.046C120.09 13.046 116.055 17.1342 116.055 22.1771C116.055 27.2201 120.09 31.3082 125.069 31.3082Z" fill="#A0616A"/>
<path d="M111.549 17.1379C110.177 12.0699 121.244 7.72403 124.15 11.8053C124.555 11.2251 126.048 10.8726 126.733 11.0506C127.419 11.2286 127.995 11.6736 128.557 12.1043C129.33 12.7059 130.131 13.3289 130.606 14.1939C131.084 15.0554 131.158 16.2302 130.514 16.9777C130.005 17.5722 128.501 17.9567 127.735 18.1133C127.201 18.2237 126.751 18.3126 126.364 18.3767C126.013 17.8643 125.851 17.2429 125.907 16.6217C125.647 16.7995 125.429 17.0334 125.269 17.3067C125.108 17.58 125.01 17.8858 124.98 18.2023C124.969 18.334 129.299 34.4707 129.299 34.4707C128.778 34.7706 128.231 35.0197 127.665 35.2147C126.543 33.4789 125.685 31.5831 125.117 29.5901C124.986 30.9228 125.003 32.266 125.166 33.5949C125.253 34.3401 125.377 35.0804 125.538 35.8127C120.394 36.9376 112.656 36.5674 109.289 31.783C109.289 31.7632 109.288 31.7434 109.288 31.7236C109.285 31.5347 109.218 31.3527 109.097 31.2086C108.976 31.0646 108.81 30.9674 108.627 30.9339C108.443 30.9003 108.254 30.9324 108.091 31.0247C107.929 31.117 107.803 31.2637 107.735 31.4397C107.653 31.6508 107.578 31.8335 107.511 31.9788C106.531 28.4261 107.799 24.3145 111.549 17.1379Z" fill="#2F2E41"/>
<path d="M66.8453 48.6899C66.655 48.6987 66.4665 48.6481 66.3055 48.5448C66.1445 48.4416 66.0187 48.2907 65.9452 48.1126C65.8717 47.9345 65.854 47.7378 65.8945 47.5492C65.935 47.3606 66.0318 47.1891 66.1718 47.0581C66.1952 46.9637 66.212 46.896 66.2354 46.8016C66.2271 46.7811 66.2186 46.7606 66.2101 46.7401C65.3545 44.6733 62.4547 44.6876 61.6064 46.7574C60.8535 48.5944 59.8948 50.4346 59.6588 52.377C59.5548 53.2356 59.5987 54.106 59.7884 54.9493C58.0199 51.0414 57.1015 46.794 57.0956 42.495C57.0953 41.4162 57.1544 40.3382 57.2729 39.2662C57.3707 38.3873 57.5065 37.5146 57.6802 36.6483C58.6281 31.9474 60.6632 27.5413 63.6185 23.7919C65.0488 23.0014 66.2056 21.7856 66.9328 20.3086C67.1963 19.7776 67.3825 19.2108 67.4857 18.6258C67.3243 18.6473 66.8773 16.158 66.999 16.0053C66.7741 15.6596 66.3717 15.4878 66.1261 15.1505C64.9047 13.4731 63.222 13.766 62.3435 16.0455C60.467 17.0049 60.4488 18.596 61.6003 20.1264C62.3328 21.1 62.4335 22.4173 63.0762 23.4597C63.0101 23.5454 62.9413 23.6285 62.8752 23.7142C61.6664 25.2888 60.6128 26.9797 59.7296 28.7625C59.9795 26.7852 59.6105 24.4031 58.9816 22.8675C58.2657 21.1179 56.9237 19.6444 55.742 18.1319C54.3226 16.3151 51.4119 17.108 51.1618 19.411C51.1594 19.4333 51.157 19.4556 51.1547 19.4779C51.3302 19.5782 51.502 19.6847 51.6702 19.7973C51.8814 19.9403 52.045 20.1445 52.1396 20.3833C52.2343 20.622 52.2555 20.8842 52.2006 21.1354C52.1457 21.3866 52.0171 21.6151 51.8318 21.791C51.6464 21.967 51.4129 22.0821 51.1619 22.1213L51.1362 22.1253C51.1987 22.7661 51.3093 23.4012 51.4668 24.0251C49.9508 29.9641 53.2238 32.1272 57.8971 32.2244C58.0003 32.278 58.1008 32.3316 58.204 32.3825C57.3166 34.9299 56.76 37.5835 56.5481 40.2763C56.4282 41.865 56.4352 43.461 56.5693 45.0485L56.5613 44.9923C56.2227 43.2269 55.2931 41.6341 53.9294 40.4826C51.904 38.7972 49.0425 38.1766 46.8575 36.8218C45.8057 36.1697 44.4579 37.0124 44.6414 38.2477C44.6444 38.2674 44.6473 38.2872 44.6504 38.3069C44.9761 38.4413 45.2932 38.5961 45.6 38.7704C45.7755 38.8708 45.9473 38.9772 46.1154 39.0898C46.3266 39.2328 46.4902 39.437 46.5849 39.6758C46.6796 39.9145 46.7008 40.1767 46.6459 40.4279C46.5909 40.6791 46.4624 40.9076 46.277 41.0836C46.0917 41.2595 45.8582 41.3746 45.6072 41.4138L45.5814 41.4178C45.5629 41.4205 45.547 41.4232 45.5285 41.4259C46.0851 42.772 46.8662 44.011 47.8377 45.0887C48.7856 50.2733 52.857 50.7652 57.212 49.2554H57.2147C57.6925 51.3588 58.3848 53.4062 59.2805 55.3647H66.6604C66.6868 55.2816 66.7106 55.1959 66.7345 55.1128C66.0514 55.1563 65.3656 55.1149 64.6924 54.9896C65.24 54.309 65.7875 53.623 66.335 52.9424C66.3472 52.9297 66.3587 52.9163 66.3694 52.9022C66.6472 52.5539 66.9275 52.2082 67.2053 51.8599L67.2054 51.8595C67.2202 50.7917 67.0993 49.7265 66.8455 48.69L66.8453 48.6899Z" fill="#F2F2F2"/>
<path d="M32.4107 11.0935C32.2432 11.4889 27.0786 11.4465 26.8421 11.7986C25.0184 14.5169 31.5925 26.0824 29.7688 28.8042L29.5147 29.1109C30.1097 28.8331 30.6812 28.5065 31.2236 28.1343C31.2723 27.0202 31.321 25.9026 31.3732 24.7885C31.9195 25.4964 32.3604 26.2815 32.6819 27.1189C33.1065 26.8157 33.4548 26.2536 35.2747 25.1481C36.0115 24.3282 36.8609 23.6199 37.7968 23.045L32.4107 11.0935Z" fill="#2F2E41"/>
<path d="M36.1609 33.3711C35.591 32.995 34.9407 32.762 34.2641 32.6915C33.5875 32.6209 32.9041 32.7148 32.2705 32.9654C31.6369 33.216 31.0714 33.6161 30.621 34.1324C30.1706 34.6487 29.8482 35.2664 29.6806 35.9342L21.8324 56.6494L8.34213 48.8911C8.2829 47.9993 7.94639 47.1494 7.38087 46.4634C6.81536 45.7773 6.04989 45.2903 5.19425 45.0722C4.33861 44.8541 3.43677 44.9161 2.61806 45.2493C1.79935 45.5825 1.10584 46.1698 0.63699 46.9269C0.168145 47.6841 -0.0519475 48.5722 0.00827956 49.4639C0.0685066 50.3556 0.40596 51.2051 0.972239 51.8905C1.53852 52.5759 2.30453 53.062 3.16041 53.2792C4.01629 53.4963 4.91807 53.4333 5.73641 53.0991C8.57734 56.1707 20.8938 68.7639 25.9927 63.8434C30.2786 59.7075 36.4637 43.6783 37.9526 38.1431C38.1911 37.2579 38.1461 36.319 37.8241 35.4614C37.5021 34.6039 36.9198 33.8719 36.1609 33.3711Z" fill="#FFB6B6"/>
<path d="M21.4238 64.7115L23.9005 76.0513L42.0107 77.7107L43.6751 67.8369L21.4238 64.7115Z" fill="#FFB6B6"/>
<path d="M49.0874 93.7909C49.0791 93.9534 49.0692 94.1143 49.0576 94.2769C48.8839 96.6265 48.6854 99.3364 48.4703 102.306C48.1311 107.019 47.7523 112.385 47.3701 117.999H9.38379L16.7508 95.568C16.7508 95.568 19.7255 93.9089 18.2111 91.1219C16.6966 88.3349 19.6765 90.5559 19.7042 86.5756C19.7319 82.5954 22.4021 78.3609 22.4021 78.3609L22.8406 72.3344L23.0904 72.3394L42.8586 72.6729L43.2193 72.6796L43.8264 77.8531C47.513 82.297 49.3937 87.9945 49.0874 93.7909Z" fill="#2F2E41"/>
<path d="M32.727 27.8756L41.7413 27.4052L45.9282 34.107C45.9282 34.107 53.806 35.4412 53.2599 44.8449C52.7139 54.2486 43.675 62.5005 43.675 62.5005L44.0614 61.1585L43.3904 63.1009L43.4764 64.1916L44.3919 65.3466L44.4861 66.5411L43.675 68.431C43.7805 68.6023 43.8365 68.8001 43.8366 69.0019C43.8367 69.2038 43.781 69.4016 43.6758 69.573C43.5705 69.7444 43.42 69.8825 43.2412 69.9716C43.0624 70.0607 42.8625 70.0973 42.6642 70.0771L29.6392 68.7548C29.3427 67.9285 29.1047 66.9397 27.9161 68.5857L26.6891 68.4653L21.5885 67.9647L21.2883 66.8569C21.1177 66.2274 21.0912 65.5668 21.2106 64.9253C21.33 64.2838 21.5924 63.6784 21.9776 63.1551C21.5345 61.7498 21.6506 60.2247 22.301 58.9048L22.3254 58.8553L22.867 58.3979C22.867 58.3979 16.9412 49.3793 23.7439 42.5867L26.4742 37.8848L29.5291 34.1092L32.727 27.8756Z" fill="#F58634"/>
<path d="M34.9704 23.9194C39.6914 23.9194 43.5185 20.0426 43.5185 15.2602C43.5185 10.4778 39.6914 6.60095 34.9704 6.60095C30.2495 6.60095 26.4224 10.4778 26.4224 15.2602C26.4224 20.0426 30.2495 23.9194 34.9704 23.9194Z" fill="#FFB6B6"/>
<path d="M41.4631 27.7345C40.767 27.1453 40.2825 26.3397 40.0849 25.4428C39.9268 26.5317 39.9681 27.6408 40.2067 28.7146C39.7438 29.0671 39.2948 29.4021 38.8702 29.7053C38.5488 28.8679 38.1079 28.0827 37.5616 27.3748C37.5094 28.4889 37.4607 29.6066 37.412 30.7206C36.8696 31.0929 36.2981 31.4195 35.7031 31.6972L35.9572 31.3905C37.7809 28.6687 33.0615 23.6588 34.8852 20.9406C35.3968 20.179 33.0859 14.1608 31.3248 13.8894C29.7587 13.6496 29.8248 14.108 28.3074 14.4429C28.1498 13.7771 27.9051 13.1357 27.58 12.5355C27.6665 13.2043 27.6466 13.8828 27.5208 14.5451C26.9814 14.5663 26.5569 14.2181 25.9825 14.1291C22.3177 13.5615 22.6901 9.54583 23.7098 8.27307C24.733 7.00385 28.1299 6.62308 29.696 6.21057C29.8387 6.06956 30.1624 6.1577 30.3051 6.02372C33.3065 3.24112 37.3208 2.7803 40.9333 4.01361C44.7857 5.32884 47.1876 7.87441 48.4203 11.7987L48.7739 14.9391C49.0911 15.9489 48.6921 20.6471 48.4203 21.6704C47.364 25.648 45.1144 23.6624 41.4631 27.7345Z" fill="#2F2E41"/>
<path d="M53.9269 68.7597L53.5904 42.2093C53.5728 41.0845 53.1194 40.0118 52.328 39.2227C51.5366 38.4335 50.4706 37.9912 49.3601 37.9912C48.7856 37.9912 48.2171 38.1097 47.6893 38.3396C47.1615 38.5694 46.6854 38.9057 46.2901 39.328C45.8948 39.7502 45.5885 40.2496 45.39 40.7957C45.1914 41.3418 45.1047 41.9232 45.1352 42.5043L46.3194 70.0728L46.3419 86.8552C45.6439 87.155 45.054 87.6652 44.6523 88.3165C44.2506 88.9678 44.0565 89.7285 44.0964 90.4955C44.1364 91.2624 44.4084 91.9982 44.8756 92.603C45.3428 93.2079 45.9824 93.6524 46.7077 93.8761C47.4329 94.0998 48.2085 94.092 48.9292 93.8536C49.6499 93.6153 50.2807 93.158 50.7358 92.5438C51.191 91.9296 51.4485 91.1884 51.4733 90.4209C51.4982 89.6533 51.2891 88.8966 50.8747 88.2536L53.9269 68.7597Z" fill="#FFB6B6"/>
<path d="M98.0443 103.11C98.0443 103.11 97.524 112.592 97.2848 118H79.3666C78.9978 113.078 78.8737 109.463 78.8737 109.463L77.8932 118H59.7815L58.6587 102.188L64.0849 88.563C64.0849 88.563 93.4908 86.4971 96.2185 89.1179C98.9444 91.7368 98.0443 103.11 98.0443 103.11Z" fill="#2F2E41"/>
<path d="M82.1995 23.342C87.605 23.342 91.987 18.903 91.987 13.4273C91.987 7.95154 87.605 3.51257 82.1995 3.51257C76.7941 3.51257 72.4121 7.95154 72.4121 13.4273C72.4121 18.903 76.7941 23.342 82.1995 23.342Z" fill="#FFB6B6"/>
<path d="M93.6077 10.2056C92.6024 10.67 91.951 14.0331 91.1609 13.2512C90.3707 12.4694 90.4235 11.4519 89.3582 11.1634C88.4979 10.9294 87.5721 11.1968 86.7874 11.6186C86.6473 11.693 86.5115 11.7739 86.3791 11.8544C86.2917 11.7953 86.2047 11.7396 86.1113 11.6883C85.4095 11.3078 84.5902 11.2144 83.8224 11.4275C84.4291 11.6333 84.9566 12.0272 85.3303 12.5533C85.0677 12.7316 84.8016 12.9103 84.5295 13.0687C82.2564 14.3975 79.0219 11.508 76.6292 10.4225C78.1279 13.2715 77.3899 14.4514 76.0886 17.3979L76.0437 17.5657C76.1176 16.8272 73.8618 16.2769 73.9926 17.3164C74.0855 18.0545 74.716 19.695 75.0692 20.3467C72.5536 17.4001 70.8345 13.7943 71.1972 10.0746C71.2762 9.29316 71.2524 8.4687 71.6502 7.79049C72.0485 7.11579 72.8789 6.64231 73.6135 6.8996C73.5512 5.71334 73.8075 4.53217 74.355 3.48166C74.9025 2.43114 75.7208 1.55056 76.7228 0.933516C77.7249 0.316475 78.8733 -0.0139565 80.046 -0.022651C81.2186 -0.0313456 82.3717 0.282024 83.3826 0.88414C84.3219 1.44248 85.1061 2.23216 85.967 2.91332C86.8279 3.59447 87.8204 4.18821 88.912 4.24444C89.6046 4.27828 90.3582 4.107 90.9532 4.47036C91.6424 4.89197 91.7604 5.7747 91.8639 6.6241C91.2491 6.6855 90.6664 6.93116 90.1902 7.32969C90.8262 7.26397 91.4666 7.4031 92.0201 7.72728C92.0306 7.7321 92.0406 7.73788 92.05 7.74454C92.4144 9.14832 92.3771 9.45952 93.6077 10.2056Z" fill="#2F2E41"/>
<path d="M59.8247 93.3598C68.1595 83.4769 65.3443 70.9066 62.0362 58.2175L62.6657 39.472C62.6966 38.5525 62.9454 37.6539 63.3912 36.8523C63.837 36.0507 64.4667 35.3696 65.2271 34.8663L73.7359 29.2353L77.0476 24.3848L86.1765 25.3095L91.2387 30.7327L96.8422 35.0661C98.2491 36.1541 99.3196 37.627 99.9275 39.311C100.535 40.995 100.655 42.82 100.273 44.5708L94.9109 69.1362C94.9109 69.1362 97.1537 81.8711 95.7852 83.2775C94.4167 84.684 90.8906 83.2782 93.6869 84.8571C97.0426 86.7518 100.094 86.4022 98.3956 88.1225C96.6974 89.8427 98.8466 92.2344 98.8466 92.2344L59.8247 93.3598Z" fill="#F58634"/>
<path d="M63.3881 107.723L64.7777 97.6949L59.2333 96.0916L58.1366 106.747C57.6777 107.173 57.3453 107.721 57.1768 108.328C57.0082 108.935 57.0101 109.577 57.1824 110.183C57.3546 110.789 57.6903 111.335 58.1517 111.758C58.6131 112.181 59.1819 112.466 59.7942 112.58C60.4065 112.694 61.038 112.632 61.6177 112.402C62.1975 112.173 62.7024 111.783 63.0758 111.279C63.4492 110.774 63.6763 110.174 63.7314 109.546C63.7866 108.918 63.6677 108.287 63.3881 107.723Z" fill="#FFB6B6"/>
<path d="M73.9438 31.043C73.9438 31.043 58.1621 36.2462 57.7858 40.0533C57.4095 43.8605 57.5343 46.1911 55.8687 61.4256L55.9564 102.463C55.9564 102.463 66.5371 104.758 65.452 102.305C64.3669 99.851 64.7455 98.6966 64.7455 98.6966C64.7455 98.6966 67.014 97.7897 66.4462 94.9089C65.8783 92.028 68.726 77.7513 68.726 77.7513L70.5234 52.1468L73.9438 31.043Z" fill="#F58634"/>
<path d="M93.403 107.192L92.6636 97.0932L98.2996 95.8604L98.7064 106.566C99.1367 107.021 99.4331 107.589 99.5621 108.206C99.6911 108.823 99.6478 109.465 99.4368 110.058C99.2258 110.651 98.8557 111.173 98.368 111.565C97.8802 111.957 97.2942 112.203 96.6759 112.276C96.0576 112.349 95.4314 112.246 94.8677 111.978C94.3041 111.711 93.8253 111.289 93.4853 110.761C93.1452 110.233 92.9574 109.619 92.9429 108.988C92.9283 108.358 93.0877 107.736 93.403 107.192Z" fill="#FFB6B6"/>
<path d="M87.8179 29.9769C87.8179 29.9769 103.23 36.214 103.36 40.0379C103.49 43.8618 103.215 46.1792 103.894 61.4914L101.158 102.436C101.158 102.436 90.4522 104.025 91.6933 101.648C92.9344 99.2719 92.6311 98.0949 92.6311 98.0949C92.6311 98.0949 90.426 97.0398 91.1785 94.2027C91.931 91.3656 90.0106 76.9309 90.0106 76.9309L89.8692 51.2621L87.8179 29.9769Z" fill="#F58634"/>
</g>
<defs>
<clipPath id="clip0_1148_1481">
<rect width="153" height="118" fill="white"/>
</clipPath>
</defs>
</svg>
