<svg width="316" height="233" viewBox="0 0 316 233" fill="none" xmlns="http://www.w3.org/2000/svg">
<g clip-path="url(#clip0_2006_609)">
<path d="M124.213 199.887C124.15 199.887 124.086 199.863 124.038 199.814C123.688 199.465 123.117 193.046 121.581 173.937C120.952 166.118 120.358 158.733 119.925 154.244C119.893 153.924 119.769 153.887 119.728 153.874C119.135 153.695 117.331 155.117 116.324 156.363C116.237 156.469 116.081 156.486 115.974 156.4C115.867 156.313 115.851 156.157 115.937 156.05C116.603 155.227 118.774 153.069 119.871 153.399C120.092 153.465 120.367 153.657 120.419 154.197C120.853 158.689 121.447 166.076 122.076 173.897C123.009 185.51 124.067 198.665 124.415 199.494C124.485 199.591 124.476 199.727 124.389 199.814C124.34 199.863 124.277 199.887 124.213 199.887Z" fill="#494949"/>
<path d="M119.287 162.481C123.409 159.178 124.775 154.038 122.338 151C119.902 147.961 114.585 148.175 110.463 151.478C106.341 154.78 104.975 159.921 107.412 162.959C109.849 165.997 115.165 165.783 119.287 162.481Z" fill="#13524A"/>
<path opacity="0.2" d="M119.287 162.481C123.409 159.178 124.775 154.038 122.338 151C119.902 147.961 114.585 148.175 110.463 151.478C106.341 154.78 104.975 159.921 107.412 162.959C109.849 165.997 115.165 165.783 119.287 162.481Z" fill="white"/>
<path d="M108.566 163.731C108.539 163.731 108.511 163.722 108.487 163.703C108.435 163.659 108.427 163.581 108.471 163.528L120.218 149.368C120.262 149.316 120.34 149.308 120.393 149.352C120.446 149.396 120.453 149.474 120.409 149.527L108.662 163.687C108.638 163.716 108.602 163.731 108.566 163.731Z" fill="white"/>
<path d="M126.776 196.852C126.749 196.852 126.721 196.847 126.694 196.838C126.565 196.793 126.496 196.651 126.541 196.522L130.954 183.838C131.218 183.077 131.844 182.509 132.628 182.32C133.412 182.131 134.228 182.35 134.811 182.907L137.144 185.134C137.243 185.229 137.247 185.386 137.152 185.486C137.057 185.585 136.9 185.588 136.8 185.493L134.468 183.266C134.007 182.827 133.364 182.653 132.745 182.803C132.126 182.952 131.632 183.4 131.423 184.001L127.01 196.685C126.975 196.787 126.879 196.852 126.776 196.852V196.852Z" fill="#494949"/>
<path d="M143.661 192.157C146.715 189.74 146.534 184.424 143.255 180.284C139.977 176.144 134.843 174.747 131.788 177.164C128.733 179.58 128.915 184.896 132.193 189.036C135.472 193.176 140.606 194.573 143.661 192.157Z" fill="#13524A"/>
<path d="M122.209 199.078C122.097 199.078 121.995 199.002 121.967 198.888L114.562 167.94C114.458 167.501 114.133 167.176 113.694 167.069C113.256 166.962 112.818 167.102 112.523 167.443L110.24 170.079C110.15 170.183 109.993 170.194 109.89 170.104C109.786 170.015 109.774 169.858 109.864 169.754L112.147 167.118C112.56 166.64 113.198 166.436 113.812 166.586C114.426 166.736 114.899 167.21 115.045 167.824L122.45 198.772C122.482 198.905 122.4 199.039 122.267 199.071C122.247 199.076 122.228 199.078 122.209 199.078V199.078Z" fill="#494949"/>
<path d="M119.477 176.955C120.377 171.752 117.995 166.997 114.156 166.333C110.317 165.669 106.475 169.349 105.575 174.552C104.675 179.755 107.057 184.511 110.896 185.175C114.735 185.838 118.577 182.158 119.477 176.955Z" fill="#13524A"/>
<path d="M124.214 199.887C124.204 199.887 124.193 199.887 124.183 199.885C124.047 199.868 123.95 199.745 123.967 199.609L128.695 161.234C128.802 160.368 129.386 159.671 130.219 159.413C131.052 159.155 131.929 159.401 132.506 160.054L137.911 166.173C138.002 166.275 137.992 166.432 137.889 166.523C137.786 166.614 137.629 166.604 137.538 166.502L132.134 160.383C131.687 159.878 131.011 159.688 130.366 159.887C129.722 160.087 129.271 160.626 129.189 161.295L124.46 199.669C124.445 199.795 124.337 199.887 124.214 199.887Z" fill="#494949"/>
<path d="M143.454 169.573C145.34 166.165 143.121 161.331 138.498 158.775C133.876 156.22 128.6 156.91 126.714 160.317C124.828 163.725 127.047 168.559 131.67 171.115C136.292 173.671 141.568 172.98 143.454 169.573Z" fill="#13524A"/>
<path opacity="0.2" d="M143.661 192.157C146.715 189.74 146.534 184.424 143.255 180.284C139.977 176.144 134.843 174.747 131.788 177.164C128.733 179.58 128.915 184.896 132.193 189.036C135.472 193.176 140.606 194.573 143.661 192.157Z" fill="white"/>
<path opacity="0.5" d="M119.477 176.955C120.377 171.752 117.995 166.997 114.156 166.333C110.317 165.669 106.475 169.349 105.575 174.552C104.675 179.755 107.057 184.511 110.896 185.175C114.735 185.838 118.577 182.158 119.477 176.955Z" fill="white"/>
<path opacity="0.5" d="M143.454 169.573C145.34 166.165 143.121 161.331 138.498 158.775C133.876 156.22 128.6 156.91 126.714 160.317C124.828 163.725 127.047 168.559 131.67 171.115C136.292 173.671 141.568 172.98 143.454 169.573Z" fill="white"/>
<path d="M130.262 232.448H118.166L116.161 193.764H132.266L130.262 232.448Z" fill="#292A2E"/>
<path opacity="0.3" d="M130.262 232.448H118.166L116.161 193.764H132.266L130.262 232.448Z" fill="white"/>
<path d="M143.662 192.28C143.625 192.28 143.589 192.264 143.564 192.233L131.691 177.24C131.648 177.186 131.657 177.108 131.711 177.066C131.765 177.023 131.843 177.032 131.886 177.086L143.759 192.079C143.801 192.133 143.793 192.211 143.739 192.254C143.716 192.272 143.688 192.28 143.662 192.28V192.28Z" fill="white"/>
<path d="M142.664 170.774C142.639 170.774 142.613 170.767 142.591 170.75L127.398 159.661C127.342 159.621 127.33 159.543 127.371 159.488C127.411 159.432 127.489 159.42 127.544 159.461L142.738 170.55C142.793 170.59 142.806 170.668 142.765 170.723C142.741 170.757 142.703 170.774 142.665 170.774H142.664Z" fill="white"/>
<path d="M110.279 185.013C110.269 185.013 110.258 185.012 110.247 185.009C110.181 184.991 110.142 184.923 110.159 184.857L114.996 166.744C115.014 166.677 115.083 166.638 115.148 166.656C115.215 166.673 115.254 166.741 115.236 166.808L110.399 184.921C110.385 184.977 110.334 185.013 110.28 185.013H110.279Z" fill="white"/>
<path d="M64.597 53.8326H22.5823L16 58.7606V32.6754C16 30.6456 17.6461 29 19.677 29H64.597C66.6277 29 68.2741 30.6454 68.2741 32.6754V50.1572C68.2741 52.1869 66.6279 53.8326 64.597 53.8326Z" fill="#F4F4F4"/>
<path d="M63.6279 34.5266H20.6464C20.5617 34.5266 20.4932 34.4581 20.4932 34.3734C20.4932 34.2887 20.5617 34.2202 20.6464 34.2202H63.6279C63.7126 34.2202 63.7812 34.2887 63.7812 34.3734C63.7812 34.4581 63.7126 34.5266 63.6279 34.5266Z" fill="white"/>
<path d="M63.6279 39.4719H20.6464C20.5617 39.4719 20.4932 39.4034 20.4932 39.3187C20.4932 39.2341 20.5617 39.1655 20.6464 39.1655H63.6279C63.7126 39.1655 63.7812 39.2341 63.7812 39.3187C63.7812 39.4034 63.7126 39.4719 63.6279 39.4719Z" fill="white"/>
<path d="M63.6279 44.417H20.6464C20.5617 44.417 20.4932 44.3485 20.4932 44.2638C20.4932 44.1791 20.5617 44.1106 20.6464 44.1106H63.6279C63.7126 44.1106 63.7812 44.1791 63.7812 44.2638C63.7812 44.3485 63.7126 44.417 63.6279 44.417Z" fill="white"/>
<path d="M54.4265 49.3625H20.6464C20.5617 49.3625 20.4932 49.294 20.4932 49.2093C20.4932 49.1247 20.5617 49.0562 20.6464 49.0562H54.4265C54.5112 49.0562 54.5798 49.1247 54.5798 49.2093C54.5798 49.294 54.5112 49.3625 54.4265 49.3625Z" fill="white"/>
<path d="M128.081 129.323H63.9924L55.8721 135.402V103.222C55.8721 100.718 57.903 98.6882 60.4081 98.6882H128.081C130.586 98.6882 132.617 100.718 132.617 103.222V124.789C132.617 127.293 130.586 129.323 128.081 129.323Z" fill="#F4F4F4"/>
<path d="M126.885 105.506H61.6043C61.4997 105.506 61.415 105.421 61.415 105.316C61.415 105.212 61.4997 105.127 61.6043 105.127H126.885C126.99 105.127 127.075 105.212 127.075 105.316C127.075 105.421 126.99 105.506 126.885 105.506Z" fill="white"/>
<path d="M126.885 111.606H61.6043C61.4997 111.606 61.415 111.522 61.415 111.417C61.415 111.313 61.4997 111.228 61.6043 111.228H126.885C126.99 111.228 127.075 111.313 127.075 111.417C127.075 111.522 126.99 111.606 126.885 111.606Z" fill="white"/>
<path d="M126.885 117.707H61.6043C61.4997 117.707 61.415 117.622 61.415 117.518C61.415 117.413 61.4997 117.329 61.6043 117.329H126.885C126.99 117.329 127.075 117.413 127.075 117.518C127.075 117.622 126.99 117.707 126.885 117.707Z" fill="white"/>
<path d="M115.534 123.808H61.6043C61.4997 123.808 61.415 123.723 61.415 123.619C61.415 123.514 61.4997 123.429 61.6043 123.429H115.534C115.639 123.429 115.723 123.514 115.723 123.619C115.723 123.723 115.639 123.808 115.534 123.808H115.534Z" fill="white"/>
<path d="M168.832 150.04H245.244L254.925 157.288V118.921C254.925 115.935 252.504 113.515 249.517 113.515H168.832C165.845 113.515 163.424 115.935 163.424 118.921V144.634C163.424 147.62 165.845 150.04 168.832 150.04L168.832 150.04Z" fill="#F4F4F4"/>
<path d="M170.258 121.644H248.091C248.216 121.644 248.317 121.543 248.317 121.418C248.317 121.294 248.216 121.193 248.091 121.193H170.258C170.133 121.193 170.032 121.294 170.032 121.418C170.032 121.543 170.133 121.644 170.258 121.644Z" fill="white"/>
<path d="M170.258 128.917H248.091C248.216 128.917 248.317 128.816 248.317 128.692C248.317 128.568 248.216 128.467 248.091 128.467H170.258C170.133 128.467 170.032 128.568 170.032 128.692C170.032 128.817 170.133 128.917 170.258 128.917Z" fill="white"/>
<path d="M170.258 136.191H248.091C248.216 136.191 248.317 136.09 248.317 135.966C248.317 135.841 248.216 135.74 248.091 135.74H170.258C170.133 135.74 170.032 135.842 170.032 135.966C170.032 136.09 170.133 136.191 170.258 136.191Z" fill="white"/>
<path d="M183.792 143.465H248.091C248.216 143.465 248.317 143.364 248.317 143.24C248.317 143.115 248.216 143.014 248.091 143.014H183.792C183.667 143.014 183.566 143.115 183.566 143.24C183.566 143.364 183.667 143.465 183.792 143.465Z" fill="white"/>
<path d="M230.036 84.3125H294.124L302.244 90.3918V58.2122C302.244 55.708 300.214 53.6782 297.708 53.6782H230.036C227.531 53.6782 225.5 55.7082 225.5 58.2122V79.7785C225.5 82.2827 227.531 84.3125 230.036 84.3125Z" fill="#F4F4F4"/>
<path d="M231.231 60.4956H296.512C296.617 60.4956 296.701 60.4109 296.701 60.3064C296.701 60.2019 296.617 60.1172 296.512 60.1172H231.231C231.127 60.1172 231.042 60.2019 231.042 60.3064C231.042 60.4109 231.127 60.4956 231.231 60.4956Z" fill="white"/>
<path d="M231.231 66.5964H296.512C296.617 66.5964 296.701 66.5117 296.701 66.4072C296.701 66.3027 296.617 66.218 296.512 66.218H231.231C231.127 66.218 231.042 66.3027 231.042 66.4072C231.042 66.5117 231.127 66.5964 231.231 66.5964Z" fill="white"/>
<path d="M231.231 72.697H296.512C296.617 72.697 296.701 72.6123 296.701 72.5078C296.701 72.4033 296.617 72.3186 296.512 72.3186H231.231C231.127 72.3186 231.042 72.4033 231.042 72.5078C231.042 72.6123 231.127 72.697 231.231 72.697Z" fill="white"/>
<path d="M242.583 78.7978H296.513C296.617 78.7978 296.702 78.7132 296.702 78.6086C296.702 78.5041 296.617 78.4194 296.513 78.4194H242.583C242.478 78.4194 242.394 78.5041 242.394 78.6086C242.394 78.7132 242.478 78.7978 242.583 78.7978Z" fill="white"/>
<path d="M77.9004 119.764L205.965 119.764C209.354 119.764 212.102 117.018 212.102 113.631V12.6387C212.102 9.2513 209.354 6.50528 205.965 6.50528L77.9004 6.50528C74.5115 6.50528 71.7643 9.2513 71.7643 12.6387V113.631C71.7643 117.018 74.5115 119.764 77.9004 119.764Z" fill="white"/>
<path d="M71.5596 113.631V12.639C71.5596 9.1444 74.404 6.30103 77.9004 6.30103H205.965C209.462 6.30103 212.306 9.14415 212.306 12.639V113.631C212.306 117.126 209.462 119.969 205.965 119.969H77.9004C74.404 119.969 71.5596 117.126 71.5596 113.631V113.631ZM77.9004 6.70995C74.6298 6.70995 71.9687 9.36959 71.9687 12.639V113.631C71.9687 116.901 74.6298 119.56 77.9004 119.56H205.965C209.236 119.56 211.897 116.901 211.897 113.631V12.639C211.897 9.36984 209.236 6.70995 205.965 6.70995H77.9004Z" fill="#292A2E"/>
<path d="M71.7646 12.6383V18.8102H212.101V12.6383C212.101 9.25093 209.354 6.50488 205.965 6.50488H77.9008C74.5119 6.50488 71.7646 9.25093 71.7646 12.6383Z" fill="#292A2E"/>
<path d="M205.002 44.4409H242.426L248.077 48.6717V26.5931C248.077 24.7965 246.62 23.3398 244.822 23.3398H205.002C203.204 23.3398 201.747 24.7963 201.747 26.5931V41.1879C201.747 42.9845 203.204 44.4412 205.002 44.4412V44.4409Z" fill="#F58634"/>
<path opacity="0.11" d="M205.002 44.4409H242.426L248.077 48.6717V26.5931C248.077 24.7965 246.62 23.3398 244.822 23.3398H205.002C203.204 23.3398 201.747 24.7963 201.747 26.5931V41.1879C201.747 42.9845 203.204 44.4412 205.002 44.4412V44.4409Z" fill="white"/>
<path opacity="0.49" d="M205.002 44.4409H242.426L248.077 48.6717V26.5931C248.077 24.7965 246.62 23.3398 244.822 23.3398H205.002C203.204 23.3398 201.747 24.7963 201.747 26.5931V41.1879C201.747 42.9845 203.204 44.4412 205.002 44.4412V44.4409Z" fill="white"/>
<path d="M205.736 32.1217H244.088C244.166 32.1217 244.23 32.0584 244.23 31.9801C244.23 31.9019 244.166 31.8386 244.088 31.8386H205.736C205.658 31.8386 205.595 31.9019 205.595 31.9801C205.595 32.0584 205.658 32.1217 205.736 32.1217Z" fill="white"/>
<path d="M205.736 28.0943H244.088C244.166 28.0943 244.23 28.031 244.23 27.9528C244.23 27.8746 244.166 27.8113 244.088 27.8113H205.736C205.658 27.8113 205.595 27.8746 205.595 27.9528C205.595 28.031 205.658 28.0943 205.736 28.0943Z" fill="white"/>
<path d="M205.736 36.3675H244.088C244.166 36.3675 244.23 36.3042 244.23 36.226C244.23 36.1478 244.166 36.0845 244.088 36.0845H205.736C205.658 36.0845 205.595 36.1478 205.595 36.226C205.595 36.3042 205.658 36.3675 205.736 36.3675Z" fill="white"/>
<path d="M205.736 40.6131H228.513C228.592 40.6131 228.655 40.5498 228.655 40.4716C228.655 40.3934 228.592 40.3301 228.513 40.3301H205.736C205.658 40.3301 205.595 40.3934 205.595 40.4716C205.595 40.5498 205.658 40.6131 205.736 40.6131Z" fill="white"/>
<path d="M58.9468 25.5886H99.3614L106.214 30.7192V3.94502C106.214 1.76631 104.447 0 102.268 0H58.9468C56.7671 0 55 1.76631 55 3.94502V21.6433C55 23.822 56.7671 25.5886 58.9468 25.5886Z" fill="#F58634"/>
<path opacity="0.11" d="M58.9468 25.5886H99.3614L106.214 30.7192V3.94502C106.214 1.76631 104.447 0 102.268 0H58.9468C56.7671 0 55 1.76631 55 3.94502V21.6433C55 23.822 56.7671 25.5886 58.9468 25.5886Z" fill="white"/>
<path d="M101.377 10.6495H59.8377C59.7428 10.6495 59.666 10.5728 59.666 10.478C59.666 10.3831 59.7428 10.3064 59.8377 10.3064H101.377C101.472 10.3064 101.549 10.3831 101.549 10.478C101.549 10.5728 101.472 10.6495 101.377 10.6495Z" fill="white"/>
<path d="M101.377 5.76574H59.8377C59.7428 5.76574 59.666 5.68902 59.666 5.59417C59.666 5.49933 59.7428 5.42261 59.8377 5.42261H101.377C101.472 5.42261 101.549 5.49933 101.549 5.59417C101.549 5.68902 101.472 5.76574 101.377 5.76574Z" fill="white"/>
<path d="M101.377 15.798H59.8377C59.7428 15.798 59.666 15.7212 59.666 15.6264C59.666 15.5316 59.7428 15.4548 59.8377 15.4548H101.377C101.472 15.4548 101.549 15.5316 101.549 15.6264C101.549 15.7212 101.472 15.798 101.377 15.798Z" fill="white"/>
<path d="M101.377 20.9466H73.7556C73.6607 20.9466 73.584 20.8699 73.584 20.7751C73.584 20.6802 73.6607 20.6035 73.7556 20.6035H101.377C101.472 20.6035 101.548 20.6802 101.548 20.7751C101.548 20.8699 101.472 20.9466 101.377 20.9466Z" fill="white"/>
<path d="M183.622 39.4045C183.789 38.7626 184.461 38.3865 185.102 38.5896C185.702 38.78 186.016 39.4454 185.858 40.055L185.461 41.575L188.915 37.3519C189.291 36.8757 190.057 36.5315 190.563 36.9881C190.997 37.3303 191.12 37.9182 190.893 38.3972C190.898 38.4004 190.905 38.4021 190.909 38.4066C190.913 38.4096 190.915 38.4138 190.918 38.417L191.498 37.6826C191.942 37.119 192.804 37.0773 193.299 37.6498C193.668 38.0751 193.647 38.7157 193.298 39.1574L193.052 39.47C193.058 39.4817 193.062 39.4943 193.063 39.5073C193.492 39.1639 194.121 39.1584 194.558 39.5408C195.031 39.9562 195.052 40.6916 194.662 41.1862L194.056 41.9544C194.088 41.9454 194.123 41.9499 194.152 41.9725C194.169 41.9859 194.178 42.0038 194.185 42.0226C194.628 41.8339 195.172 41.9268 195.529 42.338C195.897 42.7633 195.876 43.4039 195.528 43.8456L190.359 50.3946C188.88 52.2689 186.411 53.0585 184.118 52.3908L180.51 51.3398L183.622 39.4047L183.622 39.4045Z" fill="#E98862"/>
<g opacity="0.2">
<path d="M187.497 42.5946C187.543 42.6303 187.609 42.6229 187.646 42.5777L190.925 38.5575C190.963 38.5115 190.956 38.444 190.91 38.4065C190.87 38.3678 190.796 38.376 190.759 38.4219L187.479 42.4421C187.442 42.4881 187.449 42.5556 187.495 42.5931L187.497 42.5946Z" fill="#0C0C0C"/>
</g>
<g opacity="0.2">
<path d="M189.23 44.0894C189.276 44.1252 189.342 44.1177 189.379 44.0725L193.039 39.5858C193.076 39.5398 193.07 39.4723 193.024 39.4348C192.981 39.4008 192.91 39.4043 192.873 39.4502L189.213 43.937C189.175 43.9829 189.182 44.0504 189.228 44.0879L189.23 44.0894Z" fill="#0C0C0C"/>
</g>
<g opacity="0.2">
<path d="M191.099 45.7188C191.145 45.7546 191.211 45.7471 191.248 45.7019L194.168 42.1229C194.205 42.077 194.198 42.0094 194.152 41.9719C194.105 41.9349 194.039 41.9414 194.001 41.9873L191.082 45.5664C191.044 45.6123 191.051 45.6798 191.097 45.7173L191.099 45.7188Z" fill="#0C0C0C"/>
</g>
<path d="M115.782 31.6091C115.782 31.6091 114.313 39.954 112.45 42.275C107.084 48.9569 105.066 54.4621 109.039 59.257C113.011 64.0519 141.646 67.5994 145.007 58.0926C147.837 50.0888 144.024 48.727 143.898 41.8246C143.84 38.7014 143.438 32.1184 143.438 32.1184" fill="#0A0A0A"/>
<path d="M139.061 54.3044C139.011 54.2979 138.458 63.4646 127.804 62.6654C120.429 62.1132 117.799 54.2912 117.63 54.2912C118.425 54.1224 119.764 53.8766 120.117 53.6881C121.279 53.0644 122.716 52.4154 123.09 50.161C123.306 48.8617 122.94 42.2143 123.053 40.8997L134.374 43.4255C134.216 46.2021 133.109 52.6386 136.99 53.778C137.635 53.9665 138.331 54.1398 139.061 54.3044H139.061Z" fill="#FF9E85"/>
<path opacity="0.22" d="M134.533 51.1474C134.373 50.6357 134.277 50.1908 134.193 49.3911C134.041 47.9607 134.121 46.6458 134.267 45.306C131.979 45.0016 129.783 44.0402 128.009 42.5659C127.799 43.3421 126.643 46.7329 126.963 47.4703C127.568 48.8644 130.411 51.1474 134.533 51.1474Z" fill="#0C0C0C"/>
<path d="M132.548 49.064C128.065 48.9542 123.505 46.5858 123.037 40.5433L121.656 34.9884C121.187 28.9459 123.983 23.8014 129.675 23.3602C135.367 22.9192 139.642 25.2544 140.111 31.2971C140.111 31.2971 140.429 34.76 140.41 35.9172C140.336 40.2814 139.35 49.2308 132.548 49.0642V49.064Z" fill="#FF9E85"/>
<path d="M134.409 42.7553C134.504 42.7668 134.558 42.8663 134.52 42.9537C134.025 44.0896 132.789 44.5706 131.586 44.1542C130.383 43.7378 129.651 42.5825 129.949 41.3865C129.973 41.2912 130.083 41.2475 130.166 41.3016C130.427 41.4747 131.05 41.8277 132.272 42.2404C133.321 42.5949 134.081 42.7161 134.409 42.7553Z" fill="white"/>
<path d="M139.599 34.7249C139.558 34.9146 138.836 34.815 137.891 34.5578C136.946 34.3006 136.113 34.0277 136.175 33.7936C136.253 33.4981 137.087 33.4681 138.032 33.7253C138.978 33.9825 139.664 34.4265 139.599 34.7249Z" fill="#0A0A0A"/>
<path d="M116.99 36.3587L123.077 38.781C127.031 37.6665 127.91 28.4543 127.91 28.4543C127.91 28.4543 132.014 33.4399 143.437 32.1185C143.437 32.1185 142.86 16.8335 125.901 19.5381C120.432 20.4101 115.979 25.8312 115.667 33.029C115.448 38.0731 116.99 36.3587 116.99 36.3587Z" fill="#0A0A0A"/>
<path d="M122.576 42.2539C120.846 42.388 119.167 41.594 118.973 38.991C118.843 37.2617 120.36 36.127 122.09 35.9929L123.071 37.0824L124.063 42.139L122.576 42.2542V42.2539Z" fill="#FF9E85"/>
<path d="M139.05 36.2555C139.087 35.9147 138.841 35.6081 138.5 35.5705C138.159 35.533 137.853 35.7788 137.815 36.1196C137.778 36.4603 138.023 36.767 138.364 36.8045C138.705 36.842 139.012 36.5962 139.05 36.2555Z" fill="#0A0A0A"/>
<path d="M133.499 41.043C133.374 41.0293 133.278 40.923 133.278 40.7949C133.279 40.6579 133.391 40.5471 133.528 40.5479L134.851 40.5551L134.334 37.8557C134.308 37.7211 134.396 37.591 134.531 37.5652C134.666 37.5396 134.796 37.6275 134.822 37.7624L135.396 40.7582C135.41 40.8312 135.39 40.9064 135.343 40.9635C135.295 41.0206 135.225 41.0534 135.15 41.0531L133.525 41.0442C133.517 41.0442 133.508 41.0437 133.499 41.0427L133.499 41.043Z" fill="#0A0A0A"/>
<path d="M132.116 33.7709C132.155 33.9614 131.456 34.1625 130.487 34.3109C129.519 34.4594 128.647 34.5473 128.609 34.3085C128.56 34.0068 129.31 33.6413 130.278 33.4928C131.247 33.3444 132.055 33.4715 132.116 33.7709Z" fill="#0A0A0A"/>
<path d="M132.621 36.2555C132.658 35.9147 132.412 35.6081 132.072 35.5705C131.731 35.533 131.424 35.7788 131.386 36.1196C131.349 36.4603 131.595 36.767 131.936 36.8045C132.277 36.842 132.583 36.5962 132.621 36.2555Z" fill="#0A0A0A"/>
<path d="M119.932 34.57L119.595 36.9156C120.101 36.4272 120.788 36.1245 121.548 36.1178C121.737 36.1136 121.922 36.1364 122.101 36.1714C123.128 37.1872 122.149 38.7278 123.077 38.7809C123.605 38.8112 124.936 37.7056 125.307 36.9699C125.542 36.5034 124.438 34.4928 124.502 33.9741" fill="#0A0A0A"/>
<path d="M103.791 108.333L101.879 119.986H149.573L147.791 108.263L103.791 108.333Z" fill="#262626"/>
<path d="M127.727 60.3429C120.406 59.998 120.098 53.7869 120.098 53.7869C120.098 53.7869 116.47 54.0212 114.059 54.3472C110.111 54.8811 107.507 56.2193 105.434 58.2908C103.506 60.218 102.332 62.3031 103.574 75.6149C104.474 85.2536 103.791 108.333 103.791 108.333L147.79 108.262C147.79 108.262 151.896 78.6659 152.265 74.3271C152.97 66.044 151.468 59.0418 149.747 57.3222C146.21 53.7866 140.121 53.7866 137.08 53.7871C137.03 53.7871 137.697 60.8126 127.727 60.3429Z" fill="#F58634"/>
<path d="M180.056 44.8972L165.828 70.9655L148.85 56.5801L138.41 68.8908L162.947 89.6806L163.122 89.8313C163.611 90.2407 164.157 90.597 164.757 90.888C168.694 92.797 173.434 91.1549 175.344 87.2195L192.722 51.417L180.056 44.8972H180.056Z" fill="#F58634"/>
<path d="M108.043 97.585L110.722 119.56H94.5778L91.8852 96.2145C91.8752 95.2139 92.0541 94.2208 92.4068 93.2847L104.099 60.2925L119.447 65.509L108.043 97.585Z" fill="#F58634"/>
<path d="M110.599 119.575L107.917 97.5686L107.928 97.5393L115.307 78.822L115.538 78.9134L108.171 97.6011L110.846 119.545L110.599 119.575Z" fill="#0C0C0C"/>
<path d="M152.331 73.3498L151.44 80.4241L151.654 80.4509L152.544 73.3766L152.331 73.3498Z" fill="#0C0C0C"/>
<path d="M309.751 233H61.2486C61.1522 233 61.0742 232.922 61.0742 232.826C61.0742 232.729 61.1522 232.651 61.2486 232.651H309.75C309.847 232.651 309.925 232.729 309.925 232.826C309.925 232.922 309.847 233 309.751 233Z" fill="#292A2E"/>
<g opacity="0.65">
<path d="M309.751 233H61.2486C61.1522 233 61.0742 232.922 61.0742 232.826C61.0742 232.729 61.1522 232.651 61.2486 232.651H309.75C309.847 232.651 309.925 232.729 309.925 232.826C309.925 232.922 309.847 233 309.751 233Z" fill="#292A2E"/>
</g>
<path opacity="0.49" d="M141.933 114.033C148.358 114.033 153.566 108.827 153.566 102.406C153.566 95.9843 148.358 90.7786 141.933 90.7786C135.509 90.7786 130.301 95.9843 130.301 102.406C130.301 108.827 135.509 114.033 141.933 114.033Z" fill="white"/>
<path d="M141.933 111.016C146.69 111.016 150.547 107.161 150.547 102.406C150.547 97.6502 146.69 93.7952 141.933 93.7952C137.175 93.7952 133.318 97.6502 133.318 102.406C133.318 107.161 137.175 111.016 141.933 111.016Z" fill="white"/>
<path d="M147.739 105.239C147.946 105.378 148.009 105.656 147.88 105.87L147.316 106.809C147.166 107.063 146.925 107.25 146.642 107.331C145.704 107.587 143.638 107.639 140.325 104.328C137.012 101.017 137.064 98.9508 137.321 98.0143C137.402 97.7308 137.589 97.4892 137.842 97.3395L138.782 96.7759C138.997 96.6475 139.274 96.7098 139.413 96.9179L140.911 99.1644C141.047 99.3682 141.002 99.6426 140.809 99.7933L139.968 100.447C139.785 100.588 139.733 100.841 139.844 101.042C140.091 101.486 140.325 102.009 141.484 103.169C142.643 104.329 143.168 104.561 143.612 104.808C143.814 104.92 144.066 104.868 144.207 104.685L144.861 103.844C145.012 103.65 145.286 103.606 145.491 103.742L147.738 105.239L147.739 105.239Z" fill="#13524A"/>
<path d="M274.54 129.185C262.171 129.185 252.145 132.558 252.145 136.718V145.686H296.934V136.718C296.934 132.558 286.908 129.185 274.539 129.185H274.54Z" fill="#F58634"/>
<path opacity="0.49" d="M274.54 129.185C262.171 129.185 252.145 132.558 252.145 136.718V145.686H296.934V136.718C296.934 132.558 286.908 129.185 274.539 129.185H274.54Z" fill="white"/>
<path opacity="0.49" d="M290.833 136.719V145.686H252.144V136.719C252.144 132.905 260.563 129.755 271.488 129.257C282.413 129.755 290.833 132.905 290.833 136.719Z" fill="white"/>
<path d="M296.934 232.828H297.685L296.934 144.891L296.188 145.642L296.72 207.069L270.188 207.52L269.653 145.636L268.907 145.642L269.443 207.532L253.426 207.804L252.889 145.636L252.144 144.897L252.895 232.826L253.634 232.822L253.433 208.549L269.449 208.277L269.653 232.828L270.398 232.822L270.194 208.265L296.726 207.814L296.934 232.828Z" fill="#292A2E"/>
<path d="M228.513 219.66C228.513 219.66 227.181 226.561 220.717 226.945C214.253 227.33 215.655 232.477 215.655 232.477H240.356V220.141L228.513 219.66L228.513 219.66Z" fill="#F58634"/>
<path d="M242.606 198.904C242.606 198.904 244.458 205.684 238.828 208.881C233.198 212.078 236.729 216.078 236.729 216.078L258.894 205.18L253.446 194.111L242.606 198.904H242.606Z" fill="#F58634"/>
<path d="M240.261 203.385L223.56 140.398C222.292 133.439 224.2 130.423 227.139 127.493C232.302 122.345 253.697 111.389 253.697 111.389L279.364 111.319C286.169 111.319 292.86 118.027 292.86 124.83C292.86 131.632 285.941 137.401 279.136 137.401L247.529 140.554L256.097 198.227L240.261 203.385V203.385Z" fill="#262626"/>
<path d="M256.096 198.227L252.724 175.522L235.636 185.941L240.261 203.385L256.096 198.227Z" fill="#0C0C0C"/>
<path d="M259.97 124.135C259.97 124.135 249.181 126.539 238.495 137.22C232.016 143.696 232.547 155.415 233.519 177.955L244.132 162.286L255.773 141.301L259.97 124.135Z" fill="#0C0C0C"/>
<path d="M297.328 111.311L279.898 111.229L279.891 111.458H274.613C274.613 111.458 261.392 123.619 250.747 131.282C243.005 136.856 238.282 142.169 237.873 147.961C236.877 162.079 225.64 222.289 225.64 222.289L242.551 224.849L257.391 152.893C257.391 152.893 280.597 142.2 285.965 138.478C291.019 134.974 294.59 133.62 296.262 129.796C299.151 123.191 297.328 111.311 297.328 111.311V111.311Z" fill="#262626"/>
<path d="M263.632 58.0596C263.683 58.0529 264.245 67.3832 275.089 66.5698C282.596 66.0077 285.273 58.0464 285.445 58.0464C284.636 57.8744 283.635 57.6134 283.238 57.524C281.917 57.2266 280.268 56.1371 279.887 53.8427C279.668 52.5201 280.04 45.7543 279.925 44.4163L268.402 46.9873C268.563 49.8133 269.69 56.3648 265.74 57.5243C265.083 57.7159 264.375 57.8925 263.632 58.0598V58.0596Z" fill="#FF9E85"/>
<path opacity="0.22" d="M268.241 54.8463C268.404 54.3256 268.502 53.8727 268.588 53.0586C268.742 51.6027 268.66 50.2644 268.512 48.9006C270.84 48.591 273.075 47.6122 274.881 46.1116C275.095 46.9014 276.272 50.3528 275.946 51.1036C275.33 52.5226 272.436 54.8463 268.241 54.8463Z" fill="#0C0C0C"/>
<path d="M263.617 34.8538C263.617 34.8538 260.814 31.8361 261.011 26.0712C261.163 21.6075 264.68 25.1413 264.68 25.1413C264.68 25.1413 264.821 21.9283 267.053 22.6461C269.285 23.3636 269.981 26.8888 269.981 26.8888" fill="#0C0C0C"/>
<path d="M278.814 25.1135C278.814 25.1135 289.951 28.346 283.114 42.9941L282.098 42.8831L280.034 42.6577" fill="#0C0C0C"/>
<path d="M269.624 52.0251C274.171 52.4186 280.031 50.543 281.187 44.4836L282.231 39.0161C283.388 32.9567 281.142 27.4373 275.434 26.3486C269.726 25.2601 264.522 29.3585 263.365 35.418L262.903 37.8385C262.808 38.3368 262.69 39.2408 262.642 40.3608C262.548 42.5954 262.413 45.9945 263.496 48.5021C264.518 50.8698 266.718 51.7736 269.624 52.0251Z" fill="#FF9E85"/>
<path d="M267.642 45.8015C267.546 45.7953 267.475 45.8834 267.497 45.9765C267.777 47.1834 268.904 47.8816 270.163 47.6914C271.422 47.5012 272.352 46.4987 272.277 45.2682C272.271 45.1698 272.17 45.107 272.08 45.1455C271.791 45.2682 271.114 45.5015 269.838 45.685C268.741 45.8424 267.972 45.8231 267.642 45.8017V45.8015Z" fill="white"/>
<path d="M265.562 38.3217C265.576 37.9721 265.304 37.6775 264.954 37.6637C264.604 37.6498 264.31 37.9219 264.296 38.2714C264.282 38.6209 264.554 38.9155 264.904 38.9294C265.253 38.9433 265.548 38.6712 265.562 38.3217Z" fill="#0A0A0A"/>
<path d="M269.053 43.9118C269.181 43.9168 269.295 43.8244 269.314 43.6951C269.334 43.5565 269.238 43.4281 269.099 43.408L267.764 43.2146L268.695 40.5696C268.742 40.4375 268.673 40.293 268.54 40.2466C268.409 40.2002 268.264 40.2695 268.217 40.4013L267.183 43.337C267.158 43.4085 267.166 43.4875 267.206 43.5523C267.245 43.6171 267.311 43.661 267.386 43.672L269.027 43.9096C269.036 43.9108 269.044 43.9113 269.053 43.9118Z" fill="#0A0A0A"/>
<path d="M271.554 36.7842C271.485 36.9704 272.16 37.2796 273.115 37.5763C274.07 37.873 274.936 38.0939 275.011 37.8588C275.106 37.5619 274.415 36.8259 273.46 36.5292C272.505 36.2325 271.661 36.4915 271.554 36.7842Z" fill="#0A0A0A"/>
<path d="M272.682 38.9667C272.696 38.6172 272.424 38.3226 272.074 38.3087C271.724 38.2948 271.43 38.5669 271.416 38.9164C271.402 39.266 271.674 39.5606 272.024 39.5744C272.373 39.5883 272.668 39.3162 272.682 38.9667Z" fill="#0A0A0A"/>
<path d="M263.859 36.6114C263.872 36.8093 264.614 36.818 265.608 36.702C266.601 36.5861 267.482 36.4369 267.455 36.1916C267.421 35.8817 266.594 35.4718 265.601 35.5877C264.608 35.7037 263.838 36.3003 263.859 36.6114Z" fill="#0A0A0A"/>
<path d="M280.481 46.2621C282.215 46.5928 283.976 45.0062 284.306 43.2724C284.637 41.5387 283.414 40.3144 281.679 39.9834L280.564 40.9748L278.989 45.9778L280.481 46.2621Z" fill="#FF9E85"/>
<path d="M279.785 43.2091C279.49 43.1836 279.271 42.9263 279.295 42.6319C279.451 40.729 279.811 34.3158 277.674 33.4711C276.001 32.8094 271.353 34.5233 267.585 33.0875C265.937 32.4593 264.242 32.5937 263.934 33.37C263.812 33.6774 263.564 28.9051 266.854 25.9009C269.473 23.5089 276.574 23.963 279.58 25.4336C287.902 29.5055 281.97 40.4256 281.97 40.4256L281.182 42.9087C281.106 43.1485 280.874 43.3035 280.623 43.2816L279.785 43.2091Z" fill="#0C0C0C"/>
<path d="M272.878 27.0114C273.611 25.1884 273.2 23.3074 271.961 22.8102C270.722 22.3129 269.124 23.3876 268.391 25.2106C267.659 27.0336 268.07 28.9146 269.309 29.4118C270.548 29.9091 272.146 28.8344 272.878 27.0114Z" fill="#0C0C0C"/>
<path d="M250.667 78.091C251.002 82.0221 253.375 106.547 253.697 111.389H297.31C297.56 107.022 298.685 87.9261 299.636 79.3863C300.543 71.2373 301.814 67.5289 300.769 64.9964C298.927 60.53 293.061 58.5352 289.09 57.9977C286.665 57.6695 283.017 57.4343 283.017 57.4343C283.017 57.4343 282.708 63.6795 275.344 64.0271C265.318 64.4998 265.988 57.4343 265.938 57.4343C264.314 57.4343 255.474 58.6149 253.263 60.055C250.141 62.0889 249.218 64.8611 249.182 67.4077C249.14 70.34 250.287 73.6325 250.667 78.091Z" fill="#F58634"/>
<path d="M212.253 57.065C211.953 56.4738 211.216 56.2496 210.633 56.585C210.088 56.8994 209.923 57.6164 210.208 58.178L210.92 59.5784L206.643 56.1903C206.175 55.8052 205.353 55.6326 204.955 56.1868C204.605 56.6136 204.611 57.2142 204.935 57.6335C204.93 57.6378 204.924 57.641 204.921 57.6462C204.918 57.6499 204.917 57.6544 204.914 57.6581L204.191 57.0645C203.636 56.6089 202.786 56.7521 202.424 57.417C202.155 57.9111 202.312 58.5326 202.747 58.8896L203.055 59.1424C203.052 59.155 203.051 59.1682 203.052 59.1811C202.56 58.9373 201.943 59.0664 201.599 59.5332C201.225 60.0402 201.362 60.7629 201.849 61.1627L202.605 61.7836C202.572 61.7819 202.538 61.7938 202.515 61.8219C202.502 61.8385 202.496 61.8581 202.494 61.878C202.02 61.7884 201.508 61.9952 201.249 62.4731C200.98 62.9672 201.137 63.5887 201.572 63.9457L208.021 69.2397C209.866 70.7547 212.447 70.999 214.544 69.8569L217.845 68.0596L212.253 57.0647L212.253 57.065Z" fill="#E98862"/>
<g opacity="0.2">
<path d="M209.15 61.009C209.113 61.0537 209.047 61.0607 209.001 61.0244L204.938 57.7972C204.892 57.7602 204.884 57.6929 204.921 57.6463C204.952 57.5998 205.025 57.5921 205.072 57.6291L209.135 60.8563C209.181 60.8933 209.189 60.9606 209.152 61.0073L209.151 61.0093L209.15 61.009Z" fill="#0C0C0C"/>
</g>
<g opacity="0.2">
<path d="M207.776 62.8394C207.739 62.8841 207.673 62.8911 207.627 62.8548L203.092 59.2532C203.046 59.2162 203.038 59.1489 203.075 59.1022C203.109 59.06 203.18 59.0481 203.226 59.0851L207.761 62.6867C207.807 62.7237 207.815 62.791 207.778 62.8377L207.776 62.8397L207.776 62.8394Z" fill="#0C0C0C"/>
</g>
<g opacity="0.2">
<path d="M206.298 64.8307C206.261 64.8754 206.195 64.8823 206.149 64.8461L202.532 61.9732C202.485 61.9362 202.478 61.8689 202.515 61.8222C202.553 61.776 202.619 61.7681 202.666 61.8051L206.283 64.678C206.329 64.715 206.337 64.7823 206.3 64.8289L206.298 64.8309L206.298 64.8307Z" fill="#0C0C0C"/>
</g>
<path d="M274.018 120.512C273.373 120.664 272.98 121.326 273.168 121.971C273.344 122.576 274.002 122.906 274.615 122.762L276.145 122.403L271.837 125.752C271.352 126.116 270.989 126.873 271.434 127.39C271.765 127.832 272.35 127.968 272.835 127.754C272.838 127.759 272.84 127.766 272.844 127.77C272.847 127.774 272.851 127.776 272.854 127.779L272.106 128.341C271.531 128.771 271.469 129.631 272.029 130.14C272.446 130.519 273.087 130.513 273.537 130.176L273.856 129.937C273.867 129.943 273.88 129.947 273.893 129.949C273.539 130.369 273.518 130.999 273.89 131.443C274.294 131.927 275.029 131.965 275.533 131.587L276.316 131C276.306 131.032 276.31 131.068 276.332 131.097C276.345 131.114 276.362 131.124 276.381 131.131C276.182 131.569 276.261 132.115 276.664 132.481C277.08 132.86 277.722 132.854 278.172 132.517L284.847 127.511C286.757 126.078 287.607 123.63 286.995 121.323L286.031 117.691L274.018 120.513L274.018 120.512Z" fill="#E98862"/>
<g opacity="0.2">
<path d="M277.115 124.461C277.15 124.508 277.141 124.574 277.095 124.609L272.994 127.789C272.947 127.825 272.88 127.817 272.843 127.77C272.806 127.729 272.816 127.656 272.863 127.619L276.963 124.439C277.01 124.403 277.077 124.412 277.114 124.459L277.115 124.461V124.461Z" fill="#0C0C0C"/>
</g>
<g opacity="0.2">
<path d="M278.568 126.23C278.603 126.277 278.594 126.343 278.548 126.378L273.972 129.927C273.925 129.963 273.857 129.955 273.821 129.908C273.788 129.865 273.793 129.794 273.84 129.757L278.416 126.209C278.463 126.172 278.53 126.181 278.567 126.228L278.568 126.23V126.23Z" fill="#0C0C0C"/>
</g>
<g opacity="0.2">
<path d="M280.152 128.137C280.187 128.183 280.178 128.249 280.132 128.285L276.482 131.116C276.435 131.152 276.367 131.144 276.331 131.097C276.295 131.049 276.303 130.982 276.35 130.946L280 128.115C280.047 128.079 280.114 128.087 280.151 128.134L280.152 128.136V128.137Z" fill="#0C0C0C"/>
</g>
<path d="M315.221 95.0575L315.139 94.8882L300.633 64.9128L286.098 71.9403L298.111 96.7632L277.38 117.553L287.387 128.007L313.453 104.232C315.938 101.962 316.762 98.2423 315.221 95.0572L315.221 95.0575Z" fill="#F58634"/>
<path d="M283.526 111.513C283.494 111.513 283.462 111.501 283.437 111.476C283.389 111.427 283.389 111.349 283.438 111.301L298.207 96.7382L287.228 74.7284C287.197 74.6671 287.222 74.5926 287.284 74.5621C287.346 74.531 287.42 74.5566 287.45 74.6179L298.469 96.7084C298.493 96.7563 298.484 96.8144 298.445 96.8519L283.613 111.477C283.589 111.502 283.557 111.513 283.526 111.513V111.513Z" fill="#0C0C0C"/>
<path d="M252.17 60.8079L231.878 79.5239L216.942 60.8635L206.981 70.8766L223.661 93.9809C225.161 96.9782 228.392 98.7921 231.711 98.3167C232.957 98.1382 234.177 97.658 235.26 96.859L235.636 96.5812L262.858 73.8108L252.17 60.8084V60.8079Z" fill="#F58634"/>
<path d="M251.254 83.5254C251.192 83.5254 251.139 83.48 251.131 83.4176L250.188 76.341C250.178 76.273 250.226 76.2107 250.294 76.2015C250.362 76.194 250.425 76.2404 250.434 76.3082L251.377 83.3849C251.386 83.4529 251.338 83.5152 251.27 83.5244C251.265 83.5252 251.259 83.5254 251.254 83.5254Z" fill="#0C0C0C"/>
<path d="M234.384 83.2891C234.34 83.2891 234.298 83.2657 234.275 83.2248L231.77 79.5839C231.737 79.5241 231.759 79.4483 231.819 79.4153C231.879 79.3813 231.955 79.4039 231.988 79.464L234.493 83.1048C234.526 83.1647 234.504 83.2404 234.444 83.2734C234.425 83.2841 234.405 83.2888 234.384 83.2888V83.2891Z" fill="#0C0C0C"/>
<path d="M7.79025 144.524C5.47929 144.524 3.27633 143.466 1.8358 141.626C0.226 139.57 -0.203023 136.829 0.70198 134.382C1.12951 133.225 12.0914 105.003 13.9996 100.098L27.1913 107.754C26.1183 110.512 22.2308 120.966 19.1077 129.387L24.2963 128.824L25.9296 142.602L8.60817 144.48C8.33496 144.51 8.06196 144.524 7.79068 144.524L7.79025 144.524Z" fill="#13524A"/>
<path d="M50.9387 94.2293C50.8924 94.2234 49.623 98.988 39.7156 98.2465C32.8568 97.7341 31.1844 93.0779 31.0273 93.0779C31.7669 92.9212 32.9678 92.7583 33.296 92.5836C34.3761 92.0047 35.1628 91.3003 35.5588 89.7883C35.8685 88.6057 36.0262 84.0538 36.0262 81.77L46.5804 84.1353C46.4333 86.7115 45.4037 92.684 49.0124 93.741C49.6128 93.9158 50.2595 94.0765 50.9387 94.2293Z" fill="#FF9E85"/>
<path d="M46.2147 89.2001C42.054 89.5275 36.7091 87.7755 35.694 82.239L34.7779 77.2434C33.7628 71.7071 35.8551 66.6872 41.082 65.7337C46.3086 64.7805 51.0383 68.5559 52.0534 74.0924L52.459 76.304C52.8485 78.4283 53.6383 88.6157 46.2147 89.1999V89.2001Z" fill="#FF9E85"/>
<path d="M26.5218 93.8443C22.7829 94.1211 18.9705 94.5247 16.2192 97.0649C12.9059 100.124 12.3055 103.886 14.4193 114.238C16.238 123.145 15.5166 127.038 16.7332 143.475C16.7691 143.959 16.8459 144.96 16.8459 144.96L59.2282 144.891C59.2282 144.891 60.5898 123.087 62.6596 113.029C64.2331 105.382 68.366 96.0995 50.94 94.2286C50.8937 94.2237 36.9176 93.075 26.5218 93.8443Z" fill="#13524A"/>
<path d="M96.4085 103.823L91.3784 107.387L91.8181 106.667C92.0909 106.177 91.9675 105.535 91.4911 105.237C90.9831 104.921 90.3195 105.096 90.0325 105.612L86.5651 111.792C85.6547 113.415 86.2075 115.466 87.8111 116.414C89.6425 117.497 91.9494 117.364 93.6431 116.077L97.3882 113.221C97.7873 112.917 97.9476 112.37 97.7241 111.922C97.5083 111.489 97.0595 111.289 96.6351 111.353C96.6341 111.336 96.6311 111.319 96.6211 111.305C96.6023 111.277 96.5715 111.264 96.5402 111.263L97.2334 110.737C97.6575 110.414 97.8174 109.821 97.5487 109.362C97.2695 108.885 96.6919 108.725 96.2234 108.937C96.2251 108.925 96.2236 108.915 96.2215 108.904L96.5058 108.688C96.8759 108.407 97.0497 107.818 96.8471 107.4C96.5878 106.866 95.9765 106.677 95.4845 106.897L95.4742 106.88L97.5877 105.383C98.0426 105.061 98.1382 104.422 97.7871 103.98C97.458 103.566 96.8409 103.517 96.4089 103.823H96.4085Z" fill="#FF9E85"/>
<path opacity="0.2" d="M95.4958 107.014C95.4894 107.023 95.4813 107.031 95.4717 107.038L93.4019 108.468C93.3577 108.499 93.2969 108.488 93.2664 108.444C93.2356 108.4 93.2469 108.339 93.2909 108.308L95.3607 106.878C95.4049 106.847 95.4657 106.858 95.4962 106.902C95.5203 106.937 95.5186 106.982 95.4956 107.014H95.4958Z" fill="#0C0C0C"/>
<path opacity="0.2" d="M96.2091 108.979C96.2029 108.988 96.195 108.996 96.1857 109.002L94.5678 110.139C94.5238 110.17 94.4629 110.16 94.432 110.116C94.4008 110.072 94.4113 110.011 94.4555 109.981L96.0734 108.843C96.1174 108.813 96.1782 108.823 96.2091 108.867C96.2335 108.901 96.2322 108.946 96.2091 108.979Z" fill="#0C0C0C"/>
<path opacity="0.2" d="M96.6191 111.415C96.6125 111.424 96.6039 111.433 96.5937 111.44L95.817 111.959C95.7723 111.989 95.7117 111.977 95.6818 111.932C95.6515 111.888 95.6633 111.827 95.7085 111.797L96.4853 111.278C96.5299 111.248 96.5905 111.26 96.6204 111.305C96.6436 111.339 96.6417 111.383 96.6191 111.415V111.415Z" fill="#0C0C0C"/>
<path d="M66.2214 142.899C63.31 142.532 60.8716 140.951 59.9687 138.166L49.4707 105.785L63.8496 101.148L70.0117 122.868L85.0002 108.229L94.9544 118.377L73.5547 139.859C72.1609 142.069 68.5127 143.189 66.2214 142.899Z" fill="#13524A"/>
<path d="M16.8454 145.061C16.7914 145.061 16.7468 145.018 16.7446 144.964L15.4913 112.515C15.4894 112.459 15.5327 112.413 15.5882 112.41C15.6496 112.407 15.6906 112.452 15.6928 112.507L16.9461 144.957C16.948 145.012 16.9047 145.059 16.8492 145.061C16.8479 145.061 16.8464 145.061 16.8454 145.061Z" fill="#0C0C0C"/>
<path d="M52.2039 94.5125C52.1441 99.8025 48.1719 102.165 40.0098 102.717C31.8455 103.266 22.8425 100.241 24.1402 93.0117C25.455 85.6951 27.3846 83.462 27.8456 76.0709C27.8648 75.7303 27.884 75.3769 27.899 75.0129C28.2383 66.6277 34.3215 63.294 37.3289 62.8832C40.8657 62.3978 43.5295 62.9108 44.5711 63.3153C48.7162 64.6288 50.7225 67.6963 51.5038 69.7123C51.7513 70.3509 51.1324 70.9853 50.4835 70.7618C50.2231 70.6724 49.9392 70.5404 49.5806 70.3445C49.809 71.2194 50.0737 73.246 49.0662 75.0129C49.0385 76.8692 49.2071 78.6531 49.5849 80.8947C49.7194 81.7037 49.8816 82.5722 50.0715 83.5259C51.5059 90.7105 52.27 88.5839 52.2039 94.5125Z" fill="#0A0A0A"/>
<path d="M50.0749 80.9798C48.4864 81.2695 46.8882 79.8096 46.5977 78.2254C46.3072 76.6411 47.0312 75.0122 49.0647 75.0122L50.0749 80.9798Z" fill="#FF9E85"/>
<path d="M71.2943 127.429C71.2495 127.429 71.2085 127.399 71.1968 127.353L70.0081 122.786C69.9942 122.733 70.0267 122.678 70.0802 122.664C70.1347 122.65 70.1893 122.683 70.2032 122.736L71.3918 127.303C71.4057 127.356 71.3733 127.411 71.3197 127.425C71.3112 127.428 71.3026 127.428 71.2943 127.428V127.429Z" fill="#0C0C0C"/>
<path d="M45.0473 218.647L44.1641 232.512L63.1489 232.602C63.1489 232.602 64.1164 229.122 59.6672 227.636C57.1933 226.81 55.5786 224.034 56.0834 220.608L45.0473 218.647Z" fill="#383838"/>
<path opacity="0.17" d="M45.0473 218.647L44.1641 232.512L63.1489 232.602C63.1489 232.602 64.1164 229.122 59.6672 227.636C57.1933 226.81 55.5786 224.034 56.0834 220.608L45.0473 218.647Z" fill="#070707"/>
<path d="M70.6616 218.647L69.7783 232.512L88.7631 232.602C88.7631 232.602 89.7307 229.122 85.2814 227.636C82.8076 226.81 81.1929 224.034 81.6977 220.608L70.6618 218.647H70.6616Z" fill="#383838"/>
<path d="M63.1968 154.048L59.8648 225.093L42.7988 224.521L44.2575 153.413L63.1968 154.048Z" fill="#292A2E"/>
<path opacity="0.52" d="M63.1968 154.048L59.8648 225.093L42.7988 224.521L44.2575 153.413L63.1968 154.048Z" fill="white"/>
<path d="M67.345 224.685L84.4086 224.049L82.9226 155.915C82.9316 155.75 82.9378 155.585 82.9391 155.419C82.942 155.042 82.9237 154.67 82.8874 154.303L82.8855 154.215H82.8767C82.3173 149.021 77.9148 144.965 72.5494 144.954L31.8478 144.876L31.8467 144.848H16.8488C16.8488 144.848 15.3026 155.103 17.785 160.766C20.884 167.836 32.5526 165.927 32.5526 165.927L32.5455 165.719H64.0288L67.3446 224.685H67.345Z" fill="#292A2E"/>
<path opacity="0.64" d="M67.345 224.685L84.4086 224.049L82.9226 155.915C82.9316 155.75 82.9378 155.585 82.9391 155.419C82.942 155.042 82.9237 154.67 82.8874 154.303L82.8855 154.215H82.8767C82.3173 149.021 77.9148 144.965 72.5494 144.954L31.8478 144.876L31.8467 144.848H16.8488C16.8488 144.848 15.3026 155.103 17.785 160.766C20.884 167.836 32.5526 165.927 32.5526 165.927L32.5455 165.719H64.0288L67.3446 224.685H67.345Z" fill="white"/>
<path d="M89.0328 233L89.452 232.92L80.7657 167.985L80.3467 168.066L89.0328 233Z" fill="#494949"/>
<path d="M62.5021 233L62.9211 232.92L56.3694 167.985L55.9502 168.066L62.5021 233Z" fill="#494949"/>
<path d="M53.8143 139.435H12.1399C10.7306 139.435 9.53976 138.392 9.3577 136.998L6.60107 115.885C6.3825 114.21 7.68984 112.726 9.38331 112.726H51.0577C52.467 112.726 53.6578 113.768 53.8399 115.162L56.5965 136.276C56.8151 137.95 55.5077 139.435 53.8143 139.435Z" fill="white"/>
<path d="M53.8143 139.648H12.1399C10.6283 139.648 9.34123 138.521 9.14614 137.026L6.38951 115.913C6.27745 115.054 6.5417 114.188 7.1148 113.537C7.68789 112.886 8.51478 112.513 9.38328 112.513H51.0576C52.5692 112.513 53.8563 113.64 54.0514 115.135L56.808 136.248C56.9201 137.107 56.6558 137.973 56.0827 138.624C55.5097 139.275 54.6828 139.648 53.8143 139.648ZM9.38328 112.938C8.63751 112.938 7.92759 113.259 7.4356 113.818C6.9434 114.377 6.71651 115.12 6.81277 115.858L9.5694 136.971C9.73696 138.254 10.842 139.222 12.1399 139.222H53.8143C54.56 139.222 55.2699 138.902 55.7619 138.343C56.2541 137.784 56.481 137.041 56.3848 136.303L53.6281 115.19C53.4606 113.906 52.3556 112.938 51.0576 112.938H9.38328Z" fill="#292A2E"/>
<path d="M81.187 165.932H38.2164C37.057 165.932 36.1172 166.87 36.1172 168.026V168.026C36.1172 169.183 37.057 170.12 38.2164 170.12H81.187C82.3464 170.12 83.2862 169.183 83.2862 168.026V168.026C83.2862 166.87 82.3464 165.932 81.187 165.932Z" fill="white"/>
<path d="M81.1873 170.332H38.217C36.9416 170.332 35.9043 169.298 35.9043 168.026C35.9043 166.754 36.9419 165.719 38.217 165.719H81.1873C82.4627 165.719 83.5002 166.754 83.5002 168.026C83.5002 169.298 82.4627 170.332 81.1873 170.332ZM38.217 166.145C37.1771 166.145 36.3312 166.989 36.3312 168.026C36.3312 169.063 37.1771 169.907 38.217 169.907H81.1873C82.2272 169.907 83.0733 169.063 83.0733 168.026C83.0733 166.989 82.2272 166.145 81.1873 166.145H38.217Z" fill="#292A2E"/>
<path d="M8.57545 233L8.15625 232.92L14.7081 167.985L15.1273 168.066L8.57545 233Z" fill="#494949"/>
<path d="M32.971 233L32.5518 232.92L39.1036 167.985L39.5226 168.066L32.971 233Z" fill="#494949"/>
<path d="M53.8118 139.408L53.3887 139.464L57.2161 168.054L57.6393 167.998L53.8118 139.408Z" fill="#494949"/>
<path d="M9.88114 139.407L9.45801 139.464L13.2855 168.054L13.7086 167.998L9.88114 139.407Z" fill="#494949"/>
<path d="M57.603 165.932H14.6324C13.4731 165.932 12.5332 166.869 12.5332 168.026V168.026C12.5332 169.182 13.4731 170.12 14.6324 170.12H57.603C58.7624 170.12 59.7022 169.182 59.7022 168.026V168.026C59.7022 166.869 58.7624 165.932 57.603 165.932Z" fill="#292A2E"/>
<path opacity="0.8" d="M57.603 165.932H14.6324C13.4731 165.932 12.5332 166.869 12.5332 168.026V168.026C12.5332 169.182 13.4731 170.12 14.6324 170.12H57.603C58.7624 170.12 59.7022 169.182 59.7022 168.026V168.026C59.7022 166.869 58.7624 165.932 57.603 165.932Z" fill="white"/>
<path d="M57.6036 170.332H14.633C13.3577 170.332 12.3203 169.297 12.3203 168.026C12.3203 166.754 13.3577 165.719 14.633 165.719H57.6036C58.8789 165.719 59.9162 166.754 59.9162 168.026C59.9162 169.297 58.8787 170.332 57.6036 170.332ZM14.633 166.145C13.5931 166.145 12.7472 166.988 12.7472 168.026C12.7472 169.063 13.5931 169.906 14.633 169.906H57.6036C58.6435 169.906 59.4894 169.063 59.4894 168.026C59.4894 166.988 58.6435 166.145 57.6036 166.145H14.633Z" fill="#292A2E"/>
<path d="M51.4578 139.435H9.7835C8.37412 139.435 7.18332 138.392 7.00125 136.998L4.24462 115.885C4.02605 114.21 5.3334 112.726 7.02687 112.726H48.7012C50.1106 112.726 51.3014 113.768 51.4835 115.162L54.2401 136.276C54.4587 137.95 53.1513 139.435 51.4578 139.435Z" fill="#292A2E"/>
<path opacity="0.8" d="M51.4578 139.435H9.7835C8.37412 139.435 7.18332 138.392 7.00125 136.998L4.24462 115.885C4.02605 114.21 5.3334 112.726 7.02687 112.726H48.7012C50.1106 112.726 51.3014 113.768 51.4835 115.162L54.2401 136.276C54.4587 137.95 53.1513 139.435 51.4578 139.435Z" fill="white"/>
<path d="M51.4578 139.648H9.78347C8.27186 139.648 6.98479 138.521 6.7897 137.026L4.03307 115.913C3.92101 115.054 4.18525 114.188 4.75835 113.537C5.33145 112.886 6.15833 112.513 7.02684 112.513H48.7012C50.2128 112.513 51.4999 113.64 51.6949 115.135L54.4516 136.248C54.5636 137.107 54.2994 137.973 53.7263 138.624C53.1532 139.275 52.3263 139.648 51.4578 139.648ZM7.02684 112.938C6.28106 112.938 5.57115 113.259 5.07916 113.818C4.58695 114.377 4.36006 115.12 4.45654 115.858L7.21317 136.971C7.38073 138.254 8.48573 139.222 9.78368 139.222H51.458C52.2038 139.222 52.9137 138.902 53.4057 138.343C53.8979 137.784 54.1248 137.04 54.0285 136.303L51.2719 115.19C51.1044 113.906 49.9993 112.938 48.7014 112.938H7.02684V112.938Z" fill="#292A2E"/>
</g>
<defs>
<clipPath id="clip0_2006_609">
<rect width="316" height="233" fill="white"/>
</clipPath>
</defs>
</svg>
