<svg width="80" height="80" viewBox="0 0 80 80" fill="none" xmlns="http://www.w3.org/2000/svg">
<path d="M23.875 37.9583V48.3125C23.875 52.1042 23.875 52.1042 27.4583 54.5208L37.3125 60.2083C38.7917 61.0625 41.2083 61.0625 42.6875 60.2083L52.5417 54.5208C56.125 52.1042 56.125 52.1042 56.125 48.3125V37.9583C56.125 34.1667 56.125 34.1667 52.5417 31.75L42.6875 26.0625C41.2083 25.2083 38.7917 25.2083 37.3125 26.0625L27.4583 31.75C23.875 34.1667 23.875 34.1667 23.875 37.9583Z" stroke="white" stroke-width="2.5" stroke-linecap="round" stroke-linejoin="round"/>
<path d="M51.4584 30.8962V25.417C51.4584 21.2503 49.3751 19.167 45.2084 19.167H34.7917C30.6251 19.167 28.5417 21.2503 28.5417 25.417V30.7503" stroke="white" stroke-width="2.5" stroke-linecap="round" stroke-linejoin="round"/>
<path d="M41.3124 37.8955L42.4999 39.7497C42.6874 40.0413 43.1041 40.333 43.4166 40.4163L45.5416 40.958C46.8541 41.2913 47.2083 42.4163 46.3541 43.458L44.9583 45.1455C44.7499 45.4163 44.5833 45.8955 44.6041 46.2288L44.7291 48.4163C44.8124 49.7705 43.8541 50.458 42.6041 49.958L40.5625 49.1455C40.25 49.0205 39.7291 49.0205 39.4166 49.1455L37.3749 49.958C36.1249 50.458 35.1666 49.7497 35.2499 48.4163L35.3749 46.2288C35.3958 45.8955 35.2291 45.3955 35.0208 45.1455L33.6249 43.458C32.7708 42.4163 33.1249 41.2913 34.4374 40.958L36.5624 40.4163C36.8958 40.333 37.3124 40.0205 37.4791 39.7497L38.6666 37.8955C39.4166 36.7705 40.5833 36.7705 41.3124 37.8955Z" stroke="white" stroke-width="2.5" stroke-linecap="round" stroke-linejoin="round"/>
</svg>
