<svg width="32" height="32" viewBox="0 0 32 32" fill="none" xmlns="http://www.w3.org/2000/svg">
<path opacity="0.4" d="M25.6534 7.44H25.1201L20.6134 2.93333C20.2534 2.57333 19.6668 2.57333 19.2934 2.93333C18.9334 3.29333 18.9334 3.88 19.2934 4.25333L22.4801 7.44H9.52008L12.7067 4.25333C13.0667 3.89333 13.0667 3.30666 12.7067 2.93333C12.3467 2.57333 11.7601 2.57333 11.3868 2.93333L6.89342 7.44H6.36008C5.16008 7.44 2.66675 7.44 2.66675 10.8533C2.66675 12.1467 2.93341 13 3.49341 13.56C3.81341 13.8933 4.20008 14.0667 4.61342 14.16C5.00008 14.2533 5.41342 14.2667 5.81342 14.2667H26.1868C26.6001 14.2667 26.9868 14.24 27.3601 14.16C28.4801 13.8933 29.3334 13.0933 29.3334 10.8533C29.3334 7.44 26.8401 7.44 25.6534 7.44Z" fill="#F58634"/>
<path d="M26.2133 14.2667H5.81328C5.42661 14.2667 4.99995 14.2533 4.61328 14.1467L6.29328 24.4C6.67995 26.6933 7.67995 29.3333 12.1199 29.3333H19.5999C24.0933 29.3333 24.8933 27.08 25.3733 24.56L27.3866 14.1467C27.0133 14.24 26.6133 14.2667 26.2133 14.2667ZM19.8399 20.0667L15.5066 24.0667C15.3199 24.24 15.0666 24.3333 14.8266 24.3333C14.5733 24.3333 14.3199 24.24 14.1199 24.04L12.1199 22.04C11.7333 21.6533 11.7333 21.0133 12.1199 20.6267C12.5066 20.24 13.1466 20.24 13.5333 20.6267L14.8533 21.9467L18.4799 18.6C18.8799 18.2267 19.5199 18.2533 19.8933 18.6533C20.2799 19.0667 20.2533 19.6933 19.8399 20.0667Z" fill="#F58634"/>
</svg>
