<svg width="32" height="32" viewBox="0 0 32 32" fill="none" xmlns="http://www.w3.org/2000/svg">
<path opacity="0.4" d="M16.0001 7.06672V28.4401C15.7734 28.4401 15.5334 28.4001 15.3468 28.2934L15.2934 28.2667C12.7334 26.8667 8.26675 25.4001 5.37342 25.0134L4.98675 24.9601C3.70675 24.8001 2.66675 23.6 2.66675 22.3201V6.21338C2.66675 4.62671 3.96008 3.42672 5.54675 3.56005C8.34675 3.78672 12.5868 5.20005 14.9601 6.68005L15.2934 6.88005C15.4934 7.00005 15.7468 7.06672 16.0001 7.06672Z" fill="#F58634"/>
<path d="M29.3333 6.22666V22.32C29.3333 23.6 28.2933 24.8 27.0133 24.96L26.5733 25.0133C23.6667 25.4 19.1867 26.88 16.6267 28.2933C16.4533 28.4 16.24 28.44 16 28.44V7.06666C16.2533 7.06666 16.5067 7 16.7067 6.88L16.9333 6.73333C19.3067 5.24 23.56 3.81333 26.36 3.57333H26.44C28.0267 3.44 29.3333 4.62666 29.3333 6.22666Z" fill="#F58634"/>
<path d="M10.3333 12.3199H7.33325C6.78659 12.3199 6.33325 11.8666 6.33325 11.3199C6.33325 10.7733 6.78659 10.3199 7.33325 10.3199H10.3333C10.8799 10.3199 11.3333 10.7733 11.3333 11.3199C11.3333 11.8666 10.8799 12.3199 10.3333 12.3199Z" fill="#F58634"/>
<path d="M11.3333 16.3199H7.33325C6.78659 16.3199 6.33325 15.8666 6.33325 15.3199C6.33325 14.7733 6.78659 14.3199 7.33325 14.3199H11.3333C11.8799 14.3199 12.3333 14.7733 12.3333 15.3199C12.3333 15.8666 11.8799 16.3199 11.3333 16.3199Z" fill="#F58634"/>
</svg>
