<svg width="80" height="80" viewBox="0 0 80 80" fill="none" xmlns="http://www.w3.org/2000/svg">
<path d="M40.0001 52.9167C44.6025 52.9167 48.3334 49.1857 48.3334 44.5833C48.3334 39.981 44.6025 36.25 40.0001 36.25C35.3977 36.25 31.6667 39.981 31.6667 44.5833C31.6667 49.1857 35.3977 52.9167 40.0001 52.9167Z" stroke="white" stroke-width="2.5" stroke-miterlimit="10" stroke-linecap="round" stroke-linejoin="round"/>
<path d="M36.75 44.7917L38.1042 46.1458C38.5 46.5417 39.1458 46.5417 39.5417 46.1667L43.25 42.75" stroke="white" stroke-width="2.5" stroke-linecap="round" stroke-linejoin="round"/>
<path d="M31.6666 60.8333H48.3333C56.7083 60.8333 58.2083 57.4792 58.6458 53.3958L60.2083 36.7292C60.7708 31.6458 59.3125 27.5 50.4166 27.5H29.5833C20.6875 27.5 19.2291 31.6458 19.7916 36.7292L21.3541 53.3958C21.7916 57.4792 23.2916 60.8333 31.6666 60.8333Z" stroke="white" stroke-width="2.5" stroke-miterlimit="10" stroke-linecap="round" stroke-linejoin="round"/>
<path d="M31.6667 27.5003V25.8337C31.6667 22.1462 31.6667 19.167 38.3334 19.167H41.6667C48.3334 19.167 48.3334 22.1462 48.3334 25.8337V27.5003" stroke="white" stroke-width="2.5" stroke-miterlimit="10" stroke-linecap="round" stroke-linejoin="round"/>
<path d="M60.1042 37.917C56.5001 40.542 52.5001 42.3753 48.3542 43.417" stroke="white" stroke-width="2.5" stroke-miterlimit="10" stroke-linecap="round" stroke-linejoin="round"/>
<path d="M20.4583 38.4795C23.9374 40.8545 27.7291 42.542 31.6666 43.5003" stroke="white" stroke-width="2.5" stroke-miterlimit="10" stroke-linecap="round" stroke-linejoin="round"/>
</svg>
