<svg width="32" height="32" viewBox="0 0 32 32" fill="none" xmlns="http://www.w3.org/2000/svg">
<path d="M23.4934 14.3333C22.9201 14.3333 22.4667 13.8667 22.4667 13.3067C22.4667 12.8133 21.9734 11.7867 21.1467 10.8933C20.3334 10.0267 19.4401 9.52001 18.6934 9.52001C18.1201 9.52001 17.6667 9.05334 17.6667 8.49334C17.6667 7.93334 18.1334 7.46667 18.6934 7.46667C20.0267 7.46667 21.4267 8.18668 22.6534 9.48001C23.8001 10.6933 24.5334 12.2 24.5334 13.2933C24.5334 13.8667 24.0668 14.3333 23.4934 14.3333Z" fill="#F58634"/>
<path d="M28.3066 14.3333C27.7333 14.3333 27.2799 13.8666 27.2799 13.3066C27.2799 8.57329 23.4266 4.73329 18.7066 4.73329C18.1333 4.73329 17.6799 4.26663 17.6799 3.70663C17.6799 3.14663 18.1333 2.66663 18.6933 2.66663C24.5599 2.66663 29.3333 7.43996 29.3333 13.3066C29.3333 13.8666 28.8666 14.3333 28.3066 14.3333Z" fill="#F58634"/>
<path opacity="0.4" d="M15.7201 18.9466L11.3601 23.3066C10.8801 22.88 10.4134 22.44 9.96008 21.9866C8.58675 20.6 7.34675 19.1466 6.24008 17.6266C5.14675 16.1066 4.26675 14.5866 3.62675 13.08C2.98675 11.56 2.66675 10.1066 2.66675 8.71996C2.66675 7.81329 2.82675 6.94663 3.14675 6.14663C3.46675 5.33329 3.97342 4.58663 4.68008 3.91996C5.53342 3.07996 6.46675 2.66663 7.45342 2.66663C7.82675 2.66663 8.20008 2.74663 8.53342 2.90663C8.88008 3.06663 9.18675 3.30663 9.42675 3.65329L12.5201 8.01329C12.7601 8.34663 12.9334 8.65329 13.0534 8.94663C13.1734 9.22663 13.2401 9.50663 13.2401 9.75996C13.2401 10.08 13.1468 10.4 12.9601 10.7066C12.7868 11.0133 12.5334 11.3333 12.2134 11.6533L11.2001 12.7066C11.0534 12.8533 10.9867 13.0266 10.9867 13.24C10.9867 13.3466 11.0001 13.44 11.0268 13.5466C11.0668 13.6533 11.1068 13.7333 11.1334 13.8133C11.3734 14.2533 11.7867 14.8266 12.3734 15.52C12.9734 16.2133 13.6134 16.92 14.3068 17.6266C14.7867 18.0933 15.2534 18.5466 15.7201 18.9466Z" fill="#F58634"/>
<path d="M29.2934 24.44C29.2934 24.8133 29.2267 25.2 29.0934 25.5733C29.0534 25.68 29.0134 25.7866 28.96 25.8933C28.7334 26.3733 28.44 26.8266 28.0534 27.2533C27.4 27.9733 26.68 28.4933 25.8667 28.8266C25.8534 28.8266 25.84 28.84 25.8267 28.84C25.04 29.16 24.1867 29.3333 23.2667 29.3333C21.9067 29.3333 20.4534 29.0133 18.92 28.36C17.3867 27.7066 15.8534 26.8266 14.3334 25.72C13.8134 25.3333 13.2934 24.9466 12.8 24.5333L17.16 20.1733C17.5334 20.4533 17.8667 20.6666 18.1467 20.8133C18.2134 20.84 18.2934 20.88 18.3867 20.92C18.4934 20.96 18.6 20.9733 18.72 20.9733C18.9467 20.9733 19.12 20.8933 19.2667 20.7466L20.28 19.7466C20.6134 19.4133 20.9334 19.16 21.24 19C21.5467 18.8133 21.8534 18.72 22.1867 18.72C22.44 18.72 22.7067 18.7733 23 18.8933C23.2934 19.0133 23.6 19.1866 23.9334 19.4133L28.3467 22.5466C28.6934 22.7866 28.9334 23.0666 29.08 23.4C29.2134 23.7333 29.2934 24.0666 29.2934 24.44Z" fill="#F58634"/>
</svg>
