<svg width="32" height="32" viewBox="0 0 32 32" fill="none" xmlns="http://www.w3.org/2000/svg">
<path opacity="0.4" d="M23.2267 1.84006C22.9467 1.6534 22.6 1.61337 22.2933 1.73337C20.3867 2.49337 18.28 2.49337 16.3733 1.73337C16.0667 1.61337 15.72 1.6534 15.44 1.84006C15.16 2.02673 15 2.33339 15 2.66672V6.66672V10.6667C15 11.2134 15.4533 11.6667 16 11.6667C16.5467 11.6667 17 11.2134 17 10.6667V8.02675C17.7733 8.21342 18.5467 8.32004 19.3333 8.32004C20.5867 8.32004 21.84 8.08007 23.04 7.60007C23.4133 7.45341 23.6667 7.08006 23.6667 6.66672V2.66672C23.6667 2.33339 23.5067 2.02673 23.2267 1.84006Z" fill="#F58634"/>
<path d="M29.3334 28.3333H27.6668V14.6666C27.6668 11.44 25.8934 9.66663 22.6668 9.66663H9.33342C6.10675 9.66663 4.33342 11.44 4.33342 14.6666V28.3333H2.66675C2.12008 28.3333 1.66675 28.7866 1.66675 29.3333C1.66675 29.88 2.12008 30.3333 2.66675 30.3333H5.33342H26.6668H29.3334C29.8801 30.3333 30.3334 29.88 30.3334 29.3333C30.3334 28.7866 29.8801 28.3333 29.3334 28.3333ZM25.6668 17V28.3333H22.3201V17H25.6668ZM14.9868 28.3333H11.6534V17H14.9868V28.3333ZM16.9868 17H20.3201V28.3333H16.9868V17ZM6.33342 17H9.65342V28.3333H6.33342V17Z" fill="#F58634"/>
</svg>
