<svg width="68" height="70" viewBox="0 0 68 70" fill="none" xmlns="http://www.w3.org/2000/svg">
<path opacity="0.4" d="M63.5906 37.0705C68.5809 41.8474 68.5809 50.1527 63.5906 54.9297C56.7112 61.515 46.014 69.3334 34 69.3334C21.9859 69.3334 11.2887 61.515 4.40931 54.9297C-0.580935 50.1527 -0.580938 41.8474 4.40931 37.0705C11.2887 30.4851 21.9859 22.6667 34 22.6667C46.014 22.6667 56.7112 30.4851 63.5906 37.0705Z" fill="#13524A"/>
<circle cx="34" cy="46" r="10" fill="#13524A"/>
<path fill-rule="evenodd" clip-rule="evenodd" d="M34 0.166748C35.3807 0.166748 36.5 1.28604 36.5 2.66675V9.33341C36.5 10.7141 35.3807 11.8334 34 11.8334C32.6193 11.8334 31.5 10.7141 31.5 9.33341V2.66675C31.5 1.28604 32.6193 0.166748 34 0.166748Z" fill="#13524A"/>
<path fill-rule="evenodd" clip-rule="evenodd" d="M2.23223 10.899C3.20854 9.92267 4.79146 9.92267 5.76777 10.899L10.7678 15.899C11.7441 16.8753 11.7441 18.4582 10.7678 19.4345C9.79146 20.4108 8.20854 20.4108 7.23223 19.4345L2.23223 14.4345C1.25592 13.4582 1.25592 11.8753 2.23223 10.899ZM65.7678 10.899C66.7441 11.8753 66.7441 13.4582 65.7678 14.4345L60.7678 19.4345C59.7915 20.4108 58.2085 20.4108 57.2322 19.4345C56.2559 18.4582 56.2559 16.8753 57.2322 15.899L62.2322 10.899C63.2085 9.92267 64.7915 9.92267 65.7678 10.899Z" fill="#13524A"/>
</svg>
