<svg width="140" height="140" viewBox="0 0 140 140" fill="none" xmlns="http://www.w3.org/2000/svg">
<rect width="140" height="140" rx="20" fill="white"/>
<path opacity="0.4" d="M99.5906 71.0705C104.581 75.8474 104.581 84.1527 99.5906 88.9297C92.7112 95.515 82.014 103.333 70 103.333C57.9859 103.333 47.2887 95.515 40.4093 88.9297C35.4191 84.1527 35.4191 75.8474 40.4093 71.0705C47.2887 64.4851 57.9859 56.6667 70 56.6667C82.014 56.6667 92.7112 64.4851 99.5906 71.0705Z" fill="#13524A"/>
<circle cx="70" cy="80" r="10" fill="#13524A"/>
<path fill-rule="evenodd" clip-rule="evenodd" d="M70 34.1667C71.3807 34.1667 72.5 35.286 72.5 36.6667V43.3334C72.5 44.7141 71.3807 45.8334 70 45.8334C68.6193 45.8334 67.5 44.7141 67.5 43.3334V36.6667C67.5 35.286 68.6193 34.1667 70 34.1667Z" fill="#13524A"/>
<path fill-rule="evenodd" clip-rule="evenodd" d="M38.2322 44.899C39.2085 43.9227 40.7915 43.9227 41.7678 44.899L46.7678 49.899C47.7441 50.8753 47.7441 52.4582 46.7678 53.4345C45.7915 54.4108 44.2085 54.4108 43.2322 53.4345L38.2322 48.4345C37.2559 47.4582 37.2559 45.8753 38.2322 44.899ZM101.768 44.899C102.744 45.8753 102.744 47.4582 101.768 48.4345L96.7678 53.4345C95.7915 54.4108 94.2085 54.4108 93.2322 53.4345C92.2559 52.4582 92.2559 50.8753 93.2322 49.899L98.2322 44.899C99.2085 43.9227 100.791 43.9227 101.768 44.899Z" fill="#13524A"/>
</svg>
