<svg width="50" height="50" viewBox="0 0 50 50" fill="none" xmlns="http://www.w3.org/2000/svg">
<rect width="50" height="50" rx="10" fill="#F58634"/>
<path opacity="0.4" d="M32.8558 8.12752C32.5321 7.91169 32.1312 7.86541 31.7767 8.00416C29.5721 8.88291 27.1362 8.88291 24.9317 8.00416C24.5771 7.86541 24.1762 7.91169 23.8525 8.12752C23.5287 8.34336 23.3438 8.69793 23.3438 9.08335V13.7083V18.3333C23.3438 18.9654 23.8679 19.4896 24.5 19.4896C25.1321 19.4896 25.6562 18.9654 25.6562 18.3333V15.2809C26.5504 15.4967 27.4446 15.62 28.3542 15.62C29.8033 15.62 31.2525 15.3425 32.64 14.7875C33.0717 14.618 33.3646 14.1863 33.3646 13.7083V9.08335C33.3646 8.69793 33.1796 8.34336 32.8558 8.12752Z" fill="white"/>
<path d="M39.9168 38.7604H37.9898V22.9583C37.9898 19.2275 35.9393 17.1771 32.2085 17.1771H16.7918C13.061 17.1771 11.0106 19.2275 11.0106 22.9583V38.7604H9.0835C8.45141 38.7604 7.92725 39.2846 7.92725 39.9167C7.92725 40.5487 8.45141 41.0729 9.0835 41.0729H12.1668H36.8335H39.9168C40.5489 41.0729 41.0731 40.5487 41.0731 39.9167C41.0731 39.2846 40.5489 38.7604 39.9168 38.7604ZM35.6773 25.6562V38.7604H31.8077V25.6562H35.6773ZM23.3285 38.7604H19.4743V25.6562H23.3285V38.7604ZM25.641 25.6562H29.4952V38.7604H25.641V25.6562ZM13.3231 25.6562H17.1618V38.7604H13.3231V25.6562Z" fill="white"/>
</svg>
