<svg width="140" height="140" viewBox="0 0 140 140" fill="none" xmlns="http://www.w3.org/2000/svg">
<rect width="140" height="140" rx="20" fill="#EEEEEF"/>
<path opacity="0.4" d="M94.2844 38.5399L105.973 51.8552C107.9 54.0509 108.017 57.335 106.245 59.6668L74.7507 101.126C72.3466 104.291 67.6534 104.291 65.2493 101.126L33.7546 59.6668C31.9832 57.335 32.0998 54.0509 34.0272 51.8552L45.7156 38.5399C46.8588 37.2376 48.4896 36.5 50.1937 36.5H62.4398H78.5053H89.8063C91.5104 36.5 93.1412 37.2376 94.2844 38.5399L96.1633 36.8907L94.2844 38.5399Z" stroke="#363636" stroke-width="5" stroke-linecap="round" stroke-linejoin="round"/>
<path d="M79 36.5L85.681 52.1631C86.5316 54.1573 86.6338 56.3916 85.9687 58.4551L71.9036 102.094C71.3077 103.943 68.6923 103.943 68.0964 102.094L54.0666 58.5646C53.3802 56.4351 53.5117 54.1264 54.4352 52.0886L61.5 36.5" stroke="#212121" stroke-width="5" stroke-linecap="round" stroke-linejoin="round"/>
<path d="M32 56L108 56.0136" stroke="#212121" stroke-width="5" stroke-linecap="round"/>
</svg>
