<svg width="350" height="156" viewBox="0 0 350 156" fill="none" xmlns="http://www.w3.org/2000/svg">
<g clip-path="url(#clip0_1148_1387)">
<path d="M0 0H320C336.569 0 350 13.4315 350 30V156H30C13.4315 156 0 142.569 0 126V0Z" fill="white"/>
<path d="M183.617 57V42.195H190.043C191.135 42.195 192.059 42.377 192.815 42.741C193.571 43.105 194.145 43.63 194.537 44.316C194.929 45.002 195.125 45.835 195.125 46.815C195.125 47.781 194.929 48.614 194.537 49.314C194.145 50 193.571 50.532 192.815 50.91C192.059 51.274 191.135 51.456 190.043 51.456H186.305V57H183.617ZM186.305 49.335H189.623C190.575 49.335 191.296 49.125 191.786 48.705C192.276 48.271 192.521 47.641 192.521 46.815C192.521 45.989 192.276 45.366 191.786 44.946C191.296 44.526 190.575 44.316 189.623 44.316H186.305V49.335ZM199.953 57.21C199.211 57.21 198.546 57.07 197.958 56.79C197.384 56.496 196.929 56.104 196.593 55.614C196.271 55.124 196.11 54.571 196.11 53.955C196.11 53.199 196.306 52.604 196.698 52.17C197.09 51.722 197.727 51.4 198.609 51.204C199.491 51.008 200.674 50.91 202.158 50.91H203.208V52.422H202.179C201.521 52.422 200.968 52.45 200.52 52.506C200.072 52.548 199.708 52.625 199.428 52.737C199.162 52.835 198.966 52.975 198.84 53.157C198.728 53.339 198.672 53.563 198.672 53.829C198.672 54.291 198.833 54.669 199.155 54.963C199.477 55.257 199.925 55.404 200.499 55.404C200.961 55.404 201.367 55.299 201.717 55.089C202.081 54.865 202.368 54.564 202.578 54.186C202.788 53.808 202.893 53.374 202.893 52.884V50.469C202.893 49.769 202.739 49.265 202.431 48.957C202.123 48.649 201.605 48.495 200.877 48.495C200.303 48.495 199.715 48.586 199.113 48.768C198.511 48.936 197.902 49.202 197.286 49.566L196.53 47.781C196.894 47.529 197.321 47.312 197.811 47.13C198.315 46.934 198.84 46.787 199.386 46.689C199.946 46.577 200.471 46.521 200.961 46.521C201.969 46.521 202.795 46.675 203.439 46.983C204.097 47.291 204.587 47.76 204.909 48.39C205.231 49.006 205.392 49.804 205.392 50.784V57H202.935V54.816H203.103C203.005 55.306 202.809 55.733 202.515 56.097C202.235 56.447 201.878 56.72 201.444 56.916C201.01 57.112 200.513 57.21 199.953 57.21ZM208.056 57V46.731H210.618V49.209H210.408C210.604 48.369 210.989 47.732 211.563 47.298C212.137 46.85 212.9 46.591 213.852 46.521L214.65 46.458L214.818 48.684L213.306 48.831C212.452 48.915 211.808 49.181 211.374 49.629C210.94 50.063 210.723 50.679 210.723 51.477V57H208.056ZM221.579 57.21C220.207 57.21 219.185 56.867 218.513 56.181C217.841 55.495 217.505 54.494 217.505 53.178V48.705H215.531V46.731H217.505V43.665H220.13V46.731H223.238V48.705H220.13V53.031C220.13 53.703 220.277 54.207 220.571 54.543C220.865 54.879 221.341 55.047 221.999 55.047C222.195 55.047 222.398 55.026 222.608 54.984C222.818 54.928 223.035 54.872 223.259 54.816L223.658 56.748C223.406 56.888 223.084 57 222.692 57.084C222.314 57.168 221.943 57.21 221.579 57.21ZM224.766 44.526V41.964H227.706V44.526H224.766ZM224.934 57V46.731H227.559V57H224.934ZM235.033 57.21C233.955 57.21 233.017 56.993 232.219 56.559C231.421 56.111 230.805 55.481 230.371 54.669C229.937 53.857 229.72 52.905 229.72 51.813C229.72 50.721 229.937 49.783 230.371 48.999C230.805 48.201 231.421 47.592 232.219 47.172C233.017 46.738 233.955 46.521 235.033 46.521C235.691 46.521 236.342 46.626 236.986 46.836C237.63 47.046 238.162 47.34 238.582 47.718L237.805 49.545C237.441 49.223 237.028 48.978 236.566 48.81C236.118 48.642 235.684 48.558 235.264 48.558C234.354 48.558 233.647 48.845 233.143 49.419C232.653 49.979 232.408 50.784 232.408 51.834C232.408 52.87 232.653 53.689 233.143 54.291C233.647 54.879 234.354 55.173 235.264 55.173C235.67 55.173 236.104 55.089 236.566 54.921C237.028 54.753 237.441 54.501 237.805 54.165L238.582 56.013C238.162 56.377 237.623 56.671 236.965 56.895C236.321 57.105 235.677 57.21 235.033 57.21ZM240.024 44.526V41.964H242.964V44.526H240.024ZM240.192 57V46.731H242.817V57H240.192ZM245.545 60.78V46.731H248.107V48.894H247.897C248.107 48.18 248.534 47.606 249.178 47.172C249.836 46.738 250.599 46.521 251.467 46.521C252.363 46.521 253.147 46.738 253.819 47.172C254.505 47.606 255.037 48.222 255.415 49.02C255.793 49.804 255.982 50.749 255.982 51.855C255.982 52.947 255.793 53.899 255.415 54.711C255.037 55.509 254.512 56.125 253.84 56.559C253.168 56.993 252.377 57.21 251.467 57.21C250.613 57.21 249.864 57 249.22 56.58C248.576 56.146 248.142 55.586 247.918 54.9H248.17V60.78H245.545ZM250.732 55.215C251.516 55.215 252.146 54.935 252.622 54.375C253.098 53.801 253.336 52.961 253.336 51.855C253.336 50.735 253.098 49.902 252.622 49.356C252.146 48.796 251.516 48.516 250.732 48.516C249.948 48.516 249.318 48.796 248.842 49.356C248.366 49.902 248.128 50.735 248.128 51.855C248.128 52.961 248.366 53.801 248.842 54.375C249.318 54.935 249.948 55.215 250.732 55.215ZM261.517 57.21C260.775 57.21 260.11 57.07 259.522 56.79C258.948 56.496 258.493 56.104 258.157 55.614C257.835 55.124 257.674 54.571 257.674 53.955C257.674 53.199 257.87 52.604 258.262 52.17C258.654 51.722 259.291 51.4 260.173 51.204C261.055 51.008 262.238 50.91 263.722 50.91H264.772V52.422H263.743C263.085 52.422 262.532 52.45 262.084 52.506C261.636 52.548 261.272 52.625 260.992 52.737C260.726 52.835 260.53 52.975 260.404 53.157C260.292 53.339 260.236 53.563 260.236 53.829C260.236 54.291 260.397 54.669 260.719 54.963C261.041 55.257 261.489 55.404 262.063 55.404C262.525 55.404 262.931 55.299 263.281 55.089C263.645 54.865 263.932 54.564 264.142 54.186C264.352 53.808 264.457 53.374 264.457 52.884V50.469C264.457 49.769 264.303 49.265 263.995 48.957C263.687 48.649 263.169 48.495 262.441 48.495C261.867 48.495 261.279 48.586 260.677 48.768C260.075 48.936 259.466 49.202 258.85 49.566L258.094 47.781C258.458 47.529 258.885 47.312 259.375 47.13C259.879 46.934 260.404 46.787 260.95 46.689C261.51 46.577 262.035 46.521 262.525 46.521C263.533 46.521 264.359 46.675 265.003 46.983C265.661 47.291 266.151 47.76 266.473 48.39C266.795 49.006 266.956 49.804 266.956 50.784V57H264.499V54.816H264.667C264.569 55.306 264.373 55.733 264.079 56.097C263.799 56.447 263.442 56.72 263.008 56.916C262.574 57.112 262.077 57.21 261.517 57.21ZM274.367 57.21C273.289 57.21 272.351 56.993 271.553 56.559C270.755 56.111 270.139 55.481 269.705 54.669C269.271 53.857 269.054 52.905 269.054 51.813C269.054 50.721 269.271 49.783 269.705 48.999C270.139 48.201 270.755 47.592 271.553 47.172C272.351 46.738 273.289 46.521 274.367 46.521C275.025 46.521 275.676 46.626 276.32 46.836C276.964 47.046 277.496 47.34 277.916 47.718L277.139 49.545C276.775 49.223 276.362 48.978 275.9 48.81C275.452 48.642 275.018 48.558 274.598 48.558C273.688 48.558 272.981 48.845 272.477 49.419C271.987 49.979 271.742 50.784 271.742 51.834C271.742 52.87 271.987 53.689 272.477 54.291C272.981 54.879 273.688 55.173 274.598 55.173C275.004 55.173 275.438 55.089 275.9 54.921C276.362 54.753 276.775 54.501 277.139 54.165L277.916 56.013C277.496 56.377 276.957 56.671 276.299 56.895C275.655 57.105 275.011 57.21 274.367 57.21ZM274.22 61.095C273.814 61.095 273.422 61.053 273.044 60.969C272.666 60.899 272.344 60.794 272.078 60.654L272.456 59.478C272.708 59.59 272.953 59.674 273.191 59.73C273.443 59.8 273.716 59.835 274.01 59.835C274.374 59.835 274.654 59.779 274.85 59.667C275.046 59.569 275.144 59.415 275.144 59.205C275.144 59.051 275.081 58.932 274.955 58.848C274.843 58.764 274.647 58.722 274.367 58.722C274.227 58.722 274.094 58.729 273.968 58.743C273.842 58.757 273.688 58.792 273.506 58.848L273.107 58.47L273.38 56.58H274.787L274.514 58.176L273.842 57.945C274.01 57.889 274.178 57.847 274.346 57.819C274.514 57.791 274.668 57.777 274.808 57.777C275.2 57.777 275.536 57.833 275.816 57.945C276.096 58.071 276.313 58.246 276.467 58.47C276.635 58.694 276.719 58.967 276.719 59.289C276.719 59.653 276.614 59.968 276.404 60.234C276.194 60.514 275.9 60.724 275.522 60.864C275.144 61.018 274.71 61.095 274.22 61.095ZM282.846 57.21C282.104 57.21 281.439 57.07 280.851 56.79C280.277 56.496 279.822 56.104 279.486 55.614C279.164 55.124 279.003 54.571 279.003 53.955C279.003 53.199 279.199 52.604 279.591 52.17C279.983 51.722 280.62 51.4 281.502 51.204C282.384 51.008 283.567 50.91 285.051 50.91H286.101V52.422H285.072C284.414 52.422 283.861 52.45 283.413 52.506C282.965 52.548 282.601 52.625 282.321 52.737C282.055 52.835 281.859 52.975 281.733 53.157C281.621 53.339 281.565 53.563 281.565 53.829C281.565 54.291 281.726 54.669 282.048 54.963C282.37 55.257 282.818 55.404 283.392 55.404C283.854 55.404 284.26 55.299 284.61 55.089C284.974 54.865 285.261 54.564 285.471 54.186C285.681 53.808 285.786 53.374 285.786 52.884V50.469C285.786 49.769 285.632 49.265 285.324 48.957C285.016 48.649 284.498 48.495 283.77 48.495C283.196 48.495 282.608 48.586 282.006 48.768C281.404 48.936 280.795 49.202 280.179 49.566L279.423 47.781C279.787 47.529 280.214 47.312 280.704 47.13C281.208 46.934 281.733 46.787 282.279 46.689C282.839 46.577 283.364 46.521 283.854 46.521C284.862 46.521 285.688 46.675 286.332 46.983C286.99 47.291 287.48 47.76 287.802 48.39C288.124 49.006 288.285 49.804 288.285 50.784V57H285.828V54.816H285.996C285.898 55.306 285.702 55.733 285.408 56.097C285.128 56.447 284.771 56.72 284.337 56.916C283.903 57.112 283.406 57.21 282.846 57.21ZM281.187 44.736L279.885 44.652C279.955 43.686 280.214 42.93 280.662 42.384C281.11 41.824 281.691 41.544 282.405 41.544C282.727 41.544 283.014 41.614 283.266 41.754C283.532 41.88 283.833 42.069 284.169 42.321C284.477 42.545 284.722 42.706 284.904 42.804C285.086 42.888 285.268 42.93 285.45 42.93C285.814 42.93 286.101 42.811 286.311 42.573C286.521 42.321 286.661 41.95 286.731 41.46L288.033 41.544C287.977 42.51 287.725 43.273 287.277 43.833C286.829 44.379 286.248 44.652 285.534 44.652C285.24 44.652 284.96 44.596 284.694 44.484C284.442 44.372 284.127 44.169 283.749 43.875C283.469 43.651 283.238 43.497 283.056 43.413C282.874 43.315 282.685 43.266 282.489 43.266C282.139 43.266 281.852 43.385 281.628 43.623C281.418 43.861 281.271 44.232 281.187 44.736ZM295.632 57.21C294.568 57.21 293.644 56.993 292.86 56.559C292.076 56.125 291.467 55.509 291.033 54.711C290.599 53.899 290.382 52.947 290.382 51.855C290.382 50.763 290.599 49.818 291.033 49.02C291.467 48.222 292.076 47.606 292.86 47.172C293.644 46.738 294.568 46.521 295.632 46.521C296.696 46.521 297.62 46.738 298.404 47.172C299.188 47.606 299.797 48.222 300.231 49.02C300.665 49.818 300.882 50.763 300.882 51.855C300.882 52.947 300.665 53.899 300.231 54.711C299.797 55.509 299.188 56.125 298.404 56.559C297.62 56.993 296.696 57.21 295.632 57.21ZM295.632 55.215C296.416 55.215 297.046 54.935 297.522 54.375C297.998 53.801 298.236 52.961 298.236 51.855C298.236 50.735 297.998 49.902 297.522 49.356C297.046 48.796 296.416 48.516 295.632 48.516C294.848 48.516 294.218 48.796 293.742 49.356C293.266 49.902 293.028 50.735 293.028 51.855C293.028 52.961 293.266 53.801 293.742 54.375C294.218 54.935 294.848 55.215 295.632 55.215ZM183.617 86V71.195H193.466V73.337H186.2V77.411H193.004V79.553H186.2V83.858H193.466V86H183.617ZM200.58 86.21C199.502 86.21 198.564 85.993 197.766 85.559C196.968 85.111 196.352 84.481 195.918 83.669C195.484 82.857 195.267 81.905 195.267 80.813C195.267 79.721 195.484 78.783 195.918 77.999C196.352 77.201 196.968 76.592 197.766 76.172C198.564 75.738 199.502 75.521 200.58 75.521C201.238 75.521 201.889 75.626 202.533 75.836C203.177 76.046 203.709 76.34 204.129 76.718L203.352 78.545C202.988 78.223 202.575 77.978 202.113 77.81C201.665 77.642 201.231 77.558 200.811 77.558C199.901 77.558 199.194 77.845 198.69 78.419C198.2 78.979 197.955 79.784 197.955 80.834C197.955 81.87 198.2 82.689 198.69 83.291C199.194 83.879 199.901 84.173 200.811 84.173C201.217 84.173 201.651 84.089 202.113 83.921C202.575 83.753 202.988 83.501 203.352 83.165L204.129 85.013C203.709 85.377 203.17 85.671 202.512 85.895C201.868 86.105 201.224 86.21 200.58 86.21ZM210.217 86.21C209.153 86.21 208.229 85.993 207.445 85.559C206.661 85.125 206.052 84.509 205.618 83.711C205.184 82.899 204.967 81.947 204.967 80.855C204.967 79.763 205.184 78.818 205.618 78.02C206.052 77.222 206.661 76.606 207.445 76.172C208.229 75.738 209.153 75.521 210.217 75.521C211.281 75.521 212.205 75.738 212.989 76.172C213.773 76.606 214.382 77.222 214.816 78.02C215.25 78.818 215.467 79.763 215.467 80.855C215.467 81.947 215.25 82.899 214.816 83.711C214.382 84.509 213.773 85.125 212.989 85.559C212.205 85.993 211.281 86.21 210.217 86.21ZM210.217 84.215C211.001 84.215 211.631 83.935 212.107 83.375C212.583 82.801 212.821 81.961 212.821 80.855C212.821 79.735 212.583 78.902 212.107 78.356C211.631 77.796 211.001 77.516 210.217 77.516C209.433 77.516 208.803 77.796 208.327 78.356C207.851 78.902 207.613 79.735 207.613 80.855C207.613 81.961 207.851 82.801 208.327 83.375C208.803 83.935 209.433 84.215 210.217 84.215ZM217.634 86V75.731H220.196V77.789H219.965C220.273 77.047 220.749 76.487 221.393 76.109C222.051 75.717 222.793 75.521 223.619 75.521C224.445 75.521 225.124 75.675 225.656 75.983C226.188 76.291 226.587 76.76 226.853 77.39C227.119 78.006 227.252 78.79 227.252 79.742V86H224.627V79.868C224.627 79.336 224.557 78.902 224.417 78.566C224.291 78.23 224.088 77.985 223.808 77.831C223.542 77.663 223.199 77.579 222.779 77.579C222.275 77.579 221.834 77.691 221.456 77.915C221.078 78.125 220.784 78.433 220.574 78.839C220.364 79.231 220.259 79.693 220.259 80.225V86H217.634ZM234.601 86.21C233.537 86.21 232.613 85.993 231.829 85.559C231.045 85.125 230.436 84.509 230.002 83.711C229.568 82.899 229.351 81.947 229.351 80.855C229.351 79.763 229.568 78.818 230.002 78.02C230.436 77.222 231.045 76.606 231.829 76.172C232.613 75.738 233.537 75.521 234.601 75.521C235.665 75.521 236.589 75.738 237.373 76.172C238.157 76.606 238.766 77.222 239.2 78.02C239.634 78.818 239.851 79.763 239.851 80.855C239.851 81.947 239.634 82.899 239.2 83.711C238.766 84.509 238.157 85.125 237.373 85.559C236.589 85.993 235.665 86.21 234.601 86.21ZM234.601 84.215C235.385 84.215 236.015 83.935 236.491 83.375C236.967 82.801 237.205 81.961 237.205 80.855C237.205 79.735 236.967 78.902 236.491 78.356C236.015 77.796 235.385 77.516 234.601 77.516C233.817 77.516 233.187 77.796 232.711 78.356C232.235 78.902 231.997 79.735 231.997 80.855C231.997 81.961 232.235 82.801 232.711 83.375C233.187 83.935 233.817 84.215 234.601 84.215ZM231.136 74.366L233.446 70.103H235.756L238.066 74.366H236.386L234.601 71.594L232.816 74.366H231.136ZM242.059 86V75.731H244.621V77.789H244.39C244.572 77.313 244.824 76.907 245.146 76.571C245.468 76.235 245.853 75.976 246.301 75.794C246.749 75.612 247.246 75.521 247.792 75.521C248.618 75.521 249.297 75.717 249.829 76.109C250.361 76.501 250.732 77.103 250.942 77.915H250.648C250.928 77.173 251.39 76.592 252.034 76.172C252.678 75.738 253.42 75.521 254.26 75.521C255.044 75.521 255.688 75.675 256.192 75.983C256.71 76.291 257.095 76.76 257.347 77.39C257.599 78.006 257.725 78.79 257.725 79.742V86H255.1V79.847C255.1 79.063 254.967 78.489 254.701 78.125C254.449 77.761 254.015 77.579 253.399 77.579C252.951 77.579 252.559 77.691 252.223 77.915C251.887 78.125 251.628 78.433 251.446 78.839C251.278 79.245 251.194 79.735 251.194 80.309V86H248.569V79.847C248.569 79.063 248.436 78.489 248.17 78.125C247.918 77.761 247.491 77.579 246.889 77.579C246.427 77.579 246.028 77.691 245.692 77.915C245.37 78.125 245.118 78.433 244.936 78.839C244.768 79.245 244.684 79.735 244.684 80.309V86H242.059ZM260.265 73.526V70.964H263.205V73.526H260.265ZM260.433 86V75.731H263.058V86H260.433ZM270.532 86.21C269.454 86.21 268.516 85.993 267.718 85.559C266.92 85.111 266.304 84.481 265.87 83.669C265.436 82.857 265.219 81.905 265.219 80.813C265.219 79.721 265.436 78.783 265.87 77.999C266.304 77.201 266.92 76.592 267.718 76.172C268.516 75.738 269.454 75.521 270.532 75.521C271.19 75.521 271.841 75.626 272.485 75.836C273.129 76.046 273.661 76.34 274.081 76.718L273.304 78.545C272.94 78.223 272.527 77.978 272.065 77.81C271.617 77.642 271.183 77.558 270.763 77.558C269.853 77.558 269.146 77.845 268.642 78.419C268.152 78.979 267.907 79.784 267.907 80.834C267.907 81.87 268.152 82.689 268.642 83.291C269.146 83.879 269.853 84.173 270.763 84.173C271.169 84.173 271.603 84.089 272.065 83.921C272.527 83.753 272.94 83.501 273.304 83.165L274.081 85.013C273.661 85.377 273.122 85.671 272.464 85.895C271.82 86.105 271.176 86.21 270.532 86.21ZM279.011 86.21C278.269 86.21 277.604 86.07 277.016 85.79C276.442 85.496 275.987 85.104 275.651 84.614C275.329 84.124 275.168 83.571 275.168 82.955C275.168 82.199 275.364 81.604 275.756 81.17C276.148 80.722 276.785 80.4 277.667 80.204C278.549 80.008 279.732 79.91 281.216 79.91H282.266V81.422H281.237C280.579 81.422 280.026 81.45 279.578 81.506C279.13 81.548 278.766 81.625 278.486 81.737C278.22 81.835 278.024 81.975 277.898 82.157C277.786 82.339 277.73 82.563 277.73 82.829C277.73 83.291 277.891 83.669 278.213 83.963C278.535 84.257 278.983 84.404 279.557 84.404C280.019 84.404 280.425 84.299 280.775 84.089C281.139 83.865 281.426 83.564 281.636 83.186C281.846 82.808 281.951 82.374 281.951 81.884V79.469C281.951 78.769 281.797 78.265 281.489 77.957C281.181 77.649 280.663 77.495 279.935 77.495C279.361 77.495 278.773 77.586 278.171 77.768C277.569 77.936 276.96 78.202 276.344 78.566L275.588 76.781C275.952 76.529 276.379 76.312 276.869 76.13C277.373 75.934 277.898 75.787 278.444 75.689C279.004 75.577 279.529 75.521 280.019 75.521C281.027 75.521 281.853 75.675 282.497 75.983C283.155 76.291 283.645 76.76 283.967 77.39C284.289 78.006 284.45 78.804 284.45 79.784V86H281.993V83.816H282.161C282.063 84.306 281.867 84.733 281.573 85.097C281.293 85.447 280.936 85.72 280.502 85.916C280.068 86.112 279.571 86.21 279.011 86.21ZM296.722 86.21C295.826 86.21 295.035 85.993 294.349 85.559C293.677 85.125 293.152 84.509 292.774 83.711C292.396 82.899 292.207 81.947 292.207 80.855C292.207 79.749 292.396 78.804 292.774 78.02C293.152 77.222 293.677 76.606 294.349 76.172C295.035 75.738 295.826 75.521 296.722 75.521C297.576 75.521 298.318 75.731 298.948 76.151C299.592 76.571 300.026 77.124 300.25 77.81H300.019V71.195H302.644V86H300.082V83.816H300.271C300.061 84.544 299.634 85.125 298.99 85.559C298.346 85.993 297.59 86.21 296.722 86.21ZM297.457 84.215C298.241 84.215 298.871 83.935 299.347 83.375C299.823 82.801 300.061 81.961 300.061 80.855C300.061 79.735 299.823 78.902 299.347 78.356C298.871 77.796 298.241 77.516 297.457 77.516C296.673 77.516 296.043 77.796 295.567 78.356C295.091 78.902 294.853 79.735 294.853 80.855C294.853 81.961 295.091 82.801 295.567 83.375C296.043 83.935 296.673 84.215 297.457 84.215ZM310.049 86.21C308.985 86.21 308.061 85.993 307.277 85.559C306.493 85.125 305.884 84.509 305.45 83.711C305.016 82.899 304.799 81.947 304.799 80.855C304.799 79.763 305.016 78.818 305.45 78.02C305.884 77.222 306.493 76.606 307.277 76.172C308.061 75.738 308.985 75.521 310.049 75.521C311.113 75.521 312.037 75.738 312.821 76.172C313.605 76.606 314.214 77.222 314.648 78.02C315.082 78.818 315.299 79.763 315.299 80.855C315.299 81.947 315.082 82.899 314.648 83.711C314.214 84.509 313.605 85.125 312.821 85.559C312.037 85.993 311.113 86.21 310.049 86.21ZM310.049 84.215C310.833 84.215 311.463 83.935 311.939 83.375C312.415 82.801 312.653 81.961 312.653 80.855C312.653 79.735 312.415 78.902 311.939 78.356C311.463 77.796 310.833 77.516 310.049 77.516C309.265 77.516 308.635 77.796 308.159 78.356C307.683 78.902 307.445 79.735 307.445 80.855C307.445 81.961 307.683 82.801 308.159 83.375C308.635 83.935 309.265 84.215 310.049 84.215ZM321.225 86.21C320.651 86.21 320.091 86.161 319.545 86.063C319.013 85.965 318.523 85.832 318.075 85.664C317.627 85.482 317.235 85.258 316.899 84.992L317.571 83.27C317.921 83.494 318.299 83.69 318.705 83.858C319.111 84.026 319.531 84.152 319.965 84.236C320.399 84.32 320.826 84.362 321.246 84.362C321.918 84.362 322.415 84.25 322.737 84.026C323.073 83.788 323.241 83.48 323.241 83.102C323.241 82.78 323.129 82.535 322.905 82.367C322.695 82.185 322.373 82.052 321.939 81.968L319.839 81.569C318.971 81.401 318.306 81.086 317.844 80.624C317.396 80.148 317.172 79.539 317.172 78.797C317.172 78.125 317.354 77.544 317.718 77.054C318.096 76.564 318.614 76.186 319.272 75.92C319.93 75.654 320.686 75.521 321.54 75.521C322.03 75.521 322.506 75.57 322.968 75.668C323.43 75.752 323.864 75.885 324.27 76.067C324.69 76.235 325.054 76.459 325.362 76.739L324.648 78.461C324.382 78.237 324.074 78.048 323.724 77.894C323.374 77.726 323.01 77.6 322.632 77.516C322.268 77.418 321.911 77.369 321.561 77.369C320.875 77.369 320.364 77.488 320.028 77.726C319.706 77.964 319.545 78.279 319.545 78.671C319.545 78.965 319.643 79.21 319.839 79.406C320.035 79.602 320.336 79.735 320.742 79.805L322.842 80.204C323.752 80.372 324.438 80.68 324.9 81.128C325.376 81.576 325.614 82.178 325.614 82.934C325.614 83.62 325.432 84.208 325.068 84.698C324.704 85.188 324.193 85.566 323.535 85.832C322.877 86.084 322.107 86.21 321.225 86.21ZM190.505 115.21C188.965 115.21 187.642 114.902 186.536 114.286C185.444 113.656 184.604 112.774 184.016 111.64C183.428 110.492 183.134 109.141 183.134 107.587C183.134 106.033 183.428 104.689 184.016 103.555C184.604 102.421 185.444 101.546 186.536 100.93C187.642 100.3 188.965 99.985 190.505 99.985C191.499 99.985 192.437 100.139 193.319 100.447C194.215 100.755 194.95 101.196 195.524 101.77L194.642 103.912C194.012 103.38 193.368 102.995 192.71 102.757C192.052 102.505 191.345 102.379 190.589 102.379C189.091 102.379 187.95 102.834 187.166 103.744C186.382 104.64 185.99 105.921 185.99 107.587C185.99 109.253 186.382 110.541 187.166 111.451C187.95 112.361 189.091 112.816 190.589 112.816C191.345 112.816 192.052 112.697 192.71 112.459C193.368 112.207 194.012 111.815 194.642 111.283L195.524 113.425C194.95 113.985 194.215 114.426 193.319 114.748C192.437 115.056 191.499 115.21 190.505 115.21ZM201.563 115.21C200.499 115.21 199.575 114.993 198.791 114.559C198.007 114.125 197.398 113.509 196.964 112.711C196.53 111.899 196.313 110.947 196.313 109.855C196.313 108.763 196.53 107.818 196.964 107.02C197.398 106.222 198.007 105.606 198.791 105.172C199.575 104.738 200.499 104.521 201.563 104.521C202.627 104.521 203.551 104.738 204.335 105.172C205.119 105.606 205.728 106.222 206.162 107.02C206.596 107.818 206.813 108.763 206.813 109.855C206.813 110.947 206.596 111.899 206.162 112.711C205.728 113.509 205.119 114.125 204.335 114.559C203.551 114.993 202.627 115.21 201.563 115.21ZM201.563 113.215C202.347 113.215 202.977 112.935 203.453 112.375C203.929 111.801 204.167 110.961 204.167 109.855C204.167 108.735 203.929 107.902 203.453 107.356C202.977 106.796 202.347 106.516 201.563 106.516C200.779 106.516 200.149 106.796 199.673 107.356C199.197 107.902 198.959 108.735 198.959 109.855C198.959 110.961 199.197 111.801 199.673 112.375C200.149 112.935 200.779 113.215 201.563 113.215ZM213.662 115.21C212.598 115.21 211.674 114.993 210.89 114.559C210.106 114.125 209.497 113.509 209.063 112.711C208.629 111.899 208.412 110.947 208.412 109.855C208.412 108.763 208.629 107.818 209.063 107.02C209.497 106.222 210.106 105.606 210.89 105.172C211.674 104.738 212.598 104.521 213.662 104.521C214.726 104.521 215.65 104.738 216.434 105.172C217.218 105.606 217.827 106.222 218.261 107.02C218.695 107.818 218.912 108.763 218.912 109.855C218.912 110.947 218.695 111.899 218.261 112.711C217.827 113.509 217.218 114.125 216.434 114.559C215.65 114.993 214.726 115.21 213.662 115.21ZM213.662 113.215C214.446 113.215 215.076 112.935 215.552 112.375C216.028 111.801 216.266 110.961 216.266 109.855C216.266 108.735 216.028 107.902 215.552 107.356C215.076 106.796 214.446 106.516 213.662 106.516C212.878 106.516 212.248 106.796 211.772 107.356C211.296 107.902 211.058 108.735 211.058 109.855C211.058 110.961 211.296 111.801 211.772 112.375C212.248 112.935 212.878 113.215 213.662 113.215ZM221.079 118.78V104.731H223.641V106.894H223.431C223.641 106.18 224.068 105.606 224.712 105.172C225.37 104.738 226.133 104.521 227.001 104.521C227.897 104.521 228.681 104.738 229.353 105.172C230.039 105.606 230.571 106.222 230.949 107.02C231.327 107.804 231.516 108.749 231.516 109.855C231.516 110.947 231.327 111.899 230.949 112.711C230.571 113.509 230.046 114.125 229.374 114.559C228.702 114.993 227.911 115.21 227.001 115.21C226.147 115.21 225.398 115 224.754 114.58C224.11 114.146 223.676 113.586 223.452 112.9H223.704V118.78H221.079ZM226.266 113.215C227.05 113.215 227.68 112.935 228.156 112.375C228.632 111.801 228.87 110.961 228.87 109.855C228.87 108.735 228.632 107.902 228.156 107.356C227.68 106.796 227.05 106.516 226.266 106.516C225.482 106.516 224.852 106.796 224.376 107.356C223.9 107.902 223.662 108.735 223.662 109.855C223.662 110.961 223.9 111.801 224.376 112.375C224.852 112.935 225.482 113.215 226.266 113.215ZM238.732 115.21C237.57 115.21 236.569 114.993 235.729 114.559C234.889 114.125 234.238 113.509 233.776 112.711C233.328 111.913 233.104 110.968 233.104 109.876C233.104 108.812 233.321 107.881 233.755 107.083C234.203 106.285 234.812 105.662 235.582 105.214C236.366 104.752 237.255 104.521 238.249 104.521C239.229 104.521 240.069 104.731 240.769 105.151C241.469 105.571 242.008 106.166 242.386 106.936C242.778 107.706 242.974 108.623 242.974 109.687V110.464H235.225V108.952H241.126L240.79 109.267C240.79 108.315 240.58 107.587 240.16 107.083C239.74 106.565 239.138 106.306 238.354 106.306C237.766 106.306 237.262 106.446 236.842 106.726C236.436 106.992 236.121 107.377 235.897 107.881C235.687 108.371 235.582 108.959 235.582 109.645V109.792C235.582 110.562 235.701 111.199 235.939 111.703C236.177 112.207 236.534 112.585 237.01 112.837C237.486 113.089 238.074 113.215 238.774 113.215C239.348 113.215 239.922 113.131 240.496 112.963C241.07 112.781 241.595 112.501 242.071 112.123L242.806 113.887C242.316 114.293 241.7 114.615 240.958 114.853C240.216 115.091 239.474 115.21 238.732 115.21ZM245.053 115V104.731H247.615V107.209H247.405C247.601 106.369 247.986 105.732 248.56 105.298C249.134 104.85 249.897 104.591 250.849 104.521L251.647 104.458L251.815 106.684L250.303 106.831C249.449 106.915 248.805 107.181 248.371 107.629C247.937 108.063 247.72 108.679 247.72 109.477V115H245.053ZM256.555 115.21C255.813 115.21 255.148 115.07 254.56 114.79C253.986 114.496 253.531 114.104 253.195 113.614C252.873 113.124 252.712 112.571 252.712 111.955C252.712 111.199 252.908 110.604 253.3 110.17C253.692 109.722 254.329 109.4 255.211 109.204C256.093 109.008 257.276 108.91 258.76 108.91H259.81V110.422H258.781C258.123 110.422 257.57 110.45 257.122 110.506C256.674 110.548 256.31 110.625 256.03 110.737C255.764 110.835 255.568 110.975 255.442 111.157C255.33 111.339 255.274 111.563 255.274 111.829C255.274 112.291 255.435 112.669 255.757 112.963C256.079 113.257 256.527 113.404 257.101 113.404C257.563 113.404 257.969 113.299 258.319 113.089C258.683 112.865 258.97 112.564 259.18 112.186C259.39 111.808 259.495 111.374 259.495 110.884V108.469C259.495 107.769 259.341 107.265 259.033 106.957C258.725 106.649 258.207 106.495 257.479 106.495C256.905 106.495 256.317 106.586 255.715 106.768C255.113 106.936 254.504 107.202 253.888 107.566L253.132 105.781C253.496 105.529 253.923 105.312 254.413 105.13C254.917 104.934 255.442 104.787 255.988 104.689C256.548 104.577 257.073 104.521 257.563 104.521C258.571 104.521 259.397 104.675 260.041 104.983C260.699 105.291 261.189 105.76 261.511 106.39C261.833 107.006 261.994 107.804 261.994 108.784V115H259.537V112.816H259.705C259.607 113.306 259.411 113.733 259.117 114.097C258.837 114.447 258.48 114.72 258.046 114.916C257.612 115.112 257.115 115.21 256.555 115.21ZM268.606 115.21C267.71 115.21 266.919 114.993 266.233 114.559C265.561 114.125 265.036 113.509 264.658 112.711C264.28 111.899 264.091 110.947 264.091 109.855C264.091 108.749 264.28 107.804 264.658 107.02C265.036 106.222 265.561 105.606 266.233 105.172C266.919 104.738 267.71 104.521 268.606 104.521C269.46 104.521 270.202 104.731 270.832 105.151C271.476 105.571 271.91 106.124 272.134 106.81H271.903V100.195H274.528V115H271.966V112.816H272.155C271.945 113.544 271.518 114.125 270.874 114.559C270.23 114.993 269.474 115.21 268.606 115.21ZM269.341 113.215C270.125 113.215 270.755 112.935 271.231 112.375C271.707 111.801 271.945 110.961 271.945 109.855C271.945 108.735 271.707 107.902 271.231 107.356C270.755 106.796 270.125 106.516 269.341 106.516C268.557 106.516 267.927 106.796 267.451 107.356C266.975 107.902 266.737 108.735 266.737 109.855C266.737 110.961 266.975 111.801 267.451 112.375C267.927 112.935 268.557 113.215 269.341 113.215ZM281.933 115.21C280.869 115.21 279.945 114.993 279.161 114.559C278.377 114.125 277.768 113.509 277.334 112.711C276.9 111.899 276.683 110.947 276.683 109.855C276.683 108.763 276.9 107.818 277.334 107.02C277.768 106.222 278.377 105.606 279.161 105.172C279.945 104.738 280.869 104.521 281.933 104.521C282.997 104.521 283.921 104.738 284.705 105.172C285.489 105.606 286.098 106.222 286.532 107.02C286.966 107.818 287.183 108.763 287.183 109.855C287.183 110.947 286.966 111.899 286.532 112.711C286.098 113.509 285.489 114.125 284.705 114.559C283.921 114.993 282.997 115.21 281.933 115.21ZM281.933 113.215C282.717 113.215 283.347 112.935 283.823 112.375C284.299 111.801 284.537 110.961 284.537 109.855C284.537 108.735 284.299 107.902 283.823 107.356C283.347 106.796 282.717 106.516 281.933 106.516C281.149 106.516 280.519 106.796 280.043 107.356C279.567 107.902 279.329 108.735 279.329 109.855C279.329 110.961 279.567 111.801 280.043 112.375C280.519 112.935 281.149 113.215 281.933 113.215ZM293.108 115.21C292.534 115.21 291.974 115.161 291.428 115.063C290.896 114.965 290.406 114.832 289.958 114.664C289.51 114.482 289.118 114.258 288.782 113.992L289.454 112.27C289.804 112.494 290.182 112.69 290.588 112.858C290.994 113.026 291.414 113.152 291.848 113.236C292.282 113.32 292.709 113.362 293.129 113.362C293.801 113.362 294.298 113.25 294.62 113.026C294.956 112.788 295.124 112.48 295.124 112.102C295.124 111.78 295.012 111.535 294.788 111.367C294.578 111.185 294.256 111.052 293.822 110.968L291.722 110.569C290.854 110.401 290.189 110.086 289.727 109.624C289.279 109.148 289.055 108.539 289.055 107.797C289.055 107.125 289.237 106.544 289.601 106.054C289.979 105.564 290.497 105.186 291.155 104.92C291.813 104.654 292.569 104.521 293.423 104.521C293.913 104.521 294.389 104.57 294.851 104.668C295.313 104.752 295.747 104.885 296.153 105.067C296.573 105.235 296.937 105.459 297.245 105.739L296.531 107.461C296.265 107.237 295.957 107.048 295.607 106.894C295.257 106.726 294.893 106.6 294.515 106.516C294.151 106.418 293.794 106.369 293.444 106.369C292.758 106.369 292.247 106.488 291.911 106.726C291.589 106.964 291.428 107.279 291.428 107.671C291.428 107.965 291.526 108.21 291.722 108.406C291.918 108.602 292.219 108.735 292.625 108.805L294.725 109.204C295.635 109.372 296.321 109.68 296.783 110.128C297.259 110.576 297.497 111.178 297.497 111.934C297.497 112.62 297.315 113.208 296.951 113.698C296.587 114.188 296.076 114.566 295.418 114.832C294.76 115.084 293.99 115.21 293.108 115.21Z" fill="#212121"/>
<g clip-path="url(#clip1_1148_1387)">
<path d="M-2.79369 140.841C-2.16777 135.767 0.951492 130.767 5.75157 129.116C3.85856 134.339 3.85897 140.068 5.75273 145.29C6.49032 147.302 7.51844 149.461 6.82464 151.488C6.39297 152.75 5.33694 153.715 4.1565 154.318C2.976 154.922 1.66589 155.209 0.372177 155.491L0.117567 155.703C-1.93619 151.028 -3.41961 145.915 -2.79369 140.841Z" fill="#F0F0F0"/>
<path d="M5.79901 129.212C3.00367 132.37 1.26628 136.335 0.833624 140.544C0.724523 141.449 0.757539 142.365 0.93146 143.259C1.1288 144.125 1.55246 144.922 2.15841 145.566C2.71143 146.179 3.34746 146.741 3.74315 147.478C3.94014 147.859 4.05511 148.277 4.08054 148.705C4.10598 149.134 4.04129 149.563 3.89072 149.964C3.54137 150.974 2.85282 151.798 2.15172 152.579C1.37328 153.447 0.551093 154.336 0.220198 155.486C0.180106 155.626 -0.0321007 155.555 0.00793135 155.416C0.583633 153.414 2.511 152.277 3.43016 150.474C3.85906 149.633 4.03908 148.656 3.637 147.768C3.28539 146.992 2.63 146.412 2.06474 145.796C1.46447 145.176 1.02396 144.417 0.781691 143.586C0.56317 142.704 0.495192 141.79 0.580669 140.885C0.740855 138.843 1.21843 136.84 1.99591 134.948C2.87137 132.784 4.10759 130.787 5.6511 129.043C5.74667 128.935 5.89396 129.105 5.79901 129.212Z" fill="white"/>
<path d="M0.893676 139.181C0.202935 139.012 -0.405707 138.601 -0.823551 138.021C-1.2414 137.441 -1.44123 136.731 -1.38738 136.016C-1.37599 135.872 -1.15266 135.883 -1.16406 136.027C-1.21543 136.693 -1.02921 137.354 -0.639024 137.893C-0.248833 138.432 0.319628 138.813 0.963762 138.967C1.1037 139 1.03281 139.214 0.893676 139.181Z" fill="white"/>
<path d="M1.83758 145.293C3.08514 144.542 4.00611 143.344 4.41683 141.939C4.45741 141.8 4.66963 141.871 4.62909 142.01C4.19898 143.471 3.23806 144.715 1.93811 145.494C1.81416 145.568 1.7143 145.367 1.83758 145.293Z" fill="white"/>
<path d="M3.07852 132.998C3.33226 133.119 3.61198 133.175 3.89255 133.161C4.17312 133.147 4.44577 133.062 4.68599 132.915C4.80895 132.84 4.90869 133.041 4.78653 133.117C4.52037 133.278 4.21915 133.37 3.9092 133.387C3.59924 133.404 3.28998 133.343 3.00843 133.212C2.98086 133.201 2.95817 133.181 2.94496 133.155C2.93176 133.128 2.92903 133.098 2.93734 133.069C2.94676 133.041 2.96687 133.018 2.99331 133.004C3.01974 132.991 3.05037 132.988 3.07852 132.998Z" fill="white"/>
<path d="M20.3827 138.179C20.3073 138.228 20.2319 138.278 20.1563 138.329C19.1454 138.999 18.1902 139.751 17.3 140.577C17.2302 140.64 17.1604 140.705 17.0925 140.769C14.969 142.783 13.2348 145.176 11.9779 147.827C11.4787 148.883 11.06 149.975 10.7252 151.095C10.2629 152.641 9.88375 154.355 8.96873 155.62C8.87473 155.753 8.77265 155.88 8.66308 156H0.394043C0.37525 155.99 0.356366 155.983 0.337481 155.973L0.00732422 155.989C0.020589 155.93 0.0356036 155.869 0.0488702 155.81C0.0564167 155.776 0.0658201 155.741 0.0733741 155.707C0.0789924 155.684 0.0847047 155.661 0.0884817 155.641C0.090323 155.633 0.0922559 155.625 0.094101 155.62C0.0978742 155.599 0.103591 155.58 0.107366 155.561C0.190368 155.22 0.275885 154.88 0.36392 154.539C0.36392 154.537 0.363921 154.537 0.365762 154.536C1.04312 151.943 1.9411 149.385 3.19568 147.046C3.23345 146.975 3.27113 146.903 3.31267 146.833C3.88398 145.781 4.53957 144.779 5.27289 143.835C5.67608 143.32 6.10489 142.825 6.55768 142.354C7.72995 141.137 9.08473 140.114 10.5724 139.322C13.5382 137.743 16.9717 137.139 20.1413 138.103C20.2224 138.128 20.3017 138.152 20.3827 138.179Z" fill="#F0F0F0"/>
<path d="M20.3643 138.285C16.2466 139.109 12.4913 141.221 9.6318 144.319C9.00447 144.975 8.48362 145.727 8.08845 146.546C7.72909 147.357 7.59168 148.25 7.69049 149.133C7.76623 149.958 7.93843 150.792 7.81398 151.621C7.74403 152.045 7.5861 152.448 7.35055 152.806C7.11499 153.163 6.80713 153.467 6.44716 153.696C5.56495 154.29 4.52346 154.53 3.4969 154.728C2.3571 154.949 1.16975 155.159 0.21847 155.877C0.103211 155.964 -0.0239015 155.779 0.0911837 155.692C1.74624 154.443 3.96415 154.705 5.77472 153.824C6.61957 153.412 7.34656 152.742 7.55585 151.789C7.73887 150.955 7.56202 150.094 7.47817 149.26C7.36926 148.4 7.47076 147.527 7.77382 146.716C8.12633 145.879 8.61758 145.108 9.22654 144.437C10.5736 142.905 12.1514 141.595 13.902 140.556C15.8934 139.36 18.0733 138.516 20.3471 138.06C20.4879 138.032 20.5041 138.257 20.3643 138.285Z" fill="white"/>
<path d="M10.4943 143.267C10.0438 142.713 9.80332 142.015 9.8159 141.298C9.82848 140.582 10.0933 139.893 10.563 139.356C10.6584 139.247 10.8301 139.391 10.7346 139.5C10.2963 140 10.0497 140.642 10.0393 141.309C10.0289 141.976 10.2555 142.625 10.6781 143.138C10.7698 143.25 10.5855 143.378 10.4943 143.267Z" fill="white"/>
<path d="M7.59747 148.72C9.04207 148.877 10.4925 148.48 11.6596 147.608C11.7752 147.521 11.9023 147.707 11.7869 147.793C10.5707 148.699 9.06046 149.109 7.55754 148.942C7.4143 148.925 7.45501 148.704 7.59747 148.72Z" fill="white"/>
<path d="M15.9313 139.656C16.0613 139.907 16.2511 140.122 16.4837 140.281C16.7163 140.439 16.9844 140.538 17.2639 140.566C17.4072 140.58 17.3664 140.802 17.2239 140.788C16.9153 140.755 16.6193 140.646 16.362 140.471C16.1046 140.296 15.8936 140.061 15.7475 139.784C15.7316 139.76 15.7256 139.73 15.7309 139.7C15.7361 139.671 15.7522 139.645 15.7757 139.628C15.8002 139.611 15.8302 139.604 15.8593 139.61C15.8884 139.615 15.9143 139.632 15.9313 139.656Z" fill="white"/>
<path d="M137.373 40.0234C130.543 32.7134 121.141 28.3962 111.188 28V66.4211L137.373 40.0234Z" fill="#3F3D56"/>
<path d="M137.373 44.8074L111.188 71.205H147.782C147.795 61.3864 144.069 51.9373 137.373 44.8074Z" fill="#E4E4E4"/>
<path d="M147.821 73.9659C147.823 76.3606 147.603 78.7502 147.165 81.1038C147.131 81.2902 147.095 81.4747 147.057 81.6592C146.231 85.7648 144.739 89.7051 142.642 93.3218C142.531 93.5158 142.416 93.7098 142.301 93.9V93.9019C140.234 97.3299 137.65 100.412 134.641 103.037C134.492 103.168 134.343 103.297 134.192 103.425C127.726 108.909 119.631 112.063 111.187 112.387V73.9659H147.821Z" fill="#F0F0F0"/>
<path d="M107.486 112.42C107.993 112.42 108.496 112.407 108.998 112.388V73.965L81.2808 101.907C88.3555 108.67 97.737 112.433 107.486 112.42Z" fill="#CACACA"/>
<path d="M107.538 32.7496C86.4704 32.7496 69.3921 49.9667 69.3921 71.205H109.089V32.7839C108.574 32.7631 108.058 32.7496 107.538 32.7496Z" fill="#F58634"/>
<path d="M98.4373 73.9659L90.4174 82.051L90.1551 82.3154L90.1494 82.3211L83.1557 89.3696L82.8898 89.6378L75.3339 97.255L75.0678 97.5232V97.5251L70.7192 101.907C66.9433 98.3175 63.936 93.9867 61.8825 89.1815C59.8291 84.3762 58.7728 79.1981 58.7788 73.9659H98.4373Z" fill="#F58634"/>
<path d="M36.2173 108.965C36.5091 108.786 36.7585 108.545 36.9481 108.259C37.1376 107.973 37.2625 107.648 37.3142 107.308C37.3658 106.968 37.3428 106.621 37.2468 106.29C37.1508 105.96 36.9842 105.655 36.7586 105.397L37.0734 88.1013L33.3135 88.4189L33.3223 105.28C32.917 105.691 32.6753 106.237 32.6429 106.816C32.6105 107.394 32.7897 107.965 33.1465 108.419C33.5034 108.873 34.0131 109.179 34.579 109.28C35.145 109.38 35.7279 109.268 36.2173 108.965Z" fill="#FFB6B6"/>
<path d="M37.6663 92.335L32.749 91.8623C32.6091 91.8489 32.4737 91.8052 32.352 91.7342C32.2304 91.6633 32.1253 91.5667 32.044 91.4511C31.9627 91.3356 31.9071 91.2037 31.8809 91.0645C31.8547 90.9253 31.8586 90.782 31.8923 90.6444L33.0731 85.8246C33.1455 85.1034 33.4985 84.4405 34.0549 83.9812C34.6113 83.522 35.3257 83.304 36.0413 83.3749C36.7569 83.4458 37.4155 83.7999 37.8725 84.3596C38.3296 84.9193 38.5478 85.6388 38.4795 86.3604L38.7359 91.3023C38.7432 91.4438 38.7201 91.5852 38.6683 91.7169C38.6165 91.8486 38.5371 91.9675 38.4356 92.0655C38.3341 92.1635 38.2129 92.2383 38.0801 92.2848C37.9474 92.3314 37.8062 92.3485 37.6663 92.335Z" fill="#E4E4E4"/>
<path d="M29.4877 153.964H31.3956L32.3033 146.544L29.4873 146.545L29.4877 153.964Z" fill="#FFB6B6"/>
<path d="M29.001 153.336L32.7585 153.335C33.3936 153.335 34.0028 153.59 34.4518 154.043C34.9009 154.495 35.1532 155.109 35.1533 155.749V155.828L29.0011 155.828L29.001 153.336Z" fill="#2F2E41"/>
<path d="M47.0739 153.964H48.982L49.8897 146.544L47.0737 146.545L47.0739 153.964Z" fill="#FFB6B6"/>
<path d="M46.5869 153.336L50.3444 153.335C50.9795 153.335 51.5887 153.59 52.0378 154.043C52.4869 154.495 52.7392 155.109 52.7392 155.749V155.828L46.587 155.828L46.5869 153.336Z" fill="#2F2E41"/>
<path d="M44.77 94.3599L46.0149 102.362L34.187 102.518L35.7433 94.8307L44.77 94.3599Z" fill="#FFB6B6"/>
<path d="M45.6718 100.408C49.4249 106.998 49.7452 129.345 49.9058 152.427H46.7154L39.0896 118.757L32.0862 151.548H28.9736L31.1524 114.678C31.1524 114.678 30.5099 107.277 33.7982 102.911L34.5985 100.579L45.6718 100.408Z" fill="#2F2E41"/>
<path d="M36.1494 98.7791C36.0803 98.779 36.0114 98.7722 35.9437 98.7586C35.716 98.7127 35.5094 98.5929 35.3556 98.4175C35.2017 98.2421 35.1091 98.0207 35.0918 97.7872C34.9748 96.1724 34.3951 93.3614 33.3687 89.4323C33.0223 88.097 33.099 86.6858 33.5882 85.3966C34.0774 84.1074 34.9545 83.0048 36.0965 82.2434C37.2386 81.4821 38.5883 81.1001 39.9566 81.151C41.3248 81.2019 42.643 81.6832 43.7262 82.5274C44.4198 83.063 44.9987 83.7346 45.428 84.5017C45.8573 85.2688 46.1282 86.1156 46.2243 86.9911C46.7344 91.5195 45.7727 96.0661 45.3356 97.8107C45.2782 98.0384 45.1483 98.2409 44.9658 98.3871C44.7833 98.5333 44.5583 98.6152 44.3253 98.6202L36.172 98.7788C36.1645 98.779 36.157 98.7791 36.1494 98.7791Z" fill="#E4E4E4"/>
<path d="M58.928 84.2521C58.879 84.3629 58.8387 84.4773 58.8076 84.5944L48.6021 88.0905L46.63 86.3538L43.6411 89.0115L46.8358 92.4281C47.0939 92.7041 47.4338 92.8883 47.8046 92.9529C48.1753 93.0176 48.5569 92.9593 48.8919 92.7868L59.8125 87.1633C60.2074 87.4075 60.6668 87.5247 61.1294 87.4993C61.592 87.4739 62.036 87.3072 62.4023 87.0212C62.7686 86.7353 63.0399 86.3436 63.18 85.8985C63.3201 85.4533 63.3225 84.9757 63.1868 84.5291C63.0511 84.0825 62.7838 83.6881 62.4204 83.3985C62.0569 83.1088 61.6146 82.9376 61.1523 82.9075C60.6899 82.8774 60.2295 82.99 59.8321 83.2302C59.4348 83.4704 59.1194 83.8268 58.928 84.2521Z" fill="#FFB6B6"/>
<path d="M48.2465 88.2816L44.5261 91.5575C44.4202 91.6507 44.2957 91.7198 44.161 91.7601C44.0262 91.8004 43.8844 91.8109 43.7453 91.791C43.6061 91.7711 43.4729 91.7212 43.3546 91.6447C43.2363 91.5682 43.1357 91.4669 43.0598 91.3477L40.3987 87.1702C39.9287 86.6215 39.6937 85.9074 39.7453 85.1843C39.7968 84.4612 40.1307 83.7882 40.6737 83.3129C41.2167 82.8376 41.9245 82.5988 42.6419 82.6488C43.3593 82.6988 44.0277 83.0336 44.5007 83.5797L48.2375 86.7886C48.3445 86.8805 48.4305 86.9946 48.4898 87.1231C48.5491 87.2515 48.5802 87.3914 48.5811 87.533C48.5819 87.6747 48.5525 87.8149 48.4947 87.9441C48.437 88.0733 48.3523 88.1884 48.2465 88.2816Z" fill="#E4E4E4"/>
<path d="M43.2494 77.5082C44.5742 75.065 43.6835 72.0017 41.26 70.6661C38.8365 69.3306 35.7978 70.2285 34.473 72.6717C33.1482 75.1149 34.0389 78.1782 36.4624 79.5138C38.8859 80.8493 41.9245 79.9514 43.2494 77.5082Z" fill="#FFB6B6"/>
<path d="M40.2375 68.1117H39.2234C38.7367 67.9581 38.2295 67.8803 37.7195 67.8809C37.6354 67.8809 37.5519 67.883 37.4688 67.8871C36.5207 67.9473 35.6141 68.3011 34.8729 68.9001C34.1317 69.4992 33.5919 70.3143 33.3275 71.2342C32.1935 75.0499 32.6833 79.2719 32.6833 79.2719C34.3384 80.0266 36.868 80.585 40.6038 80.1258L41.1532 77.8042L41.1074 80.0566C41.634 79.9827 42.1834 79.8873 42.7556 79.7704V74.8042H45.0448C45.0448 71.1071 43.9048 68.1117 40.2375 68.1117Z" fill="#2F2E41"/>
<path d="M154.529 112.636H82.6486C82.5986 112.636 82.5506 112.616 82.5152 112.58C82.4798 112.545 82.46 112.496 82.46 112.446C82.46 112.395 82.4798 112.347 82.5152 112.311C82.5506 112.276 82.5986 112.256 82.6486 112.256H154.529C154.579 112.256 154.627 112.276 154.662 112.311C154.697 112.347 154.717 112.395 154.717 112.446C154.717 112.496 154.697 112.545 154.662 112.58C154.627 112.616 154.579 112.636 154.529 112.636Z" fill="#F0F0F0"/>
<path d="M154.623 136.886V64.422C154.623 64.3716 154.642 64.3232 154.678 64.2875C154.713 64.2519 154.761 64.2318 154.811 64.2318C154.861 64.2318 154.909 64.2519 154.945 64.2875C154.98 64.3232 155 64.3716 155 64.422V136.886C155 136.936 154.98 136.984 154.945 137.02C154.909 137.056 154.861 137.076 154.811 137.076C154.761 137.076 154.713 137.056 154.678 137.02C154.642 136.984 154.623 136.936 154.623 136.886Z" fill="#F0F0F0"/>
<path d="M143.869 122.336C145.536 122.336 146.888 120.973 146.888 119.293C146.888 117.612 145.536 116.25 143.869 116.25C142.202 116.25 140.851 117.612 140.851 119.293C140.851 120.973 142.202 122.336 143.869 122.336Z" fill="#F0F0F0"/>
<path d="M70.48 36.5587C72.1471 36.5587 73.4986 35.1962 73.4986 33.5156C73.4986 31.8349 72.1471 30.4725 70.48 30.4725C68.8129 30.4725 67.4614 31.8349 67.4614 33.5156C67.4614 35.1962 68.8129 36.5587 70.48 36.5587Z" fill="#F0F0F0"/>
<path d="M69.2573 155.81C69.2573 155.835 69.2525 155.86 69.2431 155.883C69.2336 155.906 69.2197 155.927 69.2022 155.945C69.1847 155.962 69.1638 155.976 69.1409 155.986C69.118 155.995 69.0934 156 69.0686 156H-2.81134C-2.86137 156 -2.90936 155.98 -2.94474 155.944C-2.98012 155.909 -3 155.86 -3 155.81C-3 155.759 -2.98012 155.711 -2.94474 155.675C-2.90936 155.64 -2.86137 155.62 -2.81134 155.62H69.0686C69.0934 155.62 69.118 155.624 69.1409 155.634C69.1638 155.643 69.1847 155.657 69.2022 155.675C69.2197 155.693 69.2336 155.714 69.2431 155.737C69.2525 155.76 69.2573 155.785 69.2573 155.81Z" fill="#CACACA"/>
<path d="M75.068 97.5248C68.8091 91.2759 65.1519 82.8545 64.8428 73.9796L65.597 73.9523C65.8994 82.6341 69.4772 90.8723 75.6 96.9852L75.068 97.5248Z" fill="#3F3D56"/>
<path d="M83.1632 89.3772L82.6161 89.8984C78.4467 85.46 75.5039 79.9975 74.0811 74.0553L74.4471 73.9659H74.8357C76.2351 79.7417 79.1025 85.0505 83.1557 89.3696L83.1632 89.3772Z" fill="#3F3D56"/>
<path d="M90.4381 82.0776L90.1551 82.3154L90.1494 82.3211L89.8589 82.5645C87.742 80.012 85.9975 77.1678 84.6782 74.118L85.0235 73.9659H85.4367C86.7145 76.882 88.391 79.6035 90.4174 82.051C90.4237 82.0603 90.4306 82.0692 90.4381 82.0776Z" fill="#3F3D56"/>
</g>
</g>
<defs>
<clipPath id="clip0_1148_1387">
<path d="M0 0H320C336.569 0 350 13.4315 350 30V156H30C13.4315 156 0 142.569 0 126V0Z" fill="white"/>
</clipPath>
<clipPath id="clip1_1148_1387">
<rect width="158" height="128" fill="white" transform="translate(-3 28)"/>
</clipPath>
</defs>
</svg>
