<svg width="32" height="32" viewBox="0 0 32 32" fill="none" xmlns="http://www.w3.org/2000/svg">
<path d="M22.9334 16.5333C19.4001 16.5333 16.5334 19.4 16.5334 22.9334C16.5334 24.1334 16.8668 25.2667 17.4668 26.2267C18.5734 28.08 20.6001 29.3333 22.9334 29.3333C25.2668 29.3333 27.3068 28.08 28.4001 26.2267C28.9868 25.2667 29.3334 24.1334 29.3334 22.9334C29.3334 19.4 26.4668 16.5333 22.9334 16.5333ZM26.1068 22.0933L22.6934 25.24C22.5068 25.4133 22.2534 25.5067 22.0134 25.5067C21.7601 25.5067 21.5068 25.4133 21.3068 25.2133L19.7334 23.64C19.3468 23.2533 19.3468 22.6134 19.7334 22.2267C20.1201 21.84 20.7601 21.84 21.1468 22.2267L22.0401 23.12L24.7468 20.6133C25.1468 20.24 25.7868 20.2667 26.1601 20.6667C26.5334 21.08 26.5068 21.72 26.1068 22.0933Z" fill="#F58634"/>
<path opacity="0.4" d="M29.3334 11.5867C29.3334 13.1734 29.0801 14.64 28.6401 16C28.3601 16.8934 28.0001 17.7467 27.5734 18.5333C26.4001 17.2933 24.7601 16.5333 22.9334 16.5333C19.4001 16.5333 16.5334 19.4 16.5334 22.9334C16.5334 24.5734 17.1601 26.0667 18.1734 27.2C17.6801 27.4267 17.2267 27.6134 16.8267 27.7467C16.3734 27.9067 15.6268 27.9067 15.1734 27.7467C11.9601 26.6534 5.46675 22.6667 3.36008 16C2.92008 14.64 2.66675 13.1734 2.66675 11.5867C2.66675 7.46669 5.98675 4.13336 10.0801 4.13336C12.4934 4.13336 14.6534 5.30667 16.0001 7.10667C17.3468 5.30667 19.5068 4.13336 21.9201 4.13336C26.0134 4.13336 29.3334 7.46669 29.3334 11.5867Z" fill="#F58634"/>
</svg>
