<svg width="32" height="32" viewBox="0 0 32 32" fill="none" xmlns="http://www.w3.org/2000/svg">
<path d="M29.3334 28.3334H2.66675C2.12008 28.3334 1.66675 28.7867 1.66675 29.3334C1.66675 29.88 2.12008 30.3334 2.66675 30.3334H29.3334C29.8801 30.3334 30.3334 29.88 30.3334 29.3334C30.3334 28.7867 29.8801 28.3334 29.3334 28.3334Z" fill="#F58634"/>
<path opacity="0.4" d="M22.6667 2.66663H9.33333C5.33333 2.66663 4 5.05329 4 7.99996V29.3333H28V7.99996C28 5.05329 26.6667 2.66663 22.6667 2.66663Z" fill="#F58634"/>
<path d="M18.7466 20H13.2399C12.5599 20 11.9866 20.56 11.9866 21.2533V29.3333H19.9866V21.2533C19.9999 20.56 19.4399 20 18.7466 20Z" fill="#F58634"/>
<path d="M19.3334 10.3333H17.0001V8C17.0001 7.45333 16.5467 7 16.0001 7C15.4534 7 15.0001 7.45333 15.0001 8V10.3333H12.6667C12.1201 10.3333 11.6667 10.7867 11.6667 11.3333C11.6667 11.88 12.1201 12.3333 12.6667 12.3333H15.0001V14.6667C15.0001 15.2133 15.4534 15.6667 16.0001 15.6667C16.5467 15.6667 17.0001 15.2133 17.0001 14.6667V12.3333H19.3334C19.8801 12.3333 20.3334 11.88 20.3334 11.3333C20.3334 10.7867 19.8801 10.3333 19.3334 10.3333Z" fill="#F58634"/>
</svg>
