<svg width="72" height="72" viewBox="0 0 72 72" fill="none" xmlns="http://www.w3.org/2000/svg">
<path d="M44.8998 66.8715L36.191 40.7451C35.2528 37.9305 37.9305 35.2528 40.7451 36.191L66.8715 44.8998C70.1539 45.9939 70.1539 50.6368 66.8715 51.731L57.2239 54.9469C56.1488 55.3052 55.3052 56.1488 54.9469 57.2239L51.731 66.8715C50.6368 70.1539 45.9939 70.1539 44.8998 66.8715Z" fill="#F58634"/>
<path opacity="0.4" fill-rule="evenodd" clip-rule="evenodd" d="M35.9999 21.833C28.1759 21.833 21.8333 28.1756 21.8333 35.9997C21.8333 41.9447 25.496 47.0402 30.6973 49.1413C31.9775 49.6584 32.5961 51.1155 32.0789 52.3957C31.5618 53.6759 30.1048 54.2945 28.8246 53.7773C21.7983 50.939 16.8333 44.0522 16.8333 35.9997C16.8333 25.4142 25.4145 16.833 35.9999 16.833C44.0524 16.833 50.9393 21.798 53.7776 28.8243C54.2947 30.1045 53.6761 31.5616 52.3959 32.0787C51.1157 32.5959 49.6587 31.9773 49.1415 30.6971C47.0404 25.4957 41.9449 21.833 35.9999 21.833Z" fill="#F58634"/>
<path opacity="0.4" fill-rule="evenodd" clip-rule="evenodd" d="M36 5.1665C18.9712 5.1665 5.16663 18.9711 5.16663 35.9998C5.16663 52.9416 18.8307 66.6922 35.7392 66.8321C37.1198 66.8435 38.2298 67.972 38.2184 69.3527C38.207 70.7334 37.0785 71.8433 35.6978 71.8319C16.0465 71.6694 0.166626 55.6892 0.166626 35.9998C0.166626 16.2096 16.2098 0.166504 36 0.166504C55.6893 0.166504 71.6695 16.0463 71.832 35.6977C71.8435 37.0784 70.7335 38.2069 69.3528 38.2183C67.9721 38.2297 66.8436 37.1197 66.8322 35.739C66.6924 18.8306 52.9418 5.1665 36 5.1665Z" fill="#F58634"/>
</svg>
