<svg width="32" height="32" viewBox="0 0 32 32" fill="none" xmlns="http://www.w3.org/2000/svg">
<path opacity="0.4" d="M29.2934 16C29.2934 19.32 28.08 22.36 26.0667 24.6933C25.6267 25.2 25.16 25.68 24.6534 26.0933C22.3334 28.12 19.2934 29.3333 15.96 29.3333C12.64 29.3333 9.60004 28.12 7.26671 26.1067C6.76004 25.6667 6.29338 25.2 5.85338 24.6933C3.84004 22.36 2.62671 19.32 2.62671 16C2.62671 12.68 3.84004 9.64 5.86671 7.30666C6.29338 6.8 6.77338 6.32 7.28004 5.89333C9.61338 3.88 12.64 2.66666 15.96 2.66666C19.2934 2.66666 22.3334 3.88 24.6534 5.90666C25.16 6.33333 25.64 6.8 26.0667 7.32C28.08 9.65333 29.2934 12.68 29.2934 16Z" fill="#F58634"/>
<path d="M20.8666 19.4933L26.0666 24.6933C25.6266 25.2 25.1599 25.68 24.6533 26.0933L19.4533 20.8933C18.4666 21.5867 17.2799 22 15.9999 22C14.6933 22 13.4933 21.5733 12.5066 20.8667L7.2666 26.1067C6.75994 25.6667 6.29327 25.2 5.85327 24.6933L11.1066 19.4533C10.4133 18.4667 9.99994 17.28 9.99994 16C9.99994 14.72 10.4133 13.5333 11.1066 12.5467L5.86661 7.30667C6.29327 6.8 6.77327 6.32 7.27994 5.89333L12.5066 11.1333C13.4933 10.4267 14.6933 10 15.9999 10C17.2799 10 18.4666 10.4133 19.4533 11.1067L24.6533 5.90667C25.1599 6.33333 25.6399 6.8 26.0666 7.32L20.8666 12.5067C21.5733 13.4933 21.9999 14.6933 21.9999 16C21.9999 17.3067 21.5733 18.5067 20.8666 19.4933Z" fill="#F58634"/>
<circle cx="16" cy="16.3" r="7" fill="#EEEEEF"/>
</svg>
