<svg width="32" height="32" viewBox="0 0 32 32" fill="none" xmlns="http://www.w3.org/2000/svg">
<path opacity="0.4" d="M24.0001 4H8.00008C5.05342 4 2.66675 6.37333 2.66675 9.29333V22.7067C2.66675 25.6267 5.05342 28 8.00008 28H24.0001C26.9468 28 29.3334 25.6267 29.3334 22.7067V9.29333C29.3334 6.37333 26.9468 4 24.0001 4Z" fill="#F58634"/>
<path d="M25.3334 11.6667H18.6667C18.1201 11.6667 17.6667 11.2134 17.6667 10.6667C17.6667 10.12 18.1201 9.66669 18.6667 9.66669H25.3334C25.8801 9.66669 26.3334 10.12 26.3334 10.6667C26.3334 11.2134 25.8801 11.6667 25.3334 11.6667Z" fill="#F58634"/>
<path d="M25.3333 17H20C19.4533 17 19 16.5467 19 16C19 15.4533 19.4533 15 20 15H25.3333C25.88 15 26.3333 15.4533 26.3333 16C26.3333 16.5467 25.88 17 25.3333 17Z" fill="#F58634"/>
<path d="M25.3334 22.3333H22.6667C22.1201 22.3333 21.6667 21.88 21.6667 21.3333C21.6667 20.7866 22.1201 20.3333 22.6667 20.3333H25.3334C25.8801 20.3333 26.3334 20.7866 26.3334 21.3333C26.3334 21.88 25.8801 22.3333 25.3334 22.3333Z" fill="#F58634"/>
<path d="M11.3334 15.72C13.0345 15.72 14.4134 14.341 14.4134 12.64C14.4134 10.939 13.0345 9.56 11.3334 9.56C9.63238 9.56 8.25342 10.939 8.25342 12.64C8.25342 14.341 9.63238 15.72 11.3334 15.72Z" fill="#F58634"/>
<path d="M12.4 17.48C11.6934 17.4133 10.96 17.4133 10.2534 17.48C8.01337 17.6933 6.21337 19.4667 6.00003 21.7067C5.9867 21.8933 6.04003 22.08 6.17337 22.2133C6.3067 22.3467 6.48003 22.44 6.6667 22.44H16C16.1867 22.44 16.3734 22.36 16.4934 22.2267C16.6134 22.0933 16.68 21.9067 16.6667 21.72C16.44 19.4667 14.6534 17.6933 12.4 17.48Z" fill="#F58634"/>
</svg>
