<svg width="140" height="140" viewBox="0 0 140 140" fill="none" xmlns="http://www.w3.org/2000/svg">
<rect width="140" height="140" rx="20" fill="white"/>
<path d="M78.8998 100.872L70.191 74.7451C69.2528 71.9305 71.9305 69.2528 74.7451 70.191L100.872 78.8998C104.154 79.9939 104.154 84.6368 100.872 85.731L91.2239 88.9469C90.1488 89.3052 89.3052 90.1488 88.9469 91.2239L85.731 100.872C84.6368 104.154 79.9939 104.154 78.8998 100.872Z" fill="#F58634"/>
<path opacity="0.4" fill-rule="evenodd" clip-rule="evenodd" d="M69.9999 55.833C62.1759 55.833 55.8333 62.1756 55.8333 69.9997C55.8333 75.9447 59.496 81.0402 64.6973 83.1413C65.9775 83.6584 66.5961 85.1155 66.0789 86.3957C65.5618 87.6759 64.1048 88.2945 62.8246 87.7773C55.7983 84.939 50.8333 78.0522 50.8333 69.9997C50.8333 59.4142 59.4145 50.833 69.9999 50.833C78.0524 50.833 84.9393 55.798 87.7776 62.8243C88.2947 64.1045 87.6761 65.5616 86.3959 66.0787C85.1157 66.5959 83.6587 65.9773 83.1415 64.6971C81.0404 59.4957 75.9449 55.833 69.9999 55.833Z" fill="#F58634"/>
<path opacity="0.4" fill-rule="evenodd" clip-rule="evenodd" d="M70 39.1665C52.9712 39.1665 39.1666 52.9711 39.1666 69.9998C39.1666 86.9416 52.8307 100.692 69.7392 100.832C71.1198 100.844 72.2298 101.972 72.2184 103.353C72.207 104.733 71.0785 105.843 69.6978 105.832C50.0465 105.669 34.1666 89.6892 34.1666 69.9998C34.1666 50.2096 50.2098 34.1665 70 34.1665C89.6893 34.1665 105.67 50.0463 105.832 69.6977C105.843 71.0784 104.733 72.2069 103.353 72.2183C101.972 72.2297 100.844 71.1197 100.832 69.739C100.692 52.8306 86.9418 39.1665 70 39.1665Z" fill="#F58634"/>
</svg>
