<svg width="32" height="32" viewBox="0 0 32 32" fill="none" xmlns="http://www.w3.org/2000/svg">
<path d="M29.3333 8.00001V11.2267C29.3333 13.3333 27.9999 14.6667 25.8932 14.6667H21.3333V5.34667C21.3333 3.86667 22.5466 2.65334 24.0266 2.66667C25.4799 2.68001 26.8133 3.26667 27.7733 4.22667C28.7333 5.20001 29.3333 6.53334 29.3333 8.00001Z" fill="#F58634"/>
<path opacity="0.4" d="M2.66675 9.33334V28C2.66675 29.1067 3.92008 29.7333 4.80008 29.0667L7.08008 27.36C7.61342 26.96 8.36008 27.0133 8.84008 27.4933L11.0534 29.72C11.5734 30.24 12.4267 30.24 12.9467 29.72L15.1867 27.48C15.6534 27.0133 16.4001 26.96 16.9201 27.36L19.2001 29.0667C20.0801 29.72 21.3334 29.0933 21.3334 28V5.33334C21.3334 3.86667 22.5334 2.66667 24.0001 2.66667H9.33341H8.00008C4.00008 2.66667 2.66675 5.05334 2.66675 8.00001V9.33334Z" fill="#F58634"/>
<path d="M15.2398 16.1067C14.5065 16.1067 13.9065 16.7067 13.9065 17.44C13.9065 18.1733 14.5065 18.7733 15.2398 18.7733C15.9732 18.7733 16.5732 18.1733 16.5732 17.44C16.5732 16.7067 15.9732 16.1067 15.2398 16.1067Z" fill="#F58634"/>
<path d="M8.75985 13.3733C9.50651 13.3733 10.0932 12.7733 10.0932 12.04C10.0932 11.3067 9.49318 10.7067 8.75985 10.7067C8.02651 10.7067 7.42651 11.3067 7.42651 12.04C7.42651 12.7733 8.02651 13.3733 8.75985 13.3733Z" fill="#F58634"/>
<path d="M16.3466 10.32C15.9599 9.93333 15.3199 9.93333 14.9333 10.32L7.65328 17.6C7.26661 17.9867 7.26661 18.6267 7.65328 19.0133C7.85328 19.2133 8.10661 19.3067 8.35995 19.3067C8.61328 19.3067 8.86661 19.2133 9.06661 19.0133L16.3466 11.7333C16.7333 11.3467 16.7333 10.7067 16.3466 10.32Z" fill="#F58634"/>
</svg>
