<svg width="80" height="80" viewBox="0 0 80 80" fill="none" xmlns="http://www.w3.org/2000/svg">
<path d="M36.8542 19.6455L26.4584 23.5413C24.0626 24.4372 22.1042 27.2705 22.1042 29.833V45.3121C22.1042 47.7705 23.7293 50.9996 25.7084 52.4788L34.6667 59.1663C37.6042 61.3747 42.4375 61.3747 45.375 59.1663L54.3334 52.4788C56.3126 50.9996 57.9375 47.7705 57.9375 45.3121V29.833C57.9375 27.2705 55.9792 24.4372 53.5834 23.5413L43.1876 19.6455C41.4167 18.9997 38.5834 18.9997 36.8542 19.6455Z" stroke="white" stroke-width="2.5" stroke-linecap="round" stroke-linejoin="round"/>
<path d="M40.0002 37.7504C39.9168 37.7504 39.8127 37.7504 39.7293 37.7504C37.771 37.6879 36.2085 36.0628 36.2085 34.0837C36.2085 32.0628 37.8543 30.417 39.8752 30.417C41.896 30.417 43.5419 32.0628 43.5419 34.0837C43.521 36.0837 41.9585 37.6879 40.0002 37.7504Z" stroke="white" stroke-width="2.5" stroke-linecap="round" stroke-linejoin="round"/>
<path d="M35.8542 43.584C33.8542 44.9173 33.8542 47.1048 35.8542 48.4381C38.1251 49.959 41.8542 49.959 44.1251 48.4381C46.1251 47.1048 46.1251 44.9173 44.1251 43.584C41.8751 42.0632 38.1459 42.0632 35.8542 43.584Z" stroke="white" stroke-width="2.5" stroke-linecap="round" stroke-linejoin="round"/>
</svg>
