<svg width="32" height="32" viewBox="0 0 32 32" fill="none" xmlns="http://www.w3.org/2000/svg">
<path opacity="0.4" d="M24.44 7.55999L8.7867 23.2133C8.20004 23.8 7.21336 23.72 6.73336 23.0266C5.08002 20.6133 4.10669 17.76 4.10669 14.8266V8.97332C4.10669 7.87999 4.93336 6.63999 5.9467 6.22666L13.3734 3.18666C15.0534 2.49332 16.9201 2.49332 18.6001 3.18666L23.9867 5.38665C24.88 5.74665 25.1067 6.89332 24.44 7.55999Z" fill="#F58634"/>
<path d="M25.6934 9.38667C26.5601 8.65333 27.8801 9.27999 27.8801 10.4133V14.8266C27.8801 21.3466 23.1468 27.4533 16.6801 29.24C16.2401 29.36 15.7601 29.36 15.3068 29.24C13.4134 28.7066 11.6534 27.8133 10.1467 26.64C9.50675 26.1467 9.4401 25.2133 10.0001 24.64C12.9068 21.6667 21.4134 13 25.6934 9.38667Z" fill="#F58634"/>
</svg>
