<svg width="80" height="80" viewBox="0 0 80 80" fill="none" xmlns="http://www.w3.org/2000/svg">
<path d="M35.9375 20.2708L23.3959 28.4583C19.375 31.0833 19.375 36.9583 23.3959 39.5833L35.9375 47.7708C38.1875 49.25 41.8959 49.25 44.1459 47.7708L56.625 39.5833C60.625 36.9583 60.625 31.1042 56.625 28.4792L44.1459 20.2917C41.8959 18.7917 38.1875 18.7917 35.9375 20.2708Z" stroke="white" stroke-width="2.5" stroke-linecap="round" stroke-linejoin="round"/>
<path d="M26.7292 42.25L26.7084 52.0208C26.7084 54.6667 28.75 57.5 31.25 58.3333L37.8959 60.5417C39.0417 60.9167 40.9375 60.9167 42.1042 60.5417L48.75 58.3333C51.25 57.5 53.2917 54.6667 53.2917 52.0208V42.3542" stroke="white" stroke-width="2.5" stroke-linecap="round" stroke-linejoin="round"/>
<path d="M59.5834 46.25V33.75" stroke="white" stroke-width="2.5" stroke-linecap="round" stroke-linejoin="round"/>
</svg>
