<svg width="155" height="128" viewBox="0 0 155 128" fill="none" xmlns="http://www.w3.org/2000/svg">
<g clip-path="url(#clip0_1148_1389)">
<path d="M-2.79369 112.841C-2.16777 107.767 0.951492 102.767 5.75157 101.116C3.85856 106.339 3.85897 112.068 5.75273 117.29C6.49032 119.302 7.51844 121.461 6.82464 123.488C6.39297 124.75 5.33694 125.715 4.1565 126.318C2.976 126.922 1.66589 127.209 0.372177 127.491L0.117567 127.703C-1.93619 123.028 -3.41961 117.915 -2.79369 112.841Z" fill="#F0F0F0"/>
<path d="M5.79901 101.212C3.00367 104.37 1.26628 108.335 0.833624 112.544C0.724523 113.449 0.757539 114.365 0.93146 115.259C1.1288 116.125 1.55246 116.922 2.15841 117.566C2.71143 118.179 3.34746 118.741 3.74315 119.478C3.94014 119.859 4.05511 120.277 4.08054 120.705C4.10598 121.134 4.04129 121.563 3.89072 121.964C3.54137 122.974 2.85282 123.798 2.15172 124.579C1.37328 125.447 0.551093 126.336 0.220198 127.486C0.180106 127.626 -0.0321007 127.555 0.00793135 127.416C0.583633 125.414 2.511 124.277 3.43016 122.474C3.85906 121.633 4.03908 120.656 3.637 119.768C3.28539 118.992 2.63 118.412 2.06474 117.796C1.46447 117.176 1.02396 116.417 0.781691 115.586C0.56317 114.704 0.495192 113.79 0.580669 112.885C0.740855 110.843 1.21843 108.84 1.99591 106.948C2.87137 104.784 4.10759 102.787 5.6511 101.043C5.74667 100.935 5.89396 101.105 5.79901 101.212Z" fill="white"/>
<path d="M0.893676 111.181C0.202935 111.012 -0.405707 110.601 -0.823551 110.021C-1.2414 109.441 -1.44123 108.731 -1.38738 108.016C-1.37599 107.872 -1.15266 107.883 -1.16406 108.027C-1.21543 108.693 -1.02921 109.354 -0.639024 109.893C-0.248833 110.432 0.319628 110.813 0.963762 110.967C1.1037 111 1.03281 111.214 0.893676 111.181Z" fill="white"/>
<path d="M1.83758 117.293C3.08514 116.542 4.00611 115.344 4.41683 113.939C4.45741 113.8 4.66963 113.871 4.62909 114.01C4.19898 115.471 3.23806 116.715 1.93811 117.494C1.81416 117.568 1.7143 117.367 1.83758 117.293Z" fill="white"/>
<path d="M3.07852 104.998C3.33226 105.119 3.61198 105.175 3.89255 105.161C4.17312 105.147 4.44577 105.062 4.68599 104.915C4.80895 104.84 4.90869 105.041 4.78653 105.117C4.52037 105.278 4.21915 105.37 3.9092 105.387C3.59924 105.404 3.28998 105.343 3.00843 105.212C2.98086 105.201 2.95817 105.181 2.94496 105.155C2.93176 105.128 2.92903 105.098 2.93734 105.069C2.94676 105.041 2.96687 105.018 2.99331 105.004C3.01974 104.991 3.05037 104.988 3.07852 104.998Z" fill="white"/>
<path d="M20.3827 110.179C20.3073 110.228 20.2319 110.278 20.1563 110.329C19.1454 110.999 18.1902 111.751 17.3 112.577C17.2302 112.64 17.1604 112.705 17.0925 112.769C14.969 114.783 13.2348 117.176 11.9779 119.827C11.4787 120.883 11.06 121.975 10.7252 123.095C10.2629 124.641 9.88375 126.355 8.96873 127.62C8.87473 127.753 8.77265 127.88 8.66308 128H0.394043C0.37525 127.99 0.356366 127.983 0.337481 127.973L0.00732422 127.989C0.020589 127.93 0.0356036 127.869 0.0488702 127.81C0.0564167 127.776 0.0658201 127.741 0.0733741 127.707C0.0789924 127.684 0.0847047 127.661 0.0884817 127.641C0.090323 127.633 0.0922559 127.625 0.094101 127.62C0.0978742 127.599 0.103591 127.58 0.107366 127.561C0.190368 127.22 0.275885 126.88 0.36392 126.539C0.36392 126.537 0.363921 126.537 0.365762 126.536C1.04312 123.943 1.9411 121.385 3.19568 119.046C3.23345 118.975 3.27113 118.903 3.31267 118.833C3.88398 117.781 4.53957 116.779 5.27289 115.835C5.67608 115.32 6.10489 114.825 6.55768 114.354C7.72995 113.137 9.08473 112.114 10.5724 111.322C13.5382 109.743 16.9717 109.139 20.1413 110.103C20.2224 110.128 20.3017 110.152 20.3827 110.179Z" fill="#F0F0F0"/>
<path d="M20.3643 110.285C16.2466 111.109 12.4913 113.221 9.6318 116.319C9.00447 116.975 8.48362 117.727 8.08845 118.546C7.72909 119.357 7.59168 120.25 7.69049 121.133C7.76623 121.958 7.93843 122.792 7.81398 123.621C7.74403 124.045 7.5861 124.448 7.35055 124.806C7.11499 125.163 6.80713 125.467 6.44716 125.696C5.56495 126.29 4.52346 126.53 3.4969 126.728C2.3571 126.949 1.16975 127.159 0.21847 127.877C0.103211 127.964 -0.0239015 127.779 0.0911837 127.692C1.74624 126.443 3.96415 126.705 5.77472 125.824C6.61957 125.412 7.34656 124.742 7.55585 123.789C7.73887 122.955 7.56202 122.094 7.47817 121.26C7.36926 120.4 7.47076 119.527 7.77382 118.716C8.12633 117.879 8.61758 117.108 9.22654 116.437C10.5736 114.905 12.1514 113.595 13.902 112.556C15.8934 111.36 18.0733 110.516 20.3471 110.06C20.4879 110.032 20.5041 110.257 20.3643 110.285Z" fill="white"/>
<path d="M10.4943 115.267C10.0438 114.713 9.80332 114.015 9.8159 113.298C9.82848 112.582 10.0933 111.893 10.563 111.356C10.6584 111.247 10.8301 111.391 10.7346 111.5C10.2963 112 10.0497 112.642 10.0393 113.309C10.0289 113.976 10.2555 114.625 10.6781 115.138C10.7698 115.25 10.5855 115.378 10.4943 115.267Z" fill="white"/>
<path d="M7.59747 120.72C9.04207 120.877 10.4925 120.48 11.6596 119.608C11.7752 119.521 11.9023 119.707 11.7869 119.793C10.5707 120.699 9.06046 121.109 7.55754 120.942C7.4143 120.925 7.45501 120.704 7.59747 120.72Z" fill="white"/>
<path d="M15.9313 111.656C16.0613 111.907 16.2511 112.122 16.4837 112.281C16.7163 112.439 16.9844 112.538 17.2639 112.566C17.4072 112.58 17.3664 112.802 17.2239 112.788C16.9153 112.755 16.6193 112.646 16.362 112.471C16.1046 112.296 15.8936 112.061 15.7475 111.784C15.7316 111.76 15.7256 111.73 15.7309 111.7C15.7361 111.671 15.7522 111.645 15.7757 111.628C15.8002 111.611 15.8302 111.604 15.8593 111.61C15.8884 111.615 15.9143 111.632 15.9313 111.656Z" fill="white"/>
<path d="M137.373 12.0234C130.543 4.71335 121.141 0.396249 111.188 0V38.4211L137.373 12.0234Z" fill="#3F3D56"/>
<path d="M137.373 16.8074L111.188 43.205H147.782C147.795 33.3864 144.069 23.9373 137.373 16.8074Z" fill="#E4E4E4"/>
<path d="M147.821 45.9659C147.823 48.3606 147.603 50.7502 147.165 53.1038C147.131 53.2902 147.095 53.4747 147.057 53.6592C146.231 57.7648 144.739 61.7051 142.642 65.3218C142.531 65.5158 142.416 65.7098 142.301 65.9V65.9019C140.234 69.3299 137.65 72.4119 134.641 75.0369C134.492 75.1681 134.343 75.2975 134.192 75.4249C127.726 80.909 119.631 84.0627 111.187 84.3868V45.9659H147.821Z" fill="#F0F0F0"/>
<path d="M107.486 84.4203C107.993 84.4203 108.496 84.4073 108.998 84.3876V45.965L81.2808 73.9074C88.3555 80.6698 97.737 84.4335 107.486 84.4203Z" fill="#CACACA"/>
<path d="M107.538 4.74963C86.4704 4.74963 69.3921 21.9667 69.3921 43.205H109.089V4.78391C108.574 4.76314 108.058 4.74963 107.538 4.74963Z" fill="#F58634"/>
<path d="M98.4373 45.9659L90.4174 54.051L90.1551 54.3154L90.1494 54.3211L83.1557 61.3696L82.8898 61.6378L75.3339 69.255L75.0678 69.5232V69.5251L70.7192 73.9072C66.9433 70.3175 63.936 65.9867 61.8825 61.1815C59.8291 56.3762 58.7728 51.1981 58.7788 45.9659H98.4373Z" fill="#F58634"/>
<path d="M36.2173 80.9646C36.5091 80.7861 36.7585 80.5453 36.9481 80.2591C37.1376 79.9729 37.2625 79.6483 37.3142 79.3081C37.3658 78.968 37.3428 78.6205 37.2468 78.2903C37.1508 77.9601 36.9842 77.6551 36.7586 77.3968L37.0734 60.1013L33.3135 60.4189L33.3223 77.2803C32.917 77.6911 32.6753 78.2374 32.6429 78.8159C32.6105 79.3943 32.7897 79.9646 33.1465 80.4187C33.5034 80.8729 34.0131 81.1793 34.579 81.2799C35.145 81.3805 35.7279 81.2683 36.2173 80.9646Z" fill="#FFB6B6"/>
<path d="M37.6663 64.335L32.749 63.8623C32.6091 63.8489 32.4737 63.8052 32.352 63.7342C32.2304 63.6633 32.1253 63.5667 32.044 63.4511C31.9627 63.3356 31.9071 63.2037 31.8809 63.0645C31.8547 62.9253 31.8586 62.782 31.8923 62.6444L33.0731 57.8246C33.1455 57.1034 33.4985 56.4405 34.0549 55.9812C34.6113 55.522 35.3257 55.304 36.0413 55.3749C36.7569 55.4458 37.4155 55.7999 37.8725 56.3596C38.3296 56.9193 38.5478 57.6388 38.4795 58.3604L38.7359 63.3023C38.7432 63.4438 38.7201 63.5852 38.6683 63.7169C38.6165 63.8486 38.5371 63.9675 38.4356 64.0655C38.3341 64.1635 38.2129 64.2383 38.0801 64.2848C37.9474 64.3314 37.8062 64.3485 37.6663 64.335Z" fill="#E4E4E4"/>
<path d="M29.4877 125.964H31.3956L32.3033 118.544L29.4873 118.545L29.4877 125.964Z" fill="#FFB6B6"/>
<path d="M29.001 125.336L32.7585 125.335C33.3936 125.335 34.0028 125.59 34.4518 126.043C34.9009 126.495 35.1532 127.109 35.1533 127.749V127.828L29.0011 127.828L29.001 125.336Z" fill="#2F2E41"/>
<path d="M47.0739 125.964H48.982L49.8897 118.544L47.0737 118.545L47.0739 125.964Z" fill="#FFB6B6"/>
<path d="M46.5869 125.336L50.3444 125.335C50.9795 125.335 51.5887 125.59 52.0378 126.043C52.4869 126.495 52.7392 127.109 52.7392 127.749V127.828L46.587 127.828L46.5869 125.336Z" fill="#2F2E41"/>
<path d="M44.77 66.3599L46.0149 74.3615L34.187 74.5184L35.7433 66.8307L44.77 66.3599Z" fill="#FFB6B6"/>
<path d="M45.6718 72.4077C49.4249 78.9982 49.7452 101.345 49.9058 124.427H46.7154L39.0896 90.7568L32.0862 123.548H28.9736L31.1524 86.6776C31.1524 86.6776 30.5099 79.2774 33.7982 74.9106L34.5985 72.5794L45.6718 72.4077Z" fill="#2F2E41"/>
<path d="M36.1494 70.7791C36.0803 70.779 36.0114 70.7722 35.9437 70.7586C35.716 70.7127 35.5094 70.5929 35.3556 70.4175C35.2017 70.2421 35.1091 70.0207 35.0918 69.7872C34.9748 68.1724 34.3951 65.3614 33.3687 61.4323C33.0223 60.097 33.099 58.6858 33.5882 57.3966C34.0774 56.1074 34.9545 55.0048 36.0965 54.2434C37.2386 53.4821 38.5883 53.1001 39.9566 53.151C41.3248 53.2019 42.643 53.6832 43.7262 54.5274C44.4198 55.063 44.9987 55.7346 45.428 56.5017C45.8573 57.2688 46.1282 58.1156 46.2243 58.9911C46.7344 63.5195 45.7727 68.0661 45.3356 69.8107C45.2782 70.0384 45.1483 70.2409 44.9658 70.3871C44.7833 70.5333 44.5583 70.6152 44.3253 70.6202L36.172 70.7788C36.1645 70.779 36.157 70.7791 36.1494 70.7791Z" fill="#E4E4E4"/>
<path d="M58.928 56.2521C58.879 56.3629 58.8387 56.4773 58.8076 56.5944L48.6021 60.0905L46.63 58.3538L43.6411 61.0115L46.8358 64.4281C47.0939 64.7041 47.4338 64.8883 47.8046 64.9529C48.1753 65.0176 48.5569 64.9593 48.8919 64.7868L59.8125 59.1633C60.2074 59.4075 60.6668 59.5247 61.1294 59.4993C61.592 59.4739 62.036 59.3072 62.4023 59.0212C62.7686 58.7353 63.0399 58.3436 63.18 57.8985C63.3201 57.4533 63.3225 56.9757 63.1868 56.5291C63.0511 56.0825 62.7838 55.6881 62.4204 55.3985C62.0569 55.1088 61.6146 54.9376 61.1523 54.9075C60.6899 54.8774 60.2295 54.99 59.8321 55.2302C59.4348 55.4704 59.1194 55.8268 58.928 56.2521Z" fill="#FFB6B6"/>
<path d="M48.2465 60.2816L44.5261 63.5575C44.4202 63.6507 44.2957 63.7198 44.161 63.7601C44.0262 63.8004 43.8844 63.8109 43.7453 63.791C43.6061 63.7711 43.4729 63.7212 43.3546 63.6447C43.2363 63.5682 43.1357 63.4669 43.0598 63.3477L40.3987 59.1702C39.9287 58.6215 39.6937 57.9074 39.7453 57.1843C39.7968 56.4612 40.1307 55.7882 40.6737 55.3129C41.2167 54.8376 41.9245 54.5988 42.6419 54.6488C43.3593 54.6988 44.0277 55.0336 44.5007 55.5797L48.2375 58.7886C48.3445 58.8805 48.4305 58.9946 48.4898 59.1231C48.5491 59.2515 48.5802 59.3914 48.5811 59.533C48.5819 59.6747 48.5525 59.8149 48.4947 59.9441C48.437 60.0733 48.3523 60.1884 48.2465 60.2816Z" fill="#E4E4E4"/>
<path d="M43.2494 49.5082C44.5742 47.065 43.6835 44.0017 41.26 42.6661C38.8365 41.3306 35.7978 42.2285 34.473 44.6717C33.1482 47.1149 34.0389 50.1782 36.4624 51.5138C38.8859 52.8493 41.9245 51.9514 43.2494 49.5082Z" fill="#FFB6B6"/>
<path d="M40.2375 40.1117H39.2234C38.7367 39.9581 38.2295 39.8803 37.7195 39.8809C37.6354 39.8809 37.5519 39.883 37.4688 39.8871C36.5207 39.9473 35.6141 40.3011 34.8729 40.9001C34.1317 41.4992 33.5919 42.3143 33.3275 43.2342C32.1935 47.0499 32.6833 51.2719 32.6833 51.2719C34.3384 52.0266 36.868 52.585 40.6038 52.1258L41.1532 49.8042L41.1074 52.0566C41.634 51.9827 42.1834 51.8873 42.7556 51.7704V46.8042H45.0448C45.0448 43.1071 43.9048 40.1117 40.2375 40.1117Z" fill="#2F2E41"/>
<path d="M154.529 84.636H82.6486C82.5986 84.636 82.5506 84.6159 82.5152 84.5803C82.4798 84.5446 82.46 84.4962 82.46 84.4458C82.46 84.3953 82.4798 84.347 82.5152 84.3113C82.5506 84.2756 82.5986 84.2556 82.6486 84.2556H154.529C154.579 84.2556 154.627 84.2756 154.662 84.3113C154.697 84.347 154.717 84.3953 154.717 84.4458C154.717 84.4962 154.697 84.5446 154.662 84.5803C154.627 84.6159 154.579 84.636 154.529 84.636Z" fill="#F0F0F0"/>
<path d="M154.623 108.886V36.422C154.623 36.3716 154.642 36.3232 154.678 36.2875C154.713 36.2519 154.761 36.2318 154.811 36.2318C154.861 36.2318 154.909 36.2519 154.945 36.2875C154.98 36.3232 155 36.3716 155 36.422V108.886C155 108.936 154.98 108.984 154.945 109.02C154.909 109.056 154.861 109.076 154.811 109.076C154.761 109.076 154.713 109.056 154.678 109.02C154.642 108.984 154.623 108.936 154.623 108.886Z" fill="#F0F0F0"/>
<path d="M143.869 94.3358C145.536 94.3358 146.888 92.9734 146.888 91.2927C146.888 89.6121 145.536 88.2496 143.869 88.2496C142.202 88.2496 140.851 89.6121 140.851 91.2927C140.851 92.9734 142.202 94.3358 143.869 94.3358Z" fill="#F0F0F0"/>
<path d="M70.48 8.55868C72.1471 8.55868 73.4986 7.19625 73.4986 5.51559C73.4986 3.83494 72.1471 2.4725 70.48 2.4725C68.8129 2.4725 67.4614 3.83494 67.4614 5.51559C67.4614 7.19625 68.8129 8.55868 70.48 8.55868Z" fill="#F0F0F0"/>
<path d="M69.2573 127.81C69.2573 127.835 69.2525 127.86 69.2431 127.883C69.2336 127.906 69.2197 127.927 69.2022 127.945C69.1847 127.962 69.1638 127.976 69.1409 127.986C69.118 127.995 69.0934 128 69.0686 128H-2.81134C-2.86137 128 -2.90936 127.98 -2.94474 127.944C-2.98012 127.909 -3 127.86 -3 127.81C-3 127.759 -2.98012 127.711 -2.94474 127.675C-2.90936 127.64 -2.86137 127.62 -2.81134 127.62H69.0686C69.0934 127.62 69.118 127.624 69.1409 127.634C69.1638 127.643 69.1847 127.657 69.2022 127.675C69.2197 127.693 69.2336 127.714 69.2431 127.737C69.2525 127.76 69.2573 127.785 69.2573 127.81Z" fill="#CACACA"/>
<path d="M75.068 69.5248C68.8091 63.2759 65.1519 54.8545 64.8428 45.9796L65.597 45.9523C65.8994 54.6341 69.4772 62.8723 75.6 68.9852L75.068 69.5248Z" fill="#3F3D56"/>
<path d="M83.1632 61.3772L82.6161 61.8984C78.4467 57.46 75.5039 51.9975 74.0811 46.0553L74.4471 45.9659H74.8357C76.2351 51.7417 79.1025 57.0505 83.1557 61.3696L83.1632 61.3772Z" fill="#3F3D56"/>
<path d="M90.4381 54.0776L90.1551 54.3154L90.1494 54.3211L89.8589 54.5645C87.742 52.012 85.9975 49.1678 84.6782 46.118L85.0235 45.9659H85.4367C86.7145 48.882 88.391 51.6035 90.4174 54.051C90.4237 54.0603 90.4306 54.0692 90.4381 54.0776Z" fill="#3F3D56"/>
</g>
<defs>
<clipPath id="clip0_1148_1389">
<rect width="158" height="128" fill="white" transform="translate(-3)"/>
</clipPath>
</defs>
</svg>
