<svg width="142" height="90" viewBox="0 0 142 90" fill="none" xmlns="http://www.w3.org/2000/svg">
<g clip-path="url(#clip0_1148_1549)">
<path d="M29.4791 52.6915C23.059 46.4571 20.3475 39.9531 21.8438 34.3777C23.764 27.2228 32.2945 22.2758 45.248 20.8052L45.2958 21.2156C32.5227 22.6657 24.1223 27.5016 22.2486 34.4833C20.7924 39.9093 23.4646 46.2713 29.7729 52.3972L29.4791 52.6915Z" fill="#F0F0F0"/>
<path d="M91.4218 74.8217C83.4091 74.8217 74.702 73.6472 66.0533 71.3886C55.3581 68.5955 45.5517 64.3797 37.6943 59.1968L37.927 58.8535C45.7465 64.0113 55.5095 68.2079 66.1604 70.9892C75.7856 73.503 85.4829 74.6676 94.2004 74.3603L94.2156 74.7729C93.2949 74.8056 92.3637 74.8219 91.4218 74.8217Z" fill="#F0F0F0"/>
<path d="M109.804 72.2243L109.67 71.833C116.836 69.4429 121.318 65.5928 122.632 60.6984C124.301 54.4765 120.674 47.2564 112.417 40.3681C104.118 33.4448 92.1511 27.7002 78.7197 24.1927L78.8269 23.7933C92.3169 27.3163 104.342 33.0906 112.687 40.0528C121.075 47.0498 124.75 54.4195 123.036 60.8041C121.685 65.8388 117.109 69.7878 109.804 72.2243Z" fill="#F0F0F0"/>
<path d="M44.0014 74.9944C28.2571 68.1062 16.1249 59.1698 9.83984 49.8309L10.1886 49.6024C16.4302 58.8766 28.4987 67.7602 44.1711 74.6168L44.0014 74.9944Z" fill="#F0F0F0"/>
<path d="M99.3574 86.9275C97.7335 86.9275 96.0818 86.8918 94.4023 86.8202L94.4203 86.4076C106.953 86.9429 118.012 85.4633 126.401 82.1282L126.558 82.5114C119.239 85.4204 109.911 86.9275 99.3574 86.9275Z" fill="#F0F0F0"/>
<path d="M90.222 21.1756C87.6197 20.3398 84.943 19.5616 82.2664 18.8626C66.8632 14.8401 51.7216 13.4119 38.4781 14.7332L38.436 14.3222C51.7289 12.9966 66.9223 14.4282 82.3735 18.4633C85.0578 19.1643 87.742 19.9447 90.3516 20.7829L90.222 21.1756Z" fill="#F0F0F0"/>
<path d="M19.6393 53.311C13.2192 47.0766 10.5077 40.5726 12.004 34.9972C13.9242 27.8423 22.4547 22.8953 35.4081 21.4247L35.456 21.8351C22.6828 23.2852 14.2825 28.1211 12.4088 35.1028C10.9526 40.5288 13.6247 46.8908 19.9331 53.0168L19.6393 53.311Z" fill="#F0F0F0"/>
<path d="M81.5819 75.4414C73.5693 75.4414 64.8621 74.2668 56.2134 72.0082C45.5182 69.2151 35.7118 64.9993 27.8545 59.8164L28.0872 59.4731C35.9067 64.631 45.6696 68.8275 56.3206 71.6089C65.9457 74.1226 75.643 75.2873 84.3606 74.9799L84.3757 75.3926C83.4551 75.4252 82.5238 75.4415 81.5819 75.4414Z" fill="#F0F0F0"/>
<path d="M99.964 72.8439L99.8298 72.4526C106.996 70.0626 111.478 66.2124 112.792 61.3181C114.462 55.0962 110.834 47.8761 102.577 40.9877C94.2784 34.0644 82.3113 28.3198 68.8799 24.8123L68.987 24.413C82.4771 27.9359 94.5025 33.7103 102.848 40.6724C111.235 47.6695 114.91 55.0391 113.197 61.4237C111.845 66.4585 107.27 70.4074 99.964 72.8439Z" fill="#F0F0F0"/>
<path d="M34.1616 75.614C18.4172 68.7259 6.28501 59.7894 0 50.4505L0.348795 50.222C6.59037 59.4962 18.6589 68.3798 34.3313 75.2365L34.1616 75.614Z" fill="#F0F0F0"/>
<path d="M89.5176 87.547C87.8936 87.547 86.2419 87.5113 84.5625 87.4397L84.5805 87.0271C97.1135 87.5624 108.172 86.0828 116.561 82.7477L116.718 83.1309C109.399 86.0399 100.071 87.547 89.5176 87.547Z" fill="#F0F0F0"/>
<path d="M80.3826 21.7952C77.7804 20.9594 75.1037 20.1812 72.427 19.4822C57.0238 15.4597 41.8823 14.0316 28.6388 15.3529L28.5967 14.9418C41.8896 13.6162 57.0829 15.0478 72.5342 19.0829C75.2184 19.7839 77.9026 20.5643 80.5122 21.4025L80.3826 21.7952Z" fill="#F0F0F0"/>
<path d="M7.13675 42.2481C10.1457 38.9203 14.9455 36.892 19.2951 38.1062C15.2824 40.9074 12.4034 45.0185 11.1676 49.712C10.6977 51.5238 10.3662 53.5872 8.8387 54.695C7.88827 55.3843 6.62891 55.549 5.46007 55.392C4.29117 55.235 3.18595 54.7866 2.09564 54.3423L1.80225 54.3673C2.64577 49.9864 4.1278 45.576 7.13675 42.2481Z" fill="#F2F2F2"/>
<path d="M19.282 38.1987C15.6454 39.0673 12.3787 41.0441 9.94585 43.8484C9.41125 44.4429 8.97499 45.1169 8.65314 45.8454C8.36286 46.5651 8.27324 47.3483 8.3936 48.1137C8.49129 48.8296 8.67525 49.5507 8.59483 50.2775C8.54806 50.649 8.42222 51.0065 8.22557 51.3266C8.02891 51.6467 7.76588 51.9222 7.45372 52.135C6.6899 52.6852 5.77121 52.9318 4.86432 53.1422C3.85739 53.3759 2.80775 53.6028 1.98694 54.2629C1.88749 54.3429 1.7675 54.186 1.8668 54.1061C3.29487 52.9576 5.27956 53.1051 6.85958 52.2709C7.59685 51.8817 8.21967 51.2709 8.3711 50.4328C8.50351 49.6999 8.31445 48.9561 8.20919 48.2321C8.08068 47.4871 8.13904 46.7225 8.37919 46.0049C8.6624 45.2625 9.07161 44.5731 9.5893 43.9662C10.7327 42.5815 12.0897 41.3828 13.6105 40.4139C15.3401 39.2986 17.2503 38.4834 19.2585 38.0035C19.3828 37.9739 19.4055 38.1693 19.282 38.1987Z" fill="white"/>
<path d="M10.6751 42.9001C10.2536 42.4336 10.0139 41.8344 9.9988 41.2097C9.98373 40.5849 10.1943 39.9752 10.5929 39.4894C10.6738 39.3914 10.8321 39.5109 10.751 39.6091C10.379 40.0608 10.1829 40.6287 10.1981 41.2105C10.2134 41.7922 10.4389 42.3495 10.8341 42.7816C10.9198 42.8756 10.7604 42.9935 10.6751 42.9001Z" fill="white"/>
<path d="M8.29526 47.7573C9.58748 47.8419 10.8646 47.443 11.8719 46.6401C11.9716 46.5605 12.0917 46.7173 11.992 46.7969C10.9422 47.6305 9.61235 48.0429 8.26783 47.9519C8.13968 47.9432 8.16781 47.7485 8.29526 47.7573Z" fill="white"/>
<path d="M15.3848 39.5554C15.5098 39.7694 15.6867 39.9495 15.8997 40.0794C16.1126 40.2093 16.355 40.2851 16.6049 40.2998C16.7331 40.3069 16.7049 40.5015 16.5775 40.4944C16.3014 40.4769 16.0339 40.393 15.7983 40.2499C15.5627 40.1069 15.3662 39.9092 15.2259 39.6739C15.2108 39.6529 15.2044 39.6269 15.208 39.6013C15.2116 39.5758 15.2249 39.5525 15.2453 39.5363C15.2664 39.5207 15.2929 39.514 15.3191 39.5175C15.3452 39.5211 15.3688 39.5347 15.3848 39.5554Z" fill="white"/>
<path d="M25.4695 51.9212C25.3894 51.919 25.3092 51.9167 25.228 51.9158C24.1499 51.8915 23.0716 51.9535 22.0037 52.1014C21.921 52.1115 21.8373 52.1231 21.755 52.1355C19.1861 52.5189 16.7116 53.3693 14.4575 54.6437C13.561 55.1517 12.7049 55.7261 11.8967 56.3622C10.7807 57.2406 9.64146 58.2807 8.33485 58.7309C8.19907 58.7794 8.06037 58.8195 7.91956 58.8511L1.85597 54.7185C1.84696 54.7023 1.83694 54.6874 1.82787 54.6711L1.57812 54.517C1.61748 54.4814 1.65908 54.4452 1.69844 54.4095C1.72118 54.3887 1.74528 54.3689 1.76802 54.3481C1.78361 54.3345 1.79927 54.321 1.81255 54.3079C1.81773 54.3033 1.82297 54.2988 1.82719 54.2957C1.84047 54.2825 1.85422 54.2717 1.86654 54.26C2.0985 54.0572 2.3323 53.8557 2.56795 53.6554C2.56891 53.654 2.56891 53.654 2.57122 53.6536C4.3707 52.132 6.31477 50.7453 8.41041 49.6938C8.47347 49.6622 8.53742 49.6291 8.60325 49.5994C9.55053 49.1306 10.5351 48.7389 11.547 48.4283C12.1017 48.26 12.6647 48.1195 13.2337 48.0073C14.7047 47.7203 16.2123 47.6633 17.7012 47.8385C20.6694 48.188 23.4911 49.47 25.3307 51.7459C25.3777 51.8042 25.4235 51.8616 25.4695 51.9212Z" fill="#F2F2F2"/>
<path d="M25.4029 51.9878C21.9691 50.5215 18.1543 50.1597 14.5002 50.9539C13.7105 51.1111 12.9509 51.3901 12.2492 51.7806C11.5782 52.1828 11.0286 52.755 10.6576 53.4376C10.2986 54.0672 10.0054 54.7522 9.49756 55.2848C9.2335 55.5536 8.91483 55.7643 8.56243 55.9031C8.21003 56.0419 7.83187 56.1056 7.45275 56.0902C6.50707 56.0758 5.62301 55.7271 4.77049 55.3565C3.82393 54.945 2.84735 54.5028 1.78909 54.5424C1.66086 54.5472 1.66082 54.3507 1.78885 54.3459C3.63004 54.277 5.12471 55.5735 6.89541 55.8458C7.72165 55.9729 8.59172 55.8551 9.22416 55.2759C9.7772 54.7693 10.0802 54.0632 10.4381 53.4226C10.7901 52.7515 11.3035 52.1756 11.9332 51.7452C12.6124 51.3207 13.3599 51.0133 14.1436 50.8362C15.9017 50.4097 17.7168 50.2584 19.5225 50.3881C21.5842 50.5248 23.6069 51.0084 25.5033 51.8179C25.6206 51.8681 25.5195 52.0376 25.4029 51.9878Z" fill="white"/>
<path d="M15.6613 50.6298C15.6095 50.007 15.7837 49.3862 16.153 48.8784C16.5223 48.3707 17.0626 48.0089 17.6773 47.8577C17.8018 47.8276 17.8551 48.017 17.7305 48.0472C17.1578 48.1869 16.6546 48.5239 16.3117 48.9975C15.9688 49.471 15.8088 50.0499 15.8605 50.6296C15.8716 50.7556 15.6723 50.7551 15.6613 50.6298Z" fill="white"/>
<path d="M10.7968 53.0947C11.7769 53.9298 13.0401 54.3697 14.3344 54.3269C14.4626 54.3226 14.4627 54.5191 14.3347 54.5234C12.9876 54.5655 11.6741 54.105 10.6561 53.2338C10.5591 53.1507 10.7004 53.0121 10.7968 53.0947Z" fill="white"/>
<path d="M21.4632 50.7565C21.4324 51.0016 21.4638 51.2504 21.5545 51.4806C21.6452 51.7108 21.7925 51.9152 21.9831 52.0754C22.0811 52.1572 21.9397 52.2959 21.8424 52.2145C21.6327 52.0366 21.4703 51.8107 21.3694 51.5566C21.2686 51.3024 21.2324 51.0278 21.264 50.7567C21.2648 50.7309 21.2755 50.7064 21.294 50.6881C21.3125 50.6698 21.3373 50.6592 21.3635 50.6583C21.3899 50.6584 21.4152 50.6688 21.4338 50.6872C21.4525 50.7055 21.4631 50.7304 21.4632 50.7565Z" fill="white"/>
<path d="M125.038 69.5285C123.338 65.3966 119.508 61.895 114.998 61.5964C117.823 65.5651 119.134 70.3915 118.698 75.2217C118.524 77.084 118.133 79.1373 119.194 80.687C119.854 81.6513 120.984 82.2239 122.139 82.4636C123.293 82.7033 124.487 82.6474 125.665 82.5904L125.933 82.7113C126.631 78.3056 126.738 73.6604 125.038 69.5285Z" fill="#F2F2F2"/>
<path d="M114.979 61.6881C118.108 63.7119 120.511 66.6568 121.847 70.1045C122.148 70.8417 122.329 71.621 122.384 72.4139C122.412 73.188 122.23 73.9553 121.856 74.6363C121.52 75.2781 121.101 75.8963 120.929 76.6075C120.846 76.9729 120.843 77.3513 120.919 77.718C120.995 78.0847 121.149 78.4314 121.371 78.7353C121.903 79.5067 122.684 80.0436 123.466 80.5424C124.335 81.0963 125.246 81.658 125.794 82.5519C125.861 82.6602 126.027 82.5522 125.961 82.444C125.007 80.8889 123.088 80.3698 121.884 79.0603C121.322 78.4492 120.944 77.6675 121.087 76.8279C121.212 76.0938 121.643 75.456 121.989 74.809C122.364 74.1499 122.569 73.4104 122.588 72.6549C122.574 71.8619 122.423 71.0769 122.143 70.3337C121.537 68.6505 120.668 67.0716 119.566 65.6548C118.317 64.031 116.795 62.6299 115.067 61.5121C114.96 61.443 114.872 61.6195 114.979 61.6881Z" fill="white"/>
<path d="M121.483 68.9693C122.039 68.6697 122.469 68.1849 122.696 67.6015C122.923 67.0181 122.933 66.374 122.723 65.7844C122.68 65.6652 122.49 65.7253 122.533 65.8447C122.73 66.3934 122.721 66.9933 122.508 67.5362C122.296 68.079 121.893 68.5291 121.374 68.805C121.261 68.8651 121.371 69.0291 121.483 68.9693Z" fill="white"/>
<path d="M122.069 74.3329C120.824 73.9842 119.757 73.1851 119.081 72.095C119.015 71.9869 118.848 72.0948 118.915 72.2028C119.62 73.336 120.732 74.1653 122.029 74.5254C122.153 74.5596 122.192 74.367 122.069 74.3329Z" fill="white"/>
<path d="M118.187 64.258C117.997 64.4181 117.769 64.5291 117.524 64.5808C117.279 64.6326 117.025 64.6235 116.785 64.5545C116.661 64.5187 116.622 64.7114 116.744 64.7469C117.01 64.822 117.291 64.8316 117.561 64.775C117.832 64.7184 118.084 64.5973 118.297 64.4223C118.318 64.4075 118.333 64.3851 118.338 64.3599C118.344 64.3346 118.339 64.3082 118.325 64.2862C118.311 64.2645 118.288 64.2494 118.262 64.2441C118.236 64.2388 118.21 64.2438 118.187 64.258Z" fill="white"/>
<path d="M104.476 72.5606C104.552 72.5851 104.628 72.6096 104.705 72.6357C105.729 72.9702 106.723 73.3861 107.678 73.8794C107.753 73.9164 107.828 73.955 107.901 73.994C110.19 75.2068 112.231 76.8282 113.919 78.7758C114.591 79.5514 115.201 80.3763 115.746 81.2432C116.498 82.4406 117.216 83.7979 118.293 84.6551C118.405 84.7458 118.522 84.8296 118.643 84.906L125.762 83.0241C125.776 83.0119 125.791 83.0011 125.805 82.9888L126.093 82.9265C126.068 82.8799 126.041 82.832 126.016 82.7854C126.002 82.7582 125.986 82.7315 125.971 82.7044C125.961 82.6865 125.951 82.6685 125.943 82.6518C125.94 82.6458 125.936 82.6398 125.934 82.6354C125.926 82.6187 125.916 82.6039 125.909 82.5888C125.759 82.3209 125.608 82.0536 125.454 81.7868C125.454 81.7852 125.454 81.7852 125.452 81.784C124.275 79.7544 122.917 77.8038 121.301 76.1186C121.253 76.068 121.204 76.0156 121.152 75.9658C120.419 75.2102 119.626 74.5149 118.778 73.8869C118.313 73.5445 117.831 73.2255 117.333 72.9312C116.046 72.1732 114.645 71.6196 113.183 71.2909C110.269 70.6361 107.174 70.908 104.666 72.4416C104.602 72.4809 104.539 72.5198 104.476 72.5606Z" fill="#F2F2F2"/>
<path d="M104.516 72.6455C108.25 72.403 111.966 73.327 115.137 75.2865C115.827 75.6964 116.447 76.211 116.975 76.8115C117.47 77.4128 117.793 78.1338 117.91 78.8997C118.033 79.6117 118.076 80.3541 118.373 81.0241C118.53 81.3648 118.758 81.6689 119.043 81.9165C119.327 82.164 119.662 82.3494 120.024 82.4606C120.92 82.7606 121.871 82.7253 122.8 82.6589C123.832 82.5852 124.903 82.4925 125.886 82.8806C126.005 82.9276 126.072 82.7425 125.953 82.6956C124.242 82.0203 122.393 82.7458 120.632 82.4152C119.811 82.261 119.032 81.8616 118.633 81.1063C118.285 80.4459 118.24 79.6804 118.122 78.9584C118.019 78.2096 117.731 77.497 117.285 76.8829C116.79 76.2579 116.191 75.7206 115.513 75.2939C114.002 74.3093 112.344 73.5651 110.599 73.0885C108.611 72.5338 106.541 72.3186 104.479 72.4523C104.352 72.4607 104.389 72.6538 104.516 72.6455Z" fill="white"/>
<path d="M114.153 74.5963C114.414 74.0269 114.462 73.3844 114.287 72.7838C114.112 72.1831 113.726 71.6632 113.199 71.3171C113.092 71.2474 112.977 71.4081 113.084 71.4779C113.576 71.7993 113.935 72.2836 114.097 72.8433C114.258 73.4029 114.212 74.0012 113.966 74.53C113.912 74.645 114.1 74.7106 114.153 74.5963Z" fill="white"/>
<path d="M117.895 78.5306C116.687 78.9921 115.348 78.9877 114.143 78.5182C114.024 78.4716 113.957 78.6567 114.076 78.7032C115.331 79.1895 116.725 79.1913 117.98 78.7083C118.1 78.6621 118.014 78.4847 117.895 78.5306Z" fill="white"/>
<path d="M108.646 72.792C108.591 73.0331 108.477 73.2571 108.313 73.4438C108.149 73.6306 107.941 73.7742 107.707 73.8619C107.587 73.9065 107.673 74.0839 107.792 74.0396C108.05 73.9415 108.28 73.7826 108.462 73.5767C108.643 73.3708 108.771 73.1241 108.833 72.8583C108.841 72.8338 108.84 72.8071 108.828 72.7837C108.817 72.7604 108.798 72.7421 108.773 72.7327C108.748 72.724 108.721 72.7254 108.697 72.7365C108.673 72.7476 108.655 72.7676 108.646 72.792Z" fill="white"/>
<path d="M92.0562 83.5981C92.9812 83.5981 93.7311 82.8584 93.7311 81.946C93.7311 81.0335 92.9812 80.2938 92.0562 80.2938C91.1312 80.2938 90.3813 81.0335 90.3813 81.946C90.3813 82.8584 91.1312 83.5981 92.0562 83.5981Z" fill="#FD6584"/>
<path d="M97.9888 55.4582C98.9138 55.4582 99.6637 54.7185 99.6637 53.8061C99.6637 52.8936 98.9138 52.1539 97.9888 52.1539C97.0638 52.1539 96.314 52.8936 96.314 53.8061C96.314 54.7185 97.0638 55.4582 97.9888 55.4582Z" fill="#E6E6E6"/>
<path d="M66.8238 9.63072C67.7488 9.63072 68.4986 8.89103 68.4986 7.97857C68.4986 7.06611 67.7488 6.32642 66.8238 6.32642C65.8988 6.32642 65.1489 7.06611 65.1489 7.97857C65.1489 8.89103 65.8988 9.63072 66.8238 9.63072Z" fill="#E6E6E6"/>
<path d="M31.7261 71.3549C31.7261 71.7755 31.7401 72.196 31.77 72.6132C31.8015 73.1116 31.8559 73.6066 31.9296 74.0981C32.1773 75.7531 32.6506 77.3675 33.3367 78.8974C33.3718 78.9736 33.4069 79.0497 33.442 79.1259L33.4946 79.2401C33.5122 79.2782 33.5315 79.3162 33.549 79.3526C33.5736 79.4028 33.5964 79.4512 33.621 79.4997C33.6508 79.5603 33.6806 79.6208 33.7122 79.6814C33.7157 79.6883 33.7192 79.697 33.7245 79.7057C33.7508 79.7576 33.7754 79.8078 33.8034 79.8597C33.8086 79.871 33.8145 79.882 33.821 79.8926C33.8508 79.9514 33.8824 80.012 33.914 80.0708C33.9491 80.1332 33.9824 80.1972 34.0175 80.2595C34.1017 80.4135 34.1894 80.5658 34.2789 80.7181C34.3052 80.7631 34.3315 80.8081 34.3596 80.8531C34.3842 80.8947 34.4087 80.9362 34.4351 80.9777C34.4526 81.0054 34.4701 81.0348 34.4877 81.0625C34.5158 81.1093 34.5438 81.1543 34.5737 81.201C34.6386 81.3031 34.7052 81.4052 34.7702 81.5073H34.7719C34.8017 81.5541 34.8333 81.6008 34.8649 81.6458V81.6475C34.9579 81.786 35.0544 81.9244 35.1509 82.0612L35.1516 82.0613L35.1522 82.0617L35.1525 82.0622L35.1527 82.0629C35.2299 82.1737 35.3106 82.281 35.3895 82.3883V82.39C35.4421 82.4575 35.493 82.5267 35.5457 82.5942C35.5878 82.6496 35.6316 82.7067 35.6755 82.7621C35.6843 82.7742 35.6948 82.7846 35.7036 82.7967V82.7985C35.7159 82.814 35.7281 82.8279 35.7404 82.8435C35.9264 83.0788 36.1182 83.309 36.3159 83.534L36.3475 83.5704C36.358 83.5825 36.3703 83.5946 36.3808 83.6084C36.3984 83.6275 36.4141 83.6465 36.4317 83.6655C36.4475 83.6846 36.465 83.7036 36.4826 83.7227C37.513 84.8677 38.6814 85.8842 39.9618 86.7497C40.132 86.8657 40.3057 86.9782 40.4794 87.0872C40.5232 87.1149 40.5671 87.1426 40.6109 87.1685C40.6232 87.1772 40.6373 87.1858 40.6495 87.1945C40.6741 87.2083 40.6969 87.2222 40.7215 87.2378C40.7443 87.2516 40.7671 87.2655 40.7917 87.2793C40.8846 87.3364 40.9794 87.3918 41.0741 87.4472C41.0969 87.461 41.1215 87.4749 41.1461 87.4887C41.1689 87.5008 41.1934 87.5147 41.218 87.5285C41.218 87.5303 41.218 87.5303 41.2198 87.5303H41.2215V87.532H41.2233C41.3408 87.5995 41.4601 87.6653 41.5812 87.7293C41.6461 87.7639 41.7128 87.8002 41.7794 87.8331C41.9303 87.9145 42.083 87.9924 42.2356 88.0668C42.29 88.0927 42.3462 88.1187 42.4005 88.1464C42.4462 88.1672 42.4918 88.1897 42.5374 88.2104C42.5514 88.2174 42.5637 88.2225 42.576 88.2295C42.6146 88.2468 42.6514 88.2641 42.69 88.2814C42.7321 88.3004 42.7743 88.3195 42.8146 88.3385C42.862 88.3593 42.9076 88.38 42.955 88.3991C43.1304 88.477 43.3076 88.5514 43.4848 88.6223C44.1199 88.8791 44.7689 89.101 45.4288 89.2869C45.4587 89.2956 45.4902 89.3042 45.5218 89.3129C45.8043 89.3908 46.0885 89.4617 46.3745 89.5258C46.8746 89.64 47.3793 89.7335 47.8887 89.8062H47.8922C47.9536 89.8148 48.0132 89.8235 48.0746 89.8321C48.0799 89.8321 48.0852 89.8338 48.0922 89.8338C48.0922 89.8356 48.0922 89.8356 48.0939 89.8338C48.1606 89.8425 48.229 89.8512 48.2957 89.8598C48.3003 89.8611 48.305 89.8617 48.3097 89.8615C48.3729 89.8702 48.4378 89.8771 48.501 89.884C48.5694 89.891 48.6378 89.8979 48.7063 89.9048C48.7589 89.91 48.8115 89.9152 48.8642 89.9204C48.8687 89.9219 48.8735 89.9225 48.8782 89.9221C48.9256 89.9256 48.973 89.9308 49.0203 89.9342H49.0273C49.0677 89.9377 49.1098 89.9412 49.1502 89.9446C49.6397 89.9827 50.1309 90 50.6292 90C51.1679 90 51.703 89.9792 52.2311 89.9342H52.2363C52.3504 89.9238 52.4627 89.9135 52.575 89.9031C52.6048 89.8996 52.6329 89.8979 52.6627 89.8944C52.668 89.8944 52.675 89.8927 52.6802 89.8927C52.689 89.891 52.6978 89.891 52.7083 89.8892C52.7131 89.8894 52.7178 89.8888 52.7223 89.8875C52.7609 89.884 52.7995 89.8788 52.8399 89.8754L52.9715 89.8598C53.0153 89.8546 53.0592 89.8477 53.1031 89.8425C53.1136 89.8408 53.1224 89.8408 53.1329 89.839C53.1645 89.8356 53.1961 89.8304 53.2276 89.8252C53.2434 89.8235 53.2592 89.8217 53.2733 89.82C53.3048 89.8148 53.3347 89.8114 53.3662 89.8062H53.368C54.3308 89.6694 55.2811 89.4582 56.2103 89.1745C56.2594 89.1589 56.3086 89.145 56.3577 89.1295C56.3594 89.1295 56.3612 89.1277 56.363 89.1277C56.377 89.1225 56.3928 89.1191 56.4068 89.1139C56.5384 89.0723 56.6682 89.0291 56.7981 88.9841C56.977 88.9252 57.1542 88.8612 57.3314 88.7954C57.3788 88.7764 57.4262 88.7591 57.4736 88.74C57.5701 88.7037 57.6648 88.6656 57.7595 88.6275C57.921 88.5635 58.0824 88.496 58.242 88.4268C58.3912 88.361 58.5386 88.2952 58.6859 88.226C58.6894 88.2243 58.6947 88.2243 58.6982 88.2208C58.7315 88.2052 58.7649 88.1897 58.7965 88.1741H58.7982C59.6062 87.7916 60.3854 87.3526 61.13 86.8605C61.3686 86.703 61.6037 86.5403 61.8353 86.3724C62.0213 86.2357 62.2037 86.0972 62.3862 85.9553C63.2864 85.249 64.1197 84.4635 64.8759 83.6084V83.6067C64.9302 83.5479 64.9811 83.4873 65.0338 83.4267C65.0425 83.4181 65.0496 83.4094 65.0566 83.4025C65.0899 83.3627 65.1215 83.3246 65.1548 83.2865V83.2848C65.1987 83.2346 65.2425 83.1827 65.2847 83.1308C65.2952 83.1187 65.3039 83.1083 65.3127 83.0979V83.0961C65.3478 83.0546 65.3811 83.0131 65.4162 82.9698C65.4338 82.949 65.4496 82.9283 65.4671 82.9075V82.9058C65.5706 82.7777 65.6706 82.6496 65.7706 82.5181C65.797 82.4835 65.8233 82.4471 65.8514 82.4108C65.9777 82.2429 66.1005 82.0716 66.2198 81.9002V81.8985C66.2654 81.8344 66.3093 81.7687 66.3549 81.7046C66.3988 81.6389 66.4426 81.5731 66.4865 81.5073C66.5304 81.4381 66.576 81.3706 66.6198 81.3014L66.6251 81.291C66.669 81.2252 66.7128 81.156 66.7549 81.0885C66.7883 81.0331 66.8216 80.9795 66.8549 80.9258C66.876 80.8895 66.8988 80.8531 66.9199 80.8151C66.9281 80.8033 66.9357 80.7912 66.9427 80.7787C66.9918 80.6939 67.0409 80.6091 67.09 80.5243C67.1479 80.4257 67.2041 80.3253 67.2602 80.2249C67.2813 80.1834 67.3041 80.1418 67.3269 80.1003C67.3357 80.0864 67.3427 80.0726 67.3497 80.0587C67.376 80.0103 67.4023 79.9601 67.4269 79.9099C67.4532 79.8614 67.4795 79.8113 67.5059 79.7611C67.5304 79.7126 67.5567 79.6624 67.5813 79.6122C67.6006 79.5741 67.6181 79.5361 67.6375 79.498C67.6388 79.4949 67.6406 79.492 67.6427 79.4893C67.6515 79.4703 67.6603 79.453 67.6673 79.4357C67.6694 79.433 67.6712 79.4301 67.6725 79.427C67.6918 79.3889 67.7094 79.3491 67.7287 79.3111C67.7533 79.2609 67.7761 79.209 67.8006 79.1588C67.8164 79.1241 67.834 79.0878 67.8498 79.0515C67.8726 79.0013 67.8971 78.9511 67.9182 78.8992C67.9427 78.8472 67.9655 78.7953 67.9884 78.7417C67.9949 78.7287 68.0008 78.7154 68.0059 78.7019C68.0182 78.6776 68.027 78.6534 68.0375 78.6292C68.0656 78.5651 68.0936 78.4994 68.1199 78.4353C68.1515 78.3626 68.1814 78.2882 68.2094 78.2155C68.2375 78.148 68.2638 78.0788 68.2901 78.0096L68.3007 77.9853C68.7095 76.9232 69.0195 75.8266 69.227 74.7091V74.7073C69.3441 74.0693 69.4278 73.4258 69.4779 72.7793C69.4797 72.743 69.4832 72.7084 69.485 72.6737C69.5165 72.2359 69.5306 71.7963 69.5306 71.3549C69.5306 71.1594 69.5271 70.9655 69.5218 70.7717C69.3993 66.7177 67.9338 62.8149 65.3496 59.6604C65.2934 59.5912 65.2373 59.522 65.1794 59.4527C65.1215 59.3835 65.0618 59.316 65.0039 59.2485C63.0806 57.0266 60.6549 55.2816 57.9224 54.1542C55.19 53.0268 52.2272 52.5484 49.2729 52.7578C46.3186 52.9671 43.4556 53.8583 40.9145 55.3594C38.3735 56.8605 36.2255 58.9296 34.6439 61.3998C34.5579 61.5348 34.4719 61.6715 34.3895 61.8083C34.3052 61.9467 34.2245 62.0852 34.1438 62.2254C32.5543 65.0124 31.7215 68.1571 31.7261 71.3549Z" fill="#F2F2F2"/>
<path d="M49.8779 59.1592C52.9862 59.9459 56.1714 60.3994 59.3783 60.5118C59.8632 60.5378 60.3493 60.5346 60.8339 60.502C61.8987 60.4137 62.8108 60.0835 63.8266 59.9031C64.3149 59.8166 64.8589 59.7534 65.3505 59.6599C65.2369 59.5209 65.1213 59.3836 65.0036 59.248C63.9435 59.3363 62.8669 59.6255 61.7941 59.7599C59.9703 59.9887 57.927 59.7334 56.5444 59.1038C55.8737 58.7983 55.3599 58.4171 54.6915 58.1102C54.6006 58.0642 54.5021 58.0344 54.4007 58.0223C54.208 58.0166 54.0176 58.0653 53.852 58.1627C52.7306 58.7212 51.1025 59.175 49.5913 58.9253C49.4787 59.0122 49.6927 59.1113 49.8779 59.1592Z" fill="white"/>
<path d="M43.1904 61.1244C43.1766 61.1219 43.1627 61.12 43.1489 61.1176C43.207 61.0821 43.2616 61.0415 43.3122 60.9962L43.1904 61.1244Z" fill="white"/>
<path d="M34.144 62.226C34.7752 62.2758 35.4097 62.3128 36.0474 62.3372C36.5324 62.363 37.0185 62.3597 37.503 62.3274C38.5678 62.2386 39.4799 61.9089 40.4957 61.7285C41.4266 61.5634 42.5579 61.4839 43.149 61.1175C41.6213 60.8567 40.0385 61.3877 38.4632 61.5853C37.1889 61.7398 35.8972 61.6769 34.6446 61.3993C34.4702 61.6699 34.3034 61.9455 34.144 62.226Z" fill="white"/>
<path d="M41.7793 87.8332C41.9302 87.9145 42.0828 87.9924 42.2355 88.0668C42.2899 88.0928 42.346 88.1187 42.4004 88.1464C42.446 88.1672 42.4916 88.1897 42.5372 88.2105C42.5513 88.2174 42.5636 88.2226 42.5758 88.2295C42.6144 88.2468 42.6513 88.2641 42.6899 88.2814C42.732 88.3005 42.7741 88.3195 42.8145 88.3385C42.8618 88.3593 42.9075 88.3801 42.9548 88.3991C43.1303 88.477 43.3075 88.5514 43.4847 88.6224C44.1197 88.8792 44.7687 89.101 45.4287 89.287C45.4585 89.2956 45.4901 89.3043 45.5217 89.3129C45.8042 89.3908 46.0884 89.4618 46.3744 89.5258C46.8744 89.64 47.3791 89.7335 47.8885 89.8062H47.892C47.9534 89.8148 48.0131 89.8235 48.0745 89.8321C48.0798 89.8321 48.085 89.8339 48.092 89.8339C48.092 89.8356 48.092 89.8356 48.0938 89.8339C48.1605 89.8425 48.2289 89.8512 48.2956 89.8598C48.3001 89.8612 48.3049 89.8618 48.3096 89.8616C48.3728 89.8702 48.4377 89.8771 48.5008 89.8841C48.5693 89.891 48.6377 89.8979 48.7061 89.9048C48.7588 89.91 48.8114 89.9152 48.864 89.9204C48.8685 89.9219 48.8733 89.9225 48.8781 89.9221C48.9254 89.9256 48.9728 89.9308 49.0202 89.9343H49.0272C49.0676 89.9377 49.1097 89.9412 49.15 89.9447C49.6395 89.9827 50.1308 90 50.6291 90C51.1677 90 51.7028 89.9793 52.2309 89.9343H52.2362C52.3502 89.9239 52.4625 89.9135 52.5748 89.9031C52.6046 89.8996 52.6327 89.8979 52.6625 89.8944C52.6678 89.8944 52.6748 89.8927 52.6801 89.8927C52.6889 89.891 52.6976 89.891 52.7082 89.8893C52.7129 89.8894 52.7176 89.8889 52.7222 89.8875C52.7608 89.8841 52.7994 89.8789 52.8398 89.8754L52.9713 89.8598C53.0152 89.8546 53.0591 89.8477 53.1029 89.8425C53.1135 89.8408 53.1222 89.8408 53.1328 89.8391C53.1643 89.8356 53.1959 89.8304 53.2275 89.8252C53.2433 89.8235 53.2591 89.8218 53.2731 89.82C53.3047 89.8148 53.3345 89.8114 53.3661 89.8062H53.3679C54.3306 89.6695 55.281 89.4583 56.2102 89.1745C56.2593 89.1589 56.3084 89.145 56.3576 89.1295C56.131 88.0873 55.6646 87.1104 54.9944 86.2744C54.3242 85.4383 53.4682 84.7654 52.4924 84.3077C52.7337 84.0809 52.9006 83.7879 52.9713 83.4665C53.0169 83.2594 53.0205 83.0455 52.982 82.837C52.9434 82.6285 52.8635 82.4295 52.7468 82.2516C52.5191 81.9067 52.1619 81.6652 51.7537 81.5801L49.1535 81.0435C48.7349 80.963 48.3011 81.0488 47.9463 81.2821C47.5914 81.5155 47.3443 81.8776 47.2587 82.2897C47.2321 82.416 47.2203 82.5449 47.2236 82.6739C44.7199 84.3181 42.918 86.0228 41.7793 87.8332Z" fill="#F58634"/>
<path d="M49.4567 80.0304C52.4485 80.0304 54.8739 77.638 54.8739 74.6867C54.8739 71.7355 52.4485 69.343 49.4567 69.343C46.4649 69.343 44.0396 71.7355 44.0396 74.6867C44.0396 77.638 46.4649 80.0304 49.4567 80.0304Z" fill="#FFB8B8"/>
<path d="M46.0804 79.2939C45.5027 78.9046 44.9128 78.1566 44.519 77.596C43.9971 76.8591 43.638 76.0223 43.465 75.1397C43.292 74.2571 43.3089 73.3486 43.5146 72.4729C43.5802 72.1227 43.7414 71.7969 43.9809 71.5305C44.236 71.2814 44.6528 71.1633 44.9642 71.3395C44.8792 71.115 44.8417 70.8757 44.8542 70.6364C44.8666 70.3971 44.9286 70.1628 45.0364 69.948C45.2552 69.5192 45.5724 69.1466 45.9626 68.8598C46.709 68.2928 47.597 67.9358 48.5325 67.8265C49.468 67.7173 50.416 67.8599 51.2759 68.2392C51.6143 68.3939 51.0585 67.1994 51.4127 67.3145C51.7645 67.4489 52.1557 67.4422 52.5025 67.2957C52.8356 67.1303 53.9398 68.113 53.812 67.7674C54.0648 67.8806 54.2845 68.0551 54.4505 68.2746C54.6165 68.4941 54.7235 68.7515 54.7615 69.0228C54.7996 69.2941 54.7674 69.5704 54.668 69.8261C54.5686 70.0818 54.4052 70.3086 54.1931 70.4852C53.9135 70.718 53.5644 70.8521 53.2583 71.0497C52.7219 71.422 52.3423 71.975 52.1911 72.6044C52.0398 73.2339 52.1274 73.8962 52.4374 74.4662C52.1153 74.2621 51.7619 74.1106 51.3909 74.0176C51.2047 73.9728 51.0104 73.9725 50.8241 74.0167C50.6378 74.0609 50.4649 74.1484 50.3198 74.2718C50.1985 74.4087 50.1069 74.5686 50.0506 74.7417C49.9942 74.9148 49.9744 75.0974 49.9922 75.2783C50.0043 75.641 50.0918 75.9982 50.1016 76.3609C50.1304 77.4252 50.7082 79.4485 49.8717 80.0142C49.2116 80.4606 46.8692 79.8254 46.0804 79.2939Z" fill="#2F2E41"/>
<path d="M53.1815 47.9401C53.0674 47.9398 52.9545 47.9173 52.8493 47.8738C52.6922 47.8116 52.5579 47.704 52.4638 47.5652C52.3698 47.4264 52.3205 47.2628 52.3222 47.0958V46.25C52.3221 46.0726 52.2505 45.9025 52.1234 45.777C51.9962 45.6515 51.8238 45.581 51.6439 45.5808C51.4175 45.5805 51.2005 45.4917 51.0404 45.3338C50.8803 45.1759 50.7903 44.9618 50.79 44.7385V33.1504C50.7903 32.9271 50.8803 32.713 51.0404 32.5551C51.2004 32.3972 51.4175 32.3084 51.6438 32.3081H90.5636C90.79 32.3084 91.007 32.3972 91.1671 32.5551C91.3272 32.713 91.4172 32.9271 91.4174 33.1504V44.7385C91.4172 44.9618 91.3272 45.1759 91.1671 45.3338C91.007 45.4917 90.79 45.5805 90.5636 45.5808H56.2005C56.1114 45.5805 56.0231 45.5977 55.9407 45.6314C55.8584 45.665 55.7836 45.7144 55.7207 45.7767L53.7799 47.6913C53.7018 47.7698 53.6087 47.8322 53.506 47.8749C53.4033 47.9176 53.293 47.9397 53.1815 47.9401Z" fill="white"/>
<path d="M53.1817 48.1131C53.0445 48.1129 52.9087 48.0859 52.7822 48.0337C52.5929 47.9586 52.431 47.8289 52.3176 47.6616C52.2043 47.4942 52.1448 47.297 52.147 47.0958V46.25C52.1468 46.1185 52.0938 45.9924 51.9995 45.8993C51.9053 45.8063 51.7774 45.754 51.6441 45.7538C51.3712 45.7535 51.1095 45.6464 50.9165 45.456C50.7236 45.2657 50.615 45.0076 50.6147 44.7384V33.1504C50.615 32.8812 50.7236 32.6231 50.9165 32.4328C51.1095 32.2424 51.3711 32.1353 51.644 32.135H90.5637C90.8366 32.1353 91.0983 32.2424 91.2912 32.4327C91.4842 32.6231 91.5927 32.8812 91.5931 33.1504V44.7384C91.5928 45.0076 91.4842 45.2657 91.2913 45.456C91.0983 45.6464 90.8366 45.7535 90.5637 45.7538H56.2007C56.1346 45.7536 56.0691 45.7664 56.008 45.7913C55.947 45.8163 55.8915 45.8529 55.845 45.8992L53.9041 47.8136C53.8098 47.9082 53.6973 47.9834 53.5733 48.0348C53.4493 48.0862 53.3162 48.1128 53.1817 48.1131ZM51.644 32.4812C51.4641 32.4814 51.2917 32.5519 51.1645 32.6774C51.0374 32.8029 50.9658 32.973 50.9656 33.1504V44.7384C50.9658 44.9158 51.0374 45.0859 51.1645 45.2114C51.2917 45.3369 51.4642 45.4075 51.6441 45.4077C51.8704 45.408 52.0875 45.4968 52.2475 45.6547C52.4076 45.8126 52.4976 46.0267 52.4979 46.2501V47.0958C52.4979 47.2282 52.5377 47.3575 52.6122 47.4675C52.6868 47.5776 52.7927 47.6633 52.9167 47.7139C53.0406 47.7646 53.177 47.7778 53.3086 47.752C53.4402 47.7262 53.5611 47.6625 53.6559 47.5689L55.5969 45.6544C55.676 45.576 55.77 45.5137 55.8737 45.4714C55.9773 45.429 56.0885 45.4074 56.2007 45.4077H90.5637C90.7436 45.4075 90.9161 45.3369 91.0433 45.2114C91.1705 45.0859 91.242 44.9158 91.2422 44.7384V33.1504C91.242 32.9729 91.1704 32.8028 91.0432 32.6774C90.9161 32.5519 90.7436 32.4813 90.5637 32.4812L51.644 32.4812Z" fill="#3F3D56"/>
<path d="M87.2195 37.5543H55.6596C55.5391 37.5543 55.4235 37.507 55.3382 37.4229C55.253 37.3388 55.2051 37.2248 55.2051 37.1059C55.2051 36.9869 55.253 36.8729 55.3382 36.7888C55.4235 36.7047 55.5391 36.6575 55.6596 36.6575H87.2195C87.3401 36.6575 87.4557 36.7047 87.5409 36.7888C87.6262 36.8729 87.6741 36.9869 87.6741 37.1059C87.6741 37.2248 87.6262 37.3388 87.5409 37.4229C87.4557 37.507 87.3401 37.5543 87.2195 37.5543Z" fill="#F58634"/>
<path d="M87.1615 39.4593H55.6596C55.5391 39.4593 55.4235 39.4121 55.3382 39.328C55.253 39.2439 55.2051 39.1298 55.2051 39.0109C55.2051 38.892 55.253 38.7779 55.3382 38.6938C55.4235 38.6097 55.5391 38.5625 55.6596 38.5625H87.1615C87.2821 38.5625 87.3977 38.6097 87.4829 38.6938C87.5682 38.7779 87.6161 38.892 87.6161 39.0109C87.6161 39.1298 87.5682 39.2439 87.4829 39.328C87.3977 39.4121 87.2821 39.4593 87.1615 39.4593Z" fill="#E6E6E6"/>
<path d="M87.1302 41.3642H55.6596C55.5391 41.3642 55.4235 41.317 55.3382 41.2329C55.253 41.1488 55.2051 41.0347 55.2051 40.9158C55.2051 40.7969 55.253 40.6828 55.3382 40.5987C55.4235 40.5146 55.5391 40.4674 55.6596 40.4674H87.1302C87.2507 40.4674 87.3663 40.5146 87.4516 40.5987C87.5368 40.6828 87.5847 40.7969 87.5847 40.9158C87.5847 41.0347 87.5368 41.1488 87.4516 41.2329C87.3663 41.317 87.2507 41.3642 87.1302 41.3642Z" fill="#E6E6E6"/>
<path d="M136.92 30.5098C136.92 30.9304 136.906 31.351 136.876 31.7681C136.844 32.2665 136.79 32.7615 136.716 33.253C136.469 34.908 135.995 36.5224 135.309 38.0523C135.274 38.1285 135.239 38.2046 135.204 38.2808L135.151 38.395C135.134 38.4331 135.114 38.4712 135.097 38.5075C135.072 38.5577 135.049 38.6061 135.025 38.6546C134.995 38.7152 134.965 38.7758 134.934 38.8363C134.93 38.8433 134.927 38.8519 134.921 38.8606C134.895 38.9125 134.87 38.9627 134.842 39.0146C134.837 39.0259 134.831 39.0369 134.825 39.0475C134.795 39.1063 134.763 39.1669 134.732 39.2257C134.697 39.2881 134.663 39.3521 134.628 39.4144C134.544 39.5684 134.456 39.7207 134.367 39.873C134.341 39.918 134.314 39.963 134.286 40.008C134.262 40.0496 134.237 40.0911 134.211 40.1327C134.193 40.1603 134.176 40.1898 134.158 40.2175C134.13 40.2642 134.102 40.3092 134.072 40.3559C134.007 40.458 133.941 40.5601 133.876 40.6623H133.874C133.844 40.709 133.812 40.7557 133.781 40.8007V40.8024C133.688 40.9409 133.591 41.0794 133.495 41.2161C133.495 41.2161 133.494 41.2161 133.494 41.2162C133.494 41.2163 133.494 41.2164 133.494 41.2166C133.493 41.2167 133.493 41.2169 133.493 41.2171C133.493 41.2173 133.493 41.2176 133.493 41.2178C133.416 41.3286 133.335 41.4359 133.256 41.5432V41.5449C133.204 41.6124 133.153 41.6816 133.1 41.7491C133.058 41.8045 133.014 41.8616 132.97 41.917C132.962 41.9291 132.951 41.9395 132.942 41.9516V41.9534C132.93 41.9689 132.918 41.9828 132.905 41.9984C132.719 42.2337 132.528 42.4639 132.33 42.6889L132.298 42.7253C132.288 42.7374 132.276 42.7495 132.265 42.7633C132.247 42.7824 132.232 42.8014 132.214 42.8205C132.198 42.8395 132.181 42.8585 132.163 42.8776C131.133 44.0226 129.964 45.0391 128.684 45.9046C128.514 46.0206 128.34 46.1331 128.166 46.2421C128.123 46.2698 128.079 46.2975 128.035 46.3234C128.023 46.3321 128.009 46.3407 127.996 46.3494C127.972 46.3633 127.949 46.3771 127.924 46.3927C127.902 46.4065 127.879 46.4204 127.854 46.4342C127.761 46.4913 127.666 46.5467 127.572 46.6021C127.549 46.6159 127.524 46.6298 127.5 46.6436C127.477 46.6557 127.452 46.6696 127.428 46.6834C127.428 46.6852 127.428 46.6852 127.426 46.6852H127.424V46.6869H127.423C127.305 46.7544 127.186 46.8202 127.065 46.8842C127 46.9188 126.933 46.9552 126.866 46.988C126.715 47.0694 126.563 47.1473 126.41 47.2217C126.356 47.2476 126.3 47.2736 126.245 47.3013C126.2 47.3221 126.154 47.3446 126.108 47.3653C126.094 47.3723 126.082 47.3774 126.07 47.3844C126.031 47.4017 125.994 47.419 125.956 47.4363C125.914 47.4553 125.872 47.4744 125.831 47.4934C125.784 47.5142 125.738 47.535 125.691 47.554C125.515 47.6319 125.338 47.7063 125.161 47.7773C124.526 48.034 123.877 48.2559 123.217 48.4419C123.187 48.4505 123.156 48.4592 123.124 48.4678C122.841 48.5457 122.557 48.6166 122.271 48.6807C121.771 48.7949 121.267 48.8884 120.757 48.9611H120.754C120.692 48.9697 120.633 48.9784 120.571 48.987C120.566 48.987 120.561 48.9888 120.554 48.9888C120.554 48.9905 120.554 48.9905 120.552 48.9888C120.485 48.9974 120.417 49.0061 120.35 49.0147C120.346 49.016 120.341 49.0166 120.336 49.0164C120.273 49.0251 120.208 49.032 120.145 49.0389C120.076 49.0459 120.008 49.0528 119.94 49.0597C119.887 49.0649 119.834 49.0701 119.782 49.0753C119.777 49.0768 119.772 49.0774 119.768 49.077C119.72 49.0805 119.673 49.0857 119.625 49.0891H119.618C119.578 49.0926 119.536 49.0961 119.496 49.0995C119.006 49.1376 118.515 49.1549 118.017 49.1549C117.478 49.1549 116.943 49.1341 116.415 49.0891H116.409C116.295 49.0788 116.183 49.0684 116.071 49.058C116.041 49.0545 116.013 49.0528 115.983 49.0493C115.978 49.0493 115.971 49.0476 115.966 49.0476C115.957 49.0459 115.948 49.0459 115.937 49.0441C115.933 49.0443 115.928 49.0437 115.923 49.0424C115.885 49.0389 115.846 49.0338 115.806 49.0303L115.674 49.0147C115.63 49.0095 115.587 49.0026 115.543 48.9974C115.532 48.9957 115.523 48.9957 115.513 48.9939C115.481 48.9905 115.45 48.9853 115.418 48.9801C115.402 48.9784 115.387 48.9767 115.373 48.9749C115.341 48.9697 115.311 48.9663 115.28 48.9611H115.278C114.315 48.8243 113.365 48.6131 112.435 48.3294C112.386 48.3138 112.337 48.2999 112.288 48.2844C112.286 48.2844 112.285 48.2826 112.283 48.2826C112.269 48.2774 112.253 48.274 112.239 48.2688C112.107 48.2272 111.978 48.184 111.848 48.139C111.669 48.0801 111.492 48.0161 111.314 47.9503C111.267 47.9313 111.22 47.914 111.172 47.895C111.076 47.8586 110.981 47.8205 110.886 47.7824C110.725 47.7184 110.563 47.6509 110.404 47.5817C110.255 47.5159 110.107 47.4501 109.96 47.3809C109.956 47.3792 109.951 47.3792 109.948 47.3757C109.914 47.3602 109.881 47.3446 109.849 47.329H109.848C109.04 46.9465 108.26 46.5075 107.516 46.0154C107.277 45.8579 107.042 45.6952 106.811 45.5273C106.625 45.3906 106.442 45.2521 106.26 45.1102C105.359 44.4039 104.526 43.6184 103.77 42.7634V42.7616C103.716 42.7028 103.665 42.6422 103.612 42.5816C103.603 42.573 103.596 42.5643 103.589 42.5574C103.556 42.5176 103.524 42.4795 103.491 42.4414V42.4397C103.447 42.3895 103.403 42.3376 103.361 42.2857C103.351 42.2736 103.342 42.2632 103.333 42.2528V42.2511C103.298 42.2095 103.265 42.168 103.23 42.1247C103.212 42.1039 103.196 42.0832 103.179 42.0624V42.0607C103.075 41.9326 102.975 41.8045 102.875 41.673C102.849 41.6384 102.823 41.602 102.794 41.5657C102.668 41.3978 102.545 41.2265 102.426 41.0551V41.0534C102.38 40.9894 102.337 40.9236 102.291 40.8596C102.247 40.7938 102.203 40.728 102.159 40.6623C102.115 40.593 102.07 40.5255 102.026 40.4563L102.021 40.4459C101.977 40.3802 101.933 40.3109 101.891 40.2434C101.858 40.188 101.824 40.1344 101.791 40.0807C101.77 40.0444 101.747 40.008 101.726 39.97C101.718 39.9583 101.71 39.9461 101.703 39.9336C101.654 39.8488 101.605 39.764 101.556 39.6792C101.498 39.5806 101.442 39.4802 101.386 39.3798C101.365 39.3383 101.342 39.2967 101.319 39.2552C101.31 39.2413 101.303 39.2275 101.296 39.2136C101.27 39.1652 101.243 39.115 101.219 39.0648C101.193 39.0163 101.166 38.9662 101.14 38.916C101.115 38.8675 101.089 38.8173 101.064 38.7671C101.045 38.729 101.028 38.691 101.008 38.6529C101.007 38.6498 101.005 38.6469 101.003 38.6442C100.994 38.6252 100.986 38.6079 100.979 38.5906C100.976 38.5879 100.975 38.585 100.973 38.5819C100.954 38.5439 100.936 38.504 100.917 38.466C100.893 38.4158 100.87 38.3639 100.845 38.3137C100.829 38.2791 100.812 38.2427 100.796 38.2064C100.773 38.1562 100.749 38.106 100.728 38.0541C100.703 38.0021 100.68 37.9502 100.657 37.8966C100.651 37.8836 100.645 37.8703 100.64 37.8568C100.628 37.8325 100.619 37.8083 100.608 37.7841C100.58 37.72 100.552 37.6543 100.526 37.5902C100.494 37.5175 100.464 37.4431 100.436 37.3704C100.408 37.3029 100.382 37.2337 100.356 37.1645L100.345 37.1402C99.9364 36.0781 99.6263 34.9815 99.4188 33.864V33.8622C99.3017 33.2242 99.218 32.5807 99.1679 31.9342C99.1661 31.8979 99.1626 31.8633 99.1609 31.8286C99.1293 31.3908 99.1152 30.9512 99.1152 30.5098C99.1152 30.3143 99.1187 30.1204 99.124 29.9266C99.2465 25.8726 100.712 21.9698 103.296 18.8153C103.352 18.7461 103.409 18.6769 103.466 18.6076C103.524 18.5384 103.584 18.4709 103.642 18.4034C105.565 16.1815 107.991 14.4365 110.723 13.3091C113.456 12.1817 116.419 11.7033 119.373 11.9127C122.327 12.122 125.19 13.0132 127.731 14.5143C130.272 16.0154 132.42 18.0845 134.002 20.5547C134.088 20.6897 134.174 20.8264 134.256 20.9632C134.341 21.1016 134.421 21.2401 134.502 21.3803C136.091 24.1673 136.924 27.312 136.92 30.5098Z" fill="#F2F2F2"/>
<path d="M118.768 18.3141C115.66 19.1008 112.475 19.5543 109.268 19.6667C108.783 19.6927 108.297 19.6895 107.812 19.6569C106.747 19.5686 105.835 19.2384 104.819 19.058C104.331 18.9715 103.787 18.9083 103.295 18.8148C103.409 18.6758 103.525 18.5385 103.642 18.4029C104.702 18.4912 105.779 18.7804 106.852 18.9148C108.676 19.1436 110.719 18.8883 112.101 18.2587C112.772 17.9532 113.286 17.572 113.954 17.2651C114.045 17.219 114.144 17.1893 114.245 17.1772C114.438 17.1715 114.628 17.2202 114.794 17.3176C115.915 17.8761 117.543 18.3299 119.055 18.0802C119.167 18.1671 118.953 18.2662 118.768 18.3141Z" fill="white"/>
<path d="M125.455 20.2793C125.469 20.2768 125.483 20.2749 125.496 20.2725C125.438 20.237 125.384 20.1964 125.333 20.1511L125.455 20.2793Z" fill="white"/>
<path d="M134.502 21.381C133.87 21.4308 133.236 21.4678 132.598 21.4922C132.113 21.518 131.627 21.5147 131.143 21.4824C130.078 21.3936 129.166 21.0639 128.15 20.8835C127.219 20.7185 126.088 20.6389 125.497 20.2726C127.024 20.0117 128.607 20.5427 130.182 20.7403C131.457 20.8949 132.748 20.832 134.001 20.5543C134.175 20.8249 134.342 21.1005 134.502 21.381Z" fill="white"/>
<path d="M115.885 38.6686C119.021 38.6686 121.563 36.1054 121.563 32.9434C121.563 29.7815 119.021 27.2183 115.885 27.2183C112.75 27.2183 110.208 29.7815 110.208 32.9434C110.208 36.1054 112.75 38.6686 115.885 38.6686Z" fill="#FFB6B6"/>
<path d="M126.866 46.9881C126.715 47.0694 126.563 47.1473 126.41 47.2217C126.356 47.2477 126.3 47.2736 126.245 47.3013C126.2 47.3221 126.154 47.3446 126.108 47.3654C126.094 47.3723 126.082 47.3775 126.07 47.3844C126.031 47.4017 125.994 47.419 125.956 47.4363C125.914 47.4554 125.872 47.4744 125.831 47.4934C125.784 47.5142 125.738 47.535 125.691 47.554C125.515 47.6319 125.338 47.7063 125.161 47.7773C124.526 48.0341 123.877 48.2559 123.217 48.4419C123.187 48.4505 123.156 48.4592 123.124 48.4678C122.841 48.5457 122.557 48.6167 122.271 48.6807C121.771 48.795 121.267 48.8884 120.757 48.9611H120.754C120.692 48.9698 120.633 48.9784 120.571 48.9871C120.566 48.9871 120.561 48.9888 120.554 48.9888C120.554 48.9905 120.554 48.9905 120.552 48.9888C120.485 48.9974 120.417 49.0061 120.35 49.0148C120.346 49.0161 120.341 49.0167 120.336 49.0165C120.273 49.0251 120.208 49.0321 120.145 49.039C120.076 49.0459 120.008 49.0528 119.94 49.0598C119.887 49.0649 119.834 49.0701 119.782 49.0753C119.777 49.0769 119.772 49.0775 119.768 49.0771C119.72 49.0805 119.673 49.0857 119.625 49.0892H119.618C119.578 49.0926 119.536 49.0961 119.496 49.0996C119.006 49.1376 118.515 49.1549 118.017 49.1549C117.478 49.1549 116.943 49.1342 116.415 49.0892H116.409C116.295 49.0788 116.183 49.0684 116.071 49.058C116.041 49.0546 116.013 49.0528 115.983 49.0494C115.978 49.0494 115.971 49.0476 115.966 49.0476C115.957 49.0459 115.948 49.0459 115.937 49.0442C115.933 49.0444 115.928 49.0438 115.923 49.0424C115.885 49.039 115.846 49.0338 115.806 49.0303L115.674 49.0148C115.63 49.0096 115.587 49.0026 115.543 48.9974C115.532 48.9957 115.523 48.9957 115.513 48.994C115.481 48.9905 115.45 48.9853 115.418 48.9801C115.402 48.9784 115.387 48.9767 115.373 48.9749C115.341 48.9698 115.311 48.9663 115.28 48.9611H115.278C114.315 48.8244 113.365 48.6132 112.435 48.3294C112.386 48.3138 112.337 48.3 112.288 48.2844C112.515 47.2422 112.981 46.2654 113.651 45.4293C114.321 44.5932 115.177 43.9203 116.153 43.4626C115.912 43.2358 115.745 42.9428 115.674 42.6215C115.629 42.4143 115.625 42.2004 115.664 41.9919C115.702 41.7834 115.782 41.5844 115.899 41.4065C116.127 41.0616 116.484 40.8201 116.892 40.735L119.492 40.1984C119.911 40.118 120.345 40.2037 120.699 40.437C121.054 40.6704 121.301 41.0325 121.387 41.4446C121.414 41.5709 121.425 41.6998 121.422 41.8288C123.926 43.473 125.728 45.1777 126.866 46.9881Z" fill="#F58634"/>
<path d="M131.078 30.4606C130.113 29.3505 129.654 27.8776 128.882 26.617C128.111 25.3564 126.768 24.2282 125.35 24.5215C124.372 24.7238 123.617 25.5748 123.234 26.5236C122.852 27.4724 122.78 28.5187 122.713 29.5437C122.737 27.4372 121.33 25.3951 119.392 24.723C117.454 24.0508 115.135 24.8006 113.917 26.4929C113.386 26.007 112.692 25.7304 111.967 25.7154C111.243 25.7004 110.538 25.9481 109.987 26.4115C108.897 27.3718 108.656 29.1997 109.457 30.4246C110.258 31.6495 111.993 32.1059 113.266 31.4265L113.716 31.8349C113.463 32.7089 113.954 33.7414 114.78 34.0704C115.45 34.3372 116.395 34.2928 116.646 34.9861C116.821 35.4704 116.494 35.9875 116.145 36.3597C115.797 36.7319 115.384 37.1163 115.342 37.6314C115.279 38.4085 116.093 38.953 116.833 39.1169C118.618 39.5123 120.598 38.6971 121.627 37.1435C121.646 37.1136 121.668 37.0836 121.691 37.0535C122.268 36.3256 122.689 35.4891 122.927 34.5954C123.166 33.7017 123.217 32.7694 123.077 31.8556C123.02 31.4965 123.078 31.2294 123.329 31.1444C124.414 30.7768 127.453 31.5483 128.372 32.2455C129.292 32.9426 130.029 33.8653 130.915 34.6075C131.801 35.3497 132.93 35.9222 134.055 35.7201C134.956 35.5582 135.722 34.913 136.238 34.1348C136.753 33.3565 137.05 32.4493 137.315 31.5478C135.323 32.6831 132.597 32.2079 131.078 30.4606Z" fill="#2F2E41"/>
<path d="M14.5318 18.914C14.5318 19.3346 14.5458 19.7551 14.5756 20.1722C14.6072 20.6707 14.6616 21.1657 14.7353 21.6572C14.9829 23.3122 15.4563 24.9266 16.1424 26.4565C16.1775 26.5326 16.2126 26.6088 16.2477 26.6849L16.3003 26.7992C16.3178 26.8372 16.3371 26.8753 16.3547 26.9117C16.3793 26.9619 16.4021 27.0103 16.4266 27.0588C16.4565 27.1194 16.4863 27.1799 16.5179 27.2405C16.5214 27.2474 16.5249 27.2561 16.5301 27.2647C16.5565 27.3167 16.581 27.3668 16.6091 27.4188C16.6143 27.4301 16.6201 27.4411 16.6266 27.4517C16.6565 27.5105 16.6881 27.5711 16.7196 27.6299C16.7547 27.6922 16.7881 27.7563 16.8231 27.8186C16.9074 27.9726 16.9951 28.1249 17.0846 28.2772C17.1109 28.3222 17.1372 28.3672 17.1653 28.4122C17.1898 28.4537 17.2144 28.4953 17.2407 28.5368C17.2583 28.5645 17.2758 28.5939 17.2934 28.6216C17.3214 28.6684 17.3495 28.7134 17.3793 28.7601C17.4442 28.8622 17.5109 28.9643 17.5758 29.0664H17.5776C17.6074 29.1132 17.639 29.1599 17.6706 29.2049V29.2066C17.7636 29.3451 17.8601 29.4835 17.9566 29.6202C17.9568 29.6202 17.957 29.6203 17.9572 29.6204C17.9575 29.6205 17.9577 29.6206 17.9578 29.6207C17.958 29.6209 17.9581 29.6211 17.9582 29.6213C17.9583 29.6215 17.9583 29.6217 17.9583 29.622C18.0355 29.7327 18.1162 29.84 18.1952 29.9473V29.9491C18.2478 30.0166 18.2987 30.0858 18.3513 30.1533C18.3934 30.2087 18.4373 30.2658 18.4812 30.3212C18.4899 30.3333 18.5005 30.3437 18.5092 30.3558V30.3575C18.5215 30.3731 18.5338 30.387 18.5461 30.4025C18.7321 30.6379 18.9239 30.8681 19.1216 31.0931L19.1531 31.1294C19.1637 31.1416 19.1759 31.1537 19.1865 31.1675C19.204 31.1866 19.2198 31.2056 19.2374 31.2246C19.2531 31.2437 19.2707 31.2627 19.2882 31.2817C20.3187 32.4267 21.4871 33.4433 22.7674 34.3088C22.9376 34.4247 23.1113 34.5372 23.285 34.6463C23.3289 34.674 23.3727 34.7016 23.4166 34.7276C23.4289 34.7363 23.4429 34.7449 23.4552 34.7536C23.4798 34.7674 23.5026 34.7813 23.5271 34.7968C23.5499 34.8107 23.5728 34.8245 23.5973 34.8384C23.6903 34.8955 23.7851 34.9509 23.8798 35.0063C23.9026 35.0201 23.9272 35.0339 23.9517 35.0478C23.9745 35.0599 23.9991 35.0738 24.0237 35.0876C24.0237 35.0893 24.0237 35.0893 24.0254 35.0893H24.0272V35.0911H24.0289C24.1465 35.1586 24.2658 35.2243 24.3868 35.2884C24.4518 35.323 24.5184 35.3593 24.5851 35.3922C24.736 35.4736 24.8886 35.5514 25.0413 35.6259C25.0957 35.6518 25.1518 35.6778 25.2062 35.7055C25.2518 35.7262 25.2974 35.7487 25.3431 35.7695C25.3571 35.7764 25.3694 35.7816 25.3817 35.7885C25.4203 35.8059 25.4571 35.8232 25.4957 35.8405C25.5378 35.8595 25.5799 35.8785 25.6203 35.8976C25.6676 35.9183 25.7133 35.9391 25.7606 35.9582C25.9361 36.036 26.1133 36.1105 26.2905 36.1814C26.9255 36.4382 27.5745 36.6601 28.2345 36.846C28.2643 36.8547 28.2959 36.8633 28.3275 36.872C28.61 36.9499 28.8942 37.0208 29.1802 37.0849C29.6802 37.1991 30.1849 37.2925 30.6943 37.3652H30.6978C30.7592 37.3739 30.8189 37.3825 30.8803 37.3912C30.8856 37.3912 30.8908 37.3929 30.8979 37.3929C30.8979 37.3947 30.8979 37.3947 30.8996 37.3929C30.9663 37.4016 31.0347 37.4102 31.1014 37.4189C31.1059 37.4202 31.1107 37.4208 31.1154 37.4206C31.1786 37.4293 31.2435 37.4362 31.3067 37.4431C31.3751 37.45 31.4435 37.457 31.5119 37.4639C31.5646 37.4691 31.6172 37.4743 31.6698 37.4795C31.6743 37.481 31.6791 37.4816 31.6839 37.4812C31.7312 37.4847 31.7786 37.4898 31.826 37.4933H31.833C31.8734 37.4968 31.9155 37.5002 31.9558 37.5037C32.4453 37.5418 32.9366 37.5591 33.4349 37.5591C33.9735 37.5591 34.5086 37.5383 35.0367 37.4933H35.042C35.156 37.4829 35.2683 37.4725 35.3806 37.4622C35.4105 37.4587 35.4385 37.457 35.4684 37.4535C35.4736 37.4535 35.4806 37.4518 35.4859 37.4518C35.4947 37.45 35.5034 37.45 35.514 37.4483C35.5187 37.4485 35.5235 37.4479 35.528 37.4466C35.5666 37.4431 35.6052 37.4379 35.6456 37.4345L35.7771 37.4189C35.821 37.4137 35.8649 37.4068 35.9087 37.4016C35.9193 37.3998 35.928 37.3998 35.9386 37.3981C35.9701 37.3947 36.0017 37.3895 36.0333 37.3843C36.0491 37.3825 36.0649 37.3808 36.0789 37.3791C36.1105 37.3739 36.1403 37.3704 36.1719 37.3652H36.1737C37.1364 37.2285 38.0868 37.0173 39.016 36.7335C39.0651 36.7179 39.1142 36.7041 39.1634 36.6885C39.1651 36.6885 39.1669 36.6868 39.1686 36.6868C39.1827 36.6816 39.1984 36.6781 39.2125 36.673C39.3441 36.6314 39.4739 36.5882 39.6037 36.5432C39.7827 36.4843 39.9599 36.4203 40.1371 36.3545C40.1845 36.3355 40.2319 36.3182 40.2792 36.2991C40.3757 36.2628 40.4705 36.2247 40.5652 36.1866C40.7266 36.1226 40.888 36.0551 41.0477 35.9859C41.1968 35.9201 41.3442 35.8543 41.4916 35.7851C41.4951 35.7834 41.5004 35.7834 41.5039 35.7799C41.5372 35.7643 41.5705 35.7487 41.6021 35.7332H41.6039C42.4119 35.3507 43.1911 34.9117 43.9356 34.4195C44.1742 34.2621 44.4093 34.0994 44.6409 33.9315C44.8269 33.7948 45.0094 33.6563 45.1919 33.5144C46.0921 32.8081 46.9254 32.0225 47.6815 31.1675V31.1658C47.7359 31.1069 47.7868 31.0464 47.8394 30.9858C47.8482 30.9771 47.8552 30.9685 47.8622 30.9616C47.8956 30.9218 47.9271 30.8837 47.9605 30.8456V30.8439C48.0043 30.7937 48.0482 30.7418 48.0903 30.6898C48.1008 30.6777 48.1096 30.6674 48.1184 30.657V30.6552C48.1535 30.6137 48.1868 30.5722 48.2219 30.5289C48.2394 30.5081 48.2552 30.4873 48.2728 30.4666V30.4648C48.3763 30.3368 48.4763 30.2087 48.5763 30.0772C48.6026 30.0425 48.6289 30.0062 48.657 29.9699C48.7833 29.802 48.9062 29.6306 49.0255 29.4593V29.4576C49.0711 29.3935 49.1149 29.3278 49.1606 29.2637C49.2044 29.198 49.2483 29.1322 49.2922 29.0664C49.336 28.9972 49.3816 28.9297 49.4255 28.8605L49.4308 28.8501C49.4746 28.7843 49.5185 28.7151 49.5606 28.6476C49.5939 28.5922 49.6273 28.5386 49.6606 28.4849C49.6817 28.4486 49.7045 28.4122 49.7255 28.3741C49.7337 28.3624 49.7414 28.3503 49.7483 28.3378C49.7975 28.253 49.8466 28.1682 49.8957 28.0834C49.9536 27.9847 50.0097 27.8843 50.0659 27.784C50.0869 27.7424 50.1098 27.7009 50.1326 27.6594C50.1413 27.6455 50.1484 27.6317 50.1554 27.6178C50.1817 27.5694 50.208 27.5192 50.2326 27.469C50.2589 27.4205 50.2852 27.3703 50.3115 27.3201C50.3361 27.2717 50.3624 27.2215 50.387 27.1713C50.4063 27.1332 50.4238 27.0951 50.4431 27.0571C50.4445 27.054 50.4462 27.051 50.4484 27.0484C50.4572 27.0294 50.4659 27.0121 50.4729 26.9948C50.4751 26.9921 50.4769 26.9892 50.4782 26.9861C50.4975 26.948 50.515 26.9082 50.5343 26.8701C50.5589 26.82 50.5817 26.768 50.6063 26.7178C50.6221 26.6832 50.6396 26.6469 50.6554 26.6105C50.6782 26.5603 50.7028 26.5102 50.7238 26.4582C50.7484 26.4063 50.7712 26.3544 50.794 26.3007C50.8006 26.2878 50.8064 26.2745 50.8116 26.2609C50.8238 26.2367 50.8326 26.2125 50.8431 26.1882C50.8712 26.1242 50.8993 26.0584 50.9256 25.9944C50.9572 25.9217 50.987 25.8473 51.0151 25.7746C51.0432 25.7071 51.0695 25.6379 51.0958 25.5686L51.1063 25.5444C51.5151 24.4823 51.8252 23.3857 52.0327 22.2681V22.2664C52.1497 21.6284 52.2335 20.9849 52.2836 20.3384C52.2854 20.302 52.2889 20.2674 52.2906 20.2328C52.3222 19.7949 52.3362 19.3553 52.3362 18.914C52.3362 18.7184 52.3327 18.5246 52.3275 18.3307C52.205 14.2768 50.7395 10.374 48.1552 7.2195C48.0991 7.15027 48.0429 7.08104 47.985 7.01181C47.9271 6.94258 47.8675 6.87508 47.8096 6.80759C45.8862 4.58571 43.4605 2.84072 40.7281 1.71328C37.9956 0.585844 35.0328 0.107515 32.0786 0.316852C29.1243 0.526188 26.2612 1.41733 23.7202 2.91844C21.1791 4.41956 19.0312 6.48864 17.4495 8.95888C17.3635 9.09387 17.2776 9.2306 17.1951 9.36734C17.1109 9.5058 17.0302 9.64425 16.9495 9.78444C15.36 12.5715 14.5272 15.7162 14.5318 18.914Z" fill="#F2F2F2"/>
<path d="M32.6836 6.71824C35.7918 7.50499 38.9771 7.95849 42.184 8.07086C42.6689 8.09691 43.155 8.09365 43.6395 8.06109C44.7044 7.97274 45.6165 7.64261 46.6322 7.4622C47.1206 7.37572 47.6645 7.31248 48.1562 7.21902C48.0426 7.07999 47.9269 6.94267 47.8092 6.80705C46.7491 6.8954 45.6725 7.18461 44.5997 7.31899C42.776 7.54776 40.7326 7.29249 39.3501 6.66291C38.6794 6.35742 38.1656 5.97614 37.4972 5.66926C37.4063 5.62322 37.3078 5.59347 37.2063 5.58138C37.0136 5.57568 36.8233 5.62439 36.6577 5.7218C35.5363 6.28023 33.9082 6.73405 32.397 6.48436C32.2843 6.57131 32.4983 6.67035 32.6836 6.71824Z" fill="white"/>
<path d="M25.9965 8.68346C25.9827 8.68097 25.9689 8.67903 25.9551 8.67667C26.0131 8.64118 26.0678 8.60056 26.1184 8.5553L25.9965 8.68346Z" fill="white"/>
<path d="M16.9497 9.7851C17.5809 9.83485 18.2153 9.87189 18.8531 9.89623C19.338 9.92205 19.8241 9.9188 20.3087 9.88647C21.3735 9.79766 22.2856 9.46799 23.3014 9.28758C24.2323 9.12251 25.3636 9.043 25.9547 8.6766C24.427 8.41575 22.8441 8.94675 21.2688 9.14437C19.9946 9.29893 18.7029 9.23601 17.4503 8.95837C17.2759 9.22899 17.109 9.50457 16.9497 9.7851Z" fill="white"/>
<path d="M24.585 35.3922C24.7358 35.4736 24.8885 35.5515 25.0411 35.6259C25.0955 35.6519 25.1517 35.6778 25.2061 35.7055C25.2517 35.7263 25.2973 35.7488 25.3429 35.7695C25.3569 35.7765 25.3692 35.7817 25.3815 35.7886C25.4201 35.8059 25.457 35.8232 25.4956 35.8405C25.5377 35.8595 25.5798 35.8786 25.6201 35.8976C25.6675 35.9184 25.7131 35.9392 25.7605 35.9582C25.9359 36.0361 26.1131 36.1105 26.2903 36.1815C26.9254 36.4382 27.5744 36.6601 28.2343 36.8461C28.2642 36.8547 28.2958 36.8634 28.3273 36.872C28.6098 36.9499 28.8941 37.0209 29.18 37.0849C29.6801 37.1991 30.1848 37.2926 30.6942 37.3653H30.6977C30.7591 37.3739 30.8188 37.3826 30.8802 37.3912C30.8854 37.3912 30.8907 37.393 30.8977 37.393C30.8977 37.3947 30.8977 37.3947 30.8995 37.393C30.9661 37.4016 31.0346 37.4103 31.1012 37.4189C31.1058 37.4202 31.1105 37.4208 31.1153 37.4207C31.1784 37.4293 31.2433 37.4362 31.3065 37.4432C31.3749 37.4501 31.4434 37.457 31.5118 37.4639C31.5644 37.4691 31.6171 37.4743 31.6697 37.4795C31.6742 37.481 31.679 37.4816 31.6837 37.4812C31.7311 37.4847 31.7785 37.4899 31.8258 37.4933H31.8329C31.8732 37.4968 31.9153 37.5003 31.9557 37.5037C32.4452 37.5418 32.9364 37.5591 33.4347 37.5591C33.9734 37.5591 34.5085 37.5383 35.0366 37.4933H35.0419C35.1559 37.483 35.2682 37.4726 35.3805 37.4622C35.4103 37.4587 35.4384 37.457 35.4682 37.4535C35.4735 37.4535 35.4805 37.4518 35.4858 37.4518C35.4945 37.4501 35.5033 37.4501 35.5138 37.4483C35.5186 37.4485 35.5233 37.4479 35.5279 37.4466C35.5665 37.4432 35.6051 37.438 35.6454 37.4345L35.777 37.4189C35.8209 37.4137 35.8647 37.4068 35.9086 37.4016C35.9191 37.3999 35.9279 37.3999 35.9384 37.3982C35.97 37.3947 36.0016 37.3895 36.0332 37.3843C36.049 37.3826 36.0647 37.3809 36.0788 37.3791C36.1104 37.3739 36.1402 37.3705 36.1718 37.3653H36.1735C37.1363 37.2286 38.0867 37.0173 39.0158 36.7336C39.065 36.718 39.1141 36.7041 39.1632 36.6886C38.9367 35.6464 38.4703 34.6695 37.8001 33.8335C37.1299 32.9974 36.2738 32.3245 35.298 31.8668C35.5394 31.64 35.7062 31.347 35.777 31.0256C35.8226 30.8185 35.8262 30.6045 35.7876 30.396C35.7491 30.1875 35.6692 29.9886 35.5524 29.8107C35.3248 29.4658 34.9676 29.2243 34.5594 29.1391L31.9592 28.6026C31.5406 28.5221 31.1067 28.6079 30.7519 28.8412C30.3971 29.0746 30.15 29.4367 30.0643 29.8487C30.0378 29.9751 30.026 30.104 30.0292 30.233C27.5255 31.8771 25.7236 33.5819 24.585 35.3922Z" fill="#F58634"/>
<path d="M34.8716 26.8712C38.367 26.8712 41.2006 24.076 41.2006 20.6279C41.2006 17.1798 38.367 14.3846 34.8716 14.3846C31.3761 14.3846 28.5425 17.1798 28.5425 20.6279C28.5425 24.076 31.3761 26.8712 34.8716 26.8712Z" fill="#9E616A"/>
<path d="M33.9722 26.5374C32.3877 26.9596 30.6409 26.3983 29.4044 25.3337C28.1678 24.2692 27.3943 22.7607 26.9486 21.2025C26.6222 20.0613 26.4675 18.7946 26.9826 17.7233C27.4977 16.6519 28.884 15.9291 29.9535 16.4703C29.2937 15.712 29.6233 14.4579 30.3939 13.8092C31.1645 13.1605 32.2226 12.9745 33.2304 12.8729C34.6929 12.7253 36.2036 12.7088 37.5954 13.1762C38.9871 13.6436 40.2516 14.6655 40.6872 16.0506C41.132 16.2549 41.633 16.3079 42.1117 16.2013C42.5904 16.0947 43.0197 15.8345 43.3324 15.4615C43.413 15.8899 43.3483 16.3326 43.1481 16.7211C42.948 17.1096 42.6237 17.4222 42.2253 17.6105L44.3577 16.9286C44.7245 17.6943 44.0819 18.642 43.2601 18.8872C42.4384 19.1324 41.5513 18.8644 40.7716 18.5101C39.9918 18.1559 39.2361 17.708 38.3891 17.5698C37.5421 17.4317 36.5471 17.7001 36.1553 18.4537C35.9501 18.8484 35.9394 19.3106 35.8203 19.7383C35.7011 20.166 35.3993 20.6095 34.9511 20.6445C34.6679 20.6666 34.3906 20.5178 34.1082 20.5482C33.9349 20.5819 33.7753 20.6646 33.6489 20.7864C33.5226 20.9082 33.435 21.0637 33.3968 21.2338C33.3265 21.5752 33.3256 21.927 33.3943 22.2688L33.936 26.3529L33.9722 26.5374Z" fill="#2F2E41"/>
</g>
<defs>
<clipPath id="clip0_1148_1549">
<rect width="142" height="90" fill="white"/>
</clipPath>
</defs>
</svg>
