<svg width="193" height="130" viewBox="0 0 193 130" fill="none" xmlns="http://www.w3.org/2000/svg">
<g clip-path="url(#clip0_1148_1429)">
<path d="M115.411 106.787C114.445 96.489 108.604 86.2098 99.3106 82.6143C102.745 93.2798 102.454 104.87 98.4912 115.333C96.9487 119.363 94.8312 123.677 96.0841 127.815C96.8636 130.389 98.8778 132.398 101.153 133.681C103.429 134.965 105.974 135.616 108.487 136.255L108.973 136.698C113.221 127.35 116.378 117.084 115.411 106.787Z" fill="#F0F0F0"/>
<path d="M99.2129 82.8058C104.46 89.2715 107.763 97.5291 108.34 105.994C108.465 107.825 108.439 109.693 108.012 111.482C107.583 113.222 106.715 114.811 105.499 116.083C104.387 117.292 103.116 118.395 102.306 119.866C101.452 121.416 101.376 123.202 101.892 124.887C102.524 126.949 103.827 128.651 105.157 130.27C106.634 132.067 108.195 133.909 108.784 136.253C108.855 136.538 109.273 136.405 109.202 136.122C108.178 132.042 104.471 129.64 102.766 125.944C101.971 124.219 101.669 122.234 102.499 120.459C103.225 118.907 104.535 117.768 105.67 116.554C106.862 115.278 107.787 113.868 108.288 112.15C108.801 110.393 108.897 108.522 108.817 106.697C108.607 102.558 107.776 98.4804 106.352 94.6119C104.752 90.1875 102.438 86.0816 99.5104 82.4718C99.3291 82.2485 99.0329 82.5839 99.2129 82.8058Z" fill="white"/>
<path d="M108.291 103.232C109.649 102.927 110.859 102.128 111.705 100.977C112.55 99.827 112.976 98.4002 112.907 96.952C112.904 96.8929 112.879 96.8375 112.837 96.7975C112.795 96.7574 112.74 96.7358 112.684 96.7372C112.627 96.7387 112.573 96.763 112.534 96.805C112.494 96.8471 112.471 96.9037 112.47 96.9628C112.537 98.3114 112.14 99.6404 111.351 100.71C110.561 101.78 109.431 102.519 108.165 102.796C107.89 102.856 108.018 103.293 108.291 103.232Z" fill="white"/>
<path d="M106.139 115.547C103.74 113.961 102.002 111.49 101.27 108.626C101.198 108.342 100.78 108.474 100.852 108.757C101.619 111.737 103.433 114.304 105.933 115.949C106.171 116.105 106.377 115.702 106.139 115.547Z" fill="white"/>
<path d="M104.335 90.6083C103.834 90.8407 103.284 90.9394 102.737 90.8954C102.19 90.8514 101.661 90.6662 101.199 90.3564C100.963 90.1968 100.758 90.5997 100.993 90.7582C101.505 91.0981 102.088 91.3019 102.693 91.3518C103.298 91.4018 103.905 91.2964 104.462 91.0449C104.516 91.0258 104.561 90.9858 104.588 90.933C104.616 90.8802 104.622 90.8187 104.608 90.7608C104.591 90.7031 104.553 90.6547 104.502 90.6261C104.451 90.5976 104.391 90.5912 104.335 90.6083Z" fill="white"/>
<path d="M70.2705 100.17C70.4154 100.274 70.5603 100.378 70.7052 100.486C72.6462 101.895 74.4742 103.467 76.1713 105.185C76.3046 105.316 76.4377 105.45 76.5671 105.585C80.6135 109.771 83.8804 114.704 86.2017 120.135C87.1235 122.297 87.8864 124.529 88.4839 126.811C89.3088 129.964 89.9629 133.451 91.6865 136.058C91.8634 136.332 92.0564 136.594 92.2643 136.844L108.418 137.283C108.455 137.265 108.492 137.251 108.53 137.233L109.174 137.281C109.151 137.161 109.125 137.037 109.102 136.917C109.089 136.847 109.072 136.778 109.059 136.708C109.049 136.661 109.039 136.615 109.033 136.572C109.03 136.557 109.026 136.541 109.023 136.53C109.017 136.487 109.006 136.449 109 136.41C108.855 135.717 108.705 135.023 108.55 134.33C108.551 134.326 108.551 134.326 108.547 134.322C107.355 129.042 105.73 123.82 103.397 119.02C103.327 118.876 103.257 118.728 103.179 118.583C102.117 116.426 100.886 114.363 99.5016 112.415C98.74 111.351 97.9273 110.328 97.0667 109.35C94.8381 106.827 92.2432 104.685 89.3772 103.004C83.6633 99.6525 76.9864 98.2465 70.746 100.029C70.5864 100.074 70.4302 100.12 70.2705 100.17Z" fill="#F0F0F0"/>
<path d="M70.3014 100.385C78.2199 102.249 85.6192 106.767 90.9623 113.163C92.1175 114.546 93.1741 116.053 93.8647 117.75C94.5258 119.41 94.7491 121.224 94.5115 123.004C94.3219 124.668 93.9433 126.348 94.1445 128.031C94.3566 129.806 95.3258 131.279 96.7098 132.3C98.4031 133.55 100.426 134.09 102.421 134.546C104.636 135.052 106.945 135.542 108.767 137.044C108.988 137.226 109.246 136.858 109.025 136.676C105.855 134.062 101.509 134.474 98.0169 132.595C96.3873 131.718 95.001 130.322 94.6403 128.383C94.3249 126.688 94.7139 124.955 94.9198 123.272C95.1361 121.504 95.0614 119.797 94.4708 118.111C93.8666 116.385 92.8643 114.831 91.748 113.424C89.194 110.251 86.178 107.518 82.8107 105.324C78.9809 102.797 74.7653 100.973 70.3463 99.931C70.0728 99.8666 70.0297 100.321 70.3014 100.385Z" fill="white"/>
<path d="M89.3309 110.988C90.2391 109.891 90.744 108.492 90.7557 107.042C90.7673 105.592 90.2848 104.185 89.3944 103.072C89.2135 102.848 88.8707 103.13 89.0519 103.355C89.8829 104.39 90.3322 105.701 90.3187 107.051C90.3052 108.401 89.8299 109.702 88.9784 110.719C88.7936 110.94 89.1472 111.208 89.3309 110.988Z" fill="white"/>
<path d="M94.7141 122.173C91.8841 122.415 89.0708 121.535 86.835 119.707C86.6136 119.526 86.3558 119.894 86.5769 120.075C88.907 121.972 91.8365 122.882 94.7809 122.624C95.0616 122.599 94.9932 122.148 94.7141 122.173Z" fill="white"/>
<path d="M78.8918 103.395C78.6251 103.896 78.2435 104.32 77.7811 104.629C77.3187 104.938 76.79 105.122 76.2426 105.165C75.9618 105.186 76.0304 105.636 76.3094 105.615C76.914 105.565 77.4976 105.361 78.0092 105.021C78.5208 104.681 78.9449 104.215 79.2443 103.664C79.2767 103.615 79.2898 103.554 79.281 103.495C79.2723 103.436 79.2422 103.382 79.197 103.345C79.1502 103.31 79.0919 103.295 79.0347 103.305C78.9775 103.314 78.9262 103.346 78.8918 103.395Z" fill="white"/>
<path d="M28.0601 19.9893C27.8189 19.2459 24.7944 16.7187 26.6478 16.2939L28.1676 18.4095L35.1552 11.1149L35.8579 11.8486L28.0601 19.9893Z" fill="#F58634"/>
<path d="M28.0601 44.7941C27.8189 44.0506 24.7944 41.5234 26.6478 41.0987L28.1676 43.2143L35.1552 35.9197L35.8579 36.6533L28.0601 44.7941Z" fill="#F58634"/>
<path d="M28.0601 69.9531C27.8189 69.2096 24.7944 66.6824 26.6478 66.2576L28.1676 68.3733L35.1552 61.0787L35.8579 61.8123L28.0601 69.9531Z" fill="#F58634"/>
<path d="M21.6259 49.6127C22.8168 49.6127 23.7822 48.6049 23.7822 47.3617C23.7822 46.1185 22.8168 45.1107 21.6259 45.1107C20.4351 45.1107 19.4697 46.1185 19.4697 47.3617C19.4697 48.6049 20.4351 49.6127 21.6259 49.6127Z" fill="#3F3D56"/>
<path d="M21.6259 25.0767C22.8168 25.0767 23.7822 24.0689 23.7822 22.8257C23.7822 21.5825 22.8168 20.5747 21.6259 20.5747C20.4351 20.5747 19.4697 21.5825 19.4697 22.8257C19.4697 24.0689 20.4351 25.0767 21.6259 25.0767Z" fill="#3F3D56"/>
<path d="M66.4488 17.527H42.3359V18.0747H66.4488V17.527Z" fill="#3F3D56"/>
<path d="M22.7041 75.768C23.8949 75.768 24.8603 74.7602 24.8603 73.517C24.8603 72.2738 23.8949 71.266 22.7041 71.266C21.5132 71.266 20.5479 72.2738 20.5479 73.517C20.5479 74.7602 21.5132 75.768 22.7041 75.768Z" fill="#3F3D56"/>
<path d="M66.449 42.4531H42.2178V42.9033H66.449V42.4531Z" fill="#3F3D56"/>
<path d="M66.4488 67.3693H42.3359V67.917H66.4488V67.3693Z" fill="#3F3D56"/>
<path d="M33.5062 73.3071H22.7251V61.827H30.0562V62.2772H23.1563V72.8569H33.0749V67.6796H33.5062V73.3071Z" fill="#3F3D56"/>
<path d="M33.5062 48.0959H22.7251V36.6158H30.0562V37.066H23.1563V47.6457H33.0749V42.4684H33.5062V48.0959Z" fill="#3F3D56"/>
<path d="M33.5062 22.4345H22.7251V10.9543H30.0562V11.4045H23.1563V21.9843H33.0749V16.807H33.5062V22.4345Z" fill="#3F3D56"/>
<path d="M111.817 40.9168C111.817 40.9168 114.699 53.6172 111.177 53.6172C107.655 53.6172 99.3314 39.2457 99.3314 39.2457L102.213 35.5693L107.384 43.0651L107.655 39.2457L111.817 40.9168Z" fill="#A0616A"/>
<path d="M100.099 39.7979C98.5512 39.7979 97.2962 38.4877 97.2962 36.8716C97.2962 35.2554 98.5512 33.9453 100.099 33.9453C101.647 33.9453 102.902 35.2554 102.902 36.8716C102.902 38.4877 101.647 39.7979 100.099 39.7979Z" fill="#A0616A"/>
<path d="M114.26 127.418L110.529 127.417L108.754 112.393L114.261 112.393L114.26 127.418Z" fill="#A0616A"/>
<path d="M114.392 131.481L102.918 131.48V131.329C102.918 130.093 103.389 128.907 104.226 128.032C105.064 127.158 106.2 126.667 107.384 126.667H107.384L109.48 125.007L113.391 126.667L114.392 126.667L114.392 131.481Z" fill="#2F2E41"/>
<path d="M154.396 122.558L151.057 124.297L143.042 111.681L147.969 109.114L154.396 122.558Z" fill="#A0616A"/>
<path d="M156.251 126.132L145.985 131.481L145.92 131.345C145.391 130.239 145.305 128.959 145.681 127.786C146.056 126.613 146.862 125.644 147.922 125.092L147.922 125.092L149.087 122.629L153.296 122.292L154.192 121.825L156.251 126.132Z" fill="#2F2E41"/>
<path d="M138.383 63.9572C138.383 63.9572 139.875 82.674 140.195 86.6846C140.414 89.1987 140.952 91.6713 141.795 94.0375C141.795 94.0375 142.436 95.3744 142.436 96.7113L149.692 110.479C149.692 110.479 151.91 112.181 151.59 113.518C151.27 114.855 152.927 115.657 152.927 115.657L145.285 117.194C145.285 117.194 145.605 116.192 144.644 115.857C143.684 115.523 142.92 112.624 142.92 112.624L132.191 94.3717L124.507 77.6606C124.507 77.6606 120.025 92.7006 119.065 94.3717C119.065 94.3717 115.543 113.088 114.903 114.759C114.263 116.43 113.943 116.43 114.263 117.099C114.583 117.767 114.583 118.436 114.263 118.77C113.943 119.104 107.86 118.77 107.86 118.77L109.46 95.0402L112.342 66.6313L127.069 61.9522L138.383 63.9572Z" fill="#2F2E41"/>
<path d="M123.965 19.2757C120.252 19.2757 117.242 16.1334 117.242 12.2571C117.242 8.38076 120.252 5.2384 123.965 5.2384C127.678 5.2384 130.688 8.38076 130.688 12.2571C130.688 16.1334 127.678 19.2757 123.965 19.2757Z" fill="#A0616A"/>
<path d="M111.702 29.5327L119.705 24.4706C119.705 24.4706 119.927 21.3271 122.207 21.1792C123.352 21.1049 125.07 20.9914 127.648 20.8178C128.193 20.7812 128.561 23.8932 129.185 23.851L137.634 26.1905L136.353 48.9176C136.353 48.9176 138.274 57.9416 137.634 59.6127C136.993 61.2838 139.234 61.9522 138.594 62.2865C137.954 62.6207 138.594 64.9602 138.594 64.9602C138.594 64.9602 126.108 71.6447 112.342 66.6313L113.623 62.2865C113.448 61.7185 113.416 61.1135 113.528 60.5287C113.64 59.9439 113.893 59.3985 114.263 58.9442C114.263 58.9442 112.982 56.9389 114.583 55.2678C114.583 55.2678 113.943 52.2598 115.543 50.9229L115.864 46.2438L114.903 43.9043L111.702 29.5327Z" fill="#E6E6E6"/>
<path d="M129.799 16.2666L129.987 15.8109C130.011 15.752 132.389 9.88422 130.281 6.26481C129.306 4.5892 127.532 3.64318 125.009 3.45325C121.061 3.15528 118.36 4.13283 116.977 6.35669C116.745 6.73359 116.614 7.16876 116.599 7.61644C116.584 8.06411 116.685 8.50776 116.891 8.90073C117.097 9.29371 117.401 9.62149 117.77 9.84962C118.139 10.0777 118.56 10.1978 118.99 10.1971H119.043L119.768 9.21397L119.81 9.30959C120.073 9.90268 120.676 10.2274 121.382 10.1562C121.502 10.1472 121.609 10.2555 121.694 10.4872C121.723 10.5885 121.777 10.6799 121.852 10.7518C121.926 10.8236 122.017 10.8733 122.116 10.8955C122.638 11.0016 123.382 10.3153 123.715 9.97325C123.728 10.052 123.757 10.1269 123.8 10.193C123.843 10.259 123.899 10.3147 123.964 10.3562C124.315 10.5676 124.861 10.2914 125.018 10.2035C126.267 10.4805 127.075 10.4064 127.421 9.98358C127.656 11.7177 128.16 14.839 128.764 15.012C128.827 15.0271 128.894 15.0207 128.953 14.9936C129.012 14.9665 129.062 14.9202 129.094 14.8615C129.24 14.6643 129.37 14.566 129.451 14.5936C129.647 14.6589 129.763 15.3347 129.78 15.7708L129.799 16.2666Z" fill="#2F2E41"/>
<path d="M115.223 29.8669L112.029 29.3253C109.729 31.6328 108.162 34.6216 107.54 37.8883C106.579 43.2358 106.259 44.2385 106.259 44.2385L113.943 46.2438L118.104 37.8882L115.223 29.8669Z" fill="#E6E6E6"/>
<path d="M129.395 36.8225L131.368 62.9418L81.0022 67.0895L79.0286 40.9702L129.395 36.8225Z" fill="white"/>
<path d="M124.013 38.8461C125.246 37.9272 126.811 37.8608 127.409 37.874C127.226 38.4683 126.66 39.9925 125.427 40.9118C124.191 41.833 122.628 41.8974 122.032 41.8846C122.214 41.2905 122.781 39.7656 124.013 38.8461Z" fill="#F58634"/>
<path d="M119.151 55.4663L127.238 54.8003C127.477 54.7807 127.717 54.8103 127.945 54.8876C128.173 54.9649 128.385 55.0883 128.567 55.2508C128.749 55.4132 128.899 55.6116 129.008 55.8346C129.117 56.0575 129.183 56.3007 129.201 56.5501C129.22 56.7996 129.192 57.0505 129.118 57.2885C129.044 57.5265 128.926 57.747 128.77 57.9373C128.614 58.1276 128.424 58.284 128.211 58.3977C127.997 58.5113 127.764 58.5799 127.525 58.5996L119.438 59.2656C118.955 59.3054 118.477 59.1433 118.109 58.8152C117.741 58.487 117.513 58.0196 117.475 57.5158C117.437 57.012 117.592 56.513 117.906 56.1287C118.221 55.7443 118.668 55.5061 119.151 55.4663Z" fill="#F58634"/>
<path d="M81.0137 38.4314L126.357 34.6969C126.884 34.6536 127.415 34.7191 127.918 34.8897C128.421 35.0604 128.887 35.3328 129.289 35.6915C129.692 36.0502 130.022 36.4881 130.262 36.9801C130.503 37.4722 130.648 38.0089 130.689 38.5595L132.433 61.6212C132.517 62.7334 132.174 63.8349 131.48 64.6834C130.786 65.5319 129.798 66.058 128.732 66.146L83.3894 69.8804C82.862 69.9238 82.3316 69.8582 81.8284 69.6876C81.3253 69.517 80.8593 69.2445 80.457 68.8858C80.0547 68.5272 79.724 68.0893 79.4838 67.5972C79.2437 67.1051 79.0987 66.5685 79.0572 66.0179L77.4 44.0987L77.3666 43.6509L77.3139 42.954C77.2723 42.4034 77.3351 41.8497 77.4986 41.3244C77.662 40.7992 77.923 40.3127 78.2666 39.8927C78.6101 39.4727 79.0296 39.1275 79.5009 38.8768C79.9723 38.6261 80.4863 38.4747 81.0137 38.4314ZM82.3527 58.4963L82.64 62.2957C82.6925 62.9667 82.9974 63.5887 83.488 64.0258C83.9786 64.4628 84.615 64.6793 85.258 64.6279L91.3242 64.1289C91.967 64.0741 92.5628 63.7558 92.9814 63.2436C93.4001 62.7315 93.6074 62.0671 93.5582 61.3958L93.2709 57.5964C93.2181 56.9255 92.9132 56.3036 92.4227 55.8666C91.9321 55.4296 91.2959 55.2131 90.6529 55.2642L84.5888 55.7638C83.946 55.8188 83.3502 56.137 82.9313 56.6489C82.5124 57.1608 82.3044 57.8249 82.3527 58.4963ZM129.603 56.5152C129.556 55.9004 129.277 55.3302 128.828 54.9296C128.378 54.5291 127.795 54.331 127.206 54.3788L119.119 55.0452C118.827 55.0687 118.542 55.1521 118.281 55.2907C118.02 55.4292 117.787 55.6201 117.597 55.8525C117.406 56.0848 117.261 56.3541 117.171 56.645C117.08 56.9358 117.045 57.2425 117.068 57.5474C117.09 57.8524 117.17 58.1497 117.303 58.4223C117.436 58.6949 117.619 58.9375 117.842 59.1362C118.065 59.3349 118.323 59.4859 118.602 59.5804C118.88 59.675 119.174 59.7113 119.466 59.6872L119.47 59.6883L127.557 59.0219C127.849 58.9978 128.134 58.9138 128.395 58.7747C128.656 58.6357 128.888 58.4442 129.078 58.2114C129.268 57.9785 129.412 57.7089 129.502 57.4178C129.592 57.1268 129.626 56.82 129.603 56.5152ZM127.871 37.7234L127.927 37.4872L127.694 37.465C127.603 37.4548 125.452 37.2532 123.777 38.5019C122.103 39.7507 121.589 41.9416 121.567 42.0333L121.514 42.27L121.746 42.2944C122.075 42.32 122.406 42.3177 122.735 42.2876C123.782 42.2236 124.793 41.8671 125.663 41.2553C127.338 40.0066 127.851 37.8156 127.871 37.7234Z" fill="#F58634"/>
<path d="M89.1561 61.016L91.7844 60.7996C91.9719 60.7845 92.1575 60.8477 92.3004 60.9753C92.4433 61.1029 92.5318 61.2844 92.5466 61.4801C92.5614 61.6758 92.5012 61.8697 92.3793 62.0191C92.2573 62.1685 92.0835 62.2613 91.8961 62.2771L89.2677 62.4935C89.0802 62.5086 88.8947 62.4454 88.7517 62.3178C88.6088 62.1902 88.5203 62.0086 88.5055 61.8129C88.4907 61.6172 88.5509 61.4234 88.6729 61.274C88.7949 61.1246 88.9686 61.0318 89.1561 61.016Z" fill="#F58634"/>
<path d="M84.3035 61.4156L86.9319 61.1992C87.1193 61.1842 87.3047 61.2475 87.4475 61.3751C87.5903 61.5027 87.6788 61.6842 87.6936 61.8798C87.7084 62.0754 87.6483 62.2692 87.5264 62.4185C87.4045 62.5679 87.2309 62.6608 87.0435 62.6767L84.4151 62.8931C84.2277 62.9081 84.0423 62.8448 83.8995 62.7172C83.7567 62.5896 83.6682 62.4081 83.6534 62.2125C83.6387 62.0169 83.6988 61.8231 83.8207 61.6738C83.9425 61.5244 84.1162 61.4315 84.3035 61.4156Z" fill="#F58634"/>
<path d="M89.0125 59.1164L91.6409 58.8999C91.8283 58.885 92.0137 58.9482 92.1565 59.0758C92.2993 59.2034 92.3878 59.3849 92.4026 59.5805C92.4174 59.7762 92.3572 59.9699 92.2354 60.1193C92.1135 60.2687 91.9398 60.3615 91.7525 60.3774L89.1241 60.5939C88.9366 60.609 88.7511 60.5458 88.6082 60.4182C88.4653 60.2906 88.3767 60.109 88.3619 59.9133C88.3471 59.7176 88.4073 59.5237 88.5293 59.3743C88.6513 59.2249 88.8251 59.1322 89.0125 59.1164Z" fill="#F58634"/>
<path d="M84.16 59.5159L86.7883 59.2995C86.9758 59.2844 87.1614 59.3476 87.3043 59.4752C87.4472 59.6028 87.5357 59.7844 87.5505 59.9801C87.5653 60.1758 87.5051 60.3696 87.3832 60.519C87.2612 60.6684 87.0874 60.7612 86.9 60.777L84.2716 60.9934C84.0841 61.0085 83.8985 60.9454 83.7556 60.8178C83.6127 60.6902 83.5242 60.5086 83.5094 60.3129C83.4946 60.1172 83.5548 59.9233 83.6768 59.7739C83.7987 59.6245 83.9725 59.5317 84.16 59.5159Z" fill="#F58634"/>
<path d="M88.8689 57.2167L91.4973 57.0002C91.6848 56.9851 91.8704 57.0483 92.0133 57.1759C92.1562 57.3035 92.2447 57.4851 92.2595 57.6808C92.2743 57.8765 92.2141 58.0704 92.0921 58.2198C91.9702 58.3692 91.7964 58.462 91.6089 58.4777L88.9806 58.6942C88.7931 58.7091 88.6077 58.6459 88.4649 58.5183C88.3221 58.3907 88.2336 58.2092 88.2188 58.0136C88.2041 57.818 88.2642 57.6242 88.3861 57.4748C88.5079 57.3254 88.6816 57.2326 88.8689 57.2167Z" fill="#F58634"/>
<path d="M84.0164 57.6163L86.6448 57.3999C86.8322 57.3849 87.0176 57.4482 87.1604 57.5758C87.3032 57.7034 87.3917 57.8849 87.4065 58.0805C87.4213 58.2761 87.3611 58.4698 87.2393 58.6192C87.1174 58.7686 86.9437 58.8614 86.7564 58.8774L84.128 59.0938C83.9406 59.1088 83.7552 59.0455 83.6124 58.9179C83.4696 58.7903 83.3811 58.6088 83.3663 58.4132C83.3515 58.2176 83.4117 58.0238 83.5335 57.8744C83.6554 57.7251 83.829 57.6322 84.0164 57.6163Z" fill="#F58634"/>
<path d="M131.363 45.8361L131.397 46.285L78.1702 50.6501L78.1364 50.2011L131.363 45.8361Z" fill="white"/>
<path d="M77.3669 43.6508L77.4004 44.0987L79.2528 43.947L98.9893 42.3285L98.9537 41.8801L79.2193 43.499L77.3669 43.6508Z" fill="#3F3D56"/>
<path d="M142.436 38.8909C142.436 38.8909 145.317 51.5914 141.796 51.5914C138.274 51.5914 129.95 37.2198 129.95 37.2198L132.831 33.5434L138.003 41.0392L138.274 37.2198L142.436 38.8909Z" fill="#A0616A"/>
<path d="M130.718 37.7719C129.17 37.7719 127.915 36.4618 127.915 34.8456C127.915 33.2295 129.17 31.9193 130.718 31.9193C132.266 31.9193 133.521 33.2295 133.521 34.8456C133.521 36.4618 132.266 37.7719 130.718 37.7719Z" fill="#A0616A"/>
<path d="M135.301 28.1958L137.222 26.1905C137.222 26.1905 141.064 28.53 141.384 30.8696C141.704 33.2092 143.305 40.562 143.305 40.562L137.382 41.0634L135.462 38.0554L135.301 28.1958Z" fill="#E6E6E6"/>
</g>
<defs>
<clipPath id="clip0_1148_1429">
<rect width="195" height="132" fill="white" transform="matrix(-1 0 0 1 193 0)"/>
</clipPath>
</defs>
</svg>
