<svg width="322" height="164" viewBox="0 0 322 164" fill="none" xmlns="http://www.w3.org/2000/svg">
<g clip-path="url(#clip0_1148_888)">
<path d="M307.707 90.6682L306.698 98.6714L304.195 118.55H253.903C254.296 114.094 254.833 107.681 255.406 100.759C255.463 100.067 255.522 99.3715 255.579 98.6714C257.017 81.2692 258.591 61.5767 258.591 61.5767L265.203 62.804L278.03 65.1807L283.258 66.1487L297.255 68.7459C304.234 70.0379 309.035 80.1068 307.707 90.6682Z" fill="#F2F2F2"/>
<path d="M269.666 29.374L275.851 40.1578L263.964 48.5517L258.894 35.2964L269.666 29.374Z" fill="#FFB6B6"/>
<path d="M261.792 39.576C270.254 39.576 277.114 32.7411 277.114 24.3097C277.114 15.8783 270.254 9.04333 261.792 9.04333C253.331 9.04333 246.471 15.8783 246.471 24.3097C246.471 32.7411 253.331 39.576 261.792 39.576Z" fill="#FFB6B6"/>
<path d="M260.693 27.7224C259.477 25.8775 259.954 24.9126 258.936 24.2346C258.936 24.2346 258.526 23.9618 255.593 23.8062C254.936 19.0965 254.116 18.5254 254.116 18.5254C253.171 17.8671 251.769 18.081 250.897 18.4836C249.052 19.3351 249.266 21.1743 248.023 21.5263C246.307 22.0125 243.185 19.2716 242.878 16.1337C242.627 13.5741 244.282 11.088 244.938 11.2196C245.589 11.3499 247.147 9.36771 247.989 9.39829C248.563 9.41917 250.911 8.4024 251.543 8.48189C252.232 8.56872 254.506 9.75122 254.601 9.48105C255.26 7.60367 255.066 7.08277 255.625 6.54569C256.615 5.59398 258.235 6.25672 260.776 6.61252C266.004 7.34458 266.917 5.62684 269.596 6.79114C270.95 7.37929 272.082 8.96545 274.292 12.1138C277.382 16.5167 278.928 18.7181 278.938 21.2858C278.948 23.9043 277.675 23.7381 277.116 27.6147C276.494 31.93 277.816 33.9031 276.372 35.3051C275.255 36.3886 272.986 36.6458 271.794 35.6949C269.753 34.0667 272.424 30.1381 270.166 27.2678C268.779 25.506 265.991 24.722 264.714 25.5929C263.27 26.5777 264.065 29.4681 263.05 29.7422C262.18 29.9769 260.905 28.0439 260.693 27.7224Z" fill="#2F2E41"/>
<path d="M296.383 87.8497C295.956 95.1304 294.259 97.429 293.664 106.028C293.534 107.915 293.456 110.107 293.456 112.72C293.456 113.386 293.46 114.03 293.46 114.659C293.46 115.999 293.434 117.265 293.278 118.55C293.159 119.575 292.955 120.608 292.617 121.696H259.618C259.615 121.688 259.615 121.681 259.611 121.674C259.418 120.837 259.295 120.038 259.202 119.271C259.172 119.027 259.146 118.787 259.124 118.55C259.094 118.272 259.068 117.998 259.043 117.728C258.942 116.651 258.842 115.633 258.604 114.659C258.285 113.316 257.705 112.05 256.516 110.828C256.03 110.329 255.543 109.94 255.068 109.6C254.975 109.536 254.886 109.474 254.793 109.411C253.478 108.511 252.233 107.863 251.156 106.028C251.137 106.002 251.123 105.972 251.108 105.946C250.922 105.624 250.439 104.78 250.09 103.655C249.722 102.485 249.499 101.016 249.9 99.5131C250.855 95.9522 254.392 95.5969 257.282 91.999C257.594 91.6104 257.902 91.181 258.196 90.7035C259.503 88.5862 259.856 86.7208 260.272 84.5035C260.339 84.1444 260.398 83.7891 260.447 83.445C260.484 83.1858 260.517 82.9304 260.543 82.6786C260.773 80.5651 260.662 78.744 260.391 77.1154C259.507 71.7815 256.899 68.4799 258.741 63.6938C259.321 62.1912 260.142 61.0621 260.97 60.0961C262.724 58.0491 264.525 56.7203 264.214 54.0776C263.898 51.4124 261.869 51.0459 261.643 48.7177C261.528 47.5407 261.914 46.3007 262.638 45.0829V45.0793C264.956 41.1593 270.744 37.5504 274.422 37.6651C275.101 37.6838 275.703 37.8354 276.205 38.1278C278.021 39.1938 277.263 41.522 280.046 44.7868C282.115 47.2112 284.455 48.1811 285.343 48.64C288.861 50.4686 291.721 55.8616 293.664 62.7574C293.679 62.8093 293.694 62.861 293.709 62.9166C294.909 67.2362 295.756 72.1407 296.175 77.1154C296.354 79.2215 296.458 81.3388 296.48 83.4337C296.499 85.1068 296.461 86.5579 296.383 87.8497Z" fill="#F58634"/>
<path d="M271.674 112.794L271.001 114.66L270.578 115.829L269.597 118.55L268.46 121.696H261.153L262.379 118.55L262.948 117.084L263.891 114.66L265.474 110.588L271.674 112.794Z" fill="#FFB6B6"/>
<path d="M293.78 62.1207C293.761 62.3615 293.735 62.6279 293.709 62.9167C293.419 65.8556 292.736 71.1154 291.736 77.1155C291.209 80.2802 290.592 83.6523 289.898 87.0021C288.404 94.231 286.547 101.349 284.448 106.028C284.073 106.872 283.687 107.634 283.293 108.308C282.992 108.822 282.676 109.329 282.345 109.829C281.276 111.469 280.076 113.023 278.831 114.474C278.783 114.537 278.727 114.597 278.672 114.66C278.471 114.896 278.263 115.13 278.055 115.363C277.037 116.506 275.997 117.572 274.99 118.55C273.764 119.742 272.583 120.797 271.524 121.696H259.659L259.611 121.674L257.902 120.919C257.902 120.919 258.389 120.349 259.203 119.272C259.37 119.053 259.548 118.812 259.741 118.55C259.979 118.228 260.235 117.872 260.51 117.487C261.082 116.68 261.732 115.733 262.43 114.66C263.783 112.583 265.324 110.029 266.881 107.071C267.059 106.727 267.241 106.379 267.423 106.028C267.427 106.017 267.434 106.005 267.438 105.994C267.746 105.395 268.051 104.777 268.356 104.147C270.937 98.7949 271.677 94.3531 271.889 92.9134C272.186 90.8776 272.598 88.031 272.486 84.8996C272.412 82.8343 272.111 80.6503 271.395 78.4813V78.4777C271.246 78.0224 271.079 77.5671 270.889 77.1155C270.551 76.3049 270.15 75.5053 269.674 74.7169C267.576 71.245 265.871 71.1006 264.515 67.3176C264.113 66.1961 263.203 63.6644 263.482 60.9919V60.9882C263.515 60.6588 263.571 60.3257 263.645 59.9924V59.9888C263.664 59.8962 263.69 59.8001 263.716 59.7075C263.928 58.8895 264.277 58.0788 264.808 57.3088C265.844 55.8136 267.26 54.9251 268.526 54.3959L268.53 54.3921C269.994 53.7852 271.257 53.6556 271.502 53.6334C276.929 53.1523 281.138 57.6976 283.438 60.1813C284.325 61.1399 285.139 61.9432 285.882 62.5982C291.666 67.7434 293.252 64.4564 293.664 62.7575C293.727 62.4947 293.761 62.2689 293.78 62.1207Z" fill="#F58634"/>
<path d="M293.798 61.9285C293.798 61.9469 293.795 62.0098 293.78 62.1135C293.787 62.0579 293.791 62.0024 293.795 61.9505C293.795 61.9395 293.795 61.9321 293.798 61.9285Z" fill="#F58634"/>
<path d="M264.295 140.033H65.1648C63.3147 140.033 61.8066 141.532 61.8066 143.375C61.8066 145.222 63.3147 146.721 65.1648 146.721H264.295C266.145 146.721 267.65 145.222 267.65 143.375C267.65 141.532 266.145 140.033 264.295 140.033Z" fill="#E3E3E3"/>
<path d="M220.104 157.312H109.352C107.502 157.312 105.997 158.811 105.997 160.654C105.997 162.497 107.502 164 109.352 164H220.104C221.954 164 223.462 162.497 223.462 160.654C223.462 158.811 221.954 157.312 220.104 157.312Z" fill="#E3E3E3"/>
<path d="M87.3228 30.0834L99.8726 24.8208L105.255 35.8162L92.0674 41.1798L87.3228 30.0834Z" fill="#FFB6B6"/>
<path opacity="0.1" d="M87.3228 30.0834L99.8726 24.8208L105.255 35.8162L92.0674 41.1798L87.3228 30.0834Z" fill="black"/>
<path d="M89.1066 25.8938L101.487 40.1073C101.487 40.1073 92.8746 67.1935 84.262 69.6071C75.6494 72.0207 59.7699 83.8206 59.7699 83.8206L39.8533 70.948L49.5424 56.7344C49.5424 56.7344 72.9579 24.821 79.1483 24.821C85.3386 24.821 89.1066 25.8938 89.1066 25.8938Z" fill="#F58634"/>
<path d="M72.3801 118.55H43.5602L41.7381 116.123L34.299 106.213L32.5872 103.934C32.5872 103.934 26.1278 92.134 27.4735 81.4068C28.8192 70.6796 42.8147 68.266 42.8147 68.266H43.3907L60.5244 83.268L59.5016 97.2294L64.9275 106.213L72.3801 118.55Z" fill="#2F2E41"/>
<path d="M49.4627 118.55H41.7383V107.152L49.4627 118.55Z" fill="#2F2E41"/>
<path d="M216.067 101.247L215.107 106.214L212.722 118.55H164.817C165.191 115.785 165.703 111.805 166.249 107.509C166.303 107.08 166.359 106.648 166.413 106.214C167.783 95.414 169.282 83.193 169.282 83.193L175.58 83.9547L187.799 85.4296L192.778 86.0304L206.112 87.6421C212.76 88.444 217.332 94.6926 216.067 101.247Z" fill="#F2F2F2"/>
<path d="M283.862 118.55H257.879C258.275 118.086 258.498 117.818 258.498 117.818L266.287 116.536L282.336 113.897C282.336 113.897 283.068 115.782 283.862 118.55Z" fill="#2F2E41"/>
<path d="M173.649 35.4475L184.948 51.3705L165.238 51.957L163.123 36.9931L173.649 35.4475Z" fill="#A0616A"/>
<path opacity="0.1" d="M173.649 35.4475L184.948 51.3705L165.238 51.957L163.123 36.9931L173.649 35.4475Z" fill="black"/>
<path d="M117.923 68.4388C116.474 64.2713 113.14 61.6385 110.479 62.5584C107.817 63.4782 106.835 67.6018 108.286 71.7706C108.843 73.4438 109.794 74.9598 111.059 76.1919L117.426 93.7726L125.642 90.6196L118.493 73.6229C118.721 71.8743 118.526 70.0967 117.923 68.4388Z" fill="#A0616A"/>
<path d="M194.411 60.3253L194.396 76.5528L192.881 82.5467L189.764 94.8749L187.495 106.214L185.805 114.661L185.202 117.678C184.747 117.981 184.295 118.271 183.843 118.55H144.475C142.239 117.212 140.987 116.171 140.987 116.171C140.987 116.171 141.606 115.592 142.314 114.661C143.509 113.09 144.954 110.515 144.069 108.056C143.883 107.541 143.835 106.913 143.891 106.214C144.252 101.596 149.113 93.7861 149.113 93.7861L148.106 82.1953L147.665 77.116L150.777 52.3495L160.921 46.4737L162.672 46.3048L179.959 45.3743L187.104 45.7846L187.43 45.8731L194.411 60.3253Z" fill="#CECECE"/>
<path d="M195.18 118.55H186.567L186.188 114.661L186.179 114.583L188.618 114.417L194.962 113.985L195.072 116.313L195.158 118.099L195.18 118.55Z" fill="#FFB6B6"/>
<path d="M197.3 64.2488L200.918 85.4001L197.965 106.214L197.505 109.453L196.692 115.173L196.442 116.933L196.45 117.123L196.512 118.55H186.284L185.907 114.661L185.875 114.313L185.105 106.348L185.092 106.214L183.458 89.3236L186.661 77.1161L186.898 76.2176V76.215L188.291 55.313L187.212 45.8141L187.201 45.7256C187.223 45.739 187.242 45.7524 187.263 45.7658C187.32 45.8007 187.376 45.8355 187.43 45.8731C193.717 49.8475 197.464 56.8202 197.3 64.2488Z" fill="#CECECE"/>
<path d="M154.441 56.4025L150.508 52.3491C150.508 52.3491 142.088 56.1311 141.669 58.2293C141.249 60.3276 126.384 91.1448 126.384 91.1448L119.916 73.9335L111.498 79.5339C111.498 79.5339 118.253 106.256 124.57 107.51C130.888 108.764 152.06 75.8824 152.06 75.8824L154.441 56.4025Z" fill="#CECECE"/>
<path d="M314.136 106.028H7.86051C3.52541 106.028 0 109.544 0 113.864C0 118.183 3.5254 121.696 7.86051 121.696H314.136C318.471 121.696 322 118.183 322 113.864C322 109.544 318.471 106.028 314.136 106.028Z" fill="#E3E3E3"/>
<path d="M192.619 82.1502L192.024 109.838C191.966 112.518 189.769 114.661 187.078 114.661H135.962C133.335 114.661 131.167 112.615 131.023 110.002L129.504 82.3137C129.349 79.4901 131.605 77.116 134.443 77.116H187.674C190.447 77.116 192.678 79.3875 192.619 82.1502Z" fill="#3F3D56"/>
<path d="M110.1 36.7672C116.854 36.7672 122.33 31.3114 122.33 24.5813C122.33 17.8512 116.854 12.3954 110.1 12.3954C103.346 12.3954 97.8704 17.8512 97.8704 24.5813C97.8704 31.3114 103.346 36.7672 110.1 36.7672Z" fill="#FFB6B6"/>
<path d="M89.6455 56.4661L90.9912 70.9478L100.142 107.688L92.2363 110.449L78.8797 70.4115L77.0349 54.3207L89.6455 56.4661Z" fill="#FFB6B6"/>
<path d="M86.0048 82.1503L85.4093 109.838C85.3517 112.518 83.1546 114.661 80.4641 114.661H29.3479C26.721 114.661 24.5523 112.615 24.4089 110.002L22.8899 82.3138C22.7349 79.4903 24.9909 77.1161 27.8288 77.1161H81.0596C83.8328 77.1161 86.0642 79.3876 86.0048 82.1503Z" fill="#3F3D56"/>
<path d="M101.599 114.848C106.933 114.848 111.257 112.943 111.257 110.592C111.257 108.241 106.933 106.335 101.599 106.335C96.2644 106.335 91.9402 108.241 91.9402 110.592C91.9402 112.943 96.2644 114.848 101.599 114.848Z" fill="#FFB6B6"/>
<path d="M70.6707 58.6802L76.1881 29.38C76.1881 29.38 91.5293 27.2346 92.0676 32.33C92.6059 37.4254 91.6829 62.3274 91.6829 62.3274L70.6707 58.6802Z" fill="#F58634"/>
<path d="M105.163 26.4973C105.163 26.4973 112.728 23.8069 115.919 22.3594C119.11 20.9118 125.45 31.0083 125.591 25.676C125.732 20.3437 123.541 18.1076 123.541 18.1076C123.541 18.1076 122.994 6.44237 111.2 7.9008C111.2 7.9008 113.794 2.06457 105.278 1.16211C96.7622 0.259641 83.5135 20.7506 84.7001 23.8129C85.8866 26.8752 87.3089 29.4069 83.9427 32.6811C80.5764 35.9554 74.273 54.4343 79.0689 59.4069C83.8648 64.3794 84.1795 66.5372 80.8935 69.6308C77.6076 72.7243 69.8405 79.4509 78.2385 80.6186C86.6365 81.7864 77.4702 80.9142 83.731 75.4268C89.9919 69.9395 99.1278 70.1636 95.7166 61.3596C92.3054 52.5556 98.2319 39.9395 97.4903 38.0256C96.7488 36.1117 99.1518 23.9582 99.1518 23.9582C99.1518 23.9582 104.744 23.1394 105.163 26.4973Z" fill="#2F2E41"/>
<path d="M167.607 41.2109C174.96 41.2109 180.92 35.2718 180.92 27.9457C180.92 20.6195 174.96 14.6804 167.607 14.6804C160.255 14.6804 154.294 20.6195 154.294 27.9457C154.294 35.2718 160.255 41.2109 167.607 41.2109Z" fill="#A0616A"/>
<path d="M168.669 10.1115C168.284 10.3355 167.768 9.99651 167.645 9.56944C167.521 9.14236 167.665 8.68893 167.808 8.26783L168.526 6.14794C169.036 4.64446 169.576 3.08846 170.68 1.94412C172.345 0.216926 174.991 -0.222464 177.374 0.0958582C180.433 0.504648 183.452 2.15537 184.874 4.88506C186.297 7.61475 185.691 11.4236 183.121 13.1267C186.784 17.3106 188.061 21.9734 187.86 27.5223C187.658 33.0711 181.589 38.1779 177.632 42.0868C176.748 41.553 175.945 39.0513 176.431 38.1424C176.917 37.2336 176.22 36.1807 176.822 35.3436C177.424 34.5065 177.928 35.8394 177.319 35.0071C176.935 34.4818 178.434 33.2735 177.863 32.9591C175.102 31.4386 174.184 28.0098 172.45 25.3842C170.359 22.2172 166.779 20.0724 162.992 19.7166C160.905 19.5206 158.701 19.8756 156.991 21.0827C155.28 22.2898 154.173 24.4468 154.57 26.4974C153.542 25.4582 153.031 23.9353 153.224 22.4894C153.417 21.0435 154.31 19.7065 155.573 18.9707C154.805 16.4384 155.463 13.5254 157.247 11.5658C159.031 9.60623 166.267 9.93998 168.871 10.4557L168.669 10.1115Z" fill="#2F2E41"/>
<path d="M169.074 19.7936C172.523 20.1646 175.013 23.1416 177.116 25.8908C178.328 27.4754 179.598 29.2254 179.567 31.2175C179.537 33.2316 178.185 34.9592 177.539 36.868C176.483 39.9879 177.512 43.6999 180.026 45.8377C177.542 46.3072 174.858 44.4519 174.429 41.9699C173.93 39.0806 176.128 36.2919 175.868 33.3715C175.639 30.7986 173.604 28.8185 171.874 26.8948C170.144 24.9711 168.519 22.4183 169.315 19.9601L169.074 19.7936Z" fill="#2F2E41"/>
<path d="M220.637 107.704C217.221 109.64 215.454 112.966 216.691 115.133C217.928 117.299 221.7 117.485 225.118 115.547C226.493 114.792 227.667 113.72 228.542 112.42L242.913 104.034L238.82 97.3976L225.087 106.369C223.518 106.454 221.992 106.912 220.637 107.704Z" fill="#FFB6B6"/>
<path d="M269.296 46.2094C268.867 46.0398 265.098 44.6179 261.658 46.4952C257.706 48.6518 257.096 53.5748 256.882 55.3015C256.387 59.2902 257.844 60.1842 258.152 64.2223C258.727 71.7771 260.244 63.1585 257.821 66.607C256.982 67.8006 248.416 86.298 243.692 89.9212C234.504 96.9678 228.67 101.93 228.67 101.93L235.331 109.14C235.331 109.14 245.856 106.345 255.159 100.327C264.701 94.1525 269.473 91.0655 273.164 85.0265C273.482 84.5065 281.088 71.6361 277.003 57.4045C276.071 54.1584 274.364 48.2106 269.296 46.2094Z" fill="#F58634"/>
<path d="M303.691 82.1502L303.095 109.838C303.038 112.518 300.841 114.661 298.15 114.661H247.034C244.407 114.661 242.238 112.615 242.095 110.002L240.576 82.3137C240.421 79.4901 242.677 77.116 245.515 77.116H298.746C301.519 77.116 303.75 79.3875 303.691 82.1502Z" fill="#3F3D56"/>
</g>
<defs>
<clipPath id="clip0_1148_888">
<rect width="322" height="164" fill="white"/>
</clipPath>
</defs>
</svg>
