<svg width="289" height="198" viewBox="0 0 289 198" fill="none" xmlns="http://www.w3.org/2000/svg">
<g clip-path="url(#clip0_1148_643)">
<path d="M245.566 189.343L242.278 188.564L244.267 173.264L249.119 174.412L245.566 189.343Z" fill="#FFB6B6"/>
<path d="M232.585 193.289C232.441 193.846 232.717 194.401 233.2 194.527L239.687 196.227C239.687 196.227 240.991 193.803 243.881 193.37L243.108 197.123L246.454 198L247.58 191.935C247.58 191.935 249.295 188.982 247.854 186.865C246.414 184.749 247.862 185.37 247.862 185.37L248.078 181.491L242.867 180.766L241.342 186.545L237.411 191.649L233.351 192.501C232.989 192.576 232.688 192.886 232.585 193.289Z" fill="#2F2E41"/>
<path d="M277.088 185.733L274.089 187.301L265.742 174.373L270.168 172.059L277.088 185.733Z" fill="#FFB6B6"/>
<path d="M269.771 197.255C270.021 197.773 270.588 198.013 271.037 197.791L277.058 194.822C277.058 194.822 276.488 192.125 278.403 189.899L280.234 193.257L283.34 191.725L280.288 186.379C280.288 186.379 279.688 183.01 277.23 182.348C274.773 181.686 276.273 181.208 276.273 181.208L273.938 178.119L269.513 180.991L272.078 186.382L272.38 192.84L269.845 196.154C269.619 196.448 269.59 196.881 269.771 197.255Z" fill="#2F2E41"/>
<path d="M101.218 128.903H188.372C189.469 128.903 190.359 128.005 190.359 126.897V2.38111C190.359 1.27326 189.469 0.375183 188.372 0.375183H101.218C100.12 0.375183 99.231 1.27326 99.231 2.38111V126.897C99.231 128.005 100.12 128.903 101.218 128.903Z" fill="white"/>
<path d="M190.729 129.278H98.8584V0H190.729V129.278ZM99.6016 128.528H189.986V0.750412H99.6016V128.528Z" fill="#E6E6E6"/>
<path d="M170.083 20.7099C170.437 20.7099 170.724 20.9993 170.724 21.3563V22.6493C170.724 23.0063 170.437 23.2958 170.083 23.2958H119.506C119.152 23.2958 118.865 23.0063 118.865 22.6493V21.3563C118.865 20.9993 119.152 20.7099 119.506 20.7099H170.083Z" fill="#E6E6E6"/>
<path d="M170.083 26.8503C170.437 26.8503 170.724 27.1398 170.724 27.4968V28.7898C170.724 29.1468 170.437 29.4363 170.083 29.4363H119.506C119.152 29.4363 118.865 29.1468 118.865 28.7898V27.4968C118.865 27.1398 119.152 26.8503 119.506 26.8503H170.083Z" fill="#E6E6E6"/>
<path d="M170.083 32.9915C170.437 32.9915 170.724 33.2809 170.724 33.638V34.931C170.724 35.288 170.437 35.5774 170.083 35.5774H119.506C119.152 35.5774 118.865 35.288 118.865 34.931V33.6384C118.865 33.2813 119.152 32.9919 119.506 32.9919L170.083 32.9915Z" fill="#F58634"/>
<path d="M263.178 49.1022H279.978C279.954 48.3052 280.121 47.5141 280.467 46.7972C280.477 47.5928 280.65 48.3777 280.976 49.1022H281.739C282.906 49.101 283.852 48.1459 283.853 46.9674V35.9447C283.853 30.5477 279.282 22.4573 274.316 25.8428C274.156 25.8343 271.638 24.7085 271.478 24.7085C267.109 24.7121 265.607 28.6927 264.287 32.8979C262.784 32.1984 261.748 35.1181 260.999 40.2571C260.78 41.7568 260.586 43.4454 260.412 45.2883C259.93 46.8345 260.781 48.4822 262.312 48.9685C262.593 49.0575 262.885 49.1031 263.179 49.1037L263.178 49.1022Z" fill="#2F2E41"/>
<path d="M230.21 112.119C229.377 114.113 229.72 116.163 230.977 116.698C232.233 117.233 233.927 116.051 234.76 114.056C235.103 113.264 235.254 112.401 235.199 111.538L238.623 103.046L234.642 101.509L231.688 110.044C231.038 110.606 230.531 111.318 230.208 112.119L230.21 112.119Z" fill="#FFB6B6"/>
<path d="M267.02 45.3712L275.051 47.0672L273.819 50.7978L276.282 79.3319L272.177 88.5196L247.132 86.4469L253.29 74.0102C253.29 74.0102 250.827 63.6471 254.112 61.5736C257.396 59.5001 262.734 49.137 262.734 49.137L267.02 45.3712Z" fill="#F58634"/>
<path d="M274.506 48.7171L281.62 51.6252L279.157 88.1037L284.494 119.608L267.25 122.51C267.25 122.51 269.303 52.8688 270.534 51.6252C271.766 50.3815 274.506 48.7152 274.506 48.7152V48.7171Z" fill="#2F2E41"/>
<path d="M260.573 53.2666C260.573 53.2666 255.944 50.3097 253.443 52.4991C250.942 54.6886 231.688 107.613 231.688 107.613L236.881 109.891L248.792 84.677L260.573 53.2666Z" fill="#2F2E41"/>
<path d="M247.313 142.438L242.617 178.888L249.186 179.302C249.186 179.302 252.602 169.892 256.499 158.808C257.328 156.457 258.178 154.032 259.02 151.603C259.931 148.967 260.839 146.33 261.7 143.786C263.831 137.51 265.7 131.797 266.767 128.067C266.951 127.412 267.116 126.819 267.251 126.296C270.123 115.154 271.767 86.0349 271.767 86.0349L247.954 83.9621L247.699 84.2813L242.617 90.694L242.855 92.0496L249.186 127.902L247.314 142.44L247.313 142.438Z" fill="#2F2E41"/>
<path d="M249.185 127.902L247.313 142.44L255.734 157.408L256.497 158.809L268.091 180.082L273.819 176.803C273.819 176.803 266.367 159.513 261.699 143.786C261.181 142.057 260.701 140.345 260.27 138.678C259.001 133.799 261.079 124.895 260.266 122.441C257.519 114.159 248.569 97.5899 244.414 90.084L242.854 92.0489L249.185 127.902Z" fill="#2F2E41"/>
<path d="M262.837 48.8248L254.524 52.0418L232.763 116.294L245.902 118.367L252.06 81.0591L262.837 48.8248Z" fill="#2F2E41"/>
<path d="M283.629 118.18C283.84 120.333 285.112 121.968 286.469 121.832C287.826 121.696 288.755 119.84 288.543 117.686C288.47 116.825 288.194 115.993 287.737 115.262L286.727 106.15L282.502 106.72L283.947 115.642C283.642 116.45 283.533 117.32 283.629 118.18Z" fill="#FFB6B6"/>
<path d="M278.746 51.6272C278.746 51.6272 284.083 50.3836 285.725 53.2854C287.368 56.1873 288.189 112.563 288.189 112.563L282.541 112.978L279.567 85.2054L278.746 51.6283L278.746 51.6272Z" fill="#2F2E41"/>
<path d="M271.935 44.3655C276.649 44.3655 280.47 40.5076 280.47 35.7486C280.47 30.9896 276.649 27.1317 271.935 27.1317C267.222 27.1317 263.401 30.9896 263.401 35.7486C263.401 40.5076 267.222 44.3655 271.935 44.3655Z" fill="#FFB6B6"/>
<path d="M275.36 49.1017H279.575C279.789 49.1017 279.971 48.935 279.981 48.719L279.982 48.6952C280.005 48.245 280.631 48.1692 280.776 48.5955C280.834 48.767 280.901 48.9359 280.975 49.1017H281.39V35.8172C281.39 33.5386 279.561 31.6915 277.304 31.6915C275.377 31.6915 273.712 33.0505 273.308 34.9527C273.308 34.9527 270.444 38.4998 272.132 40.4941C273.82 42.4883 271.364 44.1115 271.364 44.1115C270.819 46.6798 272.758 49.1017 275.36 49.1017Z" fill="#2F2E41"/>
<path d="M135.616 64.5759C136.562 63.9601 136.761 62.6421 136.099 61.7229L133 57.4174C132.277 56.4107 130.881 56.187 129.884 56.9178C129.796 56.9825 129.712 57.0538 129.634 57.1309C124.387 59.9634 121.562 64.0999 124.703 68.9897C124.703 69.8063 124.762 70.6218 124.879 71.4297C124.93 71.7803 125.047 72.1232 125.245 72.4156C125.833 73.2841 126.871 73.6029 127.785 73.3023L132.853 71.6396C133.93 71.2863 134.513 70.0993 134.115 69.0289C133.601 67.6457 133.813 65.7499 135.616 64.5759Z" fill="#F2F2F2"/>
<path d="M147.646 77.2767C146.188 77.1314 144.943 78.3447 144.943 79.8243V84.2389C144.943 84.3533 144.952 84.4675 144.969 84.5805C145.156 85.8107 146.296 86.6546 147.514 86.4654C154.618 87.3492 159.472 84.2304 159.764 77.3877C159.811 77.2917 159.85 77.1924 159.883 77.0907C160.262 75.9083 159.619 74.6399 158.448 74.2577L154.204 72.8655C152.74 72.3852 151.218 73.3449 150.962 74.8775C150.731 76.2619 149.826 77.494 147.646 77.2767Z" fill="#E6E6E6"/>
<path d="M121.409 81.5933C122.882 90.4207 130.553 93.7696 138.554 94.2989C138.711 94.3232 138.869 94.3355 139.028 94.3356C140.753 94.3364 142.153 92.9248 142.154 91.1824V83.8007C142.154 81.7359 140.478 80.1278 138.433 80.107C136.456 80.0869 135.167 79.1423 134.638 77.4081C134.033 75.4271 131.878 74.3826 129.925 75.0232L123.251 77.2128C122.387 77.4962 121.687 78.1452 121.335 78.9909C120.984 79.8281 121.011 80.7779 121.409 81.5933Z" fill="#3F3D56"/>
<path d="M162.522 51.0701C161.291 49.852 159.314 49.8727 158.108 51.1162C158.001 51.2269 157.901 51.3454 157.811 51.4708L151.882 59.7114C151.123 60.7651 151.557 62.2331 152.742 62.7476C155.518 63.9527 155.226 66.658 154.322 68.3136C153.879 69.1249 154.245 70.1403 155.118 70.4266L165.11 73.7048C166.754 74.2406 168.517 73.3295 169.048 71.6697C169.101 71.5026 169.141 71.3312 169.166 71.1575C169.338 70.0024 169.424 68.8361 169.424 67.6681C171.114 61.304 168.775 55.3047 162.522 51.0701Z" fill="#F58634"/>
<path d="M145.362 60.6251C146.469 61.2545 147.866 60.95 148.613 59.9122L150.6 57.1518C150.985 56.6165 151.119 55.9374 150.966 55.2939C150.818 54.6621 150.403 54.1276 149.831 53.8317C145.156 49.5672 139.623 49.3054 134.931 53.8099C134.341 54.1104 133.912 54.6572 133.757 55.3055C133.604 55.9446 133.736 56.6193 134.12 57.1509L136.441 60.377C137.238 61.4849 138.783 61.7748 139.882 60.9717C141.478 59.8047 143.798 59.7361 145.362 60.6251Z" fill="#E6E6E6"/>
<path d="M302.632 197.344H-13.6321V197.976H302.632V197.344Z" fill="#E6E6E6"/>
<path d="M119.189 116.236C119.368 115.473 120.205 115.223 120.89 115.252C121.323 115.281 121.752 115.35 122.173 115.456C122.613 115.556 123.048 115.674 123.482 115.798C124.277 116.027 125.064 116.304 125.872 116.483C126.55 116.67 127.264 116.681 127.948 116.514C128.605 116.332 129.122 115.819 129.315 115.159C129.511 114.529 129.229 113.847 128.646 113.546C128.107 113.246 127.429 113.444 127.132 113.988C127.127 113.996 127.123 114.005 127.119 114.013C126.869 114.684 127.065 115.442 127.608 115.904C127.887 116.168 128.192 116.402 128.518 116.602C128.85 116.83 129.219 116.997 129.608 117.095C130.27 117.272 130.969 116.996 131.338 116.413C131.411 116.273 131.455 116.12 131.467 115.963C131.486 115.748 131.155 115.75 131.135 115.963C131.08 116.576 130.368 116.863 129.835 116.796C129.475 116.736 129.132 116.602 128.827 116.401C128.532 116.228 128.253 116.029 127.992 115.807C127.54 115.412 127.117 114.763 127.42 114.147C127.656 113.751 128.165 113.624 128.557 113.862C128.609 113.894 128.658 113.931 128.702 113.974C129.177 114.366 129.092 115.076 128.779 115.541C128.404 116.027 127.824 116.306 127.214 116.295C126.57 116.296 125.931 116.195 125.318 115.995C124.555 115.776 123.799 115.531 123.032 115.325C122.596 115.208 122.157 115.102 121.714 115.02C121.295 114.927 120.864 114.897 120.436 114.931C119.713 114.965 119.088 115.45 118.868 116.146C118.82 116.356 119.14 116.446 119.189 116.236Z" fill="#3F3D56"/>
<path d="M132.314 107.512C132.414 107.512 132.495 107.801 132.495 108.158V109.451C132.495 109.808 132.414 110.098 132.314 110.098H118.019C117.919 110.098 117.838 109.808 117.838 109.451V108.158C117.838 107.801 117.919 107.512 118.019 107.512H132.314Z" fill="#E6E6E6"/>
<path d="M170.543 107.512C170.643 107.512 170.724 107.801 170.724 108.158V109.451C170.724 109.808 170.643 110.098 170.543 110.098H156.247C156.147 110.098 156.066 109.808 156.066 109.451V108.158C156.066 107.801 156.147 107.512 156.247 107.512H170.543Z" fill="#E6E6E6"/>
<path d="M164.178 114.795L161.34 115.742L159.921 116.215C159.485 116.403 159.013 116.491 158.54 116.471C158.19 116.448 157.883 116.228 157.745 115.903C157.685 115.577 157.824 115.246 158.098 115.063C158.775 114.543 159.631 115.072 160.111 115.611C160.698 116.27 161.03 117.12 161.581 117.81C162.07 118.429 162.692 118.929 163.399 119.273C164.811 119.98 166.496 119.835 167.769 118.896C169.265 117.731 169.417 115.712 169.425 113.95C169.419 113.781 169.279 113.649 169.111 113.654C168.952 113.66 168.824 113.789 168.818 113.95C168.811 115.547 168.721 117.504 167.279 118.503C165.898 119.46 164.084 119.206 162.811 118.186C162.156 117.597 161.611 116.894 161.202 116.11C160.747 115.359 160.184 114.635 159.329 114.344C158.573 114.067 157.729 114.365 157.308 115.057C156.946 115.672 157.147 116.468 157.757 116.833C157.804 116.861 157.853 116.887 157.903 116.909C158.894 117.385 160.028 116.827 160.982 116.508L164.34 115.388C164.709 115.265 164.551 114.673 164.179 114.797L164.178 114.795Z" fill="#F58634"/>
<path d="M38.0775 186.102C38.0405 186.069 38.012 186.052 37.9927 186.053C37.5298 186.057 37.1173 186.302 36.8899 186.708L31.9052 196.054C31.7911 196.258 31.7352 196.48 31.7371 196.702C31.739 196.924 31.7988 197.146 31.9163 197.347C32.1513 197.75 43.1601 197.895 43.1601 197.895C43.6231 197.891 44.8937 192.14 38.0775 186.102Z" fill="#E6E6E6"/>
<path d="M19.0259 195.63L22.8094 195.597L24.4819 180.846L18.8977 180.896L19.0259 195.63Z" fill="#FFB6B6"/>
<path d="M31.9882 195.429C32.1077 195.629 32.1755 196.275 32.1775 196.508C32.1837 197.224 31.6138 197.809 30.9046 197.816L19.1874 197.919C18.7036 197.923 18.3079 197.531 18.3037 197.042L18.2994 196.549C18.2994 196.549 17.707 195.074 18.8846 193.239C18.8846 193.239 20.3801 194.655 22.5771 192.398L23.2203 191.196L27.9814 194.648L30.6065 194.951C31.1808 195.017 31.6888 194.93 31.9882 195.429Z" fill="#2F2E41"/>
<path d="M33.4209 182.895L37.0158 184.087L43.2792 170.654L37.9735 168.896L33.4209 182.895Z" fill="#FFB6B6"/>
<path d="M45.7633 186.897C45.8134 187.124 45.6726 187.758 45.6006 187.979C45.3794 188.66 44.6537 189.03 43.9799 188.807L32.8471 185.115C32.3874 184.963 32.1371 184.463 32.2881 183.999L32.4403 183.531C32.4403 183.531 32.347 181.942 34.0447 180.585C34.0447 180.585 35.0124 182.409 37.8097 180.981L38.8 180.051L42.2154 184.861L44.6062 185.996C45.1293 186.245 45.638 186.327 45.7633 186.897Z" fill="#2F2E41"/>
<path d="M38.496 97.3685L46.0552 121.84L54.9171 143.833L41.4846 175.48L34.0106 172.54L40.6998 145.15L29.2652 124.698L23.8614 186.091L17.2876 185.297L8.74023 111.756L10.0807 95.7643L38.496 97.3685Z" fill="#2F2E41"/>
<path d="M30.762 41.6498L22.5944 39.6593L20.3413 45.0623C20.3413 45.0623 9.30445 46.9447 8.74032 55.4754C8.74032 55.4754 6.54067 66.6734 7.94875 69.8015C9.35683 72.9296 12.8282 83.991 12.8282 83.991C12.8282 83.991 7.33187 97.7724 8.74032 98.6241C10.1488 99.4758 40.3283 102.581 40.3283 100.875C40.3283 99.1693 40.6728 78.8995 40.6728 78.8995L39.4911 48.1889L31.8887 45.3467L30.762 41.6498Z" fill="#CECECE"/>
<path d="M29.3797 40.2756C33.9253 40.2756 37.6102 36.5552 37.6102 31.9658C37.6102 27.3764 33.9253 23.6559 29.3797 23.6559C24.8341 23.6559 21.1492 27.3764 21.1492 31.9658C21.1492 36.5552 24.8341 40.2756 29.3797 40.2756Z" fill="#FFB6B6"/>
<path d="M23.93 33.2012C24.5869 33.564 23.9643 35.2974 24.3749 35.4471C24.8494 35.6201 26.5787 33.6313 26.5993 31.4044C26.6056 30.7305 26.4519 30.4069 26.5993 29.6077C26.7922 28.5624 27.3849 27.3293 27.934 27.3618C28.2595 27.3811 28.5775 27.8456 28.6013 28.2602C28.6348 28.8412 28.0758 29.0702 28.1564 29.3831C28.31 29.9793 30.6577 30.3901 31.4931 29.3831C32.1481 28.5937 31.6451 27.2083 31.938 27.1372C32.1539 27.0849 32.386 27.8476 33.2727 28.7094C33.6068 29.034 34.1036 29.5169 34.3849 29.3831C34.7915 29.1899 34.4956 27.8291 34.6074 27.811C34.6999 27.796 34.7584 28.7526 35.2747 29.6077C35.9381 30.7064 37.306 31.5529 37.9441 31.1799C38.335 30.9513 38.3657 30.3153 38.389 29.8323C38.4381 28.8147 39.9019 26.4736 39.5226 25.3852C38.7506 23.1699 37.4297 24.7321 36.8318 23.993C36.0224 22.9923 35.2967 23.5307 33.94 22.4208C32.6147 21.3366 32.6028 20.2464 31.7156 20.1749C30.9165 20.1106 30.6327 20.9712 29.7136 20.8487C28.9349 20.7449 28.7653 20.0775 28.1565 20.1749C27.599 20.2641 27.5625 20.8521 26.8218 21.0733C26.3489 21.2145 26.2449 21.0104 25.7095 21.0733C24.5955 21.2042 23.8476 22.2289 23.7075 22.4208C23.1674 23.1608 23.3772 23.4727 22.8177 24.2176C22.3353 24.8599 21.2656 24.5876 20.8636 24.9084C19.5499 25.9569 18.9859 27.8898 18.9753 30.0927C18.9679 31.6334 19.1671 32.4118 19.6117 34.3564C19.9494 35.8329 21.5116 37.7407 22.3728 38.5913C22.604 38.8197 23.2521 39.4598 23.7075 39.2651C24.1391 39.0806 24.1519 38.2516 24.1524 38.1422C24.1542 37.7657 24.0548 37.2999 23.2626 36.1208C22.4306 34.8823 22.1001 34.741 22.1504 34.3241C22.2393 33.5872 23.4064 32.912 23.93 33.2012Z" fill="#2F2E41"/>
<path d="M0.654386 116.087C0.36776 118.504 1.37003 120.612 2.89303 120.796C4.41603 120.98 5.88301 119.171 6.16964 116.754C6.2951 115.697 6.17355 114.698 5.86951 113.894L6.95679 103.64L2.17987 103.227L1.61503 113.379C1.13153 114.088 0.77985 115.03 0.654386 116.087Z" fill="#FFB6B6"/>
<path d="M14.4091 47.9895C14.4091 47.9895 11.9342 48.0242 10.2944 51.2549C9.42301 52.9716 3.75901 83.742 3.75901 83.742L2.16779 93.4738L2.98557 95.0833C1.68559 97.0908 1.32771 99.5746 2.0073 101.873L0.452637 111.381L7.7631 111.421L13.4682 86.5128L18.2652 72.0672L14.4091 47.9895Z" fill="#CECECE"/>
<path d="M51.7585 115.712C52.0451 118.129 51.0428 120.237 49.5198 120.421C47.9968 120.605 46.5298 118.796 46.2432 116.379C46.1178 115.321 46.2393 114.323 46.5433 113.519L45.4561 103.265L50.233 102.852L50.7978 113.004C51.2813 113.713 51.633 114.655 51.7585 115.712Z" fill="#FFB6B6"/>
<path d="M38.0036 47.6143C38.0036 47.6143 40.4785 47.649 42.1183 50.8797C42.9896 52.5965 48.6536 83.3668 48.6536 83.3668L50.2449 93.0986L49.4271 94.7082C50.7271 96.7156 51.085 99.1994 50.4054 101.498L51.96 111.006L44.6496 111.046L38.9445 86.1376L34.1475 71.692L38.0036 47.6143Z" fill="#CECECE"/>
<path d="M261.675 34.4691C261.979 34.9709 263.59 33.1351 266.063 32.9327C266.693 32.8798 268.113 35.3142 269.741 35.3495C270.82 35.3715 271.485 35.3627 272.814 35.3495C274.385 35.3318 274.815 35.2966 275.118 34.9093C275.706 34.1566 275.222 32.8185 275.502 32.7085C275.737 32.6161 276.343 33.4436 276.655 34.4691C277.307 36.6215 274.965 39.619 274.734 42.392C274.488 45.3807 276.908 39.6542 276.655 42.392C276.37 45.4732 275.352 45.2399 275.364 46.3535C275.368 46.5207 275.41 46.666 275.502 46.7936C275.583 46.9081 275.664 46.9521 277.039 47.2338C278.682 47.5727 279.508 47.74 279.727 47.674C280.292 47.5067 280.864 46.578 281.263 45.9133C281.924 44.8261 281.456 45.9221 281.263 44.5928C281.079 43.3076 280.503 43.1403 280.495 41.9519C280.488 40.4553 281.398 40.002 282.032 38.4306C283.203 35.5255 282.059 32.1627 281.648 30.9479C281.45 30.3653 281.092 29.6279 280.465 28.4096C279.961 27.4316 279.293 26.5701 278.477 25.9245C277.255 24.957 275.836 24.2941 274.301 24.0314C273.461 23.8875 272.604 23.9631 271.777 24.1906L269.637 24.78C268.737 25.0278 267.889 25.4768 267.141 26.1014C266.444 26.104 265.839 26.6203 265.6 27.3708C265.575 27.4493 265.553 27.4951 265.534 27.4883C261.675 26.1061 261.678 30.2001 261.72 32.7576C261.725 33.0193 261.716 33.251 261.687 33.4392V33.4524C261.61 33.9585 261.591 34.3283 261.675 34.4691Z" fill="#2F2E41"/>
<path d="M211.518 57.0794H170.897V57.8298H211.518V57.0794Z" fill="#3F3D56"/>
<path d="M219.693 62.3212C216.824 62.3212 214.49 59.9648 214.49 57.0683C214.49 54.1718 216.824 51.8154 219.693 51.8154C222.562 51.8154 224.896 54.1718 224.896 57.0683C224.896 59.9648 222.562 62.3212 219.693 62.3212ZM219.693 52.5658C217.234 52.5658 215.233 54.5857 215.233 57.0683C215.233 59.5509 217.234 61.5708 219.693 61.5708C222.152 61.5708 224.152 59.5509 224.152 57.0683C224.152 54.5857 222.152 52.5658 219.693 52.5658Z" fill="#3F3D56"/>
<path d="M219.694 59.6947C221.131 59.6947 222.296 58.5188 222.296 57.0683C222.296 55.6178 221.131 54.4419 219.694 54.4419C218.257 54.4419 217.093 55.6178 217.093 57.0683C217.093 58.5188 218.257 59.6947 219.694 59.6947Z" fill="#F58634"/>
<path d="M118.727 84.8446H78.1057V85.595H118.727V84.8446Z" fill="#3F3D56"/>
<path d="M64.7266 84.8334C64.7266 81.9369 67.0605 79.5805 69.9293 79.5805C72.7981 79.5805 75.132 81.9369 75.132 84.8334C75.132 87.7298 72.7981 90.0862 69.9293 90.0862C67.0605 90.0862 64.7266 87.7298 64.7266 84.8334ZM65.4698 84.8334C65.4698 87.316 67.4704 89.3358 69.9293 89.3358C72.3882 89.3358 74.3888 87.316 74.3888 84.8334C74.3888 82.3507 72.3882 80.3309 69.9293 80.3309C67.4704 80.3309 65.4698 82.3507 65.4698 84.8334Z" fill="#3F3D56"/>
<path d="M69.9292 87.46C71.3659 87.46 72.5306 86.2841 72.5306 84.8336C72.5306 83.383 71.3659 82.2071 69.9292 82.2071C68.4926 82.2071 67.3279 83.383 67.3279 84.8336C67.3279 86.2841 68.4926 87.46 69.9292 87.46Z" fill="#F58634"/>
</g>
<defs>
<clipPath id="clip0_1148_643">
<rect width="289" height="198" fill="white"/>
</clipPath>
</defs>
</svg>
