<svg width="321" height="203" viewBox="0 0 321 203" fill="none" xmlns="http://www.w3.org/2000/svg">
<g clip-path="url(#clip0_1148_766)">
<path d="M257.746 199.844C251.914 200.359 246.162 198.208 242.092 193.991C239.464 191.213 237.66 187.639 235.916 184.182C235.408 183.176 234.884 182.136 234.35 181.139C233.132 178.915 233.386 176.173 234.992 174.212C236.531 172.252 239.105 171.428 241.493 172.13L241.748 172.204L244.038 181.162C244.38 179.826 245.113 176.815 245.577 173.866L245.616 173.619L245.844 173.721C248.235 174.781 250.484 176.14 252.537 177.763C259.898 183.681 264.29 192.545 264.545 202L264.551 202.279L257.746 199.844Z" fill="#F2F2F2"/>
<path d="M332.413 202.877L221.26 203C220.998 202.999 220.786 202.784 220.788 202.522C220.789 202.261 221 202.05 221.26 202.048L332.413 201.925C332.675 201.925 332.888 202.137 332.889 202.4C332.89 202.663 332.678 202.876 332.416 202.877H332.413Z" fill="#CACACA"/>
<path d="M46.81 3.77036H42.6569C41.831 3.77036 41.1615 4.44144 41.1615 5.26925C41.1615 6.09706 40.4919 6.76814 39.666 6.76814H25.82C24.9941 6.76814 24.3245 6.09706 24.3245 5.26925L24.0508 3.74979L21.541 0.542783C21.3743 0.326417 21.1162 0.200752 20.8435 0.203222H16.1367C15.6474 0.203805 15.251 0.601193 15.2504 1.09158L15.1532 3.74979H13.3738C11.802 3.74979 10.5278 5.02687 10.5278 6.60222V25.1801C10.5278 26.5781 11.6586 27.7114 13.0534 27.7114H46.8101C48.2041 27.7097 49.3336 26.5773 49.3349 25.1801V6.30098C49.3349 4.90336 48.2045 3.77036 46.81 3.77036Z" fill="#E3E3E3"/>
<path d="M24.0525 3.68131H15.2507V1.0231C15.2513 0.532715 15.6478 0.135324 16.1371 0.13474H20.8439C21.1166 0.13227 21.3747 0.257943 21.5413 0.474305L24.0525 3.68131Z" fill="#E6E6E6"/>
<path d="M28.559 25.6673H13.8624C12.8937 25.6662 12.1088 24.8794 12.1077 23.9086V19.8801C12.1088 18.9093 12.8937 18.1225 13.8624 18.1214H31.5018C32.4704 18.1225 33.2554 18.9093 33.2565 19.8801V20.9591C33.2536 23.5581 31.1521 25.6643 28.559 25.6673Z" fill="white"/>
<path d="M18.0933 21.1602H14.4658C13.9744 21.1617 13.5748 20.7637 13.5732 20.2712C13.5717 19.7787 13.9688 19.3782 14.4602 19.3766H18.0933C18.5847 19.375 18.9843 19.773 18.9859 20.2655C18.9875 20.758 18.5904 21.1586 18.099 21.1602H18.0933Z" fill="#F2F2F2"/>
<path d="M30.413 23.9728H14.4658C13.9744 23.9744 13.5748 23.5764 13.5732 23.0838C13.5717 22.5913 13.9688 22.1908 14.4602 22.1892H30.413C30.9044 22.1876 31.304 22.5856 31.3056 23.0782C31.3072 23.5707 30.9101 23.9712 30.4187 23.9728H30.413Z" fill="#F2F2F2"/>
<path d="M46.81 62.1215H42.6569C41.831 62.1215 41.1615 62.7926 41.1615 63.6204C41.1615 64.4482 40.4919 65.1193 39.666 65.1193H25.82C24.9941 65.1193 24.3245 64.4482 24.3245 63.6204L24.0508 62.1009L21.541 58.8939C21.3743 58.6776 21.1162 58.5519 20.8435 58.5544H16.1367C15.6474 58.5549 15.251 58.9523 15.2504 59.4427L15.1532 62.1009H13.3738C11.802 62.1009 10.5278 63.378 10.5278 64.9534V83.5313C10.5278 84.9293 11.6586 86.0626 13.0534 86.0626H46.8101C48.2041 86.0609 49.3336 84.9284 49.3349 83.5313V64.6521C49.3349 63.2545 48.2045 62.1215 46.81 62.1215Z" fill="#E3E3E3"/>
<path d="M24.0525 62.0321H15.2507V59.3739C15.2513 58.8835 15.6478 58.4861 16.1371 58.4855H20.8439C21.1166 58.483 21.3747 58.6087 21.5413 58.8251L24.0525 62.0321Z" fill="#E6E6E6"/>
<path d="M28.559 84.0183H13.8624C12.8937 84.0172 12.1088 83.2304 12.1077 82.2596V78.2311C12.1088 77.2603 12.8937 76.4735 13.8624 76.4724H31.5018C32.4704 76.4735 33.2554 77.2603 33.2565 78.2311V79.3101C33.2536 81.9091 31.1521 84.0153 28.559 84.0183Z" fill="white"/>
<path d="M18.0933 79.5111H14.4658C13.9744 79.5127 13.5748 79.1147 13.5732 78.6222C13.5717 78.1297 13.9688 77.7291 14.4602 77.7275H18.0933C18.5847 77.726 18.9843 78.124 18.9859 78.6165C18.9875 79.109 18.5904 79.5095 18.099 79.5111H18.0933Z" fill="#F2F2F2"/>
<path d="M30.413 82.3235H14.4658C13.9744 82.3251 13.5748 81.9271 13.5732 81.4346C13.5717 80.942 13.9688 80.5415 14.4602 80.5399H30.413C30.9044 80.5383 31.304 80.9363 31.3056 81.4289C31.3072 81.9214 30.9101 82.3219 30.4187 82.3235H30.413Z" fill="#F2F2F2"/>
<path d="M46.81 120.472H42.6569C41.831 120.472 41.1615 121.143 41.1615 121.971C41.1615 122.799 40.4919 123.47 39.666 123.47H25.82C24.9941 123.47 24.3245 122.799 24.3245 121.971L24.0508 120.452L21.541 117.245C21.3743 117.028 21.1162 116.903 20.8435 116.905H16.1367C15.6474 116.906 15.251 117.303 15.2504 117.793L15.1532 120.452H13.3738C11.802 120.452 10.5278 121.729 10.5278 123.304V141.882C10.5278 143.28 11.6585 144.413 13.0534 144.413H46.8101C48.2041 144.412 49.3336 143.279 49.3349 141.882V123.003C49.3349 121.605 48.2045 120.472 46.81 120.472Z" fill="#E3E3E3"/>
<path d="M24.0525 120.383H15.2507V117.725C15.2513 117.235 15.6478 116.837 16.1371 116.837H20.8439C21.1166 116.834 21.3747 116.96 21.5413 117.176L24.0525 120.383Z" fill="#E6E6E6"/>
<path d="M28.559 142.369H13.8624C12.8937 142.368 12.1088 141.581 12.1077 140.61V136.582C12.1088 135.611 12.8937 134.824 13.8624 134.823H31.5018C32.4704 134.824 33.2554 135.611 33.2565 136.582V137.661C33.2536 140.26 31.1521 142.366 28.559 142.369Z" fill="white"/>
<path d="M18.0932 137.862H14.4657C13.9743 137.862 13.5759 137.463 13.5759 136.97C13.5759 136.478 13.9743 136.078 14.4657 136.078H18.0932C18.5846 136.078 18.9829 136.478 18.9829 136.97C18.9829 137.463 18.5846 137.862 18.0932 137.862Z" fill="#F2F2F2"/>
<path d="M30.4129 140.674H14.4657C13.9743 140.674 13.5759 140.275 13.5759 139.783C13.5759 139.29 13.9743 138.891 14.4657 138.891H30.4129C30.9043 138.891 31.3026 139.29 31.3026 139.783C31.3026 140.275 30.9043 140.674 30.4129 140.674Z" fill="#F2F2F2"/>
<path d="M121.976 13.7233C120.621 13.7249 119.523 14.8257 119.521 16.184V59.3041C119.523 60.6625 120.621 61.7633 121.976 61.7648H182.829C184.185 61.7633 185.283 60.6625 185.284 59.3041V16.184C185.283 14.8257 184.185 13.7249 182.829 13.7233H121.976Z" fill="#E6E6E6"/>
<path d="M160.943 59.6663H123.694C122.236 59.6647 121.054 58.4799 121.052 57.0179V17.9084C121.054 16.4464 122.236 15.2616 123.694 15.2599H181.109C182.567 15.2616 183.75 16.4464 183.751 17.9084V36.8057C183.737 49.4253 173.534 59.652 160.943 59.6663Z" fill="white"/>
<path d="M146.353 26.0832H137.502C137.035 26.0832 136.656 25.7038 136.656 25.2359C136.656 24.768 137.035 24.3887 137.502 24.3887H146.353C146.82 24.3887 147.198 24.768 147.198 25.2359C147.198 25.7038 146.82 26.0832 146.353 26.0832Z" fill="#F58634"/>
<path d="M166.195 29.5481H137.502C137.035 29.5481 136.656 29.1688 136.656 28.7009C136.656 28.233 137.035 27.8537 137.502 27.8537H166.195C166.662 27.8537 167.04 28.233 167.04 28.7009C167.04 29.1688 166.662 29.5481 166.195 29.5481Z" fill="#E6E6E6"/>
<path d="M166.195 33.5257H137.502C137.035 33.5257 136.656 33.1464 136.656 32.6785C136.656 32.2106 137.035 31.8313 137.502 31.8313H166.195C166.662 31.8313 167.04 32.2106 167.04 32.6785C167.04 33.1464 166.662 33.5257 166.195 33.5257Z" fill="#E6E6E6"/>
<path d="M166.195 37.5031H137.502C137.035 37.5031 136.656 37.1238 136.656 36.6559C136.656 36.188 137.035 35.8087 137.502 35.8087H166.195C166.662 35.8087 167.04 36.188 167.04 36.6559C167.04 37.1238 166.662 37.5031 166.195 37.5031Z" fill="#E6E6E6"/>
<path d="M166.195 41.4806H137.502C137.035 41.4806 136.656 41.1012 136.656 40.6333C136.656 40.1654 137.035 39.7861 137.502 39.7861H166.195C166.662 39.7861 167.04 40.1654 167.04 40.6333C167.04 41.1012 166.662 41.4806 166.195 41.4806Z" fill="#E6E6E6"/>
<path d="M189.201 43.8288H177.189C174.8 43.8288 172.863 45.7698 172.863 48.1641C172.863 50.5583 170.927 52.4993 168.538 52.4993H128.491C126.102 52.4993 124.166 50.5584 124.166 48.1641L123.374 43.7693L116.115 34.4937C115.633 33.8679 114.887 33.5044 114.098 33.5116H100.484C99.0692 33.5133 97.9224 34.6626 97.9208 36.081L97.6397 43.7693H92.493C87.947 43.7693 84.2617 47.463 84.2617 52.0194V105.752C84.2617 109.796 87.5321 113.074 91.5663 113.074H189.201C193.232 113.069 196.499 109.793 196.503 105.752V51.1481C196.503 47.1058 193.234 43.8288 189.201 43.8288Z" fill="#CECECE"/>
<path d="M123.378 43.5708H97.9209V35.8825C97.9226 34.4641 99.0693 33.3148 100.484 33.3131H114.098C114.887 33.3059 115.633 33.6694 116.115 34.2952L123.378 43.5708Z" fill="#CCCCCC"/>
<path d="M136.413 107.161H93.906C91.1043 107.158 88.834 104.882 88.8308 102.074V90.4227C88.834 87.6147 91.1043 85.3391 93.906 85.3359H144.924C147.726 85.3391 149.996 87.6147 149.999 90.4227V93.5434C149.991 101.061 143.913 107.152 136.413 107.161Z" fill="white"/>
<path d="M106.142 94.1248H95.6501C94.2288 94.1248 93.0767 92.97 93.0767 91.5455C93.0767 90.121 94.2288 88.9662 95.6501 88.9662H106.142C107.563 88.9643 108.717 90.1177 108.719 91.5422C108.72 92.9667 107.57 94.123 106.148 94.1248H106.142Z" fill="#F58634"/>
<path d="M141.774 102.259H95.6501C94.2288 102.259 93.0767 101.105 93.0767 99.68C93.0767 98.2555 94.2288 97.1007 95.6501 97.1007H141.774C143.195 97.0989 144.349 98.2522 144.351 99.6767C144.353 101.101 143.202 102.257 141.781 102.259L141.774 102.259Z" fill="#F58634"/>
<path d="M306.071 197.773H302.33L300.551 183.31L306.072 183.311L306.071 197.773Z" fill="#9E616A"/>
<path d="M306.203 201.684L294.699 201.683V201.537C294.699 199.059 296.704 197.05 299.177 197.05L301.278 195.452L305.199 197.05L306.203 197.05L306.203 201.684Z" fill="#2F2E41"/>
<path d="M294.519 184.776L290.938 185.858L285.069 172.526L290.355 170.929L294.519 184.776Z" fill="#9E616A"/>
<path d="M295.772 188.482L284.758 191.81L284.716 191.67C284.003 189.297 285.343 186.794 287.711 186.078L289.263 183.941L293.476 184.336L294.438 184.046L295.772 188.482Z" fill="#2F2E41"/>
<path d="M289.382 106.143C289.382 106.143 285.38 112.266 283.964 116.432C280.495 126.641 278.835 124.192 274.839 149.014C280.261 167.348 285.63 179.435 285.63 179.435C285.63 179.435 293.698 177.161 293.698 175.644C293.698 174.128 288.55 155.637 287.794 153.489C287.038 151.341 285.777 150.583 286.912 148.814C288.046 147.045 297.366 131.58 297.366 131.58C297.366 131.58 297.114 157.94 297.366 158.445C297.619 158.951 298.831 189.306 298.831 189.306C298.831 189.306 307.129 193.563 307.632 189.026C307.758 187.889 307.917 157.808 307.917 157.302C307.917 156.797 315.599 109.7 311.943 107.804C308.286 105.909 289.382 106.143 289.382 106.143Z" fill="#2F2E41"/>
<path d="M272.613 110.507C272.827 108.578 274.56 107.188 276.484 107.402C276.689 107.425 276.892 107.466 277.09 107.524L284.339 97.3685L286.661 103.426L279.421 112.141C278.748 113.972 276.721 114.909 274.895 114.234C273.366 113.669 272.423 112.128 272.613 110.507Z" fill="#9E616A"/>
<path d="M282.611 108.933L277.791 105.27L287.91 89.6528L296.037 58.2704L302.472 64.2759C303.586 64.6201 304.508 65.4124 305.016 66.4636C305.534 67.5227 306.633 65.7493 306.222 66.8543L297.171 91.3505L297.158 91.3675L282.611 108.933Z" fill="#3F3D56"/>
<path d="M299.648 56.9846L292.792 59.6545L289.975 63.5555L283.144 98.6675L283.416 99.8527L282.736 100.766L282.469 102.14L283.131 103.282L281.968 104.714C281.968 104.714 282.276 105.855 283.416 115.572C284.12 121.568 295.506 117.875 295.506 117.875L300.675 64.624L299.648 56.9846Z" fill="#3F3D56"/>
<path d="M314.281 61.5212L308.366 56.2185L299.62 56.7469L294.585 62.8837L284.82 113.574L305.351 115.288L314.281 61.5212Z" fill="#E6E6E6"/>
<path d="M309.096 57.0718L314.476 61.2111L316.539 64.2286C320.155 66.3006 321.827 70.6296 320.545 74.6018L314.011 97.6864L313.859 98.1581C313.703 98.6153 314.448 102.235 314.077 106.134C313.981 107.15 315.157 108.282 315.068 109.284C314.999 110.069 313.663 110.736 313.604 111.456C313.551 112.107 314.254 112.725 314.213 113.286C314.107 114.378 313.81 115.443 313.335 116.432C307.769 118.74 297.021 117.066 297.021 117.066L306.76 64.4617L309.096 57.0718Z" fill="#3F3D56"/>
<path d="M303.083 54.1783C308.43 54.1783 312.765 49.8338 312.765 44.4745C312.765 39.1152 308.43 34.7706 303.083 34.7706C297.736 34.7706 293.401 39.1152 293.401 44.4745C293.401 49.8338 297.736 54.1783 303.083 54.1783Z" fill="#9E616A"/>
<path d="M315.636 44.8893C315.075 48.0789 312.802 51.2342 309.628 51.8401L309.568 51.76C309.745 50.3774 309.822 48.9839 309.799 47.5902C309.787 46.6968 309.055 45.9824 308.164 45.9945C307.499 46.0035 306.907 46.4203 306.674 47.0443C306.731 45.8296 306.218 44.5892 305.887 43.4174C305.556 42.2485 305.331 41.1396 304.179 40.7566C303.218 40.4393 302.171 40.6594 301.185 40.8852C299.822 41.1939 299.129 41.1224 299.006 40.7766C298.502 40.9616 297.998 41.1463 297.493 41.3306C297.101 41.4734 296.663 41.3383 296.418 40.9996L296.414 40.9938C295.533 41.2224 294.652 41.4492 293.771 41.674C293.604 41.1084 293.468 40.534 293.363 39.9535C294.118 39.3358 294.658 38.4944 294.906 37.5499C294.378 37.8545 293.805 38.0743 293.209 38.2015C293.168 36.8475 293.755 35.5509 294.8 34.6918C296.885 33.0142 298.975 31.9852 301.644 32.1196C304.872 32.2825 305.839 35.7636 308.773 34.406C312.48 32.6912 316.198 41.6997 315.636 44.8893Z" fill="#2F2E41"/>
<path d="M261.361 50.8054C260.513 50.122 259.273 50.2554 258.589 51.1036L236.915 78.0521C236.233 78.9018 236.366 80.1443 237.212 80.8296L275.243 111.558C276.091 112.241 277.331 112.108 278.014 111.26L299.689 84.3111C300.371 83.4615 300.238 82.2189 299.392 81.5336L261.361 50.8054Z" fill="#CCCCCC"/>
<path d="M262.62 99.1952L239.341 80.3863C238.43 79.6487 238.287 78.3114 239.021 77.3969L258.68 52.9548C259.416 52.0419 260.75 51.8983 261.663 52.6339L297.545 81.6257C298.455 82.3633 298.599 83.7006 297.865 84.6152L288.366 96.4253C282.013 104.305 270.496 105.544 262.62 99.1952Z" fill="white"/>
<path d="M270.383 70.8391L264.851 66.3695C264.559 66.1349 264.511 65.7069 264.745 65.4136C264.979 65.1202 265.406 65.0726 265.699 65.3072L265.703 65.3105L271.235 69.7802C271.526 70.017 271.57 70.4454 271.334 70.7369C271.099 71.0267 270.674 71.0724 270.383 70.8391Z" fill="#F58634"/>
<path d="M281.042 83.0242L263.11 68.5351C262.817 68.3006 262.77 67.8726 263.004 67.5792C263.238 67.2859 263.665 67.2382 263.957 67.4728L263.961 67.4762L281.894 81.9652C282.185 82.2021 282.229 82.6305 281.993 82.9219C281.758 83.2118 281.333 83.2574 281.042 83.0242Z" fill="#E6E6E6"/>
<path d="M279.043 85.5098L261.11 71.0208C260.818 70.7862 260.77 70.3583 261.004 70.0649C261.238 69.7716 261.665 69.7239 261.958 69.9585L261.962 69.9618L279.894 84.4509C280.185 84.6878 280.229 85.1161 279.993 85.4076C279.758 85.6974 279.334 85.7431 279.043 85.5098Z" fill="#E6E6E6"/>
<path d="M277.043 87.9957L259.11 73.5067C258.818 73.2721 258.77 72.8441 259.004 72.5508C259.238 72.2574 259.665 72.2098 259.958 72.4444L259.962 72.4477L277.895 86.9368C278.185 87.1737 278.23 87.602 277.993 87.8935C277.758 88.1833 277.334 88.229 277.043 87.9957Z" fill="#E6E6E6"/>
<path d="M275.043 90.4816L257.111 75.9925C256.818 75.758 256.771 75.33 257.005 75.0366C257.239 74.7433 257.666 74.6956 257.958 74.9302L257.962 74.9336L275.895 89.4226C276.186 89.6595 276.23 90.0879 275.994 90.3793C275.759 90.6692 275.334 90.7148 275.043 90.4816Z" fill="#E6E6E6"/>
<path d="M271.138 90.0021C272.382 88.5147 274.593 88.3195 276.077 89.5661C276.235 89.699 276.381 89.8457 276.514 90.0044L288.162 85.5738L286.747 91.906L275.903 95.1425C274.33 96.2929 272.125 95.9478 270.978 94.3718C270.017 93.0531 270.083 91.2466 271.138 90.0021Z" fill="#9E616A"/>
<path d="M280.332 94.5282L278.344 88.8023L295.399 81.4181L316.592 65.637L319.267 68.947C320.742 70.7716 320.461 73.4488 318.641 74.9267C318.581 74.9749 318.521 75.0215 318.459 75.0664L302.171 87.9731L302.151 87.9801L297.095 89.4974L295.963 89.5638L294.755 90.1997L293.682 89.8496L292.196 90.9676L290.49 91.4796L280.332 94.5282Z" fill="#3F3D56"/>
<path d="M192.542 119.504C186.78 119.504 182.109 114.822 182.109 109.047C182.109 103.272 186.78 98.5906 192.542 98.5906C198.304 98.5906 202.974 103.272 202.974 109.047C202.974 114.822 198.304 119.504 192.542 119.504Z" fill="#F58634"/>
<path d="M196.658 108.016H193.57V104.921C193.57 104.352 193.11 103.89 192.541 103.89C191.973 103.89 191.512 104.352 191.512 104.921V108.016H188.425C187.856 108.016 187.396 108.478 187.396 109.047C187.396 109.617 187.856 110.079 188.425 110.079H191.512V113.173C191.512 113.743 191.973 114.205 192.541 114.205C193.11 114.205 193.57 113.743 193.57 113.173V110.079H196.658C197.226 110.079 197.687 109.617 197.687 109.047C197.687 108.478 197.226 108.016 196.658 108.016Z" fill="white"/>
<path d="M48.4109 32.5158C45.6558 32.5158 43.4224 30.2773 43.4224 27.5159C43.4224 24.7545 45.6558 22.5159 48.4109 22.5159C51.166 22.5159 53.3995 24.7545 53.3995 27.5159C53.3995 30.2773 51.166 32.5158 48.4109 32.5158Z" fill="#E6E6E6"/>
<path d="M50.3783 27.0226H46.4416C46.1698 27.0227 45.9496 27.2436 45.9497 27.516C45.9498 27.7882 46.17 28.0089 46.4416 28.009H50.3783C50.6501 28.0091 50.8705 27.7884 50.8706 27.516C50.8707 27.2436 50.6505 27.0227 50.3787 27.0226H50.3783Z" fill="white"/>
<path d="M48.4109 90.0675C45.6558 90.0675 43.4224 87.8289 43.4224 85.0675C43.4224 82.3061 45.6558 80.0676 48.4109 80.0676C51.166 80.0676 53.3995 82.3061 53.3995 85.0675C53.3995 87.8289 51.166 90.0675 48.4109 90.0675Z" fill="#E6E6E6"/>
<path d="M50.3783 84.5743H46.4416C46.1698 84.5744 45.9496 84.7953 45.9497 85.0677C45.9498 85.3399 46.17 85.5606 46.4416 85.5607H50.3783C50.6501 85.5608 50.8705 85.3401 50.8706 85.0677C50.8707 84.7953 50.6505 84.5744 50.3787 84.5743H50.3783Z" fill="white"/>
<path d="M48.4109 147.619C45.6558 147.619 43.4224 145.38 43.4224 142.619C43.4224 139.858 45.6558 137.619 48.4109 137.619C51.166 137.619 53.3995 139.858 53.3995 142.619C53.3995 145.38 51.166 147.619 48.4109 147.619Z" fill="#E6E6E6"/>
<path d="M50.3783 142.126H46.4416C46.1698 142.126 45.9496 142.347 45.9497 142.619C45.9498 142.892 46.17 143.112 46.4416 143.112H50.3783C50.6501 143.113 50.8705 142.892 50.8706 142.619C50.8707 142.347 50.6505 142.126 50.3787 142.126H50.3783Z" fill="white"/>
</g>
<defs>
<clipPath id="clip0_1148_766">
<rect width="321" height="203" fill="white"/>
</clipPath>
</defs>
</svg>
