<svg width="161" height="28" viewBox="0 0 161 28" fill="none" xmlns="http://www.w3.org/2000/svg">
<path d="M0.871124 27.0219C0.871124 22.8262 0.871124 18.8428 0.871124 14.4223C2.71908 16.1955 4.23661 17.8313 5.86428 19.4422C5.91323 20.129 5.81532 20.8532 5.88875 21.7898C8.03042 21.8397 10.3312 22.1019 12.4117 21.6649C14.8348 21.1529 16.3401 18.643 16.0342 16.0706C15.7404 13.5981 13.7211 11.7 11.2613 11.6501C9.58466 11.6126 7.8958 11.6501 5.94994 11.6501C5.94994 12.6366 5.94994 13.4982 5.94994 14.3598C5.94994 15.2215 5.94994 16.0956 5.94994 17.3568C4.05304 15.4837 2.42536 13.8853 0.883359 12.3494C0.883359 10.289 0.883359 6.51784 0.883359 6.51784L0.895598 6.29307C4.82403 6.34302 9.07066 6.14322 12.9624 6.51784C17.5394 6.9549 21.1007 11.5627 21.3333 16.2704C21.5903 21.4901 17.8699 25.8731 13.5621 26.8721C13.3173 26.9345 13.0603 27.0219 12.8155 27.0219C8.87485 27.0219 4.94642 27.0219 0.871124 27.0219ZM102.227 6.20566L97.4788 10.9633L92.3878 15.9832L82.377 5.83104C82.377 5.83104 82.377 10.6886 82.377 12.4992C85.9138 16.1081 89.2671 19.5296 92.706 23.0385C94.1623 21.565 97.2953 18.4182 97.2953 18.4182L97.6502 18.131C97.6502 18.131 97.6502 24.1499 97.6502 26.972C99.4369 26.972 101.04 26.972 102.656 26.972C102.656 20.0041 102.656 5.85602 102.656 5.85602L102.227 6.20566ZM51.1208 26.947C51.1208 19.8792 51.1208 5.83104 51.1208 5.83104L45.785 11.5627C45.785 11.5627 45.785 16.1955 45.785 19.1175C45.1486 18.4931 44.3532 17.7189 44.3532 17.7189L32.3843 5.79358V12.8863L46.1522 26.9345C46.1522 26.947 49.4809 26.947 51.1208 26.947ZM116.803 23.9001C119.63 26.9595 124.378 27.9335 128.417 26.4225C131.684 25.1988 134.781 21.2278 134.658 18.3682C132.896 18.3682 131.121 18.3682 129.359 18.3682C128.05 20.566 126.349 22.077 123.717 21.6649C120.866 21.2153 119.446 19.2424 119.128 17.107C117.39 15.3089 116.032 13.9103 114.637 12.4743C113.058 16.2704 113.902 20.7783 116.803 23.9001ZM147.716 5.83104C146.615 7.67916 145.66 9.25255 144.681 10.8884C147.912 16.3203 151.094 21.6899 154.264 27.0219C156.271 27.0219 158.143 27.0219 160.358 27.0219C156.087 19.8542 151.975 12.9613 147.716 5.83104ZM66.7489 5.83104C65.623 7.72911 64.6807 9.31499 63.7261 10.9134C66.7979 16.0831 69.8207 21.1654 72.8435 26.2352C73.0026 26.4975 73.1862 26.7472 73.4187 27.0843C73.8593 27.0843 74.3121 27.0843 74.7649 27.0843C76.1967 27.0843 77.6164 27.0843 79.4398 27.0843C75.1198 19.8542 71.0078 12.9613 66.7489 5.83104ZM126.508 5.83104C121.955 5.01937 116.803 7.69164 115.506 10.8634C116.729 12.237 118.247 13.5482 119.41 14.8468C122.494 10.0392 127.095 10.2016 129.543 14.4597C131.256 14.4597 132.982 14.4597 134.695 14.4597C134.634 11.0133 131.121 6.6552 126.508 5.83104ZM146.835 17.4442C145.844 15.8084 144.877 14.1975 143.788 12.3869C140.814 17.3568 137.987 22.0894 135.05 26.9969C137.179 26.9969 139.052 26.9969 141.12 26.9969C143.005 23.8377 144.902 20.6909 146.835 17.4442ZM65.8678 17.4317C64.852 15.7584 63.9097 14.185 62.8327 12.3993C59.8589 17.3693 56.9584 22.0645 54.1069 27.0344C56.3098 27.0344 58.1945 27.0344 60.1403 27.0344C62.0372 23.8377 63.9464 20.6534 65.8678 17.4317ZM29.1901 16.6575C27.4034 14.8593 25.8124 13.2734 24.2459 11.6876C24.2459 16.67 24.2459 21.7773 24.2459 26.9969C25.8858 26.9969 27.4523 26.9969 29.1901 26.9969C29.1901 23.3257 29.1901 19.7918 29.1901 16.6575ZM110.794 16.7074C108.983 14.8718 107.392 13.2859 105.837 11.7125C105.837 16.6825 105.837 21.8022 105.837 27.0094C107.49 27.0094 109.056 27.0094 110.794 27.0094C110.794 23.3132 110.794 19.7793 110.794 16.7074ZM32.3965 15.2464C32.3965 18.7429 32.3965 23.1384 32.3965 26.9595C34.0976 26.9595 35.6886 26.9595 37.3652 26.9595C37.3652 24.7243 37.3652 21.9771 37.3652 20.2788C35.4683 18.3682 33.8651 16.7449 32.3965 15.2464ZM87.3579 19.9541C85.5589 18.0561 83.9924 16.3953 82.4504 14.7719C82.4504 18.5306 82.4504 23.1509 82.4504 26.9845C84.1515 26.9845 85.7058 26.9845 87.3579 26.9845C87.3579 24.6743 87.3579 21.6899 87.3579 19.9541ZM24.2092 9.61468L24.4417 9.83945C24.4417 9.83945 27.6114 13.1236 29.2391 14.8094C29.2391 12.4243 29.2758 8.72808 29.2268 6.24312C27.4523 6.24312 25.9348 6.24312 24.197 6.24312C24.2092 7.20464 24.2092 9.61468 24.2092 9.61468ZM106.168 9.80199C106.168 9.80199 109.338 13.0612 110.769 14.5347C110.769 12.4243 110.769 8.76555 110.769 6.30556C109.068 6.30556 107.477 6.30556 105.801 6.30556C105.801 7.20464 105.801 9.36493 105.801 9.36493L106.168 9.80199ZM66.7244 2.40953L68.8906 5.09429L71.6564 5.08181C71.6564 5.08181 68.9885 1.94751 67.8381 0.511475C66.9447 0.511475 65.4394 0.511475 65.4394 0.511475L61.768 5.10678H64.5461L66.7244 2.40953Z" fill="#13524A"/>
</svg>
