<svg width="226" height="39" viewBox="0 0 226 39" fill="none" xmlns="http://www.w3.org/2000/svg">
<g clip-path="url(#clip0_890_1141)">
<mask id="mask0_890_1141" style="mask-type:alpha" maskUnits="userSpaceOnUse" x="-16" y="-18" width="254" height="75">
<rect x="-15.2554" y="-17.501" width="252.598" height="74.3294" fill="white"/>
</mask>
<g mask="url(#mask0_890_1141)">
<path d="M12.6907 37.6239C13.1375 37.9811 13.6341 38.2748 14.1642 38.4986C14.1253 38.5056 14.0854 38.5117 14.046 38.5178C12.7252 38.7285 10.3088 39.0008 7.50092 38.5707C5.84574 38.3163 4.84439 37.9391 4.03605 37.509C2.90375 36.9058 2.18287 36.2156 1.89198 35.9175C1.38496 35.4009 0.698512 34.7002 0.297064 33.5825C-0.109821 32.454 -0.00741914 31.5041 0.0768577 30.7178C0.113559 30.3742 0.390857 28.9716 1.28165 27.3224C1.9015 26.1755 2.44522 25.3966 3.59655 24.1963C3.96537 23.8108 4.96808 22.8924 6.47011 21.7179L7.67944 25.4328C7.20822 25.8721 6.58203 26.5098 5.96219 27.3753C5.27393 28.3365 4.33691 29.6307 4.03605 31.5142C3.88426 32.4701 3.7506 33.965 4.63687 35.3864C5.29341 36.4412 6.14977 36.9504 6.51134 37.1375C6.82444 37.2992 7.64863 37.7874 9.48187 37.8757C10.7741 37.9391 11.8937 37.7844 12.6907 37.6239Z" fill="#13524A"/>
<path d="M44.5714 7.21807C44.5682 8.37726 44.3249 9.28861 43.9117 10.6624C43.57 11.7941 43.2347 12.5957 42.6466 14.0049C42.1333 15.2314 41.7599 15.8731 41.3313 16.711C41.0984 17.1647 40.8125 17.8946 39.7889 19.4415L37.6892 12.986C38.0531 12.2141 38.4133 11.3937 38.7413 10.5566C39.3884 8.90003 39.4772 8.68235 39.8483 7.66872C40.078 7.0393 40.3625 6.03747 40.4672 5.05225C40.5411 4.35158 40.5347 3.86859 40.1269 3.40089C39.7631 2.98302 39.0898 2.81431 38.3023 2.73475C37.6108 2.66438 36.2656 2.79376 35.9253 2.85583C34.5488 3.10585 33.9099 3.23611 32.8945 3.5329C31.4451 2.72863 29.6648 2.48867 27.943 3.00925L18.2798 5.93475C19.0903 5.32063 19.7532 4.93205 19.7532 4.93205C22.4211 3.32746 23.7505 2.69979 25.5973 2.01442C27.9616 1.13585 29.8751 0.711861 30.5465 0.581606C31.6512 0.369176 32.9407 0.024306 34.6716 0.00288819C36.3222 -0.0185296 37.7803 0.0649568 39.5121 0.741148C40.0762 0.961009 41.261 1.4864 42.4269 2.54505C42.9728 3.04028 43.6181 3.626 44.0766 4.6134C44.5637 5.66506 44.5723 6.49118 44.5714 7.21807Z" fill="#13524A"/>
<path d="M20.7559 34.0607C19.1243 35.1823 16.8103 36.5906 13.8258 37.3503C13.6309 37.4002 13.2354 37.5129 12.6903 37.6239C11.7972 36.9119 11.1008 35.952 10.7284 34.8073L7.67854 25.4333C7.81764 25.303 7.94315 25.1911 8.05054 25.0945C9.08769 24.1653 9.95855 23.5385 11.1371 22.8199C12.1851 22.1804 13.4171 21.5536 14.9508 20.9438C15.6486 20.6663 15.9322 20.5413 16.8715 20.2545C17.5009 20.0622 17.9784 19.9617 18.2113 19.9486C18.3513 19.9403 18.1352 20.1763 17.8402 20.6379C17.466 21.2245 17.1497 21.8438 16.7954 22.4418C16.0333 23.726 15.6518 24.3689 15.5852 25.095C15.485 26.186 15.949 27.0422 16.2449 27.5886C16.3894 27.8552 16.7677 28.5301 17.4139 29.007C17.8914 29.3597 18.094 29.25 18.156 29.2194C18.3681 29.1158 18.4691 28.7181 18.4995 28.4903C18.5829 27.8771 18.7587 27.2783 18.9399 26.6864C19.1456 26.0102 19.3491 25.5849 19.8887 24.5774C20.6898 23.0795 20.5348 23.5424 21.2634 22.322C21.6966 21.596 21.992 21.1493 22.6245 20.1138C22.7229 19.9534 22.9113 19.706 22.9902 19.6037C23.0128 19.5744 23.05 19.5582 23.0881 19.5609C24.789 19.6714 26.0599 19.994 27.0287 20.4705C28.122 21.0072 28.8121 21.5798 28.8945 22.6009C28.9032 22.7058 28.9906 23.1184 29.2656 22.9995C29.7622 22.784 29.7749 21.2791 29.5543 20.4836C29.3486 19.7401 29.3064 19.2448 28.3767 18.0052C27.8212 17.2639 27.1759 16.8845 26.3096 16.5256C26.0332 16.4116 25.5951 16.2206 25.2512 16.1943C25.4156 15.9023 25.5747 15.6685 25.7591 15.3726C26.2765 14.5417 26.6127 14.1382 26.7722 13.4751C26.9059 12.9209 26.7573 12.1013 26.4473 11.1629C26.2009 10.4146 25.7455 9.81444 25.1537 9.28467C25.0106 9.15573 24.5235 8.90658 24.2185 9.07224C23.9358 9.22698 23.9888 9.66014 23.8887 10.2397C23.8098 10.6965 23.5915 11.4033 23.1193 12.2421C22.6789 13.0249 22.2485 13.6321 21.8543 14.2322C21.4188 14.8931 21.1597 15.2734 20.8497 15.7209C20.6612 15.9928 20.4786 15.9819 20.094 16.023C19.1565 16.1235 17.9707 16.3665 16.4782 16.805C15.2132 17.1774 14.3908 17.4772 13.7143 17.7202C12.9091 18.01 11.63 18.476 10.085 19.3126C8.57749 20.1282 7.54125 20.9041 6.8394 21.4347C6.71298 21.5304 6.58838 21.6257 6.46831 21.7192L4.70982 16.3154C3.684 13.163 5.50139 9.80395 8.77051 8.81479L18.277 5.93606C17.8049 6.29405 17.2829 6.72808 16.8126 7.20627C16.6187 7.4034 15.963 7.95371 15.9091 8.44807C15.8765 8.75535 15.9744 9.04689 16.2168 9.55043C16.3758 9.88088 16.6078 10.193 17.0138 10.6642C17.2435 10.9308 17.5367 11.2223 18.0595 11.6057C18.3482 11.8181 18.8511 12.0926 19.0355 11.9505C19.2684 11.7705 18.8511 11.3495 19.0124 10.7721C19.1665 10.2218 19.5575 9.98797 20.2045 9.4971C20.741 9.09017 22.0196 8.30513 23.229 7.64031C25.3413 6.47894 27.1188 5.73981 27.2579 5.67774C29.8914 4.49932 31.0654 4.0902 32.3694 3.69156C32.5561 3.63474 32.7287 3.58272 32.8913 3.53508C34.1945 4.25804 35.2307 5.4369 35.7155 6.92871L37.687 12.9886C36.9303 14.5994 36.1605 15.9937 35.6589 16.8731C34.436 19.018 32.817 21.8569 30.1048 25.2025C25.7441 30.5788 21.654 33.4431 20.7559 34.0607Z" fill="#F58634"/>
<path d="M37.6729 32.9195L18.5045 38.7241C17.0183 39.1735 15.4877 39.0568 14.1647 38.4986C17.1017 38.0147 19.1982 37.1042 20.9218 36.3415C23.8778 35.0346 25.9186 33.6293 27.3563 32.6279C28.5167 31.8206 30.0622 30.5596 31.7563 29.0249C33.9765 27.0125 35.566 25.1566 36.5411 23.931C37.4686 22.7644 38.063 21.9929 39.2366 20.2659C39.4391 19.9678 39.6235 19.6933 39.7889 19.4411L41.7336 25.4184C42.7603 28.5721 40.9416 31.9303 37.6729 32.9195Z" fill="#F58634"/>
<path d="M65.8711 31.0222C65.8711 26.8264 65.8711 22.843 65.8711 18.4225C67.719 20.1957 69.2366 21.8315 70.8642 23.4424C70.9132 24.1292 70.8153 24.8535 70.8887 25.79C73.0304 25.84 75.3312 26.1022 77.4116 25.6651C79.8348 25.1532 81.3401 22.6432 81.0341 20.0708C80.7404 17.5984 78.7211 15.7003 76.2613 15.6503C74.5846 15.6129 72.8958 15.6503 70.9499 15.6503C70.9499 16.6368 70.9499 17.4985 70.9499 18.3601C70.9499 19.2217 70.9499 20.0958 70.9499 21.357C69.053 19.4839 67.4253 17.8856 65.8833 16.3496C65.8833 14.2892 65.8833 10.5181 65.8833 10.5181L65.8956 10.2933C69.824 10.3433 74.0706 10.1435 77.9624 10.5181C82.5394 10.9551 86.1007 15.5629 86.3332 20.2706C86.5902 25.4903 82.8698 29.8733 78.562 30.8723C78.3173 30.9347 78.0603 31.0222 77.8155 31.0222C73.8748 31.0222 69.9464 31.0222 65.8711 31.0222ZM167.227 10.2059L162.479 14.9635L157.388 19.9834L147.377 9.83129C147.377 9.83129 147.377 14.6888 147.377 16.4995C150.914 20.1083 154.267 23.5298 157.706 27.0387C159.162 25.5652 162.295 22.4184 162.295 22.4184L162.65 22.1312C162.65 22.1312 162.65 28.1501 162.65 30.9722C164.437 30.9722 166.04 30.9722 167.656 30.9722C167.656 24.0043 167.656 9.85626 167.656 9.85626L167.227 10.2059ZM116.121 30.9472C116.121 23.8794 116.121 9.83129 116.121 9.83129L110.785 15.5629C110.785 15.5629 110.785 20.1957 110.785 23.1177C110.149 22.4934 109.353 21.7192 109.353 21.7192L97.3843 9.79383V16.8866L111.152 30.9347C111.152 30.9472 114.481 30.9472 116.121 30.9472ZM181.803 27.9003C184.63 30.9597 189.378 31.9337 193.417 30.4228C196.684 29.199 199.781 25.2281 199.658 22.3685C197.896 22.3685 196.121 22.3685 194.359 22.3685C193.05 24.5663 191.349 26.0772 188.717 25.6651C185.866 25.2156 184.446 23.2426 184.128 21.1073C182.39 19.3091 181.032 17.9105 179.637 16.4745C178.058 20.2706 178.902 24.7785 181.803 27.9003ZM212.716 9.83129C211.615 11.6794 210.66 13.2528 209.681 14.8886C212.912 20.3206 216.094 25.6901 219.264 31.0222C221.271 31.0222 223.143 31.0222 225.358 31.0222C221.087 23.8545 216.975 16.9615 212.716 9.83129ZM131.749 9.83129C130.623 11.7293 129.681 13.3152 128.726 14.9136C131.798 20.0833 134.821 25.1656 137.843 30.2355C138.003 30.4977 138.186 30.7474 138.419 31.0846C138.859 31.0846 139.312 31.0846 139.765 31.0846C141.197 31.0846 142.616 31.0846 144.44 31.0846C140.12 23.8545 136.008 16.9615 131.749 9.83129ZM191.508 9.83129C186.955 9.01962 181.803 11.6919 180.506 14.8636C181.729 16.2372 183.247 17.5484 184.41 18.8471C187.494 14.0395 192.095 14.2018 194.543 18.46C196.256 18.46 197.982 18.46 199.695 18.46C199.634 15.0135 196.121 10.6554 191.508 9.83129ZM211.835 21.4444C210.844 19.8086 209.877 18.1977 208.788 16.3871C205.814 21.357 202.987 26.0897 200.05 30.9972C202.179 30.9972 204.052 30.9972 206.12 30.9972C208.005 27.8379 209.902 24.6911 211.835 21.4444ZM130.868 21.4319C129.852 19.7587 128.91 18.1853 127.833 16.3996C124.859 21.3695 121.958 26.0647 119.107 31.0347C121.31 31.0347 123.194 31.0347 125.14 31.0347C127.037 27.8379 128.946 24.6537 130.868 21.4319ZM94.1901 20.6577C92.4033 18.8596 90.8124 17.2737 89.2459 15.6878C89.2459 20.6702 89.2459 25.7775 89.2459 30.9972C90.8858 30.9972 92.4523 30.9972 94.1901 30.9972C94.1901 27.3259 94.1901 23.792 94.1901 20.6577ZM175.794 20.7077C173.983 18.8721 172.392 17.2862 170.837 15.7128C170.837 20.6827 170.837 25.8025 170.837 31.0097C172.49 31.0097 174.056 31.0097 175.794 31.0097C175.794 27.3134 175.794 23.7795 175.794 20.7077ZM97.3965 19.2467C97.3965 22.7431 97.3965 27.1386 97.3965 30.9597C99.0976 30.9597 100.689 30.9597 102.365 30.9597C102.365 28.7245 102.365 25.9773 102.365 24.279C100.468 22.3685 98.8651 20.7452 97.3965 19.2467ZM152.358 23.9544C150.559 22.0563 148.992 20.3955 147.45 18.7722C147.45 22.5308 147.45 27.1511 147.45 30.9847C149.151 30.9847 150.706 30.9847 152.358 30.9847C152.358 28.6746 152.358 25.6901 152.358 23.9544ZM89.2092 13.6149L89.4417 13.8397C89.4417 13.8397 92.6114 17.1238 94.2391 18.8096C94.2391 16.4246 94.2758 12.7283 94.2268 10.2434C92.4523 10.2434 90.9348 10.2434 89.1969 10.2434C89.2092 11.2049 89.2092 13.6149 89.2092 13.6149ZM171.168 13.8022C171.168 13.8022 174.338 17.0614 175.769 18.5349C175.769 16.4246 175.769 12.7658 175.769 10.3058C174.068 10.3058 172.477 10.3058 170.801 10.3058C170.801 11.2049 170.801 13.3652 170.801 13.3652L171.168 13.8022ZM131.724 6.40978L133.891 9.09454L136.656 9.08205C136.656 9.08205 133.988 5.94775 132.838 4.51172C131.945 4.51172 130.439 4.51172 130.439 4.51172L126.768 9.10703H129.546L131.724 6.40978Z" fill="#13524A"/>
</g>
</g>
<defs>
<clipPath id="clip0_890_1141">
<rect width="225.086" height="39" fill="white"/>
</clipPath>
</defs>
</svg>
