<svg width="80" height="80" viewBox="0 0 80 80" fill="none" xmlns="http://www.w3.org/2000/svg">
<path d="M51.982 29.6878C51.482 29.6044 50.9612 29.5836 50.4195 29.5836H29.5862C29.0028 29.5836 28.4403 29.6253 27.8987 29.7086C28.1903 29.1253 28.607 28.5837 29.107 28.0837L35.8778 21.292C38.732 18.4587 43.357 18.4587 46.2112 21.292L49.857 24.9794C51.1903 26.2919 51.8987 27.9586 51.982 29.6878Z" stroke="white" stroke-width="2.5" stroke-linecap="round" stroke-linejoin="round"/>
<path d="M33.7499 54.5833C33.7499 56.1458 33.3124 57.625 32.5416 58.875C31.1041 61.2917 28.4583 62.9167 25.4166 62.9167C22.3749 62.9167 19.7291 61.2917 18.2916 58.875C17.5208 57.625 17.0833 56.1458 17.0833 54.5833C17.0833 49.9792 20.8124 46.25 25.4166 46.25C30.0208 46.25 33.7499 49.9792 33.7499 54.5833Z" stroke="white" stroke-width="2.5" stroke-miterlimit="10" stroke-linecap="round" stroke-linejoin="round"/>
<path d="M28.5245 54.541H22.3162" stroke="white" stroke-width="2.5" stroke-miterlimit="10" stroke-linecap="round" stroke-linejoin="round"/>
<path d="M25.4167 51.499V57.7282" stroke="white" stroke-width="2.5" stroke-miterlimit="10" stroke-linecap="round" stroke-linejoin="round"/>
<path d="M60.8334 39.9997V50.4163C60.8334 56.6663 56.6668 60.833 50.4168 60.833H30.8959C31.5417 60.2913 32.1042 59.6247 32.5417 58.8747C33.3126 57.6247 33.7501 56.1455 33.7501 54.583C33.7501 49.9788 30.0209 46.2497 25.4167 46.2497C22.9167 46.2497 20.6876 47.3538 19.1667 49.083V39.9997C19.1667 34.333 22.5834 30.3747 27.8959 29.708C28.4376 29.6247 29.0001 29.583 29.5834 29.583H50.4168C50.9584 29.583 51.4793 29.6038 51.9793 29.6871C57.3543 30.3121 60.8334 34.2913 60.8334 39.9997Z" stroke="white" stroke-width="2.5" stroke-linecap="round" stroke-linejoin="round"/>
<path d="M60.8334 41.042H54.5834C52.2917 41.042 50.4167 42.917 50.4167 45.2087C50.4167 47.5003 52.2917 49.3753 54.5834 49.3753H60.8334" stroke="white" stroke-width="2.5" stroke-linecap="round" stroke-linejoin="round"/>
</svg>
